<?xml version="1.0" encoding="UTF-8"?>
<svg width="140px" height="148px" viewBox="0 0 140 148" version="1.1" xmlns="http://www.w3.org/2000/svg" xmlns:xlink="http://www.w3.org/1999/xlink">
    <!-- Generator: Sketch 51.2 (57519) - http://www.bohemiancoding.com/sketch -->
    <title>Add_to_cart</title>
    <desc>Created with Sketch.</desc>
    <defs></defs>
    <g id="Page-1" stroke="none" stroke-width="1" fill="none" fill-rule="evenodd">
        <g id="Add_to_cart" fill-rule="nonzero">
            <g id="Group">
                <path d="M96.2,144.3 L11,144.3 C5.4,144.3 0.8,139.8 0.8,134.1 L0.8,10.4 C0.8,4.8 5.3,0.2 11,0.2 L96.2,0.2 C101.8,0.2 106.4,4.7 106.4,10.4 L106.4,134.1 C106.4,139.8 101.8,144.3 96.2,144.3 Z" id="Shape" fill="#FFFFFF"></path>
                <path d="M106.4,10.5 L106.4,134.2 C106.4,139.8 101.9,144.3 96.2,144.3 L11,144.3 C5.4,144.3 0.9,139.8 0.9,134.2 L0.9,10.5 C0.9,4.9 5.4,0.4 11,0.4 L96.2,0.4 C101.8,0.3 106.4,4.9 106.4,10.5 Z" id="Shape" fill="#4988FD"></path>
                <circle id="Oval" fill="#2767F4" cx="53.6" cy="135" r="4.7"></circle>
                <g transform="translate(44.000000, 4.000000)" fill="#2767F4" id="Shape">
                    <path d="M17.2,2.9 L6.9,2.9 C6.2,2.9 5.6,2.3 5.6,1.6 C5.6,0.9 6.2,0.3 6.9,0.3 L17.2,0.3 C17.9,0.3 18.5,0.9 18.5,1.6 C18.5,2.3 17.9,2.9 17.2,2.9 Z"></path>
                    <path d="M2.4,2.9 L2,2.9 C1.3,2.9 0.7,2.3 0.7,1.6 C0.7,0.9 1.3,0.3 2,0.3 L2.4,0.3 C3.1,0.3 3.7,0.9 3.7,1.6 C3.7,2.3 3.1,2.9 2.4,2.9 Z"></path>
                </g>
                <rect id="Rectangle-path" fill="#FFFFFF" x="4.4" y="10.2" width="98.5" height="116"></rect>
            </g>
            <path d="M117.9,82.9 L137.1,110.5 C141.9,117.4 140.2,126.8 133.3,131.6 L112.7,145.9 C110.6,147.3 108.1,148 105.6,147.8 C97.9,147.1 81.2,145.4 77.2,143.7 C77.2,143.7 77.2,143.7 77.2,143.6 C76,143.2 75,142.4 74.3,141.3 L63.9,126.3 C69.5,122.4 77.2,123.8 81.1,129.4 L86.4,137 L88.2,135.7 L57.4,91.5 C55.5,88.7 56.1,84.9 58.9,82.9 C61.7,81 65.6,81.6 67.5,84.4 L82.5,106 L84.2,104.8 L79.2,97.6 C77.3,94.8 77.9,90.9 80.7,89 C83.5,87.1 87.4,87.7 89.3,90.6 L94.4,97.9 L96.3,96.6 L93.8,93 C92.1,90.4 92.7,86.9 95.3,85.1 C97.9,83.3 101.5,83.9 103.3,86.5 C103.3,86.5 103.3,86.5 103.3,86.5 L105.8,90.1 L107.9,88.6 C106.7,86.1 107.5,83 109.8,81.4 C112.5,79.7 116.1,80.3 117.9,82.9 Z" id="Shape" fill="#C5DCFA"></path>
            <path d="M55.3,42 C54.7,41.1 53.7,40.6 52.7,40.6 L21.7,40.6 L21.1,39.2 C20.5,37.7 19.1,36.7 17.4,36.7 L13.2,36.7 C12.1,36.7 11.2,37.6 11.2,38.7 C11.2,39.8 12.1,40.7 13.2,40.7 L17.3,40.7 L24.4,58.8 C25.1,60.7 26.9,61.9 29,61.9 L45.2,61.9 C47.2,61.9 49,60.7 49.7,58.9 L55.5,44.9 C56,44 55.9,42.9 55.3,42 Z" id="Shape" fill="#21D3AC"></path>
            <path d="M29.4,73.6 C26.7,73.6 24.5,71.4 24.5,68.7 C24.5,66 26.7,63.8 29.4,63.8 C32.1,63.8 34.3,66 34.3,68.7 C34.3,71.4 32.1,73.6 29.4,73.6 Z M29.4,67.8 C28.9,67.8 28.5,68.2 28.5,68.7 C28.5,69.2 28.9,69.6 29.4,69.6 C29.9,69.6 30.3,69.2 30.3,68.7 C30.3,68.2 29.9,67.8 29.4,67.8 Z" id="Shape" fill="#21D3AC"></path>
            <path d="M44.3,73.6 C41.6,73.6 39.4,71.4 39.4,68.7 C39.4,66 41.6,63.8 44.3,63.8 C47,63.8 49.2,66 49.2,68.7 C49.3,71.4 47,73.6 44.3,73.6 Z M44.3,67.8 C43.8,67.8 43.4,68.2 43.4,68.7 C43.4,69.2 43.8,69.6 44.3,69.6 C44.8,69.6 45.2,69.2 45.2,68.7 C45.2,68.2 44.8,67.8 44.3,67.8 Z" id="Shape" fill="#21D3AC"></path>
            <path d="M92.5,44.9 L67.3,44.9 C65.6,44.9 64.3,43.5 64.3,41.9 C64.3,40.2 65.7,38.9 67.3,38.9 L92.5,38.9 C94.2,38.9 95.5,40.3 95.5,41.9 C95.5,43.5 94.2,44.9 92.5,44.9 Z" id="Shape" fill="#C5DCFA"></path>
            <path d="M92.5,58.6 L67.3,58.6 C65.6,58.6 64.3,57.2 64.3,55.6 C64.3,53.9 65.7,52.6 67.3,52.6 L92.5,52.6 C94.2,52.6 95.5,54 95.5,55.6 C95.5,57.3 94.2,58.6 92.5,58.6 Z" id="Shape" fill="#C5DCFA"></path>
            <path d="M81.8,72.3 L67.3,72.3 C65.6,72.3 64.3,70.9 64.3,69.3 C64.3,67.7 65.7,66.3 67.3,66.3 L81.8,66.3 C83.5,66.3 84.8,67.7 84.8,69.3 C84.8,70.9 83.5,72.3 81.8,72.3 Z" id="Shape" fill="#C5DCFA"></path>
        </g>
    </g>
</svg>