<?xml version="1.0" encoding="UTF-8"?>
<svg width="147px" height="100px" viewBox="0 0 147 100" version="1.1" xmlns="http://www.w3.org/2000/svg" xmlns:xlink="http://www.w3.org/1999/xlink">
    <!-- Generator: Sketch 51.2 (57519) - http://www.bohemiancoding.com/sketch -->
    <title>Add_to_cart_2</title>
    <desc>Created with Sketch.</desc>
    <defs></defs>
    <g id="Page-1" stroke="none" stroke-width="1" fill="none" fill-rule="evenodd">
        <g id="Add_to_cart_2" fill-rule="nonzero">
            <g id="Group" transform="translate(0.000000, 11.000000)">
                <path d="M130.8,79.5 L130.8,82.9 C130.8,86 128.2,88.5 124.9,88.5 L6,88.5 C2.7,88.5 0.1,86 0.1,82.9 L0.1,79.5 L53.9,79.5 C54.3,80.8 55.6,81.7 57.1,81.7 L73.9,81.7 C75.4,81.7 76.6,80.8 77.1,79.5 L130.8,79.5 Z" id="Shape" fill="#2767F4"></path>
                <path d="M130.8,79.5 C130.8,82.6 128.1,85.1 124.9,85.1 L6,85.1 C2.7,85.1 0.1,82.6 0.1,79.5 L53.9,79.5 C54.3,80.8 55.6,81.7 57.1,81.7 L73.9,81.7 C75.4,81.7 76.6,80.8 77.1,79.5 L130.8,79.5 Z" id="Shape" fill="#3973F4"></path>
                <path d="M124.1,79.5 L6.8,79.5 L6.8,5.2 C6.8,2.8 8.7,0.9 11.1,0.9 L119.8,0.9 C122.2,0.9 124.1,2.8 124.1,5.2 L124.1,79.5 Z" id="Shape" fill="#4988FD"></path>
                <polyline id="Shape" fill="#FFFFFF" points="94.9 79.8 12.3 79.8 12.3 7.2 118.2 7.2 118.2 79.8 107.1 79.8"></polyline>
                <path d="M12.3,7.2 L118.2,7.2" id="Shape" fill="#FFFFFF"></path>
            </g>
            <g id="Group" transform="translate(15.000000, 0.000000)">
                <g transform="translate(0.000000, 31.000000)" id="Shape">
                    <path d="M13.1,16.8 C7.5,19.5 7.3,20 6.1,18.6 C4.4,16.6 2.8,14.6 1.2,12.6 C0.4,11.6 0.4,10.9 1.4,10.1 C4.9,7.2 8.4,4.2 12,1.3 C12.6,0.8 13.3,0.5 14.2,0.5 C22.4,0.6 22.9,-0.1 23.2,2.4 C23.5,5.2 25.7,7.1 28.5,7.1 C31,7 33.1,5 33.3,2.3 C33.4,1 33.8,0.6 35.1,0.6 C37.7,0.6 40.2,0.6 42.8,0.6 C43.3,0.6 43.9,0.9 44.3,1.2 C47.9,4.2 51.5,7.2 55.1,10.2 C56.1,11 56.1,11.7 55.3,12.7 C53.6,14.7 52,16.7 50.3,18.7 C49.2,20 49,19.6 43.3,16.9 C43.3,27.2 43.3,34.4 43.3,42.3 C43.3,44.1 42.9,44.5 41,44.5 C32.4,44.5 23.9,44.5 15.3,44.5 C13.5,44.5 13.1,44.1 13.1,42.3 C13.1,34.3 13.1,27.1 13.1,16.8 Z" fill="#C5DCFA"></path>
                    <path d="M39.6,16.4 L32.3,16.4 C31.2,16.4 30.3,15.5 30.3,14.4 C30.3,13.3 31.2,12.4 32.3,12.4 L39.6,12.4 C40.7,12.4 41.6,13.3 41.6,14.4 C41.6,15.5 40.7,16.4 39.6,16.4 Z" fill="#FFFFFF"></path>
                </g>
                <path d="M81.3,42.9 L61.7,42.9 C60.6,42.9 59.7,42 59.7,40.9 C59.7,39.8 60.6,38.9 61.7,38.9 L81.3,38.9 C82.4,38.9 83.3,39.8 83.3,40.9 C83.3,42 82.4,42.9 81.3,42.9 Z" id="Shape" fill="#C4D9F2"></path>
                <path d="M79.3,56.9 L61.7,56.9 C60.6,56.9 59.7,56 59.7,54.9 C59.7,53.8 60.6,52.9 61.7,52.9 L79.3,52.9 C80.4,52.9 81.3,53.8 81.3,54.9 C81.3,56 80.4,56.9 79.3,56.9 Z" id="Shape" fill="#C4D9F2"></path>
                <path d="M68.9,70.9 L61.8,70.9 C60.7,70.9 59.8,70 59.8,68.9 C59.8,67.8 60.7,66.9 61.8,66.9 L68.9,66.9 C70,66.9 70.9,67.8 70.9,68.9 C70.9,70 70,70.9 68.9,70.9 Z" id="Shape" fill="#C4D9F2"></path>
                <path d="M117.3,28.1 C128.6,33.9 134.3,47.1 130.3,59.5 C125.8,73.3 111,80.8 97.3,76.3 C83.5,71.8 76,57 80.5,43.3 C82.6,36.7 87.2,31.6 92.8,28.5" id="Shape" fill="#6097FD"></path>
                <path d="M117,28.7 C117.7,27.8 117.1,26.5 116,26.5 L110.2,26.5 C107.7,-5.5 41.6,-10.7 28.9,26.9 C38.8,15.6 51.7,6.8 78.3,10.5 C84.6,11.4 98.5,16.8 99.7,26.4 L94,26.4 C92.9,26.4 92.2,27.7 92.9,28.6 L103.4,40.3 C104.1,41.2 105.4,41.2 106.2,40.3 L117,28.7 Z" id="Shape" fill="#21D3AC"></path>
            </g>
            <path d="M132.1,47.1 C131.8,46.7 131.3,46.4 130.8,46.4 L111.9,46.4 L111.5,45.3 C111.2,44.5 110.5,44 109.6,44 L107.1,44 C106.6,44 106.2,44.4 106.2,44.9 C106.2,45.4 106.6,45.8 107.1,45.8 L109.6,45.8 C109.7,45.8 109.8,45.9 109.9,46 L114.2,56.9 C114.6,57.9 115.5,58.5 116.6,58.5 L126.3,58.5 C127.3,58.5 128.3,57.9 128.7,56.9 L132.2,48.5 C132.4,48 132.3,47.5 132.1,47.1 Z" id="Shape" fill="#FFFFFF"></path>
            <path d="M116.7,65.5 C115.3,65.5 114.1,64.3 114.1,62.9 C114.1,61.5 115.3,60.3 116.7,60.3 C118.1,60.3 119.3,61.5 119.3,62.9 C119.4,64.3 118.2,65.5 116.7,65.5 Z M116.7,62 C116.2,62 115.8,62.4 115.8,62.9 C115.8,63.4 116.2,63.8 116.7,63.8 C117.2,63.8 117.6,63.4 117.6,62.9 C117.6,62.4 117.2,62 116.7,62 Z" id="Shape" fill="#FFFFFF"></path>
            <path d="M125.7,65.5 C124.3,65.5 123.1,64.3 123.1,62.9 C123.1,61.5 124.3,60.3 125.7,60.3 C127.1,60.3 128.3,61.5 128.3,62.9 C128.4,64.3 127.2,65.5 125.7,65.5 Z M125.7,62 C125.2,62 124.8,62.4 124.8,62.9 C124.8,63.4 125.2,63.8 125.7,63.8 C126.2,63.8 126.6,63.4 126.6,62.9 C126.6,62.4 126.2,62 125.7,62 Z" id="Shape" fill="#FFFFFF"></path>
        </g>
    </g>
</svg>