<?xml version="1.0" encoding="UTF-8"?>
<svg width="114px" height="167px" viewBox="0 0 114 167" version="1.1" xmlns="http://www.w3.org/2000/svg" xmlns:xlink="http://www.w3.org/1999/xlink">
    <!-- Generator: Sketch 51.2 (57519) - http://www.bohemiancoding.com/sketch -->
    <title>AI_Speaker</title>
    <desc>Created with Sketch.</desc>
    <defs></defs>
    <g id="Page-1" stroke="none" stroke-width="1" fill="none" fill-rule="evenodd">
        <g id="AI_Speaker" transform="translate(0.000000, -6.000000)" fill-rule="nonzero">
            <path d="M78.7,172.9 L35.7,172.9 C15.5,172.9 -0.5,155.8 0.8,135.6 L2.9,104.7 L8.1,28 L100.6,14.3 L109.9,101.2 L113.4,134.1 C115.6,154.8 99.5,172.9 78.7,172.9 Z" id="Shape" fill="#C5DCFA"></path>
            <path d="M78.7,172.9 L35.7,172.9 C15.5,172.9 -0.5,155.8 0.8,135.6 L2.9,104.7 C27.8,118.9 79.6,119.4 109.8,101.3 L109.9,101.2 L113.4,134.1 C115.6,154.8 99.5,172.9 78.7,172.9 Z" id="Shape" fill="#4988FD"></path>
            <ellipse id="Oval" fill="#DFECFD" transform="translate(54.408440, 21.195130) rotate(-9.207052) translate(-54.408440, -21.195130) " cx="54.40844" cy="21.19513" rx="46.799214" ry="13.3997749"></ellipse>
            <g id="Group" transform="translate(40.000000, 13.000000)" fill="#83ACDE">
                <path d="M3.2,9.3 C2.5,9.3 1.7,9 1.2,8.4 C0.3,7.3 0.5,5.7 1.6,4.8 L1.7,4.7 C2.8,3.8 4.4,4 5.3,5.1 C6.2,6.2 6,7.8 4.9,8.7 L4.8,8.8 C4.4,9.1 3.8,9.3 3.2,9.3 Z" id="Shape"></path>
                <path d="M11.5,14.3 C10.8,14.3 10,14 9.5,13.4 C8.6,12.3 8.8,10.7 9.8,9.8 L9.9,9.7 C11,8.8 12.6,9 13.5,10 C14.4,11.1 14.2,12.7 13.2,13.6 L13.1,13.7 C12.7,14.1 12.1,14.3 11.5,14.3 Z" id="Shape"></path>
                <path d="M18.2,6 C17.5,6 16.7,5.7 16.2,5.1 C15.3,4 15.5,2.4 16.6,1.5 L16.7,1.4 C17.8,0.5 19.4,0.7 20.3,1.8 C21.2,2.9 21,4.5 19.9,5.4 L19.8,5.5 C19.3,5.8 18.7,6 18.2,6 Z" id="Shape"></path>
                <path d="M26.5,11 C25.8,11 25,10.7 24.5,10.1 C23.6,9 23.8,7.4 24.8,6.5 L24.9,6.4 C26,5.5 27.6,5.7 28.5,6.7 C29.4,7.8 29.2,9.4 28.2,10.3 L28.1,10.4 C27.6,10.8 27,11 26.5,11 Z" id="Shape"></path>
            </g>
        </g>
    </g>
</svg>