<?xml version="1.0" encoding="UTF-8"?>
<svg width="135px" height="178px" viewBox="0 0 135 178" version="1.1" xmlns="http://www.w3.org/2000/svg" xmlns:xlink="http://www.w3.org/1999/xlink">
    <!-- Generator: Sketch 51.2 (57519) - http://www.bohemiancoding.com/sketch -->
    <title>Airbuds</title>
    <desc>Created with Sketch.</desc>
    <defs></defs>
    <g id="Page-1" stroke="none" stroke-width="1" fill="none" fill-rule="evenodd">
        <g id="Airbuds" fill-rule="nonzero">
            <path d="M108.8,9 L26.2,9 C12.1,9 0.6,20.5 0.6,34.6 C0.6,48.7 12.1,60.2 26.2,60.2 L108.8,60.2 C122.9,60.2 134.4,48.7 134.4,34.6 C134.4,20.5 123,9 108.8,9 Z" id="Shape" fill="#DFECFD"></path>
            <g id="Group">
                <g transform="translate(9.000000, 0.000000)" id="Shape">
                    <path d="M51.7,26.2 C51.7,26.9 51.7,27.7 51.6,28.4 L51.6,60.2 L32.9,60.2 L32.9,50.5 C30,51.4 26.9,51.9 23.7,51.9 C13.8,51.9 5.1,47.2 0.1,40 L0.1,12.2 C5.1,5.1 13.8,0.3 23.7,0.3 C39.2,0.4 51.7,11.9 51.7,26.2 Z" fill="#C5DCFA"></path>
                    <path d="M38.7,24 C37.9,24 37.2,23.5 36.9,22.8 C35.5,19.4 32.7,16.5 29.3,15.1 C28.3,14.7 27.8,13.5 28.3,12.5 C28.7,11.5 29.9,11 30.9,11.5 C35.3,13.4 38.8,16.9 40.6,21.4 C41,22.4 40.5,23.6 39.5,24 C39.2,23.9 39,24 38.7,24 Z" fill="#83ACDE"></path>
                    <path d="M15.5,29.3 C13.1,29.3 11.1,27.3 11.1,24.9 C11.1,22.5 13.1,20.5 15.5,20.5 C17.9,20.5 19.9,22.5 19.9,24.9 C19.9,27.3 17.9,29.3 15.5,29.3 Z" fill="#83ACDE"></path>
                    <path d="M117,12.3 L117,40.1 C112,47.2 103.3,52 93.4,52 C90.2,52 87.1,51.5 84.2,50.6 L84.2,60.3 L65.6,60.3 L65.6,28.5 C65.5,27.8 65.5,27 65.5,26.3 C65.5,12.1 78,0.5 93.5,0.5 C103.3,0.4 112,5.1 117,12.3 Z" fill="#C5DCFA"></path>
                    <path d="M78.4,24 C78.1,24 77.9,23.9 77.6,23.8 C76.6,23.4 76.1,22.2 76.5,21.2 C78.4,16.8 81.8,13.2 86.2,11.3 C87.2,10.9 88.4,11.3 88.8,12.3 C89.2,13.3 88.8,14.5 87.8,14.9 C84.4,16.4 81.6,19.2 80.2,22.6 C79.9,23.5 79.2,24 78.4,24 Z" fill="#83ACDE"></path>
                    <path d="M101.7,29.1 C99.4,29.1 97.5,27.2 97.5,24.9 C97.5,22.6 99.4,20.7 101.7,20.7 C104,20.7 105.9,22.6 105.9,24.9 C105.9,27.2 104,29.1 101.7,29.1 Z" fill="#83ACDE"></path>
                </g>
                <path d="M134.3,60.2 L134.3,142.1 C134.3,161.6 118.5,177.4 99,177.4 L36.1,177.4 C16.6,177.4 0.8,161.6 0.8,142.1 L0.8,60.2 L134.3,60.2 Z" id="Shape" fill="#D6E7FC"></path>
                <path d="M134.3,60.2 L134.3,126.7 C134.3,146.2 118.5,162 99,162 L36.1,162 C16.6,162 0.8,146.2 0.8,126.7 L0.8,60.2 L134.3,60.2 Z" id="Shape" fill="#DFECFD"></path>
                <path d="M86.7,113 L61.9,147.1 C61,148.4 59,147.5 59.2,146 L62.3,124.3 L49.6,124.4 C48.3,124.4 47.6,123 48.3,121.9 L51.1,118 L73.1,87.8 C74,86.5 76.1,87.4 75.8,88.9 L72.4,110.7 L85.3,110.5 C85.6,110.5 86,110.6 86.2,110.8 C87,111.3 87.3,112.3 86.7,113 Z" id="Shape" fill="#4988FD"></path>
            </g>
        </g>
    </g>
</svg>