<?xml version="1.0" encoding="UTF-8"?>
<svg width="82px" height="144px" viewBox="0 0 82 144" version="1.1" xmlns="http://www.w3.org/2000/svg" xmlns:xlink="http://www.w3.org/1999/xlink">
    <!-- Generator: Sketch 51.2 (57519) - http://www.bohemiancoding.com/sketch -->
    <title>Apple_Watch</title>
    <desc>Created with Sketch.</desc>
    <defs></defs>
    <g id="Page-1" stroke="none" stroke-width="1" fill="none" fill-rule="evenodd">
        <g id="Apple_Watch" fill-rule="nonzero">
            <path d="M77.8,66.5 L74.9,66.5 C72.9,66.5 71.3,64.9 71.3,62.9 L71.3,54.2 C71.3,52.2 72.9,50.6 74.9,50.6 L77.8,50.6 C79.8,50.6 81.4,52.2 81.4,54.2 L81.4,62.9 C81.5,64.9 79.8,66.5 77.8,66.5 Z" id="Shape" fill="#FFFFFF"></path>
            <path d="M78.1,66.5 L74.7,66.5 C72.8,66.5 71.3,65 71.3,63.1 L71.3,56.1 C71.3,54.2 72.8,52.7 74.7,52.7 L78.1,52.7 C80,52.7 81.5,54.2 81.5,56.1 L81.5,63.1 C81.5,65 79.9,66.5 78.1,66.5 Z" id="Shape" fill="#DFECFD"></path>
            <path d="M63.3,32.3 C59.5,24.5 60.7,20.1 59.3,11.8 C57.7,2.8 56.3,0.9 50.3,0.8 C45,0.8 42,0.8 36.7,0.9 L36.6,0.9 C31.3,0.9 31.1,0.8 25.8,0.8 C19.8,0.8 18.4,2.8 16.8,11.8 C15.3,20.1 16.6,24.5 12.8,32.3 L63.3,32.3 Z" id="Shape" fill="#FFFFFF"></path>
            <path d="M63.3,32.3 C59.7,25.3 60.8,21.4 59.4,14 C57.9,6 56.5,4.2 50.7,4.2 C45.6,4.2 42.6,4.2 37.5,4.3 L37.4,4.3 C32.3,4.3 32.1,4.2 26.9,4.2 C21.1,4.2 19.7,6 18.2,14 C16.8,21.4 18,25.3 14.3,32.3 L63.3,32.3 Z" id="Shape" fill="#DFECFD"></path>
            <path d="M63.3,112 C59.5,119.8 60.7,124.2 59.3,132.5 C57.7,141.5 56.3,143.4 50.3,143.5 C45,143.5 42,143.5 36.7,143.4 L36.6,143.4 C31.3,143.4 31.1,143.5 25.8,143.5 C19.8,143.5 18.4,141.5 16.8,132.5 C15.3,124.2 16.6,119.8 12.8,112 L63.3,112 Z" id="Shape" fill="#FFFFFF"></path>
            <path d="M63.3,112 C59.5,119.8 60.7,124.2 59.3,132.5 C57.7,141.5 56.3,143.4 50.3,143.5 C45,143.5 42,143.5 36.7,143.4 L36.6,143.4 C31.3,143.4 31.1,143.5 25.8,143.5 C19.8,143.5 18.4,141.5 16.8,132.5 C15.3,124.2 16.6,119.8 12.8,112 L63.3,112 Z" id="Shape" fill="#C5DCFA"></path>
            <path d="M75.1,69.2 C75.1,63.7 75.1,58.3 75.1,52.8 C75.1,50.2 75.1,47.6 75.1,45 C75.1,37.4 70,32 62.3,31.9 C46.2,31.8 30.2,31.7 14.1,31.9 C6.1,32 1,37.4 1,45.3 C1,51.7 1,58.1 1,64.5 C1,75.9 1,87.2 1.1,98.6 C1.1,101.1 1.7,103.8 2.9,105.9 C5.5,110.6 10.1,112.2 15.3,112.2 C30.9,112.2 46.4,112.3 62,112.2 C70.2,112.1 75.2,106.7 75.2,98.5 C75.2,93.6 75.2,88.6 75.2,83.7 C75.2,79.8 75.2,75.9 75.2,72 L75.2,69.2 L75.1,69.2 Z" id="Shape" fill="#3973F4"></path>
            <path d="M75.1,52.8 L75.1,55.2 C75.1,58.7 75.1,62.1 75.1,65.6 L75.1,71.7 C75.1,76.6 75.1,81.4 75.1,86.3 C75.1,87.4 75.1,88.6 75.1,89.7 C75.1,90.5 75.1,91.3 75.1,92.1 C75.1,100.3 70.1,105.7 61.9,105.8 C46.3,106 30.8,105.9 15.2,105.8 C10.1,105.8 5.5,104.2 2.8,99.5 C1.6,97.4 1,94.6 1,92.2 C0.9,83.8 0.9,75.4 0.9,67.1 L0.9,65.6 C0.9,59.7 0.9,53.8 0.9,47.9 L0.9,45.5 C0.9,37.6 6,32.1 14,32.1 C30.1,31.9 46.1,32 62.2,32.1 C69.9,32.2 75,37.5 75,45.2 C75.1,47.6 75.1,50.2 75.1,52.8 Z" id="Shape" fill="#4988FD"></path>
            <circle id="Oval" fill="#DFECFD" cx="38.5" cy="72.3" r="8.6"></circle>
            <circle id="Oval" fill="#DFECFD" cx="28.4" cy="54.4" r="5.7"></circle>
            <circle id="Oval" fill="#DFECFD" transform="translate(50.439151, 54.528426) rotate(-3.990814) translate(-50.439151, -54.528426) " cx="50.4391505" cy="54.5284264" r="5.70014158"></circle>
            <circle id="Oval" fill="#DFECFD" cx="28.4" cy="90" r="5.7"></circle>
            <circle id="Oval" fill="#DFECFD" transform="translate(50.440249, 90.129286) rotate(-3.990814) translate(-50.440249, -90.129286) " cx="50.4402486" cy="90.1292864" r="5.70014158"></circle>
            <circle id="Oval" fill="#DFECFD" cx="20" cy="72.3" r="5.7"></circle>
            <circle id="Oval" fill="#DFECFD" transform="translate(57.639579, 72.424659) rotate(-3.990814) translate(-57.639579, -72.424659) " cx="57.6395794" cy="72.4246589" r="5.70014158"></circle>
        </g>
    </g>
</svg>