<?xml version="1.0" encoding="UTF-8"?>
<svg width="111px" height="127px" viewBox="0 0 111 127" version="1.1" xmlns="http://www.w3.org/2000/svg" xmlns:xlink="http://www.w3.org/1999/xlink">
    <!-- Generator: Sketch 51.2 (57519) - http://www.bohemiancoding.com/sketch -->
    <title>Apple</title>
    <desc>Created with Sketch.</desc>
    <defs></defs>
    <g id="Page-1" stroke="none" stroke-width="1" fill="none" fill-rule="evenodd">
        <g id="Apple" fill-rule="nonzero">
            <path d="M58.7,42.8 C58.5,42.8 58.3,42.8 58.2,42.8 C56.6,42.5 55.5,41 55.8,39.3 C55.9,38.5 58.8,20.6 42.6,17 C41,16.6 40,15 40.3,13.4 C40.7,11.8 42.3,10.8 43.9,11.1 C61.5,15 63.3,31.9 61.8,40.3 C61.4,41.8 60.2,42.8 58.7,42.8 Z" id="Shape" fill="#BAD8FF"></path>
            <path d="M55.3,18.3 C57.6,19.2 59.9,20 62.3,20.7 C69.5,22.8 75.5,23.3 81.8,18.6 C88,14 91,11.1 93.6,11.6 C91.1,5.9 83.7,-1.3 74.7,0.4 C71.4,1 69.2,2.2 66.3,4.3 C64.4,5.7 62.5,7.6 60.6,10 C58,13.3 55.9,16.8 54.4,20.4" id="Shape" fill="#C5DCFA"></path>
            <path d="M105.8,91.8 C105.4,93.2 104.9,94.6 104.5,96 C102.4,102.3 99.7,108.3 95.4,113.6 C90.4,119.9 84.2,124.4 76.3,126.1 C68.3,127.8 61.2,125.7 55.2,120 C45.1,129.4 31.6,128.3 21,119.8 C13.9,114.1 9.6,106.4 6.6,97.9 C4.5,92 2.7,86 1.6,79.9 C0.6,74.6 0.1,69.1 0.5,63.5 C1.4,49.1 12.9,36.5 27.2,34.5 C33,33.7 38.5,34.2 43.5,36.1 L58.8,39.7 C62.9,38.1 67.2,35.9 71.8,34.8 C89.3,30.7 107.1,43.1 109.6,60.9 C111,71.6 108.8,81.8 105.8,91.8 Z" id="Shape" fill="#3973F4"></path>
            <path d="M105.8,91.8 C105.4,93.2 104.9,94.6 104.5,96 C103,99.1 101.1,102 99,104.8 C93.7,111.5 87.1,116.3 78.7,118.1 C70.2,119.9 62.6,117.7 56.2,111.6 C45.4,121.6 31.1,120.4 19.7,111.3 C12.1,105.2 7.5,97 4.4,88 C3.5,85.3 2.6,82.6 1.8,79.9 C0.8,74.6 0.3,69.1 0.7,63.5 C1.6,49.1 13.1,36.5 27.4,34.5 C33.2,33.7 38.7,34.2 43.7,36.1 L59,39.7 C63.1,38.1 67.4,35.9 72,34.8 C89.5,30.7 107.3,43.1 109.8,60.9 C111,71.6 108.8,81.8 105.8,91.8 Z" id="Shape" fill="#4988FD"></path>
        </g>
    </g>
</svg>