<?xml version="1.0" encoding="UTF-8"?>
<svg width="150px" height="141px" viewBox="0 0 150 141" version="1.1" xmlns="http://www.w3.org/2000/svg" xmlns:xlink="http://www.w3.org/1999/xlink">
    <!-- Generator: Sketch 51.2 (57519) - http://www.bohemiancoding.com/sketch -->
    <title>Appreciation</title>
    <desc>Created with Sketch.</desc>
    <defs></defs>
    <g id="Page-1" stroke="none" stroke-width="1" fill="none" fill-rule="evenodd">
        <g id="Appreciation" fill-rule="nonzero">
            <path d="M81,118.3 C81,120.2 79.4,121.8 77.5,121.8 L4.4,121.8 C2.5,121.8 0.9,120.2 0.9,118.3 C0.9,116.4 2.5,114.8 4.4,114.8 L77.5,114.8 C79.4,114.8 81,116.4 81,118.3 Z" id="Shape" fill="#4988FD"></path>
            <path d="M34.8,45.9 L34.8,118.3 L11.4,118.3 L11.4,45.9 C11.4,44.4 12.6,43.2 14.1,43.2 L32.1,43.2 C33.6,43.2 34.8,44.4 34.8,45.9 Z" id="Shape" fill="#4988FD"></path>
            <path d="M72.6,26.7 L72.6,118.3 L49.2,118.3 L49.2,26.7 C49.2,25.3 50.3,24.2 51.7,24.2 L70.2,24.2 C71.5,24.2 72.6,25.3 72.6,26.7 Z" id="Shape" fill="#4988FD"></path>
            <path d="M110.1,2.4 L110.1,65.8 L107.4,66.9 L86.6,75.9 L86.6,2.4 C86.6,1.2 87.6,0.2 88.8,0.2 L107.9,0.2 C109.1,0.2 110.1,1.2 110.1,2.4 Z" id="Shape" fill="#4988FD"></path>
            <path d="M81,118.3 C81,120.2 79.4,121.8 77.5,121.8 L71.5,121.8 C70.9,120.7 70.4,119.5 69.9,118.3 C69.5,117.2 69.1,116 68.7,114.8 C67.8,111.5 67.3,108.1 67.3,104.5 C67.3,97.4 69.2,90.8 72.6,85.2 L72.6,114.8 L77.5,114.8 C79.4,114.8 81,116.4 81,118.3 Z" id="Shape" fill="#3973F4"></path>
            <path d="M107.4,67 L86.6,76 L86.6,71.7 C92,68.7 98.3,66.9 104.9,66.9 C105.7,66.9 106.6,66.9 107.4,67 Z" id="Shape" fill="#3973F4"></path>
            <circle id="Oval" fill="#21D3AC" cx="112.4" cy="103.4" r="37.6"></circle>
            <path d="M98.5,91.1 C98.5,93.4 100.3,95.2 102.6,95.2 L115.3,95.2 L95.5,115 C93.9,116.6 93.9,119.2 95.5,120.8 C97.1,122.4 99.7,122.4 101.3,120.8 L121.1,101 L121.1,113.7 C121.1,116 122.9,117.8 125.2,117.8 C127.5,117.8 129.3,116 129.3,113.7 L129.3,91.1 C129.3,88.8 127.5,87 125.2,87 L102.6,87 C100.4,87 98.5,88.8 98.5,91.1 Z" id="Shape" fill="#FFFFFF"></path>
        </g>
    </g>
</svg>