<?xml version="1.0" encoding="UTF-8"?>
<svg width="145px" height="141px" viewBox="0 0 145 141" version="1.1" xmlns="http://www.w3.org/2000/svg" xmlns:xlink="http://www.w3.org/1999/xlink">
    <!-- Generator: Sketch 51.2 (57519) - http://www.bohemiancoding.com/sketch -->
    <title>ATM</title>
    <desc>Created with Sketch.</desc>
    <defs></defs>
    <g id="Page-1" stroke="none" stroke-width="1" fill="none" fill-rule="evenodd">
        <g id="ATM" fill-rule="nonzero">
            <path d="M105.1,0.6 C105.1,0.6 105.1,8.6 105.1,20.8 L105.1,140.6 L0.8,140.6 L0.8,64.2 L1.1,62.2 L9.9,0.6 L105.1,0.6 Z" id="Shape" fill="#E1ECFA"></path>
            <path d="M105.1,0.6 C105.1,0.6 105.1,8.6 105.1,20.8 L105.1,140.6 L72.7,140.6 L72.7,64.2 L81.7,0.6 L105.1,0.6 Z" id="Shape" fill="#C5DCFA"></path>
            <rect id="Rectangle-path" fill="#C5DCFA" x="10.6" y="82.7" width="26.7" height="12.8"></rect>
            <path d="M21.6,9.7 L67.2,9.7 C69.2,9.7 70.6,11.4 70.3,13.4 L65.6,43.9 C65.4,45.5 64,46.6 62.4,46.6 L16.9,46.3 C15,46.3 13.5,44.6 13.8,42.6 L18.5,12.4 C18.7,10.8 20,9.7 21.6,9.7 Z" id="Shape" fill="#3973F4"></path>
            <path d="M74.6,64.2 C74.6,65.3 73.7,66.2 72.6,66.2 L0.7,66.2 L0.7,64.2 L1,62.2 L72.6,62.2 C73.8,62.2 74.6,63.1 74.6,64.2 Z" id="Shape" fill="#C5DCFA"></path>
            <path d="M62.1,57 L37.3,57 C36.2,57 35.3,56.1 35.3,55 C35.3,53.9 36.2,53 37.3,53 L62.1,53 C63.2,53 64.1,53.9 64.1,55 C64.1,56.1 63.2,57 62.1,57 Z" id="Shape" fill="#3973F4"></path>
            <path d="M42,25.8 C41.1,25.5 40,25.3 39.6,24.9 C38.9,24.3 39,23.2 39.5,22.6 C40.4,21.5 42.4,21.8 44.7,23.5 C45.6,24.1 46.9,23.9 47.5,23 C48.1,22.1 47.9,20.8 47,20.2 C45.9,19.4 44.9,18.9 43.9,18.5 L44,17 C44.1,15.9 43.2,15 42.1,14.9 C41,14.8 40.1,15.7 40,16.8 L39.9,18 C38.3,18.3 37.1,19.1 36.4,20 C34.5,22.3 34.8,25.8 37,27.8 C38.1,28.8 39.6,29.2 41,29.6 C43.7,30.3 43.8,30.6 43.7,31.5 C43.6,32.1 43.4,32.9 42.3,33.1 C40.9,33.4 39.1,32.8 38.4,31.6 C37.8,30.7 36.6,30.4 35.6,31 C34.7,31.6 34.4,32.8 35,33.8 C35.9,35.2 37.3,36.2 39,36.8 L38.9,38.2 C38.8,39.3 39.7,40.2 40.8,40.3 C41.9,40.4 42.8,39.5 42.9,38.4 L43,37 C43.1,37 43.1,37 43.2,37 C45.7,36.4 47.4,34.5 47.7,31.9 C48,27.5 44.1,26.4 42,25.8 Z" id="Shape" fill="#FFFFFF"></path>
            <g id="Group" transform="translate(88.000000, 53.000000)">
                <g>
                    <path d="M52.6,87.3 L4.6,87.3 C2.2,87.3 0.2,85.3 0.2,82.9 L0.2,4.5 C0.2,2.1 2.2,0.1 4.6,0.1 L52.6,0.1 C55,0.1 57,2.1 57,4.5 L57,82.9 C57,85.4 55.1,87.3 52.6,87.3 Z" id="Shape" fill="#4988FD"></path>
                    <rect id="Rectangle-path" fill="#3973F4" x="34.6" y="0.1" width="10.5" height="87.2"></rect>
                    <path d="M16.2,50.6 L16.2,42.6 C16.2,41.8 16.9,41.1 17.7,41.1 C18.5,41.1 19.2,41.8 19.2,42.6 L19.2,50.6 C19.2,51.4 18.5,52.1 17.7,52.1 C16.9,52.1 16.2,51.5 16.2,50.6 Z" id="Shape" fill="#C5DCFA"></path>
                    <path d="M16.2,37.7 L16.2,10.9 C16.2,10.1 16.9,9.4 17.7,9.4 C18.5,9.4 19.2,10.1 19.2,10.9 L19.2,37.7 C19.2,38.5 18.5,39.2 17.7,39.2 C16.9,39.2 16.2,38.5 16.2,37.7 Z" id="Shape" fill="#C5DCFA"></path>
                    <path d="M10,22.9 L10,10.9 C10,10.1 10.7,9.4 11.5,9.4 C12.3,9.4 13,10.1 13,10.9 L13,22.9 C13,23.7 12.3,24.4 11.5,24.4 C10.7,24.4 10,23.7 10,22.9 Z" id="Shape" fill="#C5DCFA"></path>
                </g>
                <circle id="Oval" fill="#3973F4" cx="11.6" cy="74.5" r="5.8"></circle>
                <circle id="Oval" fill="#6097FD" cx="11.6" cy="66.9" r="5.8"></circle>
            </g>
        </g>
    </g>
</svg>