<?xml version="1.0" encoding="UTF-8"?>
<svg width="146px" height="141px" viewBox="0 0 146 141" version="1.1" xmlns="http://www.w3.org/2000/svg" xmlns:xlink="http://www.w3.org/1999/xlink">
    <!-- Generator: Sketch 51.2 (57519) - http://www.bohemiancoding.com/sketch -->
    <title>ATM_2</title>
    <desc>Created with Sketch.</desc>
    <defs></defs>
    <g id="Page-1" stroke="none" stroke-width="1" fill="none" fill-rule="evenodd">
        <g id="ATM_2" fill-rule="nonzero">
            <rect id="Rectangle-path" fill="#4988FD" x="0.8" y="0.5" width="144.5" height="140.4"></rect>
            <polygon id="Shape" fill="#366FF2" points="23.6 33.1 14.9 102.2 0.8 120.2 0.8 120.3 0.8 33.1"></polygon>
            <polygon id="Shape" fill="#366FF2" points="122.5 33.1 131.2 102.2 145.2 120.2 145.3 120.3 145.3 33.1"></polygon>
            <polyline id="Shape" fill="#6097FD" points="120.1 102.2 14.9 102.2 0.8 120.3 145.4 120.3 131 102.2 120.1 102.2"></polyline>
            <path d="M131.2,102.2 C133.7,66.6 125,36.8 122.5,33.1 L23.5,33.1 C21,36.8 12.4,66.6 14.8,102.2 L131.2,102.2 Z" id="Shape" fill="#2D67EB"></path>
            <path d="M31.2,91.3 L81.7,91.3 C81.7,91.3 80.8,64.9 79.1,55.7 C50.3,55.7 32.1,55.7 32.1,55.7 C31.4,67.6 30.8,77.7 31.2,91.3 Z" id="Shape" fill="#C5DCFA"></path>
            <path d="M119.5,72.1 L89,72.1 C88.9,66.7 88.1,62.4 87.3,58.5 L116.5,58.5 C118.9,63.1 119.1,66.1 119.5,72.1 Z" id="Shape" fill="#4988FD"></path>
            <path d="M114,66.8 L93,66.8 C91.9,66.8 91,65.9 91,64.8 C91,63.7 91.9,62.8 93,62.8 L114,62.8 C115.1,62.8 116,63.7 116,64.8 C116,65.9 115.1,66.8 114,66.8 Z" id="Shape" fill="#316BEB"></path>
            <path d="M41.1,110 L37.1,110 C36,110 35.1,109.1 35.1,108 C35.1,106.9 36,106 37.1,106 L41.1,106 C42.2,106 43.1,106.9 43.1,108 C43.1,109.1 42.2,110 41.1,110 Z" id="Shape" fill="#C5DCFA"></path>
            <path d="M51.4,110 L47.4,110 C46.3,110 45.4,109.1 45.4,108 C45.4,106.9 46.3,106 47.4,106 L51.4,106 C52.5,106 53.4,106.9 53.4,108 C53.4,109.1 52.5,110 51.4,110 Z" id="Shape" fill="#C5DCFA"></path>
            <path d="M61.6,110 L57.6,110 C56.5,110 55.6,109.1 55.6,108 C55.6,106.9 56.5,106 57.6,106 L61.6,106 C62.7,106 63.6,106.9 63.6,108 C63.6,109.1 62.7,110 61.6,110 Z" id="Shape" fill="#C5DCFA"></path>
            <path d="M39.9,116.7 L35.3,116.7 C34.2,116.7 33.3,115.8 33.3,114.7 C33.3,113.6 34.2,112.7 35.3,112.7 L39.9,112.7 C41,112.7 41.9,113.6 41.9,114.7 C41.9,115.8 41,116.7 39.9,116.7 Z" id="Shape" fill="#C5DCFA"></path>
            <path d="M51.8,116.7 L47.2,116.7 C46.1,116.7 45.2,115.8 45.2,114.7 C45.2,113.6 46.1,112.7 47.2,112.7 L51.8,112.7 C52.9,112.7 53.8,113.6 53.8,114.7 C53.8,115.8 52.9,116.7 51.8,116.7 Z" id="Shape" fill="#C5DCFA"></path>
            <path d="M63.7,116.7 L59.1,116.7 C58,116.7 57.1,115.8 57.1,114.7 C57.1,113.6 58,112.7 59.1,112.7 L63.7,112.7 C64.8,112.7 65.7,113.6 65.7,114.7 C65.7,115.8 64.8,116.7 63.7,116.7 Z" id="Shape" fill="#C5DCFA"></path>
        </g>
    </g>
</svg>