<?xml version="1.0" encoding="UTF-8"?>
<svg width="145px" height="116px" viewBox="0 0 145 116" version="1.1" xmlns="http://www.w3.org/2000/svg" xmlns:xlink="http://www.w3.org/1999/xlink">
    <!-- Generator: Sketch 51.2 (57519) - http://www.bohemiancoding.com/sketch -->
    <title>Audio</title>
    <desc>Created with Sketch.</desc>
    <defs></defs>
    <g id="Page-1" stroke="none" stroke-width="1" fill="none" fill-rule="evenodd">
        <g id="Audio" fill-rule="nonzero">
            <path d="M114,58.1 C114,67.4 111.5,76.5 106.9,84.5 C105.7,86.6 103.5,87.8 101.2,87.8 C100.1,87.8 98.9,87.5 97.9,86.9 C96,85.8 94.9,84 94.7,82 C94.5,80.6 94.8,79.2 95.6,77.9 C99.1,71.9 100.9,65.1 100.9,58.1 C100.9,51.1 99,44.3 95.6,38.3 C93.8,35.2 94.8,31.1 98,29.3 C101.1,27.5 105.2,28.5 107,31.7 C108.1,33.6 109.1,35.6 110,37.6 C112.5,44 114,51 114,58.1 Z" id="Shape" fill="#6097FD"></path>
            <path d="M144.6,58 C144.6,73.7 139.2,89.1 129.4,101.3 C128.1,102.9 126.2,103.8 124.3,103.8 C122.9,103.8 121.4,103.3 120.2,102.3 C118.4,100.9 117.6,98.7 117.8,96.6 C117.9,95.4 118.4,94.1 119.2,93.1 C127.3,83.1 131.5,70.9 131.5,58 C131.5,45.1 127.2,33 119.2,23 C116.9,20.2 117.4,16 120.2,13.8 C123,11.5 127.2,12 129.5,14.8 C130.9,16.6 132.3,18.4 133.5,20.3 C140.8,31.5 144.6,44.4 144.6,58 Z" id="Shape" fill="#6097FD"></path>
            <path d="M83.4,7.6 L83.4,108.6 C83.4,111.3 81.9,113.8 79.4,115.1 C77,116.3 74,116.1 71.8,114.5 L69.2,112.6 L39.2,89.1 L9.6,89.1 C4.3,89.1 4.54747351e-13,84.8 4.54747351e-13,79.5 L4.54747351e-13,36.6 C4.54747351e-13,31.3 4.3,27 9.6,27 L39.2,27 L69.2,3.6 L71.8,1.7 C74,0.1 76.9,-0.1 79.4,1.1 C81.8,2.3 83.4,4.8 83.4,7.6 Z" id="Shape" fill="#4988FD"></path>
            <path d="M83.4,103.5 L83.4,108.5 C83.4,111.2 81.9,113.7 79.4,115 C77,116.2 74,116 71.8,114.4 L69.2,112.5 L39.2,89 L9.6,89 C4.3,89 4.54747351e-13,84.7 4.54747351e-13,79.4 L4.54747351e-13,70.3 C2.3,77 23,74.5 35.6,74.5 C44.6,74.2 45.4,65.4 45.4,65.4 C43.9,92.4 69.9,96.9 83.4,103.5 Z" id="Shape" fill="#2767F4"></path>
        </g>
    </g>
</svg>