<?xml version="1.0" encoding="UTF-8"?>
<svg width="147px" height="148px" viewBox="0 0 147 148" version="1.1" xmlns="http://www.w3.org/2000/svg" xmlns:xlink="http://www.w3.org/1999/xlink">
    <!-- Generator: Sketch 51.2 (57519) - http://www.bohemiancoding.com/sketch -->
    <title>Ballance</title>
    <desc>Created with Sketch.</desc>
    <defs></defs>
    <g id="Page-1" stroke="none" stroke-width="1" fill="none" fill-rule="evenodd">
        <g id="Ballance" fill-rule="nonzero">
            <path d="M137.3,147.2 L10,147.2 C4.6,147.2 0.3,142.8 0.3,137.5 L0.3,10.2 C0.3,4.8 4.7,0.5 10,0.5 L137.3,0.5 C142.7,0.5 147,4.9 147,10.2 L147,137.5 C147,142.8 142.7,147.2 137.3,147.2 Z" id="Shape" fill="#6097FD"></path>
            <path d="M123.1,30.6 L24.3,30.6 C22.9,30.6 21.8,29.5 21.8,28.1 C21.8,26.7 22.9,25.6 24.3,25.6 L123.1,25.6 C124.5,25.6 125.6,26.7 125.6,28.1 C125.6,29.5 124.5,30.6 123.1,30.6 Z" id="Shape" fill="#3973F4"></path>
            <path d="M123.1,61.9 L24.3,61.9 C22.9,61.9 21.8,60.8 21.8,59.4 C21.8,58 22.9,56.9 24.3,56.9 L123.1,56.9 C124.5,56.9 125.6,58 125.6,59.4 C125.7,60.8 124.5,61.9 123.1,61.9 Z" id="Shape" fill="#3973F4"></path>
            <path d="M123.1,93.3 L24.3,93.3 C22.9,93.3 21.8,92.2 21.8,90.8 C21.8,89.4 22.9,88.3 24.3,88.3 L123.1,88.3 C124.5,88.3 125.6,89.4 125.6,90.8 C125.7,92.2 124.5,93.3 123.1,93.3 Z" id="Shape" fill="#3973F4"></path>
            <path d="M123.1,124.7 L24.3,124.7 C22.9,124.7 21.8,123.6 21.8,122.2 C21.8,120.8 22.9,119.7 24.3,119.7 L123.1,119.7 C124.5,119.7 125.6,120.8 125.6,122.2 C125.6,123.6 124.5,124.7 123.1,124.7 Z" id="Shape" fill="#3973F4"></path>
            <g id="Group" transform="translate(28.000000, 20.000000)" fill="#C5DCFA">
                <path d="M73.7,0.7 L70.4,0.7 C67.9,0.7 65.9,2.7 65.9,5.2 L65.9,10.2 C65.9,12.7 67.9,14.7 70.4,14.7 L73.7,14.7 C76.2,14.7 78.2,12.7 78.2,10.2 L78.2,5.2 C78.2,2.7 76.2,0.7 73.7,0.7 Z" id="Shape"></path>
                <path d="M35.2,14.7 C37.7,14.7 39.7,12.7 39.7,10.2 L39.7,5.2 C39.7,2.7 37.7,0.7 35.2,0.7 L31.9,0.7 C29.4,0.7 27.4,2.7 27.4,5.2 L27.4,10.2 C27.4,12.7 29.4,14.7 31.9,14.7 L35.2,14.7 Z" id="Shape"></path>
                <path d="M54.9,0.7 L51.6,0.7 C49.1,0.7 47.1,2.7 47.1,5.2 L47.1,10.2 C47.1,12.7 49.1,14.7 51.6,14.7 L54.9,14.7 C57.4,14.7 59.4,12.7 59.4,10.2 L59.4,5.2 C59.4,2.7 57.4,0.7 54.9,0.7 Z" id="Shape"></path>
                <path d="M54.9,32.4 L51.6,32.4 C49.1,32.4 47.1,34.4 47.1,36.9 L47.1,41.9 C47.1,44.4 49.1,46.4 51.6,46.4 L54.9,46.4 C57.4,46.4 59.4,44.4 59.4,41.9 L59.4,36.9 C59.4,34.4 57.3,32.4 54.9,32.4 Z" id="Shape"></path>
                <path d="M15.1,32.4 L11.8,32.4 C9.3,32.4 7.3,34.4 7.3,36.9 L7.3,41.9 C7.3,44.4 9.3,46.4 11.8,46.4 L15.1,46.4 C17.6,46.4 19.6,44.4 19.6,41.9 L19.6,36.9 C19.6,34.4 17.6,32.4 15.1,32.4 Z" id="Shape"></path>
                <path d="M8.6,63.8 L5.3,63.8 C2.8,63.8 0.8,65.8 0.8,68.3 L0.8,73.3 C0.8,75.8 2.8,77.8 5.3,77.8 L8.6,77.8 C11.1,77.8 13.1,75.8 13.1,73.3 L13.1,68.3 C13.1,65.8 11.1,63.8 8.6,63.8 Z" id="Shape"></path>
                <path d="M47.6,63.8 L44.3,63.8 C41.8,63.8 39.8,65.8 39.8,68.3 L39.8,73.3 C39.8,75.8 41.8,77.8 44.3,77.8 L47.6,77.8 C50.1,77.8 52.1,75.8 52.1,73.3 L52.1,68.3 C52.2,65.8 50.1,63.8 47.6,63.8 Z" id="Shape"></path>
                <path d="M91.3,63.8 L88,63.8 C85.5,63.8 83.5,65.8 83.5,68.3 L83.5,73.3 C83.5,75.8 85.5,77.8 88,77.8 L91.3,77.8 C93.8,77.8 95.8,75.8 95.8,73.3 L95.8,68.3 C95.8,65.8 93.8,63.8 91.3,63.8 Z" id="Shape"></path>
                <path d="M37.5,95.2 L34.2,95.2 C31.7,95.2 29.7,97.2 29.7,99.7 L29.7,104.7 C29.7,107.2 31.7,109.2 34.2,109.2 L37.5,109.2 C40,109.2 42,107.2 42,104.7 L42,99.7 C42.1,97.2 40,95.2 37.5,95.2 Z" id="Shape"></path>
            </g>
        </g>
    </g>
</svg>