<?xml version="1.0" encoding="UTF-8"?>
<svg width="137px" height="138px" viewBox="0 0 137 138" version="1.1" xmlns="http://www.w3.org/2000/svg" xmlns:xlink="http://www.w3.org/1999/xlink">
    <!-- Generator: Sketch 51.2 (57519) - http://www.bohemiancoding.com/sketch -->
    <title>Ball</title>
    <desc>Created with Sketch.</desc>
    <defs></defs>
    <g id="Page-1" stroke="none" stroke-width="1" fill="none" fill-rule="evenodd">
        <g id="Ball" fill-rule="nonzero">
            <path d="M136.7,68.9 C136.7,77.3 135.1,85.4 132.4,92.9 C132.4,93 132.3,93.1 132.3,93.2 C131.8,94.6 131.2,95.9 130.6,97.2 C129.9,98.6 129.3,100 128.5,101.4 C128.5,101.4 128.5,101.4 128.5,101.4 C124.9,107.9 120.4,113.8 115,118.8 C115,118.8 115,118.8 115,118.8 C113.2,120.5 111.3,122.1 109.3,123.6 C98,132.1 83.9,137.1 68.7,137.1 C32.8,137.1 3.3,109.3 0.8,74 C0.7,72.4 0.6,70.7 0.6,69 C0.6,56.2 4.1,44.3 10.2,34.1 C10.8,33.2 11.3,32.3 11.9,31.4 C12.7,30.1 13.6,28.9 14.5,27.7 C14.6,27.6 14.6,27.5 14.7,27.4 C18.8,22.1 23.8,17.3 29.3,13.4 C30,12.9 30.7,12.4 31.3,12 C31.8,11.7 32.3,11.4 32.7,11.1 C37.2,8.3 42,6 47.1,4.3 C47.7,4.1 48.4,3.9 49.1,3.7 C49.5,3.6 50,3.4 50.5,3.3 C54.8,2.1 59.3,1.3 63.9,1 C64.9,0.9 65.9,0.9 66.9,0.9 L67,0.9 C67.6,0.9 68.1,0.9 68.7,0.9 C96.1,0.9 119.7,17.1 130.5,40.4 C131.9,43.4 133.1,46.6 134,49.8 C134,49.8 134,49.8 134,49.8 C134.3,50.8 134.5,51.8 134.8,52.8 C135.7,56.6 136.3,60.6 136.6,64.6 C136.6,64.8 136.6,64.9 136.6,65.1 C136.7,66.1 136.7,67.2 136.7,68.2 C136.7,68.4 136.7,68.6 136.7,68.9 Z" id="Shape" fill="#3F82FD"></path>
            <path d="M130.6,45.3 C130.6,53.7 129.1,61.8 126.3,69.3 C126.3,69.4 126.2,69.5 126.2,69.6 C125.7,71 125.1,72.3 124.5,73.6 C123.9,75 123.2,76.4 122.4,77.8 C122.4,77.8 122.4,77.8 122.4,77.8 C118.9,84.3 114.3,90.2 108.9,95.2 C108.9,95.2 108.9,95.2 108.8,95.2 C107,96.9 105.1,98.5 103.1,100 C91.8,108.5 77.7,113.5 62.4,113.5 C35,113.5 11.3,97.3 0.6,73.9 C0.5,72.3 0.4,70.6 0.4,68.9 C0.4,56.1 3.9,44.2 10,34 C10.6,33.1 11.1,32.2 11.7,31.3 C12.5,30 13.4,28.8 14.3,27.6 C14.4,27.5 14.4,27.4 14.5,27.3 C18.6,22 23.6,17.2 29.1,13.3 C29.8,12.8 30.5,12.3 31.1,11.9 C31.6,11.6 32.1,11.3 32.5,11 C37,8.2 41.8,5.9 46.9,4.2 C47.5,4 48.2,3.8 48.9,3.6 C49.3,3.5 49.8,3.3 50.3,3.2 C54.6,2 59.1,1.2 63.7,0.9 C64.7,0.8 65.7,0.8 66.7,0.8 L66.8,0.8 C67.4,0.8 67.9,0.8 68.5,0.8 C95.9,0.8 119.5,17 130.3,40.3 C130.3,40.5 130.3,40.8 130.4,41 C130.4,41.2 130.4,41.3 130.4,41.5 C130.5,42.5 130.5,43.6 130.5,44.6 C130.6,44.9 130.6,45.1 130.6,45.3 Z" id="Shape" fill="#4988FD"></path>
            <path d="M114.9,118.8 C113.1,120.5 111.2,122.1 109.2,123.6 C102.8,125.2 96.2,126 89.6,126 C71.2,126 53.1,119.6 38.8,107.9 C35.2,105 32.5,102.5 28.7,98 C16.2,83.4 9.3,64.8 9.3,45.7 C9.3,41.8 9.6,37.9 10.2,34 C10.8,33.1 11.3,32.2 11.9,31.3 C12.7,30 13.6,28.8 14.5,27.6 C14,30 13.5,32 13.4,33.1 C12.7,37.2 12.4,41.4 12.4,45.7 C12.4,64.1 19,82 31,96.1 C34.8,100.5 37.3,102.8 40.8,105.6 C54.6,116.8 72,123 89.7,123 C98.2,123 106.6,121.6 114.6,118.9 C114.6,118.8 114.8,118.8 114.9,118.8 Z" id="Shape" fill="#3973F4"></path>
            <path d="M132.3,92.8 C132.3,92.9 132.2,93 132.2,93.1 C131.7,94.5 131.1,95.8 130.5,97.1 C125.1,99.8 119.2,101.9 114,103 L112.9,103.3 C110,103.9 107.3,104.6 102,104.6 C101.5,104.6 101,104.6 100.5,104.6 C99.9,104.6 99.2,104.6 98.6,104.6 C59.1,104.6 26.9,72.4 26.9,32.9 C26.9,31 27,29.1 27.1,27.3 C27.4,23.3 28.1,18.4 29.1,13.2 C29.8,12.7 30.5,12.2 31.1,11.8 C31.6,11.5 32.1,11.2 32.5,10.9 C31.3,17 30.4,22.9 30,27.5 C29.9,29.3 29.8,31.1 29.8,32.9 C29.8,70.8 60.6,101.6 98.5,101.6 C99.1,101.6 99.7,101.6 100.3,101.6 C100.8,101.6 101.4,101.6 101.9,101.6 C106.9,101.6 109.3,101 112.1,100.3 L113.3,100 C119.4,98.8 126.3,96.1 132.3,92.8 C132.3,92.8 132.3,92.8 132.3,92.8 Z" id="Shape" fill="#3973F4"></path>
            <path d="M136.7,68.2 C126.5,75.5 113.9,79.7 102.4,79.7 C81,79.7 61.3,68.1 52,50 C47.4,41.1 45.6,34.4 44.8,23.7 C44.8,23.3 44.8,22.9 44.8,22.5 L44.8,22.2 C44.8,18.1 45.5,10.5 47,4.2 C47.6,4 48.3,3.8 49,3.6 C49.4,3.5 49.9,3.3 50.4,3.2 C48.8,9.1 47.9,17.4 47.9,22.2 L47.9,22.6 C47.9,22.9 47.9,23.3 47.9,23.6 C48.7,34 50.3,40.1 54.7,48.7 C63.4,65.7 82.1,76.7 102.4,76.7 C113.8,76.7 126.5,72.2 136.5,64.5 C136.5,64.7 136.5,64.8 136.5,65 C136.6,66.1 136.7,67.2 136.7,68.2 Z" id="Shape" fill="#3973F4"></path>
            <path d="M134.7,52.8 C127.6,56.8 118.8,59.1 110.8,59.1 C88.9,59.1 70.2,44.2 65.3,23 C63.7,16.2 63.2,8 63.8,1 C64.8,0.9 65.8,0.9 66.8,0.9 L66.9,0.9 C66.2,8.5 67,16.8 68.3,22.4 C72.9,42.3 90.4,56.2 110.9,56.2 C118.6,56.2 127.2,53.8 134,49.9 C134.2,50.8 134.5,51.8 134.7,52.8 Z" id="Shape" fill="#3973F4"></path>
            <path d="M104.1,33.3 C101.6,33.3 98.8,32.1 96.5,29.8 C92.6,25.9 91.9,20.7 94.8,17.8 C97.7,14.9 103,15.7 106.8,19.5 C110.7,23.4 111.4,28.6 108.5,31.5 C107.3,32.7 105.8,33.3 104.1,33.3 Z M99.2,19 C98.3,19 97.5,19.3 96.9,19.9 C95.3,21.5 96.1,25.1 98.6,27.7 C101.2,30.3 104.7,31.1 106.4,29.4 C108,27.8 107.2,24.2 104.7,21.6 C103,20 100.9,19 99.2,19 Z" id="Shape" fill="#3973F4"></path>
        </g>
    </g>
</svg>