<?xml version="1.0" encoding="UTF-8"?>
<svg width="107px" height="146px" viewBox="0 0 107 146" version="1.1" xmlns="http://www.w3.org/2000/svg" xmlns:xlink="http://www.w3.org/1999/xlink">
    <!-- Generator: Sketch 51.2 (57519) - http://www.bohemiancoding.com/sketch -->
    <title>Bannana</title>
    <desc>Created with Sketch.</desc>
    <defs></defs>
    <g id="Page-1" stroke="none" stroke-width="1" fill="none" fill-rule="evenodd">
        <g id="Bannana" fill-rule="nonzero">
            <path d="M40,68.1 C29.4,56.4 18.7,61.5 6.9,71.6 C5.6,72.7 3.7,71.4 4.3,69.8 C11.7,48.4 27.5,44.5 40.9,52.5 L40.8,55.7 L40,68.1 Z" id="Shape" fill="#4988FD"></path>
            <path d="M106.6,94.5 C106.6,96 104.5,96.4 103.8,95.1 C96.3,78.7 81.6,66.4 71.2,68.7 C71.2,68.7 71.2,68.7 71.2,68.7 L71.4,53.1 C81.7,53.1 107.7,59.3 106.6,94.5 Z" id="Shape" fill="#4988FD"></path>
            <path d="M70.5,76.4 C66.2,97.2 56,125.1 30.9,126.4 C14.8,127.2 22.8,125.2 0.8,145.3 C0.8,145.3 3.2,129.8 3.2,129.8 C3.4,128.8 8.2,126.6 9.2,126 C12.9,123.5 15.5,120 18.5,116.7 C26.2,108.3 32.9,95.4 36.4,81.4 C47.1,38.4 35,25.6 31.1,13.7 C29.7,9.5 30.2,4.7 34.3,2.2 C45.3,-4.4 55.7,13 60.4,20.4 C71.6,38 74.5,57.2 70.5,76.4 Z" id="Shape" fill="#D5E6FD"></path>
            <path d="M49.4,48 C48.5,48 47.7,47.4 47.5,46.5 C47.3,45.7 47.1,44.8 46.9,44 C46.6,42.9 47.2,41.8 48.3,41.5 C49.4,41.2 50.5,41.8 50.8,42.9 C51.1,43.8 51.3,44.7 51.5,45.6 C51.8,46.7 51.1,47.8 50,48 C49.7,48 49.6,48 49.4,48 Z" id="Shape" fill="#BAD8FF"></path>
            <path d="M48.7,73.5 C48.6,73.5 48.4,73.5 48.3,73.5 C47.2,73.3 46.5,72.2 46.8,71.1 C48.3,64.1 49.1,59 48.6,53.4 C48.5,52.3 49.3,51.3 50.4,51.2 C51.5,51.1 52.5,51.9 52.6,53 C53.1,59.1 52.3,64.5 50.7,71.9 C50.5,72.8 49.6,73.5 48.7,73.5 Z" id="Shape" fill="#BAD8FF"></path>
            <path d="M71.7,68.6 C71.4,71.2 71,73.8 70.4,76.5 C66.1,97.3 55.9,125.2 30.8,126.5 C14.7,127.3 22.7,125.3 0.7,145.4 L3,129.9 C3.2,128.9 8,126.7 9,126.1 C12.7,123.6 15.3,120.1 18.3,116.8 C26,108.4 32.7,95.5 36.2,81.5 C37.5,76.3 38.5,71.6 39.1,67.2 L39.1,67 C42,69 45.2,70.6 48.6,71.5 C56.2,73.6 64.4,72.3 71.5,68.7 C71.6,68.6 71.7,68.6 71.7,68.6 Z" id="Shape" fill="#4278F4"></path>
            <path d="M71.6,68.6 C70.3,77.6 66.6,84 59.1,94.8 C48.3,110.1 36.1,110.6 39.5,98.4 C42.8,86.5 39.6,76.3 39.2,67.2 L39.2,67 C42.1,69 45.3,70.6 48.7,71.5 C56.3,73.5 64.5,72.3 71.6,68.6 Z" id="Shape" fill="#6097FD"></path>
            <path d="M51.7,26.4 C51,26.4 50.3,26 50,25.4 C48.9,23.5 47.8,21.7 46.6,20 C46,19.1 46.2,17.8 47.1,17.2 C48,16.6 49.3,16.8 49.9,17.7 C51.2,19.5 52.4,21.4 53.5,23.4 C54,24.4 53.7,25.6 52.7,26.1 C52.4,26.3 52.1,26.4 51.7,26.4 Z" id="Shape" fill="#BAD8FF"></path>
            <path d="M58.7,43.2 C57.8,43.2 57,42.6 56.8,41.7 C55.7,37.8 54.3,33.9 52.6,30.4 C52.1,29.4 52.6,28.2 53.6,27.7 C54.6,27.2 55.8,27.7 56.3,28.7 C58,32.5 59.5,36.5 60.7,40.6 C61,41.7 60.4,42.8 59.3,43.1 C59.1,43.2 58.9,43.2 58.7,43.2 Z" id="Shape" fill="#BAD8FF"></path>
            <path d="M60.1,49.1 C59.2,49.1 58.4,48.5 58.1,47.5 L58.1,47.3 C57.9,46.2 58.6,45.2 59.7,44.9 C60.8,44.7 61.8,45.4 62.1,46.5 L62.1,46.6 C62.3,47.7 61.7,48.7 60.6,49 C60.4,49.1 60.3,49.1 60.1,49.1 Z" id="Shape" fill="#BAD8FF"></path>
        </g>
    </g>
</svg>