<?xml version="1.0" encoding="UTF-8"?>
<svg width="149px" height="131px" viewBox="0 0 149 131" version="1.1" xmlns="http://www.w3.org/2000/svg" xmlns:xlink="http://www.w3.org/1999/xlink">
    <!-- Generator: Sketch 51.2 (57519) - http://www.bohemiancoding.com/sketch -->
    <title>Basketball</title>
    <desc>Created with Sketch.</desc>
    <defs></defs>
    <g id="Page-1" stroke="none" stroke-width="1" fill="none" fill-rule="evenodd">
        <g id="Basketball" fill-rule="nonzero">
            <path d="M51.9,95.5 L5.8,95.5 C3,95.5 0.8,93.3 0.8,90.5 L0.8,5.3 C0.8,2.5 3,0.3 5.8,0.3 L143.1,0.3 C145.9,0.3 148.1,2.5 148.1,5.3 L148.1,90.5 C148.1,93.3 145.9,95.5 143.1,95.5 L98.2,95.5" id="Shape" fill="#4988FD"></path>
            <rect id="Rectangle-path" fill="#3973F4" x="45.3" y="31.7" width="58.3" height="40.8"></rect>
            <g id="Group" transform="translate(38.000000, 70.000000)" fill="#C5DCFA">
                <path d="M15.6,59 C15.6,59 15.5,59 15.5,59 C14.4,58.9 13.5,58 13.6,56.9 C16,14.1 1.9,4.8 1.7,4.7 C0.9,4.2 0.6,3.3 0.8,2.4 C1,1.5 1.8,0.9 2.7,0.9 L70.2,0.9 C71.1,0.9 71.9,1.5 72.2,2.4 C72.4,3.3 72.1,4.2 71.3,4.7 C71.2,4.8 57,14 59.4,56.9 C59.5,58 58.6,59 57.5,59 C56.4,59.1 55.4,58.2 55.4,57.1 C53.6,25.4 60.6,11 65.3,5 L7.7,5 C12.4,11 19.4,25.4 17.6,57.1 C17.6,58.2 16.7,59 15.6,59 Z" id="Shape"></path>
                <g id="Shape">
                    <path d="M27.9,60.9 C27.4,60.9 26.9,60.7 26.5,60.3 L14.5,48.3 C13.7,47.5 13.7,46.2 14.5,45.4 C15.3,44.6 16.6,44.6 17.4,45.4 L29.4,57.4 C30.2,58.2 30.2,59.5 29.4,60.3 C28.9,60.7 28.4,60.9 27.9,60.9 Z"></path>
                    <path d="M47.4,60.9 C46.9,60.9 46.4,60.7 46,60.3 L12.5,26.8 C11.7,26 11.7,24.7 12.5,23.9 C13.3,23.1 14.6,23.1 15.4,23.9 L48.9,57.4 C49.7,58.2 49.7,59.5 48.9,60.3 C48.4,60.7 47.9,60.9 47.4,60.9 Z"></path>
                    <path d="M57.1,51.1 C56.6,51.1 56.1,50.9 55.7,50.5 L9.6,4.4 C8.8,3.6 8.8,2.3 9.6,1.5 C10.4,0.7 11.7,0.7 12.5,1.5 L58.6,47.6 C59.4,48.4 59.4,49.7 58.6,50.5 C58.2,50.9 57.6,51.1 57.1,51.1 Z"></path>
                    <path d="M58.1,32.6 C57.6,32.6 57.1,32.4 56.7,32 L29.1,4.4 C28.3,3.6 28.3,2.3 29.1,1.5 C29.9,0.7 31.2,0.7 32,1.5 L59.6,29.1 C60.4,29.9 60.4,31.2 59.6,32 C59.2,32.4 58.7,32.6 58.1,32.6 Z"></path>
                    <path d="M62,17 C61.5,17 61,16.8 60.6,16.4 L48.6,4.4 C47.8,3.6 47.8,2.3 48.6,1.5 C49.4,0.7 50.7,0.7 51.5,1.5 L63.5,13.5 C64.3,14.3 64.3,15.6 63.5,16.4 C63.1,16.8 62.6,17 62,17 Z"></path>
                    <path d="M11.6,18.7 C11.1,18.7 10.6,18.5 10.2,18.1 C9.4,17.3 9.4,16 10.2,15.2 L23.9,1.5 C24.7,0.7 26,0.7 26.8,1.5 C27.6,2.3 27.6,3.6 26.8,4.4 L13,18.2 C12.6,18.5 12.1,18.7 11.6,18.7 Z"></path>
                    <path d="M15.1,34.7 C14.6,34.7 14.1,34.5 13.7,34.1 C12.9,33.3 12.9,32 13.7,31.2 L43.4,1.5 C44.2,0.7 45.5,0.7 46.3,1.5 C47.1,2.3 47.1,3.6 46.3,4.4 L16.6,34.1 C16.1,34.5 15.6,34.7 15.1,34.7 Z"></path>
                    <path d="M15.8,53.5 C15.3,53.5 14.8,53.3 14.4,52.9 C13.6,52.1 13.6,50.8 14.4,50 L62.9,1.5 C63.7,0.7 65,0.7 65.8,1.5 C66.6,2.3 66.6,3.6 65.8,4.4 L17.3,52.9 C16.8,53.3 16.3,53.5 15.8,53.5 Z"></path>
                    <path d="M27.9,60.9 C27.4,60.9 26.9,60.7 26.5,60.3 C25.7,59.5 25.7,58.2 26.5,57.4 L57.1,26.8 C57.9,26 59.2,26 60,26.8 C60.8,27.6 60.8,28.9 60,29.7 L58.7,31 L29.4,60.3 C28.9,60.7 28.4,60.9 27.9,60.9 Z"></path>
                    <path d="M47.4,60.9 C46.9,60.9 46.4,60.7 46,60.3 C45.2,59.5 45.2,58.2 46,57.4 L55.7,47.6 C56.5,46.8 57.8,46.8 58.6,47.6 C59.4,48.4 59.4,49.7 58.6,50.5 L48.9,60.3 C48.4,60.7 47.9,60.9 47.4,60.9 Z"></path>
                    <path d="M57.4,59 C56.3,59 55.4,58.2 55.4,57.1 C55.3,54.6 55.2,52 55.2,49.4 C55.2,49.3 55.2,49.1 55.2,49 C55.1,42.2 55.5,35.9 56.2,30.4 C56.3,29.6 56.4,28.9 56.5,28.1 C57.4,22.9 58.6,18.3 60.2,14.3 C61.9,10 63.7,7.1 65.3,5.1 L7.7,5.1 C9.5,7.4 11.7,10.9 13.5,16.1 C14.5,18.9 15.3,21.9 15.9,25 C16.4,27.3 16.8,29.8 17.1,32.5 C17.6,36.9 17.9,41.8 17.9,46.9 C17.9,48.4 17.9,50 17.8,51.6 C17.8,53.3 17.7,55.1 17.6,57 L17.6,57.2 C17.5,58.3 16.6,59.2 15.5,59.1 C14.4,59 13.5,58.1 13.6,57 L13.6,56.8 C13.7,55 13.8,53.2 13.8,51.6 C13.8,50 13.9,48.5 13.9,47 C13.9,42 13.6,37.4 13.1,33.1 C12.8,30.5 12.4,28.2 12,26 C11.4,23.1 10.7,20.2 9.7,17.6 C6.2,7.8 1.8,4.9 1.7,4.9 C0.9,4.4 0.6,3.5 0.8,2.6 C1,1.7 1.8,1.1 2.7,1.1 L70.2,1.1 C71.1,1.1 71.9,1.7 72.2,2.6 C72.4,3.5 72.1,4.4 71.3,4.9 C71.3,4.9 67.3,7.4 64,15.9 C62.5,19.6 61.4,23.9 60.5,28.8 C60.4,29.5 60.3,30.3 60.2,31 C59.4,36.4 59.1,42.5 59.2,49.2 C59.2,49.2 59.2,49.2 59.2,49.2 C59.2,51.8 59.3,54.5 59.4,57 C59.5,58.1 58.6,59.1 57.5,59.1 C57.4,59 57.4,59 57.4,59 Z"></path>
                </g>
            </g>
        </g>
    </g>
</svg>