<?xml version="1.0" encoding="UTF-8"?>
<svg width="103px" height="148px" viewBox="0 0 103 148" version="1.1" xmlns="http://www.w3.org/2000/svg" xmlns:xlink="http://www.w3.org/1999/xlink">
    <!-- Generator: Sketch 51.2 (57519) - http://www.bohemiancoding.com/sketch -->
    <title>Battery</title>
    <desc>Created with Sketch.</desc>
    <defs></defs>
    <g id="Page-1" stroke="none" stroke-width="1" fill="none" fill-rule="evenodd">
        <g id="Battery" fill-rule="nonzero">
            <g id="Group" transform="translate(19.000000, 22.000000)">
                <path d="M60.4,16.2 C57.1,16.1 53.9,16.2 50.2,16.2 C50.2,12.5 50.3,9.4 50.2,6.2 C50.1,2.5 48.6,0.9 44.9,0.9 C36.9,0.8 28.8,0.8 20.8,0.9 C17.8,0.9 16.2,2 15.6,4.3 C15.4,4.9 15.4,5.6 15.4,6.4 C15.4,6.9 15.4,7.3 15.4,7.8 C15.4,10.5 15.4,13.2 15.4,16.2 C11.9,16.2 8.6,16.1 5.4,16.2 C2.5,16.3 1,17.1 0.5,19.1 C0.3,19.7 0.2,20.5 0.2,21.4 C0.2,54.2 0.2,87 0.2,119.7 C0.2,123.7 1.6,125.2 5.5,125.2 C23.8,125.3 42.1,125.2 60.4,125.2 C64.1,125.2 65.7,123.6 65.7,120 L65.7,113.7 C65.7,82.9 65.7,52.1 65.7,21.3 C65.6,17.6 64.2,16.3 60.4,16.2 Z M24.4,9.7 L41.3,9.7 L41.3,14.3 L24.4,14.3 L24.4,9.7 Z" id="Shape" fill="#C5DCFA"></path>
                <path d="M60.4,16.2 C57.1,16.1 53.9,16.2 50.2,16.2 C50.2,12.5 50.3,9.4 50.2,6.2 C50.1,2.5 48.6,0.9 44.9,0.9 C36.9,0.8 28.8,0.8 20.8,0.9 C17.8,0.9 16.2,2 15.6,4.3 C15.6,5.4 15.6,6.6 15.6,7.8 L15.3,7.8 C15.3,10.5 15.3,13.2 15.3,16.2 C11.8,16.2 8.5,16.1 5.3,16.2 C2.4,16.3 0.9,17.1 0.4,19.1 C0.4,49.8 0.4,80.6 0.4,111.3 C0.4,115.3 1.8,116.8 5.7,116.8 C24,116.9 42.3,116.8 60.6,116.8 C63.4,116.8 65,115.8 65.6,113.7 C65.6,82.9 65.6,52.1 65.6,21.3 C65.6,17.6 64.2,16.3 60.4,16.2 Z M41.3,14.3 L24.4,14.3 L24.4,9.7 L41.3,9.7 L41.3,14.3 Z" id="Shape" fill="#DFECFD"></path>
                <path d="M52.2,63.4 L27.4,97.5 C26.5,98.8 24.5,98 24.7,96.4 L27.8,74.7 L15.1,74.8 C13.8,74.8 13.1,73.4 13.8,72.3 L16.6,68.4 L38.6,38.2 C39.5,36.9 41.6,37.8 41.3,39.3 L37.9,61.1 L50.8,60.9 C51.1,60.9 51.5,61 51.7,61.2 C52.5,61.7 52.8,62.7 52.2,63.4 Z" id="Shape" fill="#2767F4"></path>
                <path d="M51.8,61.2 L29.8,91.4 C28.9,92.7 26.9,91.9 27.1,90.3 L30.2,68.6 L17.5,68.7 C17.1,68.7 16.8,68.6 16.6,68.4 L38.6,38.2 C39.5,36.9 41.6,37.8 41.3,39.3 L37.9,61.1 L50.8,60.9 C51.3,61 51.6,61.1 51.8,61.2 Z" id="Shape" fill="#4988FD"></path>
            </g>
            <path d="M51.1,16.3 C50,16.3 49.1,15.4 49.1,14.3 L49.1,2.6 C49.1,1.5 50,0.6 51.1,0.6 C52.2,0.6 53.1,1.5 53.1,2.6 L53.1,14.3 C53.1,15.4 52.2,16.3 51.1,16.3 Z" id="Shape" fill="#4988FD"></path>
            <path d="M56.9,10.4 L45.2,10.4 C44.1,10.4 43.2,9.5 43.2,8.4 C43.2,7.3 44.1,6.4 45.2,6.4 L56.9,6.4 C58,6.4 58.9,7.3 58.9,8.4 C58.9,9.5 58,10.4 56.9,10.4 Z" id="Shape" fill="#4988FD"></path>
            <g id="Group" transform="translate(74.000000, 7.000000)" fill="#C5DCFA">
                <path d="M2.6,3.1 L2.1,3.1 C1.3,3.1 0.6,2.4 0.6,1.6 C0.6,0.8 1.3,0.1 2.1,0.1 L2.6,0.1 C3.4,0.1 4.1,0.8 4.1,1.6 C4.1,2.4 3.4,3.1 2.6,3.1 Z" id="Shape"></path>
                <path d="M23.7,86.8 C22.9,86.8 22.2,86.1 22.2,85.3 L22.2,84.3 C22.2,83.5 22.9,82.8 23.7,82.8 C24.5,82.8 25.2,83.5 25.2,84.3 L25.2,85.3 C25.2,86.2 24.5,86.8 23.7,86.8 Z M23.7,79 C22.9,79 22.2,78.3 22.2,77.5 L22.2,76.5 C22.2,75.7 22.9,75 23.7,75 C24.5,75 25.2,75.7 25.2,76.5 L25.2,77.5 C25.2,78.3 24.5,79 23.7,79 Z M23.7,71.2 C22.9,71.2 22.2,70.5 22.2,69.7 L22.2,68.7 C22.2,67.9 22.9,67.2 23.7,67.2 C24.5,67.2 25.2,67.9 25.2,68.7 L25.2,69.7 C25.2,70.5 24.5,71.2 23.7,71.2 Z M23.7,63.3 C22.9,63.3 22.2,62.6 22.2,61.8 L22.2,60.8 C22.2,60 22.9,59.3 23.7,59.3 C24.5,59.3 25.2,60 25.2,60.8 L25.2,61.8 C25.2,62.6 24.5,63.3 23.7,63.3 Z M23.7,55.5 C22.9,55.5 22.2,54.8 22.2,54 L22.2,53 C22.2,52.2 22.9,51.5 23.7,51.5 C24.5,51.5 25.2,52.2 25.2,53 L25.2,54 C25.2,54.8 24.5,55.5 23.7,55.5 Z M23.7,47.6 C22.9,47.6 22.2,46.9 22.2,46.1 L22.2,45.1 C22.2,44.3 22.9,43.6 23.7,43.6 C24.5,43.6 25.2,44.3 25.2,45.1 L25.2,46.1 C25.2,47 24.5,47.6 23.7,47.6 Z M23.7,39.8 C22.9,39.8 22.2,39.1 22.2,38.3 L22.2,37.3 C22.2,36.5 22.9,35.8 23.7,35.8 C24.5,35.8 25.2,36.5 25.2,37.3 L25.2,38.3 C25.2,39.1 24.5,39.8 23.7,39.8 Z M23.7,31.9 C22.9,31.9 22.2,31.2 22.2,30.4 L22.2,29.4 C22.2,28.6 22.9,27.9 23.7,27.9 C24.5,27.9 25.2,28.6 25.2,29.4 L25.2,30.4 C25.2,31.3 24.5,31.9 23.7,31.9 Z M23.7,24.1 C22.9,24.1 22.2,23.4 22.2,22.6 L22.2,21.6 C22.2,20.8 22.9,20.1 23.7,20.1 C24.5,20.1 25.2,20.8 25.2,21.6 L25.2,22.6 C25.2,23.4 24.5,24.1 23.7,24.1 Z M23.7,16.3 C22.9,16.3 22.2,15.6 22.2,14.8 L22.2,13.8 C22.2,13 22.9,12.3 23.7,12.3 C24.5,12.3 25.2,13 25.2,13.8 L25.2,14.8 C25.2,15.6 24.5,16.3 23.7,16.3 Z M23.5,8.4 C22.8,8.4 22.2,7.9 22,7.2 C21.9,7 21.9,6.7 21.8,6.5 C21.5,5.7 21.9,4.9 22.7,4.6 C23.5,4.3 24.3,4.7 24.6,5.5 C24.7,5.9 24.9,6.3 25,6.6 C25.2,7.4 24.7,8.2 23.9,8.4 C23.8,8.4 23.6,8.4 23.5,8.4 Z M18.3,3.2 C18.2,3.2 18.1,3.2 18,3.2 C17.7,3.1 17.5,3.1 17.2,3.1 C16.4,3 15.8,2.3 15.8,1.5 C15.9,0.7 16.6,0.1 17.4,0.1 C17.8,0.1 18.2,0.2 18.6,0.3 C19.4,0.5 19.9,1.3 19.7,2.1 C19.6,2.7 18.9,3.2 18.3,3.2 Z M10.4,3.1 L9.4,3.1 C8.6,3.1 7.9,2.4 7.9,1.6 C7.9,0.8 8.6,0.1 9.4,0.1 L10.4,0.1 C11.2,0.1 11.9,0.8 11.9,1.6 C11.9,2.4 11.3,3.1 10.4,3.1 Z" id="Shape"></path>
                <path d="M23.7,94.2 C22.9,94.2 22.2,93.5 22.2,92.7 L22.2,92.2 C22.2,91.4 22.9,90.7 23.7,90.7 C24.5,90.7 25.2,91.4 25.2,92.2 L25.2,92.7 C25.2,93.5 24.5,94.2 23.7,94.2 Z" id="Shape"></path>
            </g>
            <g id="Group" transform="translate(70.000000, 3.000000)">
                <circle id="Oval" fill="#FFFFFF" cx="5.2" cy="5.6" r="3.2"></circle>
                <path d="M5.2,10.3 C2.6,10.3 0.5,8.2 0.5,5.6 C0.5,3 2.6,0.9 5.2,0.9 C7.8,0.9 9.9,3 9.9,5.6 C9.9,8.2 7.8,10.3 5.2,10.3 Z M5.2,3.8 C4.3,3.8 3.5,4.6 3.5,5.5 C3.5,6.4 4.3,7.2 5.2,7.2 C6.1,7.2 6.9,6.4 6.9,5.5 C6.9,4.6 6.1,3.8 5.2,3.8 Z" id="Shape" fill="#C5DCFA"></path>
            </g>
            <g id="Group" transform="translate(92.000000, 97.000000)">
                <circle id="Oval" fill="#FFFFFF" cx="5.6" cy="4.9" r="3.2"></circle>
                <path d="M5.6,9.7 C3,9.7 0.9,7.6 0.9,5 C0.9,2.4 3,0.3 5.6,0.3 C8.2,0.3 10.3,2.4 10.3,5 C10.3,7.5 8.2,9.7 5.6,9.7 Z M5.6,3.2 C4.7,3.2 3.9,4 3.9,4.9 C3.9,5.8 4.7,6.6 5.6,6.6 C6.5,6.6 7.3,5.8 7.3,4.9 C7.3,4 6.5,3.2 5.6,3.2 Z" id="Shape" fill="#C5DCFA"></path>
            </g>
            <g id="Group" transform="translate(3.000000, 55.000000)" fill="#C5DCFA">
                <path d="M2.2,3.7 C1.4,3.7 0.7,3 0.7,2.2 L0.7,1.7 C0.7,0.9 1.4,0.2 2.2,0.2 C3,0.2 3.7,0.9 3.7,1.7 L3.7,2.2 C3.7,3 3,3.7 2.2,3.7 Z" id="Shape"></path>
                <path d="M2.2,66.7 C1.4,66.7 0.7,66 0.7,65.2 L0.7,64.2 C0.7,63.4 1.4,62.7 2.2,62.7 C3,62.7 3.7,63.4 3.7,64.2 L3.7,65.2 C3.7,66 3,66.7 2.2,66.7 Z M2.2,58.8 C1.4,58.8 0.7,58.1 0.7,57.3 L0.7,56.3 C0.7,55.5 1.4,54.8 2.2,54.8 C3,54.8 3.7,55.5 3.7,56.3 L3.7,57.3 C3.7,58.1 3,58.8 2.2,58.8 Z M2.2,50.9 C1.4,50.9 0.7,50.2 0.7,49.4 L0.7,48.4 C0.7,47.6 1.4,46.9 2.2,46.9 C3,46.9 3.7,47.6 3.7,48.4 L3.7,49.4 C3.7,50.2 3,50.9 2.2,50.9 Z M2.2,43 C1.4,43 0.7,42.3 0.7,41.5 L0.7,40.5 C0.7,39.7 1.4,39 2.2,39 C3,39 3.7,39.7 3.7,40.5 L3.7,41.5 C3.7,42.4 3,43 2.2,43 Z M2.2,35.2 C1.4,35.2 0.7,34.5 0.7,33.7 L0.7,32.7 C0.7,31.9 1.4,31.2 2.2,31.2 C3,31.2 3.7,31.9 3.7,32.7 L3.7,33.7 C3.7,34.5 3,35.2 2.2,35.2 Z M2.2,27.3 C1.4,27.3 0.7,26.6 0.7,25.8 L0.7,24.8 C0.7,24 1.4,23.3 2.2,23.3 C3,23.3 3.7,24 3.7,24.8 L3.7,25.8 C3.7,26.6 3,27.3 2.2,27.3 Z M2.2,19.4 C1.4,19.4 0.7,18.7 0.7,17.9 L0.7,16.9 C0.7,16.1 1.4,15.4 2.2,15.4 C3,15.4 3.7,16.1 3.7,16.9 L3.7,17.9 C3.7,18.7 3,19.4 2.2,19.4 Z M2.2,11.5 C1.4,11.5 0.7,10.8 0.7,10 L0.7,9 C0.7,8.2 1.4,7.5 2.2,7.5 C3,7.5 3.7,8.2 3.7,9 L3.7,10 C3.7,10.9 3,11.5 2.2,11.5 Z" id="Shape"></path>
                <path d="M2.2,74.1 C1.4,74.1 0.7,73.4 0.7,72.6 L0.7,72.1 C0.7,71.3 1.4,70.6 2.2,70.6 C3,70.6 3.7,71.3 3.7,72.1 L3.7,72.6 C3.7,73.4 3,74.1 2.2,74.1 Z" id="Shape"></path>
            </g>
            <g id="Group" transform="translate(0.000000, 125.000000)">
                <circle id="Oval" fill="#FFFFFF" cx="5.1" cy="4.8" r="3.2"></circle>
                <path d="M5.1,9.5 C2.5,9.5 0.4,7.4 0.4,4.8 C0.4,2.2 2.5,0.1 5.1,0.1 C7.7,0.1 9.8,2.2 9.8,4.8 C9.8,7.4 7.7,9.5 5.1,9.5 Z M5.1,3.1 C4.2,3.1 3.4,3.9 3.4,4.8 C3.4,5.7 4.2,6.5 5.1,6.5 C6,6.5 6.8,5.7 6.8,4.8 C6.8,3.9 6.1,3.1 5.1,3.1 Z" id="Shape" fill="#C5DCFA"></path>
            </g>
            <g id="Group" transform="translate(0.000000, 48.000000)">
                <circle id="Oval" fill="#FFFFFF" cx="5.1" cy="5.5" r="3.2"></circle>
                <path d="M5.1,10.2 C2.5,10.2 0.4,8.1 0.4,5.5 C0.4,2.9 2.5,0.8 5.1,0.8 C7.7,0.8 9.8,2.9 9.8,5.5 C9.8,8.1 7.7,10.2 5.1,10.2 Z M5.1,3.7 C4.2,3.7 3.4,4.5 3.4,5.4 C3.4,6.3 4.2,7.1 5.1,7.1 C6,7.1 6.8,6.3 6.8,5.4 C6.8,4.5 6.1,3.7 5.1,3.7 Z" id="Shape" fill="#C5DCFA"></path>
            </g>
        </g>
    </g>
</svg>