<?xml version="1.0" encoding="UTF-8"?>
<svg width="148px" height="127px" viewBox="0 0 148 127" version="1.1" xmlns="http://www.w3.org/2000/svg" xmlns:xlink="http://www.w3.org/1999/xlink">
    <!-- Generator: Sketch 51.2 (57519) - http://www.bohemiancoding.com/sketch -->
    <title>Benchpress</title>
    <desc>Created with Sketch.</desc>
    <defs></defs>
    <g id="Page-1" stroke="none" stroke-width="1" fill="none" fill-rule="evenodd">
        <g id="Benchpress" fill-rule="nonzero">
            <path d="M32.4,126.7 C30.9,126.7 29.7,125.5 29.7,124 L29.7,94.6 C29.7,93.1 30.9,91.9 32.4,91.9 C33.9,91.9 35.1,93.1 35.1,94.6 L35.1,124 C35,125.5 33.9,126.7 32.4,126.7 Z" id="Shape" fill="#D5E6FD"></path>
            <path d="M118.5,126.7 C117,126.7 115.8,125.5 115.8,124 L115.8,94.6 C115.8,93.1 117,91.9 118.5,91.9 C120,91.9 121.2,93.1 121.2,94.6 L121.2,124 C121.2,125.5 120,126.7 118.5,126.7 Z" id="Shape" fill="#D5E6FD"></path>
            <path d="M48,113.4 C46.5,113.4 45.3,112.2 45.3,110.7 L45.3,30.3 C45.3,28.8 46.5,27.6 48,27.6 C49.5,27.6 50.7,28.8 50.7,30.3 L50.7,110.7 C50.7,112.2 49.5,113.4 48,113.4 Z" id="Shape" fill="#C5DCFA"></path>
            <path d="M98.5,67.2 L98.5,30.4 C98.5,28.9 99.7,27.7 101.2,27.7 C102.7,27.7 103.9,28.9 103.9,30.4 L103.9,110.8 C103.9,112.3 102.7,113.5 101.2,113.5 C99.7,113.5 98.5,112.3 98.5,110.8 L98.5,79.2" id="Shape" fill="#C5DCFA"></path>
            <path d="M77.1,25.8 L144.8,25.8 C146.3,25.8 147.4,27 147.4,28.5 C147.4,30 146.2,31.2 144.8,31.2 L3.4,31.2 C1.9,31.2 0.8,30 0.8,28.5 C0.8,27 2,25.8 3.4,25.8 L47.6,25.8" id="Shape" fill="#C5DCFA"></path>
            <path d="M136.1,96.4 L17.1,96.4 C15.6,96.4 14.4,95.2 14.4,93.7 C14.4,92.2 15.6,91 17.1,91 L136.2,91 C137.7,91 138.9,92.2 138.9,93.7 C138.8,95.2 137.6,96.4 136.1,96.4 Z" id="Shape" fill="#D5E6FD"></path>
            <path d="M29.5,6 L29.5,49 C29.5,51.8 27.5,54.2 24.8,54.8 C24.4,54.9 24,54.9 23.5,54.9 C20.2,54.9 17.6,52.3 17.6,49 L17.6,6 C17.6,2.7 20.3,0.1 23.5,0.1 C25.1,0.1 26.6,0.8 27.7,1.8 C28.9,2.9 29.5,4.3 29.5,6 Z" id="Shape" fill="#3973F4"></path>
            <path d="M130.1,6 L130.1,49 C130.1,52.3 127.5,54.9 124.2,54.9 C120.9,54.9 118.3,52.3 118.3,49 L118.3,6 C118.3,2.7 120.9,0.1 124.2,0.1 C125.8,0.1 127.3,0.8 128.4,1.8 C129.5,2.9 130.1,4.3 130.1,6 Z" id="Shape" fill="#3973F4"></path>
            <path d="M141.9,17.3 L141.9,37.7 C141.9,41 139.3,43.6 136,43.6 C134.4,43.6 132.9,42.9 131.8,41.9 C130.9,41 130.3,39.9 130.1,38.6 C130,38.3 130,38 130,37.7 L130,17.3 C130,17 130,16.7 130.1,16.4 C130.5,13.5 133,11.3 135.9,11.3 C137.5,11.3 139,12 140.1,13 C141.2,14.2 141.9,15.7 141.9,17.3 Z" id="Shape" fill="#3973F4"></path>
            <path d="M130.1,6 L130.1,44 C130.1,47.3 127.5,49.9 124.2,49.9 C120.9,49.9 118.3,47.2 118.3,44 L118.3,6 C118.3,2.7 120.9,0.1 124.2,0.1 C125.8,0.1 127.3,0.8 128.4,1.8 C129.5,2.9 130.1,4.3 130.1,6 Z" id="Shape" fill="#4988FD"></path>
            <path d="M141.9,17.3 L141.9,32.6 C141.9,35.9 139.3,38.5 136,38.5 C134.4,38.5 132.9,37.8 131.8,36.8 C130.9,35.9 130.3,34.8 130.1,33.5 C130,33.2 130,32.9 130,32.6 L130,12.2 C130,11.9 130,11.6 130.1,11.3 L130.1,16.3 C130.5,13.4 133,11.2 135.9,11.2 C137.5,11.2 139,11.9 140.1,12.9 C141.2,14.2 141.9,15.7 141.9,17.3 Z" id="Shape" fill="#4988FD"></path>
            <path d="M17.7,17.3 L17.7,37.7 C17.7,41 15,43.6 11.7,43.6 C11.1,43.6 10.6,43.5 10.1,43.4 C7.6,42.7 5.7,40.4 5.7,37.7 L5.7,17.3 C5.7,14 8.4,11.4 11.7,11.4 C13.4,11.4 14.9,12.1 16,13.1 C17,14.2 17.7,15.7 17.7,17.3 Z" id="Shape" fill="#3973F4"></path>
            <path d="M29.5,6 L29.5,42.1 C29.5,44.9 27.5,47.3 24.8,47.9 C24.4,48 24,48 23.5,48 C20.2,48 17.6,45.4 17.6,42.1 L17.6,6 C17.6,2.7 20.3,0.1 23.5,0.1 C25.1,0.1 26.6,0.8 27.7,1.8 C28.9,2.9 29.5,4.3 29.5,6 Z" id="Shape" fill="#4988FD"></path>
            <path d="M17.7,17.3 L17.7,30.7 C17.7,34 15,36.6 11.7,36.6 C11.1,36.6 10.6,36.5 10.1,36.4 C7.6,35.7 5.7,33.4 5.7,30.7 L5.7,17.3 C5.7,14 8.4,11.4 11.7,11.4 C13.4,11.4 14.9,12.1 16,13.1 C17,14.2 17.7,15.7 17.7,17.3 Z" id="Shape" fill="#4988FD"></path>
        </g>
    </g>
</svg>