<?xml version="1.0" encoding="UTF-8"?>
<svg width="150px" height="95px" viewBox="0 0 150 95" version="1.1" xmlns="http://www.w3.org/2000/svg" xmlns:xlink="http://www.w3.org/1999/xlink">
    <!-- Generator: Sketch 51.2 (57519) - http://www.bohemiancoding.com/sketch -->
    <title>Bike</title>
    <desc>Created with Sketch.</desc>
    <defs></defs>
    <g id="Page-1" stroke="none" stroke-width="1" fill="none" fill-rule="evenodd">
        <g id="Bike" fill-rule="nonzero">
            <path d="M119.4,68.7 L80.8,68.7 C80,68.7 79.2,68.4 78.7,67.8 L40.9,27.6 C39.8,26.4 39.9,24.6 41,23.5 C42.2,22.4 44,22.5 45.1,23.6 L82.1,62.9 L114.8,62.9 L95,21.4 L45,21.4 C43.4,21.4 42.1,20.1 42.1,18.5 C42.1,16.9 43.4,15.6 45,15.6 L96.7,15.6 C97.8,15.6 98.8,16.2 99.3,17.3 L121.9,64.7 C122.3,65.6 122.3,66.7 121.7,67.5 C121.3,68.2 120.4,68.7 119.4,68.7 Z" id="Shape" fill="#C5DCFA"></path>
            <path d="M28.6,69.2 C28.1,69.2 27.5,69.1 27,68.7 C25.6,67.8 25.2,66 26.1,64.7 L28,61.6 C28.6,60.7 29,59.7 29.4,58.6 L43.9,12 L29.9,12 C27.4,12 25.4,14 25.4,16.5 C25.4,19 27.4,21 29.9,21 L32.3,21 C33.9,21 35.2,22.3 35.2,23.9 C35.2,25.5 33.9,26.8 32.3,26.8 L29.9,26.8 C24.2,26.8 19.5,22.2 19.5,16.4 C19.5,10.6 24.1,6 29.9,6 L47.9,6 C48.8,6 49.7,6.4 50.2,7.2 C50.7,7.9 50.9,8.9 50.6,9.8 L35,60.2 C34.5,61.7 33.8,63.2 33,64.6 L31.1,67.7 C30.5,68.7 29.6,69.2 28.6,69.2 Z" id="Shape" fill="#C5DCFA"></path>
            <path d="M74.7,83.6 C74.3,83.6 74,83.5 73.6,83.4 C72.1,82.8 71.4,81.1 72,79.6 L78.1,64.8 L99.3,3.2 C99.8,1.7 101.5,0.9 103,1.4 C104.5,1.9 105.3,3.6 104.8,5.1 L83.6,66.8 C83.6,66.9 83.6,66.9 83.5,67 L77.4,81.8 C76.9,82.9 75.8,83.6 74.7,83.6 Z" id="Shape" fill="#C5DCFA"></path>
            <path d="M29.4,94.5 C13.6,94.5 0.7,81.6 0.7,65.8 C0.7,50 13.6,37.1 29.4,37.1 C45.2,37.1 58.1,50 58.1,65.8 C58.1,81.6 45.2,94.5 29.4,94.5 Z M29.4,42 C16.3,42 5.6,52.7 5.6,65.8 C5.6,78.9 16.3,89.6 29.4,89.6 C42.5,89.6 53.2,78.9 53.2,65.8 C53.2,52.7 42.5,42 29.4,42 Z" id="Shape" fill="#4988FD"></path>
            <path d="M120.6,94.5 C104.8,94.5 91.9,81.6 91.9,65.8 C91.9,50 104.8,37.1 120.6,37.1 C136.4,37.1 149.3,50 149.3,65.8 C149.3,81.6 136.4,94.5 120.6,94.5 Z M120.6,42 C107.5,42 96.8,52.7 96.8,65.8 C96.8,78.9 107.5,89.6 120.6,89.6 C133.7,89.6 144.4,78.9 144.4,65.8 C144.5,52.7 133.8,42 120.6,42 Z" id="Shape" fill="#4988FD"></path>
            <path d="M81,73.7 C76.8,73.7 73.4,70.3 73.4,66.1 C73.4,61.9 76.8,58.5 81,58.5 C85.2,58.5 88.6,61.9 88.6,66.1 C88.5,70.3 85.1,73.7 81,73.7 Z M81,63.4 C79.5,63.4 78.3,64.6 78.3,66.1 C78.3,67.6 79.5,68.8 81,68.8 C82.5,68.8 83.7,67.6 83.7,66.1 C83.7,64.6 82.5,63.4 81,63.4 Z" id="Shape" fill="#4988FD"></path>
            <path d="M109.4,5.5 L93.8,5.5 C92.5,5.5 91.4,4.4 91.4,3.1 C91.4,1.8 92.5,0.7 93.8,0.7 L109.4,0.7 C110.7,0.7 111.8,1.8 111.8,3.1 C111.9,4.4 110.8,5.5 109.4,5.5 Z" id="Shape" fill="#4988FD"></path>
            <path d="M79.2,83.9 L70.4,83.9 C69.2,83.9 68.2,82.9 68.2,81.7 C68.2,80.5 69.2,79.5 70.4,79.5 L79.2,79.5 C80.4,79.5 81.4,80.5 81.4,81.7 C81.4,82.9 80.4,83.9 79.2,83.9 Z" id="Shape" fill="#C5DCFA"></path>
        </g>
    </g>
</svg>