<?xml version="1.0" encoding="UTF-8"?>
<svg width="106px" height="144px" viewBox="0 0 106 144" version="1.1" xmlns="http://www.w3.org/2000/svg" xmlns:xlink="http://www.w3.org/1999/xlink">
    <!-- Generator: Sketch 51.2 (57519) - http://www.bohemiancoding.com/sketch -->
    <title>Blender</title>
    <desc>Created with Sketch.</desc>
    <defs></defs>
    <g id="Page-1" stroke="none" stroke-width="1" fill="none" fill-rule="evenodd">
        <g id="Blender" fill-rule="nonzero">
            <path d="M81.7,82.6 C81.2,82.6 80.8,82.6 80.3,82.6 C78.3,82.5 76.8,80.7 77,78.7 C77.1,76.7 78.9,75.2 80.9,75.4 C87.2,75.9 93,71.5 94.4,65.3 L98.6,46.4 C98.8,45.4 98.4,44.7 98.1,44.3 C97.8,44 97.2,43.4 96.2,43.4 L87.6,43.4 C85.6,43.4 84,41.8 84,39.8 C84,37.8 85.6,36.2 87.6,36.2 L96.2,36.2 C99.2,36.2 101.9,37.5 103.8,39.8 C105.7,42.1 106.3,45.1 105.7,48 L101.5,66.9 C99.3,76.1 91,82.6 81.7,82.6 Z" id="Shape" fill="#3973F4"></path>
            <g id="Group">
                <path d="M22.3,19.8 C20.4,19.8 18.8,18.2 18.8,16.3 C18.8,7.7 25.8,0.8 34.3,0.8 L55.6,0.8 C64.2,0.8 71.1,7.8 71.1,16.3 C71.1,18.2 69.5,19.8 67.6,19.8" id="Shape" fill="#3973F4"></path>
                <path d="M79.5,16.5 L10.2,16.5 C4,16.5 -0.7,22 0.3,28.2 L12.2,100.8 L77.6,100.8 L89.5,28.2 C90.4,22.1 85.7,16.5 79.5,16.5 Z" id="Shape" fill="#D5E6FD"></path>
                <path d="M79.5,143.8 L9.4,143.8 C3.9,143.8 -0.1,138.6 1.2,133.3 C1.2,133.1 1.3,132.9 1.3,132.8 L11.6,100.4 L77.3,100.4 L87.6,132.8 C89.3,138.3 85.2,143.8 79.5,143.8 Z" id="Shape" fill="#2C6AF4"></path>
                <path d="M76.5,135.1 L6.4,135.1 C4.4,135.1 2.7,134.4 1.3,133.4 C1.3,133.2 1.4,133 1.4,132.9 L11.7,100.5 L77.1,100.5 L84.6,124.2 C86.2,129.6 82.2,135.1 76.5,135.1 Z" id="Shape" fill="#3973F4"></path>
                <circle id="Oval" fill="#FFFFFF" cx="44.7" cy="123.7" r="8.5"></circle>
                <path d="M32.4,34.9 L55.1,34.9" id="Shape" fill="#FFFFFF"></path>
                <path d="M32.4,50.2 L55.1,50.2" id="Shape" fill="#FFFFFF"></path>
                <path d="M32.4,65.5 L55.1,65.5" id="Shape" fill="#FFFFFF"></path>
                <path d="M32.4,80.8 L55.1,80.8" id="Shape" fill="#FFFFFF"></path>
            </g>
            <g id="Group" transform="translate(32.000000, 34.000000)">
                <circle id="Oval" fill="#FFFFFF" cx="12.7" cy="89.7" r="8.5"></circle>
                <path d="M0.4,0.9 L23.1,0.9" id="Shape" fill="#DDECFE"></path>
                <path d="M0.4,16.2 L23.1,16.2" id="Shape" fill="#DDECFE"></path>
                <path d="M0.4,31.5 L23.1,31.5" id="Shape" fill="#DDECFE"></path>
                <path d="M0.4,46.8 L23.1,46.8" id="Shape" fill="#DDECFE"></path>
            </g>
            <g id="Group" transform="translate(30.000000, 33.000000)" fill="#ACCFFD">
                <path d="M25.1,3.4 L2.4,3.4 C1.6,3.4 0.9,2.7 0.9,1.9 C0.9,1.1 1.6,0.4 2.4,0.4 L25.1,0.4 C25.9,0.4 26.6,1.1 26.6,1.9 C26.6,2.7 25.9,3.4 25.1,3.4 Z" id="Shape"></path>
                <path d="M25.1,18.7 L2.4,18.7 C1.6,18.7 0.9,18 0.9,17.2 C0.9,16.4 1.6,15.7 2.4,15.7 L25.1,15.7 C25.9,15.7 26.6,16.4 26.6,17.2 C26.6,18 25.9,18.7 25.1,18.7 Z" id="Shape"></path>
                <path d="M25.1,34 L2.4,34 C1.6,34 0.9,33.3 0.9,32.5 C0.9,31.7 1.6,31 2.4,31 L25.1,31 C25.9,31 26.6,31.7 26.6,32.5 C26.6,33.3 25.9,34 25.1,34 Z" id="Shape"></path>
                <path d="M25.1,49.3 L2.4,49.3 C1.6,49.3 0.9,48.6 0.9,47.8 C0.9,47 1.6,46.3 2.4,46.3 L25.1,46.3 C25.9,46.3 26.6,47 26.6,47.8 C26.6,48.6 25.9,49.3 25.1,49.3 Z" id="Shape"></path>
            </g>
        </g>
    </g>
</svg>