<?xml version="1.0" encoding="UTF-8"?>
<svg width="133px" height="134px" viewBox="0 0 133 134" version="1.1" xmlns="http://www.w3.org/2000/svg" xmlns:xlink="http://www.w3.org/1999/xlink">
    <!-- Generator: Sketch 51.2 (57519) - http://www.bohemiancoding.com/sketch -->
    <title>Bluetooth</title>
    <desc>Created with Sketch.</desc>
    <defs></defs>
    <g id="Page-1" stroke="none" stroke-width="1" fill="none" fill-rule="evenodd">
        <g id="Bluetooth" fill-rule="nonzero">
            <circle id="Oval" fill="#C5DCFA" cx="66.3" cy="66.9" r="66.2"></circle>
            <path d="M66.6,109 C66,109 65.4,108.9 64.9,108.7 C63.2,108 62.1,106.4 62.1,104.5 L62.1,78.8 L50.9,90 C50.1,90.8 48.9,91.3 47.7,91.3 C46.5,91.3 45.4,90.8 44.5,90 C43.7,89.2 43.2,88 43.2,86.8 C43.2,85.6 43.7,84.5 44.5,83.6 L59.9,68.2 L44.3,52.6 C43.5,51.8 43,50.6 43,49.4 C43,48.2 43.5,47.1 44.3,46.2 C45.1,45.4 46.3,44.9 47.5,44.9 C48.7,44.9 49.8,45.4 50.7,46.2 L62.2,57.7 L62.2,31.2 C62.2,29.4 63.3,27.7 65,27 C65.5,26.8 66.1,26.7 66.7,26.7 C67.9,26.7 69,27.2 69.9,28 L88.3,46.4 C89.1,47.2 89.6,48.4 89.6,49.6 C89.6,50.8 89.1,51.9 88.3,52.8 L72.8,68.3 L87.9,83.4 C88.7,84.2 89.2,85.4 89.2,86.6 C89.2,87.8 88.7,88.9 87.9,89.8 L69.9,107.8 C69,108.5 67.8,109 66.6,109 Z M71.1,93.6 L78.2,86.5 L71.1,79.4 L71.1,93.6 Z M71.1,57.1 L78.6,49.6 L71.1,42.1 L71.1,57.1 Z" id="Shape" fill="#4988FD"></path>
        </g>
    </g>
</svg>