<?xml version="1.0" encoding="UTF-8"?>
<svg width="59px" height="146px" viewBox="0 0 59 146" version="1.1" xmlns="http://www.w3.org/2000/svg" xmlns:xlink="http://www.w3.org/1999/xlink">
    <!-- Generator: Sketch 51.2 (57519) - http://www.bohemiancoding.com/sketch -->
    <title>Bottle_1</title>
    <desc>Created with Sketch.</desc>
    <defs></defs>
    <g id="Page-1" stroke="none" stroke-width="1" fill="none" fill-rule="evenodd">
        <g id="Bottle_1" fill-rule="nonzero">
            <rect id="Rectangle-path" fill="#3973F4" x="17.8" y="12.8" width="23.5" height="18.6"></rect>
            <path d="M58.8,91.3 C58.8,92.1 58.8,92.8 58.8,93.6 L58.8,93.8 C58.8,96.5 58.8,99.2 58.8,101.9 L58.8,102.5 C58.8,110 58.8,117.5 58.8,124.9 C58.8,127.2 58.8,129.5 58.8,131.9 L58.8,136.7 C58.8,143.1 56.5,145.4 50.1,145.4 C43.9,145.4 37.6,145.4 31.4,145.4 C26.3,145.4 21.2,145.4 16.1,145.4 C13.8,145.4 11.4,145.4 9.1,145.4 C2.7,145.4 0.4,143.1 0.4,136.7 C0.4,128.9 0.4,121.2 0.4,113.4 C0.4,105.5 0.4,97.7 0.4,89.8 C0.4,87.2 1.1,85.1 2.8,83.1 C6.4,79.1 6.4,76 3.1,71.9 C0.2,68.3 0.3,65 3.4,61.5 C6.6,57.9 6.7,56.4 3.3,53.2 C0.5,50.6 0.1,47.8 0.9,44.3 C6.1,21.9 32,13.3 49.3,28.5 C54.8,33.4 57.8,39.8 58.7,47 C58.9,48.5 57.9,50.3 57.1,51.8 C57.1,51.9 57,51.9 57,52 C56.4,52.9 55.5,53.6 54.8,54.4 C53.2,56.3 53.2,58.4 54.8,60.3 C54.8,60.3 54.8,60.3 54.9,60.4 C58.1,64 59.1,66.1 58,68.9 C57.5,70.1 56.6,71.5 55.3,73.1 C53.6,75.2 53.3,77.8 54.6,80.4 C55,81.1 55.5,81.9 56.1,82.6 C58.3,85.1 58.8,88 58.8,91.3 Z" id="Shape" fill="#4988FD"></path>
            <path d="M57,42.3 C56.9,42.2 57.1,42.1 57.2,42.1 C57.1,42.2 57.1,42.2 57,42.3 Z" id="Shape" fill="#4988FD"></path>
            <path d="M57.7,51.2 C57.9,51.5 58.1,51.7 58.3,52 C58.1,51.8 57.5,51.5 57.7,51.2 Z" id="Shape" fill="#4988FD"></path>
            <path d="M58.8,94.2 C58.8,99.8 58.8,105.3 58.8,110.9 C58.8,115.6 58.8,120.2 58.8,124.9 C58.8,127.2 58.8,129.5 58.8,131.9 L58.8,137.2 C58.8,143.2 56.5,145.4 50.1,145.5 C42.4,145.5 34.6,145.5 26.9,145.5 C20.9,145.5 15,145.5 9,145.5 C2.6,145.5 0.3,143.3 0.3,137.2 C0.3,127.1 0.3,104.5 0.3,103.1 C0.4,108.7 4.2,114.8 9,110.8 C23.5,98.5 33.6,121.1 50.1,110.8 C55.5,107.4 58.8,108.6 58.8,102.6 L58.8,93 C58.8,93.2 58.8,93.4 58.8,93.7 L58.8,93.9 C58.8,93.9 58.8,94.1 58.8,94.2 Z" id="Shape" fill="#3973F4"></path>
            <path d="M10,99.6 C10,100.7 10,101.8 10,103 C10,102.8 10,102.7 10,102.5 L10,99.6 Z" id="Shape" fill="#4988FD"></path>
            <path d="M44,9.4 L44,15.3 C44,16.2 43.3,16.9 42.4,16.9 L16.7,16.9 C15.8,16.9 15.1,16.2 15.1,15.3 L15.1,9.4 C15.1,4.6 19,0.7 23.8,0.7 L35.3,0.7 C40.1,0.7 44,4.6 44,9.4 Z" id="Shape" fill="#D5E6FD"></path>
        </g>
    </g>
</svg>