<?xml version="1.0" encoding="UTF-8"?>
<svg width="129px" height="132px" viewBox="0 0 129 132" version="1.1" xmlns="http://www.w3.org/2000/svg" xmlns:xlink="http://www.w3.org/1999/xlink">
    <!-- Generator: Sketch 51.2 (57519) - http://www.bohemiancoding.com/sketch -->
    <title>Bottle_2_1_</title>
    <desc>Created with Sketch.</desc>
    <defs></defs>
    <g id="Page-1" stroke="none" stroke-width="1" fill="none" fill-rule="evenodd">
        <g id="Bottle_2_1_" fill-rule="nonzero">
            <path d="M107,45.3 L100.3,39.3 L104.5,34.6 L111.2,40.6 C114,43.1 118.2,42.8 120.7,40 C123.2,37.2 122.9,33 120.1,30.5 L113.4,24.5 L117.6,19.8 L124.3,25.8 C129.7,30.6 130.1,38.8 125.4,44.2 C120.6,49.6 112.4,50.1 107,45.3 Z" id="Shape" fill="#3973F4"></path>
            <path d="M107,45.3 L98,37.4 L102.2,32.7 L111.2,40.6 C114,43.1 118.2,42.8 120.7,40 C123.2,37.2 122.9,33 120.1,30.5 L113.4,24.5 L117.6,19.8 L124.3,25.8 C129.7,30.6 130.1,38.8 125.4,44.2 C120.6,49.6 112.4,50.1 107,45.3 Z" id="Shape" fill="#3973F4"></path>
            <polyline id="Shape" fill="#3973F4" points="97.1 13.5 110.5 25.4 96.9 40.7 83.5 28.7 86.7 25.1"></polyline>
            <path d="M114.7,0.1 C117.1,2.3 119.3,4.2 121.6,6.3 C118.8,9.5 116,12.6 113.1,15.9 C115.2,17.7 117,19.4 119,21.1 C116.8,23.5 114.8,25.8 112.7,28.2 C106.5,22.7 100.3,17.2 94,11.6 C96.1,9.3 98,7.1 100.2,4.6 C102.1,6.3 104,8 106,9.8 C109,6.4 111.8,3.4 114.7,0.1 Z" id="Shape" fill="#4988FD"></path>
            <path d="M114.7,0.1 C117.1,2.3 119.3,4.2 121.6,6.3 C118.8,9.5 116,12.6 113.1,15.9 C115.2,17.7 117,19.4 119,21.1 C116.8,23.5 114.8,25.8 112.7,28.2 C106.5,22.7 100.3,17.2 94,11.6 C96.1,9.3 98,7.1 100.2,4.6 C102.1,6.3 104,8 106,9.8 C109,6.4 111.8,3.4 114.7,0.1 Z" id="Shape" fill="#3973F4"></path>
            <path d="M103.9,58.6 C101,62 98,65.4 95,68.6 C95,68.6 95,68.6 95,68.6 C94.7,68.9 94.4,69.2 94.1,69.5 C93.5,70.2 92.1,70.6 91.2,70.4 C89.8,69.9 88.4,69.8 87.1,70 C81.2,70.7 77.1,76.9 79.4,83.4 C79.7,84.2 79.3,85.6 78.7,86.3 C78.7,86.3 78.6,86.4 78.6,86.4 C78.6,86.4 78.6,86.4 78.6,86.5 C78.5,86.6 78.5,86.6 78.4,86.7 C78.4,86.7 78.4,86.7 78.3,86.8 C78.1,87.1 77.8,87.3 77.6,87.6 C77,88.3 76.4,89 75.8,89.7 C66,100.8 56.1,111.9 46.2,123 C45.1,124.2 44,125.4 42.9,126.6 C38.3,131.7 30.9,132.8 25.6,128.5 C22.3,125.8 19.1,123.1 15.9,120.2 C11.8,116.6 7.8,112.9 3.9,109.1 C-1,104.3 -0.7,96.8 3.8,91.7 C6.4,88.7 9.1,85.8 11.7,82.8 C12,82.4 12.4,82 12.7,81.6 C21.5,71.7 30.4,61.7 39.2,51.8 C40.1,50.8 41,50.5 42.3,50.8 C50.6,52.3 56.3,45.9 54,37.7 C53.6,36.2 53.9,35.3 54.8,34.3 C58.1,30.8 61.2,27.2 64.4,23.6 C69.4,18 77.2,17.4 83.1,22.3 C86.5,25.1 89.7,28.1 93,31.1 C93,31.1 93,31.1 93,31.1 C96.1,33.9 99.2,36.6 102.3,39.4 C108.6,44.7 109.2,52.3 103.9,58.6 Z" id="Shape" fill="#D5E6FD"></path>
            <path d="M78.4,86.6 C78.4,86.6 78.4,86.6 78.4,86.6 C78.1,86.9 77.9,87.2 77.6,87.5 C77,88.2 76.4,88.9 75.8,89.6 C66,100.7 56.1,111.8 46.2,122.9 C45.1,124.1 44,125.3 42.9,126.5 C38.3,131.6 30.9,132.7 25.6,128.4 C22.3,125.7 19.1,123 15.9,120.1 C11.8,116.5 7.8,112.8 3.9,109 C-1,104.2 -0.7,96.7 3.8,91.6 C6.4,88.6 9.1,85.7 11.7,82.7 C16.2,82.7 21.3,83.6 26.8,86.5 C43,95.1 41.7,78.1 64.6,87.1 C71.2,89.6 75.2,84.7 78.4,86.6 Z" id="Shape" fill="#ACCFFD"></path>
        </g>
    </g>
</svg>