<?xml version="1.0" encoding="UTF-8"?>
<svg width="139px" height="114px" viewBox="0 0 139 114" version="1.1" xmlns="http://www.w3.org/2000/svg" xmlns:xlink="http://www.w3.org/1999/xlink">
    <!-- Generator: Sketch 51.2 (57519) - http://www.bohemiancoding.com/sketch -->
    <title>Briefcase</title>
    <desc>Created with Sketch.</desc>
    <defs></defs>
    <g id="Page-1" stroke="none" stroke-width="1" fill="none" fill-rule="evenodd">
        <g id="Briefcase" fill-rule="nonzero">
            <path d="M93.2,19.6 L93.2,27 C93.2,31.9 89.7,35.9 85.4,35.9 L53.3,35.9 C49,35.9 45.5,31.9 45.5,27 L45.5,8.9 C45.5,4 49,0 53.3,0 L85.4,0 C89.7,0 93.2,4 93.2,8.9 L93.2,11.1 M51.8,19.2 L51.8,27 C51.8,27.9 52.5,28.7 53.3,28.7 L85.4,28.7 C86.2,28.7 86.9,27.9 86.9,27 L86.9,8.9 C86.9,8 86.2,7.2 85.4,7.2 L53.3,7.2 C52.5,7.2 51.8,8 51.8,8.9 L51.8,12.4" id="Shape" fill="#3973F4"></path>
            <path d="M138.6,26.7 L138.6,106.4 C138.6,110.6 135.2,113.9 131.1,113.9 L7.6,113.9 C3.4,113.9 0,110.5 0,106.4 L0,26.7 C0,22.5 3.4,19.2 7.6,19.2 L131.1,19.2 C135.2,19.2 138.6,22.6 138.6,26.7 Z" id="Shape" fill="#3973F4"></path>
            <path d="M138.6,26.7 L138.6,55.5 C134.8,58.5 129.8,60.2 125.1,61.5 C84.4,72.6 40.7,72.6 0,61.4 L0,26.8 C0,22.6 3.4,19.3 7.6,19.3 L131.1,19.3 C135.2,19.2 138.6,22.6 138.6,26.7 Z" id="Shape" fill="#6097FD"></path>
            <path d="M138.6,55 L138.6,61.3 C123.4,68.3 96.4,73 65.6,73 C39.3,73 15.8,69.6 0,64.2 L0,57.9 C15.8,63.3 39.3,66.7 65.6,66.7 C96.4,66.8 123.4,62.1 138.6,55 Z" id="Shape" fill="#2767F4"></path>
            <path d="M73.5,78.8 L65.2,78.8 C63.4,78.8 62,77.4 62,75.6 L62,63.4 C62,61.6 63.4,60.2 65.2,60.2 L73.5,60.2 C75.3,60.2 76.7,61.6 76.7,63.4 L76.7,75.6 C76.6,77.4 75.2,78.8 73.5,78.8 Z" id="Shape" fill="#FFFFFF"></path>
        </g>
    </g>
</svg>