<?xml version="1.0" encoding="UTF-8"?>
<svg width="149px" height="98px" viewBox="0 0 149 98" version="1.1" xmlns="http://www.w3.org/2000/svg" xmlns:xlink="http://www.w3.org/1999/xlink">
    <!-- Generator: Sketch 51.2 (57519) - http://www.bohemiancoding.com/sketch -->
    <title>Buy</title>
    <desc>Created with Sketch.</desc>
    <defs></defs>
    <g id="Page-1" stroke="none" stroke-width="1" fill="none" fill-rule="evenodd">
        <g id="Buy" fill-rule="nonzero">
            <path d="M118.3,62 L9.2,62.2 C4.5,62.2 0.7,58.4 0.6,53.7 L0.5,9 C0.5,4.3 4.3,0.5 9,0.4 L118.1,0.2 C122.8,0.2 126.6,4 126.7,8.7 L126.8,53.4 C126.8,58.2 123,62 118.3,62 Z" id="Shape" fill="#4988FD"></path>
            <path d="M121.9,37.8 L144.7,60.6 C149.7,65.6 149.7,73.7 144.7,78.7 L129.6,93.8 C128.1,95.3 126.1,96.2 123.9,96.4 C117.4,97 103.2,98 99.6,97.3 C99.6,97.3 99.6,97.3 99.6,97.3 C98.6,97.1 97.6,96.6 96.8,95.9 L83.2,82.3 C87.3,78.2 93.9,78.2 98,82.3 L103.5,87.8 L104.8,86.5 L72.5,54.2 C70.5,52.2 70.5,48.8 72.5,46.8 C74.5,44.8 77.9,44.8 79.9,46.8 L95.6,62.5 L96.9,61.3 L91.6,56 C89.6,54 89.5,50.6 91.6,48.6 C93.6,46.6 97,46.6 99,48.6 L104.3,53.9 L105.7,52.5 L103.1,49.9 C101.2,48 101.2,44.9 103.1,43 C105,41.1 108.1,41.1 110,43 L112.7,45.7 L114.3,44.2 C112.9,42.3 113.1,39.6 114.8,37.9 C116.9,35.9 120,35.9 121.9,37.8 Z" id="Shape" fill="#C5DCFA"></path>
            <g id="Group" transform="translate(27.000000, 19.000000)" fill="#FFFFFF">
                <path d="M0.3,25.8 L0.3,0.9 L11.5,0.9 C16.8,0.9 20,4.1 20,7.5 C20,11.2 16.8,12.7 16.8,12.7 C16.8,12.7 21.2,14.1 21.2,18.6 C21.2,22.3 17.6,25.9 12.1,25.9 L0.3,25.9 L0.3,25.8 Z M7.1,6.2 L7.1,10.5 L10.8,10.5 C12.3,10.5 13.1,9.6 13.1,8.4 C13.1,7.2 12.2,6.3 10.8,6.3 L7.1,6.3 L7.1,6.2 Z M11.7,20.5 C13.3,20.5 14.4,19.4 14.4,18 C14.4,16.6 13.3,15.5 11.7,15.5 L7.1,15.5 L7.1,20.5 L11.7,20.5 Z" id="Shape"></path>
                <path d="M41.4,15.5 L41.4,0.9 L48.2,0.9 L48.2,15.5 C48.2,21.7 43.4,26.5 36.8,26.5 C30.2,26.5 25.4,21.7 25.4,15.5 L25.4,0.9 L32.2,0.9 L32.2,15.5 C32.2,18.3 34.3,20.5 36.8,20.5 C39.3,20.5 41.4,18.3 41.4,15.5 Z" id="Shape"></path>
                <polygon id="Shape" points="75.4 0.9 66.5 16.9 66.5 25.8 59.7 25.8 59.7 16.9 50.8 0.9 58.1 0.9 63.1 10.5 68.1 0.9"></polygon>
            </g>
        </g>
    </g>
</svg>