<?xml version="1.0" encoding="UTF-8"?>
<svg width="122px" height="147px" viewBox="0 0 122 147" version="1.1" xmlns="http://www.w3.org/2000/svg" xmlns:xlink="http://www.w3.org/1999/xlink">
    <!-- Generator: Sketch 51.2 (57519) - http://www.bohemiancoding.com/sketch -->
    <title>Calculator_2</title>
    <desc>Created with Sketch.</desc>
    <defs></defs>
    <g id="Page-1" stroke="none" stroke-width="1" fill="none" fill-rule="evenodd">
        <g id="Calculator_2" fill-rule="nonzero">
            <path d="M112.3,146.7 L9.6,146.7 C4.8,146.7 0.8,142.8 0.8,137.9 L0.8,9.6 C0.8,4.8 4.7,0.8 9.6,0.8 L112.3,0.8 C117.1,0.8 121.1,4.7 121.1,9.6 L121.1,138 C121.1,142.8 117.2,146.7 112.3,146.7 Z" id="Shape" fill="#4988FD"></path>
            <path d="M86.3,44.5 L13.1,44.5 C10.4,44.5 8.1,42.3 8.1,39.5 L8.1,15.6 C8.1,12.9 10.3,10.6 13.1,10.6 L108.9,10.6 C111.6,10.6 113.9,12.8 113.9,15.6 L113.9,39.5 C113.9,42.2 111.7,44.5 108.9,44.5 L96.7,44.5" id="Shape" fill="#2767F4"></path>
            <path d="M113.8,61.5 L113.8,129.8 C113.8,134.1 110.3,137.6 106,137.6 L15.9,137.6 C11.6,137.6 8.1,134.1 8.1,129.8 L8.1,61.5 C8.1,57.2 11.6,53.7 15.9,53.7 L106,53.7 C110.3,53.7 113.8,57.2 113.8,61.5 Z" id="Shape" fill="#DFECFD"></path>
            <polygon id="Shape" fill="#C5DCFA" points="113.8 94.1 113.8 97.3 62.6 97.3 62.6 137.7 59.4 137.7 59.4 97.3 8.1 97.3 8.1 94.1 59.4 94.1 59.4 53.7 62.6 53.7 62.6 94.1"></polygon>
            <g id="Group" transform="translate(24.000000, 65.000000)" fill="#2767F4">
                <path d="M10.7,20.3 C9.8,20.3 9.1,19.6 9.1,18.7 L9.1,2.3 C9.1,1.4 9.8,0.7 10.7,0.7 C11.6,0.7 12.3,1.4 12.3,2.3 L12.3,18.7 C12.3,19.6 11.6,20.3 10.7,20.3 Z" id="Shape"></path>
                <path d="M18.9,12.2 L2.5,12.2 C1.6,12.2 0.9,11.5 0.9,10.6 C0.9,9.7 1.6,9 2.5,9 L18.9,9 C19.8,9 20.5,9.7 20.5,10.6 C20.5,11.5 19.8,12.2 18.9,12.2 Z" id="Shape"></path>
            </g>
            <g id="Group" transform="translate(27.000000, 110.000000)" fill="#2767F4">
                <path d="M1.9,14.9 C1.5,14.9 1.1,14.7 0.8,14.4 C0.2,13.8 0.2,12.8 0.8,12.1 L12.4,0.5 C13,-0.1 14,-0.1 14.7,0.5 C15.3,1.1 15.3,2.1 14.7,2.8 L3.1,14.4 C2.7,14.7 2.3,14.9 1.9,14.9 Z" id="Shape"></path>
                <path d="M13.5,14.9 C13.1,14.9 12.7,14.7 12.4,14.4 L0.8,2.8 C0.2,2.2 0.2,1.2 0.8,0.5 C1.4,-0.1 2.4,-0.1 3.1,0.5 L14.7,12.1 C15.3,12.7 15.3,13.7 14.7,14.4 C14.3,14.7 13.9,14.9 13.5,14.9 Z" id="Shape"></path>
            </g>
            <path d="M96.2,77.2 L79.8,77.2 C78.9,77.2 78.2,76.5 78.2,75.6 C78.2,74.7 78.9,74 79.8,74 L96.2,74 C97.1,74 97.8,74.7 97.8,75.6 C97.8,76.5 97,77.2 96.2,77.2 Z" id="Shape" fill="#2767F4"></path>
            <path d="M96.2,114.8 L79.8,114.8 C78.9,114.8 78.2,114.1 78.2,113.2 C78.2,112.3 78.9,111.6 79.8,111.6 L96.2,111.6 C97.1,111.6 97.8,112.3 97.8,113.2 C97.8,114.1 97,114.8 96.2,114.8 Z" id="Shape" fill="#2767F4"></path>
            <path d="M96.2,123.1 L79.8,123.1 C78.9,123.1 78.2,122.4 78.2,121.5 C78.2,120.6 78.9,119.9 79.8,119.9 L96.2,119.9 C97.1,119.9 97.8,120.6 97.8,121.5 C97.8,122.4 97,123.1 96.2,123.1 Z" id="Shape" fill="#2767F4"></path>
            <path d="M89.3,39.7 L88.1,39.7 C86,39.7 84.3,38 84.3,35.9 C84.3,35.8 84.3,35.7 84.3,35.7 L85.2,29.9 C85.3,29 86.2,28.4 87,28.6 C87.9,28.7 88.5,29.6 88.3,30.4 L87.4,36 C87.4,36.3 87.7,36.5 88,36.5 L89.2,36.5 C90.1,36.5 90.8,37.2 90.8,38.1 C90.8,39 90.1,39.7 89.3,39.7 Z" id="Shape" fill="#DFECFD"></path>
            <path d="M96.2,39.7 L94.8,39.7 C93.9,39.7 93.2,39 93.2,38.1 C93.2,37.2 93.9,36.5 94.8,36.5 L96.2,36.5 C96.5,36.5 96.8,36.2 96.8,35.9 C96.8,35.8 96.8,35.7 96.8,35.7 L97.6,30.7 C97.7,29.8 98.6,29.2 99.4,29.4 C100.3,29.5 100.9,30.4 100.7,31.2 L99.9,36.1 C100,38.1 98.3,39.7 96.2,39.7 Z" id="Shape" fill="#DFECFD"></path>
            <path d="M100.1,26.9 C100,26.9 99.9,26.9 99.9,26.9 C99,26.8 98.4,25.9 98.6,25.1 L99.3,20.6 C99.3,20.3 99,20.1 98.7,20.1 L97.5,20.1 C96.6,20.1 95.9,19.4 95.9,18.5 C95.9,17.6 96.6,16.9 97.5,16.9 L98.7,16.9 C100.8,16.9 102.5,18.6 102.5,20.7 C102.5,20.8 102.5,20.9 102.5,20.9 L101.8,25.6 C101.5,26.4 100.9,26.9 100.1,26.9 Z" id="Shape" fill="#DFECFD"></path>
            <path d="M87.6,26.1 C87.5,26.1 87.4,26.1 87.4,26.1 C86.5,26 85.9,25.1 86.1,24.3 L86.7,20.5 C86.8,18.5 88.5,16.8 90.5,16.8 L91.8,16.8 C92.7,16.8 93.4,17.5 93.4,18.4 C93.4,19.3 92.7,20 91.8,20 L90.5,20 C90.2,20 89.9,20.3 89.9,20.6 C89.9,20.7 89.9,20.8 89.9,20.8 L89.3,24.7 C89.1,25.6 88.4,26.1 87.6,26.1 Z" id="Shape" fill="#DFECFD"></path>
        </g>
    </g>
</svg>