<?xml version="1.0" encoding="UTF-8"?>
<svg width="149px" height="149px" viewBox="0 0 149 149" version="1.1" xmlns="http://www.w3.org/2000/svg" xmlns:xlink="http://www.w3.org/1999/xlink">
    <!-- Generator: Sketch 51.2 (57519) - http://www.bohemiancoding.com/sketch -->
    <title>Calculator</title>
    <desc>Created with Sketch.</desc>
    <defs></defs>
    <g id="Page-1" stroke="none" stroke-width="1" fill="none" fill-rule="evenodd">
        <g id="Calculator">
            <path d="M148.1,19.9 L148.1,129.1 C148.1,139.8 139.4,148.5 128.7,148.5 L19.5,148.5 C8.8,148.5 0.1,139.8 0.1,129.1 L0.1,19.9 C0.1,9.2 8.8,0.5 19.5,0.5 L128.7,0.5 C139.4,0.5 148.1,9.2 148.1,19.9 Z" id="Shape"></path>
            <path d="M148.1,19.9 L148.1,129.1 C148.1,139.8 139.4,148.5 128.7,148.5 L19.5,148.5 C8.8,148.5 0.1,139.8 0.1,129.1 L0.1,19.9 C0.1,9.2 8.8,0.5 19.5,0.5 L128.7,0.5 C139.4,0.5 148.1,9.2 148.1,19.9 Z" id="Shape" fill="#4988FD" fill-rule="nonzero"></path>
            <path d="M27.2,116.2 L26.5,116.9 C24.7,118.7 24.7,121.7 26.5,123.5 C28.3,125.3 31.3,125.3 33.1,123.5 L39.7,116.9 L46.3,123.5 C48.1,125.3 51.1,125.3 52.9,123.5 C54.7,121.7 54.7,118.7 52.9,116.9 L46.3,110.3 L52.9,103.7 C54.7,101.9 54.7,98.9 52.9,97.1 C51.1,95.3 48.1,95.3 46.3,97.1 L39.7,103.7 L33.1,97.1 C31.3,95.3 28.3,95.3 26.5,97.1 C24.7,98.9 24.7,101.9 26.5,103.7 L33.1,110.3" id="Shape" fill="#FFFFFF" fill-rule="nonzero"></path>
            <polygon id="Shape" fill="#2767F4" fill-rule="nonzero" points="148.1 71.6 76.3 71.6 76.3 0.5 71.1 0.5 71.1 72 0 72 0 76.3 71.1 76.3 71.1 148.5 76.3 148.5 76.3 76.7 148.1 76.7"></polygon>
            <path d="M28.3,35.1 L27.5,35.1 C25.2,35.1 23.4,36.9 23.4,39.2 C23.4,41.5 25.2,43.3 27.5,43.3 L35.7,43.3 L35.7,51.5 C35.7,53.8 37.5,55.6 39.8,55.6 C42.1,55.6 43.9,53.8 43.9,51.5 L43.9,43.3 L52.1,43.3 C54.4,43.3 56.2,41.5 56.2,39.2 C56.2,36.9 54.4,35.1 52.1,35.1 L43.9,35.1 L43.9,26.9 C43.9,24.6 42.1,22.8 39.8,22.8 C37.5,22.8 35.7,24.6 35.7,26.9 L35.7,35.1" id="Shape" fill="#FFFFFF" fill-rule="nonzero"></path>
            <path d="M115.4,35.1 L108.8,35.1 L100.6,35.1 C98.3,35.1 96.5,36.9 96.5,39.2 C96.5,41.5 98.3,43.3 100.6,43.3 L108.8,43.3 L117,43.3 L125.2,43.3 C127.5,43.3 129.3,41.5 129.3,39.2 C129.3,36.9 127.5,35.1 125.2,35.1" id="Shape" fill="#FFFFFF" fill-rule="nonzero"></path>
            <g id="Group" transform="translate(95.000000, 98.000000)" fill="#FFFFFF" fill-rule="nonzero">
                <path d="M23.1,8.4 L29.3,8.4 C31.6,8.4 33.4,6.6 33.4,4.3 C33.4,2 31.6,0.2 29.3,0.2 L21.1,0.2 L12.9,0.2 L4.7,0.2 C2.4,0.2 0.6,2 0.6,4.3 C0.6,6.6 2.4,8.4 4.7,8.4 L12.9,8.4 L21.1,8.4 L23.1,8.4" id="Shape"></path>
                <path d="M29.2,15.9 L21,15.9 L12.8,15.9 L4.6,15.9 C2.3,15.9 0.5,17.7 0.5,20 C0.5,22.3 2.3,24.1 4.6,24.1 L12.8,24.1 L21,24.1 L29.2,24.1 C31.5,24.1 33.3,22.3 33.3,20 C33.4,17.7 31.5,15.9 29.2,15.9 Z" id="Shape"></path>
            </g>
        </g>
    </g>
</svg>