<?xml version="1.0" encoding="UTF-8"?>
<svg width="146px" height="99px" viewBox="0 0 146 99" version="1.1" xmlns="http://www.w3.org/2000/svg" xmlns:xlink="http://www.w3.org/1999/xlink">
    <!-- Generator: Sketch 51.2 (57519) - http://www.bohemiancoding.com/sketch -->
    <title>Calendar_2</title>
    <desc>Created with Sketch.</desc>
    <defs></defs>
    <g id="Page-1" stroke="none" stroke-width="1" fill="none" fill-rule="evenodd">
        <g id="Calendar_2" fill-rule="nonzero">
            <g id="Group">
                <g id="Shape">
                    <polygon fill="#FFFFFF" points="104 98.8 0.9 98.8 19.8 12.2 122.9 12.2"></polygon>
                    <polygon fill="#3973F4" points="104 98.8 0.9 98.8 19.8 12.2 122.9 12.2"></polygon>
                    <path d="M119.1,98.8 L23.2,98.8 C19.3,98.8 16.2,95.5 16.3,91.6 L19.8,12.2 L122.9,12.2 L119.1,98.8 Z" fill="#2767F4"></path>
                    <polygon fill="#DFECFD" points="145.6 98.8 42.5 98.8 25 32.2 24.9 31.9 19.8 12.2 122.9 12.2 127.4 29.2 128.1 31.9 128.2 32.2"></polygon>
                    <polygon fill="#C5DCFA" points="128.1 31.9 24.9 31.9 19.8 12.2 122.9 12.2 127.4 29.2"></polygon>
                    <path d="M54.5,12.6 C54.5,19.5 50.8,24.8 46.1,24.8 C45,24.8 44.1,23.9 44.1,22.8 C44.1,21.7 45,20.8 46.1,20.8 C48.2,20.8 50.5,17.4 50.5,12.6 C50.5,12.5 50.5,12.3 50.5,12.2 C50.4,7.6 48.1,4.4 46.1,4.4 C44.1,4.4 41.8,7.6 41.7,12.2 L37.7,12.2 C37.9,5.6 41.5,0.4 46.1,0.4 C50.7,0.4 54.4,5.6 54.5,12.2 C54.5,12.3 54.5,12.4 54.5,12.6 Z" fill="#3973F4"></path>
                    <path d="M114.4,12.6 C114.4,19.5 110.7,24.8 106,24.8 C104.9,24.8 104,23.9 104,22.8 C104,21.7 104.9,20.8 106,20.8 C108.1,20.8 110.4,17.4 110.4,12.6 C110.4,12.5 110.4,12.3 110.4,12.2 C110.3,7.6 108,4.4 106,4.4 C104,4.4 101.7,7.6 101.6,12.2 L97.6,12.2 C97.8,5.6 101.4,0.4 106,0.4 C110.6,0.4 114.3,5.6 114.4,12.2 C114.4,12.3 114.4,12.4 114.4,12.6 Z" fill="#3973F4"></path>
                </g>
                <g transform="translate(36.000000, 38.000000)" fill="#C5DCFA" id="Shape">
                    <path d="M23.2,53.2 C22.5,53.2 21.9,52.8 21.8,52.1 L7.7,2.1 C7.5,1.3 7.9,0.5 8.7,0.2 C9.5,-1.11022302e-15 10.3,0.4 10.6,1.2 L24.7,51.2 C24.9,52 24.5,52.8 23.7,53.1 C23.4,53.2 23.3,53.2 23.2,53.2 Z"></path>
                    <path d="M40,53.2 C39.3,53.2 38.7,52.8 38.6,52.1 L24.5,2.2 C24.3,1.4 24.7,0.6 25.5,0.3 C26.3,0.1 27.1,0.5 27.4,1.3 L41.5,51.2 C41.7,52 41.3,52.8 40.5,53.1 C40.3,53.2 40.2,53.2 40,53.2 Z"></path>
                    <path d="M56.9,53.1 C56.2,53.1 55.6,52.7 55.5,52 L41.4,2.1 C41.2,1.3 41.6,0.5 42.4,0.2 C43.2,9.08384479e-13 44,0.4 44.3,1.2 L58.4,51.1 C58.6,51.9 58.2,52.7 57.4,53 C57.2,53.1 57.1,53.1 56.9,53.1 Z"></path>
                    <path d="M73.8,53.1 C73.1,53.1 72.5,52.7 72.4,52 L70.3,44.7 C70.1,43.9 70.5,43.1 71.3,42.8 C72.1,42.6 72.9,43 73.2,43.8 L75.3,51.1 C75.5,51.9 75.1,52.7 74.3,53 C74.1,53.1 73.9,53.1 73.8,53.1 Z"></path>
                    <path d="M69.7,38.5 C69,38.5 68.4,38.1 68.3,37.4 L58.4,2.2 C58.2,1.4 58.6,0.6 59.4,0.3 C60.2,0.1 61,0.5 61.3,1.3 L71.2,36.5 C71.4,37.3 71,38.1 70.2,38.4 C69.9,38.5 69.8,38.5 69.7,38.5 Z"></path>
                    <path d="M90.7,53.2 C90,53.2 89.4,52.8 89.3,52.1 L75.2,2.1 C75,1.3 75.4,0.5 76.2,0.2 C77,-1.11022302e-15 77.8,0.4 78.1,1.2 L92.2,51.2 C92.4,52 92,52.8 91.2,53.1 C91,53.2 90.8,53.2 90.7,53.2 Z"></path>
                    <path d="M88,8.8 L53.4,8.8 C52.6,8.8 51.9,8.1 51.9,7.3 C51.9,6.5 52.6,5.8 53.4,5.8 L88,5.8 C88.8,5.8 89.5,6.5 89.5,7.3 C89.5,8.1 88.8,8.8 88,8.8 Z"></path>
                    <path d="M47.6,8.8 L40.5,8.8 C39.7,8.8 39,8.1 39,7.3 C39,6.5 39.7,5.8 40.5,5.8 L47.6,5.8 C48.4,5.8 49.1,6.5 49.1,7.3 C49.1,8.1 48.4,8.8 47.6,8.8 Z"></path>
                    <path d="M33.3,8.8 L27.6,8.8 C26.8,8.8 26.1,8.1 26.1,7.3 C26.1,6.5 26.8,5.8 27.6,5.8 L33.3,5.8 C34.1,5.8 34.8,6.5 34.8,7.3 C34.8,8.1 34.1,8.8 33.3,8.8 Z"></path>
                    <path d="M20.6,8.8 L1.9,8.8 C1.1,8.8 0.4,8.1 0.4,7.3 C0.4,6.5 1.1,5.8 1.9,5.8 L20.6,5.8 C21.4,5.8 22.1,6.5 22.1,7.3 C22.1,8.1 21.4,8.8 20.6,8.8 Z"></path>
                    <path d="M91.1,21.1 L81.7,21.1 C80.9,21.1 80.2,20.4 80.2,19.6 C80.2,18.8 80.9,18.1 81.7,18.1 L91.1,18.1 C91.9,18.1 92.6,18.8 92.6,19.6 C92.6,20.4 91.9,21.1 91.1,21.1 Z"></path>
                    <path d="M75.4,21.1 L71.9,21.1 C71.1,21.1 70.4,20.4 70.4,19.6 C70.4,18.8 71.1,18.1 71.9,18.1 L75.4,18.1 C76.2,18.1 76.9,18.8 76.9,19.6 C76.9,20.4 76.2,21.1 75.4,21.1 Z"></path>
                    <path d="M64.8,21.1 L47.9,21.1 C47.1,21.1 46.4,20.4 46.4,19.6 C46.4,18.8 47.1,18.1 47.9,18.1 L64.8,18.1 C65.6,18.1 66.3,18.8 66.3,19.6 C66.3,20.4 65.6,21.1 64.8,21.1 Z"></path>
                    <path d="M41.6,21.1 L5,21.1 C4.2,21.1 3.5,20.4 3.5,19.6 C3.5,18.8 4.2,18.1 5,18.1 L41.6,18.1 C42.4,18.1 43.1,18.8 43.1,19.6 C43.1,20.4 42.4,21.1 41.6,21.1 Z"></path>
                    <path d="M94.2,33.4 L63,33.4 C62.2,33.4 61.5,32.7 61.5,31.9 C61.5,31.1 62.2,30.4 63,30.4 L94.1,30.4 C94.9,30.4 95.6,31.1 95.6,31.9 C95.6,32.7 95,33.4 94.2,33.4 Z"></path>
                    <path d="M55.8,33.4 L29.3,33.4 C28.5,33.4 27.8,32.7 27.8,31.9 C27.8,31.1 28.5,30.4 29.3,30.4 L55.8,30.4 C56.6,30.4 57.3,31.1 57.3,31.9 C57.3,32.7 56.6,33.4 55.8,33.4 Z"></path>
                    <path d="M22.2,33.4 L8.1,33.4 C7.3,33.4 6.6,32.7 6.6,31.9 C6.6,31.1 7.3,30.4 8.1,30.4 L22.2,30.4 C23,30.4 23.7,31.1 23.7,31.9 C23.7,32.7 23,33.4 22.2,33.4 Z"></path>
                    <path d="M97.3,45.7 L11.2,45.7 C10.4,45.7 9.7,45 9.7,44.2 C9.7,43.4 10.4,42.7 11.2,42.7 L97.3,42.7 C98.1,42.7 98.8,43.4 98.8,44.2 C98.8,45 98.1,45.7 97.3,45.7 Z"></path>
                </g>
            </g>
        </g>
    </g>
</svg>