<?xml version="1.0" encoding="UTF-8"?>
<svg width="146px" height="126px" viewBox="0 0 146 126" version="1.1" xmlns="http://www.w3.org/2000/svg" xmlns:xlink="http://www.w3.org/1999/xlink">
    <!-- Generator: Sketch 51.2 (57519) - http://www.bohemiancoding.com/sketch -->
    <title>Calendar</title>
    <desc>Created with Sketch.</desc>
    <defs></defs>
    <g id="Page-1" stroke="none" stroke-width="1" fill="none" fill-rule="evenodd">
        <g id="Calendar" fill-rule="nonzero">
            <path d="M112.1,126 L6,126 C3.1,126 0.7,123.6 0.7,120.7 L0.7,36.8 C0.7,33.9 3.1,31.5 6,31.5 L112.1,31.5 C115,31.5 117.4,33.9 117.4,36.8 L117.4,120.7 C117.4,123.6 115,126 112.1,126 Z" id="Shape" fill="#FFFFFF"></path>
            <path d="M117.4,36.7 L117.4,120.6 C117.4,123.5 115,125.9 112.1,125.9 L6,125.9 C3.1,125.9 0.7,123.5 0.7,120.6 L0.7,36.7 C0.7,33.8 3.1,31.4 6,31.4 L112.1,31.4 C115,31.5 117.4,33.8 117.4,36.7 Z" id="Shape" fill="#4988FD"></path>
            <path d="M117.1,37 L117.1,66.9 C114.8,67.5 112.3,67.8 109.8,67.8 C96.3,67.8 84.9,59.3 80.5,47.3 C79.3,43.9 78.6,40.3 78.6,36.6 C78.6,34.9 78.7,33.3 79,31.7 L111.8,31.7 C114.8,31.7 117.1,34.1 117.1,37 Z" id="Shape" fill="#3973F4"></path>
            <path d="M117.4,36.7 L117.4,50.5 L0.7,50.5 L0.7,36.7 C0.7,33.8 3.1,31.4 6,31.4 L112.1,31.4 C115,31.5 117.4,33.8 117.4,36.7 Z" id="Shape" fill="#3973F4"></path>
            <path d="M117.4,36.7 L117.4,50.5 L81.9,50.5 C80.4,46.3 79.5,41.7 79.5,36.9 C79.5,35 79.6,33.2 79.9,31.5 L112.1,31.5 C115,31.5 117.4,33.8 117.4,36.7 Z" id="Shape" fill="#3265D6"></path>
            <path d="M16.8,67 L16.8,65.5 C16.8,64.8 17.4,64.1 18.2,64.1 L25.4,64.1 C26.1,64.1 26.8,64.7 26.8,65.5 L26.8,72.7 C26.8,73.4 26.2,74.1 25.4,74.1 L18.1,74.1 C17.4,74.1 16.8,73.5 16.8,72.8 L16.8,69.9" id="Shape" fill="#FFFFFF"></path>
            <path d="M44.4,74.1 L37.2,74.1 C36.5,74.1 35.8,73.5 35.8,72.7 L35.8,65.5 C35.8,64.8 36.4,64.1 37.2,64.1 L44.4,64.1 C45.1,64.1 45.8,64.7 45.8,65.5 L45.8,72.7 C45.7,73.5 45.1,74.1 44.4,74.1 Z" id="Shape" fill="#FFFFFF"></path>
            <path d="M63.4,74.1 L56.2,74.1 C55.5,74.1 54.8,73.5 54.8,72.7 L54.8,65.5 C54.8,64.8 55.4,64.1 56.2,64.1 L63.4,64.1 C64.1,64.1 64.8,64.7 64.8,65.5 L64.8,72.7 C64.7,73.5 64.1,74.1 63.4,74.1 Z" id="Shape" fill="#FFFFFF"></path>
            <path d="M82.4,74.1 L75.2,74.1 C74.5,74.1 73.8,73.5 73.8,72.7 L73.8,65.5 C73.8,64.8 74.4,64.1 75.2,64.1 L82.4,64.1 C83.1,64.1 83.8,64.7 83.8,65.5 L83.8,72.7 C83.7,73.5 83.1,74.1 82.4,74.1 Z" id="Shape" fill="#FFFFFF"></path>
            <path d="M101.4,74.1 L94.2,74.1 C93.5,74.1 92.8,73.5 92.8,72.7 L92.8,65.5 C92.8,64.8 93.4,64.1 94.2,64.1 L101.4,64.1 C102.1,64.1 102.8,64.7 102.8,65.5 L102.8,72.7 C102.7,73.5 102.1,74.1 101.4,74.1 Z" id="Shape" fill="#FFFFFF"></path>
            <path d="M25.4,93 L18.2,93 C17.5,93 16.8,92.4 16.8,91.6 L16.8,84.4 C16.8,83.7 17.4,83 18.2,83 L25.4,83 C26.1,83 26.8,83.6 26.8,84.4 L26.8,91.6 C26.7,92.4 26.1,93 25.4,93 Z" id="Shape" fill="#FFFFFF"></path>
            <path d="M44.4,93 L37.2,93 C36.5,93 35.8,92.4 35.8,91.6 L35.8,84.4 C35.8,83.7 36.4,83 37.2,83 L44.4,83 C45.1,83 45.8,83.6 45.8,84.4 L45.8,91.6 C45.7,92.4 45.1,93 44.4,93 Z" id="Shape" fill="#FFFFFF"></path>
            <path d="M64.7,89.8 L64.7,91.7 C64.7,92.4 64.1,93.1 63.3,93.1 L56.1,93.1 C55.4,93.1 54.7,92.5 54.7,91.7 L54.7,84.5 C54.7,83.8 55.3,83.1 56.1,83.1 L63.4,83.1 C64.1,83.1 64.7,83.7 64.7,84.4 L64.7,89.8 Z" id="Shape" fill="#FFFFFF"></path>
            <path d="M82.4,93 L75.2,93 C74.5,93 73.8,92.4 73.8,91.6 L73.8,84.4 C73.8,83.7 74.4,83 75.2,83 L82.4,83 C83.1,83 83.8,83.6 83.8,84.4 L83.8,91.6 C83.7,92.4 83.1,93 82.4,93 Z" id="Shape" fill="#FFFFFF"></path>
            <path d="M101.4,93 L94.2,93 C93.5,93 92.8,92.4 92.8,91.6 L92.8,84.4 C92.8,83.7 93.4,83 94.2,83 L101.4,83 C102.1,83 102.8,83.6 102.8,84.4 L102.8,91.6 C102.7,92.4 102.1,93 101.4,93 Z" id="Shape" fill="#FFFFFF"></path>
            <path d="M25.4,111.8 L18.2,111.8 C17.5,111.8 16.8,111.2 16.8,110.4 L16.8,103.2 C16.8,102.5 17.4,101.8 18.2,101.8 L25.4,101.8 C26.1,101.8 26.8,102.4 26.8,103.2 L26.8,110.4 C26.7,111.2 26.1,111.8 25.4,111.8 Z" id="Shape" fill="#FFFFFF"></path>
            <path d="M44.4,111.8 L37.2,111.8 C36.5,111.8 35.8,111.2 35.8,110.4 L35.8,103.2 C35.8,102.5 36.4,101.8 37.2,101.8 L44.4,101.8 C45.1,101.8 45.8,102.4 45.8,103.2 L45.8,110.4 C45.7,111.2 45.1,111.8 44.4,111.8 Z" id="Shape" fill="#FFFFFF"></path>
            <path d="M63.4,111.8 L56.2,111.8 C55.5,111.8 54.8,111.2 54.8,110.4 L54.8,103.2 C54.8,102.5 55.4,101.8 56.2,101.8 L63.4,101.8 C64.1,101.8 64.8,102.4 64.8,103.2 L64.8,110.4 C64.7,111.2 64.1,111.8 63.4,111.8 Z" id="Shape" fill="#FFFFFF"></path>
            <path d="M73.8,103.2 L73.8,110.5 C73.8,111.2 74.4,111.9 75.2,111.9 L82.4,111.9 C83.1,111.9 83.8,111.3 83.8,110.5 L83.8,103.2 C83.8,102.5 83.2,102 82.6,102 L75.2,102 C74.4,101.9 73.8,102.5 73.8,103.2 Z" id="Shape" fill="#FFFFFF"></path>
            <g id="Group" transform="translate(82.000000, 0.000000)">
                <path d="M15,5.7 C19.9,2.5 25.8,0.6 32.1,0.6 C49.3,0.6 63.3,14.6 63.3,31.8 C63.3,49 49.3,63 32.1,63 C14.9,63 0.9,49 0.9,31.8 C0.9,20.9 6.5,11.3 15,5.7" id="Shape" fill="#21D3AC"></path>
                <path d="M50.5,41.3 L36.8,33.5 C36.8,33.2 36.9,33 36.9,32.7 C36.9,31 36,29.4 34.7,28.5 L36.7,18.5 C37,17.1 36.1,15.8 34.7,15.6 C33.3,15.3 32,16.2 31.8,17.6 L29.7,28 C27.8,28.8 26.5,30.6 26.5,32.8 C26.5,35.7 28.8,38 31.7,38 C32.4,38 33.1,37.9 33.7,37.6 L48,45.8 C48.4,46 48.8,46.1 49.2,46.1 C50.1,46.1 50.9,45.6 51.4,44.8 C52.1,43.5 51.7,42 50.5,41.3 Z" id="Shape" fill="#FFFFFF"></path>
            </g>
        </g>
    </g>
</svg>