<?xml version="1.0" encoding="UTF-8"?>
<svg width="136px" height="122px" viewBox="0 0 136 122" version="1.1" xmlns="http://www.w3.org/2000/svg" xmlns:xlink="http://www.w3.org/1999/xlink">
    <!-- Generator: Sketch 51.2 (57519) - http://www.bohemiancoding.com/sketch -->
    <title>Calendar_3</title>
    <desc>Created with Sketch.</desc>
    <defs></defs>
    <g id="Page-1" stroke="none" stroke-width="1" fill="none" fill-rule="evenodd">
        <g id="Calendar_3" fill-rule="nonzero">
            <path d="M111.9,0.4 L77.7,0.4 L21.4,0.4 C13.1,1.1 6.5,8 6.5,16.5 L6.5,53.6 L128.1,53.6 L128.1,16.5 C128.1,7.6 120.9,0.4 111.9,0.4 Z M35.9,13.9 C34,13.9 32.5,12.4 32.5,10.5 C32.5,8.6 34,7.1 35.9,7.1 C37.8,7.1 39.3,8.6 39.3,10.5 C39.3,12.4 37.8,13.9 35.9,13.9 Z M97.5,13.9 C95.6,13.9 94.1,12.4 94.1,10.5 C94.1,8.6 95.6,7.1 97.5,7.1 C99.4,7.1 100.9,8.6 100.9,10.5 C100.9,12.4 99.4,13.9 97.5,13.9 Z" id="Shape" fill="#2767F4"></path>
            <path d="M6.5,55.6 L6.5,105.8 C6.5,114.7 13.8,122 22.7,122 L111.9,122 C120.8,122 128.1,114.7 128.1,105.8 L128.1,55.6 L6.5,55.6 Z" id="Shape" fill="#4988FD"></path>
            <path d="M6.5,60.2 L0.6,29.5 C-0.7,22.6 6.5,16.7 16.7,16.7 L119.3,16.7 C129.6,16.7 136.6,22.6 135,29.5 L128,60.2" id="Shape" fill="#3973F4"></path>
            <path d="M55.8,93 C45.8,93 38.5,87.1 38.3,78.9 L38.3,78 L42.7,78 L42.7,78.9 C42.9,84.6 48.5,88.8 55.8,88.8 C63.4,88.8 68.9,84.2 68.9,78 C68.9,71.6 63.7,67.8 55,67.8 L48.5,67.8 L48.5,63.6 L54.9,63.6 C61.9,63.6 66.7,59.6 66.7,53.9 C66.7,48.4 61.9,44.4 55.3,44.4 C49,44.4 44.2,48.4 43.8,53.8 L43.7,54.6 L39.3,54.6 L39.4,53.7 C39.8,45.9 46.6,40.2 55.4,40.2 C64.4,40.2 71.2,46 71.2,53.6 C71.2,59 68.3,63.2 63.5,65.3 C69.7,66.9 73.4,71.6 73.4,77.9 C73.4,86.5 65.8,93 55.8,93 Z" id="Shape" fill="#FFFFFF"></path>
            <path d="M90.9,92.3 L90.9,46.4 C89.4,47.3 87.3,48.7 85.3,50 L85,50.2 C82.6,51.7 80.2,53.3 78.7,54.3 L77.3,55.2 L77.3,50.1 L77.7,49.8 C78.9,49 80.8,47.8 82.7,46.6 C85.8,44.6 89.2,42.3 91.3,41.1 L91.5,41 L95.3,41 L95.3,92.4 L90.9,92.4 L90.9,92.3 Z" id="Shape" fill="#FFFFFF"></path>
        </g>
    </g>
</svg>