<?xml version="1.0" encoding="UTF-8"?>
<svg width="130px" height="138px" viewBox="0 0 130 138" version="1.1" xmlns="http://www.w3.org/2000/svg" xmlns:xlink="http://www.w3.org/1999/xlink">
    <!-- Generator: Sketch 51.2 (57519) - http://www.bohemiancoding.com/sketch -->
    <title>Call_In</title>
    <desc>Created with Sketch.</desc>
    <defs></defs>
    <g id="Page-1" stroke="none" stroke-width="1" fill="none" fill-rule="evenodd">
        <g id="Call_In" fill-rule="nonzero">
            <path d="M79,45.1 L79,16.5 C79,13.2 81.7,10.4 85.1,10.4 C85.5,10.4 85.8,10.4 86.2,10.5 C89.1,11 91.2,13.5 91.2,16.5 L91.2,30.5 L119,2.7 C120.2,1.5 121.7,0.9 123.3,0.9 C123.7,0.9 124,0.9 124.4,1 C125.6,1.2 126.7,1.8 127.6,2.7 C130,5.1 130,8.9 127.6,11.3 L102.5,36.4 L99.8,39.1 L113.8,39.1 C114.2,39.1 114.5,39.1 114.9,39.2 C117.7,39.7 119.9,42.2 119.9,45.2 C119.9,48.5 117.2,51.3 113.8,51.3 L85,51.3 C82.9,51.3 81,50.2 79.9,48.5 C79.3,47.5 79,46.3 79,45.1 Z" id="Shape" fill="#21D3AC"></path>
            <g id="Group" transform="translate(0.000000, 10.000000)">
                <g fill="#4988FD" id="Shape">
                    <path d="M120.9,110.5 C120.4,111.3 119.8,112.2 119.1,112.9 C118.9,113.2 118.6,113.4 118.4,113.7 C113.7,118.8 108.7,123.7 101.8,125.7 C99,126.5 96,127.2 93.1,127.3 C89,127.3 84.6,126.2 80.7,125.2 C76.8,124.2 73.1,122.9 69.4,121.3 C42.9,109.9 23.3,91.9 10.9,67.1 C8.7,62.7 6.7,58.2 5,53.4 C3,47.9 1.5,42.2 0.8,36.4 C0.7,35.3 0.5,34.2 0.4,33.2 C-0.4,24.5 2.6,17.1 8.5,10.8 C10.6,8.6 12.8,6.6 15.1,4.6 C16,3.8 16.9,3.2 17.9,2.6 C23.8,-0.9 31.3,-0.4 36.5,4.4 C41.4,8.9 46,13.8 50.2,18.9 C54.7,24.3 54.8,31.6 51,37.2 C50.5,38 49.9,38.8 49.2,39.5 C47.6,41.3 45.7,42.9 44,44.5 C40.2,48.1 39.7,51.8 42.6,56.2 C49.6,66.9 58.5,75.9 68.6,83.6 C72.4,86.5 76.2,86.2 79.7,83 C81.5,81.4 83.2,79.7 85,78.1 C85.9,77.3 86.9,76.6 88,76 C94,72.7 101.5,73.5 106.6,78.4 C111,82.7 115.2,87.1 119.3,91.7 C124,97.2 124.6,104.7 120.9,110.5 Z"></path>
                </g>
                <path d="M118.4,113.7 C117.9,113.7 116.6,115.6 116.2,116 C115.4,116.8 114.6,117.6 113.8,118.3 C112.2,119.8 110.5,121.2 108.7,122.4 C105,124.9 100.5,126.4 96,126.9 C91.1,127.4 86.2,126.5 81.4,125.3 C81.2,125.2 81,125.2 80.8,125.1 C80.7,125.1 80.6,125 80.5,125 C76.7,124 72.9,122.7 69.3,121.1 C42.8,109.7 23.2,91.7 10.8,66.9 C8.6,62.5 6.6,58 4.9,53.2 C2.9,47.7 1.4,42 0.7,36.2 C36.9,107.1 82.2,116.9 118.4,113.7 Z" id="Shape" fill="#2767F4"></path>
                <path d="M50.9,37.2 L17.8,2.5 C23.7,-1 31.2,-0.5 36.4,4.3 C41.3,8.8 45.9,13.7 50.1,18.8 C54.5,24.2 54.6,31.5 50.9,37.2 Z" id="Shape" fill="#6097FD"></path>
                <path d="M120.9,110.5 L87.9,76 C93.9,72.7 101.4,73.5 106.5,78.4 C110.9,82.7 115.1,87.1 119.2,91.7 C124,97.2 124.6,104.7 120.9,110.5 Z" id="Shape" fill="#6097FD"></path>
            </g>
        </g>
    </g>
</svg>