<?xml version="1.0" encoding="UTF-8"?>
<svg width="125px" height="128px" viewBox="0 0 125 128" version="1.1" xmlns="http://www.w3.org/2000/svg" xmlns:xlink="http://www.w3.org/1999/xlink">
    <!-- Generator: Sketch 51.2 (57519) - http://www.bohemiancoding.com/sketch -->
    <title>Call_Canceled</title>
    <desc>Created with Sketch.</desc>
    <defs></defs>
    <g id="Page-1" stroke="none" stroke-width="1" fill="none" fill-rule="evenodd">
        <g id="Call_Canceled" fill-rule="nonzero">
            <path d="M92,32.6 C89.8,30.4 86.2,30.4 83.9,32.6 L1.8,114.7 C-0.4,116.9 -0.4,120.5 1.8,122.8 C4,125 7.6,125 9.9,122.8 L92,40.7 C94.2,38.5 94.2,34.9 92,32.6 Z" id="Shape" fill="#2767F4"></path>
            <g id="Group" transform="translate(1.000000, 0.000000)">
                <g fill="#4988FD" id="Shape">
                    <path d="M47.8,63.8 L30.9,80.7 L23.9,87.7 C18.9,81.5 14.6,74.8 10.9,67.4 C8.7,63 6.7,58.5 5,53.7 C3,48.2 1.6,42.5 0.8,36.7 C0.7,35.6 0.5,34.5 0.4,33.5 C-0.4,24.8 2.6,17.4 8.5,11.1 C10.6,8.9 12.8,6.9 15.1,4.9 C16,4.1 16.9,3.4 17.9,2.9 C23.8,-0.6 31.3,-0.1 36.5,4.7 C41.4,9.2 46,14.1 50.2,19.2 C54.7,24.6 54.8,31.9 51,37.5 C50.5,38.3 49.9,39.1 49.2,39.8 C47.6,41.6 45.7,43.2 44,44.8 C40.2,48.4 39.7,52.1 42.6,56.5 C44.2,59.1 45.9,61.5 47.8,63.8 Z"></path>
                    <path d="M121,110.9 C120.5,111.7 119.9,112.5 119.2,113.3 C119,113.6 118.7,113.8 118.5,114.1 C115.7,117.3 112.6,120.3 109,122.7 C105.1,125.3 100.4,126.8 95.7,127.4 C90.7,128 85.9,126.9 81.1,125.6 C77.1,124.6 73.2,123.2 69.4,121.6 C56.5,116.1 45.1,108.9 35.5,100.1 L43.3,92.3 L59.3,76.3 C62.2,79 65.3,81.5 68.5,84 C72.3,86.9 76.1,86.6 79.6,83.4 C81.4,81.8 83.1,80.1 84.9,78.5 C85.8,77.7 86.8,77 87.9,76.4 C93.9,73.1 101.4,73.9 106.5,78.8 C110.9,83.1 115.1,87.5 119.2,92.1 C124.2,97.6 124.7,105.1 121,110.9 Z"></path>
                </g>
                <path d="M0.7,36.7 C10.2,55.3 20.4,69.6 30.8,80.7 L23.8,87.7 C18.8,81.5 14.5,74.8 10.8,67.4 C8.6,63 6.6,58.5 4.9,53.7 C3,48.2 1.5,42.5 0.7,36.7 Z" id="Shape" fill="#2767F4"></path>
                <path d="M118.5,114.1 C118.2,114.1 117.6,115.1 117.4,115.3 C117,115.8 116.5,116.2 116,116.7 C115.1,117.6 114.2,118.5 113.3,119.3 C111.5,121 109.5,122.5 107.3,123.7 C102.7,126.3 97.2,127.6 92,127.4 C89.7,127.3 87.5,126.9 85.3,126.5 C80,125.5 74.9,123.9 69.9,121.8 C69.8,121.7 69.6,121.7 69.5,121.6 C56.6,116.1 45.2,108.9 35.6,100.1 L43.4,92.3 C69,112.9 95.5,116.1 118.5,114.1 Z" id="Shape" fill="#2767F4"></path>
                <path d="M51,37.5 L17.9,2.8 C23.8,-0.7 31.3,-0.2 36.5,4.6 C41.4,9.1 46,14 50.2,19.1 C54.6,24.6 54.7,31.9 51,37.5 Z" id="Shape" fill="#6097FD"></path>
                <path d="M121,110.9 L88,76.4 C94,73.1 101.5,73.9 106.6,78.8 C111,83.1 115.2,87.5 119.3,92.1 C124.2,97.6 124.7,105.1 121,110.9 Z" id="Shape" fill="#6097FD"></path>
            </g>
        </g>
    </g>
</svg>