<?xml version="1.0" encoding="UTF-8"?>
<svg width="128px" height="132px" viewBox="0 0 128 132" version="1.1" xmlns="http://www.w3.org/2000/svg" xmlns:xlink="http://www.w3.org/1999/xlink">
    <!-- Generator: Sketch 51.2 (57519) - http://www.bohemiancoding.com/sketch -->
    <title>Call_Out</title>
    <desc>Created with Sketch.</desc>
    <defs></defs>
    <g id="Page-1" stroke="none" stroke-width="1" fill="none" fill-rule="evenodd">
        <g id="Call_Out" fill-rule="nonzero">
            <path d="M127.4,6.6 L127.4,35.5 C127.4,38.9 124.6,41.6 121.3,41.6 C120.9,41.6 120.6,41.6 120.2,41.5 C117.3,41 115.1,38.5 115.1,35.5 L115.1,21.4 L87,49.5 C85.8,50.7 84.2,51.3 82.6,51.3 C82.2,51.3 81.9,51.3 81.5,51.2 C80.3,51 79.2,50.4 78.2,49.5 C75.8,47.1 75.8,43.2 78.2,40.8 L103.6,15.4 L106.3,12.7 L92.2,12.7 C91.8,12.7 91.5,12.7 91.1,12.6 C88.2,12.1 86,9.6 86,6.6 C86,3.2 88.8,0.5 92.1,0.5 L121,0.5 C123.2,0.5 125.1,1.6 126.2,3.3 C127.1,4.2 127.4,5.4 127.4,6.6 Z" id="Shape" fill="#21D3AC"></path>
            <g id="Group" transform="translate(0.000000, 4.000000)">
                <g fill="#4988FD" id="Shape">
                    <path d="M120.9,111 C120.4,111.8 119.8,112.7 119.1,113.4 C118.9,113.7 118.6,113.9 118.4,114.2 C113,120.4 105.4,125.8 97.1,127.3 C87.9,128.9 77.6,125.3 69.3,121.8 C42.8,110.4 23.2,92.4 10.8,67.6 C8.6,63.2 6.6,58.7 4.9,53.9 C2.9,48.4 1.4,42.7 0.7,36.9 C0.6,35.8 0.4,34.7 0.3,33.7 C-0.5,25 2.5,17.6 8.4,11.3 C10.5,9.1 12.7,7.1 15,5.1 C15.9,4.3 16.8,3.7 17.8,3.1 C23.7,-0.4 31.2,0.1 36.4,4.9 C41.3,9.4 45.9,14.3 50.1,19.4 C54.6,24.8 54.7,32.1 50.9,37.7 C50.4,38.5 49.8,39.3 49.1,40 C47.5,41.8 45.6,43.4 43.9,45 C40.1,48.6 39.6,52.3 42.5,56.7 C49.5,67.4 58.4,76.4 68.5,84.1 C72.3,87 76.1,86.7 79.6,83.5 C81.4,81.9 83.1,80.2 84.9,78.6 C85.8,77.8 86.8,77.1 87.9,76.5 C93.9,73.2 101.4,74 106.5,78.9 C110.9,83.2 115.1,87.6 119.2,92.2 C124,97.7 124.6,105.2 120.9,111 Z"></path>
                </g>
                <path d="M118.3,114.2 C113.6,119.3 108.6,124.2 101.7,126.2 C97.6,127.4 93.3,127.9 89,127.4 C84.8,126.9 80.5,125.8 76.5,124.5 C75.5,124.2 74.6,123.9 73.7,123.5 C72.2,123 70.7,122.4 69.2,121.7 C42.7,110.3 23.1,92.3 10.7,67.5 C8.5,63.1 6.5,58.6 4.8,53.8 C2.8,48.3 1.3,42.6 0.6,36.8 C36.9,107.6 82.1,117.4 118.3,114.2 Z" id="Shape" fill="#2767F4"></path>
                <path d="M50.8,37.7 L17.7,3 C23.6,-0.5 31.1,-8.8817842e-16 36.3,4.8 C41.2,9.3 45.8,14.2 50,19.3 C54.4,24.7 54.6,32 50.8,37.7 Z" id="Shape" fill="#6097FD"></path>
                <path d="M120.9,111 L87.9,76.5 C93.9,73.2 101.4,74 106.5,78.9 C110.9,83.2 115.1,87.6 119.2,92.2 C124,97.7 124.6,105.2 120.9,111 Z" id="Shape" fill="#6097FD"></path>
            </g>
        </g>
    </g>
</svg>