<?xml version="1.0" encoding="UTF-8"?>
<svg width="149px" height="116px" viewBox="0 0 149 116" version="1.1" xmlns="http://www.w3.org/2000/svg" xmlns:xlink="http://www.w3.org/1999/xlink">
    <!-- Generator: Sketch 51.2 (57519) - http://www.bohemiancoding.com/sketch -->
    <title>Camera</title>
    <desc>Created with Sketch.</desc>
    <defs></defs>
    <g id="Page-1" stroke="none" stroke-width="1" fill="none" fill-rule="evenodd">
        <g id="Camera" fill-rule="nonzero">
            <path d="M33.8,20.3 L12.5,20.3 L12.5,12.6 C12.5,11.9 13,11.4 13.7,11.4 L32.6,11.4 C33.3,11.4 33.8,11.9 33.8,12.6 L33.8,20.3 Z" id="Shape" fill="#2767F4"></path>
            <path d="M148.7,32.3 L148.7,102.4 C148.7,102.7 148.7,103.1 148.7,103.4 C148.2,110 142.6,115.3 135.9,115.3 L13.1,115.3 C6.3,115.3 0.8,110.1 0.3,103.4 C0.3,103.1 0.3,102.7 0.3,102.4 L0.3,32.3 C0.3,25.2 6.1,19.4 13.2,19.4 L136,19.4 C142.9,19.5 148.7,25.2 148.7,32.3 Z" id="Shape" fill="#6097FD"></path>
            <path d="M52.6,51.9 L0.2,51.9 L0.2,102.4 C0.2,102.7 0.2,103.1 0.2,103.4 L60.9,103.4 L80.4,103.4 L148.6,103.4 C148.6,103.1 148.6,102.7 148.6,102.4 L148.6,51.9 L70,51.9 L52.6,51.9 Z" id="Shape" fill="#4988FD"></path>
            <path d="M130.7,40.8 L114.8,40.8 C113.1,40.8 111.7,39.4 111.7,37.7 L111.7,32.5 C111.7,30.8 113.1,29.4 114.8,29.4 L130.7,29.4 C132.4,29.4 133.8,30.8 133.8,32.5 L133.8,37.7 C133.8,39.4 132.4,40.8 130.7,40.8 Z" id="Shape" fill="#2767F4"></path>
            <path d="M130.7,40.8 L114.8,40.8 C113.1,40.8 111.7,39.4 111.7,37.7 L111.7,32.5 C111.7,30.8 113.1,29.4 114.8,29.4 L130.7,29.4 C132.4,29.4 133.8,30.8 133.8,32.5 L133.8,37.7 C133.8,39.4 132.4,40.8 130.7,40.8 Z" id="Shape" fill="#FFFFFF"></path>
            <circle id="Oval" fill="#3874F4" cx="74.5" cy="69.7" r="35.6"></circle>
            <circle id="Oval" fill="#1D60F4" cx="74.5" cy="69.7" r="23"></circle>
            <path d="M89.8,0.9 L59.1,0.9 C55.6,0.9 52.6,3.2 51.7,6.6 L48.3,19.5 L100.6,19.5 L97.2,6.6 C96.3,3.2 93.3,0.9 89.8,0.9 Z" id="Shape" fill="#2767F4"></path>
            <circle id="Oval" fill="#FFFFFF" cx="64.8" cy="62.2" r="4"></circle>
        </g>
    </g>
</svg>