<?xml version="1.0" encoding="UTF-8"?>
<svg width="149px" height="123px" viewBox="0 0 149 123" version="1.1" xmlns="http://www.w3.org/2000/svg" xmlns:xlink="http://www.w3.org/1999/xlink">
    <!-- Generator: Sketch 51.2 (57519) - http://www.bohemiancoding.com/sketch -->
    <title>Cart_Pay</title>
    <desc>Created with Sketch.</desc>
    <defs></defs>
    <g id="Page-1" stroke="none" stroke-width="1" fill="none" fill-rule="evenodd">
        <g id="Cart_Pay" fill-rule="nonzero">
            <path d="M133.7,30.5 C132,28.1 129.3,26.8 126.4,26.7 L32.4,26.7 L26.7,7.9 C25.4,3.7 21.6,0.8 17.1,0.8 L5.6,0.8 C3,0.8 0.9,2.9 0.9,5.5 C0.9,8.1 3,10.2 5.6,10.2 L17.1,10.2 C17.4,10.2 17.7,10.4 17.8,10.7 L40.8,86.4 C42.6,92.2 48,96.1 54.1,96.1 L112.2,96.1 C114.7,96.1 116.7,94.2 116.8,91.8 C116.8,91.7 116.8,91.6 116.8,91.5 C116.8,88.9 114.7,86.9 112.1,86.9 L54,86.9 C52,86.9 50.2,85.6 49.6,83.7 L48.5,80.1 L111.7,80.1 C118.1,80.1 123.6,76 125.5,69.9 L133.2,45.1 L135.1,38.8 C136,35.8 135.5,32.8 133.7,30.5 Z" id="Shape" fill="#4988FD"></path>
            <path d="M116.7,91.3 C116.7,91.4 116.7,91.5 116.7,91.6 C114.3,92.2 111.8,92.5 109.2,92.5 C102.5,92.5 96.3,90.3 91.4,86.6 L112,86.6 C114.7,86.7 116.7,88.8 116.7,91.3 Z" id="Shape" fill="#2767F4"></path>
            <path d="M133.1,44.9 L125.4,69.7 C123.5,75.8 118,79.9 111.6,79.9 L84.8,79.9 C81.4,75.1 79.4,69.1 79.4,62.8 C79.4,46.3 92.7,33 109.2,33 C119,33 127.7,37.7 133.1,44.9 Z" id="Shape" fill="#2767F4"></path>
            <path d="M56.1,101.5 C50.4,101.5 45.8,106.1 45.8,111.8 C45.8,117.5 50.4,122.1 56.1,122.1 C61.8,122.1 66.4,117.5 66.4,111.8 C66.4,106.1 61.8,101.5 56.1,101.5 Z M56.1,116.7 C53.4,116.7 51.2,114.5 51.2,111.8 C51.2,109.1 53.4,106.9 56.1,106.9 C58.8,106.9 61,109.1 61,111.8 C61,114.5 58.8,116.7 56.1,116.7 Z" id="Shape" fill="#2767F4"></path>
            <path d="M105.5,101.5 C99.8,101.5 95.2,106.1 95.2,111.8 C95.2,117.5 99.8,122.1 105.5,122.1 C111.2,122.1 115.8,117.5 115.8,111.8 C115.8,106.1 111.2,101.5 105.5,101.5 Z M105.5,116.7 C102.8,116.7 100.6,114.5 100.6,111.8 C100.6,109.1 102.8,106.9 105.5,106.9 C108.2,106.9 110.4,109.1 110.4,111.8 C110.4,114.5 108.2,116.7 105.5,116.7 Z" id="Shape" fill="#2767F4"></path>
            <g id="Group" transform="translate(89.000000, 29.000000)">
                <path d="M54.8,14.1 C57.9,18.8 59.7,24.4 59.7,30.4 C59.7,46.9 46.4,60.2 29.9,60.2 C13.4,60.2 0.1,46.9 0.1,30.4 C0.1,13.9 13.4,0.6 29.9,0.6 C40.3,0.7 49.5,6 54.8,14.1 Z" id="Shape" fill="#21D3AC"></path>
                <path d="M45,33 L36.2,41.8 C35.1,42.9 33.3,42.9 32.2,41.8 C31.1,40.7 31.1,38.9 32.2,37.8 L36.2,33.8 L17.1,33.8 C15.6,33.8 14.3,32.5 14.3,31 C14.3,29.5 15.6,28.2 17.1,28.2 L36.2,28.2 L32.2,24.2 C31.1,23.1 31.1,21.3 32.2,20.2 C32.7,19.7 33.5,19.4 34.2,19.4 C34.9,19.4 35.6,19.7 36.2,20.2 L45,29 C45.5,29.5 45.8,30.2 45.8,31 C45.8,31.8 45.5,32.5 45,33 Z" id="Shape" fill="#FFFFFF"></path>
            </g>
        </g>
    </g>
</svg>