<?xml version="1.0" encoding="UTF-8"?>
<svg width="135px" height="127px" viewBox="0 0 135 127" version="1.1" xmlns="http://www.w3.org/2000/svg" xmlns:xlink="http://www.w3.org/1999/xlink">
    <!-- Generator: Sketch 51.2 (57519) - http://www.bohemiancoding.com/sketch -->
    <title>Cart_Add</title>
    <desc>Created with Sketch.</desc>
    <defs></defs>
    <g id="Page-1" stroke="none" stroke-width="1" fill="none" fill-rule="evenodd">
        <g id="Cart_Add" fill-rule="nonzero">
            <path d="M132.9,34.6 C131.2,32.2 128.5,30.9 125.6,30.8 L31.6,30.8 L25.9,12 C24.6,7.8 20.8,4.9 16.3,4.9 L4.8,4.9 C2.2,4.9 0.1,7 0.1,9.6 C0.1,12.2 2.2,14.2 4.8,14.2 L16.3,14.2 C16.6,14.2 16.9,14.4 16.9,14.7 L39.9,90.4 C41.7,96.2 47,100.1 53.2,100.1 L111.3,100.1 C113.9,100.1 115.9,98 115.9,95.4 C115.9,92.8 113.8,90.8 111.3,90.8 L53.2,90.8 C51.2,90.8 49.4,89.5 48.8,87.6 L47.7,84 L110.9,84 C117.3,84 122.8,79.9 124.7,73.8 L134.3,42.7 C135.2,39.9 134.7,36.9 132.9,34.6 Z" id="Shape" fill="#4988FD"></path>
            <path d="M111.4,36.7 C111.4,47.6 105.8,57.3 97.3,62.9 C92.4,66.1 86.5,68 80.1,68 C62.8,68 48.8,54 48.8,36.7 C48.8,34.7 49,32.7 49.4,30.8 L110.8,30.8 C111.2,32.7 111.4,34.7 111.4,36.7 Z" id="Shape" fill="#2767F4"></path>
            <path d="M55.3,105.6 C49.6,105.6 45,110.2 45,115.9 C45,121.6 49.6,126.2 55.3,126.2 C61,126.2 65.6,121.6 65.6,115.9 C65.6,110.2 61,105.6 55.3,105.6 Z M55.3,120.7 C52.6,120.7 50.4,118.5 50.4,115.8 C50.4,113.1 52.6,110.9 55.3,110.9 C58,110.9 60.2,113.1 60.2,115.8 C60.2,118.6 58,120.7 55.3,120.7 Z" id="Shape" fill="#2767F4"></path>
            <path d="M104.7,105.6 C99,105.6 94.4,110.2 94.4,115.9 C94.4,121.6 99,126.2 104.7,126.2 C110.4,126.2 115,121.6 115,115.9 C115,110.2 110.4,105.6 104.7,105.6 Z M104.7,120.7 C102,120.7 99.8,118.5 99.8,115.8 C99.8,113.1 102,110.9 104.7,110.9 C107.4,110.9 109.6,113.1 109.6,115.8 C109.6,118.6 107.4,120.7 104.7,120.7 Z" id="Shape" fill="#2767F4"></path>
            <g id="Group" transform="translate(54.000000, 0.000000)">
                <path d="M46.5,55.5 C41.8,58.6 36.2,60.4 30.2,60.4 C13.7,60.4 0.4,47.1 0.4,30.6 C0.4,14.1 13.7,0.8 30.2,0.8 C46.7,0.8 60,14.1 60,30.6 C59.9,40.9 54.6,50.1 46.5,55.5 Z" id="Shape" fill="#21D3AC"></path>
                <path d="M27.6,45.6 L18.8,36.8 C17.7,35.7 17.7,33.9 18.8,32.8 C19.9,31.7 21.7,31.7 22.8,32.8 L26.8,36.8 L26.8,17.7 C26.8,16.2 28.1,14.9 29.6,14.9 C31.1,14.9 32.4,16.2 32.4,17.7 L32.4,36.8 L36.4,32.8 C37.5,31.7 39.3,31.7 40.4,32.8 C40.9,33.3 41.2,34.1 41.2,34.8 C41.2,35.5 40.9,36.2 40.4,36.8 L31.6,45.6 C31.1,46.1 30.4,46.4 29.6,46.4 C28.8,46.4 28.1,46.1 27.6,45.6 Z" id="Shape" fill="#FFFFFF"></path>
            </g>
        </g>
    </g>
</svg>