<?xml version="1.0" encoding="UTF-8"?>
<svg width="135px" height="127px" viewBox="0 0 135 127" version="1.1" xmlns="http://www.w3.org/2000/svg" xmlns:xlink="http://www.w3.org/1999/xlink">
    <!-- Generator: Sketch 51.2 (57519) - http://www.bohemiancoding.com/sketch -->
    <title>Cart_Add_2</title>
    <desc>Created with Sketch.</desc>
    <defs></defs>
    <g id="Page-1" stroke="none" stroke-width="1" fill="none" fill-rule="evenodd">
        <g id="Cart_Add_2" fill-rule="nonzero">
            <path d="M132.9,34.5 C131.2,32.1 128.5,30.8 125.6,30.7 L31.6,30.7 L25.9,11.9 C24.6,7.7 20.8,4.8 16.3,4.8 L4.8,4.8 C2.2,4.8 0.2,6.9 0.2,9.5 C0.2,12.1 2.3,14.1 4.8,14.1 L16.3,14.1 C16.6,14.1 16.9,14.3 16.9,14.6 L39.9,90.3 C41.7,96.1 47,100 53.2,100 L111.3,100 C113.9,100 115.9,97.9 115.9,95.3 C115.9,92.7 113.8,90.7 111.3,90.7 L53.2,90.7 C51.2,90.7 49.4,89.4 48.8,87.5 L47.7,83.9 L110.9,83.9 C117.3,83.9 122.8,79.8 124.7,73.7 L134.3,42.6 C135.1,39.9 134.6,36.9 132.9,34.5 Z" id="Shape" fill="#4988FD"></path>
            <path d="M111.3,36.6 C111.3,47.5 105.7,57.2 97.2,62.8 C92.3,66 86.4,67.9 80.1,67.9 C62.8,67.9 48.8,53.9 48.8,36.6 C48.8,34.6 49,32.6 49.4,30.7 L110.8,30.7 C111.1,32.7 111.3,34.6 111.3,36.6 Z" id="Shape" fill="#2767F4"></path>
            <path d="M55.2,105.5 C49.5,105.5 44.9,110.1 44.9,115.8 C44.9,121.5 49.5,126.1 55.2,126.1 C60.9,126.1 65.5,121.5 65.5,115.8 C65.5,110.1 60.9,105.5 55.2,105.5 Z M55.2,120.7 C52.5,120.7 50.3,118.5 50.3,115.8 C50.3,113.1 52.5,110.9 55.2,110.9 C57.9,110.9 60.1,113.1 60.1,115.8 C60.1,118.5 57.9,120.7 55.2,120.7 Z" id="Shape" fill="#2767F4"></path>
            <path d="M104.6,105.5 C98.9,105.5 94.3,110.1 94.3,115.8 C94.3,121.5 98.9,126.1 104.6,126.1 C110.3,126.1 114.9,121.5 114.9,115.8 C114.9,110.1 110.3,105.5 104.6,105.5 Z M104.6,120.7 C101.9,120.7 99.7,118.5 99.7,115.8 C99.7,113.1 101.9,110.9 104.6,110.9 C107.3,110.9 109.5,113.1 109.5,115.8 C109.5,118.5 107.3,120.7 104.6,120.7 Z" id="Shape" fill="#2767F4"></path>
            <g id="Group" transform="translate(54.000000, 0.000000)">
                <path d="M46.8,55.5 C42.1,58.6 36.5,60.4 30.5,60.4 C14,60.4 0.7,47.1 0.7,30.6 C0.7,14.1 14,0.8 30.5,0.8 C47,0.8 60.3,14.1 60.3,30.6 C60.3,41 54.9,50.2 46.8,55.5 Z" id="Shape" fill="#21D3AC"></path>
                <path d="M41.7,27.3 C39.6,27.3 36.7,27.3 33.8,27.3 C33.8,24.3 33.8,21.5 33.8,19.4 C33.8,15 27.2,15 27.2,19.4 C27.2,21.5 27.2,24.4 27.2,27.3 C24.2,27.3 21.4,27.3 19.3,27.3 C14.9,27.3 14.9,33.9 19.3,33.9 C21.4,33.9 24.3,33.9 27.2,33.9 C27.2,36.9 27.2,39.7 27.2,41.8 C27.2,46.2 33.8,46.2 33.8,41.8 C33.8,39.7 33.8,36.8 33.8,33.9 C36.8,33.9 39.6,33.9 41.7,33.9 C46.1,33.9 46.1,27.3 41.7,27.3 Z" id="Shape" fill="#FFFFFF"></path>
            </g>
        </g>
    </g>
</svg>