<?xml version="1.0" encoding="UTF-8"?>
<svg width="135px" height="125px" viewBox="0 0 135 125" version="1.1" xmlns="http://www.w3.org/2000/svg" xmlns:xlink="http://www.w3.org/1999/xlink">
    <!-- Generator: Sketch 51.2 (57519) - http://www.bohemiancoding.com/sketch -->
    <title>Cart_Delete</title>
    <desc>Created with Sketch.</desc>
    <defs></defs>
    <g id="Page-1" stroke="none" stroke-width="1" fill="none" fill-rule="evenodd">
        <g id="Cart_Delete" fill-rule="nonzero">
            <path d="M132.9,33.3 C131.2,30.9 128.5,29.6 125.6,29.5 L31.6,29.5 L25.9,10.7 C24.6,6.5 20.8,3.6 16.3,3.6 L4.8,3.6 C2.2,3.6 0.2,5.7 0.2,8.3 C0.2,10.9 2.3,12.9 4.8,12.9 L16.3,12.9 C16.6,12.9 16.9,13.1 16.9,13.4 L39.9,89.1 C41.7,94.9 47,98.8 53.2,98.8 L111.3,98.8 C113.9,98.8 115.9,96.7 115.9,94.1 C115.9,91.5 113.8,89.5 111.3,89.5 L53.2,89.5 C51.2,89.5 49.4,88.2 48.8,86.3 L47.7,82.7 L110.9,82.7 C117.3,82.7 122.8,78.6 124.7,72.5 L134.3,41.4 C135.1,38.6 134.6,35.6 132.9,33.3 Z" id="Shape" fill="#4988FD"></path>
            <path d="M111.3,35.4 C111.3,46.3 105.7,56 97.2,61.6 C92.3,64.8 86.4,66.7 80.1,66.7 C62.8,66.7 48.8,52.7 48.8,35.4 C48.8,33.4 49,31.4 49.4,29.5 L110.8,29.5 C111.1,31.4 111.3,33.4 111.3,35.4 Z" id="Shape" fill="#2767F4"></path>
            <path d="M55.2,104.3 C49.5,104.3 44.9,108.9 44.9,114.6 C44.9,120.3 49.5,124.9 55.2,124.9 C60.9,124.9 65.5,120.3 65.5,114.6 C65.5,108.9 60.9,104.3 55.2,104.3 Z M55.2,119.4 C52.5,119.4 50.3,117.2 50.3,114.5 C50.3,111.8 52.5,109.6 55.2,109.6 C57.9,109.6 60.1,111.8 60.1,114.5 C60.1,117.3 57.9,119.4 55.2,119.4 Z" id="Shape" fill="#2767F4"></path>
            <path d="M104.6,104.3 C98.9,104.3 94.3,108.9 94.3,114.6 C94.3,120.3 98.9,124.9 104.6,124.9 C110.3,124.9 114.9,120.3 114.9,114.6 C114.9,108.9 110.3,104.3 104.6,104.3 Z M104.6,119.4 C101.9,119.4 99.7,117.2 99.7,114.5 C99.7,111.8 101.9,109.6 104.6,109.6 C107.3,109.6 109.5,111.8 109.5,114.5 C109.5,117.3 107.3,119.4 104.6,119.4 Z" id="Shape" fill="#2767F4"></path>
            <g id="Group" transform="translate(54.000000, 0.000000)">
                <path d="M46.5,54.8 C41.8,57.9 36.2,59.7 30.2,59.7 C13.7,59.7 0.4,46.4 0.4,29.9 C0.4,13.4 13.7,0.1 30.2,0.1 C46.7,0.1 60,13.4 60,29.9 C59.9,40.2 54.6,49.4 46.5,54.8 Z" id="Shape" fill="#21D3AC"></path>
                <path d="M18.9,33.1 C24.8,33.1 35.7,33.1 41.4,33.1 C45.8,33.1 45.8,26.5 41.4,26.5 C35.5,26.5 24.6,26.5 18.9,26.5 C14.5,26.5 14.5,33.1 18.9,33.1 Z" id="Shape" fill="#FFFFFF"></path>
            </g>
        </g>
    </g>
</svg>