<?xml version="1.0" encoding="UTF-8"?>
<svg width="136px" height="125px" viewBox="0 0 136 125" version="1.1" xmlns="http://www.w3.org/2000/svg" xmlns:xlink="http://www.w3.org/1999/xlink">
    <!-- Generator: Sketch 51.2 (57519) - http://www.bohemiancoding.com/sketch -->
    <title>Cart_Added</title>
    <desc>Created with Sketch.</desc>
    <defs></defs>
    <g id="Page-1" stroke="none" stroke-width="1" fill="none" fill-rule="evenodd">
        <g id="Cart_Added" fill-rule="nonzero">
            <path d="M133.5,33.3 C131.8,30.9 129.1,29.6 126.2,29.5 L32.2,29.5 L26.5,10.7 C25.2,6.5 21.4,3.6 16.9,3.6 L5.4,3.6 C2.8,3.6 0.7,5.7 0.7,8.3 C0.7,10.9 2.8,12.9 5.4,12.9 L16.9,12.9 C17.2,12.9 17.5,13.1 17.6,13.4 L40.6,89.1 C42.4,94.9 47.8,98.8 53.9,98.8 L112,98.8 C114.6,98.8 116.7,96.7 116.7,94.1 C116.7,91.5 114.6,89.5 112,89.5 L53.9,89.5 C51.9,89.5 50.1,88.2 49.5,86.3 L48.4,82.7 L111.6,82.7 C118,82.7 123.5,78.6 125.4,72.5 L135,41.4 C135.8,38.6 135.2,35.6 133.5,33.3 Z" id="Shape" fill="#4988FD"></path>
            <path d="M111.9,35.4 C111.9,46.3 106.3,56 97.8,61.6 C92.9,64.8 87,66.7 80.6,66.7 C63.3,66.7 49.3,52.7 49.3,35.4 C49.3,33.4 49.5,31.4 49.8,29.5 L111.2,29.5 C111.7,31.4 111.9,33.4 111.9,35.4 Z" id="Shape" fill="#2767F4"></path>
            <path d="M55.9,104.3 C50.2,104.3 45.6,108.9 45.6,114.6 C45.6,120.3 50.2,124.9 55.9,124.9 C61.6,124.9 66.2,120.3 66.2,114.6 C66.1,108.9 61.5,104.3 55.9,104.3 Z M55.9,119.4 C53.2,119.4 51,117.2 51,114.5 C51,111.8 53.2,109.6 55.9,109.6 C58.6,109.6 60.8,111.8 60.8,114.5 C60.8,117.3 58.6,119.4 55.9,119.4 Z" id="Shape" fill="#2767F4"></path>
            <path d="M105.2,104.3 C99.5,104.3 94.9,108.9 94.9,114.6 C94.9,120.3 99.5,124.9 105.2,124.9 C110.9,124.9 115.5,120.3 115.5,114.6 C115.5,108.9 110.9,104.3 105.2,104.3 Z M105.2,119.4 C102.5,119.4 100.3,117.2 100.3,114.5 C100.3,111.8 102.5,109.6 105.2,109.6 C107.9,109.6 110.1,111.8 110.1,114.5 C110.1,117.3 108,119.4 105.2,119.4 Z" id="Shape" fill="#2767F4"></path>
            <g id="Group" transform="translate(54.000000, 0.000000)">
                <path d="M46.3,54.7 C41.6,57.8 36,59.6 30,59.6 C13.5,59.6 0.2,46.3 0.2,29.8 C0.2,13.3 13.5,-4.54747351e-13 30,-4.54747351e-13 C46.5,-4.54747351e-13 59.8,13.3 59.8,29.8 C59.8,40.2 54.5,49.4 46.3,54.7 Z" id="Shape" fill="#21D3AC"></path>
                <path d="M26,41.2 C25,41.2 24.1,40.8 23.4,40.1 L15.9,32.6 C14.5,31.2 14.5,28.9 15.9,27.5 C17.3,26.1 19.6,26.1 21,27.5 L26,32.5 L38.9,19.6 C40.3,18.2 42.6,18.2 44,19.6 C45.4,21 45.4,23.3 44,24.7 L28.6,40.1 C27.9,40.8 27,41.2 26,41.2 Z" id="Shape" fill="#FFFFFF"></path>
            </g>
        </g>
    </g>
</svg>