<?xml version="1.0" encoding="UTF-8"?>
<svg width="150px" height="134px" viewBox="0 0 150 134" version="1.1" xmlns="http://www.w3.org/2000/svg" xmlns:xlink="http://www.w3.org/1999/xlink">
    <!-- Generator: Sketch 51.2 (57519) - http://www.bohemiancoding.com/sketch -->
    <title>Cash</title>
    <desc>Created with Sketch.</desc>
    <defs></defs>
    <g id="Page-1" stroke="none" stroke-width="1" fill="none" fill-rule="evenodd">
        <g id="Cash" fill-rule="nonzero">
            <g id="Group" transform="translate(20.000000, 19.000000)">
                <g transform="translate(0.000000, 53.000000)">
                    <path d="M35.2,6.3 L35.2,34.6 C34.4,41.5 0.7,41.5 0.2,34.6 L0.2,6.3 C0.2,4.6 2.3,3.5 3.9,2.9 C4.2,2.8 6.2,2.1 6.5,2.1 C16.6,-0.7 35.2,1.3 35.2,6.3 Z" id="Shape" fill="#FFFFFF"></path>
                    <path d="M35.2,6.3 L35.2,34.6 C35.2,41.3 0.7,41.7 0.2,34.6 L0.2,6.3 C0.2,4.6 2.3,3.5 3.9,2.9 C14.9,-1.2 35.2,1.2 35.2,6.3 Z" id="Shape" fill="#C5DCFA"></path>
                    <path d="M35.2,11.7 L35.2,14.2 C28.3,18.9 7.1,18.9 0.2,14.2 L0.2,11.7 C1.3,13.6 7.8,15.9 17.7,15.9 C27.7,15.9 34.1,13.6 35.2,11.7 Z" id="Shape" fill="#BAD3F5"></path>
                    <path d="M35.2,17.7 L35.2,20.2 C28.3,24.9 7.1,24.9 0.2,20.2 L0.2,17.7 C1.3,19.6 7.8,21.9 17.7,21.9 C27.7,22 34.1,19.7 35.2,17.7 Z" id="Shape" fill="#BAD3F5"></path>
                    <path d="M35.2,23.8 L35.2,26.3 C28.3,31 7,31 0.2,26.3 L0.2,23.8 C1.3,25.7 7.9,28 17.7,28 C27.7,28 34.1,25.7 35.2,23.8 Z" id="Shape" fill="#BAD3F5"></path>
                    <path d="M35.2,29.8 L35.2,32.3 C28.4,37 7.1,37 0.2,32.3 L0.2,29.8 C1.3,31.7 7.8,34 17.7,34 C27.8,34 34.1,31.6 35.2,29.8 Z" id="Shape" fill="#BAD3F5"></path>
                    <ellipse id="Oval" fill="#6097FD" cx="17.7" cy="6.2" rx="17.5" ry="5.4"></ellipse>
                </g>
                <g transform="translate(0.000000, 29.000000)">
                    <path d="M35.4,6.4 L35.4,34.7 C34.6,41.6 0.9,41.6 0.4,34.7 L0.4,6.4 C0.4,4.7 2.5,3.6 4.1,3 C4.4,2.9 6.4,2.2 6.7,2.2 C16.8,-0.6 35.4,1.4 35.4,6.4 Z" id="Shape" fill="#FFFFFF"></path>
                    <path d="M35.4,6.4 L35.4,34.7 C35.4,41.4 0.9,41.8 0.4,34.7 L0.4,6.4 C0.4,4.7 2.5,3.6 4.1,3 C15.1,-1.1 35.4,1.3 35.4,6.4 Z" id="Shape" fill="#C5DCFA"></path>
                    <path d="M35.4,11.8 L35.4,14.3 C28.5,19 7.3,19 0.4,14.3 L0.4,11.8 C1.5,13.7 8,16 17.9,16 C27.9,16 34.3,13.7 35.4,11.8 Z" id="Shape" fill="#BAD3F5"></path>
                    <path d="M35.4,17.8 L35.4,20.3 C28.5,25 7.3,25 0.4,20.3 L0.4,17.8 C1.5,19.7 8,22 17.9,22 C27.9,22 34.3,19.7 35.4,17.8 Z" id="Shape" fill="#BAD3F5"></path>
                    <path d="M35.4,23.8 L35.4,26.3 C28.5,31 7.2,31 0.4,26.3 L0.4,23.8 C1.5,25.7 8.1,28 17.9,28 C27.9,28 34.3,25.7 35.4,23.8 Z" id="Shape" fill="#BAD3F5"></path>
                    <path d="M35.4,29.8 L35.4,32.3 C28.6,37 7.3,37 0.4,32.3 L0.4,29.8 C1.5,31.7 8,34 17.9,34 C28,34 34.3,31.7 35.4,29.8 Z" id="Shape" fill="#BAD3F5"></path>
                    <ellipse id="Oval" fill="#6097FD" cx="17.9" cy="6.3" rx="17.5" ry="5.4"></ellipse>
                </g>
                <g>
                    <path d="M35.4,5.6 L35.4,33.9 C34.6,40.7 0.9,40.8 0.4,33.9 L0.4,5.6 C0.4,3.9 2.5,2.8 4.1,2.2 C4.4,2.1 6.4,1.4 6.7,1.4 C16.6,-1.3 35.4,0.6 35.4,5.6 Z" id="Shape" fill="#FFFFFF"></path>
                    <path d="M35.4,5.6 L35.4,35.7 C35.4,37.6 31.6,39.1 29.7,39.6 C19.3,42.5 0.7,40.6 0.4,35.7 L0.4,5.6 C0.4,3.9 2.5,2.8 4.1,2.2 C15.1,-1.8 35.4,0.5 35.4,5.6 Z" id="Shape" fill="#C5DCFA"></path>
                    <path d="M35.4,11.1 L35.4,13.6 C28.5,18.3 7.3,18.3 0.4,13.6 L0.4,11.1 C1.5,13 8,15.3 17.9,15.3 C27.9,15.3 34.3,13 35.4,11.1 Z" id="Shape" fill="#BAD3F5"></path>
                    <path d="M35.4,17.1 L35.4,19.6 C28.5,24.3 7.3,24.3 0.4,19.6 L0.4,17.1 C1.5,19 8,21.3 17.9,21.3 C27.9,21.3 34.3,19 35.4,17.1 Z" id="Shape" fill="#BAD3F5"></path>
                    <path d="M35.4,23.1 L35.4,25.6 C28.5,30.3 7.2,30.3 0.4,25.6 L0.4,23.1 C1.5,25 8.1,27.3 17.9,27.3 C27.9,27.3 34.3,25 35.4,23.1 Z" id="Shape" fill="#BAD3F5"></path>
                    <path d="M35.4,29.1 L35.4,31.6 C28.6,36.3 7.3,36.3 0.4,31.6 L0.4,29.1 C1.5,31 8,33.3 17.9,33.3 C28,33.3 34.3,31 35.4,29.1 Z" id="Shape" fill="#BAD3F5"></path>
                    <path d="M35.4,34.6 L35.4,37.1 C28.6,41.8 7.3,41.8 0.4,37.1 L0.4,34.6 C1.5,36.5 8,38.8 17.9,38.8 C28,38.8 34.3,36.5 35.4,34.6 Z" id="Shape" fill="#BAD3F5"></path>
                    <ellipse id="Oval" fill="#E1ECFA" cx="17.9" cy="5.5" rx="17.5" ry="5.4"></ellipse>
                </g>
            </g>
            <g id="Group" transform="translate(42.000000, 0.000000)">
                <path d="M76.4,80.3 C76.4,102.9 59.3,116.1 38.2,116.1 C24.1,116.1 11.7,110.2 5.1,99.5 C1.8,94.2 4.54747351e-13,87.7 4.54747351e-13,80.3 C4.54747351e-13,60.7 14.2,44.9 23.7,29.5 C30.6,18.4 45.8,18.4 52.7,29.5 C59.5,40.5 69,52.4 73.7,65.4 C75.4,70.2 76.4,75.1 76.4,80.3 Z" id="Shape" fill="#4988FD"></path>
                <path d="M76.4,80.3 C76.4,102.9 59.3,116.1 38.2,116.1 C29.8,116.1 22.1,114 15.7,110.1 C12.1,107.9 14.1,102.4 18.3,102.9 C20.8,103.2 23.4,103.4 26,103.4 C50.3,103.4 70.4,89.6 73.7,65.4 C75.4,70.2 76.4,75.1 76.4,80.3 Z" id="Shape" fill="#3973F4"></path>
                <path d="M26.5,25.5 C21.6,20.2 16.7,12.3 13.9,7.6 C13.3,6.5 13.1,5.2 13.5,4 C13.9,2.8 14.8,1.8 15.9,1.4 C27.6,-3.3 33.7,12.3 59.6,4.2 L48.2,25.3 L26.5,25.5 Z" id="Shape" fill="#3973F4"></path>
                <path d="M82.1,41.4 C79.1,41.4 75.3,38.6 70.1,32.5 C64.2,25.6 60.1,22.3 57.4,22.3 C57.4,22.3 57.4,22.3 57.4,22.3 C55.5,22.3 53.8,24.2 51.5,27 C50.8,27.9 49.4,28 48.5,27.3 C47.6,26.6 47.5,25.2 48.2,24.3 C50.7,21.2 53.4,18.1 57.3,18.1 C57.3,18.1 57.3,18.1 57.4,18.1 C61.6,18.1 66.2,21.5 73.3,29.8 C80,37.7 82.2,37.2 82.2,37.2 C82.4,37.1 82.7,36.2 82.7,35.5 C82.7,34.3 83.7,33.4 84.8,33.4 C84.8,33.4 84.8,33.4 84.8,33.4 C86,33.4 86.9,34.3 86.9,35.5 C86.9,36 86.8,40 83.7,41.1 C83.2,41.3 82.7,41.4 82.1,41.4 Z" id="Shape" fill="#3973F4"></path>
                <path d="M63,38.7 C61.8,38.7 60.9,37.8 60.9,36.6 C60.9,32.1 58.8,26.2 55.8,25 C54.3,24.4 52.4,25.1 50.3,27.2 C49.5,28 48.1,28 47.3,27.2 C46.5,26.4 46.5,25 47.3,24.2 C51.6,19.9 55.1,20.1 57.4,21.1 C62.7,23.3 65.1,31.5 65.1,36.6 C65.1,37.8 64.1,38.7 63,38.7 Z" id="Shape" fill="#3973F4"></path>
                <path d="M37.9,95 C36.5,95 35.3,93.8 35.3,92.4 L35.3,89.2 C33,89.1 30.6,88.5 28.6,87.6 C27.2,87 26.6,85.4 27.1,84 C27.5,82.8 28.6,82.1 29.8,82.1 C30.2,82.1 30.6,82.2 31,82.4 C32.3,83 34.4,83.7 37,83.7 C40.5,83.7 43,81.7 43,78.9 C43,76.3 41.3,74.6 37,72.8 C31.8,70.8 27,68.1 27,62.1 C27,57.1 30.4,53.3 35.7,52.2 L35.7,48.9 C35.7,47.5 36.9,46.3 38.3,46.3 C39.7,46.3 40.9,47.5 40.9,48.9 L40.9,51.9 C42.8,52 44.5,52.4 46.1,53.1 C47.5,53.7 48.2,55.3 47.7,56.8 C47.3,57.9 46.2,58.6 45,58.6 C44.6,58.6 44.2,58.5 43.9,58.4 C42.3,57.8 40.7,57.4 38.9,57.4 C35,57.4 33.7,59.6 33.7,61.5 C33.7,63.9 35.2,65.1 40.3,67.3 C46.9,70 49.7,73.4 49.7,78.6 C49.7,83.8 46.1,87.9 40.6,89.1 L40.6,92.6 C40.6,93.9 39.4,95 37.9,95 Z" id="Shape" fill="#FFFFFF"></path>
            </g>
            <g id="Group" transform="translate(0.000000, 78.000000)">
                <path d="M35,5.8 L35,33.7 C34.2,40.5 1,40.5 0.6,33.7 L0.6,5.8 C0.6,4.1 2.7,3.1 4.3,2.4 C4.6,2.3 6.6,1.6 6.9,1.6 C16.7,-1.1 35,0.9 35,5.8 Z" id="Shape" fill="#FFFFFF"></path>
                <path d="M35,5.8 L35,33.7 C35,40.3 1,40.7 0.6,33.7 L0.6,5.8 C0.6,4.1 2.7,3.1 4.3,2.4 C15,-1.5 35,0.8 35,5.8 Z" id="Shape" fill="#C5DCFA"></path>
                <path d="M35,11.1 L35,13.5 C28.3,18.2 7.3,18.2 0.6,13.5 L0.6,11.1 C1.7,13 8,15.2 17.8,15.2 C27.6,15.3 34,13 35,11.1 Z" id="Shape" fill="#BAD3F5"></path>
                <path d="M35,17.1 L35,19.5 C28.3,24.2 7.3,24.2 0.6,19.5 L0.6,17.1 C1.7,19 8,21.2 17.8,21.2 C27.6,21.2 34,19 35,17.1 Z" id="Shape" fill="#BAD3F5"></path>
                <path d="M35,23 L35,25.4 C28.2,30.1 7.2,30.1 0.6,25.4 L0.6,22.9 C1.7,24.8 8.1,27.1 17.8,27.1 C27.6,27.1 34,24.9 35,23 Z" id="Shape" fill="#BAD3F5"></path>
                <path d="M35,28.9 L35,31.3 C28.3,35.9 7.3,36 0.6,31.3 L0.6,28.9 C1.7,30.8 8,33 17.8,33 C27.8,33 34,30.7 35,28.9 Z" id="Shape" fill="#BAD3F5"></path>
                <ellipse id="Oval" fill="#6097FD" cx="17.8" cy="5.7" rx="17.2" ry="5.3"></ellipse>
            </g>
            <g id="Group" transform="translate(0.000000, 60.000000)">
                <path d="M35,5.9 L35,33.8 C34.2,40.6 1,40.6 0.6,33.8 L0.6,5.9 C0.6,4.2 2.7,3.2 4.3,2.5 C4.6,2.4 6.6,1.7 6.9,1.7 C16.7,-0.9 35,1 35,5.9 Z" id="Shape" fill="#FFFFFF"></path>
                <path d="M35,5.9 L35,33.8 C35,40.4 1,40.8 0.6,33.8 L0.6,5.9 C0.6,4.2 2.7,3.2 4.3,2.5 C15,-1.4 35,0.9 35,5.9 Z" id="Shape" fill="#C5DCFA"></path>
                <path d="M35,11.3 L35,13.7 C28.3,18.4 7.3,18.4 0.6,13.7 L0.6,11.3 C1.7,13.2 8,15.4 17.8,15.4 C27.6,15.4 34,13.2 35,11.3 Z" id="Shape" fill="#BAD3F5"></path>
                <path d="M35,17.2 L35,19.6 C28.3,24.3 7.3,24.3 0.6,19.6 L0.6,17.2 C1.7,19.1 8,21.3 17.8,21.3 C27.6,21.4 34,19.1 35,17.2 Z" id="Shape" fill="#BAD3F5"></path>
                <path d="M35,23.1 L35,25.5 C28.2,30.2 7.2,30.2 0.6,25.5 L0.6,23 C1.7,24.9 8.1,27.2 17.8,27.2 C27.6,27.3 34,25 35,23.1 Z" id="Shape" fill="#BAD3F5"></path>
                <path d="M35,29 L35,31.4 C28.3,36 7.3,36.1 0.6,31.4 L0.6,29 C1.7,30.9 8,33.1 17.8,33.1 C27.8,33.2 34,30.9 35,29 Z" id="Shape" fill="#BAD3F5"></path>
                <ellipse id="Oval" fill="#E1ECFA" cx="17.8" cy="5.8" rx="17.2" ry="5.3"></ellipse>
            </g>
            <g id="Group" transform="translate(114.000000, 70.000000)">
                <path d="M35.5,6.5 L35.5,35.2 C34.7,42.2 0.5,42.2 0.1,35.2 L0.1,6.5 C0.1,4.8 2.3,3.7 3.9,3 C4.2,2.9 6.3,2.2 6.6,2.2 C16.6,-0.6 35.5,1.4 35.5,6.5 Z" id="Shape" fill="#FFFFFF"></path>
                <path d="M35.5,6.5 L35.5,35.2 C35.5,38.4 28,40.1 19.8,40.4 C10.4,40.7 0.3,39 0,35.2 L0,6.5 C0,4.8 2.1,3.7 3.8,3 C14.8,-1.1 35.5,1.3 35.5,6.5 Z" id="Shape" fill="#C5DCFA"></path>
                <path d="M35.5,12 L35.5,14.5 C28.5,19.3 7,19.3 0,14.5 L0,12 C1.1,13.9 7.7,16.3 17.7,16.3 C27.8,16.3 34.4,13.9 35.5,12 Z" id="Shape" fill="#BAD3F5"></path>
                <path d="M35.5,18.1 L35.5,20.6 C28.6,25.4 7,25.4 0,20.6 L0,18.1 C1.1,20 7.7,22.4 17.7,22.4 C27.8,22.3 34.4,20 35.5,18.1 Z" id="Shape" fill="#BAD3F5"></path>
                <path d="M35.5,24.2 L35.5,26.7 C28.5,31.5 6.9,31.5 0,26.7 L0,24.2 C1.1,26.1 7.8,28.5 17.7,28.5 C27.8,28.4 34.4,26.1 35.5,24.2 Z" id="Shape" fill="#BAD3F5"></path>
                <path d="M35.5,30.2 L35.5,32.7 C28.6,37.5 7,37.5 0,32.7 L0,30.2 C1.1,32.1 7.7,34.5 17.7,34.5 C28,34.5 34.4,32.1 35.5,30.2 Z" id="Shape" fill="#BAD3F5"></path>
                <ellipse id="Oval" fill="#6097FD" cx="17.7" cy="6.4" rx="17.7" ry="5.4"></ellipse>
            </g>
            <path d="M134.9,104.5 C134.9,106.6 134.5,108.6 133.8,110.4 C124.4,110.7 114.3,109 114,105.2 L114,88.2 C115.3,87.9 116.6,87.7 118,87.7 C127.3,87.6 134.9,95.2 134.9,104.5 Z" id="Shape" fill="#BAD3F5"></path>
            <g id="Group" transform="translate(114.000000, 46.000000)">
                <path d="M35.5,5.7 L35.5,34.4 C34.7,41.4 0.5,41.4 0.1,34.4 L0.1,5.7 C0.1,4 2.3,2.9 3.9,2.2 C4.2,2.1 6.3,1.4 6.6,1.4 C16.6,-1.3 35.5,0.7 35.5,5.7 Z" id="Shape" fill="#FFFFFF"></path>
                <path d="M35.5,5.7 L35.5,34.4 C35.5,41.2 0.5,41.6 0.1,34.4 L0.1,5.7 C0.1,4 2.3,2.9 3.9,2.2 C14.8,-1.8 35.5,0.6 35.5,5.7 Z" id="Shape" fill="#C5DCFA"></path>
                <path d="M35.5,11.3 L35.5,13.8 C28.5,18.6 7,18.6 0,13.8 L0,11.3 C1.1,13.2 7.7,15.6 17.7,15.6 C27.8,15.5 34.4,13.2 35.5,11.3 Z" id="Shape" fill="#BAD3F5"></path>
                <path d="M35.5,17.4 L35.5,19.9 C28.6,24.7 7,24.7 0,19.9 L0,17.4 C1.1,19.3 7.7,21.7 17.7,21.7 C27.8,21.6 34.4,19.3 35.5,17.4 Z" id="Shape" fill="#BAD3F5"></path>
                <path d="M35.5,23.4 L35.5,25.9 C28.5,30.7 6.9,30.7 0,25.9 L0,23.4 C1.1,25.3 7.8,27.7 17.7,27.7 C27.8,27.7 34.4,25.4 35.5,23.4 Z" id="Shape" fill="#BAD3F5"></path>
                <path d="M35.5,29.5 L35.5,32 C28.6,36.8 7,36.8 0,32 L0,29.5 C1.1,31.4 7.7,33.8 17.7,33.8 C28,33.8 34.4,31.4 35.5,29.5 Z" id="Shape" fill="#BAD3F5"></path>
                <ellipse id="Oval" fill="#E1ECFA" cx="17.7" cy="5.6" rx="17.7" ry="5.4"></ellipse>
            </g>
            <g id="Group" transform="translate(45.000000, 114.000000)">
                <path d="M43.3,7 L43.3,12.6 C42.4,21 1.3,21 0.8,12.6 L0.8,7 C0.8,4.9 3.4,3.6 5.3,2.9 C5.7,2.8 8.1,1.9 8.5,1.9 C20.7,-1.4 43.3,1 43.3,7 Z" id="Shape" fill="#FFFFFF"></path>
                <path d="M43.3,7 L43.3,12.6 C43.3,20.8 1.3,21.2 0.8,12.6 L0.8,7 C0.8,4.9 3.4,3.6 5.3,2.9 C18.5,-2 43.3,0.8 43.3,7 Z" id="Shape" fill="#C5DCFA"></path>
                <ellipse id="Oval" fill="#E1ECFA" cx="22" cy="6.9" rx="21.3" ry="6.5"></ellipse>
            </g>
            <g id="Group" transform="translate(68.000000, 100.000000)">
                <path d="M40.5,27.5 L37.7,32.4 C32.7,39.2 -2.8,18.7 0.9,11.1 L3.7,6.2 C4.7,4.4 7.6,4.6 9.7,4.9 C10.1,5 12.6,5.4 13,5.6 C25.1,8.9 43.5,22.3 40.5,27.5 Z" id="Shape" fill="#FFFFFF"></path>
                <path d="M40.5,27.5 L37.7,32.4 C33.6,39.5 -2.9,18.8 0.9,11.1 L3.7,6.2 C4.7,4.4 7.6,4.6 9.7,4.9 C23.6,7.3 43.6,22.1 40.5,27.5 Z" id="Shape" fill="#C5DCFA"></path>
                <ellipse id="Oval" fill="#E1ECFA" transform="translate(22.101250, 16.882200) rotate(-59.953079) translate(-22.101250, -16.882200) " cx="22.10125" cy="16.8822" rx="6.49988251" ry="21.299615"></ellipse>
            </g>
            <circle id="Oval" fill="#E1ECFA" cx="113.4" cy="103" r="16.8"></circle>
        </g>
    </g>
</svg>