<?xml version="1.0" encoding="UTF-8"?>
<svg width="150px" height="131px" viewBox="0 0 150 131" version="1.1" xmlns="http://www.w3.org/2000/svg" xmlns:xlink="http://www.w3.org/1999/xlink">
    <!-- Generator: Sketch 51.2 (57519) - http://www.bohemiancoding.com/sketch -->
    <title>Cash_2</title>
    <desc>Created with Sketch.</desc>
    <defs></defs>
    <g id="Page-1" stroke="none" stroke-width="1" fill="none" fill-rule="evenodd">
        <g id="Cash_2">
            <g id="Group" transform="translate(0.000000, 45.000000)">
                <path d="M51.9,84.4 L145.2,30.5 C147.6,29.1 147.3,26.6 144.5,25 L105.1,2.2 C102.3,0.6 98,0.4 95.6,1.8 L2.3,55.7 C-0.1,57.1 0.2,59.6 3,61.2 L42.4,84 C45.2,85.6 49.5,85.8 51.9,84.4 Z" id="Shape" fill="#3973F4" fill-rule="nonzero"></path>
                <path d="M144.1,25 L53.1,77.5 C50.7,78.9 46.4,78.7 43.6,77.1 L4.6,54.6 L95.6,2.1 C98,0.7 102.3,0.9 105.1,2.5 L144.1,25 Z" id="Shape" fill="#2767F4" fill-rule="nonzero"></path>
                <path d="M13.1,49.5 L12.7,49.7" id="Shape" fill="#3973F4" fill-rule="nonzero"></path>
                <path d="M91.7,4.1 L22.7,44" id="Shape" stroke="#1676EE" stroke-width="3" stroke-linecap="round" stroke-linejoin="round"></path>
            </g>
            <g id="Group" transform="translate(0.000000, 34.000000)">
                <path d="M51.9,84.2 L145.2,30.3 C147.6,28.9 147.3,26.4 144.5,24.8 L105.1,2 C102.3,0.4 98,0.2 95.6,1.6 L2.3,55.5 C-0.1,56.9 0.2,59.4 3,61 L42.4,83.8 C45.2,85.4 49.5,85.6 51.9,84.2 Z" id="Shape" fill="#3973F4" fill-rule="nonzero"></path>
                <path d="M144.1,24.6 L53.1,77.1 C50.7,78.5 46.4,78.3 43.6,76.7 L4.6,54.2 L95.6,1.7 C98,0.3 102.3,0.5 105.1,2.1 L144.1,24.6 Z" id="Shape" fill="#2767F4" fill-rule="nonzero"></path>
                <path d="M13.1,49.3 L12.7,49.5" id="Shape" fill="#3973F4" fill-rule="nonzero"></path>
                <path d="M91.7,3.9 L22.7,43.7" id="Shape" stroke="#1676EE" stroke-width="3" stroke-linecap="round" stroke-linejoin="round"></path>
            </g>
            <g id="Group" transform="translate(0.000000, 23.000000)">
                <path d="M51.9,83.9 L145.2,30 C147.6,28.6 147.3,26.1 144.5,24.5 L105.1,1.7 C102.3,0.1 98,-0.1 95.6,1.3 L2.3,55.2 C-0.1,56.6 0.2,59.1 3,60.7 L42.4,83.5 C45.2,85.2 49.5,85.4 51.9,83.9 Z" id="Shape" fill="#3973F4" fill-rule="nonzero"></path>
                <path d="M144.1,24.4 L53.1,76.9 C50.7,78.3 46.4,78.1 43.6,76.5 L4.6,54 L95.6,1.5 C98,0.1 102.3,0.3 105.1,1.9 L144.1,24.4 Z" id="Shape" fill="#2767F4" fill-rule="nonzero"></path>
                <path d="M13.1,49.1 L12.7,49.3" id="Shape" stroke="#1676EE" stroke-width="3" stroke-linecap="round" stroke-linejoin="round"></path>
                <path d="M91.7,3.7 L22.7,43.5" id="Shape" stroke="#1676EE" stroke-width="3" stroke-linecap="round" stroke-linejoin="round"></path>
            </g>
            <g id="Group" transform="translate(0.000000, 12.000000)">
                <path d="M145.2,29.9 L51.9,83.8 C49.5,85.2 45.2,85 42.4,83.4 L3,60.6 C0.2,59 -0.1,56.5 2.3,55.1 L4.6,53.8 L95.6,1.3 C98,-0.1 102.3,0.1 105.1,1.7 L144.1,24.2 L144.5,24.4 C147.3,26 147.7,28.4 145.2,29.9 Z" id="Shape" fill="#3973F4" fill-rule="nonzero"></path>
                <path d="M144.1,24.1 L53.1,76.6 C50.7,78 46.4,77.8 43.6,76.2 L4.6,53.7 L95.6,1.2 C98,-0.2 102.3,-2.22044605e-15 105.1,1.6 L144.1,24.1 Z" id="Shape" fill="#2767F4" fill-rule="nonzero"></path>
                <path d="M13.1,48.9 L12.7,49.1" id="Shape" stroke="#1676EE" stroke-width="3" stroke-linecap="round" stroke-linejoin="round"></path>
                <path d="M91.7,3.5 L22.7,43.3" id="Shape" stroke="#1676EE" stroke-width="3" stroke-linecap="round" stroke-linejoin="round"></path>
            </g>
            <g id="Group" fill-rule="nonzero">
                <path d="M51.9,84.1 L145.2,30.2 C147.6,28.8 147.3,26.3 144.5,24.7 L105.1,1.9 C102.3,0.3 98,0.1 95.6,1.5 L2.3,55.4 C-0.1,56.8 0.2,59.3 3,60.9 L42.4,83.7 C45.2,85.3 49.5,85.5 51.9,84.1 Z" id="Shape" fill="#3973F4"></path>
                <path d="M85.6,15 C66.6,26 23.3,51 15.9,55.3 C18.5,56.8 18.5,59.2 15.9,60.7 C19.3,62.7 39.9,74.5 43.2,76.4 C45.8,74.9 50,74.9 52.5,76.4 L130.1,31.6 C127.5,30.1 127.5,27.7 130.1,26.2 C126.9,24.3 106.3,12.4 102.8,10.5 C100.2,12 96,12 93.5,10.5 L85.6,15 Z" id="Shape" fill="#6097FD"></path>
                <path d="M85.6,51.6 C73.8,58.4 52.5,50.9 54.5,41.1 C55.9,33.8 72.6,30.5 83.9,37.1 C91.1,41.2 92.3,47.7 85.6,51.6 Z" id="Shape" fill="#3973F4"></path>
                <path d="M93.6,33.7 C92.7,33.7 91.9,33.2 91.4,32.4 C90.7,31.2 91.1,29.6 92.3,28.9 L99,25 C100.2,24.3 101.8,24.7 102.5,25.9 C103.2,27.1 102.8,28.7 101.6,29.4 L94.9,33.3 C94.5,33.5 94,33.7 93.6,33.7 Z" id="Shape" fill="#3973F4"></path>
                <path d="M43.1,62.8 C42.2,62.8 41.4,62.3 40.9,61.5 C40.2,60.3 40.6,58.7 41.8,58 L48.1,54.3 C49.3,53.6 50.9,54 51.6,55.2 C52.3,56.4 51.9,58 50.7,58.7 L44.4,62.4 C44,62.7 43.5,62.8 43.1,62.8 Z" id="Shape" fill="#3973F4"></path>
            </g>
            <g id="Group" transform="translate(109.000000, 36.000000)" fill-rule="nonzero">
                <g transform="translate(0.000000, 34.000000)">
                    <path d="M40.3,7 L40.3,39.4 C39.4,47.3 0.7,47.3 0.2,39.4 L0.2,7 C0.2,5 2.6,3.8 4.5,3.1 C4.8,3 7.2,2.2 7.5,2.2 C19,-1 40.3,1.3 40.3,7 Z" id="Shape" fill="#FFFFFF"></path>
                    <path d="M40.3,7 L40.3,39.4 C40.3,47.1 0.8,47.5 0.2,39.4 L0.2,7 C0.2,5 2.6,3.8 4.5,3.1 C17,-1.6 40.3,1.1 40.3,7 Z" id="Shape" fill="#C5DCFA"></path>
                    <path d="M40.3,13.2 L40.3,16 C32.4,21.4 8.1,21.4 0.2,16 L0.2,13.2 C1.5,15.4 8.9,18 20.2,18 C31.7,18 39.1,15.4 40.3,13.2 Z" id="Shape" fill="#BAD3F5"></path>
                    <path d="M40.3,20.1 L40.3,22.9 C32.4,28.3 8.1,28.3 0.2,22.9 L0.2,20.1 C1.5,22.3 8.9,24.9 20.2,24.9 C31.7,24.9 39.1,22.3 40.3,20.1 Z" id="Shape" fill="#BAD3F5"></path>
                    <path d="M40.3,27 L40.3,29.8 C32.4,35.2 8,35.2 0.2,29.8 L0.2,26.9 C1.5,29.1 9,31.7 20.2,31.7 C31.7,31.8 39.1,29.2 40.3,27 Z" id="Shape" fill="#BAD3F5"></path>
                    <path d="M40.3,33.8 L40.3,36.6 C32.5,42 8.1,42 0.2,36.6 L0.2,33.8 C1.5,36 8.9,38.6 20.2,38.6 C31.9,38.7 39.1,36 40.3,33.8 Z" id="Shape" fill="#BAD3F5"></path>
                    <ellipse id="Oval" fill="#6097FD" cx="20.3" cy="6.8" rx="20" ry="6.1"></ellipse>
                </g>
                <g>
                    <path d="M40.3,6.9 L40.3,39.3 C39.4,47.1 0.8,47.3 0.2,39.3 L0.2,6.9 C0.2,4.9 2.6,3.7 4.5,3 C4.8,2.9 7.2,2.1 7.5,2.1 C18.8,-1 40.3,1.1 40.3,6.9 Z" id="Shape" fill="#FFFFFF"></path>
                    <path d="M40.3,6.9 L40.3,41.4 C40.3,43.6 35.9,45.3 33.8,45.8 C21.9,49.2 0.6,46.9 0.2,41.4 L0.2,6.9 C0.2,4.9 2.6,3.7 4.5,3 C17,-1.6 40.3,1 40.3,6.9 Z" id="Shape" fill="#C5DCFA"></path>
                    <path d="M40.3,13.1 L40.3,15.9 C32.4,21.3 8.1,21.3 0.2,15.9 L0.2,13.1 C1.5,15.3 8.9,17.9 20.2,17.9 C31.7,18 39.1,15.3 40.3,13.1 Z" id="Shape" fill="#BAD3F5"></path>
                    <path d="M40.3,20 L40.3,22.8 C32.4,28.2 8.1,28.2 0.2,22.8 L0.2,20 C1.5,22.2 8.9,24.8 20.2,24.8 C31.7,24.9 39.1,22.2 40.3,20 Z" id="Shape" fill="#BAD3F5"></path>
                    <path d="M40.3,26.9 L40.3,29.7 C32.4,35.1 8,35.1 0.2,29.7 L0.2,26.8 C1.5,29 9,31.6 20.2,31.6 C31.7,31.7 39.1,29.1 40.3,26.9 Z" id="Shape" fill="#BAD3F5"></path>
                    <path d="M40.3,33.8 L40.3,36.6 C32.5,42 8.1,42 0.2,36.6 L0.2,33.8 C1.5,36 8.9,38.6 20.2,38.6 C31.9,38.6 39.1,35.9 40.3,33.8 Z" id="Shape" fill="#BAD3F5"></path>
                    <path d="M40.3,40.1 L40.3,42.9 C32.5,48.3 8.1,48.3 0.2,42.9 L0.2,40.1 C1.5,42.3 8.9,44.9 20.2,44.9 C31.9,45 39.1,42.2 40.3,40.1 Z" id="Shape" fill="#BAD3F5"></path>
                    <ellipse id="Oval" fill="#E1ECFA" cx="20.3" cy="6.8" rx="20" ry="6.1"></ellipse>
                </g>
            </g>
            <g id="Group" transform="translate(80.000000, 77.000000)" fill-rule="nonzero">
                <path d="M41.3,7.2 L41.3,40.5 C40.4,48.7 0.7,48.6 0.2,40.5 L0.2,7.2 C0.2,5.2 2.7,3.9 4.6,3.2 C4.9,3.1 7.3,2.2 7.7,2.2 C19.3,-0.9 41.3,1.3 41.3,7.2 Z" id="Shape" fill="#FFFFFF"></path>
                <path d="M41.3,7.2 L41.3,40.5 C41.3,41.5 40.4,42.3 39.6,42.9 C30.9,49 0.6,47.3 0.2,40.5 L0.2,7.2 C0.2,5.2 2.7,3.9 4.6,3.2 C17.4,-1.6 41.3,1.2 41.3,7.2 Z" id="Shape" fill="#C5DCFA"></path>
                <path d="M41.3,13.6 L41.3,16.5 C33.2,22.1 8.2,22.1 0.2,16.5 L0.2,13.6 C1.5,15.9 9.1,18.5 20.8,18.5 C32.5,18.5 40.1,15.8 41.3,13.6 Z" id="Shape" fill="#BAD3F5"></path>
                <path d="M41.3,20.7 L41.3,23.6 C33.2,29.2 8.3,29.2 0.2,23.6 L0.2,20.7 C1.5,23 9.1,25.7 20.8,25.7 C32.5,25.6 40.1,22.9 41.3,20.7 Z" id="Shape" fill="#BAD3F5"></path>
                <path d="M41.3,27.7 L41.3,30.6 C33.2,36.2 8.1,36.2 0.2,30.6 L0.2,27.7 C1.5,29.9 9.2,32.7 20.8,32.7 C32.5,32.7 40.1,30 41.3,27.7 Z" id="Shape" fill="#BAD3F5"></path>
                <path d="M41.3,34.8 L41.3,37.7 C33.3,43.2 8.3,43.3 0.2,37.7 L0.2,34.8 C1.5,37.1 9.1,39.7 20.8,39.7 C32.7,39.7 40.1,37 41.3,34.8 Z" id="Shape" fill="#BAD3F5"></path>
                <ellipse id="Oval" fill="#E1ECFA" cx="20.8" cy="7.1" rx="20.6" ry="6.3"></ellipse>
            </g>
        </g>
    </g>
</svg>