<?xml version="1.0" encoding="UTF-8"?>
<svg width="149px" height="140px" viewBox="0 0 149 140" version="1.1" xmlns="http://www.w3.org/2000/svg" xmlns:xlink="http://www.w3.org/1999/xlink">
    <!-- Generator: Sketch 51.2 (57519) - http://www.bohemiancoding.com/sketch -->
    <title>CD</title>
    <desc>Created with Sketch.</desc>
    <defs></defs>
    <g id="Page-1" stroke="none" stroke-width="1" fill="none" fill-rule="evenodd">
        <g id="CD" fill-rule="nonzero">
            <path d="M1.4,56.9 L32.7,5.2 C34.7,2.2 38.1,0.4 41.7,0.4 L109.8,0.4 C113.6,0.4 117.1,2.4 119,5.6 L147.6,57.2" id="Shape" fill="#6097FD"></path>
            <path d="M26.4,107.7 L6.4,107.7 C3.2,107.7 0.5,105.1 0.5,101.8 L0.5,60.2 C0.5,57 3.1,54.3 6.4,54.3 L142.9,54.3 C146.1,54.3 148.8,56.9 148.8,60.2 L148.8,101.8 C148.8,105 146.2,107.7 142.9,107.7 L122.9,107.7" id="Shape" fill="#4988FD"></path>
            <circle id="Oval" fill="#21D3AC" cx="129" cy="67.9" r="3.8"></circle>
            <path d="M107.8,81.4 C117.1,87.5 122.9,96.2 122.9,105.8 C122.9,124.4 101.3,139.5 74.6,139.5 C47.9,139.5 26.3,124.4 26.3,105.8 C26.3,96.5 31.7,88.1 40.4,82" id="Shape" fill="#C5DCFA"></path>
            <ellipse id="Oval" fill="#DFECFD" cx="74.6" cy="103.6" rx="14.7" ry="11"></ellipse>
            <path d="M128.5,84.5 L20.7,84.5 C19,84.5 17.6,83.1 17.6,81.4 C17.6,79.7 19,78.3 20.7,78.3 L128.5,78.3 C130.2,78.3 131.6,79.7 131.6,81.4 C131.6,83.1 130.2,84.5 128.5,84.5 Z" id="Shape" fill="#2767F4"></path>
        </g>
    </g>
</svg>