<?xml version="1.0" encoding="UTF-8"?>
<svg width="148px" height="145px" viewBox="0 0 148 145" version="1.1" xmlns="http://www.w3.org/2000/svg" xmlns:xlink="http://www.w3.org/1999/xlink">
    <!-- Generator: Sketch 51.2 (57519) - http://www.bohemiancoding.com/sketch -->
    <title>Certificate</title>
    <desc>Created with Sketch.</desc>
    <defs></defs>
    <g id="Page-1" stroke="none" stroke-width="1" fill="none" fill-rule="evenodd">
        <g id="Certificate" fill-rule="nonzero">
            <path d="M104.2,135.6 L101.9,130.2 C101.2,128.6 99.3,127.8 97.7,128.5 L91.4,131.2 C89.4,132 87.3,130.1 88.1,128 L98.8,100.4 L119.4,108.3 L108.9,135.6 C108,137.6 105,137.7 104.2,135.6 Z" id="Shape" fill="#FFFFFF"></path>
            <path d="M125.2,143.1 L127.6,137.6 C128.3,136 130.2,135.3 131.8,135.9 L138.1,138.4 C140.1,139.2 142.1,137.2 141.3,135.2 L124.9,92.7 L104.3,100.6 L120.6,142.8 C121.4,145.1 124.3,145.1 125.2,143.1 Z" id="Shape" fill="#FFFFFF"></path>
            <path d="M104.2,135.6 L101.9,130.2 C101.2,128.6 99.3,127.8 97.7,128.5 L91.4,131.2 C89.4,132 87.3,130.1 88.1,128 L98.8,100.4 L119.4,108.3 L108.9,135.6 C108,137.6 105,137.7 104.2,135.6 Z" id="Shape" fill="#2767F4"></path>
            <path d="M125.2,143.1 L127.6,137.6 C128.3,136 130.2,135.3 131.8,135.9 L138.1,138.4 C140.1,139.2 142.1,137.2 141.3,135.2 L124.9,92.7 L104.3,100.6 L120.6,142.8 C121.4,145.1 124.3,145.1 125.2,143.1 Z" id="Shape" fill="#4988FD"></path>
            <path d="M141.4,100 L6.1,100 C2.9,100 0.4,97.4 0.4,94.3 L0.4,6.3 C0.4,3.1 3,0.6 6.1,0.6 L141.4,0.6 C144.6,0.6 147.1,3.2 147.1,6.3 L147.1,94.3 C147.1,97.4 144.6,100 141.4,100 Z" id="Shape" fill="#4988FD"></path>
            <path d="M100.5,16.2 L47,16.2 C45.9,16.2 45,15.3 45,14.2 C45,13.1 45.9,12.2 47,12.2 L100.5,12.2 C101.6,12.2 102.5,13.1 102.5,14.2 C102.5,15.3 101.6,16.2 100.5,16.2 Z" id="Shape" fill="#FFFFFF"></path>
            <path d="M88.7,24.9 L58.8,24.9 C57.7,24.9 56.8,24 56.8,22.9 C56.8,21.8 57.7,20.9 58.8,20.9 L88.7,20.9 C89.8,20.9 90.7,21.8 90.7,22.9 C90.7,24 89.8,24.9 88.7,24.9 Z" id="Shape" fill="#FFFFFF"></path>
            <path d="M101.5,47.3 L83.3,47.3 C82.2,47.3 81.3,46.4 81.3,45.3 C81.3,44.2 82.2,43.3 83.3,43.3 L101.5,43.3 C102.6,43.3 103.5,44.2 103.5,45.3 C103.5,46.4 102.6,47.3 101.5,47.3 Z" id="Shape" fill="#DFECFD"></path>
            <path d="M69.3,47.3 L12,47.3 C10.9,47.3 10,46.4 10,45.3 C10,44.2 10.9,43.3 12,43.3 L69.3,43.3 C70.4,43.3 71.3,44.2 71.3,45.3 C71.3,46.4 70.4,47.3 69.3,47.3 Z" id="Shape" fill="#DFECFD"></path>
            <path d="M80.1,60.3 L72.4,60.3 C71.3,60.3 70.4,59.4 70.4,58.3 C70.4,57.2 71.3,56.3 72.4,56.3 L80.1,56.3 C81.2,56.3 82.1,57.2 82.1,58.3 C82.1,59.4 81.2,60.3 80.1,60.3 Z" id="Shape" fill="#DFECFD"></path>
            <path d="M60.3,60.3 L28.1,60.3 C27,60.3 26.1,59.4 26.1,58.3 C26.1,57.2 27,56.3 28.1,56.3 L60.3,56.3 C61.4,56.3 62.3,57.2 62.3,58.3 C62.3,59.4 61.4,60.3 60.3,60.3 Z" id="Shape" fill="#DFECFD"></path>
            <path d="M16.4,60.3 L12.1,60.3 C11,60.3 10.1,59.4 10.1,58.3 C10.1,57.2 11,56.3 12.1,56.3 L16.4,56.3 C17.5,56.3 18.4,57.2 18.4,58.3 C18.4,59.4 17.5,60.3 16.4,60.3 Z" id="Shape" fill="#DFECFD"></path>
            <path d="M14.9,88.2 C14.8,88.2 14.8,88.2 14.7,88.2 C13.6,88.1 12.8,87.1 12.9,86 C13.3,81.5 16.5,77.4 20.8,76 C25.1,74.6 30.2,76 33.1,79.5 C33.3,79.8 33.6,80.1 33.8,80.4 C34.5,81.3 35.4,82.4 35.9,82.3 C36.4,82.2 36.9,81.3 37.4,80.4 C37.8,79.7 38.3,78.8 38.9,78.1 C40.4,76.4 42.8,75.6 45,76 C47.3,76.4 49.2,77.9 50.1,80 C50.5,81 50.1,82.2 49,82.6 C48,83 46.8,82.6 46.4,81.5 C46,80.7 45.2,80 44.3,79.9 C43.4,79.7 42.4,80.1 41.8,80.8 C41.4,81.2 41.1,81.8 40.7,82.4 C39.8,83.9 38.6,86 36.2,86.2 C33.4,86.5 31.7,84.4 30.5,82.8 C30.3,82.5 30.1,82.3 29.9,82 C28,79.8 24.6,78.8 21.9,79.7 C19.1,80.6 17,83.3 16.7,86.2 C16.8,87.4 15.9,88.2 14.9,88.2 Z" id="Shape" fill="#DFECFD"></path>
            <path d="M137.4,95.3 C137.2,96.5 136.5,97.4 135.4,98.3 C134.7,98.9 134,99.4 133.3,100 C132.1,101 131.3,102.2 130.8,103.7 C130.5,104.5 130.2,105.3 129.9,106.1 C129.1,108.2 127.5,109.2 125.3,109.3 C124.4,109.3 123.6,109.4 122.7,109.4 C121.3,109.5 120,109.8 118.8,110.6 C117.7,111.3 116.7,112 115.6,112.6 C115.3,112.8 114.9,112.9 114.6,113 C113.5,113.3 112.4,113.2 111.3,112.6 C110.5,112.2 109.7,111.7 108.9,111.1 C107.9,110.4 106.9,109.9 105.8,109.6 C105,109.4 104.1,109.3 103.2,109.3 L103.1,109.3 C102.3,109.3 101.4,109.2 100.6,109.1 C99,108.9 97.9,108 97.2,106.6 C96.8,105.8 96.4,104.9 96.2,104 C95.6,102 94.4,100.5 92.8,99.3 C92.1,98.7 91.3,98.2 90.7,97.5 C89.4,96.3 89.1,94.8 89.5,93.1 C89.7,92.3 89.8,91.5 90.1,90.8 C90.8,88.9 90.8,87 90.1,85 C89.9,84.3 89.7,83.6 89.5,82.9 C88.9,80.7 89.6,78.9 91.3,77.5 C91.8,77.1 92.3,76.6 92.8,76.3 C94.4,75.2 95.5,73.6 96.1,71.8 C96.4,70.9 96.8,70 97.2,69.1 C98,67.5 99.4,66.7 101.2,66.6 C102.2,66.5 103.3,66.5 104.3,66.4 C106.1,66.4 107.6,65.6 109,64.6 C109.5,64.2 110.1,63.9 110.7,63.5 C112.6,62.3 114.5,62.3 116.4,63.5 C117.2,64 117.9,64.5 118.7,65 C120.1,65.9 121.5,66.3 123.2,66.4 C124.4,66.4 125.5,66.5 126.7,66.7 C128.1,66.9 129.2,67.8 129.8,69.1 C130.1,69.7 130.4,70.3 130.6,70.9 C131.3,73.5 132.9,75.5 135,77 C135.7,77.5 136.3,78.1 136.8,78.7 C137.6,79.5 137.8,80.4 137.8,82 C137.7,82.2 137.7,82.6 137.6,83 C137.5,83.6 137.3,84.2 137.1,84.9 C136.6,86.4 136.5,88 136.8,89.5 C136.9,90 137,90.4 137.2,90.9 C137.4,91.6 137.6,92.3 137.7,93 C137.5,93.9 137.5,94.6 137.4,95.3 Z" id="Shape" fill="#DFECFD"></path>
            <circle id="Oval" fill="#FFFFFF" cx="113.2" cy="88" r="12.4"></circle>
        </g>
    </g>
</svg>