<?xml version="1.0" encoding="UTF-8"?>
<svg width="153px" height="139px" viewBox="0 0 153 139" version="1.1" xmlns="http://www.w3.org/2000/svg" xmlns:xlink="http://www.w3.org/1999/xlink">
    <!-- Generator: Sketch 51.2 (57519) - http://www.bohemiancoding.com/sketch -->
    <title>Charts</title>
    <desc>Created with Sketch.</desc>
    <defs></defs>
    <g id="Page-1" stroke="none" stroke-width="1" fill="none" fill-rule="evenodd">
        <g id="Charts" fill-rule="nonzero">
            <g id="Group" transform="translate(32.000000, 31.000000)">
                <path d="M15.1,82 L3.3,82 C2,82 0.9,80.9 0.9,79.6 L0.9,3.2 C0.9,1.9 2,0.8 3.3,0.8 L15.1,0.8 C16.4,0.8 17.5,1.9 17.5,3.2 L17.5,79.6 C17.5,80.9 16.4,82 15.1,82 Z" id="Shape" fill="#21D3AC"></path>
                <path d="M46.7,82 L34.9,82 C33.6,82 32.5,80.9 32.5,79.6 L32.5,29.2 C32.5,27.9 33.6,26.8 34.9,26.8 L46.7,26.8 C48,26.8 49.1,27.9 49.1,29.2 L49.1,79.6 C49.1,80.9 48,82 46.7,82 Z" id="Shape" fill="#4988FD"></path>
                <path d="M78.3,82 L66.5,82 C65.2,82 64.1,80.9 64.1,79.6 L64.1,17.3 C64.1,16 65.2,14.9 66.5,14.9 L78.3,14.9 C79.6,14.9 80.7,16 80.7,17.3 L80.7,79.6 C80.7,80.9 79.6,82 78.3,82 Z" id="Shape" fill="#4988FD"></path>
                <path d="M109.9,82 L98.1,82 C96.8,82 95.7,80.9 95.7,79.6 L95.7,51.4 C95.7,50.1 96.8,49 98.1,49 L109.9,49 C111.2,49 112.3,50.1 112.3,51.4 L112.3,79.6 C112.3,80.9 111.2,82 109.9,82 Z" id="Shape" fill="#6097FD"></path>
            </g>
            <path d="M136.2,52.6 C135.5,52.6 134.8,52.3 134.3,51.8 L104.7,18.3 L75.4,41.2 C74.4,42 72.9,41.9 72.1,41 L36.9,4.4 C35.9,3.4 36,1.8 37,0.9 C38,-0.1 39.6,-3.33066907e-16 40.5,1 L74.2,36 L103.6,13 C104.6,12.2 106.1,12.3 107,13.3 L138.2,48.5 C139.1,49.5 139,51.1 138,52 C137.4,52.4 136.8,52.6 136.2,52.6 Z" id="Shape" fill="#4988FD"></path>
            <path d="M137.5,54 L126.7,54 C125.3,54 124.2,52.9 124.2,51.5 C124.2,50.1 125.3,49 126.7,49 L135,49 L135,40.7 C135,39.3 136.1,38.2 137.5,38.2 C138.9,38.2 140,39.3 140,40.7 L140,51.5 C140,52.9 138.9,54 137.5,54 Z" id="Shape" fill="#4988FD"></path>
            <path d="M150.2,130.7 C150.2,130.7 150.2,130.7 150.2,130.7 L2.9,130.2 C1.5,130.2 0.4,129.1 0.4,127.7 C0.4,126.3 1.5,125.2 2.9,125.2 C2.9,125.2 2.9,125.2 2.9,125.2 L150.2,125.7 C151.6,125.7 152.7,126.8 152.7,128.2 C152.7,129.6 151.6,130.7 150.2,130.7 Z" id="Shape" fill="#DFECFD"></path>
            <path d="M10.5,138.2 C10.5,138.2 10.5,138.2 10.5,138.2 C9.1,138.2 8,137.1 8,135.7 L8.4,7.4 C8.4,6 9.5,4.9 10.9,4.9 C10.9,4.9 10.9,4.9 10.9,4.9 C12.3,4.9 13.4,6 13.4,7.4 L13.4,21.1 L13,135.7 C13,137.1 11.9,138.2 10.5,138.2 Z" id="Shape" fill="#DFECFD"></path>
        </g>
    </g>
</svg>