<?xml version="1.0" encoding="UTF-8"?>
<svg width="123px" height="147px" viewBox="0 0 123 147" version="1.1" xmlns="http://www.w3.org/2000/svg" xmlns:xlink="http://www.w3.org/1999/xlink">
    <!-- Generator: Sketch 51.2 (57519) - http://www.bohemiancoding.com/sketch -->
    <title>Charts_1_</title>
    <desc>Created with Sketch.</desc>
    <defs></defs>
    <g id="Page-1" stroke="none" stroke-width="1" fill="none" fill-rule="evenodd">
        <g id="Charts_1_" fill-rule="nonzero">
            <path d="M121.9,28.8 L109.2,3.1 C108.1,0.8 105.3,-0.1 103,1 L77.3,13.7 C75,14.8 74.1,17.6 75.2,19.9 C76.3,22.2 79.1,23.1 81.4,22 L97.2,14.2 C80.7,56.7 27,82.4 4.4,87.7 C1.9,88.3 0.4,90.8 0.9,93.3 C1.4,95.4 3.3,96.9 5.4,96.9 C5.8,96.9 6.1,96.9 6.5,96.8 C31.7,90.9 88.1,63.9 105.9,17.3 L113.6,33 C114.4,34.6 116,35.6 117.8,35.6 C118.5,35.6 119.2,35.4 119.8,35.1 C122.1,33.9 123,31.1 121.9,28.8 Z" id="Shape" fill="#21D3AC"></path>
            <path d="M121.9,28.8 L109.2,3.1 C108.1,0.8 105.3,-0.1 103,1 L77.3,13.7 C75,14.8 74.1,17.6 75.2,19.9 C76.3,22.2 79.1,23.1 81.4,22 L97.2,14.2 C80.7,56.7 27,82.4 4.4,87.7 C1.9,88.3 0.4,90.8 0.9,93.3 C1.4,95.4 3.3,96.9 5.4,96.9 C5.8,96.9 6.1,96.9 6.5,96.8 C31.7,90.9 88.1,63.9 105.9,17.3 L113.6,33 C114.4,34.6 116,35.6 117.8,35.6 C118.5,35.6 119.2,35.4 119.8,35.1 C122.1,33.9 123,31.1 121.9,28.8 Z" id="Shape" fill="#21D3AC"></path>
            <path d="M24.5,146.3 L4.8,146.3 C2.9,146.3 1.4,144.8 1.4,142.9 L1.4,121.1 C1.4,119.2 2.9,117.7 4.8,117.7 L24.5,117.7 C26.4,117.7 27.9,119.2 27.9,121.1 L27.9,142.9 C27.8,144.8 26.3,146.3 24.5,146.3 Z" id="Shape" fill="#4988FD"></path>
            <path d="M68.1,146.3 L48.4,146.3 C46.5,146.3 45,144.8 45,142.9 L45,95.7 C45,93.8 46.5,92.3 48.4,92.3 L68.1,92.3 C70,92.3 71.5,93.8 71.5,95.7 L71.5,142.9 C71.4,144.8 69.9,146.3 68.1,146.3 Z" id="Shape" fill="#4988FD"></path>
            <path d="M111.7,146.3 L92,146.3 C90.1,146.3 88.6,144.8 88.6,142.9 L88.6,60.9 C88.6,59 90.1,57.5 92,57.5 L111.7,57.5 C113.6,57.5 115.1,59 115.1,60.9 L115.1,142.9 C115,144.8 113.5,146.3 111.7,146.3 Z" id="Shape" fill="#4988FD"></path>
        </g>
    </g>
</svg>