<?xml version="1.0" encoding="UTF-8"?>
<svg width="149px" height="147px" viewBox="0 0 149 147" version="1.1" xmlns="http://www.w3.org/2000/svg" xmlns:xlink="http://www.w3.org/1999/xlink">
    <!-- Generator: Sketch 51.2 (57519) - http://www.bohemiancoding.com/sketch -->
    <title>Charger</title>
    <desc>Created with Sketch.</desc>
    <defs></defs>
    <g id="Page-1" stroke="none" stroke-width="1" fill="none" fill-rule="evenodd">
        <g id="Charger" fill-rule="nonzero">
            <path d="M77.8,146.6 C55,146.6 36.4,128 36.4,105.2 C36.4,82.4 55,63.8 77.8,63.8 C100.6,63.8 119.2,82.4 119.2,105.2 C119.1,128.1 100.6,146.6 77.8,146.6 Z M77.8,71.1 C59,71.1 43.6,86.4 43.6,105.3 C43.6,124.2 58.9,139.5 77.8,139.5 C96.6,139.5 112,124.2 112,105.3 C112,86.4 96.6,71.1 77.8,71.1 Z" id="Shape" fill="#D6E7FC"></path>
            <path d="M77.8,146.8 C45.3,146.8 18.9,120.4 18.9,87.9 L18.9,72 C18.9,70 20.5,68.4 22.5,68.4 C24.5,68.4 26.1,70 26.1,72 L26.1,87.9 C26.1,116.4 49.3,139.6 77.8,139.6 C106.3,139.6 129.5,116.4 129.5,87.9 L129.5,71.9 C129.5,69.9 131.1,68.3 133.1,68.3 C135.1,68.3 136.7,69.9 136.7,71.9 L136.7,87.9 C136.7,120.4 110.2,146.8 77.8,146.8 Z" id="Shape" fill="#D6E7FC"></path>
            <path d="M39.3,72 L5.5,72 C3,72 0.9,69.9 0.9,67.4 L0.9,26.9 C0.9,24.4 3,22.3 5.5,22.3 L39.3,22.3 C41.8,22.3 43.9,24.4 43.9,26.9 L43.9,67.4 C43.9,69.9 41.8,72 39.3,72 Z" id="Shape" fill="#4988FD"></path>
            <path d="M7.3,22.1 L7.3,3.9 C7.3,2.1 8.7,0.7 10.5,0.7 L34.2,0.7 C36,0.7 37.4,2.1 37.4,3.9 L37.4,22.2" id="Shape" fill="#C5DCFA"></path>
            <path d="M145.5,71.9 L121,71.9 C119.2,71.9 117.7,70.4 117.7,68.6 L117.7,39.2 C117.7,37.4 119.2,35.9 121,35.9 L145.5,35.9 C147.3,35.9 148.8,37.4 148.8,39.2 L148.8,68.6 C148.9,70.4 147.4,71.9 145.5,71.9 Z" id="Shape" fill="#4988FD"></path>
            <path d="M122.3,35.8 L122.3,23.1 C122.3,21.8 123.4,20.8 124.6,20.8 L141.8,20.8 C143.1,20.8 144.1,21.9 144.1,23.1 L144.1,35.8" id="Shape" fill="#C5DCFA"></path>
            <path d="M89.8,102.6 L75,123 C74.4,123.8 73.2,123.3 73.4,122.3 L75.3,109.3 L67.7,109.3 C66.9,109.3 66.5,108.4 66.9,107.8 L68.6,105.5 L81.7,87.4 C82.3,86.6 83.5,87.1 83.3,88.1 L81.3,101.2 L89,101.1 C89.2,101.1 89.4,101.2 89.5,101.3 C89.9,101.6 90.1,102.2 89.8,102.6 Z" id="Shape" fill="#4988FD"></path>
            <path d="M16.7,17.2 C15.6,17.2 14.6,16.3 14.6,15.1 L14.6,8.3 C14.6,7.2 15.5,6.2 16.7,6.2 C17.9,6.2 18.8,7.1 18.8,8.3 L18.8,15.1 C18.8,16.3 17.8,17.2 16.7,17.2 Z" id="Shape" fill="#FFFFFF"></path>
            <path d="M27.7,17.2 C26.6,17.2 25.6,16.3 25.6,15.1 L25.6,8.3 C25.6,7.2 26.5,6.2 27.7,6.2 C28.9,6.2 29.8,7.1 29.8,8.3 L29.8,15.1 C29.8,16.3 28.8,17.2 27.7,17.2 Z" id="Shape" fill="#FFFFFF"></path>
        </g>
    </g>
</svg>