<?xml version="1.0" encoding="UTF-8"?>
<svg width="107px" height="149px" viewBox="0 0 107 149" version="1.1" xmlns="http://www.w3.org/2000/svg" xmlns:xlink="http://www.w3.org/1999/xlink">
    <!-- Generator: Sketch 51.2 (57519) - http://www.bohemiancoding.com/sketch -->
    <title>Click</title>
    <desc>Created with Sketch.</desc>
    <defs></defs>
    <g id="Page-1" stroke="none" stroke-width="1" fill="none" fill-rule="evenodd">
        <g id="Click" fill-rule="nonzero">
            <path d="M106.6,79.2 L106.6,128.9 C106.6,139.8 97.8,148.7 86.8,148.7 L54,148.7 C50.7,148.7 47.5,147.5 45,145.4 C37.3,138.9 20.6,124.6 17.6,119.9 C17.6,119.9 17.6,119.8 17.6,119.8 C16.7,118.5 16.1,116.9 16.1,115.2 L16.1,85.6 C25,85.6 32.2,92.8 32.2,101.7 L32.2,113.8 L35.1,113.8 L35.1,43.5 C35.1,39.1 38.7,35.4 43.2,35.4 C47.7,35.4 51.3,39 51.3,43.5 L51.3,77.8 L54,77.8 L54,66.4 C54,61.9 57.6,58.3 62.1,58.3 C66.6,58.3 70.2,61.9 70.2,66.4 L70.2,78 L73.3,78 L73.3,72.3 C73.3,68.1 76.7,64.8 80.8,64.8 C85,64.8 88.3,68.2 88.3,72.3 L88.3,78.1 L91.7,78.1 C92.3,74.5 95.4,71.8 99.1,71.8 C103.3,71.6 106.6,75 106.6,79.2 Z" id="Shape" fill="#DFECFD"></path>
            <g id="Group" fill="#4988FD">
                <path d="M41.7,21.7 C40,21.7 38.7,20.4 38.7,18.7 L38.7,3.7 C38.7,2 40,0.7 41.7,0.7 C43.4,0.7 44.7,2 44.7,3.7 L44.7,18.7 C44.7,20.4 43.4,21.7 41.7,21.7 Z" id="Shape"></path>
                <path d="M25.3,28.8 C24.5,28.8 23.8,28.5 23.2,27.9 L12.6,17.3 C11.4,16.1 11.4,14.2 12.6,13.1 C13.8,11.9 15.7,11.9 16.8,13.1 L27.4,23.7 C28.6,24.9 28.6,26.8 27.4,27.9 C26.8,28.5 26,28.8 25.3,28.8 Z" id="Shape"></path>
                <path d="M18.6,45.4 L3.6,45.4 C1.9,45.4 0.6,44.1 0.6,42.4 C0.6,40.7 1.9,39.4 3.6,39.4 L18.6,39.4 C20.3,39.4 21.6,40.7 21.6,42.4 C21.6,44.1 20.3,45.4 18.6,45.4 Z" id="Shape"></path>
                <path d="M80.3,44.8 L65.3,44.8 C63.6,44.8 62.3,43.5 62.3,41.8 C62.3,40.1 63.6,38.8 65.3,38.8 L80.3,38.8 C82,38.8 83.3,40.1 83.3,41.8 C83.3,43.5 82,44.8 80.3,44.8 Z" id="Shape"></path>
                <path d="M15.1,72.4 C14.3,72.4 13.6,72.1 13,71.5 C11.8,70.3 11.8,68.4 13,67.3 L23.6,56.7 C24.8,55.5 26.7,55.5 27.8,56.7 C29,57.9 29,59.8 27.8,60.9 L17.2,71.5 C16.7,72.1 15.9,72.4 15.1,72.4 Z" id="Shape"></path>
                <path d="M58.3,28.3 C57.5,28.3 56.8,28 56.2,27.4 C55,26.2 55,24.3 56.2,23.2 L66.8,12.6 C68,11.4 69.9,11.4 71,12.6 C72.2,13.8 72.2,15.7 71,16.8 L60.4,27.4 C59.9,28 59.1,28.3 58.3,28.3 Z" id="Shape"></path>
            </g>
        </g>
    </g>
</svg>