<?xml version="1.0" encoding="UTF-8"?>
<svg width="147px" height="140px" viewBox="0 0 147 140" version="1.1" xmlns="http://www.w3.org/2000/svg" xmlns:xlink="http://www.w3.org/1999/xlink">
    <!-- Generator: Sketch 51.2 (57519) - http://www.bohemiancoding.com/sketch -->
    <title>Closed</title>
    <desc>Created with Sketch.</desc>
    <defs></defs>
    <g id="Page-1" stroke="none" stroke-width="1" fill="none" fill-rule="evenodd">
        <g id="Closed" fill-rule="nonzero">
            <g id="Group" transform="translate(17.000000, 0.000000)" fill="#3973F4">
                <path d="M95.4,48.5 L45.8,13.5 C46.2,11.8 46.2,10 45.8,8.3 C44.3,2.5 38.4,-1.1 32.6,0.4 C26.8,1.9 23.2,7.8 24.7,13.6 C25.2,15.4 26.1,17.1 27.4,18.5 L0.3,72.4 C-0.3,73.6 0.2,75.1 1.4,75.8 C1.8,76 2.1,76.1 2.5,76.1 C3.4,76.1 4.3,75.6 4.7,74.7 L32.7,19.1 C33.3,18 32.9,16.6 31.9,15.9 C30.7,15.1 29.9,13.9 29.5,12.5 C28.7,9.3 30.6,6.1 33.8,5.3 C37,4.5 40.2,6.4 40.9,9.6 C41.2,10.9 41.1,12.3 40.5,13.5 C40,14.6 40.3,15.9 41.3,16.6 L92.5,52.7 C93.6,53.5 95.2,53.2 96,52.1 C96.8,50.9 96.5,49.3 95.4,48.5 Z" id="Shape"></path>
                <circle id="Oval" transform="translate(35.022820, 10.468060) rotate(-14.034854) translate(-35.022820, -10.468060) " cx="35.02282" cy="10.46806" r="2.99985039"></circle>
            </g>
            <path d="M139.1,110.8 L23.8,139.6 C18.8,140.8 13.8,137.8 12.5,132.8 L0.7,85.6 C-0.5,80.6 2.5,75.6 7.5,74.3 L122.8,45.5 C127.8,44.3 132.8,47.3 134.1,52.3 L145.9,99.5 C147.1,104.5 144.1,109.5 139.1,110.8 Z" id="Shape" fill="#4988FD"></path>
            <g id="Group" transform="translate(21.000000, 72.000000)" fill="#FFFFFF">
                <path d="M11.3,36.9 C14.2,36.2 15.4,33.6 15.4,33.6 L18.8,35.9 C18.8,35.9 17.3,39.8 12.3,41 C6.9,42.2 1.8,39 0.7,34.2 C-0.4,29.3 2.8,24.2 8.1,23 C13,21.9 16.1,24.8 16.1,24.8 L14,28.4 C14,28.4 11.9,26.6 9.1,27.2 C6.3,27.8 4.7,30.4 5.3,33.2 C5.9,36 8.5,37.6 11.3,36.9 Z" id="Shape"></path>
                <polygon id="Shape" points="22.9 37.3 19 20.2 23.6 19.1 26.6 32 34.2 30.3 35.2 34.4"></polygon>
                <path d="M46.2,31.7 C40.8,32.9 35.7,29.7 34.6,24.9 C33.5,20 36.7,14.9 42,13.7 C47.4,12.5 52.5,15.7 53.6,20.5 C54.8,25.4 51.6,30.5 46.2,31.7 Z M45.3,27.6 C48,27 49.6,24.4 48.9,21.6 C48.3,18.8 45.7,17.2 43,17.8 C40.3,18.4 38.7,21 39.4,23.8 C40,26.6 42.6,28.2 45.3,27.6 Z" id="Shape"></path>
                <path d="M54.8,16.3 C54.2,13.6 56.2,10.5 60.1,9.6 C64.2,8.6 66.6,10.7 66.6,10.7 L64.6,14.1 C64.6,14.1 63.2,13 61.5,13.4 C60.4,13.7 59.8,14.6 60,15.3 C60.5,17.6 68.2,14.6 69.5,20.6 C70.2,23.6 68.2,26.8 64,27.8 C59.5,28.8 56.5,26.4 56.5,26.4 L58.5,23 C58.5,23 60.4,24.5 62.6,24 C63.9,23.7 64.6,22.6 64.4,21.7 C63.8,19.2 56.2,22.2 54.8,16.3 Z" id="Shape"></path>
                <polygon id="Shape" points="86.9 17 87.8 20.9 74.4 24 70.5 6.9 83.7 3.9 84.6 7.8 76.1 9.8 76.7 12.5 83.3 11 84.1 14.7 77.5 16.2 78.2 19.1"></polygon>
                <path d="M94.4,0.6 C99.6,-0.6 104.3,2.3 105.4,7.1 C106.5,11.9 103.6,16.5 98.3,17.7 L91.7,19.2 L87.8,2.1 L94.4,0.6 Z M93.4,5.2 L95.4,14 L97.3,13.6 C99.6,13.1 101.3,10.8 100.7,8.2 C100.1,5.6 97.9,4.2 95.3,4.8 L93.4,5.2 Z" id="Shape"></path>
            </g>
        </g>
    </g>
</svg>