<?xml version="1.0" encoding="UTF-8"?>
<svg width="156px" height="108px" viewBox="0 0 156 108" version="1.1" xmlns="http://www.w3.org/2000/svg" xmlns:xlink="http://www.w3.org/1999/xlink">
    <!-- Generator: Sketch 51.2 (57519) - http://www.bohemiancoding.com/sketch -->
    <title>Cloud_2</title>
    <desc>Created with Sketch.</desc>
    <defs></defs>
    <g id="Page-1" stroke="none" stroke-width="1" fill="none" fill-rule="evenodd">
        <g id="Cloud_2" fill-rule="nonzero">
            <path d="M155.9,60.7 C155.9,71.2 149.3,80.2 140.1,83.8 C137.3,84.9 134.3,85.5 131.1,85.5 L25.6,85.5 C17.9,85.5 11.1,82 6.5,76.6 C2.9,72.3 0.7,66.8 0.7,60.7 C0.7,58.4 1,56.2 1.6,54.1 C4.5,43.6 14.1,35.9 25.5,35.9 L25.6,35.9 C28.9,22.1 41.3,11.9 56.1,11.9 C62.3,11.9 68.1,13.7 73,16.8 C79.1,7.1 89.9,0.6 102.2,0.6 C121.3,0.6 136.7,16.1 136.7,35.1 C136.7,35.6 136.7,36.1 136.7,36.6 C145.5,38.7 152.5,45.5 154.8,54.1 C155.6,56.2 155.9,58.4 155.9,60.7 Z" id="Shape" fill="#C5DCFA"></path>
            <path d="M155,54.1 C152.9,61.7 147.3,67.8 140.1,70.6 C137.3,71.7 134.3,72.3 131.1,72.3 L25.6,72.3 C17.9,72.3 11.1,68.8 6.5,63.4 C4.3,60.7 2.6,57.6 1.6,54.1 C4.5,43.6 14.1,35.9 25.5,35.9 L25.6,35.9 C28.9,22.1 41.3,11.9 56.1,11.9 C62.3,11.9 68.1,13.7 73,16.8 C79.1,7.1 89.9,0.6 102.2,0.6 C121.3,0.6 136.7,16.1 136.7,35.1 C136.7,35.6 136.7,36.1 136.7,36.6 C145.7,38.7 152.6,45.4 155,54.1 Z" id="Shape" fill="#DFECFD"></path>
            <path d="M102.1,68.5 L74.2,106.8 C73.2,108.2 70.9,107.3 71.2,105.6 L74.7,81.2 L60.4,81.3 C59,81.3 58.1,79.7 59,78.5 L62,74.4 L86.9,40.2 C87.9,38.8 90.2,39.7 90,41.5 L86.2,66 L100.7,65.8 C101.1,65.8 101.4,65.9 101.7,66.1 C102.5,66.6 102.8,67.7 102.1,68.5 Z" id="Shape" fill="#3973F4"></path>
            <path d="M101.7,66.1 L76.8,100.3 C75.7,101.7 73.5,100.8 73.7,99 L77.2,74.6 L62.9,74.7 C62.5,74.7 62.2,74.6 61.9,74.4 L86.8,40.2 C87.8,38.8 90.1,39.7 89.9,41.5 L86.1,66 L100.6,65.8 C101.1,65.8 101.4,65.9 101.7,66.1 Z" id="Shape" fill="#4988FD"></path>
        </g>
    </g>
</svg>