<?xml version="1.0" encoding="UTF-8"?>
<svg width="149px" height="124px" viewBox="0 0 149 124" version="1.1" xmlns="http://www.w3.org/2000/svg" xmlns:xlink="http://www.w3.org/1999/xlink">
    <!-- Generator: Sketch 51.2 (57519) - http://www.bohemiancoding.com/sketch -->
    <title>Cloud</title>
    <desc>Created with Sketch.</desc>
    <defs></defs>
    <g id="Page-1" stroke="none" stroke-width="1" fill="none" fill-rule="evenodd">
        <g id="Cloud" fill-rule="nonzero">
            <g id="Group" transform="translate(0.000000, 65.000000)">
                <path d="M74.3,53.7 C72.9,53.7 71.8,52.6 71.8,51.2 L71.8,2.6 C71.8,1.2 72.9,0.1 74.3,0.1 C75.7,0.1 76.8,1.2 76.8,2.6 L76.8,51.2 C76.8,52.6 75.6,53.7 74.3,53.7 Z" id="Shape" fill="#6097FD"></path>
                <path d="M145.6,55.7 L2.9,55.7 C1.5,55.7 0.4,54.6 0.4,53.2 C0.4,51.8 1.5,50.7 2.9,50.7 L145.6,50.7 C147,50.7 148.1,51.8 148.1,53.2 C148.1,54.6 147,55.7 145.6,55.7 Z" id="Shape" fill="#6097FD"></path>
                <path d="M85.2,50.1 L85.2,55.3 C85.2,57.2 83.7,58.7 81.8,58.7 L66.7,58.7 C64.8,58.7 63.3,57.2 63.3,55.3 L63.3,50.1 C63.3,48.2 64.8,46.7 66.7,46.7 L81.8,46.7 C83.7,46.8 85.2,48.3 85.2,50.1 Z" id="Shape" fill="#2767F4"></path>
                <path d="M85.2,50.1 L85.2,52.9 C85.2,54.8 83.7,56.3 81.8,56.3 L66.7,56.3 C64.8,56.3 63.3,54.8 63.3,52.9 L63.3,50.1 C63.3,48.2 64.8,46.7 66.7,46.7 L81.8,46.7 C83.7,46.8 85.2,48.3 85.2,50.1 Z" id="Shape" fill="#3973F4"></path>
            </g>
            <path d="M146.9,57.1 C146.9,67 140.7,75.4 132.1,78.8 C129.5,79.8 126.7,80.4 123.7,80.4 L24.9,80.4 C17.7,80.4 11.3,77.1 7,72 C3.6,68 1.6,62.8 1.6,57.1 C1.6,55 1.9,52.9 2.4,50.9 C5.1,41.1 14.1,33.8 24.8,33.8 L24.9,33.8 C28,20.9 39.6,11.3 53.5,11.3 C59.3,11.3 64.8,13 69.3,15.9 C75,6.8 85.2,0.7 96.7,0.7 C114.6,0.7 129.1,15.2 129.1,33 C129.1,33.5 129.1,33.9 129.1,34.4 C137.3,36.4 143.9,42.7 146.1,50.8 C146.6,52.9 146.9,54.9 146.9,57.1 Z" id="Shape" fill="#C5DCFA"></path>
            <path d="M146.1,50.9 C144.1,58 138.9,63.7 132.1,66.4 C129.5,67.4 126.7,68 123.7,68 L24.9,68 C17.7,68 11.3,64.7 7,59.6 C4.9,57.1 3.3,54.1 2.5,50.9 C5.2,41.1 14.2,33.8 24.9,33.8 L25,33.8 C28.1,20.9 39.7,11.3 53.6,11.3 C59.4,11.3 64.9,13 69.4,15.9 C75.1,6.8 85.3,0.7 96.8,0.7 C114.7,0.7 129.2,15.2 129.2,33 C129.2,33.5 129.2,33.9 129.2,34.4 C137.3,36.4 143.9,42.8 146.1,50.9 Z" id="Shape" fill="#DFECFD"></path>
        </g>
    </g>
</svg>