<?xml version="1.0" encoding="UTF-8"?>
<svg width="149px" height="108px" viewBox="0 0 149 108" version="1.1" xmlns="http://www.w3.org/2000/svg" xmlns:xlink="http://www.w3.org/1999/xlink">
    <!-- Generator: Sketch 51.2 (57519) - http://www.bohemiancoding.com/sketch -->
    <title>Code_2</title>
    <desc>Created with Sketch.</desc>
    <defs></defs>
    <g id="Page-1" stroke="none" stroke-width="1" fill="none" fill-rule="evenodd">
        <g id="Code_2" fill-rule="nonzero">
            <g id="Group">
                <path d="M0.8,7.6 L0.8,18 L0.8,100.9 C0.8,104.7 3.8,107.7 7.6,107.7 L141.9,107.7 C145.7,107.7 148.7,104.6 148.7,100.9 L148.7,18 L148.7,8 C148.7,4 145.5,0.8 141.5,0.8 L7.5,0.8 L0.8,7.6 Z" id="Shape" fill="#6097FD"></path>
                <path d="M104.7,18 L0.7,18 L0.7,7.6 C0.7,3.8 3.7,0.8 7.5,0.8 L141.8,0.8 C145.6,0.8 148.6,3.8 148.6,7.6 L148.6,18 L125.7,18 L104.7,18 Z" id="Shape" fill="#4988FD"></path>
                <circle id="Oval" fill="#FFFFFF" cx="11.4" cy="9.5" r="2.9"></circle>
                <circle id="Oval" fill="#DFECFD" cx="20.1" cy="9.5" r="2.9"></circle>
                <circle id="Oval" fill="#C4D9F2" cx="28.8" cy="9.5" r="2.9"></circle>
            </g>
            <g id="Group" transform="translate(18.000000, 31.000000)">
                <path d="M50.5,23.9 C50.5,23.9 50.5,23.9 50.5,23.9 L24.1,23.7 C23,23.7 22.1,22.8 22.1,21.7 C22.1,20.6 23,19.7 24.1,19.7 C24.1,19.7 24.1,19.7 24.1,19.7 L50.5,19.9 C51.6,19.9 52.5,20.8 52.5,21.9 C52.5,23 51.6,23.9 50.5,23.9 Z" id="Shape" fill="#C4D9F2"></path>
                <path d="M113.3,23.9 C113.3,23.9 113.3,23.9 113.3,23.9 L82.8,23.7 C81.7,23.7 80.8,22.8 80.8,21.7 C80.8,20.6 81.7,19.7 82.8,19.7 L113.3,19.9 C114.4,19.9 115.3,20.8 115.3,21.9 C115.3,23 114.4,23.9 113.3,23.9 Z" id="Shape" fill="#C4D9F2"></path>
                <path d="M93,62.2 C93,62.2 93,62.2 93,62.2 L62.5,62 C61.4,62 60.5,61.1 60.5,60 C60.5,58.9 61.4,58 62.5,58 C62.5,58 62.5,58 62.5,58 L93,58.2 C94.1,58.2 95,59.1 95,60.2 C95,61.3 94.1,62.2 93,62.2 Z" id="Shape" fill="#3973F4"></path>
                <path d="M74.2,23.9 C74.2,23.9 74.2,23.9 74.2,23.9 L59.4,23.7 C58.3,23.7 57.4,22.8 57.4,21.7 C57.4,20.6 58.3,19.7 59.4,19.7 C59.4,19.7 59.4,19.7 59.4,19.7 L74.2,19.9 C75.3,19.9 76.2,20.8 76.2,21.9 C76.2,23 75.3,23.9 74.2,23.9 Z" id="Shape" fill="#3973F4"></path>
                <path d="M13.4,23.7 C13.4,23.7 13.4,23.7 13.4,23.7 L2.5,23.6 C1.4,23.6 0.5,22.7 0.5,21.6 C0.5,20.5 1.4,19.6 2.5,19.6 L13.4,19.7 C14.5,19.7 15.4,20.6 15.4,21.7 C15.4,22.8 14.5,23.7 13.4,23.7 Z" id="Shape" fill="#C4D9F2"></path>
                <path d="M55.7,36.6 C55.7,36.6 55.7,36.6 55.7,36.6 L39.8,36.4 C38.7,36.4 37.8,35.5 37.8,34.4 C37.8,33.3 38.7,32.4 39.8,32.4 C39.8,32.4 39.8,32.4 39.8,32.4 L55.7,32.6 C56.8,32.6 57.7,33.5 57.7,34.6 C57.7,35.8 56.8,36.6 55.7,36.6 Z" id="Shape" fill="#3973F4"></path>
                <path d="M105,36.9 C105,36.9 105,36.9 105,36.9 L64.5,36.4 C63.4,36.4 62.5,35.5 62.5,34.4 C62.5,33.3 63.4,32.4 64.5,32.4 C64.5,32.4 64.5,32.4 64.5,32.4 L105,32.9 C106.1,32.9 107,33.8 107,34.9 C107,36 106.1,36.9 105,36.9 Z" id="Shape" fill="#C4D9F2"></path>
                <path d="M29.2,36.4 C29.2,36.4 29.2,36.4 29.2,36.4 L2.6,36.3 C1.5,36.3 0.6,35.4 0.6,34.3 C0.6,33.2 1.5,32.3 2.6,32.3 C2.6,32.3 2.6,32.3 2.6,32.3 L29.2,32.4 C30.3,32.4 31.2,33.3 31.2,34.4 C31.2,35.5 30.3,36.4 29.2,36.4 Z" id="Shape" fill="#C4D9F2"></path>
                <path d="M76.7,49.4 C76.7,49.4 76.7,49.4 76.7,49.4 L39.8,49.2 C38.7,49.2 37.8,48.3 37.8,47.2 C37.8,46.1 38.7,45.2 39.8,45.2 C39.8,45.2 39.8,45.2 39.8,45.2 L76.7,45.4 C77.8,45.4 78.7,46.3 78.7,47.4 C78.7,48.5 77.8,49.4 76.7,49.4 Z" id="Shape" fill="#3973F4"></path>
                <path d="M29.2,49.1 C29.2,49.1 29.2,49.1 29.2,49.1 L2.6,49 C1.5,49 0.6,48.1 0.6,47 C0.6,45.9 1.5,45 2.6,45 C2.6,45 2.6,45 2.6,45 L29.2,45.1 C30.3,45.1 31.2,46 31.2,47.1 C31.2,48.3 30.3,49.1 29.2,49.1 Z" id="Shape" fill="#C4D9F2"></path>
                <path d="M52.2,62 C52.2,62 52.2,62 52.2,62 L31.9,61.9 C30.8,61.9 29.9,61 29.9,59.9 C29.9,58.8 30.8,57.9 31.9,57.9 C31.9,57.9 31.9,57.9 31.9,57.9 L52.2,58 C53.3,58 54.2,58.9 54.2,60 C54.2,61.1 53.3,62 52.2,62 Z" id="Shape" fill="#C4D9F2"></path>
                <path d="M19,61.9 C19,61.9 19,61.9 19,61.9 L2.6,61.9 C1.5,61.9 0.6,61 0.6,59.9 C0.6,58.8 1.5,57.9 2.6,57.9 C2.6,57.9 2.6,57.9 2.6,57.9 L19,57.9 C20.1,57.9 21,58.8 21,59.9 C21,61 20.1,61.9 19,61.9 Z" id="Shape" fill="#3973F4"></path>
                <path d="M77.3,4.3 C77.3,4.3 77.3,4.3 77.3,4.3 L2.5,4 C1.4,4 0.5,3.1 0.5,2 C0.5,0.9 1.4,0 2.5,0 C2.5,0 2.5,0 2.5,0 L77.3,0.3 C78.4,0.3 79.3,1.2 79.3,2.3 C79.3,3.4 78.4,4.3 77.3,4.3 Z" id="Shape" fill="#C4D9F2"></path>
            </g>
        </g>
    </g>
</svg>