<?xml version="1.0" encoding="UTF-8"?>
<svg width="143px" height="107px" viewBox="0 0 143 107" version="1.1" xmlns="http://www.w3.org/2000/svg" xmlns:xlink="http://www.w3.org/1999/xlink">
    <!-- Generator: Sketch 51.2 (57519) - http://www.bohemiancoding.com/sketch -->
    <title>Code</title>
    <desc>Created with Sketch.</desc>
    <defs></defs>
    <g id="Page-1" stroke="none" stroke-width="1" fill="none" fill-rule="evenodd">
        <g id="Code" fill-rule="nonzero">
            <path d="M137.6,96.6 L15.3,96.6 C12.5,96.6 10.2,94.3 10.2,91.5 L10.2,5.4 C10.2,2.6 12.5,0.3 15.3,0.3 L137.6,0.3 C140.4,0.3 142.7,2.6 142.7,5.4 L142.7,91.5 C142.7,94.4 140.4,96.6 137.6,96.6 Z" id="Shape" fill="#3973F4"></path>
            <path d="M0.2,17 L0.2,27.4 L0.2,99.3 C0.2,103.1 3.2,106.1 7,106.1 L124.3,106.1 C128.1,106.1 131.1,103 131.1,99.3 L131.1,27.4 L131.1,17.4 C131.1,13.4 127.9,10.2 123.9,10.2 L7,10.2 L0.2,17 Z" id="Shape" fill="#6097FD"></path>
            <path d="M87.2,27.4 L0.2,27.4 L0.2,17 C0.2,13.2 3.2,10.2 7,10.2 L124.3,10.2 C128.1,10.2 131.1,13.2 131.1,17 L131.1,27.4 L108.2,27.4 L87.2,27.4 Z" id="Shape" fill="#4988FD"></path>
            <circle id="Oval" fill="#FFFFFF" cx="10.8" cy="18.9" r="2.9"></circle>
            <circle id="Oval" fill="#DFECFD" cx="19.5" cy="18.9" r="2.9"></circle>
            <circle id="Oval" fill="#C4D9F2" cx="28.2" cy="18.9" r="2.9"></circle>
            <path d="M47.6,84.3 C46.5,84.3 45.5,83.9 44.8,83 L32.8,68.8 C31.6,67.4 31.6,65.4 32.8,64 L44.8,49.8 C46.1,48.2 48.5,48 50,49.4 C51.6,50.7 51.8,53.1 50.4,54.6 L40.4,66.4 L50.4,78.2 C51.7,79.8 51.5,82.1 50,83.4 C49.3,84.1 48.4,84.3 47.6,84.3 Z" id="Shape" fill="#3973F4"></path>
            <path d="M82.1,84.3 C81.3,84.3 80.4,84 79.7,83.4 C78.1,82.1 77.9,79.7 79.3,78.2 L89.3,66.4 L79.3,54.6 C78,53 78.2,50.7 79.7,49.4 C81.3,48.1 83.6,48.3 84.9,49.8 L96.9,64 C98.1,65.4 98.1,67.4 96.9,68.8 L84.9,83 C84.2,83.9 83.2,84.3 82.1,84.3 Z" id="Shape" fill="#3973F4"></path>
            <path d="M59.6,85.4 C59.2,85.4 58.8,85.3 58.4,85.2 C56.5,84.5 55.4,82.4 56.1,80.5 L66.6,50.7 C67.3,48.8 69.4,47.7 71.3,48.4 C73.2,49.1 74.3,51.2 73.6,53.1 L63.1,82.9 C62.6,84.4 61.1,85.4 59.6,85.4 Z" id="Shape" fill="#3973F4"></path>
        </g>
    </g>
</svg>