<?xml version="1.0" encoding="UTF-8"?>
<svg width="74px" height="150px" viewBox="0 0 74 150" version="1.1" xmlns="http://www.w3.org/2000/svg" xmlns:xlink="http://www.w3.org/1999/xlink">
    <!-- Generator: Sketch 51.2 (57519) - http://www.bohemiancoding.com/sketch -->
    <title>Coffee</title>
    <desc>Created with Sketch.</desc>
    <defs></defs>
    <g id="Page-1" stroke="none" stroke-width="1" fill="none" fill-rule="evenodd">
        <g id="Coffee" fill-rule="nonzero">
            <path d="M73.6,73.2 L73.6,79 C73.6,80.3 72.6,81.3 71.3,81.3 L68.3,81.3 L65.9,100.6 L66.7,100.6 C68,100.6 69.1,101.8 68.9,103.1 L65.4,131.6 C65.2,132.7 64.3,133.5 63.2,133.5 L61.8,133.5 L60.3,145.7 C60,148.1 57.9,150 55.5,150 L18.9,150 C16.5,150 14.4,148.2 14.1,145.7 L12.6,133.5 L11.2,133.5 C10.1,133.5 9.1,132.6 9,131.5 L5.5,103.1 C5.3,101.8 6.4,100.6 7.7,100.6 L8.5,100.6 L6.1,81.3 L3.1,81.3 C1.8,81.3 0.8,80.3 0.8,79 L0.8,73.2 C0.8,71.9 1.8,70.9 3.1,70.9 L6.2,70.9 L8.4,65.9 C9.2,64 11.1,62.9 13.1,62.9 L61,62.9 C63,62.9 64.8,64.1 65.7,65.9 L67.9,70.9 L71,70.9 C72.6,70.9 73.6,71.9 73.6,73.2 Z" id="Shape" fill="#FFFFFF"></path>
            <path d="M73.6,73.2 L73.6,79 C73.6,80.3 72.6,81.3 71.3,81.3 L68.3,81.3 L65.9,100.6 L66.7,100.6 C68,100.6 69.1,101.8 68.9,103.1 L65.4,131.6 C65.2,132.7 64.3,133.5 63.2,133.5 L61.8,133.5 L60.3,145.7 C60,148.1 57.9,150 55.5,150 L18.9,150 C16.5,150 14.4,148.2 14.1,145.7 L12.6,133.5 L11.2,133.5 C10.1,133.5 9.1,132.6 9,131.5 L5.5,103.1 C5.3,101.8 6.4,100.6 7.7,100.6 L8.5,100.6 L6.1,81.3 L3.1,81.3 C1.8,81.3 0.8,80.3 0.8,79 L0.8,73.2 C0.8,71.9 1.8,70.9 3.1,70.9 L6.2,70.9 L8.4,65.9 C9.2,64 11.1,62.9 13.1,62.9 L61,62.9 C63,62.9 64.8,64.1 65.7,65.9 L67.9,70.9 L71,70.9 C72.6,70.9 73.6,71.9 73.6,73.2 Z" id="Shape" fill="#DFECFD"></path>
            <path d="M68.4,71.4 L6.3,71.4 L8.7,66 C9.5,64.1 11.4,63 13.4,63 L61.3,63 C63.3,63 65.2,64.2 66,66 L68.4,71.4 Z" id="Shape" fill="#4988FD"></path>
            <path d="M68.4,80.8 L60.5,145.7 C60.2,148.1 58.1,149.9 55.7,149.9 L39.7,149.9 L49.6,80.8 L68.4,80.8 Z" id="Shape" fill="#C5DCFA"></path>
            <path d="M69.1,103.1 L65.6,131.5 C65.6,131.5 65.6,131.5 65.6,131.6 C65.4,132.7 64.5,133.5 63.4,133.5 L11.4,133.5 C10.3,133.5 9.3,132.6 9.2,131.5 L5.7,103.1 C5.5,101.8 6.6,100.6 7.9,100.6 L66.8,100.6 C68.2,100.6 69.2,101.7 69.1,103.1 Z" id="Shape" fill="#FFFFFF"></path>
            <path d="M69.1,103.1 L65.6,131.5 C65.6,131.5 65.6,131.5 65.6,131.6 C65.4,132.7 64.5,133.5 63.4,133.5 L11.4,133.5 C10.3,133.5 9.3,132.6 9.2,131.5 L5.7,103.1 C5.5,101.8 6.6,100.6 7.9,100.6 L66.8,100.6 C68.2,100.6 69.2,101.7 69.1,103.1 Z" id="Shape" fill="#4988FD"></path>
            <polygon id="Shape" fill="#3973F4" points="69.4 100.6 65.3 133.5 50.9 133.5 56.3 100.6"></polygon>
            <path d="M36.9,116.5 C38,119.5 39.1,122.5 38.1,126.6 C38,126.8 38,127 38.1,127.2 C33.7,127.2 30.1,122.6 30.1,117 C30.1,112.4 32.5,108.4 35.9,107.2 C34.7,110.8 35.8,113.7 36.9,116.5 Z" id="Shape" fill="#2767F4"></path>
            <path d="M46,117 C46,121.2 44,124.8 41.2,126.4 C42.1,121.9 40.8,118.5 39.7,115.5 C38.6,112.6 37.8,110.3 38.9,107.4 C39,107.2 39,107.1 39,106.9 C42.9,107.5 46,111.8 46,117 Z" id="Shape" fill="#2767F4"></path>
            <path d="M71.8,81.3 L3,81.3 C2,81.3 1.2,80.5 1.2,79.5 L1.2,72.8 C1.2,71.8 2,71 3,71 L71.8,71 C72.8,71 73.6,71.8 73.6,72.8 L73.6,79.5 C73.6,80.5 72.8,81.3 71.8,81.3 Z" id="Shape" fill="#2767F4"></path>
            <path d="M54.5,58.8 C53.9,58.8 53.4,58.5 53.2,58 C52.8,57.3 53.1,56.4 53.9,56 C58.1,54 58.9,47.8 57.3,43 C56.4,40.5 55.1,38.1 53.8,35.6 C52.4,33.1 51,30.6 50.1,27.9 C46.9,18.5 49.9,7.4 57.3,0.9 C57.9,0.4 58.9,0.4 59.4,1 C59.9,1.6 59.9,2.6 59.3,3.1 C52.8,8.9 50.2,18.6 53,26.9 C53.9,29.4 55.1,31.7 56.5,34.2 C57.9,36.7 59.3,39.3 60.2,42.1 C62.2,48 61.1,55.9 55.3,58.7 C54.9,58.7 54.7,58.8 54.5,58.8 Z" id="Shape" fill="#C5DCFA"></path>
            <path d="M50.7,49 C50.6,49 50.5,49 50.4,49 C49.6,48.8 49.1,48 49.3,47.2 C49.7,45.3 49.6,43.1 49,41.1 C48.3,39.1 47.3,37.2 46.2,35.2 C45.1,33.2 44,31.1 43.2,28.9 C42.4,26.4 42,23.8 42.2,21.1 C42.3,20.3 43,19.6 43.8,19.7 C44.6,19.8 45.3,20.5 45.2,21.3 C45.1,23.6 45.3,25.8 46,27.9 C46.7,29.9 47.7,31.8 48.8,33.7 C49.9,35.7 51.1,37.8 51.8,40.1 C52.6,42.6 52.8,45.4 52.2,47.8 C52,48.6 51.4,49 50.7,49 Z" id="Shape" fill="#C5DCFA"></path>
        </g>
    </g>
</svg>