<?xml version="1.0" encoding="UTF-8"?>
<svg width="146px" height="148px" viewBox="0 0 146 148" version="1.1" xmlns="http://www.w3.org/2000/svg" xmlns:xlink="http://www.w3.org/1999/xlink">
    <!-- Generator: Sketch 51.2 (57519) - http://www.bohemiancoding.com/sketch -->
    <title>Cog_Wheels</title>
    <desc>Created with Sketch.</desc>
    <defs></defs>
    <g id="Page-1" stroke="none" stroke-width="1" fill="none" fill-rule="evenodd">
        <g id="Cog_Wheels" fill-rule="nonzero">
            <path d="M142.5,32.6 L139.4,32.2 C137.9,32 136.7,31 136.2,29.6 C135.8,28.6 135.4,27.6 134.9,26.6 C134.3,25.3 134.4,23.7 135.3,22.5 L137.2,20 C138.4,18.4 138.2,16.2 136.8,14.8 L131.5,9.5 C130.1,8.1 127.9,7.9 126.3,9.1 L123.8,11 C122.6,11.9 121,12 119.7,11.4 C118.7,10.9 117.7,10.5 116.7,10.1 C115.3,9.6 114.3,8.4 114.1,6.9 L113.6,3.8 C113.3,1.8 111.6,0.4 109.6,0.4 L102.1,0.4 C100.1,0.4 98.4,1.9 98.1,3.8 L97.6,6.9 C97.4,8.4 96.4,9.6 95,10.1 C94,10.5 93,10.9 92,11.4 C90.7,12 89.1,11.9 87.9,11 L85.4,9.1 C83.8,7.9 81.6,8.1 80.2,9.5 L74.9,14.8 C73.5,16.2 73.3,18.4 74.5,20 L76.4,22.5 C77.3,23.7 77.4,25.3 76.8,26.6 C76.3,27.6 75.9,28.6 75.5,29.6 C75,31 73.8,32 72.3,32.2 L69.2,32.6 C67.2,32.9 65.8,34.6 65.8,36.6 L65.8,44.1 C65.8,44.4 65.8,44.6 65.9,44.9 C65.9,45 66,45.1 66,45.2 C66,45.3 66.1,45.4 66.1,45.5 C66.2,45.7 66.3,45.9 66.4,46.1 C66.4,46.2 66.5,46.2 66.5,46.3 C66.5,46.3 66.5,46.3 66.5,46.3 C66.5,46.3 66.5,46.4 66.6,46.4 C66.7,46.5 66.8,46.6 66.8,46.7 C66.9,46.9 67.1,47 67.3,47.1 C67.3,47.1 67.3,47.1 67.3,47.1 C67.4,47.2 67.5,47.2 67.6,47.3 C67.7,47.4 67.8,47.4 67.9,47.5 C68.3,47.7 68.8,47.9 69.2,48 L72,48.4 L72.3,48.5 C72.5,48.5 72.7,48.6 72.8,48.6 C73,48.7 73.1,48.7 73.3,48.8 C73.3,48.8 73.3,48.8 73.3,48.8 C73.3,48.8 73.3,48.8 73.3,48.8 C73.4,48.8 73.5,48.9 73.6,49 C73.6,49 73.6,49 73.6,49 C73.7,49 73.7,49.1 73.8,49.1 C73.8,49.1 73.8,49.1 73.8,49.1 C73.9,49.2 74.1,49.3 74.2,49.4 C74.3,49.5 74.5,49.6 74.6,49.8 C74.7,49.9 74.8,50.1 74.9,50.2 C74.9,50.2 74.9,50.3 75,50.3 C75,50.4 75.1,50.4 75.1,50.5 C75.1,50.6 75.2,50.6 75.2,50.7 C75.3,50.9 75.4,51 75.4,51.2 C75.4,51.3 75.4,51.3 75.5,51.4 C75.7,51.9 75.8,52.3 76,52.7 C76,52.7 76,52.7 76,52.7 C76.2,53.2 76.4,53.7 76.7,54.2 C76.8,54.3 76.8,54.5 76.9,54.6 C77,54.7 77,54.9 77,55 C77,55.1 77.1,55.3 77.1,55.4 C77.2,56.1 77.1,56.8 76.8,57.5 C76.7,57.7 76.6,57.8 76.5,58 C76.5,58.1 76.4,58.2 76.3,58.2 L74.4,60.7 C74.2,60.9 74.1,61.1 74,61.3 C73.9,61.5 73.9,61.6 73.8,61.8 C73.8,61.9 73.7,62 73.7,62.2 C73.6,62.7 73.6,63.3 73.7,63.8 C73.7,63.8 73.7,63.9 73.7,63.9 C73.8,64.3 73.9,64.6 74.1,64.9 C74.2,65 74.2,65.1 74.3,65.3 C74.4,65.5 74.6,65.7 74.8,65.9 L75.9,67 L80.1,71.2 C81.5,72.6 83.7,72.8 85.3,71.6 L87.8,69.7 C89,68.8 90.6,68.7 91.9,69.3 C92.4,69.5 92.9,69.8 93.4,70 C93.8,70.1 94.1,70.3 94.5,70.4 C94.6,70.4 94.6,70.4 94.7,70.5 C94.8,70.6 94.9,70.6 95,70.6 C95.1,70.6 95.2,70.7 95.3,70.7 C95.4,70.7 95.5,70.8 95.6,70.8 C95.8,70.9 95.9,71 96,71.1 C96,71.1 96.1,71.1 96.1,71.2 C96.2,71.3 96.4,71.4 96.5,71.5 C96.6,71.6 96.7,71.7 96.8,71.8 C96.8,71.9 96.9,71.9 96.9,72 C97,72.1 97,72.1 97.1,72.2 C97.2,72.4 97.3,72.5 97.4,72.7 C97.4,72.8 97.5,72.8 97.5,72.9 C97.5,72.9 97.5,72.9 97.5,72.9 C97.6,73 97.6,73.2 97.6,73.3 C97.6,73.4 97.7,73.6 97.7,73.7 C97.7,73.7 97.7,73.8 97.7,73.8 L98.2,76.9 C98.3,77.4 98.4,77.9 98.7,78.3 C98.8,78.5 98.9,78.6 99,78.7 C99.1,78.8 99.2,79 99.3,79.1 C99.4,79.2 99.5,79.3 99.6,79.3 C99.8,79.5 100,79.6 100.2,79.7 C100.4,79.8 100.6,79.9 100.8,80 C101.2,80.2 101.7,80.3 102.2,80.3 L109.7,80.3 C109.8,80.3 109.9,80.3 110,80.3 C111.8,80.2 113.4,78.8 113.6,76.9 L114.1,73.8 C114.3,72.3 115.3,71.1 116.7,70.6 C117.7,70.2 118.7,69.8 119.7,69.3 C121,68.7 122.6,68.8 123.8,69.7 L126.3,71.6 C127.9,72.8 130.1,72.6 131.5,71.2 L136.8,65.9 C138.2,64.5 138.4,62.3 137.2,60.7 L135.3,58.2 C134.4,57 134.3,55.4 134.9,54.1 C135.4,53.1 135.8,52.1 136.2,51.1 C136.7,49.7 137.9,48.7 139.4,48.5 L142.5,48 C144.5,47.7 145.9,46 145.9,44 L145.9,36.5 C145.9,34.6 144.5,32.9 142.5,32.6 Z M105.8,54.3 C98.1,54.3 91.8,48 91.8,40.3 C91.8,32.6 98.1,26.3 105.8,26.3 C113.5,26.3 119.8,32.6 119.8,40.3 C119.8,48.1 113.5,54.3 105.8,54.3 Z" id="Shape" fill="#FFFFFF"></path>
            <path d="M111.1,81.2 C110.7,80.9 110.3,80.6 109.9,80.4 C109.8,80.4 109.7,80.4 109.6,80.4 L102.1,80.4 C101.6,80.4 101.1,80.3 100.7,80.1 C100.5,80 100.3,79.9 100.1,79.8 C99.9,79.7 99.7,79.5 99.5,79.4 C99.4,79.3 99.3,79.3 99.2,79.2 C99.1,79.1 99,78.9 98.9,78.8 C98.8,78.7 98.7,78.5 98.6,78.4 C98.4,78 98.2,77.5 98.1,77 L97.7,73.9 C97.7,73.9 97.7,73.8 97.7,73.8 C97.7,73.7 97.6,73.5 97.6,73.4 C97.6,73.3 97.5,73.1 97.5,73 C97.5,73 97.5,73 97.5,73 C97.5,72.9 97.4,72.9 97.4,72.8 C97.3,72.6 97.2,72.5 97.1,72.3 C97.1,72.2 97,72.2 96.9,72.1 C96.9,72 96.8,72 96.8,71.9 C96.7,71.8 96.6,71.7 96.5,71.6 C96.4,71.5 96.3,71.4 96.1,71.3 C96.1,71.3 96,71.3 96,71.2 C95.9,71.1 95.7,71 95.6,70.9 C95.5,70.9 95.4,70.8 95.3,70.8 C95.2,70.8 95.1,70.7 95,70.7 C94.9,70.7 94.8,70.6 94.7,70.6 C94.6,70.6 94.6,70.6 94.5,70.5 C94.1,70.4 93.8,70.2 93.4,70.1 C92.9,69.9 92.4,69.7 91.9,69.4 C90.6,68.8 89,68.9 87.8,69.8 L85.3,71.7 C83.7,72.9 81.5,72.7 80.1,71.3 L75.9,67.1 L74.8,66 C74.6,65.8 74.4,65.6 74.3,65.4 C74.2,65.3 74.2,65.2 74.1,65 C73.9,64.7 73.8,64.4 73.7,64 C73.7,64 73.7,63.9 73.7,63.9 C73.6,63.4 73.6,62.8 73.7,62.3 C73.7,62.2 73.8,62 73.8,61.9 C73.9,61.7 73.9,61.6 74,61.4 C74.1,61.2 74.2,61 74.4,60.8 L76.3,58.3 C76.4,58.2 76.4,58.1 76.5,58.1 C76.6,57.9 76.7,57.8 76.8,57.6 C77.1,56.9 77.2,56.2 77.1,55.5 C77.1,55.4 77.1,55.2 77,55.1 C77,55 76.9,54.8 76.9,54.7 C76.8,54.6 76.8,54.4 76.7,54.3 C76.5,53.8 76.2,53.3 76,52.8 C76,52.8 76,52.8 76,52.8 C75.8,52.4 75.7,51.9 75.5,51.5 C75.5,51.4 75.5,51.4 75.4,51.3 C75.3,51.1 75.3,51 75.2,50.8 C75.2,50.7 75.1,50.7 75.1,50.6 C75.1,50.5 75,50.5 75,50.4 C75,50.4 75,50.3 74.9,50.3 C74.8,50.2 74.7,50 74.6,49.9 C74.5,49.8 74.3,49.6 74.2,49.5 C74.1,49.4 74,49.3 73.8,49.2 C73.8,49.2 73.8,49.2 73.8,49.2 C73.7,49.2 73.7,49.1 73.6,49.1 C73.6,49.1 73.6,49.1 73.6,49.1 C73.5,49 73.4,49 73.3,48.9 C73.3,48.9 73.3,48.9 73.3,48.9 C73.3,48.9 73.3,48.9 73.3,48.9 C73.1,48.8 73,48.8 72.8,48.7 C72.6,48.6 72.5,48.6 72.3,48.6 L72,48.6 L69.2,48.2 C68.7,48.1 68.3,48 67.9,47.8 C67.8,47.8 67.7,47.7 67.6,47.6 C67.5,47.5 67.4,47.5 67.3,47.4 C67.3,47.4 67.3,47.4 67.3,47.4 C67.1,47.3 67,47.1 66.8,47 C66.7,46.9 66.6,46.8 66.6,46.7 C66.6,46.7 66.6,46.6 66.5,46.6 C66.5,46.6 66.5,46.6 66.5,46.6 C66.5,46.5 66.4,46.5 66.4,46.4 C66.3,46.2 66.2,46 66.1,45.8 C66.1,45.7 66,45.6 66,45.5 C66,45.4 65.9,45.3 65.9,45.2 C65.9,45 65.8,44.7 65.8,44.4 L65.8,36.9 C65.8,36.7 65.8,36.4 65.8,36.2 C64.8,35.1 63.3,34.5 61.8,34.5 L51.3,34.5 C48.5,34.5 46.1,36.6 45.7,39.3 L45.1,43.7 C44.8,45.8 43.3,47.5 41.4,48.2 C39.9,48.7 38.5,49.3 37.1,50 C35.2,50.9 33,50.7 31.3,49.5 L27.7,46.8 C25.4,45.1 22.3,45.4 20.3,47.3 L12.9,54.7 C10.9,56.7 10.7,59.8 12.4,62.1 L15.1,65.7 C16.4,67.4 16.6,69.6 15.6,71.5 C14.9,72.9 14.4,74.3 13.8,75.8 C13.1,77.8 11.4,79.2 9.3,79.5 L4.9,80.1 C2.1,80.5 0.1,82.9 0.1,85.7 L0.1,96.2 C0.1,99 2.1,101.4 4.9,101.8 L9.3,102.4 C11.4,102.7 13.1,104.2 13.8,106.1 C14.3,107.6 14.9,109 15.6,110.4 C16.5,112.3 16.3,114.5 15.1,116.2 L12.4,119.8 C11.6,120.9 11.2,122.2 11.3,123.4 C11.4,124.8 11.9,126.1 12.9,127.1 L20.3,134.6 C22.3,136.6 25.4,136.8 27.7,135.1 L31.3,132.5 C33,131.2 35.2,131 37.1,131.9 C37.8,132.2 38.5,132.6 39.3,132.9 C39.3,132.9 39.3,132.9 39.3,132.9 C40,133.2 40.7,133.4 41.4,133.7 C42.5,134.1 43.4,134.8 44.1,135.7 C44.1,135.7 44.1,135.7 44.1,135.7 C44.6,136.4 45,137.2 45.1,138.2 L45.7,142.6 C45.9,143.7 46.4,144.8 47.1,145.6 C48.1,146.7 49.6,147.5 51.3,147.5 L61.8,147.5 C64.6,147.5 67,145.5 67.4,142.7 L68,138.3 C68.3,136.2 69.7,134.5 71.7,133.8 C73.2,133.3 74.6,132.7 76,132 C77,131.5 78.2,131.3 79.3,131.5 C80.2,131.6 81.1,132 81.8,132.6 L85.4,135.2 C86.7,136.2 88.3,136.5 89.7,136.2 C90.8,136 91.9,135.5 92.7,134.6 L100.1,127.1 C100.9,126.3 101.5,125.2 101.7,124.1 C102,122.6 101.6,121 100.7,119.7 L98,116.1 C97.4,115.3 97.1,114.4 96.9,113.4 C96.8,112.4 96.9,111.3 97.4,110.3 C98.1,108.9 98.6,107.5 99.2,106 C99.9,104 101.6,102.6 103.7,102.3 L108.1,101.7 C110.9,101.3 112.9,98.9 112.9,96.1 L112.9,85.6 C113,83.8 112.2,82.3 111.1,81.2 Z M56.5,110.4 C45.6,110.4 36.8,101.6 36.8,90.7 C36.8,85.2 39.1,80.2 42.7,76.6 C46.2,73.1 51.1,71 56.5,71 C67.4,71 76.2,79.8 76.2,90.7 C76.2,101.6 67.4,110.4 56.5,110.4 Z" id="Shape" fill="#4988FD"></path>
            <path d="M73.3,55.4 L70.2,54.9 C68.2,54.6 66.8,52.9 66.8,50.9 L66.8,46.6 C67.4,47.3 68.2,47.7 69.2,47.9 L72,48.3 L72.3,48.3 C72.9,48.4 73.4,48.6 73.9,48.9 C74.6,49.4 75.2,50.1 75.5,50.9 C75.9,51.9 76.3,52.9 76.8,53.9 C77.4,55.2 77.3,56.6 76.6,57.8 C76,56.6 74.7,55.6 73.3,55.4 Z" id="Shape" fill="#2767F4"></path>
            <path d="M113,85.5 L113,86.6 C112.3,87.1 111.5,87.4 110.6,87.4 L103.1,87.4 C101.1,87.4 99.4,85.9 99.1,84 L98.6,80.9 C98.4,79.4 97.4,78.2 96,77.7 C95,77.3 94,76.9 93,76.4 C91.7,75.7 90.1,75.9 88.9,76.8 L86.4,78.7 C84.8,79.9 82.6,79.7 81.2,78.3 L75.9,73 C74.5,71.6 74.3,69.4 75.5,67.8 L76,67.2 L80.2,71.4 C81.6,72.8 83.8,73 85.4,71.8 L87.9,69.9 C89.1,69 90.7,68.9 92,69.5 C93,70 94,70.4 95,70.8 C96,71.2 96.8,71.9 97.3,72.8 C97.5,73.1 97.6,73.5 97.7,73.8 C97.7,73.8 97.7,73.9 97.7,73.9 L98.1,77 C98.4,79 100.1,80.4 102.1,80.4 L109.6,80.4 C109.7,80.4 109.8,80.4 109.9,80.4 C110.3,80.6 110.7,80.9 111.1,81.2 C112.2,82.3 113,83.8 113,85.5 Z" id="Shape" fill="#3973F4"></path>
            <path d="M142.5,32.6 L139.4,32.2 C137.9,32 136.7,31 136.2,29.6 C135.8,28.6 135.4,27.6 134.9,26.6 C134.3,25.3 134.4,23.7 135.3,22.5 L137.2,20 C138.4,18.4 138.2,16.2 136.8,14.8 L131.5,9.5 C130.1,8.1 127.9,7.9 126.3,9.1 L123.8,11 C122.6,11.9 121,12 119.7,11.4 C118.7,10.9 117.7,10.5 116.7,10.1 C115.3,9.6 114.3,8.4 114.1,6.9 L113.6,3.8 C113.3,1.8 111.6,0.4 109.6,0.4 L102.1,0.4 C100.1,0.4 98.4,1.9 98.1,3.8 L97.6,6.9 C97.4,8.4 96.4,9.6 95,10.1 C94,10.5 93,10.9 92,11.4 C90.7,12 89.1,11.9 87.9,11 L85.4,9.1 C83.8,7.9 81.6,8.1 80.2,9.5 L74.9,14.8 C73.5,16.2 73.3,18.4 74.5,20 L76.4,22.5 C77.3,23.7 77.4,25.3 76.8,26.6 C76.3,27.6 75.9,28.6 75.5,29.6 C75,31 73.8,32 72.3,32.2 L69.2,32.6 C67.2,32.9 65.8,34.6 65.8,36.6 L65.8,44.1 C65.8,44.4 65.8,44.6 65.9,44.9 C65.9,45 66,45.1 66,45.2 C66,45.3 66.1,45.4 66.1,45.5 C66.2,45.7 66.3,45.9 66.4,46.1 C66.4,46.2 66.5,46.2 66.5,46.3 C66.5,46.3 66.5,46.3 66.5,46.3 C66.5,46.3 66.5,46.4 66.6,46.4 C66.7,46.5 66.8,46.6 66.8,46.7 C66.9,46.9 67.1,47 67.3,47.1 C67.3,47.1 67.3,47.1 67.3,47.1 C67.4,47.2 67.5,47.2 67.6,47.3 C67.7,47.4 67.8,47.4 67.9,47.5 C68.3,47.7 68.8,47.9 69.2,48 L72,48.4 L72.3,48.5 C72.5,48.5 72.7,48.6 72.8,48.6 C73,48.7 73.1,48.7 73.3,48.8 C73.3,48.8 73.3,48.8 73.3,48.8 C73.3,48.8 73.3,48.8 73.3,48.8 C73.4,48.8 73.5,48.9 73.6,49 C73.6,49 73.6,49 73.6,49 C73.7,49 73.7,49.1 73.8,49.1 C73.8,49.1 73.8,49.1 73.8,49.1 C73.9,49.2 74.1,49.3 74.2,49.4 C74.3,49.5 74.5,49.6 74.6,49.8 C74.7,49.9 74.8,50.1 74.9,50.2 C74.9,50.2 74.9,50.3 75,50.3 C75,50.4 75.1,50.4 75.1,50.5 C75.1,50.6 75.2,50.6 75.2,50.7 C75.3,50.9 75.4,51 75.4,51.2 C75.4,51.3 75.4,51.3 75.5,51.4 C75.7,51.9 75.8,52.3 76,52.7 C76,52.7 76,52.7 76,52.7 C76.2,53.2 76.4,53.7 76.7,54.2 C76.8,54.3 76.8,54.5 76.9,54.6 C77,54.7 77,54.9 77,55 C77,55.1 77.1,55.3 77.1,55.4 C77.2,56.1 77.1,56.8 76.8,57.5 C76.7,57.7 76.6,57.8 76.5,58 C76.5,58.1 76.4,58.2 76.3,58.2 L74.4,60.7 C74.2,60.9 74.1,61.1 74,61.3 C73.9,61.5 73.9,61.6 73.8,61.8 C73.8,61.9 73.7,62 73.7,62.2 C73.6,62.7 73.6,63.3 73.7,63.8 C73.7,63.8 73.7,63.9 73.7,63.9 C73.8,64.3 73.9,64.6 74.1,64.9 C74.2,65 74.2,65.1 74.3,65.3 C74.4,65.5 74.6,65.7 74.8,65.9 L75.9,67 L80.1,71.2 C81.5,72.6 83.7,72.8 85.3,71.6 L87.8,69.7 C89,68.8 90.6,68.7 91.9,69.3 C92.4,69.5 92.9,69.8 93.4,70 C93.8,70.1 94.1,70.3 94.5,70.4 C94.6,70.4 94.6,70.4 94.7,70.5 C94.8,70.6 94.9,70.6 95,70.6 C95.1,70.6 95.2,70.7 95.3,70.7 C95.4,70.7 95.5,70.8 95.6,70.8 C95.8,70.9 95.9,71 96,71.1 C96,71.1 96.1,71.1 96.1,71.2 C96.2,71.3 96.4,71.4 96.5,71.5 C96.6,71.6 96.7,71.7 96.8,71.8 C96.8,71.9 96.9,71.9 96.9,72 C97,72.1 97,72.1 97.1,72.2 C97.2,72.4 97.3,72.5 97.4,72.7 C97.4,72.8 97.5,72.8 97.5,72.9 C97.5,72.9 97.5,72.9 97.5,72.9 C97.6,73 97.6,73.2 97.6,73.3 C97.6,73.4 97.7,73.6 97.7,73.7 C97.7,73.7 97.7,73.8 97.7,73.8 L98.2,76.9 C98.3,77.4 98.4,77.9 98.7,78.3 C98.8,78.5 98.9,78.6 99,78.7 C99.1,78.8 99.2,79 99.3,79.1 C99.4,79.2 99.5,79.3 99.6,79.3 C99.8,79.5 100,79.6 100.2,79.7 C100.4,79.8 100.6,79.9 100.8,80 C101.2,80.2 101.7,80.3 102.2,80.3 L109.7,80.3 C109.8,80.3 109.9,80.3 110,80.3 C111.8,80.2 113.4,78.8 113.6,76.9 L114.1,73.8 C114.3,72.3 115.3,71.1 116.7,70.6 C117.7,70.2 118.7,69.8 119.7,69.3 C121,68.7 122.6,68.8 123.8,69.7 L126.3,71.6 C127.9,72.8 130.1,72.6 131.5,71.2 L136.8,65.9 C138.2,64.5 138.4,62.3 137.2,60.7 L135.3,58.2 C134.4,57 134.3,55.4 134.9,54.1 C135.4,53.1 135.8,52.1 136.2,51.1 C136.7,49.7 137.9,48.7 139.4,48.5 L142.5,48 C144.5,47.7 145.9,46 145.9,44 L145.9,36.5 C145.9,34.6 144.5,32.9 142.5,32.6 Z M105.8,54.3 C98.1,54.3 91.8,48 91.8,40.3 C91.8,32.6 98.1,26.3 105.8,26.3 C113.5,26.3 119.8,32.6 119.8,40.3 C119.8,48.1 113.5,54.3 105.8,54.3 Z" id="Shape" fill="#6097FD"></path>
        </g>
    </g>
</svg>