<?xml version="1.0" encoding="UTF-8"?>
<svg width="147px" height="147px" viewBox="0 0 147 147" version="1.1" xmlns="http://www.w3.org/2000/svg" xmlns:xlink="http://www.w3.org/1999/xlink">
    <!-- Generator: Sketch 51.2 (57519) - http://www.bohemiancoding.com/sketch -->
    <title>Cog_Wheel</title>
    <desc>Created with Sketch.</desc>
    <defs></defs>
    <g id="Page-1" stroke="none" stroke-width="1" fill="none" fill-rule="evenodd">
        <g id="Cog_Wheel" fill-rule="nonzero">
            <path d="M140,59.4 L134.3,58.6 C131.6,58.2 129.4,56.4 128.5,53.8 C127.8,51.9 127.1,50.1 126.2,48.3 C125,45.9 125.3,43 126.9,40.8 L130.3,36.2 C132.4,33.3 132.2,29.3 129.6,26.7 L120,17.1 C117.4,14.6 113.4,14.3 110.5,16.4 L105.9,19.8 C103.7,21.4 100.8,21.7 98.4,20.5 C96.6,19.7 94.8,18.9 92.9,18.2 C90.3,17.3 88.5,15.1 88.1,12.4 L87.3,6.8 C86.8,3.2 83.7,0.6 80.1,0.6 L66.6,0.6 C63,0.6 59.9,3.2 59.4,6.8 L58.6,12.4 C58.2,15.1 56.4,17.3 53.8,18.2 C51.9,18.9 50.1,19.6 48.3,20.5 C45.8,21.7 43,21.4 40.8,19.8 L36.2,16.4 C33.3,14.3 29.3,14.5 26.7,17.1 L17.1,26.7 C14.5,29.3 14.2,33.3 16.4,36.2 L19.8,40.8 C21.4,43 21.7,45.9 20.5,48.3 C19.7,50.1 18.9,51.9 18.2,53.8 C17.3,56.4 15.1,58.2 12.4,58.6 L6.8,59.4 C3.2,59.9 0.6,63 0.6,66.6 L0.6,80.1 C0.6,83.7 3.3,86.8 6.8,87.3 L12.4,88.1 C15.1,88.5 17.3,90.3 18.2,92.9 C18.9,94.8 19.6,96.6 20.5,98.4 C21.7,100.8 21.4,103.7 19.8,105.9 L16.4,110.5 C14.2,113.4 14.5,117.4 17.1,120 L26.7,129.6 C29.3,132.1 33.3,132.5 36.2,130.3 L40.8,126.9 C43,125.3 45.8,125 48.3,126.2 C50.1,127.1 51.9,127.8 53.8,128.5 C56.3,129.4 58.2,131.6 58.6,134.3 L59.4,139.9 C59.9,143.5 63,146.1 66.6,146.1 L80.1,146.1 C83.7,146.1 86.8,143.5 87.3,139.9 L88.1,134.3 C88.5,131.6 90.3,129.4 92.9,128.5 C94.8,127.8 96.6,127.1 98.4,126.2 C100.8,125 103.7,125.3 105.9,126.9 L110.5,130.3 C113.4,132.5 117.4,132.2 120,129.6 L129.6,120 C132.1,117.4 132.4,113.4 130.3,110.5 L126.9,105.9 C125.3,103.7 125,100.8 126.2,98.4 C127.1,96.6 127.8,94.8 128.5,92.9 C129.4,90.4 131.6,88.5 134.3,88.1 L140,87.3 C143.6,86.8 146.2,83.7 146.2,80.1 L146.2,66.6 C146.2,63 143.6,60 140,59.4 Z M73.5,98.7 C59.5,98.7 48.2,87.3 48.2,73.4 C48.2,59.4 59.5,48 73.5,48 C87.5,48 98.9,59.4 98.9,73.4 C98.9,87.4 87.5,98.7 73.5,98.7 Z" id="Shape" fill="#FFFFFF"></path>
            <path d="M140,59.4 L134.3,58.6 C131.6,58.2 129.4,56.4 128.5,53.8 C127.8,51.9 127.1,50.1 126.2,48.3 C125,45.9 125.3,43 126.9,40.8 L130.3,36.2 C132.4,33.3 132.2,29.3 129.6,26.7 L120,17.1 C117.4,14.6 113.4,14.3 110.5,16.4 L105.9,19.8 C103.7,21.4 100.8,21.7 98.4,20.5 C96.6,19.7 94.8,18.9 92.9,18.2 C90.3,17.3 88.5,15.1 88.1,12.4 L87.3,6.8 C86.8,3.2 83.7,0.6 80.1,0.6 L66.6,0.6 C63,0.6 59.9,3.2 59.4,6.8 L58.6,12.4 C58.2,15.1 56.4,17.3 53.8,18.2 C51.9,18.9 50.1,19.6 48.3,20.5 C45.8,21.7 43,21.4 40.8,19.8 L36.2,16.4 C33.3,14.3 29.3,14.5 26.7,17.1 L17.1,26.7 C14.5,29.3 14.2,33.3 16.4,36.2 L19.8,40.8 C21.4,43 21.7,45.9 20.5,48.3 C19.7,50.1 18.9,51.9 18.2,53.8 C17.3,56.4 15.1,58.2 12.4,58.6 L6.8,59.4 C3.2,59.9 0.6,63 0.6,66.6 L0.6,80.1 C0.6,83.7 3.3,86.8 6.8,87.3 L12.4,88.1 C15.1,88.5 17.3,90.3 18.2,92.9 C18.9,94.8 19.6,96.6 20.5,98.4 C21.7,100.8 21.4,103.7 19.8,105.9 L16.4,110.5 C14.2,113.4 14.5,117.4 17.1,120 L26.7,129.6 C29.3,132.1 33.3,132.5 36.2,130.3 L40.8,126.9 C43,125.3 45.8,125 48.3,126.2 C50.1,127.1 51.9,127.8 53.8,128.5 C56.3,129.4 58.2,131.6 58.6,134.3 L59.4,139.9 C59.9,143.5 63,146.1 66.6,146.1 L80.1,146.1 C83.7,146.1 86.8,143.5 87.3,139.9 L88.1,134.3 C88.5,131.6 90.3,129.4 92.9,128.5 C94.8,127.8 96.6,127.1 98.4,126.2 C100.8,125 103.7,125.3 105.9,126.9 L110.5,130.3 C113.4,132.5 117.4,132.2 120,129.6 L129.6,120 C132.1,117.4 132.4,113.4 130.3,110.5 L126.9,105.9 C125.3,103.7 125,100.8 126.2,98.4 C127.1,96.6 127.8,94.8 128.5,92.9 C129.4,90.4 131.6,88.5 134.3,88.1 L140,87.3 C143.6,86.8 146.2,83.7 146.2,80.1 L146.2,66.6 C146.2,63 143.6,60 140,59.4 Z M73.5,98.7 C59.5,98.7 48.2,87.3 48.2,73.4 C48.2,59.4 59.5,48 73.5,48 C87.5,48 98.9,59.4 98.9,73.4 C98.9,87.4 87.5,98.7 73.5,98.7 Z" id="Shape" fill="#4988FD"></path>
        </g>
    </g>
</svg>