<?xml version="1.0" encoding="UTF-8"?>
<svg width="136px" height="141px" viewBox="0 0 136 141" version="1.1" xmlns="http://www.w3.org/2000/svg" xmlns:xlink="http://www.w3.org/1999/xlink">
    <!-- Generator: Sketch 51.2 (57519) - http://www.bohemiancoding.com/sketch -->
    <title>Coins_2</title>
    <desc>Created with Sketch.</desc>
    <defs></defs>
    <g id="Page-1" stroke="none" stroke-width="1" fill="none" fill-rule="evenodd">
        <g id="Coins_2" transform="translate(-8.000000, -13.000000)" fill-rule="nonzero">
            <path d="M82,27.2 L72,18.2 C61.2,8.7 41,13.9 26.7,29.9 C12.4,45.9 9.5,66.7 20.3,76.3 L30.2,85.1 C30.2,85.1 30.2,85.1 30.2,85.1 C41,94.7 61.3,89.5 75.6,73.5 C89.9,57.5 92.8,36.8 82,27.2 Z" id="Shape" fill="#3973F4"></path>
            <ellipse id="Oval" fill="#6097FD" transform="translate(46.378730, 47.327850) rotate(-48.267021) translate(-46.378730, -47.327850) " cx="46.37873" cy="47.32785" rx="38.9023374" ry="26.1015683"></ellipse>
            <path d="M32.8,64.3 C32,64.3 31.3,64 30.8,63.5 C30.1,62.9 29.8,62 29.8,61.1 C29.8,60.2 30.2,59.4 30.8,58.7 L31.7,57.7 C29.9,55 29.7,52.2 29.8,50.7 C29.8,49.1 31.1,47.5 32.7,47.2 C32.9,47.1 33.2,47.1 33.4,47.1 C34.2,47.1 34.9,47.4 35.4,47.9 C36.1,48.5 36.4,49.3 36.4,50.2 C36.4,51.5 36.7,53.3 38.4,54.8 C39.3,55.6 40.1,55.9 41,55.9 C42.2,55.9 43.2,55.1 43.9,54.4 C45.3,52.8 44.8,51.4 43.1,48.2 C41.2,44.6 38.6,39.8 43.6,34.2 C45.7,31.8 48.6,30.5 51.6,30.5 C52.9,30.5 54.2,30.8 55.4,31.3 L56.4,30.2 C57.1,29.4 58.1,28.9 59.1,28.9 C59.9,28.9 60.6,29.2 61.1,29.7 C62.4,30.9 62.4,33 61.1,34.5 L60.1,35.6 C61.2,37.5 61.5,39.5 61.6,40.9 C61.7,42.7 60.3,44.4 58.5,44.7 C58.3,44.7 58.1,44.8 57.9,44.8 C57.1,44.8 56.4,44.5 55.9,44 C55.3,43.4 54.9,42.6 54.9,41.8 C54.9,40.4 54.4,39.3 53.4,38.4 C52.7,37.8 51.9,37.4 51.1,37.4 C50.2,37.4 49.2,37.9 48.5,38.7 C47.1,40.3 47.6,41.7 49.3,44.9 C51.2,48.5 53.8,53.3 48.8,58.9 C46.5,61.5 43.5,63 40.5,63 C39.1,63 37.8,62.7 36.5,62.1 L35.5,63.2 C34.8,63.8 33.8,64.3 32.8,64.3 Z" id="Shape" fill="#FFFFFF"></path>
            <path d="M64.4,115.9 L59.1,107.5 C53.3,98.6 37.9,98.2 24.5,106.7 C11.1,115.2 4.9,129.4 10.6,138.4 L15.8,146.6 C15.8,146.6 15.8,146.6 15.8,146.6 C21.5,155.6 37,156 50.4,147.5 C63.9,139.1 70.1,124.9 64.4,115.9 Z" id="Shape" fill="#3973F4"></path>
            <ellipse id="Oval" fill="#6097FD" transform="translate(35.000240, 123.175540) rotate(-32.437796) translate(-35.000240, -123.175540) " cx="35.00024" cy="123.17554" rx="28.7008748" ry="19.3005883"></ellipse>
            <path d="M29.5,133.8 C27.8,133.8 26.2,133.2 24.8,132.2 L24.1,132.6 C23.6,132.9 23,133.1 22.4,133.1 C21.4,133.1 20.5,132.6 20,131.8 C19.6,131.2 19.5,130.5 19.7,129.7 C19.9,128.9 20.4,128.2 21.1,127.7 L21.7,127.3 C21.1,125 21.5,123 21.8,121.9 C22.2,120.6 23.5,119.7 24.9,119.7 C25,119.7 25,119.7 25.1,119.7 C26,119.8 26.8,120.2 27.3,121 C27.7,121.6 27.8,122.5 27.6,123.2 C27.2,124.4 27.4,125.5 28,126.5 C28.5,127.3 29.1,127.7 29.8,127.7 C30.3,127.7 30.8,127.5 31.4,127.2 C32.5,126.5 32.5,125.7 31.9,123 C31.3,120.1 30.3,115.7 35.3,112.5 C36.8,111.6 38.4,111.1 40,111.1 C41.7,111.1 43.3,111.6 44.7,112.6 L45.4,112.2 C45.9,111.9 46.5,111.7 47.1,111.7 C48.1,111.7 49,112.2 49.5,113 C49.9,113.7 50,114.5 49.8,115.3 C49.6,116 49.1,116.6 48.4,117 L47.7,117.4 C48,119 47.8,120.4 47.6,121.4 C47.3,122.8 45.9,123.8 44.5,123.8 C44.4,123.8 44.3,123.8 44.2,123.8 C43.3,123.7 42.6,123.3 42.1,122.6 C41.7,122 41.6,121.2 41.8,120.5 C42,119.6 41.9,118.8 41.5,118.1 C41.1,117.4 40.5,117 39.8,117 C39.4,117 38.9,117.1 38.5,117.4 C37.4,118.1 37.4,118.9 38,121.6 C38.6,124.5 39.6,128.9 34.6,132.1 C33,133.2 31.2,133.8 29.5,133.8 Z" id="Shape" fill="#FFFFFF"></path>
            <path d="M123.6,136.8 L134.1,131 C145.2,124.7 146.8,106.2 137.5,89.6 C128.2,72.9 111.7,64.4 100.5,70.6 L90.2,76.3 C90.2,76.3 90.2,76.3 90.2,76.3 C79,82.5 77.4,101.1 86.7,117.8 C95.9,134.5 112.4,143 123.6,136.8 Z" id="Shape" fill="#3973F4"></path>
            <ellipse id="Oval" fill="#6097FD" transform="translate(117.251200, 100.729650) rotate(-29.012866) translate(-117.251200, -100.729650) " cx="117.2512" cy="100.72965" rx="23.1997129" ry="34.4995731"></ellipse>
            <path d="M126.9,120 C125.7,120 124.5,119.3 123.9,118.1 L123.3,117 C122.7,117.1 122.2,117.1 121.6,117.1 C120.5,117.1 119.4,116.9 118.2,116.6 C116.5,116.1 115.4,114.2 115.7,112.5 C115.9,111.5 116.4,110.7 117.2,110.2 C117.6,110 118.1,109.8 118.6,109.8 C118.9,109.8 119.3,109.9 119.6,110 C120.1,110.2 120.6,110.2 121,110.2 C121.7,110.2 122.3,110 122.9,109.7 C123.8,109.2 124.3,108.6 124.5,107.8 C124.6,107.1 124.5,106.3 124.1,105.6 C123.5,104.5 122.8,104.2 121.4,104.2 C120.6,104.2 119.6,104.3 118.5,104.5 C117.3,104.7 116,104.9 114.6,104.9 C110.8,104.9 108,103.2 106,99.6 C103.6,95.3 104,90.8 106.9,87.7 L106.3,86.6 C105.4,84.9 105.9,82.8 107.4,82 C107.8,81.8 108.3,81.6 108.9,81.6 C110.1,81.6 111.3,82.3 111.9,83.5 L112.4,84.5 C113.2,84.3 114.1,84.2 114.9,84.2 C116.7,84.2 118.2,84.6 119.1,85 C120.6,85.6 121.6,87.2 121.4,88.9 C121.3,89.9 120.7,90.8 119.8,91.3 C119.4,91.5 118.9,91.7 118.4,91.7 C118,91.7 117.7,91.6 117.3,91.5 C116.7,91.3 116,91.1 115.4,91.1 C114.5,91.1 113.7,91.3 112.9,91.8 C111,92.9 110.5,94.5 111.6,96.5 C112.2,97.6 112.9,97.9 114.3,97.9 C115.1,97.9 116.1,97.8 117.2,97.6 C118.4,97.4 119.7,97.2 121.1,97.2 C124.9,97.2 127.7,98.9 129.7,102.5 C131.9,106.4 131.4,110.9 128.7,113.9 L129.3,115 C130.2,116.7 129.7,118.8 128.2,119.6 C127.9,119.8 127.4,120 126.9,120 Z" id="Shape" fill="#FFFFFF"></path>
        </g>
    </g>
</svg>