<?xml version="1.0" encoding="UTF-8"?>
<svg width="148px" height="123px" viewBox="0 0 148 123" version="1.1" xmlns="http://www.w3.org/2000/svg" xmlns:xlink="http://www.w3.org/1999/xlink">
    <!-- Generator: Sketch 51.2 (57519) - http://www.bohemiancoding.com/sketch -->
    <title>Coins</title>
    <desc>Created with Sketch.</desc>
    <defs></defs>
    <g id="Page-1" stroke="none" stroke-width="1" fill="none" fill-rule="evenodd">
        <g id="Coins" fill-rule="nonzero">
            <path d="M147.1,15.5 L147.1,93.6 C145.5,108.2 86.8,112.8 60.5,102.3 C57,100.9 51.9,98.3 50.8,94.7 C50.7,94.5 50.6,94 50.6,93.6 L50.6,15.5 C50.6,10.8 56.5,7.8 60.9,6.1 C63,5.3 67.6,3.8 68.2,3.8 C96.4,-3.9 147.1,2.1 147.1,15.5 Z" id="Shape" fill="#FFFFFF"></path>
            <path d="M147.1,15.5 L147.1,93.6 C147.1,107.3 91,112 67.5,104.6 C58.4,102.3 52,98.9 50.8,94.7 C50.7,94.5 50.6,94 50.6,93.6 L50.6,15.5 C50.6,10.8 56.5,7.8 60.9,6.1 C90.9,-5.1 147.1,1.4 147.1,15.5 Z" id="Shape" fill="#4988FD"></path>
            <path d="M92.3,107.9 C70.6,107 51,101.7 50.6,93.6 L50.6,34.5 C91,29.3 117.1,76.1 92.3,107.9 Z" id="Shape" fill="#3973F4"></path>
            <path d="M147.1,30.5 L147.1,37.3 C128.2,50.4 69.5,50.4 50.6,37.3 L50.6,30.5 C53.7,35.8 71.5,42.1 98.9,42.1 C126.2,42.1 144,35.8 147.1,30.5 Z" id="Shape" fill="#3973F4"></path>
            <path d="M147.1,47.1 L147.1,53.9 C128.2,66.9 69.6,67 50.6,53.9 L50.6,47.1 C53.6,52.4 71.5,58.7 98.9,58.7 C126.2,58.7 144,52.4 147.1,47.1 Z" id="Shape" fill="#3973F4"></path>
            <path d="M147.1,63.7 L147.1,70.5 C128.1,83.6 69.3,83.5 50.6,70.6 L50.6,63.7 C53.7,69 71.7,75.3 98.9,75.3 C126.2,75.3 144,68.9 147.1,63.7 Z" id="Shape" fill="#3973F4"></path>
            <path d="M147.1,80.2 L147.1,87.1 C128.4,100.1 69.6,100.1 50.6,87.1 L50.6,80.3 C53.7,85.6 71.5,91.9 98.9,91.9 C126.7,91.9 144.1,85.3 147.1,80.2 Z" id="Shape" fill="#3973F4"></path>
            <ellipse id="Oval" fill="#6097FD" cx="98.8" cy="15.2" rx="48.3" ry="14.8"></ellipse>
            <circle id="Oval" fill="#6097FD" cx="46.6" cy="77.1" r="45.7"></circle>
            <path d="M7.4,77.8 C7.3,73.2 8,68.7 9.5,64.4 C10.6,61.3 15.3,62.9 14.2,66 C12.9,69.8 12.3,73.7 12.4,77.7 C12.4,79.1 11.3,80.2 9.9,80.2 C8.5,80.3 7.4,79.1 7.4,77.8 Z" id="Shape" fill="#3973F4"></path>
            <path d="M17.1,101.4 C16.3,101.4 15.6,101.1 15.1,100.4 C12.3,96.6 10.2,92.3 8.9,87.7 C8,84.5 12.8,83.2 13.7,86.3 C14.8,90.3 16.7,94 19.1,97.4 C19.9,98.5 19.7,100.1 18.6,100.9 C18.2,101.3 17.7,101.4 17.1,101.4 Z" id="Shape" fill="#3973F4"></path>
            <path d="M24.4,108.7 C23.9,108.7 23.3,108.5 22.9,108.2 C22.1,107.6 21.2,106.9 20.4,106.2 C19.4,105.3 19.3,103.7 20.2,102.7 C21.1,101.7 22.7,101.6 23.7,102.5 C24.4,103.1 25.1,103.7 25.9,104.3 C27,105.1 27.2,106.7 26.4,107.8 C25.9,108.4 25.1,108.7 24.4,108.7 Z" id="Shape" fill="#3973F4"></path>
            <path d="M58.6,109.1 C67.2,105.9 74.2,99.2 77.9,90.9 C79.2,87.9 83.8,89.9 82.5,92.9 C78.3,102.5 70.2,110.1 60.4,113.8 C57.3,114.9 55.5,110.2 58.6,109.1 Z" id="Shape" fill="#3973F4"></path>
            <path d="M79.7,68.3 C76.7,56.8 67.7,47.6 56.2,44.2 C53,43.3 54.4,38.5 57.6,39.4 C70.7,43.2 81,53.8 84.5,67 C85.3,70.2 80.5,71.5 79.7,68.3 Z" id="Shape" fill="#3973F4"></path>
            <path d="M47.2,102.9 C45.7,102.9 44.4,101.6 44.4,100.1 L44.4,97 C31.2,96 36.3,88 40.3,89.8 C42.2,90.7 44.2,91.1 46,91.1 C49,91.1 52.2,89.9 52.2,86.4 C52.2,78.8 36.1,81.1 36.1,69.4 C36.1,64.3 39.5,60.4 44.9,59.2 L44.9,56 C44.9,54.5 46.2,53.2 47.7,53.2 C49.2,53.2 50.5,54.5 50.5,56 L50.5,58.9 C52.4,59 54.1,59.4 55.7,60.1 C59.3,61.6 57.2,67.3 53.3,65.7 C49.2,64 43.1,64.3 43.1,68.7 C43.1,75.4 59.3,73.3 59.3,85.9 C59.3,91.1 55.6,95.4 50.1,96.6 L50.1,100 C50,101.6 48.8,102.9 47.2,102.9 Z" id="Shape" fill="#FFFFFF"></path>
        </g>
    </g>
</svg>