<?xml version="1.0" encoding="UTF-8"?>
<svg width="121px" height="149px" viewBox="0 0 121 149" version="1.1" xmlns="http://www.w3.org/2000/svg" xmlns:xlink="http://www.w3.org/1999/xlink">
    <!-- Generator: Sketch 51.2 (57519) - http://www.bohemiancoding.com/sketch -->
    <title>Color_Picker</title>
    <desc>Created with Sketch.</desc>
    <defs></defs>
    <g id="Page-1" stroke="none" stroke-width="1" fill="none" fill-rule="evenodd">
        <g id="Color_Picker">
            <path d="M21.6,144.9 C17,149.3 9.2,149.2 4.7,144.8 C4.3,144.4 4,144 3.6,143.6 C2.5,142.2 1.7,140.6 1.2,139 C0.2,135.1 1.1,130.8 4,127.5 C6.5,124.7 9.1,122.1 11.7,119.4 C12.3,118.8 13.3,118.8 13.9,119.4 C17,122.4 19.8,124.9 22.3,127.7 C22.5,127.9 22.6,128.1 22.8,128.3 C23.5,129.2 24.1,130.2 24.5,131.2 C26.6,135.7 25.5,141.2 21.6,144.9 Z" id="Shape" fill="#2767F4" fill-rule="nonzero"></path>
            <path d="M19.3,140.3 C14.7,144.7 6.9,144.6 2.4,140.2 C2,139.8 1.7,139.4 1.3,139 C1.3,139 1.3,139 1.2,138.9 C0.2,135 1.1,130.7 4,127.4 C6.5,124.6 9.1,122 11.7,119.3 C12.3,118.7 13.3,118.7 13.9,119.3 C17,122.3 19.8,124.8 22.3,127.6 C22.5,127.8 22.6,128 22.8,128.2 C24,132.5 22.7,137.1 19.3,140.3 Z" id="Shape" fill="#4988FD" fill-rule="nonzero"></path>
            <path d="M89.8,47.2 L61.8,75.8 L31.1,107.2 C30.3,108 29.3,108.6 28.2,108.9 L15.6,112.4 C12.7,113.2 10,110.5 10.8,107.6 L14.3,95 C14.6,93.9 15.2,92.9 16,92.1 L32.4,75.3 L74.6,32.1 L89.8,47.2 Z" id="Shape" fill="#C5DCFA" fill-rule="nonzero"></path>
            <path d="M61.8,75.9 L31.1,107.3 C30.3,108.1 29.3,108.7 28.2,109 L15.6,112.5 C12.7,113.3 10,110.6 10.8,107.7 L14.3,95.1 C14.6,94 15.2,93 16,92.2 L32.4,75.4 C33.7,74.9 35,74.7 36.4,74.8 L61.8,75.9 Z" id="Shape" fill="#4988FD" fill-rule="nonzero"></path>
            <path d="M55.7,61.2 L54.2,62.7" id="Shape" stroke="#1676EE" stroke-width="2.9945" stroke-linecap="round" stroke-linejoin="round"></path>
            <path d="M74.3,42.6 L60.1,56.8" id="Shape" stroke="#1676EE" stroke-width="2.9945" stroke-linecap="round" stroke-linejoin="round"></path>
            <path d="M94.4,52.7 L69.3,27.6 C66.8,25.1 66.8,20.9 69.3,18.4 C71.8,15.9 76,15.9 78.5,18.4 L103.6,43.5 C106.1,46 106.1,50.2 103.6,52.7 C101,55.2 96.9,55.2 94.4,52.7 Z" id="Shape" fill="#4988FD" fill-rule="nonzero"></path>
            <path d="M99.4,39.3 L81.9,21.8 L99.2,4.5 C104,-0.3 111.9,-0.3 116.7,4.5 C121.5,9.3 121.5,17.2 116.7,22 L99.4,39.3 Z" id="Shape" fill="#2767F4" fill-rule="nonzero"></path>
        </g>
    </g>
</svg>