<?xml version="1.0" encoding="UTF-8"?>
<svg width="124px" height="122px" viewBox="0 0 124 122" version="1.1" xmlns="http://www.w3.org/2000/svg" xmlns:xlink="http://www.w3.org/1999/xlink">
    <!-- Generator: Sketch 51.2 (57519) - http://www.bohemiancoding.com/sketch -->
    <title>Compose_email</title>
    <desc>Created with Sketch.</desc>
    <defs></defs>
    <g id="Page-1" stroke="none" stroke-width="1" fill="none" fill-rule="evenodd">
        <g id="Compose_email" fill-rule="nonzero">
            <path d="M56.3,1.3 C56.3,1.3 56.3,1.3 56.3,1.3 C54.8,-0.1 52.5,2.88657986e-15 51,1.3 C42,8.8 0.9,43.2 0.9,43.2 L0.9,103.6 C0.9,105 2.1,106.2 3.5,106.2 L103.9,106.2 C105.3,106.2 106.5,105 106.5,103.6 L106.5,43.2 C105.1,42 55.8,0.8 56.3,1.3 Z" id="Shape" fill="#2767F4"></path>
            <g id="Group" transform="translate(15.000000, 12.000000)">
                <path d="M70.7,0.9 C74.2,0.9 77,3.7 77,7.2 L77,40.3 L37.5,63.9 L0.4,40.6 L0.4,7.2 C0.4,3.7 3.2,0.9 6.7,0.9 L70.7,0.9 Z" id="Shape" fill="#DFECFD"></path>
                <path d="M63.3,17.7 L12.2,17.7 C11.4,17.7 10.7,17 10.7,16.2 C10.7,15.4 11.4,14.7 12.2,14.7 L63.3,14.7 C64.1,14.7 64.8,15.4 64.8,16.2 C64.8,17 64.2,17.7 63.3,17.7 Z" id="Shape" fill="#4988FD"></path>
                <path d="M41.2,31.3 L12.2,31.3 C11.4,31.3 10.7,30.6 10.7,29.8 C10.7,29 11.4,28.3 12.2,28.3 L41.2,28.3 C42,28.3 42.7,29 42.7,29.8 C42.7,30.6 42,31.3 41.2,31.3 Z" id="Shape" fill="#4988FD"></path>
            </g>
            <path d="M106.4,43.2 L106.4,104 C106.4,105.1 105.7,106 104.8,106.3 C104.5,106.4 104.2,106.5 103.9,106.5 L3.3,106.5 C1.9,106.5 0.8,105.4 0.8,104 L0.8,43.3 L44.9,70.9 C49.3,73.7 54.9,73.7 59.4,71.1 L106.4,43.2 Z" id="Shape" fill="#4988FD"></path>
            <path d="M104.4,78.9 L104.4,106.1 C104.1,106.2 103.8,106.3 103.5,106.3 L73,106.3 C72.4,104.3 72.1,102.2 72.1,100 C72.1,87.3 82.4,77 95.1,77 C98.5,77 101.6,77.6 104.4,78.9 Z" id="Shape" fill="#2767F4"></path>
            <path d="M81,111.6 C78.6,108 77.2,103.6 77.2,99 C77.2,86.3 87.5,76 100.2,76 C112.9,76 123.2,86.3 123.2,99 C123.2,111.7 112.9,122 100.2,122 C92.2,122 85.1,117.8 81,111.6" id="Shape" fill="#21D3AC"></path>
            <path d="M111.7,97.4 L104.9,90.6 C104.1,89.8 102.7,89.8 101.8,90.6 C101,91.4 101,92.8 101.8,93.7 L104.9,96.8 L90.2,96.8 C89,96.8 88,97.8 88,99 C88,100.2 89,101.2 90.2,101.2 L104.9,101.2 L101.8,104.3 C101,105.1 101,106.5 101.8,107.4 C102.2,107.8 102.8,108 103.3,108 C103.9,108 104.4,107.8 104.8,107.4 L111.6,100.6 C112,100.2 112.2,99.6 112.2,99.1 C112.2,98.6 112.1,97.8 111.7,97.4 Z" id="Shape" fill="#FFFFFF"></path>
        </g>
    </g>
</svg>