<?xml version="1.0" encoding="UTF-8"?>
<svg width="112px" height="148px" viewBox="0 0 112 148" version="1.1" xmlns="http://www.w3.org/2000/svg" xmlns:xlink="http://www.w3.org/1999/xlink">
    <!-- Generator: Sketch 51.2 (57519) - http://www.bohemiancoding.com/sketch -->
    <title>Conference</title>
    <desc>Created with Sketch.</desc>
    <defs>
        <linearGradient x1="49.75%" y1="101.0328%" x2="49.75%" y2="46.2048%" id="linearGradient-1">
            <stop stop-color="#4988FD" offset="0%"></stop>
            <stop stop-color="#3973F4" offset="100%"></stop>
        </linearGradient>
    </defs>
    <g id="Page-1" stroke="none" stroke-width="1" fill="none" fill-rule="evenodd">
        <g id="Conference">
            <path d="M111.5,8.1 L111.5,64.7 C111.5,68.7 108.3,72 104.4,72 L8,72 C4.1,72 0.9,68.7 0.9,64.7 L0.9,8.1 C0.9,4.1 4.1,0.8 8,0.8 L104.3,0.8 C108.3,0.8 111.5,4 111.5,8.1 Z" id="Shape" fill="#C5DCFA" fill-rule="nonzero"></path>
            <path d="M108.4,10.3 L108.4,62.5 C108.4,66.2 105.4,69.3 101.7,69.3 L10.7,69.3 C7,69.3 4,66.3 4,62.5 L4,10.3 C4,6.6 7,3.6 10.7,3.6 L101.7,3.6 C105.4,3.5 108.4,6.5 108.4,10.3 Z" id="Shape" fill="#DFECFD" fill-rule="nonzero"></path>
            <path d="M112,115.5 C101,119.4 93.6,119.2 82.7,115.5 L83.7,103.7 C84,99.6 87.9,96.4 92.5,96.4 L102.1,96.4 C106.7,96.4 110.6,99.6 110.9,103.7 L112,115.5 Z" id="Shape" fill="#4988FD" fill-rule="nonzero"></path>
            <circle id="Oval" fill="#6097FD" fill-rule="nonzero" cx="97.3" cy="85.2" r="8"></circle>
            <path d="M32.5,115.5 C21.5,119.4 14.1,119.2 3.2,115.5 L4.2,103.7 C4.5,99.6 8.4,96.4 13,96.4 L22.6,96.4 C27.2,96.4 31.1,99.6 31.4,103.7 L32.5,115.5 Z" id="Shape" fill="#4988FD" fill-rule="nonzero"></path>
            <circle id="Oval" fill="#6097FD" fill-rule="nonzero" cx="17.7" cy="85.2" r="8"></circle>
            <path d="M72.6,145 C61.6,148.9 54.2,148.7 43.3,145 L44.3,133.2 C44.6,129.1 48.5,125.9 53.1,125.9 L62.7,125.9 C67.3,125.9 71.2,129.1 71.5,133.2 L72.6,145 Z" id="Shape" fill="#FFFFFF" fill-rule="nonzero"></path>
            <circle id="Oval" fill="#FFFFFF" fill-rule="nonzero" cx="57.8" cy="114.7" r="8"></circle>
            <path d="M88.3,130.2 L24,130.2 C22.5,130.2 21.5,128.8 21.9,127.4 L36.4,79.2 C36.7,78.3 37.5,77.7 38.5,77.7 L73.8,77.7 C74.8,77.7 75.6,78.3 75.9,79.2 L90.4,127.4 C90.8,128.8 89.7,130.2 88.3,130.2 Z" id="Shape" fill="#DFECFD" fill-rule="nonzero"></path>
            <path d="M72.6,145 C61.6,148.9 54.2,148.7 43.3,145 L44.3,133.2 C44.6,129.1 48.5,125.9 53.1,125.9 L62.7,125.9 C67.3,125.9 71.2,129.1 71.5,133.2 L72.6,145 Z" id="Shape" fill="#4988FD" fill-rule="nonzero"></path>
            <circle id="Oval" fill="#6097FD" fill-rule="nonzero" cx="57.8" cy="114.7" r="8"></circle>
            <g id="Group" transform="translate(27.000000, 11.000000)">
                <g id="Shape">
                    <path d="M57.9,58.2 L1.2,58.2 C0.6,57.6 0.3,56.8 0.4,55.9 C0.9,52.5 1.6,51.7 6.8,49.7 L8.1,49.2 C10.5,48.3 13.6,47.1 17.7,45.3 C18.7,44.9 19.4,44.2 19.8,43.2 C20,42.7 20.2,42.1 20.2,41.5 L20.2,33.7 C20.1,33.5 19.9,33.4 19.8,33.2 C19.1,32.2 18.7,31 18.6,29.8 L17.9,29.5 C15.9,30 16,27.8 15.5,23.7 C15.3,22 15.6,21.6 16.3,21.4 L16.9,20.5 C13,11.7 15,6.3 18.8,4.3 C17.5,1.5 17.5,0.5 17.5,0.5 C17.5,0.5 25.6,1.9 28.4,1.3 C32,0.6 37.4,1.4 39.5,6.2 C42.9,7.5 44.2,9.7 44.5,12 C45,15.7 42.9,19.7 42.5,21.3 C42.5,21.4 42.6,21.4 42.6,21.5 C43.1,21.8 43.3,22.2 43.1,23.7 C42.6,27.6 42.7,30 40.7,29.5 L38.9,32.6 C38.8,33 38.8,33.1 38.8,33.3 C38.7,33.9 38.8,35 38.8,41.5 C38.8,42.3 39,43 39.4,43.6 C39.8,44.3 40.5,44.9 41.3,45.2 C41.3,45.2 41.3,45.2 41.4,45.2 C41.4,45.2 41.4,45.2 41.4,45.2 C46,47.1 49.4,48.4 51.8,49.4 C57.2,51.6 58.1,52.2 58.6,55.8 C58.7,56.8 58.4,57.6 57.9,58.2 Z" fill="#4988FD" fill-rule="nonzero"></path>
                    <path d="M42.6,21.3 C42.8,20.3 42.3,19.1 42,18.2 C41.9,18.1 41.9,17.9 41.8,17.8 C40.2,14.7 36.7,13.4 33.5,13.2 C25,12.8 24.2,14.4 21.6,12 C22.4,13.2 22.5,15.2 21.2,17.6 C20.3,19.3 18.6,20.1 17.1,20.6 C13.2,11.8 15.2,6.4 19,4.4 C17.7,1.6 17.7,0.6 17.7,0.6 C17.7,0.6 25.8,2 28.6,1.4 C32.2,0.7 37.6,1.5 39.7,6.2 C43.1,7.5 44.4,9.7 44.7,12 C45,15.7 43,19.7 42.6,21.3 Z" fill="#3973F4" fill-rule="nonzero"></path>
                    <path d="M7.1,49.7 C7.5,49.5 7.9,49.4 8.4,49.2"></path>
                    <path d="M57.9,58.2 L54.4,58.2 C55.8,55.4 54.9,52.6 51.8,49.4 C57.2,51.6 58.1,52.2 58.6,55.8 C58.7,56.8 58.4,57.6 57.9,58.2 Z" fill="#3973F4" fill-rule="nonzero"></path>
                    <path d="M39.5,43.7 L39.5,45.2 L19.9,45.2 L19.9,43.2 C20.1,42.7 20.3,42.1 20.3,41.5 L20.3,33.7 C20.2,33.5 20,33.4 19.9,33.2 L19.9,32.7 C20.3,33.4 20.9,34.1 21.5,34.6 L27.6,38.9 C29,40.1 31.1,40.1 32.6,39 L38.3,33.8 C38.5,33.6 38.7,33.5 38.9,33.3 C38.8,33.9 38.9,35 38.9,41.5 C38.8,42.4 39.1,43.1 39.5,43.7 Z" fill="url(#linearGradient-1)" fill-rule="nonzero"></path>
                </g>
                <path d="M14.1,48.6 C14.1,48.6 14.2,48.6 14.2,48.6 C14.1,48.6 14.1,48.6 14.1,48.6 L13.4,48.6 L14.1,48.6 Z" id="Shape" fill="#4988FD" fill-rule="nonzero"></path>
                <path d="M15,48 C15.1,47.9 15.1,47.8 15.1,47.7 C15.1,47.9 15.1,48 15,48 Z" id="Shape" fill="#4988FD" fill-rule="nonzero"></path>
            </g>
        </g>
    </g>
</svg>