<?xml version="1.0" encoding="UTF-8"?>
<svg width="149px" height="126px" viewBox="0 0 149 126" version="1.1" xmlns="http://www.w3.org/2000/svg" xmlns:xlink="http://www.w3.org/1999/xlink">
    <!-- Generator: Sketch 51.2 (57519) - http://www.bohemiancoding.com/sketch -->
    <title>Contact</title>
    <desc>Created with Sketch.</desc>
    <defs></defs>
    <g id="Page-1" stroke="none" stroke-width="1" fill="none" fill-rule="evenodd">
        <g id="Contact" fill-rule="nonzero">
            <g id="Group">
                <path d="M97,57.2 L139.2,57.2 C144.2,57.2 148.2,53.2 148.2,48.2 L148.2,9.6 C148.2,4.6 144.2,0.6 139.2,0.6 L81.1,0.6 C76.1,0.6 72.1,4.6 72.1,9.6 L72.1,63.3 C72.1,65.5 74.6,66.7 76.3,65.3 L83,57.2 L83.5,57.2 L97,57.2 Z" id="Shape" fill="#21D3AC"></path>
                <path d="M106.4,108.3 C106.1,109 105.7,109.8 105.2,110.4 C105,110.6 104.9,110.9 104.7,111.1 C101.6,116 97.6,120.4 92.3,123 C86.4,125.9 79.7,125.5 73.3,124.6 C71.1,124.3 68.9,123.8 66.7,123.3 C44.2,117.6 26.4,105.8 13.4,87.7 C11.1,84.5 9,81.1 7,77.6 C4.7,73.5 2.8,69.2 1.5,64.7 C1.2,63.9 1,63 0.8,62.2 C-1,55.4 0.5,49.1 4.4,43.4 C5.8,41.4 7.3,39.5 8.8,37.6 C9.4,36.9 10,36.2 10.7,35.7 C15,32.2 21,31.6 25.7,34.8 C30.1,37.8 34.4,41.1 38.4,44.6 C42.6,48.3 43.6,54.1 41.4,59 C41.1,59.7 40.7,60.4 40.3,61.1 C39.2,62.7 38,64.2 36.8,65.8 C34.2,69.2 34.4,72.2 37.2,75.3 C44.1,82.9 52.3,88.9 61.3,93.7 C64.6,95.5 67.7,94.8 70.1,91.8 C71.3,90.3 72.5,88.7 73.7,87.2 C74.3,86.4 75.1,85.7 75.8,85.1 C80.1,81.7 86.2,81.4 90.9,84.7 C94.9,87.5 98.9,90.5 102.6,93.7 C107.2,97.4 108.6,103.3 106.4,108.3 Z" id="Shape" fill="#4988FD"></path>
                <circle id="Oval" fill="#FFFFFF" cx="92.7" cy="29.7" r="5.1"></circle>
                <circle id="Oval" fill="#FFFFFF" cx="110.1" cy="29.7" r="5.1"></circle>
                <path d="M130.9,33.5 C130,34.3 128.8,34.8 127.5,34.8 C124.7,34.8 122.4,32.5 122.4,29.7 C122.4,26.9 124.7,24.6 127.5,24.6 C130.3,24.6 132.6,26.9 132.6,29.7 C132.6,31.2 131.9,32.6 130.9,33.5" id="Shape" fill="#FFFFFF"></path>
            </g>
            <path d="M104.8,111.2 C104.3,111.3 103.2,113.5 102.9,113.9 C102.2,114.9 101.4,115.9 100.6,116.8 C99,118.6 97.3,120.2 95.3,121.5 C86.7,126.9 76.2,125.7 66.8,123.4 C44.3,117.7 26.5,105.9 13.5,87.8 C11.2,84.6 9.1,81.2 7.1,77.7 C4.8,73.6 2.9,69.3 1.6,64.8 C39.4,116.3 76.5,118.3 104.8,111.2 Z" id="Shape" fill="#2767F4"></path>
            <path d="M41.6,59 L10.9,35.7 C15.2,32.2 21.2,31.6 25.9,34.8 C30.3,37.8 34.6,41.1 38.6,44.6 C42.8,48.3 43.8,54.1 41.6,59 Z" id="Shape" fill="#6097FD"></path>
            <path d="M106.4,108.3 L75.9,85.1 C80.2,81.7 86.3,81.4 91,84.7 C95,87.5 99,90.5 102.7,93.7 C107.2,97.4 108.6,103.3 106.4,108.3 Z" id="Shape" fill="#6097FD"></path>
        </g>
    </g>
</svg>