<?xml version="1.0" encoding="UTF-8"?>
<svg width="121px" height="144px" viewBox="0 0 121 144" version="1.1" xmlns="http://www.w3.org/2000/svg" xmlns:xlink="http://www.w3.org/1999/xlink">
    <!-- Generator: Sketch 51.2 (57519) - http://www.bohemiancoding.com/sketch -->
    <title>Contacts</title>
    <desc>Created with Sketch.</desc>
    <defs></defs>
    <g id="Page-1" stroke="none" stroke-width="1" fill="none" fill-rule="evenodd">
        <g id="Contacts" fill-rule="nonzero">
            <path d="M118.9,54 L97.8,54 L97.8,18.9 L118.9,18.9 C119.9,18.9 120.7,19.7 120.7,20.7 L120.7,52.2 C120.7,53.1 119.9,54 118.9,54 Z" id="Shape" fill="#2767F4"></path>
            <path d="M118.9,90.7 L97.8,90.7 L97.8,55.6 L118.9,55.6 C119.9,55.6 120.7,56.4 120.7,57.4 L120.7,88.9 C120.7,89.9 119.9,90.7 118.9,90.7 Z" id="Shape" fill="#2767F4"></path>
            <path d="M118.9,127.4 L97.8,127.4 L97.8,92.3 L118.9,92.3 C119.9,92.3 120.7,93.1 120.7,94.1 L120.7,125.6 C120.7,126.6 119.9,127.4 118.9,127.4 Z" id="Shape" fill="#2767F4"></path>
            <path d="M112.6,4.3 L112.6,140.7 C112.6,142.5 111.1,144 109.3,144 L5.2,144 C2.7,144 0.6,142 0.6,139.4 L0.6,5.5 C0.6,3 2.6,0.9 5.2,0.9 L109.3,0.9 C111.1,1 112.6,2.5 112.6,4.3 Z" id="Shape" fill="#4988FD"></path>
            <path d="M19.2,1 L19.2,144 L5.1,144 C2.6,144 0.5,142 0.5,139.4 L0.5,5.5 C0.5,3 2.5,0.9 5.1,0.9 L19.2,0.9 L19.2,1 Z" id="Shape" fill="#3973F4"></path>
            <path d="M64.9,103.1 C48.2,103.1 36.5,92 36.5,76.1 C36.5,60.3 48.3,48.3 64.1,48.3 C78.6,48.3 89.5,58.3 89.5,71.5 C89.5,81.8 83.7,89.8 76.2,89.8 C72.7,89.8 70.1,88.2 69.5,85.5 L69.3,84.6 L68.8,85.3 C66.8,88.1 63.7,89.9 60.6,89.9 C54.2,89.9 50,85.1 50,78 C50,68.8 56.2,61.6 64,61.6 C66.8,61.6 70.3,63 71.3,66.1 L72.1,66 L72.4,64.5 C72.6,63.4 73.6,62.6 74.7,62.6 C75.4,62.6 76.1,62.9 76.5,63.5 C76.9,64 77.1,64.8 77,65.5 L73.8,80.3 C73.6,81.1 73.6,81.7 73.6,82.4 C73.6,84.5 74.7,85.8 76.7,85.8 C81,85.8 84.9,79.1 84.9,71.7 C84.9,60.6 76.4,52.9 64.3,52.9 C51,52.9 41.8,62.5 41.8,76.3 C41.8,89.7 51.2,98.8 65.1,98.8 C69.9,98.8 74.4,97.5 78.2,95 C78.5,94.8 78.9,94.7 79.3,94.7 C80,94.7 80.6,95 81,95.5 C81.4,96 81.5,96.6 81.4,97.1 C81.3,97.6 81,98.1 80.6,98.4 C76.3,101.3 70.2,103.1 64.9,103.1 Z M63.9,66.3 C58.4,66.3 54.9,72 54.9,77.3 C54.9,82.8 57.1,85.6 61.4,85.6 C66.4,85.6 70.1,80.6 70.3,73.5 C70.3,69 67.9,66.3 63.9,66.3 Z" id="Shape" fill="#FFFFFF"></path>
        </g>
    </g>
</svg>