<?xml version="1.0" encoding="UTF-8"?>
<svg width="148px" height="129px" viewBox="0 0 148 129" version="1.1" xmlns="http://www.w3.org/2000/svg" xmlns:xlink="http://www.w3.org/1999/xlink">
    <!-- Generator: Sketch 51.2 (57519) - http://www.bohemiancoding.com/sketch -->
    <title>Coupon_3</title>
    <desc>Created with Sketch.</desc>
    <defs>
        <linearGradient x1="43.6113333%" y1="37.875%" x2="15.3433333%" y2="14.07875%" id="linearGradient-1">
            <stop stop-color="#C5DCFA" offset="0%"></stop>
            <stop stop-color="#A9C5EB" offset="100%"></stop>
        </linearGradient>
    </defs>
    <g id="Page-1" stroke="none" stroke-width="1" fill="none" fill-rule="evenodd">
        <g id="Coupon_3" fill-rule="nonzero">
            <g id="Group">
                <path d="M39.8,47.3 L39.8,122.2 C39.8,125.6 42.2,128.3 45.1,128.3 L46.2,128.3 L142.6,128.3 C145.5,128.3 147.9,125.6 147.9,122.2 L147.9,55.8 L147.9,53.4 C147.9,50 145.5,47.3 142.6,47.3 L39.8,47.3" id="Shape" fill="#C5DCFA"></path>
                <path d="M125.6,76 L69.8,48 L125.6,20 C126.7,19.5 126.6,17.9 125.4,17.5 L114.8,14.1 C108.7,12.1 102.2,12.7 96.5,15.5 L50.8,38.5 C50.7,38.5 44.8,35.5 40.7,33.4 C39.3,32.7 38.4,31.3 38.3,29.9 C38.2,29.2 38.3,28.5 38.6,27.8 C38.7,27.6 38.8,27.4 38.9,27.1 C42.3,18 38.5,7.3 29.6,2.6 C19.8,-2.6 7.6,1.3 2.7,11.2 C1.7,13.2 1,15.4 0.8,17.5 C-0.3,25.6 3.8,33.9 11.5,37.8 L31.8,48 L27,50.4 L11.4,58.2 C11.1,58.3 10.8,58.5 10.6,58.6 C1.4,63.8 -2.1,75.2 2.6,84.7 C7.5,94.5 19.4,98.4 29.2,93.5 C38.7,88.7 42.5,77.6 38.6,68.2 C37.7,66.1 38.6,63.6 40.7,62.6 C44.9,60.5 50.8,57.5 50.8,57.5 L54.6,59.4 L96.5,80.5 C102.2,83.4 108.7,83.9 114.8,81.9 L122.8,79.3 L125.4,78.5 C126.6,78.1 126.7,76.5 125.6,76 Z M27.9,23.9 C25.8,28.2 20.6,29.9 16.3,27.7 C12,25.6 10.3,20.4 12.5,16.1 C14.6,11.8 19.8,10.1 24.1,12.3 C28.4,14.4 30.1,19.6 27.9,23.9 Z M24.1,83.5 C19.8,85.6 14.7,83.9 12.5,79.7 C10.4,75.4 12.1,70.3 16.3,68.1 C20.5,65.9 25.7,67.7 27.9,71.9 C30.1,76.2 28.4,81.4 24.1,83.5 Z" id="Shape" fill="#4988FD"></path>
            </g>
            <path d="M139.5,63.6 C139.4,64 135.3,91.3 134.1,91.8 C132.9,92.3 66.8,83.5 66.8,83.5 C66.8,83.5 39.9,69.9 39.9,63.9 C39.9,63.7 39.9,63.5 39.9,63.3 C39.6,57.9 35.7,58.2 35.2,57.7 C42.6,49.6 52.8,47.6 65.2,47.3 C68.1,47.2 71.2,47.2 74.4,47.3 C74.4,47.3 120.7,52.6 125.2,53.7 C129.6,54.9 139.6,63.3 139.5,63.6 Z" id="Shape" fill="#C5DCFA"></path>
            <path d="M65.2,47.4 L65.2,63.4 L39.9,63.4 C39.6,58 35.7,58.3 35.2,57.8 C42.6,49.6 52.8,47.7 65.2,47.4 Z" id="Shape" fill="url(#linearGradient-1)"></path>
            <path d="M67.9,77.2 L67.9,77.1 C67.9,70.5 72.4,65.1 79,65.1 C85.6,65.1 90,70.5 90,77 L90,77.1 C90,83.6 85.6,89.1 78.9,89.1 C72.3,89 67.9,83.6 67.9,77.2 Z M84,77.2 L84,77.1 C84,73.3 81.9,70.3 78.8,70.3 C75.6,70.3 73.8,73.4 73.8,77 L73.8,77.1 C73.8,80.9 75.9,83.9 79,83.9 C82.2,83.9 84,80.8 84,77.2 Z M75.6,108.4 L106.3,66.4 C106.8,65.6 107.6,65.2 108.6,65.2 C110.1,65.2 111.3,66.3 111.3,67.8 C111.3,68.5 111,69.1 110.7,69.5 L80,111.5 C79.5,112.3 78.6,112.7 77.7,112.7 C76.2,112.7 75.1,111.6 75.1,110.1 C75,109.5 75.3,108.9 75.6,108.4 Z M96.2,101.1 L96.2,101 C96.2,94.4 100.7,89 107.3,89 C113.9,89 118.3,94.4 118.3,100.9 L118.3,101 C118.3,107.5 113.8,113 107.2,113 C100.6,113 96.2,107.6 96.2,101.1 Z M112.4,101.1 L112.4,101 C112.4,97.2 110.3,94.2 107.2,94.2 C104,94.2 102.2,97.3 102.2,100.9 L102.2,101 C102.2,104.8 104.3,107.8 107.4,107.8 C110.5,107.8 112.4,104.8 112.4,101.1 Z" id="Shape" fill="#4988FD"></path>
        </g>
    </g>
</svg>