<?xml version="1.0" encoding="UTF-8"?>
<svg width="149px" height="134px" viewBox="0 0 149 134" version="1.1" xmlns="http://www.w3.org/2000/svg" xmlns:xlink="http://www.w3.org/1999/xlink">
    <!-- Generator: Sketch 51.2 (57519) - http://www.bohemiancoding.com/sketch -->
    <title>Coupon</title>
    <desc>Created with Sketch.</desc>
    <defs></defs>
    <g id="Page-1" stroke="none" stroke-width="1" fill="none" fill-rule="evenodd">
        <g id="Coupon" fill-rule="nonzero">
            <path d="M95.1,14.4 L113.1,18.5 C119.4,19.9 124.3,24.8 125.7,31.1 L133.6,65.6 C134.7,69 133.8,72.8 131.3,75.3 L88.1,118.5" id="Shape" fill="#FFFFFF"></path>
            <path d="M79.5,127.1 L131.4,75.2 C133.9,72.7 134.8,68.9 133.7,65.5 L125.8,31 C124.4,24.7 119.5,19.8 113.2,18.4 L78.6,10.7 C75.2,9.6 71.4,10.5 68.9,13 L2.1,79.8 C-0.6,82.5 -0.6,86.9 2.1,89.6 L36.6,124.1 C36.9,124.4 37.3,124.7 37.6,125 C49.6,136 67.8,136.4 80.2,126.2" id="Shape" fill="#4988FD"></path>
            <circle id="Oval" fill="#FFFFFF" transform="translate(102.741420, 41.391060) rotate(-45.000000) translate(-102.741420, -41.391060) " cx="102.74142" cy="41.39106" r="10.2999012"></circle>
            <path d="M138.6,42.3 C136.2,44.7 133.5,46.7 130.7,48.4 C130.4,48.6 130.2,48.7 129.9,48.8 L128.3,41.7 C130.2,40.5 132,39.1 133.7,37.4 C138.1,33 140.9,27.7 141.7,22.5 C142.4,17.6 141.3,13.4 138.5,10.6 C132.4,4.5 120.4,6.7 111.7,15.4 C111,16.1 110.3,16.8 109.7,17.6 C106.5,21.5 104.4,25.9 103.7,30.3 C103.7,30.6 103.6,30.9 103.6,31.1 C103.1,35.6 104.3,39.5 106.9,42.1 C107.8,43 108.9,43.7 110.1,44.3 C110.6,44.5 111.1,44.8 111.6,45.1 C111.8,45.2 112,45.4 112.2,45.6 C111.7,46.7 111,47.8 110.1,48.7 C109.2,49.6 108.2,50.2 107.2,50.7 C107.2,50.7 107.2,50.7 107.1,50.7 C105.2,49.8 103.4,48.6 101.9,47.1 C98.3,43.5 96.5,38.7 96.4,33.2 C96.4,31.9 96.5,30.6 96.7,29.2 C97.4,24.6 99.3,20 102.1,15.8 C103.4,13.9 104.9,12.1 106.6,10.4 C118,-1 134.5,-3.2 143.3,5.6 C152.2,14.4 150.1,30.9 138.6,42.3 Z" id="Shape" fill="#1676EE"></path>
            <path d="M80.9,125.6 C79.8,126.6 78.6,127.5 77.3,128.3 C66.3,135.5 51.9,135.3 41.1,127.8 C39.9,127 38.7,126 37.6,125 C37.8,125 38,124.9 38.3,124.9 C44.3,125.1 51.9,123.3 56.9,120.1 C59.5,118.4 62.9,118.5 65.3,120.4 C70.3,124.5 76.3,125.6 80.9,125.6 Z" id="Shape" fill="#3973F4"></path>
            <path d="M70,40.9 C64.3,40.9 59.7,45.5 59.7,51.2 C59.7,56.9 64.3,61.5 70,61.5 C75.7,61.5 80.3,56.9 80.3,51.2 C80.3,45.5 75.7,40.9 70,40.9 Z M70,56 C67.4,56 65.2,53.9 65.2,51.2 C65.2,48.6 67.3,46.4 70,46.4 C72.6,46.4 74.8,48.5 74.8,51.2 C74.8,53.9 72.7,56 70,56 Z" id="Shape" fill="#FFFFFF"></path>
            <path d="M96.2,77.9 L44.7,77.9 C42.9,77.9 41.4,76.4 41.4,74.6 C41.4,72.8 42.9,71.3 44.7,71.3 L96.2,71.3 C98,71.3 99.5,72.8 99.5,74.6 C99.5,76.4 98.1,77.9 96.2,77.9 Z" id="Shape" fill="#FFFFFF"></path>
            <path d="M69.7,86.8 C64,86.8 59.4,91.4 59.4,97.1 C59.4,102.8 64,107.4 69.7,107.4 C75.4,107.4 80,102.8 80,97.1 C80,91.4 75.4,86.8 69.7,86.8 Z M69.7,101.9 C67.1,101.9 64.9,99.8 64.9,97.1 C64.9,94.5 67,92.3 69.7,92.3 C72.3,92.3 74.5,94.4 74.5,97.1 C74.5,99.7 72.3,101.9 69.7,101.9 Z" id="Shape" fill="#FFFFFF"></path>
        </g>
    </g>
</svg>