<?xml version="1.0" encoding="UTF-8"?>
<svg width="149px" height="134px" viewBox="0 0 149 134" version="1.1" xmlns="http://www.w3.org/2000/svg" xmlns:xlink="http://www.w3.org/1999/xlink">
    <!-- Generator: Sketch 51.2 (57519) - http://www.bohemiancoding.com/sketch -->
    <title>Coupon_2</title>
    <desc>Created with Sketch.</desc>
    <defs></defs>
    <g id="Page-1" stroke="none" stroke-width="1" fill="none" fill-rule="evenodd">
        <g id="Coupon_2" fill-rule="nonzero">
            <path d="M95.2,14.4 L113.2,18.5 C119.5,19.9 124.4,24.8 125.8,31.1 L133.7,65.6 C134.8,69 133.9,72.8 131.4,75.3 L88.2,118.5" id="Shape" fill="#FFFFFF"></path>
            <path d="M79.5,127.1 L131.4,75.2 C133.9,72.7 134.8,68.9 133.7,65.5 L125.8,31 C124.4,24.7 119.5,19.8 113.2,18.4 L78.6,10.7 C75.2,9.6 71.4,10.5 68.9,13 L2.1,79.8 C-0.6,82.5 -0.6,86.9 2.1,89.6 L36.6,124.1 C36.9,124.4 37.3,124.7 37.6,125 C49.6,136 67.8,136.4 80.2,126.2" id="Shape" fill="#4988FD"></path>
            <circle id="Oval" fill="#FFFFFF" transform="translate(102.743320, 41.400660) rotate(-45.000000) translate(-102.743320, -41.400660) " cx="102.74332" cy="41.40066" r="10.2999012"></circle>
            <path d="M138.7,42.3 C136.3,44.7 133.6,46.7 130.8,48.4 C130.5,48.6 130.3,48.7 130,48.8 L128.4,41.7 C130.3,40.5 132.1,39.1 133.8,37.4 C138.2,33 141,27.7 141.8,22.5 C142.5,17.6 141.4,13.4 138.6,10.6 C132.5,4.5 120.5,6.7 111.8,15.4 C111.1,16.1 110.4,16.8 109.8,17.6 C106.6,21.5 104.5,25.9 103.8,30.3 C103.8,30.6 103.7,30.9 103.7,31.1 C103.2,35.6 104.4,39.5 107,42.1 C107.9,43 109,43.7 110.2,44.3 C110.7,44.5 111.2,44.8 111.7,45.1 C111.9,45.2 112.1,45.4 112.3,45.6 C111.8,46.7 111.1,47.8 110.2,48.7 C109.3,49.6 108.3,50.2 107.3,50.7 C107.3,50.7 107.3,50.7 107.2,50.7 C105.3,49.8 103.5,48.6 102,47.1 C98.4,43.5 96.6,38.7 96.5,33.2 C96.5,31.9 96.6,30.6 96.8,29.2 C97.5,24.6 99.4,20 102.2,15.8 C103.5,13.9 105,12.1 106.7,10.4 C118.1,-1 134.6,-3.2 143.4,5.6 C152.2,14.4 150.1,30.9 138.7,42.3 Z" id="Shape" fill="#1676EE"></path>
            <path d="M80.9,125.6 C79.8,126.6 78.6,127.5 77.3,128.3 C66.3,135.5 51.9,135.3 41.1,127.8 C39.9,127 38.7,126 37.6,125 C37.8,125 38,124.9 38.3,124.9 C44.3,125.1 51.9,123.3 56.9,120.1 C59.5,118.4 62.9,118.5 65.3,120.4 C70.3,124.5 76.3,125.6 80.9,125.6 Z" id="Shape" fill="#3973F4"></path>
            <path d="M86.5,57.2 L81.2,72.8 C81.1,73.2 81.1,73.6 81.4,73.9 L91.3,87.1 C91.9,87.9 91.3,89.1 90.3,89.1 L73.8,88.9 C73.4,88.9 73,89.1 72.8,89.4 L63.3,102.9 C62.7,103.7 61.4,103.5 61.1,102.6 L56.2,86.8 C56.1,86.4 55.8,86.1 55.4,86 L39.6,81.1 C38.6,80.8 38.4,79.5 39.3,78.9 L52.8,69.4 C53.1,69.2 53.3,68.8 53.3,68.4 L53.1,51.9 C53.1,50.9 54.3,50.3 55.1,50.9 L68.3,60.8 C68.6,61 69.1,61.1 69.4,61 L85,55.7 C85.9,55.3 86.8,56.3 86.5,57.2 Z" id="Shape" fill="#FFFFFF"></path>
        </g>
    </g>
</svg>