<?xml version="1.0" encoding="UTF-8"?>
<svg width="150px" height="111px" viewBox="0 0 150 111" version="1.1" xmlns="http://www.w3.org/2000/svg" xmlns:xlink="http://www.w3.org/1999/xlink">
    <!-- Generator: Sketch 51.2 (57519) - http://www.bohemiancoding.com/sketch -->
    <title>Credit_Cards</title>
    <desc>Created with Sketch.</desc>
    <defs></defs>
    <g id="Page-1" stroke="none" stroke-width="1" fill="none" fill-rule="evenodd">
        <g id="Credit_Cards" fill-rule="nonzero">
            <g id="Group">
                <path d="M120.1,7.9 L120.1,71.7 C120.1,75.6 117,78.7 113.1,78.7 L7.6,78.7 C3.7,78.7 0.6,75.6 0.6,71.7 L0.6,7.9 C0.6,4 3.7,0.9 7.6,0.9 L113.1,0.9 C116.9,0.9 120.1,4.1 120.1,7.9 Z" id="Shape" fill="#3973F4"></path>
                <path d="M120.1,30.8 L120.1,71.8 C120.1,75.7 117,78.8 113.1,78.8 L24.6,78.8 L24.6,37.8 C24.6,33.9 27.7,30.8 31.6,30.8 L120.1,30.8 Z" id="Shape" fill="#2561E6"></path>
                <g transform="translate(30.000000, 33.000000)" id="Shape">
                    <path d="M112.6,77.8 L7.1,77.8 C3.2,77.8 0.1,74.7 0.1,70.8 L0.1,7 C0.1,3.1 3.2,0 7.1,0 L112.6,0 C116.5,0 119.6,3.1 119.6,7 L119.6,70.8 C119.6,74.7 116.5,77.8 112.6,77.8 Z" fill="#4988FD"></path>
                    <path d="M30.5,30 L14.8,30 C13.5,30 12.4,28.9 12.4,27.6 C12.4,26.3 13.5,25.2 14.8,25.2 L30.5,25.2 C31.8,25.2 32.9,26.3 32.9,27.6 C32.9,28.9 31.9,30 30.5,30 Z" fill="#3973F4"></path>
                    <path d="M55.8,30 L40.1,30 C38.8,30 37.7,28.9 37.7,27.6 C37.7,26.3 38.8,25.2 40.1,25.2 L55.8,25.2 C57.1,25.2 58.2,26.3 58.2,27.6 C58.2,28.9 57.1,30 55.8,30 Z" fill="#3973F4"></path>
                    <path d="M81,30 L65.3,30 C64,30 62.9,28.9 62.9,27.6 C62.9,26.3 64,25.2 65.3,25.2 L81,25.2 C82.3,25.2 83.4,26.3 83.4,27.6 C83.4,28.9 82.3,30 81,30 Z" fill="#3973F4"></path>
                    <path d="M106.2,30 L90.5,30 C89.2,30 88.1,28.9 88.1,27.6 C88.1,26.3 89.2,25.2 90.5,25.2 L106.2,25.2 C107.5,25.2 108.6,26.3 108.6,27.6 C108.6,28.9 107.6,30 106.2,30 Z" fill="#3973F4"></path>
                </g>
            </g>
            <circle id="Oval" fill="#3973F4" cx="130.6" cy="92.9" r="9.2"></circle>
            <circle id="Oval" fill="#6097FD" cx="118.4" cy="92.9" r="9.2"></circle>
            <rect id="Rectangle-path" fill="#2561E6" x="0.6" y="13.9" width="119.5" height="14.9"></rect>
        </g>
    </g>
</svg>