<?xml version="1.0" encoding="UTF-8"?>
<svg width="108px" height="143px" viewBox="0 0 108 143" version="1.1" xmlns="http://www.w3.org/2000/svg" xmlns:xlink="http://www.w3.org/1999/xlink">
    <!-- Generator: Sketch 51.2 (57519) - http://www.bohemiancoding.com/sketch -->
    <title>Crypto_wallet</title>
    <desc>Created with Sketch.</desc>
    <defs></defs>
    <g id="Page-1" stroke="none" stroke-width="1" fill="none" fill-rule="evenodd">
        <g id="Crypto_wallet" fill-rule="nonzero">
            <g id="Group" transform="translate(0.000000, 52.000000)">
                <path d="M105.1,21.5 L105.1,81.9 C105.1,82.5 105,83.1 104.9,83.6 C104.1,87.7 100.5,90.8 96.1,90.8 L9.8,90.8 C4.9,90.8 0.8,86.8 0.8,81.9 L0.8,9.2 C0.8,4.6 4.5,0.9 9.1,0.9 L87.7,0.9 C92.2,0.9 95.9,4.6 95.9,9.1 L95.9,12.5 L96.1,12.5 C98.2,12.5 100.2,13.3 101.7,14.5 C103.8,16.2 105.1,18.7 105.1,21.5 Z" id="Shape" fill="#4988FD"></path>
                <path d="M105.1,47.9 L105.1,68.8 L83.4,68.8 C77.6,68.8 72.9,64.1 72.9,58.3 C72.9,55.4 74.1,52.8 76,50.9 C77.9,49 80.5,47.8 83.4,47.8 L105.1,47.8 L105.1,47.9 Z" id="Shape" fill="#3973F4"></path>
                <path d="M101.8,14.6 L11,14.6 C9.9,14.6 9,13.7 9,12.6 C9,11.5 9.9,10.6 11,10.6 L96.1,10.6 L96.1,12.6 L96.3,12.6 C98.3,12.6 100.3,13.3 101.8,14.6 Z" id="Shape" fill="#3973F4"></path>
                <path d="M107.8,63.1 L83.5,63.1 C77.7,63.1 73,58.4 73,52.6 C73,46.8 77.7,42.1 83.5,42.1 L107.8,42.1 L107.8,63.1 Z" id="Shape" fill="#6097FD"></path>
                <circle id="Oval" fill="#C5DCFA" cx="83.3" cy="52.3" r="4.6"></circle>
            </g>
            <g id="Group" transform="translate(20.000000, 19.000000)">
                <path d="M4,45.2 C1.6,40.9 0.2,35.9 0.2,30.6 C0.2,14.1 13.6,0.7 30.1,0.7 C46.6,0.7 60,14.1 60,30.6 C60,36.1 58.5,41.2 56,45.6" id="Shape" fill="#21D3AC"></path>
                <path d="M36.6,29.9 C38.3,29 39.7,27.5 39.7,24.8 L39.7,24.7 C39.7,23.1 39.2,21.7 38.1,20.7 C37.1,19.7 35.7,19 33.9,18.8 L33.9,15.2 C33.9,14.1 33,13.3 32,13.3 C30.9,13.3 30.1,14.2 30.1,15.2 L30.1,18.6 L28.4,18.6 L28.4,15.2 C28.4,14.1 27.5,13.3 26.5,13.3 C25.4,13.3 24.6,14.2 24.6,15.2 L24.6,18.6 L23.5,18.6 C22,18.6 20.9,19.8 20.9,21.2 L20.9,39.7 C20.9,41.2 22.1,42.3 23.5,42.3 L24.6,42.3 L24.6,43.6 L28.4,43.6 L28.4,42.3 L30.1,42.3 L30.1,43.6 L33.9,43.6 L33.9,42.2 C38.3,41.8 41,39.6 41,35.8 L41,35.7 C41,32.6 39.3,31 36.6,29.9 Z M25.9,23.2 L31.1,23.2 C33.3,23.2 34.5,24.1 34.5,25.6 L34.5,25.7 C34.5,27.5 33,28.2 30.7,28.2 L25.9,28.2 L25.9,23.2 Z M35.8,35.2 C35.8,37 34.4,37.8 32.1,37.8 L25.9,37.8 L25.9,32.6 L31.9,32.6 C34.6,32.6 35.8,33.5 35.8,35.2 Z" id="Shape" fill="#FFFFFF"></path>
            </g>
            <path d="M47.1,92.4 C46.5,92.4 45.9,92.1 45.5,91.6 C44.9,90.7 45,89.5 45.9,88.8 L59.7,78.8 C60,78.6 60.5,78.4 60.9,78.4 L81.6,78.4 C82.7,78.4 83.6,79.3 83.6,80.4 C83.6,81.5 82.7,82.4 81.6,82.4 L61.6,82.4 L48.3,92.1 C47.9,92.2 47.5,92.4 47.1,92.4 Z" id="Shape" fill="#C5DCFA"></path>
            <path d="M54.3,109.3 C54.3,110.4 53.4,111.3 52.3,111.3 L36.5,111.3 L16.1,131.2 C15.7,131.6 15.2,131.8 14.7,131.8 L1,131.8 L1,127.8 L13.9,127.8 L34.3,107.9 C34.7,107.5 35.2,107.3 35.7,107.3 L52.3,107.3 C53.4,107.3 54.3,108.2 54.3,109.3 Z" id="Shape" fill="#C5DCFA"></path>
            <path d="M105.1,131.8 L105.1,133.9 C105.1,134.5 105,135.1 104.9,135.6 C104.7,135.7 104.6,135.7 104.4,135.7 L56.2,135.7 C55.8,135.7 55.4,135.6 55,135.3 L47.3,129.7 L46.1,128.8 C45.2,128.2 45,126.9 45.7,126 C45.7,125.9 45.8,125.9 45.9,125.8 C45.9,125.8 45.9,125.8 45.9,125.8 C46.6,125.1 47.7,125 48.5,125.6 L50,126.7 L56.8,131.6 L104.3,131.6 C104.7,131.7 104.9,131.8 105.1,131.8 Z" id="Shape" fill="#C5DCFA"></path>
            <path d="M57.2,103.4 C54.6,103.4 52.4,105.1 51.6,107.3 C51.3,107.9 51.2,108.6 51.2,109.4 C51.2,110.1 51.3,110.7 51.5,111.3 C52.3,113.7 54.6,115.4 57.2,115.4 C60.5,115.4 63.2,112.7 63.2,109.4 C63.2,106.1 60.5,103.4 57.2,103.4 Z M57.2,111.4 C56.1,111.4 55.2,110.5 55.2,109.4 C55.2,108.3 56.1,107.4 57.2,107.4 C58.3,107.4 59.2,108.3 59.2,109.4 C59.2,110.5 58.3,111.4 57.2,111.4 Z" id="Shape" fill="#C5DCFA"></path>
            <path d="M24.8,82.7 C24.8,83.8 23.9,84.7 22.8,84.7 L0.9,84.7 L0.9,80.7 L22.8,80.7 C23.9,80.7 24.8,81.6 24.8,82.7 Z" id="Shape" fill="#C5DCFA"></path>
            <path d="M26.8,76.8 C24.2,76.8 22,78.4 21.2,80.7 C20.9,81.3 20.8,82.1 20.8,82.8 C20.8,83.5 20.9,84.1 21.1,84.7 C21.9,87.1 24.2,88.8 26.8,88.8 C30.1,88.8 32.8,86.1 32.8,82.8 C32.8,79.5 30.1,76.8 26.8,76.8 Z M26.8,84.8 C25.7,84.8 24.8,83.9 24.8,82.8 C24.8,81.7 25.7,80.8 26.8,80.8 C27.9,80.8 28.8,81.7 28.8,82.8 C28.8,83.9 27.9,84.8 26.8,84.8 Z" id="Shape" fill="#C5DCFA"></path>
            <path d="M13,100.8 C13,101.9 12.1,102.8 11,102.8 L0.9,102.8 L0.9,98.8 L11,98.8 C12.1,98.8 13,99.7 13,100.8 Z" id="Shape" fill="#C5DCFA"></path>
            <path d="M15.9,94.9 C13.3,94.9 11.1,96.5 10.3,98.8 C10,99.4 9.9,100.1 9.9,100.9 C9.9,101.6 10,102.2 10.2,102.8 C11,105.2 13.2,106.9 15.9,106.9 C19.2,106.9 21.9,104.2 21.9,100.9 C21.9,97.6 19.2,94.9 15.9,94.9 Z M15.9,102.9 C14.8,102.9 13.9,102 13.9,100.9 C13.9,99.8 14.8,98.9 15.9,98.9 C17,98.9 17.9,99.8 17.9,100.9 C17.9,102 17,102.9 15.9,102.9 Z" id="Shape" fill="#C5DCFA"></path>
            <path d="M49.4,91.1 C49,89.8 48.1,88.6 47,87.9 C46,87.3 44.9,86.9 43.7,86.9 C40.4,86.9 37.7,89.6 37.7,92.9 C37.7,96.2 40.4,98.9 43.7,98.9 C47,98.9 49.7,96.2 49.7,92.9 C49.7,92.3 49.6,91.7 49.4,91.1 Z M43.7,94.9 C42.6,94.9 41.7,94 41.7,92.9 C41.7,91.8 42.6,90.9 43.7,90.9 C44.8,90.9 45.7,91.8 45.7,92.9 C45.7,94 44.8,94.9 43.7,94.9 Z" id="Shape" fill="#C5DCFA"></path>
            <path d="M86.3,74.6 C83.8,74.6 81.7,76.1 80.7,78.3 C80.4,79 80.2,79.8 80.2,80.6 C80.2,81.2 80.3,81.7 80.4,82.3 C81.1,84.8 83.4,86.6 86.2,86.6 C89.5,86.6 92.2,83.9 92.2,80.6 C92.3,77.3 89.6,74.6 86.3,74.6 Z M86.3,82.6 C85.2,82.6 84.3,81.7 84.3,80.6 C84.3,79.5 85.2,78.6 86.3,78.6 C87.4,78.6 88.3,79.5 88.3,80.6 C88.3,81.7 87.4,82.6 86.3,82.6 Z" id="Shape" fill="#C5DCFA"></path>
            <path d="M44.6,118.5 C41.3,118.5 38.6,121.2 38.6,124.5 C38.6,127.8 41.3,130.5 44.6,130.5 C45.6,130.5 46.6,130.2 47.5,129.8 C48.7,129.2 49.7,128.1 50.2,126.8 C50.5,126.1 50.7,125.3 50.7,124.5 C50.6,121.2 47.9,118.5 44.6,118.5 Z M42.5,124.5 C42.5,123.4 43.4,122.5 44.5,122.5 C45.6,122.5 46.5,123.4 46.5,124.5 C46.5,125.1 46.3,125.6 45.9,125.9 C45.9,125.9 45.9,125.9 45.9,125.9 C45.5,126.3 45,126.5 44.5,126.5 C43.4,126.5 42.5,125.6 42.5,124.5 Z" id="Shape" fill="#C5DCFA"></path>
            <path d="M73.1,21.1 C72,21.1 71.1,20.2 71.1,19.1 L71.1,2.5 C71.1,1.4 72,0.5 73.1,0.5 C74.2,0.5 75.1,1.4 75.1,2.5 L75.1,19.1 C75.1,20.2 74.2,21.1 73.1,21.1 Z" id="Shape" fill="#C5DCFA"></path>
            <path d="M26,21.1 C24.9,21.1 24,20.2 24,19.1 L24,2.5 C24,1.4 24.9,0.5 26,0.5 C27.1,0.5 28,1.4 28,2.5 L28,19.1 C28,20.2 27.1,21.1 26,21.1 Z" id="Shape" fill="#C5DCFA"></path>
            <path d="M50.4,12.1 C49.3,12.1 48.4,11.2 48.4,10.1 L48.4,2.5 C48.4,1.4 49.3,0.5 50.4,0.5 C51.5,0.5 52.4,1.4 52.4,2.5 L52.4,10.1 C52.4,11.2 51.5,12.1 50.4,12.1 Z" id="Shape" fill="#C5DCFA"></path>
        </g>
    </g>
</svg>