<?xml version="1.0" encoding="UTF-8"?>
<svg width="148px" height="149px" viewBox="0 0 148 149" version="1.1" xmlns="http://www.w3.org/2000/svg" xmlns:xlink="http://www.w3.org/1999/xlink">
    <!-- Generator: Sketch 51.2 (57519) - http://www.bohemiancoding.com/sketch -->
    <title>Crypto</title>
    <desc>Created with Sketch.</desc>
    <defs></defs>
    <g id="Page-1" stroke="none" stroke-width="1" fill="none" fill-rule="evenodd">
        <g id="Crypto" fill-rule="nonzero">
            <g id="Group" transform="translate(34.000000, 35.000000)">
                <circle id="Oval" fill="#6097FD" cx="40.4" cy="40.4" r="39.7"></circle>
                <path d="M8.5,42.5 C7.7,42.5 7,41.8 7,41 C7,40.8 7,40.6 7,40.4 C7,36.7 7.6,33.1 8.8,29.6 C9.1,28.8 9.9,28.4 10.7,28.7 C11.5,29 11.9,29.8 11.6,30.6 C10.5,33.7 10,37 10,40.4 C10,40.6 10,40.8 10,41 C10.1,41.8 9.4,42.5 8.5,42.5 C8.6,42.5 8.6,42.5 8.5,42.5 Z" id="Shape" fill="#3973F4"></path>
                <path d="M14.8,60.9 C14.3,60.9 13.9,60.7 13.6,60.3 C11.2,57 9.4,53.4 8.3,49.5 C8.1,48.7 8.5,47.9 9.3,47.6 C10.1,47.4 10.9,47.8 11.2,48.6 C12.2,52.1 13.8,55.4 16,58.4 C16.5,59.1 16.4,60 15.7,60.5 C15.4,60.8 15.1,60.9 14.8,60.9 Z" id="Shape" fill="#3973F4"></path>
                <path d="M21.1,67.2 C20.8,67.2 20.5,67.1 20.2,66.9 C19.5,66.4 18.8,65.8 18.1,65.2 C17.5,64.6 17.4,63.7 18,63.1 C18.6,62.5 19.5,62.4 20.1,63 C20.7,63.6 21.4,64.1 22,64.6 C22.7,65.1 22.8,66 22.3,66.7 C22,67 21.5,67.2 21.1,67.2 Z" id="Shape" fill="#3973F4"></path>
                <path d="M51.6,71.7 C51,71.7 50.4,71.3 50.2,70.7 C49.9,69.9 50.3,69.1 51.1,68.8 C58.7,66 64.9,60.1 68.2,52.6 C68.5,51.8 69.4,51.5 70.2,51.8 C71,52.1 71.3,53 71,53.8 C67.4,62 60.5,68.4 52.2,71.6 C51.9,71.7 51.7,71.7 51.6,71.7 Z" id="Shape" fill="#3973F4"></path>
                <path d="M71.2,33.7 C70.5,33.7 69.9,33.3 69.8,32.6 C67.1,22.4 59.1,14.2 49,11.2 C48.2,11 47.7,10.1 48,9.3 C48.2,8.5 49.1,8 49.9,8.3 C61.1,11.5 69.8,20.5 72.8,31.8 C73,32.6 72.5,33.4 71.7,33.6 C71.4,33.7 71.3,33.7 71.2,33.7 Z" id="Shape" fill="#3973F4"></path>
            </g>
            <path d="M83.1,74.6 C85.4,73.3 87.3,71.4 87.3,67.8 L87.3,67.7 C87.3,65.5 86.6,63.8 85.1,62.3 C83.8,61 81.9,60.1 79.5,59.7 L79.5,54.9 C79.5,53.5 78.4,52.4 77,52.4 C75.6,52.4 74.5,53.5 74.5,54.9 L74.5,59.5 L72.2,59.5 L72.2,54.9 C72.2,53.5 71.1,52.4 69.7,52.4 C68.3,52.4 67.2,53.5 67.2,54.9 L67.2,59.5 L65.8,59.5 C63.9,59.5 62.3,61 62.3,63 L62.3,87.6 C62.3,89.5 63.8,91.1 65.8,91.1 L67.2,91.1 L67.2,95.7 C67.2,97.1 68.3,98.2 69.7,98.2 C71.1,98.2 72.2,97.1 72.2,95.7 L72.2,91.1 L74.5,91.1 L74.5,95.7 C74.5,97.1 75.6,98.2 77,98.2 C78.4,98.2 79.5,97.1 79.5,95.7 L79.5,90.9 C85.3,90.3 89,87.5 89,82.4 L89,82.3 C89,78.1 86.8,76 83.1,74.6 Z M68.9,65.6 L75.8,65.6 C78.7,65.6 80.4,66.8 80.4,68.8 L80.4,68.9 C80.4,71.2 78.5,72.2 75.4,72.2 L69,72.2 L69,65.6 L68.9,65.6 Z M82.1,81.5 C82.1,83.8 80.2,84.9 77.2,84.9 L68.9,84.9 L68.9,78 L76.9,78 C80.5,78 82.1,79.3 82.1,81.5 Z" id="Shape" fill="#FFFFFF"></path>
            <g id="Group" fill="#3973F4">
                <path d="M76.4,133.9 L76.4,121.6 C76.4,120.2 75.3,119.1 73.9,119.1 C72.5,119.1 71.4,120.2 71.4,121.6 L71.4,133.9 C68.4,134.9 66.3,137.8 66.3,141.1 C66.3,145.3 69.7,148.7 73.9,148.7 C78.1,148.7 81.5,145.3 81.5,141.1 C81.5,137.7 79.3,134.9 76.4,133.9 Z" id="Shape"></path>
                <path d="M14.9,77.4 L27.2,77.4 C28.6,77.4 29.7,76.3 29.7,74.9 C29.7,73.5 28.6,72.4 27.2,72.4 L14.9,72.4 C13.9,69.4 11,67.3 7.7,67.3 C3.5,67.3 0.1,70.7 0.1,74.9 C0.1,79.1 3.5,82.5 7.7,82.5 C11,82.5 13.8,80.3 14.9,77.4 Z" id="Shape"></path>
                <path d="M31.6,99.4 L16.9,99.4 C15.5,99.4 14.4,100.5 14.4,101.9 L14.4,119.6 C14.4,119.6 14.4,119.6 14.4,119.7 C11.4,120.7 9.3,123.6 9.3,126.9 C9.3,131.1 12.7,134.5 16.9,134.5 C21.1,134.5 24.5,131.1 24.5,126.9 C24.5,123.6 22.4,120.8 19.4,119.7 C19.4,119.7 19.4,119.7 19.4,119.7 L19.4,104.5 L31.6,104.5 C33,104.5 34.1,103.4 34.1,102 C34.1,100.6 33,99.4 31.6,99.4 Z" id="Shape"></path>
                <path d="M14.4,30.2 L14.4,47.2 C14.4,48.6 15.5,49.7 16.9,49.7 L28.7,49.7 C30.1,49.7 31.2,48.6 31.2,47.2 C31.2,45.8 30.1,44.7 28.7,44.7 L19.4,44.7 L19.4,30.2 C22.4,29.2 24.5,26.3 24.5,23 C24.5,18.8 21.1,15.4 16.9,15.4 C12.7,15.4 9.3,18.8 9.3,23 C9.3,26.3 11.4,29.2 14.4,30.2 Z" id="Shape"></path>
                <path d="M120.2,49.7 L132,49.7 C133.4,49.7 134.5,48.6 134.5,47.2 L134.5,30.2 C137.5,29.2 139.6,26.3 139.6,23 C139.6,18.8 136.2,15.4 132,15.4 C127.8,15.4 124.4,18.8 124.4,23 C124.4,26.3 126.5,29.1 129.5,30.2 L129.5,44.7 L120.2,44.7 C118.8,44.7 117.7,45.8 117.7,47.2 C117.7,48.6 118.8,49.7 120.2,49.7 Z" id="Shape"></path>
                <path d="M134.5,119.5 L134.5,101.8 C134.5,100.4 133.4,99.3 132,99.3 L117.3,99.3 C115.9,99.3 114.8,100.4 114.8,101.8 C114.8,103.2 115.9,104.3 117.3,104.3 L129.5,104.3 L129.5,119.5 C126.5,120.5 124.4,123.4 124.4,126.7 C124.4,130.9 127.8,134.3 132,134.3 C136.2,134.3 139.6,130.9 139.6,126.7 C139.6,123.4 137.4,120.6 134.5,119.5 Z" id="Shape"></path>
                <path d="M71.4,15.7 L71.4,27.5 C71.4,28.9 72.5,30 73.9,30 C75.3,30 76.4,28.9 76.4,27.5 L76.4,15.7 C79.4,14.7 81.5,11.8 81.5,8.5 C81.5,4.3 78.1,0.9 73.9,0.9 C69.7,0.9 66.3,4.3 66.3,8.5 C66.3,11.8 68.4,14.7 71.4,15.7 Z" id="Shape"></path>
                <path d="M140.3,67.5 C137.1,67.5 134.3,69.5 133.2,72.4 L121.2,72.4 C119.8,72.4 118.7,73.5 118.7,74.9 C118.7,76.3 119.8,77.4 121.2,77.4 L133,77.4 C134,80.5 136.9,82.7 140.2,82.7 C144.4,82.7 147.8,79.3 147.8,75.1 C147.9,70.9 144.4,67.5 140.3,67.5 Z" id="Shape"></path>
            </g>
        </g>
    </g>
</svg>