<?xml version="1.0" encoding="UTF-8"?>
<svg width="128px" height="141px" viewBox="0 0 128 141" version="1.1" xmlns="http://www.w3.org/2000/svg" xmlns:xlink="http://www.w3.org/1999/xlink">
    <!-- Generator: Sketch 51.2 (57519) - http://www.bohemiancoding.com/sketch -->
    <title>Cup</title>
    <desc>Created with Sketch.</desc>
    <defs></defs>
    <g id="Page-1" stroke="none" stroke-width="1" fill="none" fill-rule="evenodd">
        <g id="Cup">
            <path d="M109.2,121 C80.5,121 72.6,99 72.6,80.1 L68.1,77.4 L68,74 L65.1,75.7 L62.2,74 L62.1,77.4 L57.6,80.1 C57.6,99 49.7,121 21,121 C20.9,121 21,140.5 21,140.5 L61,140.5 L69.2,140.5 L109.2,140.5 C109.2,140.5 109.3,121 109.2,121 Z" id="Shape" fill="#FFFFFF" fill-rule="nonzero"></path>
            <path d="M109.2,140.5 L21,140.5 C21,140.5 20.9,122.6 21,121.1 C21,121 21,121 21,121 C38.4,121 48.1,112.9 53.1,102.4 C56.4,95.5 57.6,87.6 57.6,80.1 L62.1,77.4 L62.2,74 L65.1,75.7 L68,74 L68.1,77.4 L72.6,80.1 C72.6,87.5 73.8,95.4 77,102.2 C82,112.8 91.7,121 109.2,121 C109.2,121 109.2,121 109.2,121.1 C109.3,122.6 109.2,140.5 109.2,140.5 Z" id="Shape" fill="#3973F4" fill-rule="nonzero"></path>
            <path d="M109.2,140.5 L21,140.5 C21,140.5 20.9,122.6 21,121.1 L109.2,121.1 C109.3,122.6 109.2,140.5 109.2,140.5 Z" id="Shape" fill="#6A9EFD" fill-rule="nonzero"></path>
            <path d="M77,102.2 C73.2,103.7 69.1,104.5 64.9,104.5 C60.8,104.5 56.8,103.8 53.2,102.4 C56.5,95.5 57.7,87.6 57.7,80.1 L62.2,77.4 L62.3,74 L65.2,75.7 L68.1,74 L68.2,77.4 L72.7,80.1 C72.6,87.5 73.8,95.4 77,102.2 Z" id="Shape" fill="#2767F4" fill-rule="nonzero"></path>
            <path d="M34.1,62.4 C26.4,62.4 19.8,59.7 14.5,54.3 C-1.1,38.5 0.4,11.9 0.5,10.5 C0.6,8.5 2.2,6.9 4.2,6.9 L32.3,6.9 C34.4,6.9 36,8.6 36,10.6 C36,12.7 34.3,14.3 32.3,14.3 L7.9,14.3 C8,23 9.2,38.2 19.8,49 C23.9,53.1 28.8,55 34.9,54.8 C37,54.7 38.7,56.4 38.8,58.4 C38.9,60.5 37.2,62.2 35.2,62.3 C34.8,62.4 34.4,62.4 34.1,62.4 Z" id="Shape" fill="#4988FD" fill-rule="nonzero"></path>
            <path d="M93.5,62.4 C93.1,62.4 92.8,62.4 92.4,62.4 C90.3,62.3 88.7,60.6 88.8,58.5 C88.9,56.4 90.6,54.8 92.7,54.9 C98.8,55.1 103.7,53.2 107.8,49.1 C118.4,38.3 119.7,23.1 119.7,14.4 L95.3,14.4 C93.2,14.4 91.6,12.7 91.6,10.7 C91.6,8.6 93.3,7 95.3,7 L123.4,7 C125.4,7 127,8.6 127.1,10.6 C127.2,12 128.6,38.6 113.1,54.4 C107.8,59.6 101.2,62.4 93.5,62.4 Z" id="Shape" fill="#4988FD" fill-rule="nonzero"></path>
            <path d="M34.1,62.4 C26.4,62.4 19.8,59.7 14.5,54.3 C-1.1,38.5 0.4,11.9 0.5,10.5 C0.6,8.5 2.2,6.9 4.2,6.9 L32.3,6.9 C34.4,6.9 36,8.6 36,10.6 C36,12.7 34.3,14.3 32.3,14.3 L7.9,14.3 C8,23 9.2,38.2 19.8,49 C23.9,53.1 28.8,55 34.9,54.8 C37,54.7 38.7,56.4 38.8,58.4 C38.9,60.5 37.2,62.2 35.2,62.3 C34.8,62.4 34.4,62.4 34.1,62.4 Z" id="Shape" fill="#4988FD" fill-rule="nonzero"></path>
            <path d="M93.5,62.4 C93.1,62.4 92.8,62.4 92.4,62.4 C90.3,62.3 88.7,60.6 88.8,58.5 C88.9,56.4 90.6,54.8 92.7,54.9 C98.8,55.1 103.7,53.2 107.8,49.1 C118.4,38.3 119.7,23.1 119.7,14.4 L95.3,14.4 C93.2,14.4 91.6,12.7 91.6,10.7 C91.6,8.6 93.3,7 95.3,7 L123.4,7 C125.4,7 127,8.6 127.1,10.6 C127.2,12 128.6,38.6 113.1,54.4 C107.8,59.6 101.2,62.4 93.5,62.4 Z" id="Shape" fill="#4988FD" fill-rule="nonzero"></path>
            <path d="M85.7,133.6 L44.2,133.6 C42.8,133.6 41.7,132.5 41.7,131.1 C41.7,129.7 42.8,128.6 44.2,128.6 L85.7,128.6 C87.1,128.6 88.2,129.7 88.2,131.1 C88.2,132.5 87.1,133.6 85.7,133.6 Z" id="Shape" fill="#3973F4" fill-rule="nonzero"></path>
            <path d="M102.2,0.9 L102.2,55.1 C102.2,75.2 86.5,91.5 66.7,92.6 C66.7,92.6 66.7,92.6 66.7,92.6 C66.1,92.6 65.4,92.6 64.8,92.6 C44.1,92.6 27.3,75.8 27.3,55.1 L27.3,0.9 L102.2,0.9 Z" id="Shape"></path>
            <path d="M102.2,0.9 L102.2,55.1 C102.2,75.2 86.5,91.5 66.7,92.6 C66.7,92.6 66.7,92.6 66.7,92.6 C66.1,92.6 65.4,92.6 64.8,92.6 C56,92.6 48,89.6 41.6,84.6 C32.9,77.7 27.3,67.1 27.3,55.1 L27.3,0.9 L102.2,0.9 Z" id="Shape" fill="#4988FD" fill-rule="nonzero"></path>
            <path d="M68.5,92.7 C68.8,92.7 69.1,92.7 69.4,92.7 C69.3,92.7 69.2,92.7 69.1,92.7 C68.9,92.7 68.7,92.7 68.5,92.7 Z" id="Shape" fill="#BAD8FF" fill-rule="nonzero"></path>
            <path d="M102.2,5.7 L102.2,55.2 C102.2,75.3 86.5,91.6 66.7,92.7 C66.7,92.7 66.7,92.7 66.7,92.7 C66.1,92.7 65.4,92.7 64.8,92.7 C56,92.7 48,89.7 41.6,84.7 C38.4,80.6 42.1,74.4 47.5,75.5 C49.8,76 52.2,76.3 54.6,76.3 C74.1,76.5 90,60 90,40.5 L90,18 C89.9,11.2 95.4,5.7 102.2,5.7 Z" id="Shape" fill="#3973F4" fill-rule="nonzero"></path>
        </g>
    </g>
</svg>