<?xml version="1.0" encoding="UTF-8"?>
<svg width="111px" height="138px" viewBox="0 0 111 138" version="1.1" xmlns="http://www.w3.org/2000/svg" xmlns:xlink="http://www.w3.org/1999/xlink">
    <!-- Generator: Sketch 51.2 (57519) - http://www.bohemiancoding.com/sketch -->
    <title>Currecny_up</title>
    <desc>Created with Sketch.</desc>
    <defs></defs>
    <g id="Page-1" stroke="none" stroke-width="1" fill="none" fill-rule="evenodd">
        <g id="Currecny_up" fill-rule="nonzero">
            <path d="M77.9,62.1 L77.9,30.6 L69.5,30.5 C68.2,30.5 67.4,29 68.2,27.9 L87.3,1.1 C88.3,-0.3 90.5,-0.3 91.5,1.1 L110.3,28 C111.1,29.1 110.3,30.6 108.9,30.6 L102.3,30.6 L102.3,88.1" id="Shape" fill="#21D3AC"></path>
            <circle id="Oval" fill="#3973F4" cx="51.5" cy="86.3" r="51"></circle>
            <circle id="Oval" fill="#4988FD" cx="51.5" cy="86.3" r="37.8"></circle>
            <path d="M50.8,112.9 C48.9,112.9 47.4,111.4 47.4,109.5 L47.4,106.6 C45,106.4 42.6,105.8 40.6,104.8 C38.9,104 38,102 38.7,100.2 C39.2,98.7 40.6,97.7 42.2,97.7 C42.7,97.7 43.2,97.8 43.7,98 C45.1,98.6 47.2,99.4 49.9,99.4 C53.4,99.4 55.7,97.6 55.7,94.9 C55.7,93.1 55,91.1 49.7,88.9 C43.9,86.6 38.6,83.6 38.6,76.8 C38.6,71.3 42.2,67 47.9,65.6 L47.9,62.5 C47.9,60.6 49.4,59.1 51.3,59.1 C53.2,59.1 54.7,60.6 54.7,62.5 L54.7,65.2 C56.6,65.4 58.3,65.8 59.9,66.5 C61.7,67.2 62.6,69.3 61.9,71.2 C61.4,72.6 60,73.6 58.5,73.6 C58,73.6 57.5,73.5 57.1,73.3 C55.5,72.6 53.8,72.3 51.9,72.3 C48.2,72.3 46.9,74.3 46.9,76.1 C46.9,78.1 47.9,79.4 53.6,81.7 C58.5,83.7 64.1,86.9 64.1,94.4 C64.1,100.1 60.2,104.7 54.4,106.1 L54.4,109.4 C54.3,111.4 52.8,112.9 50.8,112.9 Z" id="Shape" fill="#FFFFFF"></path>
        </g>
    </g>
</svg>