<?xml version="1.0" encoding="UTF-8"?>
<svg width="142px" height="143px" viewBox="0 0 142 143" version="1.1" xmlns="http://www.w3.org/2000/svg" xmlns:xlink="http://www.w3.org/1999/xlink">
    <!-- Generator: Sketch 51.2 (57519) - http://www.bohemiancoding.com/sketch -->
    <title>Currecny</title>
    <desc>Created with Sketch.</desc>
    <defs></defs>
    <g id="Page-1" stroke="none" stroke-width="1" fill="none" fill-rule="evenodd">
        <g id="Currecny" fill-rule="nonzero">
            <circle id="Oval" fill="#3973F4" cx="74.4" cy="73.5" r="62"></circle>
            <circle id="Oval" fill="#4988FD" cx="74.4" cy="73.5" r="45.8"></circle>
            <g id="Group">
                <path d="M74.2,104 C72,104 70.1,102.2 70.1,99.9 L70.1,96.8 C67.4,96.5 64.7,95.8 62.4,94.8 C60.3,93.8 59.4,91.5 60.1,89.4 C60.7,87.6 62.4,86.5 64.2,86.5 C64.8,86.5 65.4,86.6 66,86.9 C67.5,87.6 70,88.4 72.9,88.4 C76.8,88.4 79.4,86.4 79.4,83.4 C79.4,81.4 78.6,79.2 72.7,76.8 C66.4,74.3 59.9,70.7 59.9,62.9 C59.9,56.6 64,51.7 70.5,50.1 L70.5,46.7 C70.5,44.5 72.3,42.6 74.6,42.6 C76.8,42.6 78.7,44.4 78.7,46.7 L78.7,49.6 C80.8,49.8 82.7,50.3 84.5,51 C86.6,51.9 87.7,54.4 86.9,56.6 C86.3,58.3 84.7,59.4 82.8,59.4 C82.2,59.4 81.7,59.3 81.1,59.1 C79.3,58.4 77.4,58 75.3,58 C71.2,58 69.8,60.1 69.8,62.1 C69.8,64.3 70.9,65.7 77.3,68.3 C82.9,70.6 89.3,74.3 89.3,82.9 C89.3,89.4 84.9,94.6 78.2,96.4 L78.2,100 C78.3,102.1 76.5,104 74.2,104 Z" id="Shape" fill="#FFFFFF"></path>
                <path d="M49.2,130.1 C49.2,130.2 48.7,130.6 48.7,130.6 C42.4,139 31.4,143.7 21,142.1 C9,140.4 1,129.7 0.7,117.9 C0.5,109.1 5,101.2 10.9,94.9 L3.4,88.5 C2.1,87.4 2.6,85.4 4.2,85 L43.5,75 C45,74.6 46.5,75.9 46.3,77.4 L42.4,117.8 C42.2,119.4 40.3,120.2 39,119.2 L33.9,114.8 C32.8,119.3 37.3,126 44.9,127.9 L47,129" id="Shape" fill="#21D3AC"></path>
                <path d="M91.9,14.1 L93.1,12.7 C99.4,4.3 110.4,-0.4 120.8,1.2 C132.8,2.9 140.8,13.6 141.1,25.4 C141.3,34.2 136.8,42.1 130.9,48.4 L138.4,54.8 C139.7,55.9 139.2,57.9 137.6,58.3 L98.3,68.3 C96.8,68.7 95.3,67.4 95.5,65.9 L99.4,25.5 C99.6,23.9 101.5,23.1 102.8,24.1 L107.9,28.5 C109.1,23.6 104.2,16.4 95.4,15.1" id="Shape" fill="#21D3AC"></path>
            </g>
        </g>
    </g>
</svg>