<?xml version="1.0" encoding="UTF-8"?>
<svg width="111px" height="138px" viewBox="0 0 111 138" version="1.1" xmlns="http://www.w3.org/2000/svg" xmlns:xlink="http://www.w3.org/1999/xlink">
    <!-- Generator: Sketch 51.2 (57519) - http://www.bohemiancoding.com/sketch -->
    <title>Currecny_down</title>
    <desc>Created with Sketch.</desc>
    <defs></defs>
    <g id="Page-1" stroke="none" stroke-width="1" fill="none" fill-rule="evenodd">
        <g id="Currecny_down" fill-rule="nonzero">
            <path d="M32.8,75.2 L32.8,106.7 L41.2,106.8 C42.5,106.8 43.3,108.3 42.5,109.4 L23.4,136.2 C22.4,137.6 20.2,137.6 19.2,136.2 L0.4,109.3 C-0.4,108.2 0.4,106.7 1.8,106.7 L8.4,106.7 L8.4,49.2" id="Shape" fill="#21D3AC"></path>
            <circle id="Oval" fill="#3973F4" cx="59.3" cy="51" r="51"></circle>
            <circle id="Oval" fill="#4988FD" cx="59.3" cy="51" r="37.8"></circle>
            <path d="M58.2,77.8 C56.3,77.8 54.8,76.3 54.8,74.4 L54.8,71.5 C52.4,71.3 50,70.7 48,69.7 C46.3,68.9 45.4,66.9 46.1,65.1 C46.6,63.6 48,62.6 49.6,62.6 C50.1,62.6 50.6,62.7 51.1,62.9 C52.5,63.5 54.6,64.3 57.3,64.3 C60.8,64.3 63.1,62.5 63.1,59.8 C63.1,58 62.4,56 57.1,53.8 C51.3,51.5 46,48.5 46,41.7 C46,36.2 49.6,31.9 55.3,30.5 L55.3,27.4 C55.3,25.5 56.8,24 58.7,24 C60.6,24 62.1,25.5 62.1,27.4 L62.1,30.1 C64,30.3 65.7,30.7 67.3,31.4 C69.1,32.1 70,34.2 69.3,36.1 C68.8,37.5 67.4,38.5 65.9,38.5 C65.4,38.5 64.9,38.4 64.5,38.2 C62.9,37.5 61.2,37.2 59.3,37.2 C55.6,37.2 54.3,39.2 54.3,41 C54.3,43 55.3,44.3 61,46.6 C65.9,48.6 71.5,51.8 71.5,59.3 C71.5,65 67.6,69.6 61.8,71 L61.8,74.3 C61.7,76.3 60.2,77.8 58.2,77.8 Z" id="Shape" fill="#FFFFFF"></path>
        </g>
    </g>
</svg>