<?xml version="1.0" encoding="UTF-8"?>
<svg width="150px" height="124px" viewBox="0 0 150 124" version="1.1" xmlns="http://www.w3.org/2000/svg" xmlns:xlink="http://www.w3.org/1999/xlink">
    <!-- Generator: Sketch 51.2 (57519) - http://www.bohemiancoding.com/sketch -->
    <title>Database</title>
    <desc>Created with Sketch.</desc>
    <defs></defs>
    <g id="Page-1" stroke="none" stroke-width="1" fill="none" fill-rule="evenodd">
        <g id="Database" fill-rule="nonzero">
            <g id="Group" transform="translate(75.000000, 15.000000)">
                <path d="M74.7,16.9 L74.7,74.3 C74.7,83.1 58,90.3 37.4,90.3 C22.3,90.3 9.4,86.5 3.5,81 C1.3,79 0.1,76.7 0.1,74.3 L0.1,16.9 C0.1,8.1 16.8,0.9 37.5,0.9 C58,0.9 74.7,8.1 74.7,16.9 Z" id="Shape" fill="#3973F4"></path>
                <ellipse id="Oval" fill="#4988FD" cx="37.4" cy="16.5" rx="37.2" ry="15.5"></ellipse>
                <path d="M74.7,35.7 L74.7,39.4 C70,46.3 55.2,51.3 37.4,51.3 C19.7,51.3 4.8,46.3 0.1,39.4 L0.1,35.6 C1.4,43.5 17.9,49.8 37.4,49.8 C57.1,49.8 73.4,43.6 74.7,35.7 Z" id="Shape" fill="#2767F4"></path>
                <path d="M74.7,55.8 L74.7,59.5 C70,66.4 55.2,71.4 37.4,71.4 C19.7,71.4 4.8,66.4 0.1,59.5 L0.1,55.7 C1.4,63.6 17.9,69.9 37.4,69.9 C57.1,69.9 73.4,63.7 74.7,55.8 Z" id="Shape" fill="#2767F4"></path>
            </g>
            <path d="M103.4,22.8 L103.4,101.5 C103.4,113.6 80.4,123.5 52.1,123.5 C31.4,123.5 13.6,118.3 5.5,110.7 C2.5,107.9 0.8,104.8 0.8,101.5 L0.8,22.8 C0.8,10.7 23.8,0.8 52.1,0.8 C80.4,0.9 103.4,10.7 103.4,22.8 Z" id="Shape" fill="#4988FD"></path>
            <ellipse id="Oval" fill="#6097FD" cx="52.1" cy="22.3" rx="51.1" ry="21.3"></ellipse>
            <path d="M103.4,48.7 L103.4,53.8 C96.9,63.3 76.6,70.1 52.1,70.1 C27.8,70.1 7.3,63.3 0.8,53.8 L0.8,48.6 C2.5,59.4 25.2,68.1 52.1,68.1 C79.1,68.1 101.5,59.5 103.4,48.7 Z" id="Shape" fill="#3973F4"></path>
            <path d="M103.4,76.2 L103.4,81.3 C96.9,90.8 76.6,97.6 52.1,97.6 C27.8,97.6 7.3,90.8 0.8,81.3 L0.8,76.1 C2.5,86.9 25.2,95.6 52.1,95.6 C79.1,95.6 101.5,87 103.4,76.2 Z" id="Shape" fill="#3973F4"></path>
            <ellipse id="Oval" fill="#FFFFFF" cx="9.2" cy="47.4" rx="3" ry="3.5"></ellipse>
            <ellipse id="Oval" fill="#21D3AC" cx="18.8" cy="51.8" rx="3" ry="3.5"></ellipse>
            <ellipse id="Oval" fill="#FFFFFF" cx="9.2" cy="74.6" rx="3" ry="3.5"></ellipse>
            <ellipse id="Oval" fill="#21D3AC" cx="18.8" cy="79" rx="3" ry="3.5"></ellipse>
            <ellipse id="Oval" fill="#FFFFFF" cx="9.2" cy="101.2" rx="3" ry="3.5"></ellipse>
            <ellipse id="Oval" fill="#21D3AC" cx="18.8" cy="105.5" rx="3" ry="3.5"></ellipse>
        </g>
    </g>
</svg>