<?xml version="1.0" encoding="UTF-8"?>
<svg width="144px" height="148px" viewBox="0 0 144 148" version="1.1" xmlns="http://www.w3.org/2000/svg" xmlns:xlink="http://www.w3.org/1999/xlink">
    <!-- Generator: Sketch 51.2 (57519) - http://www.bohemiancoding.com/sketch -->
    <title>Delivery_3_1_</title>
    <desc>Created with Sketch.</desc>
    <defs></defs>
    <g id="Page-1" stroke="none" stroke-width="1" fill="none" fill-rule="evenodd">
        <g id="Delivery_3_1_" fill-rule="nonzero">
            <g id="Group" transform="translate(0.000000, 68.000000)">
                <path d="M1.4,4.5 C1,5 1.3,4.6 0.8,5.1 C1,4.9 1.2,4.7 1.4,4.5 Z" id="Shape" fill="#C5DCFA"></path>
                <path d="M53.1,50.9 L36.6,30.5 C33.3,27.2 28.1,27.2 24.8,30.5 C23.6,31.7 22.9,33.2 22.5,34.7 L22,33.1 L21.9,32.7 C21.9,32.5 15.7,7.1 15.7,6.9 C14.3,1 6.9,-1.1 2.7,3.2 C2.1,3.8 1.7,4.4 1.7,4.4 C1.6,4.5 1.6,4.6 1.5,4.7 C1.5,4.7 1.5,4.7 1.5,4.7 C-0.3,7.7 0.2,7.3 3.5,32.8 C3.8,35.4 4.6,37.9 5.8,40.3 C7,42.7 8.9,46.5 12.2,53.1 C14.2,57.2 12.3,57.4 32.5,67.4 C34.6,68.5 36.4,70.1 37.6,72 L39.6,79.7 L60.8,79.5 L60.8,71 C60.8,63.7 58.1,56.5 53.1,50.9 Z" id="Shape" fill="#C5DCFA"></path>
                <path d="M36.6,54.1 L23.9,43.3 C20.6,40 20.6,34.8 23.9,31.5 C27.2,28.2 32.4,28.2 35.7,31.5 L52.2,51.9 C57.1,57.5 59.9,64.7 59.9,72.1 L56.8,67.6 L42.8,61.5" id="Shape" fill="#BAD3F5"></path>
                <path d="M37.2,54.9 L24.9,42.3 C21.6,39 21.6,33.8 24.9,30.5 C28.2,27.2 33.4,27.2 36.7,30.5 L53.2,50.9 C58.1,56.5 60.9,63.7 60.9,71.1 L60.9,79.6 L39.7,79.8" id="Shape" fill="#C5DCFA"></path>
            </g>
            <g id="Group" transform="translate(83.000000, 68.000000)">
                <path d="M59.9,4.5 C60.3,5 60,4.6 60.5,5.1 C60.3,4.9 60.1,4.7 59.9,4.5 Z" id="Shape" fill="#C5DCFA"></path>
                <path d="M8.2,50.9 L24.7,30.5 C28,27.2 33.2,27.2 36.5,30.5 C37.7,31.7 38.4,33.2 38.8,34.7 L39.3,33.1 L39.4,32.7 C39.4,32.5 45.6,7.1 45.6,6.9 C47,1 54.4,-1.1 58.6,3.2 C59.2,3.8 59.6,4.4 59.6,4.4 C59.7,4.5 59.7,4.6 59.8,4.7 C59.8,4.7 59.8,4.7 59.8,4.7 C61.6,7.7 61.1,7.3 57.8,32.8 C57.5,35.4 56.7,37.9 55.5,40.3 C54.3,42.7 52.4,46.5 49.1,53.1 C47.1,57.2 49,57.4 28.7,67.4 C26.6,68.5 24.8,70.1 23.6,72 L21.6,79.7 L0.4,79.5 L0.4,71 C0.5,63.7 3.2,56.5 8.2,50.9 Z" id="Shape" fill="#C5DCFA"></path>
                <path d="M24.7,54.1 L37.4,43.3 C40.7,40 40.7,34.8 37.4,31.5 C34.1,28.2 28.9,28.2 25.6,31.5 L9.1,51.9 C4.2,57.5 1.4,64.7 1.4,72.1 L4.5,67.6 L18.5,61.5" id="Shape" fill="#BAD3F5"></path>
                <path d="M24.1,54.9 L36.4,42.3 C39.7,39 39.7,33.8 36.4,30.5 C33.1,27.2 27.9,27.2 24.6,30.5 L8.1,50.9 C3.2,56.5 0.4,63.7 0.4,71.1 L0.4,79.6 L21.6,79.8" id="Shape" fill="#C5DCFA"></path>
            </g>
            <polygon id="Shape" fill="#6097FD" points="118.7 24.7 99.7 36 95.6 38.4 72.8 51.9 26.8 24.7 48.3 13.3 52.5 11.1 72.7 0.4"></polygon>
            <polygon id="Shape" fill="#4988FD" points="72.7 100.5 26.8 76.2 26.8 24.6 72.7 48.9"></polygon>
            <polygon id="Shape" fill="#3973F4" points="99.7 36 95.6 38.4 48.3 13.3 52.5 11.1"></polygon>
            <polygon id="Shape" fill="#3973F4" points="72.7 100.5 118.7 76.2 118.7 24.6 72.7 48.9"></polygon>
        </g>
    </g>
</svg>