<?xml version="1.0" encoding="UTF-8"?>
<svg width="150px" height="100px" viewBox="0 0 150 100" version="1.1" xmlns="http://www.w3.org/2000/svg" xmlns:xlink="http://www.w3.org/1999/xlink">
    <!-- Generator: Sketch 51.2 (57519) - http://www.bohemiancoding.com/sketch -->
    <title>Delivery_2</title>
    <desc>Created with Sketch.</desc>
    <defs></defs>
    <g id="Page-1" stroke="none" stroke-width="1" fill="none" fill-rule="evenodd">
        <g id="Delivery_2" fill-rule="nonzero">
            <g id="Group" transform="translate(0.000000, 6.000000)">
                <path d="M89.8,49.9 L89.8,75.4 C89.8,77.5 88.1,79.2 86,79.2 L3.5,79.2 C1.9,79.2 0.7,77.9 0.7,76.4 L0.7,56.3 C0.7,56 0.7,55.7 0.7,55.5 C1.1,51.9 4.1,49.2 7.8,49.2 L19,49.2 L19,5 C19,2.5 21,0.4 23.6,0.4 L55.5,0.4 C57.1,0.4 58.6,1.2 59.4,2.6 L88.2,44.7 C88.2,44.7 88.2,44.7 88.2,44.7 C89.2,46.3 89.8,48.1 89.8,49.9 Z" id="Shape" fill="#4988FD"></path>
                <path d="M89.8,49.9 L89.8,55.5 L0.8,55.5 C1.2,51.9 4.2,49.2 7.9,49.2 L19,49.2 L19,5 C19,2.5 21,0.4 23.6,0.4 L55.5,0.4 C57.1,0.4 58.6,1.2 59.4,2.6 L88.2,44.7 C88.2,44.7 88.2,44.7 88.2,44.7 C89.2,46.3 89.8,48.1 89.8,49.9 Z" id="Shape" fill="#6097FD"></path>
                <circle id="Oval" fill="#2767F4" cx="73" cy="80.1" r="13.9"></circle>
                <circle id="Oval" fill="#2767F4" cx="17.7" cy="80.1" r="13.9"></circle>
                <circle id="Oval" fill="#DFECFD" cx="17.7" cy="80.1" r="6.6"></circle>
                <circle id="Oval" fill="#DFECFD" cx="73" cy="80.1" r="6.6"></circle>
            </g>
            <path d="M66.1,35.9 L53.6,17.4 C52.9,16.3 51.6,15.6 50.3,15.6 L32.6,15.6 C30.4,15.6 28.6,17.4 28.6,19.6 L28.6,50.1 C28.6,52.4 30.4,54.2 32.7,54.1 L73.3,53.4 C75.4,53.4 76.6,51.1 75.4,49.3 L66.1,35.9 Z" id="Shape" fill="#DFECFD"></path>
            <path d="M146.5,87.8 L97.6,87.8 C96,87.8 94.7,86.5 94.7,84.9 L94.7,2.9 C94.7,1.3 96,0 97.6,0 C99.2,0 100.5,1.3 100.5,2.9 L100.5,82.1 L146.5,82.1 C148.1,82.1 149.4,83.4 149.4,85 C149.4,86.5 148.1,87.8 146.5,87.8 Z" id="Shape" fill="#3973F4"></path>
            <path d="M139.4,75 L108.7,75 C107.3,75 106.2,73.9 106.2,72.5 L106.2,50.9 C106.2,49.5 107.3,48.4 108.7,48.4 L139.4,48.4 C140.8,48.4 141.9,49.5 141.9,50.9 L141.9,72.5 C142,73.9 140.8,75 139.4,75 Z" id="Shape" fill="#4988FD"></path>
            <path d="M139.4,39.1 L108.7,39.1 C107.3,39.1 106.2,38 106.2,36.6 L106.2,15 C106.2,13.6 107.3,12.5 108.7,12.5 L139.4,12.5 C140.8,12.5 141.9,13.6 141.9,15 L141.9,36.6 C142,37.9 140.8,39.1 139.4,39.1 Z" id="Shape" fill="#4988FD"></path>
            <rect id="Rectangle-path" fill="#DFECFD" x="120.6" y="12.5" width="6.1" height="9.1"></rect>
            <rect id="Rectangle-path" fill="#DFECFD" x="120.8" y="48.4" width="6.1" height="9.1"></rect>
        </g>
    </g>
</svg>