<?xml version="1.0" encoding="UTF-8"?>
<svg width="148px" height="109px" viewBox="0 0 148 109" version="1.1" xmlns="http://www.w3.org/2000/svg" xmlns:xlink="http://www.w3.org/1999/xlink">
    <!-- Generator: Sketch 51.2 (57519) - http://www.bohemiancoding.com/sketch -->
    <title>DElivery</title>
    <desc>Created with Sketch.</desc>
    <defs></defs>
    <g id="Page-1" stroke="none" stroke-width="1" fill="none" fill-rule="evenodd">
        <g id="DElivery" fill-rule="nonzero">
            <path d="M1.5,100.4 C0.9,100.4 0.4,99.9 0.4,99.3 L4.2,89.6 C4.2,89 4.7,88.5 5.3,88.5 L22.5,88.5 L131.3,88.5 L141.6,88.5 C142.2,88.5 142.7,89 142.7,89.6 L137.9,99.3 C137.9,99.9 137.4,100.4 136.8,100.4 L132.6,100.4 L1.5,100.4 Z" id="Shape" fill="#6097FD"></path>
            <path d="M146.9,61.6 C146.9,61.8 146.8,62 146.8,62.2 L139.3,88.6 L101.4,88.7 L110.7,34.3 C110.9,33 112.1,32 113.4,32 L134.4,32 C137.1,32 139.5,33.7 140.3,36.3 L141.5,40.1 L146.6,56.2 C147.2,57.9 147.3,59.8 146.9,61.6 Z" id="Shape" fill="#4988FD"></path>
            <circle id="Oval" fill="#2767F4" cx="118.3" cy="98.9" r="10.1"></circle>
            <path d="M22,28.9 L22.6,25.2 C22.8,23.8 24,22.8 25.5,22.8 L37,22.8 L96.8,22.8 L105.1,22.8 C106,22.8 106.8,23.2 107.3,23.8 C107.8,24.5 108.1,25.3 107.9,26.2 L96.3,86.8 C96,88.2 94.8,89.1 93.5,89.1 L15.3,89.1 C14.4,89.1 13.6,88.7 13.1,88.1 C12.6,87.4 12.3,86.6 12.5,85.8 L14.6,73.6 L22,28.9 Z" id="Shape" fill="#3973F4"></path>
            <circle id="Oval" fill="#2767F4" cx="35.6" cy="98.9" r="10.1"></circle>
            <circle id="Oval" fill="#DFECFD" cx="35.6" cy="98.9" r="4.8"></circle>
            <circle id="Oval" fill="#DFECFD" cx="118.3" cy="98.9" r="4.8"></circle>
            <path d="M146.9,61.6 L118.7,61.6 C117.5,61.6 116.6,60.5 116.7,59.3 L119,41.7 C119.1,40.7 120,40 121,40 L141.5,40 L146.6,56.1 C147.2,57.9 147.3,59.8 146.9,61.6 Z" id="Shape" fill="#DDECFE"></path>
            <path d="M123.1,71.7 L116.4,71.7 C115.5,71.7 114.8,71 114.8,70.1 C114.8,69.2 115.5,68.5 116.4,68.5 L123.1,68.5 C124,68.5 124.7,69.2 124.7,70.1 C124.7,71 124,71.7 123.1,71.7 Z" id="Shape" fill="#3973F4"></path>
            <circle id="Oval" fill="#FFFFFF" cx="62.8" cy="25.5" r="25.4"></circle>
            <circle id="Oval" fill="#3973F4" cx="62.6" cy="30.1" r="27.6"></circle>
            <circle id="Oval" fill="#DFECFD" cx="62.8" cy="25.5" r="25.4"></circle>
            <path d="M68.5,46.3 C67.8,46.3 67.2,45.9 67,45.2 C66.8,44.4 67.2,43.5 68.1,43.2 C74.6,41.3 79.6,35.9 80.9,29.2 C81.1,28.3 81.9,27.8 82.8,28 C83.7,28.2 84.2,29 84,29.9 C82.4,37.7 76.6,44 68.9,46.3 C68.8,46.3 68.6,46.3 68.5,46.3 Z" id="Shape" fill="#4988FD"></path>
            <path d="M82.8,27.1 L79.3,27.1 C78.4,27.1 77.7,26.4 77.7,25.5 C77.7,24.6 78.4,23.9 79.3,23.9 L81.1,23.9 C80.3,15 73.2,7.8 64.3,7.1 L64.3,9.2 C64.3,10.1 63.6,10.8 62.7,10.8 C61.8,10.8 61.1,10.1 61.1,9.2 L61.1,5.4 C61.1,4.5 61.8,3.8 62.7,3.8 C74.6,3.8 84.4,13.5 84.4,25.5 C84.4,26.4 83.7,27.1 82.8,27.1 Z" id="Shape" fill="#4988FD"></path>
            <path d="M43.2,22.3 C43.1,22.3 42.9,22.3 42.8,22.3 C41.9,22.1 41.4,21.2 41.6,20.4 C43.5,12.4 49.9,6.2 57.9,4.4 C58.8,4.2 59.6,4.7 59.8,5.6 C60,6.5 59.5,7.3 58.6,7.5 C51.8,9 46.3,14.4 44.7,21.2 C44.6,21.8 44,22.3 43.2,22.3 Z" id="Shape" fill="#4988FD"></path>
            <path d="M52.2,34.2 C51.6,34.2 51.1,33.9 50.8,33.4 C50.4,32.6 50.6,31.7 51.4,31.2 L61.4,25.6 L61.4,15.9 C61.4,15 62.1,14.3 63,14.3 C63.9,14.3 64.6,15 64.6,15.9 L64.6,26.5 C64.6,27.1 64.3,27.6 63.8,27.9 L53,34 C52.7,34.1 52.5,34.2 52.2,34.2 Z" id="Shape" fill="#4988FD"></path>
            <path d="M62.8,47.2 C50.9,47.2 41.1,37.5 41.1,25.5 C41.1,24.6 41.8,23.9 42.7,23.9 L46,23.9 C46.9,23.9 47.6,24.6 47.6,25.5 C47.6,26.4 46.9,27.1 46,27.1 L44.4,27.1 C45.2,36 52.3,43.2 61.2,43.9 L61.2,42 C61.2,41.1 61.9,40.4 62.8,40.4 C63.7,40.4 64.4,41.1 64.4,42 L64.4,45.6 C64.3,46.5 63.6,47.2 62.8,47.2 Z" id="Shape" fill="#4988FD"></path>
        </g>
    </g>
</svg>