<?xml version="1.0" encoding="UTF-8"?>
<svg width="150px" height="141px" viewBox="0 0 150 141" version="1.1" xmlns="http://www.w3.org/2000/svg" xmlns:xlink="http://www.w3.org/1999/xlink">
    <!-- Generator: Sketch 51.2 (57519) - http://www.bohemiancoding.com/sketch -->
    <title>Depreciation</title>
    <desc>Created with Sketch.</desc>
    <defs></defs>
    <g id="Page-1" stroke="none" stroke-width="1" fill="none" fill-rule="evenodd">
        <g id="Depreciation" fill-rule="nonzero">
            <path d="M80.7,118.3 C80.7,120.2 79.1,121.8 77.2,121.8 L4.1,121.8 C2.2,121.8 0.6,120.2 0.6,118.3 C0.6,116.4 2.2,114.8 4.1,114.8 L77.2,114.8 C79.1,114.8 80.7,116.4 80.7,118.3 Z" id="Shape" fill="#4988FD"></path>
            <path d="M34.6,3 L34.6,118.4 L11.2,118.4 L11.2,3 C11.2,1.5 12.4,0.3 13.9,0.3 L31.9,0.3 C33.3,0.2 34.6,1.4 34.6,3 Z" id="Shape" fill="#4988FD"></path>
            <path d="M72.3,26.7 L72.3,118.3 L48.9,118.3 L48.9,26.7 C48.9,25.3 50,24.2 51.4,24.2 L69.9,24.2 C71.2,24.2 72.3,25.4 72.3,26.7 Z" id="Shape" fill="#4988FD"></path>
            <path d="M109.8,47.4 L109.8,65.8 L107.1,66.9 L86.3,75.9 L86.3,47.4 C86.3,46.2 87.3,45.2 88.5,45.2 L107.6,45.2 C108.8,45.3 109.8,46.2 109.8,47.4 Z" id="Shape" fill="#4988FD"></path>
            <path d="M80.7,118.3 C80.7,120.2 79.1,121.8 77.2,121.8 L71.2,121.8 C70.6,120.7 70.1,119.5 69.6,118.3 C69.2,117.2 68.8,116 68.4,114.8 C67.5,111.5 67,108.1 67,104.5 C67,97.4 68.9,90.8 72.3,85.2 L72.3,114.8 L77.2,114.8 C79.1,114.8 80.7,116.4 80.7,118.3 Z" id="Shape" fill="#3973F4"></path>
            <path d="M107.1,67 L86.3,76 L86.3,71.7 C91.7,68.7 98,66.9 104.6,66.9 C105.5,66.9 106.3,66.9 107.1,67 Z" id="Shape" fill="#3973F4"></path>
            <circle id="Oval" fill="#21D3AC" cx="112.1" cy="103.4" r="37.6"></circle>
            <path d="M124,89.2 C121.7,89.2 119.9,91 119.9,93.3 L119.9,106 L100.1,86.2 C98.5,84.6 95.9,84.6 94.3,86.2 C92.7,87.8 92.7,90.4 94.3,92 L114.1,111.8 L101.4,111.8 C99.1,111.8 97.3,113.6 97.3,115.9 C97.3,118.2 99.1,120 101.4,120 L124,120 C126.3,120 128.1,118.2 128.1,115.9 L128.1,93.3 C128.1,91 126.3,89.2 124,89.2 Z" id="Shape" fill="#FFFFFF"></path>
        </g>
    </g>
</svg>