<?xml version="1.0" encoding="UTF-8"?>
<svg width="144px" height="144px" viewBox="0 0 144 144" version="1.1" xmlns="http://www.w3.org/2000/svg" xmlns:xlink="http://www.w3.org/1999/xlink">
    <!-- Generator: Sketch 51.2 (57519) - http://www.bohemiancoding.com/sketch -->
    <title>Desk</title>
    <desc>Created with Sketch.</desc>
    <defs></defs>
    <g id="Page-1" stroke="none" stroke-width="1" fill="none" fill-rule="evenodd">
        <g id="Desk" fill-rule="nonzero">
            <path d="M109.6,2.7 L109.6,47 C109.6,48.1 108.7,49 107.6,49 L36.1,49 C35,49 34.1,48.1 34.1,47 L34.1,2.7 C34.1,1.6 35,0.7 36.1,0.7 L107.6,0.7 C108.7,0.7 109.6,1.6 109.6,2.7 Z" id="Shape" fill="#4988FD"></path>
            <path d="M109.6,2.7 L109.6,39.2 L34.1,39.2 L34.1,2.7 C34.1,1.6 35,0.7 36.1,0.7 L107.6,0.7 C108.7,0.7 109.6,1.6 109.6,2.7 Z" id="Shape" fill="#2767F4"></path>
            <path d="M109.3,40 L34.4,40" id="Shape" fill="#4988FD"></path>
            <rect id="Rectangle-path" fill="#4988FD" x="16" y="65.6" width="71.6" height="22.9"></rect>
            <path d="M59.2,58.6 C61.4,56.8 62.7,51.7 61.9,49 L82,49 C81.1,51.7 82.5,56.7 84.7,58.6" id="Shape" fill="#2767F4"></path>
            <rect id="Rectangle-path" fill="#6097FD" x="0.2" y="58.6" width="143.4" height="8"></rect>
            <rect id="Rectangle-path" fill="#2767F4" x="11.6" y="140.1" width="3.2" height="3.7"></rect>
            <rect id="Rectangle-path" fill="#4988FD" x="9.1" y="66.6" width="8.2" height="74.1"></rect>
            <rect id="Rectangle-path" fill="#2767F4" x="89" y="140.1" width="3.2" height="3.7"></rect>
            <rect id="Rectangle-path" fill="#2767F4" x="129.6" y="140.1" width="3.2" height="3.7"></rect>
            <rect id="Rectangle-path" fill="#6097FD" x="22.4" y="71.6" width="59.2" height="12"></rect>
            <polyline id="Shape" fill="#4988FD" points="135.8 66.6 135.8 140.7 86 140.7 86 66.6"></polyline>
            <path d="M128.5,90.6 L93,90.6 C92.4,90.6 91.9,90.1 91.9,89.5 L91.9,75.3 C91.9,74.7 92.4,74.2 93,74.2 L128.5,74.2 C129.1,74.2 129.6,74.7 129.6,75.3 L129.6,89.5 C129.6,90.1 129.1,90.6 128.5,90.6 Z" id="Shape" fill="#6097FD"></path>
            <circle id="Oval" fill="#DFECFD" transform="translate(110.191820, 81.366433) rotate(-3.966644) translate(-110.191820, -81.366433) " cx="110.19182" cy="81.3664327" r="2.59998829"></circle>
            <circle id="Oval" fill="#DFECFD" transform="translate(51.994334, 77.563560) rotate(-3.966644) translate(-51.994334, -77.563560) " cx="51.9943337" cy="77.5635604" r="2.19999009"></circle>
            <path d="M128.5,112.4 L93,112.4 C92.4,112.4 91.9,111.9 91.9,111.3 L91.9,97.1 C91.9,96.5 92.4,96 93,96 L128.5,96 C129.1,96 129.6,96.5 129.6,97.1 L129.6,111.3 C129.6,111.9 129.1,112.4 128.5,112.4 Z" id="Shape" fill="#6097FD"></path>
            <circle id="Oval" fill="#DFECFD" cx="110.2" cy="103.2" r="2.6"></circle>
            <path d="M128.5,134.2 L93,134.2 C92.4,134.2 91.9,133.7 91.9,133.1 L91.9,118.9 C91.9,118.3 92.4,117.8 93,117.8 L128.5,117.8 C129.1,117.8 129.6,118.3 129.6,118.9 L129.6,133.1 C129.6,133.7 129.1,134.2 128.5,134.2 Z" id="Shape" fill="#6097FD"></path>
            <circle id="Oval" fill="#DFECFD" cx="110.2" cy="125" r="2.6"></circle>
        </g>
    </g>
</svg>