<?xml version="1.0" encoding="UTF-8"?>
<svg width="133px" height="134px" viewBox="0 0 133 134" version="1.1" xmlns="http://www.w3.org/2000/svg" xmlns:xlink="http://www.w3.org/1999/xlink">
    <!-- Generator: Sketch 51.2 (57519) - http://www.bohemiancoding.com/sketch -->
    <title>Discount</title>
    <desc>Created with Sketch.</desc>
    <defs></defs>
    <g id="Page-1" stroke="none" stroke-width="1" fill="none" fill-rule="evenodd">
        <g id="Discount" fill-rule="nonzero">
            <path d="M94.5,125 C93.3,124.9 92.2,124.9 91,124.8 C84.9,123.9 79.5,125.6 74.5,129.1 C66.7,134.6 66.6,134.6 58.8,129.1 C53.7,125.5 48.3,124.1 42,124.8 C33.2,125.8 32.8,125.5 29.1,117.4 C26.4,111.5 22.2,107.3 16.3,104.6 C8.2,100.9 7.9,100.5 8.9,91.7 C9.6,85.4 8.1,79.9 4.4,74.7 C-1,67.2 -1,66.9 4.4,59.4 C8.1,54.3 9.6,48.7 8.9,42.4 C7.9,33.6 8.2,33.1 16.3,29.5 C22.3,26.9 26.4,22.7 29.1,16.8 C32.8,8.6 33.3,8.3 42.2,9.4 C48.4,10.2 53.7,8.6 58.7,5.1 C66.5,-0.5 66.6,-0.5 74.4,5 C79.5,8.6 84.9,10.1 91.2,9.4 C100,8.3 100.6,8.7 104.3,16.9 C106.9,22.8 111,26.9 116.9,29.5 C125.1,33.2 125.5,33.7 124.4,42.6 C123.7,48.9 125.2,54.4 128.9,59.6 C134.2,67 134.2,67.4 129,74.7 C125.3,79.9 123.7,85.5 124.4,91.9 C125.4,100.6 125,101.2 116.9,104.8 C111,107.4 106.8,111.4 104.3,117.4 C103.9,118.4 103.3,119.3 102.9,120.3 C101.4,123.9 98.8,125.9 94.5,125 Z" id="Shape" fill="#6097FD"></path>
            <path d="M66.7,124.3 C64.7,124.3 62.8,123 59.2,120.5 C55.2,117.7 50.9,116.6 46.1,117.1 C45.7,117.1 45.3,117.2 44.9,117.2 C44.1,117.3 43.3,116.7 43.2,115.9 C43.1,115.1 43.7,114.3 44.5,114.2 C44.9,114.2 45.3,114.1 45.7,114.1 C51.3,113.4 56.2,114.7 60.9,118 C64,120.2 65.5,121.2 66.7,121.2 C67.9,121.2 69.5,120.1 72.4,118 C73.1,117.5 74,117.7 74.5,118.4 C75,119.1 74.8,120 74.1,120.5 C70.6,123.1 68.6,124.3 66.7,124.3 Z M91.8,117.6 C91.2,117.6 90.5,117.5 89.9,117.4 C89.6,117.4 89.4,117.4 89.1,117.4 C88.4,117.4 87.7,117.3 86.9,117.2 C85.2,117 83.6,116.9 82,117.2 C81.2,117.3 80.4,116.8 80.3,115.9 C80.2,115 80.7,114.3 81.6,114.2 C83.5,113.9 85.4,113.9 87.4,114.2 C88,114.3 88.6,114.3 89.2,114.3 C89.5,114.3 89.8,114.3 90.2,114.3 C90.3,114.3 90.4,114.3 90.4,114.3 C91.2,114.5 91.8,114.5 92.4,114.4 C93.2,114.3 94,114.8 94.1,115.7 C94.2,116.5 93.7,117.3 92.8,117.4 C92.6,117.6 92.2,117.6 91.8,117.6 Z M98.1,111.6 C97.9,111.6 97.7,111.6 97.4,111.4 C96.7,111 96.3,110.1 96.7,109.4 C96.8,109.2 96.9,108.9 97,108.7 C97.2,108.1 97.5,107.6 97.8,107 C98.2,106.3 99.1,106 99.8,106.4 C100.5,106.8 100.8,107.7 100.4,108.4 C100.2,108.9 99.9,109.4 99.7,109.9 C99.6,110.2 99.4,110.5 99.3,110.8 C99.2,111.3 98.6,111.6 98.1,111.6 Z M18.1,85.4 C17.3,85.4 16.7,84.8 16.6,84 C16.4,80.6 15.2,77.4 13,74.3 C11,71.5 9.7,69.6 9.4,67.7 C9.3,66.9 9.9,66.1 10.7,66 C11.5,65.9 12.3,66.5 12.4,67.3 C12.6,68.4 13.6,69.9 15.5,72.6 C18,76.2 19.4,79.8 19.7,83.8 C19.8,84.6 19.1,85.3 18.3,85.4 C18.1,85.4 18.1,85.4 18.1,85.4 Z M115.9,55.3 C115.2,55.3 114.6,54.9 114.5,54.2 C113.8,51.6 113.6,48.9 113.9,46.1 C114.7,39.4 114.7,39.4 108.4,36.6 C103.1,34.2 99.4,30.5 97,25.2 C94.2,18.9 94.2,18.9 87.5,19.8 C86.7,19.9 85.9,19.3 85.8,18.5 C85.7,17.7 86.3,16.9 87.1,16.8 C95.2,15.8 96.4,16.5 99.7,24 C101.7,28.6 105,31.8 109.6,33.9 C117.2,37.3 117.8,38.3 116.8,46.5 C116.5,49 116.7,51.3 117.3,53.5 C117.5,54.3 117,55.1 116.2,55.3 C116.1,55.3 116,55.3 115.9,55.3 Z M18,52.3 C17.9,52.3 17.9,52.3 17.8,52.3 C17,52.2 16.4,51.5 16.5,50.7 C16.6,49.3 16.6,47.9 16.5,46.4 C15.6,38.4 16.2,37.2 23.6,34 C28.2,31.9 31.5,28.7 33.6,24 C37,16.5 38,15.9 46.2,16.9 C49.3,17.3 52.2,16.9 54.9,15.8 C54.9,15.8 54.9,15.8 54.9,15.8 L55.3,15.7 C56.1,15.4 56.9,15.7 57.3,16.5 C57.6,17.3 57.3,18.1 56.5,18.5 L56.1,18.7 C56.1,18.7 56.1,18.7 56.1,18.7 C52.9,20 49.5,20.4 45.9,20 C39.2,19.2 39.2,19.2 36.4,25.4 C34,30.8 30.2,34.5 24.9,36.9 C18.8,39.6 18.8,39.6 19.5,46.3 C19.7,48 19.7,49.6 19.5,51.2 C19.4,51.7 18.8,52.3 18,52.3 Z M76.5,18.1 C76.3,18.1 76.1,18.1 75.8,17.9 C74.6,17.3 73.5,16.6 72.3,15.8 C71.4,15.2 70.7,14.7 70.1,14.2 C69.4,13.7 69.2,12.8 69.7,12.1 C70.2,11.4 71.1,11.2 71.8,11.7 C72.5,12.2 73.2,12.7 74.1,13.3 C75.1,14 76.1,14.6 77.2,15.1 C77.9,15.5 78.3,16.4 77.9,17.1 C77.6,17.7 77.1,18.1 76.5,18.1 Z" id="Shape" fill="#3973F4"></path>
            <g id="Group" transform="translate(32.000000, 34.000000)" fill="#FFFFFF">
                <path d="M23.3,4.3 C18.2,-0.8 9.9,-0.8 4.8,4.3 C-0.3,9.4 -0.3,17.7 4.8,22.9 C9.9,28 18.2,28 23.3,22.9 C28.5,17.7 28.5,9.4 23.3,4.3 Z M14.1,19.1 C11.1,19.1 8.6,16.6 8.6,13.6 C8.6,10.6 11.1,8.1 14.1,8.1 C17.1,8.1 19.6,10.6 19.6,13.6 C19.6,16.6 17.1,19.1 14.1,19.1 Z" id="Shape"></path>
                <path d="M64.5,44.6 C59.4,39.5 51.1,39.5 46,44.6 C40.9,49.7 40.9,58 46,63.2 C51.1,68.3 59.4,68.3 64.5,63.2 C69.6,58 69.6,49.7 64.5,44.6 Z M55.5,59.5 C52.5,59.5 50,57 50,54 C50,51 52.5,48.5 55.5,48.5 C58.5,48.5 61,51 61,54 C61,57 58.5,59.5 55.5,59.5 Z" id="Shape"></path>
                <path d="M61.6,13 L15.2,59.4 C13.6,61 10.9,61 9.3,59.4 C7.7,57.8 7.7,55.1 9.3,53.5 L55.7,7.1 C57.3,5.5 60,5.5 61.6,7.1 C63.2,8.7 63.2,11.4 61.6,13 Z" id="Shape"></path>
            </g>
        </g>
    </g>
</svg>