<?xml version="1.0" encoding="UTF-8"?>
<svg width="148px" height="117px" viewBox="0 0 148 117" version="1.1" xmlns="http://www.w3.org/2000/svg" xmlns:xlink="http://www.w3.org/1999/xlink">
    <!-- Generator: Sketch 51.2 (57519) - http://www.bohemiancoding.com/sketch -->
    <title>Dollar_bills</title>
    <desc>Created with Sketch.</desc>
    <defs></defs>
    <g id="Page-1" stroke="none" stroke-width="1" fill="none" fill-rule="evenodd">
        <g id="Dollar_bills" fill-rule="nonzero">
            <g id="Group">
                <path d="M134.2,60.1 L25.2,98.6 C22,99.7 18.5,98.1 17.3,94.8 L0.6,47.5 C-0.5,44.3 1.1,40.8 4.4,39.6 L113.4,1.1 C116.6,-4.52526905e-13 120.1,1.6 121.3,4.9 L138,52.2 C139.1,55.4 137.4,59 134.2,60.1 Z" id="Shape" fill="#3973F4"></path>
                <path d="M123.8,55.2 C115,58.3 63.9,76.4 41.5,84.3 L32.2,87.6 C31.1,84.5 27.8,82.9 24.7,84 C23.8,81.4 20.1,70.9 17.1,62.4 C15.3,57.4 13.8,53.1 13.3,51.6 C16.4,50.5 18,47.2 16.9,44.1 L108.5,11.7 C109.6,14.8 112.9,16.4 116,15.3 C117.3,19 125,40.6 127.1,46.7 C127.2,47.1 127.4,47.4 127.4,47.7 C124.3,48.8 122.7,52.1 123.8,55.2 Z" id="Shape" fill="#4988FD"></path>
                <path d="M123.8,55.2 C115,58.3 63.9,76.4 41.5,84.3 L32.2,87.6 C31.1,84.5 27.8,82.9 24.7,84 C23.8,81.4 20.1,70.9 17.1,62.4 L17.1,52.9 C17.1,49.5 19.9,46.7 23.3,46.7 L127,46.7 C127.1,47.1 127.3,47.4 127.3,47.7 C124.3,48.8 122.7,52.1 123.8,55.2 Z" id="Shape" fill="#3973F4"></path>
                <path d="M37.6,63.3 C36.6,63.3 35.6,62.7 35.2,61.6 C34.7,60.3 35.4,58.9 36.7,58.4 L44.6,55.6 C45.9,55.1 47.3,55.8 47.8,57.1 C48.3,58.4 47.6,59.8 46.3,60.3 L38.4,63.1 C38.1,63.3 37.8,63.3 37.6,63.3 Z" id="Shape" fill="#3973F4"></path>
                <path d="M97.6,42.6 C96.4,42.6 95.2,41.8 94.8,40.6 C94.2,39 95.1,37.3 96.6,36.8 L104.1,34.2 C105.7,33.6 107.4,34.5 107.9,36 C108.5,37.6 107.6,39.3 106.1,39.8 L98.6,42.4 C98.3,42.5 97.9,42.6 97.6,42.6 Z" id="Shape" fill="#3973F4"></path>
                <ellipse id="Oval" fill="#3973F4" transform="translate(73.033750, 49.620090) rotate(-19.183243) translate(-73.033750, -49.620090) " cx="73.03375" cy="49.62009" rx="14.9004337" ry="17.6005122"></ellipse>
            </g>
            <path d="M141.1,116.7 L21.1,116.7 C17.7,116.7 14.9,113.9 14.9,110.5 L14.9,58.1 C14.9,54.7 17.7,51.9 21.1,51.9 L141.1,51.9 C144.5,51.9 147.3,54.7 147.3,58.1 L147.3,110.5 C147.3,113.9 144.5,116.7 141.1,116.7 Z" id="Shape" fill="#4988FD"></path>
            <path d="M31.9,60.6 C31.9,64 29.2,66.7 25.8,66.7 C25.8,71.2 25.8,98 25.8,102.2 C29.2,102.2 31.9,104.9 31.9,108.3 L132.5,108.3 C132.5,104.9 135.2,102.2 138.6,102.2 C138.6,97.9 138.6,71.1 138.6,66.7 C135.2,66.7 132.5,64 132.5,60.6 C122.9,60.6 66.8,60.6 42.1,60.6" id="Shape" fill="#6097FD"></path>
            <ellipse id="Oval" fill="#4988FD" cx="83.6" cy="85.1" rx="14.9" ry="17.6"></ellipse>
            <path d="M55.1,87 L46.4,87 C44.7,87 43.4,85.7 43.4,84 C43.4,82.3 44.7,81 46.4,81 L55.1,81 C56.8,81 58.1,82.3 58.1,84 C58.1,85.7 56.8,87 55.1,87 Z" id="Shape" fill="#4988FD"></path>
            <path d="M120.5,87 L112.3,87 C110.6,87 109.3,85.7 109.3,84 C109.3,82.3 110.6,81 112.3,81 L120.5,81 C122.2,81 123.5,82.3 123.5,84 C123.5,85.7 122.2,87 120.5,87 Z" id="Shape" fill="#4988FD"></path>
        </g>
    </g>
</svg>