<?xml version="1.0" encoding="UTF-8"?>
<svg width="103px" height="146px" viewBox="0 0 103 146" version="1.1" xmlns="http://www.w3.org/2000/svg" xmlns:xlink="http://www.w3.org/1999/xlink">
    <!-- Generator: Sketch 51.2 (57519) - http://www.bohemiancoding.com/sketch -->
    <title>Donation</title>
    <desc>Created with Sketch.</desc>
    <defs></defs>
    <g id="Page-1" stroke="none" stroke-width="1" fill="none" fill-rule="evenodd">
        <g id="Donation" fill-rule="nonzero">
            <path d="M27.6,57.5 L79.3,57.5 C80.6,57.5 81.8,58.2 82.5,59.3 L102.5,90.6 L0.9,90.6 L20.9,59.3 C21.6,58.2 22.8,57.5 24.1,57.5 L27.6,57.5" id="Shape" fill="#4988FD"></path>
            <path d="M78.2,76.8 L23.8,76.8 C22.4,76.8 21.3,75.7 21.3,74.3 C21.3,72.9 22.4,71.8 23.8,71.8 L78.2,71.8 C79.6,71.8 80.7,72.9 80.7,74.3 C80.7,75.7 79.6,76.8 78.2,76.8 Z" id="Shape" fill="#2767F4"></path>
            <g id="Group" transform="translate(30.000000, 0.000000)">
                <path d="M5.3,76.3 L40.4,76.3 C42.8,73 44,69.3 44.4,65.6 C44.5,64.4 44.5,63.2 44.4,62 C43.6,51.8 35.8,42.4 24.1,41.5 C24.1,41.5 23.3,41.4 22.4,41.4 C9.8,41.4 1.2,51.2 0.4,61.9 C0.3,63.1 0.3,64.3 0.4,65.5 C0.7,69.3 2.9,72.9 5.3,76.3 Z" id="Shape" fill="#6097FD"></path>
                <path d="M11.4,53.8 C11,53.8 10.6,53.7 10.3,53.4 C9.7,52.8 9.7,51.9 10.3,51.3 C13.6,48 18,46.2 22.7,46.2 C23,46.2 23.3,46.2 23.5,46.2 C24.3,46.2 25,46.9 24.9,47.8 C24.9,48.6 24.2,49.3 23.3,49.2 C23.1,49.2 22.8,49.2 22.6,49.2 C18.7,49.2 15.1,50.7 12.3,53.4 C12.1,53.6 11.8,53.8 11.4,53.8 Z" id="Shape" fill="#3973F4"></path>
                <path d="M39.6,58 C39,58 38.5,57.7 38.2,57.1 C36.9,54 34.7,51.3 31.8,49.5 C31.1,49 30.9,48.1 31.4,47.4 C31.9,46.7 32.8,46.5 33.5,47 C36.8,49.2 39.4,52.3 41,56 C41.3,56.8 41,57.6 40.2,58 C40,58 39.8,58 39.6,58 Z" id="Shape" fill="#3973F4"></path>
                <path d="M38.6,65.6 C38.5,65.6 38.5,65.6 38.6,65.6 C37.7,65.5 37.1,64.8 37.1,64 C37.1,63.7 37.1,63.4 37.1,63.2 C37.1,62.4 37.8,61.7 38.6,61.7 C39.4,61.7 40.1,62.4 40.1,63.2 C40.1,63.5 40.1,63.9 40.1,64.2 C40,65 39.4,65.6 38.6,65.6 Z" id="Shape" fill="#3973F4"></path>
                <path d="M35.1,74.4 C34.8,74.4 34.4,74.3 34.2,74.1 C33.6,73.6 33.5,72.6 34,72 C34.8,71.1 35.4,70 35.9,69 C36.2,68.2 37.1,67.9 37.9,68.3 C38.7,68.6 39,69.5 38.6,70.3 C38,71.6 37.2,72.9 36.3,74 C36,74.2 35.6,74.4 35.1,74.4 Z" id="Shape" fill="#3973F4"></path>
                <path d="M10,74 C9.5,74 9.1,73.8 8.8,73.4 C6.7,70.7 5.5,67.5 5.4,64.1 C5.4,63.3 6,62.6 6.8,62.5 C7.6,62.5 8.3,63.1 8.4,63.9 C8.5,66.7 9.5,69.3 11.2,71.6 C11.7,72.3 11.6,73.2 10.9,73.7 C10.6,73.9 10.3,74 10,74 Z" id="Shape" fill="#3973F4"></path>
                <path d="M8.1,58.4 C7.9,58.4 7.7,58.4 7.5,58.3 C6.7,58 6.4,57.1 6.7,56.3 C6.8,56.1 6.9,55.9 7,55.7 C7.4,55 8.3,54.7 9,55 C9.7,55.4 10,56.3 9.7,57 C9.6,57.2 9.5,57.3 9.5,57.5 C9.2,58.1 8.7,58.4 8.1,58.4 Z" id="Shape" fill="#3973F4"></path>
                <path d="M10.7,44.8 C14.1,42.8 18,41.7 22.2,41.7 C22.6,41.7 23,41.7 23.4,41.7 L23.6,40.1 C23.8,38.7 24.4,37.4 25.3,36.3 C25.4,36.2 25.4,36.1 25.5,36.1 C25.6,36 25.6,36 25.7,35.9 L29.6,32.1 C30.2,31.5 31.1,31.5 31.8,31.9 L37.4,35.5 C37.9,35.9 38.3,36.5 38.3,37.1 C38.3,37.2 38.3,37.4 38.2,37.5 C38.2,37.6 38.2,37.6 38.1,37.7 C38.1,37.8 38,37.8 38,37.9 L37.9,38.1 L36.8,40.3 L34.4,45.1 L32.4,49 C32.3,49.1 32.3,49.3 32.2,49.4 C32.2,49.5 32.1,49.5 32.1,49.6 C32.1,49.7 32,49.8 32,49.9 C31.9,50 31.9,50.2 31.9,50.3 C31.9,50.4 31.8,50.6 31.8,50.7 C31.8,50.7 31.8,50.7 31.8,50.8 C31.8,50.8 31.8,50.8 31.8,50.9 C31.8,51 31.8,51.1 31.8,51.2 C31.8,51.2 31.8,51.2 31.8,51.2 C31.6,52.4 31.8,53.5 32.1,54.6 C32.2,54.9 32.3,55.2 32.5,55.5 C32.6,55.7 32.7,55.9 32.9,56.1 C33.1,56.5 33.4,56.8 33.7,57.1 C34.3,57.7 35,58.2 35.8,58.5 C37,59.1 38.5,58.8 39.4,58 C39.7,57.8 39.9,57.5 40.1,57.1 L42.3,53.4 L46.2,46.7 L53.8,33.8 C55,31.7 55.7,29.4 55.8,27 L56,20.2 L56.1,16.8 C56.1,16.2 55.9,15.7 55.5,15.3 C53.4,12.9 46.3,4.7 43.2,1.1 C42.7,0.5 42,0.2 41.3,0.3 C41.2,0.3 41.2,0.3 41.1,0.3 C41,0.3 41,0.3 40.9,0.3 C40.9,0.3 40.8,0.3 40.8,0.3 C40.8,0.3 40.7,0.3 40.7,0.3 C40.6,0.3 40.6,0.3 40.5,0.4 C40.3,0.5 40.2,0.6 40,0.7 L37,3.3 L33.3,6.5 L33.1,6.7 L30.6,8.8 L14.6,22.4 C12.5,24.2 11.2,26.7 11,29.5 L9.9,45.1" id="Shape" fill="#C5DCFA"></path>
                <path d="M25.6,68.8 C23.2,68.8 21.7,67.5 20.4,64.5 C19.4,62.2 18.9,61.5 17.8,61.5 C16.9,61.5 16,62.1 16,63.9 C16,64.7 16.1,65.5 16.4,66.2 C16.5,66.5 16.5,66.9 16.4,67.2 C16.3,67.5 16,67.8 15.7,67.9 C15.5,68 15.4,68 15.2,68 C14.7,68 14.2,67.7 14,67.2 C13.7,66.5 13.5,65.7 13.5,64.8 L12.2,64.8 C11.5,64.8 11,64.3 11,63.6 C11,62.9 11.5,62.4 12.2,62.4 L13.7,62.4 C14.2,60 16,58.5 18.2,58.5 C20.9,58.5 22.2,60.7 23.1,63.1 C23.9,65 24.7,65.8 25.8,65.8 C27.1,65.8 28,64.7 28,63.1 C28,61.9 27.7,61 27.4,60.4 C27.2,60.1 27.2,59.7 27.4,59.3 C27.6,58.9 27.8,58.7 28.2,58.6 C28.4,58.5 28.5,58.5 28.7,58.5 C29.2,58.5 29.7,58.8 29.9,59.3 C30.3,60.2 30.6,61.3 30.6,62.3 L32,62.3 C32.7,62.3 33.2,62.8 33.2,63.5 C33.2,64.2 32.7,64.7 32,64.7 L30.4,64.7 C29.8,67.1 28,68.8 25.6,68.8 Z" id="Shape" fill="#FFFFFF"></path>
            </g>
            <path d="M99.2,145.9 L4.2,145.9 C2.4,145.9 0.9,144.4 0.9,142.6 L0.9,91.6 C0.9,89.8 2.4,88.3 4.2,88.3 L99.2,88.3 C101,88.3 102.5,89.8 102.5,91.6 L102.5,142.6 C102.5,144.4 101,145.9 99.2,145.9 Z" id="Shape" fill="#6097FD"></path>
        </g>
    </g>
</svg>