<?xml version="1.0" encoding="UTF-8"?>
<svg width="78px" height="145px" viewBox="0 0 78 145" version="1.1" xmlns="http://www.w3.org/2000/svg" xmlns:xlink="http://www.w3.org/1999/xlink">
    <!-- Generator: Sketch 51.2 (57519) - http://www.bohemiancoding.com/sketch -->
    <title>Download_2</title>
    <desc>Created with Sketch.</desc>
    <defs></defs>
    <g id="Page-1" stroke="none" stroke-width="1" fill="none" fill-rule="evenodd">
        <g id="Download_2" fill-rule="nonzero">
            <g id="Group">
                <path d="M67.3,144.1 L10.5,144.1 C4.8,144.1 0.2,139.5 0.2,133.8 L0.2,11 C0.2,5.3 4.8,0.7 10.5,0.7 L67.3,0.7 C73,0.7 77.6,5.3 77.6,11 L77.6,133.8 C77.6,139.4 73,144.1 67.3,144.1 Z" id="Shape" fill="#FFFFFF"></path>
                <path d="M77.6,11 L77.6,133.8 C77.6,139.5 73,144.1 67.3,144.1 L10.5,144.1 C4.8,144.1 0.2,139.5 0.2,133.8 L0.2,11 C0.2,5.3 4.8,0.7 10.5,0.7 L67.3,0.7 C73,0.7 77.6,5.3 77.6,11 Z" id="Shape" fill="#4988FD"></path>
                <circle id="Oval" fill="#2767F4" cx="38.9" cy="134.6" r="4.8"></circle>
                <g transform="translate(30.000000, 6.000000)" fill="#2767F4" id="Shape">
                    <path d="M16.4,2.4 L5.8,2.4 C5.2,2.4 4.7,1.9 4.7,1.3 C4.7,0.7 5.2,0.2 5.8,0.2 L16.4,0.2 C17,0.2 17.5,0.7 17.5,1.3 C17.5,1.9 17,2.4 16.4,2.4 Z"></path>
                    <path d="M1.8,2.4 L1.5,2.4 C0.9,2.4 0.4,1.9 0.4,1.3 C0.4,0.7 0.9,0.2 1.5,0.2 L1.8,0.2 C2.4,0.2 2.9,0.7 2.9,1.3 C2.9,1.9 2.4,2.4 1.8,2.4 Z"></path>
                </g>
                <rect id="Rectangle-path" fill="#FFFFFF" x="3.8" y="12.7" width="70.2" height="112.9"></rect>
            </g>
            <g id="Group" transform="translate(11.000000, 31.000000)">
                <g id="Shape">
                    <path d="M59,24.5 C59,30.1 54.3,34.6 48.6,34.6 L42.8,34.7 L41.7,34.7 L41,34.7 L36.9,34.8 L25.5,35 L21.9,35.1 L10.1,35.2 C5.1,35.2 1.6,31.7 0.9,27.1 C0.8,26.5 0.7,25.8 0.7,25.1 C0.7,19.4 5,14.6 11.1,14.9 C12.7,9.5 19.2,7.2 24.5,9.7 C27,4.4 33.2,0.3 39.6,0.3 C45.8,0.3 51,3.9 53.4,9.1 C54,10.4 54.5,11.8 54.7,13.3 C54.7,13.4 54.7,13.5 54.7,13.5 C54.8,14.2 54.8,14.8 54.8,15.5 C54.8,15.5 54.8,15.6 54.8,15.7 C54.8,15.9 54.8,15.8 54.8,15.7 C54.8,15.7 54.8,15.7 54.8,15.8 C55.8,16.6 56.7,17.7 57.4,19 C58.2,20.6 58.7,22.4 58.7,24.1 C59,24.4 59,24.4 59,24.5 Z" fill="#B8D9FF"></path>
                    <path d="M57.9,21.1 C57.9,26.7 53.2,31.2 47.5,31.2 L40.7,31.3 L40,31.3 L24.5,31.6 L20.9,31.7 L9.1,31.8 C5.4,31.8 2.6,29.9 1,27.1 C0.9,26.5 0.8,25.8 0.8,25.1 C0.8,19.4 5.1,14.6 11.2,14.9 C12.8,9.5 19.3,7.2 24.6,9.7 C27.1,4.4 33.3,0.3 39.7,0.3 C45.9,0.3 51.1,3.9 53.5,9.1 C53.7,10.2 54.1,9.8 54.1,10.9 C54.1,11.1 54.4,12 54.4,11.9 C54.4,11.9 54.4,12.2 54.4,12.2 C54.8,12.6 54.4,12.9 54.8,13.3 C54.9,13.9 55,14.5 55,15.6 C56,16.4 56.8,17.4 57.5,18.5 C57.5,18.7 57.6,18.9 57.6,19 C57.8,19.8 57.9,20.5 57.9,21.1 Z" fill="#DDECFE"></path>
                    <path d="M12.2,32 C15.5,32 18.6,29.9 18.6,25.6 C18.6,25.6 21.8,32 18.3,33.3 C14.8,34.6 13.8,33.5 13.8,33.5 L12.2,32 Z" fill="#B8D9FF"></path>
                    <path d="M45.4,31.5 L44.9,34.8 L44.2,34.8 L40.1,34.9 C38.8,32.8 38.1,30.4 38.1,27.8 C38.1,25.1 38.9,22.7 40.2,20.6 C39.8,21.8 39.6,23.1 39.6,24.4 C39.6,28.9 42.4,31.2 45.4,31.5 Z" fill="#B8D9FF"></path>
                </g>
                <path d="M11.6,38 C15.4,35.5 19.9,34.1 24.8,34.1 C38.1,34.1 48.9,44.9 48.9,58.2 C48.9,71.5 38.1,82.3 24.8,82.3 C11.5,82.3 0.7,71.5 0.7,58.2 C0.7,49.8 5,42.4 11.6,38" id="Shape" fill="#DDECFE"></path>
                <g transform="translate(5.000000, 28.000000)" id="Shape">
                    <path d="M37.4,43.8 C33.7,46.2 29.2,47.7 24.4,47.7 C11.4,47.7 0.8,37.1 0.8,24.1 C0.8,11.1 11.4,0.5 24.4,0.5 C37.4,0.5 48,11.1 48,24.1 C48.1,32.4 43.8,39.6 37.4,43.8" fill="#21D3AC"></path>
                    <path d="M22.4,36 L15.4,29 C14.5,28.1 14.5,26.7 15.4,25.9 C16.3,25 17.7,25 18.5,25.9 L21.7,29.1 L21.7,14 C21.7,12.8 22.7,11.8 23.9,11.8 C25.1,11.8 26.1,12.8 26.1,14 L26.1,29.1 L29.3,25.9 C30.2,25 31.6,25 32.4,25.9 C32.8,26.3 33,26.9 33,27.5 C33,28.1 32.8,28.6 32.4,29.1 L25.4,36.1 C25,36.5 24.4,36.7 23.8,36.7 C23.2,36.7 22.9,36.5 22.4,36 Z" fill="#FFFFFF"></path>
                </g>
            </g>
        </g>
    </g>
</svg>