<?xml version="1.0" encoding="UTF-8"?>
<svg width="148px" height="133px" viewBox="0 0 148 133" version="1.1" xmlns="http://www.w3.org/2000/svg" xmlns:xlink="http://www.w3.org/1999/xlink">
    <!-- Generator: Sketch 51.2 (57519) - http://www.bohemiancoding.com/sketch -->
    <title>Download</title>
    <desc>Created with Sketch.</desc>
    <defs></defs>
    <g id="Page-1" stroke="none" stroke-width="1" fill="none" fill-rule="evenodd">
        <g id="Download" fill-rule="nonzero">
            <g id="Group" transform="translate(0.000000, 30.000000)">
                <path d="M147.4,66.6 L1.6,66 L17.4,9.5 C18.8,4.3 23.5,0.6 28.8,0.6 L120.2,0.6 C125.5,0.6 130.2,4.1 131.6,9.3 L147.4,66.6 Z" id="Shape" fill="#6097FD"></path>
                <path d="M147.9,91.3 C147.9,97.4 143,102.3 136.9,102.3 L11.8,102.3 C5.7,102.3 0.8,97.4 0.8,91.3 L0.8,70.1 C0.8,64 5.7,59.1 11.8,59.1 L136.9,59.1 C143,59.1 147.9,64 147.9,70.1 L147.9,91.3 Z" id="Shape" fill="#4988FD"></path>
                <path d="M14.2,92 C12.8,92 11.7,90.9 11.7,89.5 L11.7,71.8 C11.7,70.4 12.8,69.3 14.2,69.3 C15.6,69.3 16.7,70.4 16.7,71.8 L16.7,89.5 C16.7,90.9 15.6,92 14.2,92 Z" id="Shape" fill="#2767F4"></path>
                <path d="M24.3,92 C22.9,92 21.8,90.9 21.8,89.5 L21.8,71.8 C21.8,70.4 22.9,69.3 24.3,69.3 C25.7,69.3 26.8,70.4 26.8,71.8 L26.8,89.5 C26.8,90.9 25.7,92 24.3,92 Z" id="Shape" fill="#2767F4"></path>
                <path d="M34.4,92 C33,92 31.9,90.9 31.9,89.5 L31.9,71.8 C31.9,70.4 33,69.3 34.4,69.3 C35.8,69.3 36.9,70.4 36.9,71.8 L36.9,89.5 C36.9,90.9 35.8,92 34.4,92 Z" id="Shape" fill="#2767F4"></path>
                <path d="M44.5,92 C43.1,92 42,90.9 42,89.5 L42,71.8 C42,70.4 43.1,69.3 44.5,69.3 C45.9,69.3 47,70.4 47,71.8 L47,89.5 C47,90.9 45.8,92 44.5,92 Z" id="Shape" fill="#2767F4"></path>
                <circle id="Oval" fill="#FFFFFF" cx="126.1" cy="80.7" r="10.1"></circle>
            </g>
            <path d="M104,35.9 C104,46.8 98.4,56.5 89.9,62 C85,65.2 79.1,67.1 72.8,67.1 C55.5,67.1 41.5,53.1 41.5,35.8 C41.5,34 41.6,32.2 42,30.5 L103.6,30.5 C103.8,32.4 104,34.1 104,35.9 Z" id="Shape" fill="#2767F4"></path>
            <g id="Group" transform="translate(47.000000, 0.000000)">
                <path d="M46.1,54.7 C41.4,57.8 35.8,59.6 29.8,59.6 C13.3,59.6 -4.54747351e-13,46.3 -4.54747351e-13,29.8 C-4.54747351e-13,13.3 13.3,-9.09494702e-13 29.8,-9.09494702e-13 C46.3,-9.09494702e-13 59.6,13.3 59.6,29.8 C59.6,40.2 54.2,49.4 46.1,54.7" id="Shape" fill="#21D3AC"></path>
                <path d="M27.2,44.9 L18.4,36.1 C17.3,35 17.3,33.2 18.4,32.1 C19.5,31 21.3,31 22.4,32.1 L26.4,36.1 L26.4,17 C26.4,15.5 27.7,14.2 29.2,14.2 C30.7,14.2 32,15.5 32,17 L32,36.1 L36,32.1 C37.1,31 38.9,31 40,32.1 C40.5,32.6 40.8,33.4 40.8,34.1 C40.8,34.8 40.5,35.5 40,36.1 L31.2,44.9 C30.7,45.4 30,45.7 29.2,45.7 C28.5,45.7 27.8,45.4 27.2,44.9 Z" id="Shape" fill="#FFFFFF"></path>
            </g>
        </g>
    </g>
</svg>