<?xml version="1.0" encoding="UTF-8"?>
<svg width="131px" height="146px" viewBox="0 0 131 146" version="1.1" xmlns="http://www.w3.org/2000/svg" xmlns:xlink="http://www.w3.org/1999/xlink">
    <!-- Generator: Sketch 51.2 (57519) - http://www.bohemiancoding.com/sketch -->
    <title>Drawer</title>
    <desc>Created with Sketch.</desc>
    <defs></defs>
    <g id="Page-1" stroke="none" stroke-width="1" fill="none" fill-rule="evenodd">
        <g id="Drawer" fill-rule="nonzero">
            <g id="Group">
                <rect id="Rectangle-path" fill="#2767F4" x="8.3" y="136.2" width="12.5" height="8.9"></rect>
                <rect id="Rectangle-path" fill="#2767F4" x="110.5" y="136.2" width="12.5" height="8.9"></rect>
                <path d="M124.3,0.6 L5.9,0.6 C2.7,0.6 0,3.2 0,6.5 L0,134 C0,136.6 2.1,138.8 4.8,138.8 L125.4,138.8 C128,138.8 130.2,136.7 130.2,134 L130.2,6.5 C130.2,3.2 127.6,0.6 124.3,0.6 Z" id="Shape" fill="#FFFFFF"></path>
                <path d="M130.5,7.8 L130.5,135.3 C130.5,137.9 128.4,140.1 125.7,140.1 L5.1,140.1 C2.5,140.1 0.3,138 0.3,135.3 L0.3,7.8 C0.3,4.5 2.9,1.9 6.2,1.9 L124.6,1.9 C127.8,2 130.5,4.6 130.5,7.8 Z" id="Shape" fill="#4988FD"></path>
                <path d="M83.6,76.8 L43.9,76.8 C42.5,76.8 41.4,75.7 41.4,74.3 L41.4,65 C41.4,63.6 42.5,62.5 43.9,62.5 C45.3,62.5 46.4,63.6 46.4,65 L46.4,71.8 L81.1,71.8 L81.1,65 C81.1,63.6 82.2,62.5 83.6,62.5 C85,62.5 86.1,63.6 86.1,65 L86.1,74.3 C86.1,75.7 85,76.8 83.6,76.8 Z" id="Shape" fill="#C5DCFA"></path>
                <rect id="Rectangle-path" fill="#6097FD" x="0.3" y="44.8" width="130.2" height="3.2"></rect>
                <path d="M130.5,7.8 L130.5,8.3 L0.3,8.3 L0.3,7.8 C0.3,4.5 2.9,1.9 6.2,1.9 L124.6,1.9 C127.8,2 130.5,4.6 130.5,7.8 Z" id="Shape" fill="#6097FD"></path>
                <rect id="Rectangle-path" fill="#6097FD" x="0.1" y="92.8" width="130.4" height="40.2"></rect>
                <path d="M125.4,139.2 L4.9,139.2 C2.3,139.2 0.1,137.1 0.1,134.4 L0.1,133.3 L130.2,133.3 L130.2,134.4 C130.2,137 128.1,139.2 125.4,139.2 Z" id="Shape" fill="#4988FD"></path>
                <rect id="Rectangle-path" fill="#74A4FD" x="0.3" y="93.5" width="130.2" height="3.2"></rect>
                <rect id="Rectangle-path" fill="#2767F4" x="0.3" y="87.6" width="130.2" height="5.9"></rect>
                <rect id="Rectangle-path" fill="#2767F4" x="0.3" y="38.5" width="130.2" height="6.3"></rect>
                <path d="M85,29.7 L45.3,29.7 C43.9,29.7 42.8,28.6 42.8,27.2 L42.8,17.9 C42.8,16.5 43.9,15.4 45.3,15.4 C46.7,15.4 47.8,16.5 47.8,17.9 L47.8,24.7 L82.5,24.7 L82.5,17.9 C82.5,16.5 83.6,15.4 85,15.4 C86.4,15.4 87.5,16.5 87.5,17.9 L87.5,27.2 C87.5,28.6 86.4,29.7 85,29.7 Z" id="Shape" fill="#C5DCFA"></path>
                <path d="M85,123.6 L45.3,123.6 C43.9,123.6 42.8,122.5 42.8,121.1 L42.8,111.8 C42.8,110.4 43.9,109.3 45.3,109.3 C46.7,109.3 47.8,110.4 47.8,111.8 L47.8,118.6 L82.5,118.6 L82.5,111.8 C82.5,110.4 83.6,109.3 85,109.3 C86.4,109.3 87.5,110.4 87.5,111.8 L87.5,121.1 C87.5,122.5 86.4,123.6 85,123.6 Z" id="Shape" fill="#C5DCFA"></path>
            </g>
            <g id="Group" transform="translate(25.000000, 55.000000)">
                <path d="M3.1,19 C1.1,19.6 -0.1,21.6 0.5,23.7 L4.6,38.7 L9.8,38.7 L9.8,17.2 L3.1,19 Z" id="Shape" fill="#B5D1F5"></path>
                <polygon id="Shape" fill="#B5D1F5" points="60.2 12.7 70.8 24.4 73.4 18.5 80.3 38.6 80.4 38.6 73.4 18.4"></polygon>
                <path d="M52.7,9.5 L33.4,1.1 C31.5,0.3 29.3,1.1 28.4,3.1 L25.6,9.5 L52.7,9.5 Z" id="Shape" fill="#B5D1F5"></path>
                <polygon id="Shape" fill="#B5D1F5" points="70.8 24.4 76.8 30.9 76.9 38.6 80.3 38.6 73.4 18.5"></polygon>
                <path d="M70.8,24.4 L60.1,12.7 L57.1,9.5 L52.6,9.5 L25.5,9.5 L13.4,9.5 C11.3,9.5 9.6,11.2 9.6,13.3 L9.6,17.2 L9.6,38.7 L76.7,38.7 L76.6,31 L70.8,24.4 Z M49.6,22.7 L20.7,22.7 C19.9,22.7 19.2,22 19.2,21.2 C19.2,20.4 19.9,19.7 20.7,19.7 L49.6,19.7 C50.4,19.7 51.1,20.4 51.1,21.2 C51.1,22 50.5,22.7 49.6,22.7 Z M31.8,26.6 C32.6,26.6 33.3,27.3 33.3,28.1 C33.3,28.9 32.6,29.6 31.8,29.6 L20.8,29.6 C20,29.6 19.3,28.9 19.3,28.1 C19.3,27.3 20,26.6 20.8,26.6 L31.8,26.6 Z M61.6,30.9 C59.3,30.9 57.2,28.9 57.2,26.5 L57.2,9.4 L76.8,30.8 L61.6,30.8 L61.6,30.9 Z" id="Shape" fill="#DFECFD"></path>
                <path d="M49.6,19.7 L20.7,19.7 C19.9,19.7 19.2,20.4 19.2,21.2 C19.2,22 19.9,22.7 20.7,22.7 L49.6,22.7 C50.4,22.7 51.1,22 51.1,21.2 C51.1,20.4 50.5,19.7 49.6,19.7 Z" id="Shape" fill="#C5DCFA"></path>
                <path d="M19.3,28.1 C19.3,28.9 20,29.6 20.8,29.6 L31.8,29.6 C32.6,29.6 33.3,28.9 33.3,28.1 C33.3,27.3 32.6,26.6 31.8,26.6 L20.8,26.6 C19.9,26.6 19.3,27.3 19.3,28.1 Z" id="Shape" fill="#C5DCFA"></path>
                <path d="M57.2,9.5 L57.2,26.6 C57.2,28.9 59.3,31 61.6,31 L76.8,31 L57.2,9.5 Z" id="Shape" fill="#C5DCFA"></path>
            </g>
        </g>
    </g>
</svg>