<?xml version="1.0" encoding="UTF-8"?>
<svg width="121px" height="147px" viewBox="0 0 121 147" version="1.1" xmlns="http://www.w3.org/2000/svg" xmlns:xlink="http://www.w3.org/1999/xlink">
    <!-- Generator: Sketch 51.2 (57519) - http://www.bohemiancoding.com/sketch -->
    <title>Dress</title>
    <desc>Created with Sketch.</desc>
    <defs></defs>
    <g id="Page-1" stroke="none" stroke-width="1" fill="none" fill-rule="evenodd">
        <g id="Dress" fill-rule="nonzero">
            <path d="M120.5,132.3 C94.2,151.7 93.2,146.6 80.6,143.6 C39.8,133.7 49.5,162.5 1.5,133.8 C-0.1,132.9 -0.3,131.9 0.7,130.1 C5,122.8 38.7,64.1 38.7,64 C41.7,58.7 43.8,52.6 43.5,46.6 C43.2,38.4 42.6,36.1 41.2,34.5 C40.2,33.2 34.7,28.9 38.2,21.5 C44.9,7.5 40.9,0.8 44.8,0.9 C45.2,0.9 45.7,1 46,1.3 C46.3,1.6 46.5,2.3 46.5,2.6 C46.8,3.9 46.7,8.4 48.9,14.1 C50.5,18.6 52.1,17.9 56,21.2 C56,21.2 56,21.2 56,21.2 C56,21.2 56,21.2 56,21.2 C56.2,21.4 56.8,21.8 57,22.1 C57,22.1 57,22.1 57,22.1 C57.9,23 58.9,24.1 59.8,25.4 C65.6,16.8 71.2,21.9 73.2,2.8 C73.5,0.2 76.8,0.4 77,3 C77.2,7.6 77.8,10.1 78.6,13.4 C78.6,13.5 80.2,18.3 80.3,18.3 C80.3,18.3 80.3,18.4 80.3,18.4 C82.2,22.9 83.7,25.6 81.9,29.6 C80.9,31.8 80,32.7 79.2,33.9 C78.9,34.3 78.7,34.8 78.4,35.4 C77.1,38.7 76.9,45.7 77,48.8 C77.1,50.6 77.2,52.2 77.5,53.7 C78.8,59.7 82.2,63.9 88.2,74.5 C100.1,95.3 120.4,132.1 120.5,132.3 Z" id="Shape" fill="#4988FD"></path>
            <path d="M79.2,34 C78.9,34.4 78.7,34.9 78.4,35.5 C76.2,37.1 74.3,37.5 72.7,37.5 C71.7,37.5 71.1,37.4 70.2,37.2 C69.5,37.1 69.7,36.1 70.4,36.2 L70.7,36.3 C72.2,36.6 75.2,37.1 78.7,34.1 C78.8,33.9 79,33.9 79.2,34 Z" id="Shape" fill="#2767F4"></path>
            <path d="M49.8,37.2 C48.8,37.3 48.3,37.5 47.3,37.5 C45.9,37.5 44.1,37.2 42.1,35.9 C41.8,35.3 41.5,34.9 41.2,34.4 C41.4,34.3 41.6,34.3 41.8,34.4 C44.5,36.5 46.7,36.7 49.6,36.2 C50.2,36.1 50.4,37.1 49.8,37.2 Z" id="Shape" fill="#2767F4"></path>
            <path d="M77.5,53.8 C77.3,53.9 77,53.9 76.8,54 C67.4,56.3 53.8,56.3 44.7,54.3 C44.2,54.2 43.5,54.1 42.8,53.9 C43.2,52.3 43.4,50.6 43.5,49 C55.5,52.1 72.7,50.6 77,49 C77,50.7 77.2,52.3 77.5,53.8 Z" id="Shape" fill="#3973F4"></path>
            <circle id="Oval" fill="#DFECFD" cx="60.6" cy="53.2" r="4"></circle>
        </g>
    </g>
</svg>