<?xml version="1.0" encoding="UTF-8"?>
<svg width="122px" height="121px" viewBox="0 0 122 121" version="1.1" xmlns="http://www.w3.org/2000/svg" xmlns:xlink="http://www.w3.org/1999/xlink">
    <!-- Generator: Sketch 51.2 (57519) - http://www.bohemiancoding.com/sketch -->
    <title>Drone</title>
    <desc>Created with Sketch.</desc>
    <defs></defs>
    <g id="Page-1" stroke="none" stroke-width="1" fill="none" fill-rule="evenodd">
        <g id="Drone" fill-rule="nonzero">
            <circle id="Oval" fill="#C5DCFA" cx="22" cy="98.8" r="21.6"></circle>
            <circle id="Oval" fill="#C5DCFA" cx="99.5" cy="98.8" r="21.6"></circle>
            <circle id="Oval" fill="#C5DCFA" cx="22" cy="21.6" r="21.6"></circle>
            <circle id="Oval" fill="#C5DCFA" cx="99.5" cy="21.6" r="21.6"></circle>
            <path d="M103.1,103.6 C100.7,105.8 97.1,105.7 94.7,103.6 C93.8,102.8 93.2,101.8 92.9,100.7 C92.4,98.8 91.2,97.1 89.6,95.9 L72.5,83.3 C65.4,78.1 55.8,78.1 48.8,83.3 L31.2,96.3 C29.7,97.4 28.5,99 27.9,100.7 C27.6,101.7 27,102.6 26.2,103.3 C23.8,105.5 20,105.4 17.7,103.2 C15.2,100.8 15.2,96.8 17.6,94.3 C18.4,93.5 19.3,93 20.3,92.7 C22.2,92.1 24,91 25.2,89.4 L37.9,72.3 C43.1,65.2 43.1,55.6 37.9,48.6 L25.3,31.5 C24.1,29.9 22.4,28.7 20.4,28.2 C19.3,27.9 18.3,27.3 17.5,26.4 C15.3,24 15.3,20.4 17.5,18 C19.9,15.4 24,15.3 26.5,17.8 C27.2,18.5 27.7,19.3 28,20.2 C28.6,22 29.7,23.5 31.2,24.7 L48.9,37.7 C56,42.9 65.6,42.9 72.6,37.7 L89.7,25.1 C91.3,23.9 92.5,22.2 93,20.2 C93.3,19.1 93.9,18.1 94.8,17.3 C97.2,15.1 100.8,15.1 103.2,17.3 C105.8,19.7 105.9,23.8 103.4,26.3 C102.7,27 101.9,27.5 101,27.8 C99.2,28.4 97.7,29.5 96.5,31 L83.5,48.6 C78.3,55.7 78.3,65.3 83.5,72.3 L96.6,90 C97.7,91.5 99.3,92.6 101,93.2 C101.9,93.5 102.7,94 103.4,94.7 C105.9,97.1 105.8,101.2 103.1,103.6 Z" id="Shape" fill="#4988FD"></path>
            <path d="M37,19.8 L25.1,19.8 C24.8,19.3 24.4,18.9 23.9,18.6 L23.9,6.7 C23.9,5.6 23,4.7 21.9,4.7 C20.8,4.7 19.9,5.6 19.9,6.7 L19.9,18.6 C19.4,18.9 19,19.3 18.7,19.8 L6.8,19.8 C5.7,19.8 4.8,20.7 4.8,21.8 C4.8,22.9 5.7,23.8 6.8,23.8 L18.7,23.8 C19,24.3 19.4,24.7 19.9,25 L19.9,36.9 C19.9,38 20.8,38.9 21.9,38.9 C23,38.9 23.9,38 23.9,36.9 L23.9,25 C24.4,24.7 24.8,24.3 25.1,23.8 L37,23.8 C38.1,23.8 39,22.9 39,21.8 C39,20.7 38.1,19.8 37,19.8 Z" id="Shape" fill="#4988FD"></path>
            <path d="M99.1,25.4 C97,25.4 95.4,23.7 95.4,21.7 C95.4,19.7 97.1,18 99.1,18 C101.1,18 102.8,19.7 102.8,21.7 C102.8,23.7 101.2,25.4 99.1,25.4 Z M99.1,21.4 C99,21.4 98.8,21.5 98.8,21.7 C98.8,22 99.3,22 99.3,21.7 C99.4,21.6 99.3,21.4 99.1,21.4 Z" id="Shape" fill="#4988FD"></path>
            <path d="M106.3,36.9 C105.6,36.9 104.9,36.5 104.5,35.9 L90.2,9.4 C89.7,8.4 90,7.2 91,6.7 C92,6.2 93.2,6.5 93.7,7.5 L108,34 C108.5,35 108.2,36.2 107.2,36.7 C106.9,36.8 106.6,36.9 106.3,36.9 Z" id="Shape" fill="#4988FD"></path>
            <path d="M85.9,30.8 C85.2,30.8 84.5,30.4 84.1,29.8 C83.6,28.8 83.9,27.6 84.9,27.1 L111.4,12.8 C112.4,12.3 113.6,12.6 114.1,13.6 C114.6,14.6 114.3,15.8 113.3,16.3 L86.8,30.6 C86.5,30.8 86.2,30.8 85.9,30.8 Z" id="Shape" fill="#4988FD"></path>
            <path d="M21.9,102.5 C19.8,102.5 18.2,100.8 18.2,98.8 C18.2,96.8 19.9,95.1 21.9,95.1 C23.9,95.1 25.6,96.8 25.6,98.8 C25.6,100.8 24,102.5 21.9,102.5 Z M21.9,98.5 C21.8,98.5 21.6,98.6 21.6,98.8 C21.6,99.1 22.1,99.1 22.1,98.8 C22.2,98.6 22.1,98.5 21.9,98.5 Z" id="Shape" fill="#4988FD"></path>
            <path d="M36.3,105.1 C36.1,105.1 35.9,105.1 35.7,105 L6.9,96.3 C5.8,96 5.2,94.9 5.6,93.8 C5.9,92.7 7,92.2 8.1,92.5 L36.9,101.2 C38,101.5 38.6,102.6 38.2,103.7 C38,104.5 37.2,105.1 36.3,105.1 Z" id="Shape" fill="#4988FD"></path>
            <path d="M17.6,115.1 C17.4,115.1 17.2,115.1 17,115 C15.9,114.7 15.3,113.6 15.7,112.5 L24.4,83.7 C24.7,82.6 25.8,82 26.9,82.4 C28,82.7 28.6,83.8 28.2,84.9 L19.5,113.7 C19.2,114.6 18.4,115.1 17.6,115.1 Z" id="Shape" fill="#4988FD"></path>
            <path d="M99.1,102.6 C97,102.6 95.4,100.9 95.4,98.9 C95.4,96.9 97.1,95.2 99.1,95.2 C101.1,95.2 102.8,96.9 102.8,98.9 C102.8,100.9 101.2,102.6 99.1,102.6 Z M99.1,98.6 C99,98.6 98.8,98.7 98.8,98.9 C98.8,99.2 99.3,99.2 99.3,98.9 C99.4,98.7 99.3,98.6 99.1,98.6 Z" id="Shape" fill="#4988FD"></path>
            <path d="M88.5,111.5 C88,111.5 87.5,111.3 87.1,110.9 C86.3,110.1 86.3,108.9 87.1,108.1 L108.4,86.8 C109.2,86 110.4,86 111.2,86.8 C112,87.6 112,88.8 111.2,89.6 L89.9,110.9 C89.5,111.3 89,111.5 88.5,111.5 Z" id="Shape" fill="#4988FD"></path>
            <path d="M88.5,111.4 C88,111.4 87.5,111.2 87.1,110.8 C86.3,110 86.3,108.8 87.1,108 L108.4,86.7 C109.2,85.9 110.4,85.9 111.2,86.7 C112,87.5 112,88.7 111.2,89.5 L89.9,110.8 C89.5,111.2 89,111.4 88.5,111.4 Z" id="Shape" fill="#4988FD"></path>
            <path d="M109.8,111.5 C109.3,111.5 108.8,111.3 108.4,110.9 L87.1,89.6 C86.3,88.8 86.3,87.6 87.1,86.8 C87.9,86 89.1,86 89.9,86.8 L111.2,108.1 C112,108.9 112,110.1 111.2,110.9 C110.8,111.3 110.3,111.5 109.8,111.5 Z" id="Shape" fill="#4988FD"></path>
            <circle id="Oval" fill="#6097FD" cx="60.4" cy="60.8" r="15.3"></circle>
        </g>
    </g>
</svg>