<?xml version="1.0" encoding="UTF-8"?>
<svg width="150px" height="66px" viewBox="0 0 150 66" version="1.1" xmlns="http://www.w3.org/2000/svg" xmlns:xlink="http://www.w3.org/1999/xlink">
    <!-- Generator: Sketch 51.2 (57519) - http://www.bohemiancoding.com/sketch -->
    <title>Drone_2</title>
    <desc>Created with Sketch.</desc>
    <defs></defs>
    <g id="Page-1" stroke="none" stroke-width="1" fill="none" fill-rule="evenodd">
        <g id="Drone_2" fill-rule="nonzero">
            <path d="M33.1,65.6 C32.8,65.6 32.4,65.5 32.1,65.4 C30.7,64.8 30,63.2 30.5,61.8 C34,52.9 39.9,45.3 47.8,39.9 C55.8,34.3 65.3,31.3 75.1,31.3 C84.9,31.3 94.4,34.3 102.4,39.9 C110.2,45.4 116.2,53 119.7,61.8 C120.3,63.2 119.5,64.8 118.1,65.4 C116.7,65.9 115.1,65.2 114.5,63.8 C108.1,47.4 92.7,36.8 75.1,36.8 C57.5,36.8 42.1,47.4 35.7,63.8 C35.2,64.9 34.2,65.6 33.1,65.6 Z" id="Shape" fill="#FFFFFF"></path>
            <path d="M33.1,65.6 C32.8,65.6 32.4,65.5 32.1,65.4 C30.7,64.8 30,63.2 30.5,61.8 C34,52.9 39.9,45.3 47.8,39.9 C55.8,34.3 65.3,31.3 75.1,31.3 C84.9,31.3 94.4,34.3 102.4,39.9 C110.2,45.4 116.2,53 119.7,61.8 C120.3,63.2 119.5,64.8 118.1,65.4 C116.7,65.9 115.1,65.2 114.5,63.8 C108.1,47.4 92.7,36.8 75.1,36.8 C57.5,36.8 42.1,47.4 35.7,63.8 C35.2,64.9 34.2,65.6 33.1,65.6 Z" id="Shape" fill="#2767F4"></path>
            <path d="M38.5,23 L39.7,23" id="Shape" fill="#FFFFFF"></path>
            <path d="M39.7,23 L48.3,23 C52.2,23 56,21.6 59,19.1 L65.3,13.8 C67.2,12.2 69.5,11.4 72,11.4 L78.2,11.4 C80.6,11.4 83,12.3 84.9,13.8 L91.2,19.1 C94.2,21.6 98,23 101.9,23 L128.4,23 L128.4,29.6 L104.9,29.6 C99.2,29.6 93.9,32.5 90.9,37.3 L83.5,48.9 C82.6,50.3 81,51.2 79.3,51.2 L71,51.2 C69.3,51.2 67.7,50.3 66.8,48.9 L59.4,37.3 C56.3,32.5 51.1,29.6 45.4,29.6 L21.4,29.6 L21.4,23 L32.7,23" id="Shape" fill="#4988FD"></path>
            <path d="M84.7,39.3 C84.7,44.6 80.4,49 75,49 C69.7,49 65.3,44.7 65.3,39.3 C65.3,38.3 65.4,37.4 65.7,36.5 C66.9,32.5 70.6,29.6 75,29.6 C79.4,29.6 83.1,32.5 84.3,36.5 C84.6,37.4 84.7,38.4 84.7,39.3 Z" id="Shape" fill="#C5DCFA"></path>
            <path d="M84.3,36.6 C83.1,40.6 79.4,43.5 75,43.5 C70.6,43.5 66.9,40.6 65.7,36.6 C66.9,32.6 70.6,29.7 75,29.7 C79.5,29.6 83.1,32.6 84.3,36.6 Z" id="Shape" fill="#FFFFFF"></path>
            <circle id="Oval" fill="#FFFFFF" cx="74.1" cy="38.3" r="1"></circle>
            <circle id="Oval" fill="#4988FD" cx="75.1" cy="39.3" r="4.4"></circle>
            <g id="Group" transform="translate(19.000000, 2.000000)" fill="#2767F4">
                <path d="M110.1,0.8 L107.9,0.8 C107.1,0.8 106.4,1.5 106.4,2.3 L106.4,24.4 C106.4,25.2 107.1,25.9 107.9,25.9 L110.1,25.9 C110.9,25.9 111.6,25.2 111.6,24.4 L111.6,2.3 C111.6,1.4 110.9,0.8 110.1,0.8 Z" id="Shape"></path>
                <path d="M4.1,0.8 L1.9,0.8 C1.1,0.8 0.4,1.5 0.4,2.3 L0.4,24.4 C0.4,25.2 1.1,25.9 1.9,25.9 L4.1,25.9 C4.9,25.9 5.6,25.2 5.6,24.4 L5.6,2.3 C5.5,1.4 4.9,0.8 4.1,0.8 Z" id="Shape"></path>
            </g>
            <path d="M43.2,3.5 C40.6,1.8 36.6,0.9 32.2,0.9 C29.3,0.9 26.7,1.3 24.4,2 C23.8,1.4 22.9,1.1 22,1.1 C21.2,1.1 20.4,1.4 19.8,1.9 C17.6,1.2 15.1,0.9 12.4,0.9 C8,0.9 4,1.9 1.4,3.5 C1,3.8 0.7,4.2 0.7,4.7 C0.7,5.2 1,5.7 1.4,5.9 C4,7.6 8,8.5 12.4,8.5 C16.2,8.5 19.8,7.8 22.3,6.5 C24.9,7.8 28.4,8.5 32.2,8.5 C36.6,8.5 40.6,7.5 43.2,5.9 C43.6,5.6 43.9,5.2 43.9,4.7 C43.9,4.2 43.6,3.8 43.2,3.5 Z" id="Shape" fill="#4988FD"></path>
            <path d="M149,3.5 C146.4,1.8 142.4,0.9 138,0.9 C135.1,0.9 132.5,1.3 130.2,2 C129.6,1.4 128.7,1.1 127.8,1.1 C127,1.1 126.2,1.4 125.6,1.9 C123.4,1.2 120.9,0.9 118.2,0.9 C113.8,0.9 109.8,1.9 107.2,3.5 C106.8,3.8 106.5,4.2 106.5,4.7 C106.5,5.2 106.8,5.7 107.2,5.9 C109.8,7.6 113.8,8.5 118.2,8.5 C122,8.5 125.6,7.8 128.1,6.5 C130.7,7.8 134.2,8.5 138,8.5 C142.4,8.5 146.4,7.5 149,5.9 C149.4,5.6 149.7,5.2 149.7,4.7 C149.6,4.2 149.4,3.8 149,3.5 Z" id="Shape" fill="#4988FD"></path>
            <path d="M128,38.5 C125.9,38.5 124.1,36.8 124.1,34.6 L124.1,18.6 C124.1,16.5 125.8,14.7 128,14.7 C130.1,14.7 131.9,16.4 131.9,18.6 L131.9,34.6 C131.9,36.8 130.2,38.5 128,38.5 Z" id="Shape" fill="#2767F4"></path>
            <path d="M22,38.5 C19.9,38.5 18.1,36.8 18.1,34.6 L18.1,18.6 C18.1,16.5 19.8,14.7 22,14.7 C24.1,14.7 25.9,16.4 25.9,18.6 L25.9,34.6 C25.8,36.8 24.1,38.5 22,38.5 Z" id="Shape" fill="#2767F4"></path>
            <path d="M67,28.6 C66.2,28.6 65.5,27.9 65.5,27.1 L65.5,19.4 C65.5,18.6 66.2,17.9 67,17.9 C67.8,17.9 68.5,18.6 68.5,19.4 L68.5,27.1 C68.4,28 67.8,28.6 67,28.6 Z" id="Shape" fill="#4988FD"></path>
            <path d="M71.2,28.1 C70.4,28.1 69.7,27.4 69.7,26.6 L69.7,17.4 C69.7,16.6 70.4,15.9 71.2,15.9 C72,15.9 72.7,16.6 72.7,17.4 L72.7,26.6 C72.7,27.5 72,28.1 71.2,28.1 Z" id="Shape" fill="#4988FD"></path>
            <path d="M75.4,27.7 C74.6,27.7 73.9,27 73.9,26.2 L73.9,16.5 C73.9,15.7 74.6,15 75.4,15 C76.2,15 76.9,15.7 76.9,16.5 L76.9,26.2 C76.9,27.1 76.2,27.7 75.4,27.7 Z" id="Shape" fill="#4988FD"></path>
            <path d="M79.6,28 C78.8,28 78.1,27.3 78.1,26.5 L78.1,17.4 C78.1,16.6 78.8,15.9 79.6,15.9 C80.4,15.9 81.1,16.6 81.1,17.4 L81.1,26.5 C81.1,27.4 80.4,28 79.6,28 Z" id="Shape" fill="#4988FD"></path>
            <path d="M83.8,28.6 C83,28.6 82.3,27.9 82.3,27.1 L82.3,19.1 C82.3,18.3 83,17.6 83.8,17.6 C84.6,17.6 85.3,18.3 85.3,19.1 L85.3,27.1 C85.3,28 84.6,28.6 83.8,28.6 Z" id="Shape" fill="#4988FD"></path>
        </g>
    </g>
</svg>