<?xml version="1.0" encoding="UTF-8"?>
<svg width="120px" height="127px" viewBox="0 0 120 127" version="1.1" xmlns="http://www.w3.org/2000/svg" xmlns:xlink="http://www.w3.org/1999/xlink">
    <!-- Generator: Sketch 51.2 (57519) - http://www.bohemiancoding.com/sketch -->
    <title>Dumbnell</title>
    <desc>Created with Sketch.</desc>
    <defs></defs>
    <g id="Page-1" stroke="none" stroke-width="1" fill="none" fill-rule="evenodd">
        <g id="Dumbnell" fill-rule="nonzero">
            <polygon id="Shape" fill="#ACCFFD" points="72.1 41.4 73.5 40 83.7 50.2 47.8 86 37.6 75.8 61.8 51.7"></polygon>
            <path d="M116.3,27.7 L110.3,21.8 C110.3,21.8 110.3,21.8 110.3,21.8 L91.7,3.6 C87.7,-0.3 81.6,-0.3 78,3.5 C75.3,6.4 74.8,10.6 76.3,14.2 C76.4,14.4 76.5,14.6 76.6,14.8 C76.8,15.2 77,15.5 77.2,15.9 C77.6,16.5 78.1,17 78.6,17.6 L103.2,41.7 C104,42.5 105,43.2 106,43.7 C106.2,43.8 106.4,43.9 106.5,43.9 C110.1,45.4 114.2,44.7 116.9,41.8 C120.6,37.9 120.3,31.6 116.3,27.7 Z" id="Shape" fill="#3973F4"></path>
            <path d="M113.6,51.1 L107.7,45.3 L106.1,43.7 L98,35.8 L76.7,14.9 L69.7,8 L69.4,7.7 C64.9,3.3 57.6,3.5 53.1,8.3 C49.1,12.5 48.7,18.8 51.7,23.3 C52.1,23.9 52.6,24.5 53.1,25 L97.4,68.5 C101.9,72.9 109.2,72.7 113.7,67.9 C118.2,63 118.1,55.5 113.6,51.1 Z" id="Shape" fill="#3973F4"></path>
            <path d="M66.7,101.4 L60.7,95.5 L22.3,57.9 C17.8,53.5 10.5,53.7 6,58.5 C2.1,62.7 1.7,68.9 4.7,73.4 C5.1,74 5.5,74.5 6,75 C6.1,75.1 6.1,75.1 6.2,75.2 L14,82.9 L36.5,105 L43.6,112 L50.5,118.7 C55,123.1 62.3,122.9 66.8,118.1 C71.3,113.3 71.2,105.9 66.7,101.4 Z" id="Shape" fill="#3973F4"></path>
            <path d="M43.7,111.9 C43.6,111.6 43.4,111.4 43.3,111.1 C42.9,110.4 42.3,109.8 41.8,109.2 L35.8,103.3 C35.8,103.3 35.8,103.3 35.8,103.3 L16.8,84.6 C16.2,84 15.6,83.5 14.9,83.1 C14.6,83 14.4,82.8 14.1,82.7 C10.3,80.8 5.8,81.3 2.9,84.4 C-0.2,87.7 -0.4,92.9 2.2,96.9 C2.6,97.5 3.1,98.1 3.6,98.6 L28.6,123.1 C32.6,127.1 38.9,127.2 42.5,123.3 C45.4,120.4 45.7,115.7 43.7,111.9 Z" id="Shape" fill="#3973F4"></path>
            <path d="M110.3,21.8 C110.3,21.8 110.3,21.8 110.3,21.8 L91.7,3.6 C87.7,-0.3 81.6,-0.3 78,3.5 C75.3,6.4 74.8,10.6 76.3,14.2 L69.2,7.2 C69.3,7.4 69.4,7.7 69.6,7.9 C70.1,8.7 70.6,9.3 71.3,10 L77.3,15.9 L95.9,34.1 C96.6,34.7 97.3,35.3 98,35.7 C98.2,35.8 98.5,36 98.7,36.1 C102.4,37.9 106.8,37.2 109.6,34.2 C112.7,30.8 112.9,25.7 110.3,21.8 Z" id="Shape" fill="#4988FD"></path>
            <path d="M107.6,45.2 C107.3,44.7 106.9,44.3 106.5,43.9 C106.4,43.8 106.2,43.6 106.1,43.5 L98.5,36.1 L76.2,14.2 L69.1,7.2 C69.2,7.4 69.3,7.7 69.5,7.9 L69.2,7.6 C64.7,3.2 57.4,3.4 52.9,8.2 C48.9,12.4 48.5,18.7 51.5,23.2 L89.9,60.8 C94.4,65.2 101.7,65 106.2,60.2 C110.2,56 110.7,49.7 107.6,45.2 Z" id="Shape" fill="#4988FD"></path>
            <path d="M60.7,95.6 L22.3,58 C17.8,53.6 10.5,53.8 6,58.6 C2.1,62.8 1.7,69 4.7,73.5 L6.6,75.4 L14.7,83.4 L36.2,104.5 L43.1,111.2 C43.1,111.2 43.2,111.3 43.2,111.3 C47.7,115.6 54.9,115.4 59.4,110.6 C63.4,106.3 63.8,100 60.7,95.6 Z" id="Shape" fill="#4988FD"></path>
            <path d="M36.6,105 C36.5,104.8 36.4,104.6 36.3,104.4 C36.1,104.1 36,103.8 35.7,103.5 C35.7,103.5 35.7,103.5 35.7,103.5 C35.3,102.9 34.8,102.3 34.3,101.8 L9.3,77.3 C8.5,76.5 7.6,75.9 6.7,75.4 C6.5,75.3 6.3,75.2 6.1,75.1 C6.2,75.2 6.2,75.2 6.3,75.3 L14.1,83 C10.3,81.1 5.8,81.6 2.9,84.7 C-0.2,88 -0.4,93.2 2.2,97.2 L21.2,115.9 C25.2,119.9 31.5,120 35.1,116.1 C37.8,113 38.3,108.6 36.6,105 Z" id="Shape" fill="#4988FD"></path>
        </g>
    </g>
</svg>