<?xml version="1.0" encoding="UTF-8"?>
<svg width="122px" height="150px" viewBox="0 0 122 150" version="1.1" xmlns="http://www.w3.org/2000/svg" xmlns:xlink="http://www.w3.org/1999/xlink">
    <!-- Generator: Sketch 51.2 (57519) - http://www.bohemiancoding.com/sketch -->
    <title>Earth</title>
    <desc>Created with Sketch.</desc>
    <defs></defs>
    <g id="Page-1" stroke="none" stroke-width="1" fill="none" fill-rule="evenodd">
        <g id="Earth" fill-rule="nonzero">
            <path d="M122,59.4 C122,68.3 119.8,76.7 115.9,84 C111.6,92 105.3,98.8 97.6,103.7 C89.5,108.8 79.9,111.8 69.6,111.8 C50.6,111.8 34,101.7 24.8,86.6 C20,78.7 17.2,69.4 17.2,59.4 C17.2,36 32.6,16.2 53.7,9.4 C58.7,7.8 64,7 69.6,7 C77.9,7 85.8,8.9 92.8,12.4 C107.3,19.5 118,33.2 121.1,49.5 C121.6,52.7 122,56 122,59.4 Z" id="Shape" fill="#4988FD"></path>
            <path d="M122,59.4 C122,68.3 119.8,76.7 115.9,84 C111.6,92 105.3,98.8 97.6,103.7 C89.5,108.8 79.9,111.8 69.6,111.8 C50.6,111.8 34,101.7 24.8,86.6 C34.5,92.2 45.8,95.4 57.8,95.4 C70.8,95.4 83,91.6 93.3,85.1 C103,78.9 111,70.3 116.5,60.1 C118.3,56.7 119.8,53.1 121,49.4 C121.6,52.7 122,56 122,59.4 Z" id="Shape" fill="#3973F4"></path>
            <path d="M69.6,128.6 C31.5,128.6 0.4,97.6 0.4,59.4 C0.4,35.4 12.6,13.4 33,0.7 C34.6,-0.3 36.8,0.2 37.8,1.8 C38.8,3.4 38.3,5.6 36.7,6.6 C18.3,18 7.4,37.8 7.4,59.4 C7.4,93.7 35.3,121.6 69.6,121.6 C78.3,121.6 86.8,119.8 94.7,116.3 C96.5,115.5 98.5,116.3 99.3,118.1 C100.1,119.9 99.3,121.9 97.5,122.7 C88.7,126.6 79.3,128.6 69.6,128.6 Z" id="Shape" fill="#3973F4"></path>
            <path d="M69.7,140.9 C67.8,140.9 66.2,139.3 66.2,137.4 L66.2,125.1 C66.2,123.2 67.8,121.6 69.7,121.6 C71.6,121.6 73.2,123.2 73.2,125.1 L73.2,137.4 C73.2,139.3 71.6,140.9 69.7,140.9 Z" id="Shape" fill="#3973F4"></path>
            <path d="M53.8,138.1 C52.3,138.9 51.1,140.2 50.6,141.9 L48,149.6 L90.4,149.6 L87.8,141.9 C86.9,139.1 84.3,137.3 81.4,137.3 L57,137.2 C55.9,137.2 53.8,138.1 53.8,138.1 Z" id="Shape" fill="#4988FD"></path>
            <path d="M80.8,57.4 C75.2,65.1 71.6,80.4 65.5,77.3 C59.4,74.2 55.8,62 56.3,51.2 C56.8,40.4 52.2,38.9 46.1,31.3 C40.8,24.6 42,23.4 53.8,9.5 C58.8,7.9 64.1,7.1 69.6,7.1 C77.9,7.1 85.8,9 92.8,12.5 C92.8,19.2 93.5,27.4 96.2,33.4 C100.3,42.5 86.5,49.7 80.8,57.4 Z" id="Shape" fill="#21D3AC"></path>
            <path d="M114.6,84.4 C115.1,84.4 115.4,84.9 115.1,85.3 C110.8,92.8 104.8,99.1 97.5,103.7 C97.4,103.8 96.1,102.8 95.9,102.7 C95.4,102.4 94.9,102 94.4,101.7 C93.5,101.1 92.6,100.4 91.7,99.7 C90.3,98.5 88.9,97.3 87.8,95.8 C86.1,93.5 85.4,90.8 86.6,88.1 C86.6,88.1 86.6,88.1 86.6,88.1 C87.2,86.8 88.5,86 89.9,85.9 L114.6,84.4 Z" id="Shape" fill="#21D3AC"></path>
        </g>
    </g>
</svg>