<?xml version="1.0" encoding="UTF-8"?>
<svg width="130px" height="152px" viewBox="0 0 130 152" version="1.1" xmlns="http://www.w3.org/2000/svg" xmlns:xlink="http://www.w3.org/1999/xlink">
    <!-- Generator: Sketch 51.2 (57519) - http://www.bohemiancoding.com/sketch -->
    <title>Earth_2</title>
    <desc>Created with Sketch.</desc>
    <defs></defs>
    <g id="Page-1" stroke="none" stroke-width="1" fill="none" fill-rule="evenodd">
        <g id="Earth_2" fill-rule="nonzero">
            <path d="M119.4,88.4 C119.1,89.2 118.9,90 118.6,90.7 C118.3,91.5 118,92.3 117.6,93 C112.2,105.3 102.7,114.7 91.3,120 C90.5,120.4 89.8,120.7 89,121 C88.2,121.3 87.4,121.6 86.7,121.9 C77,125.4 66.4,126.2 55.9,123.7 C53.5,123.1 51.2,122.4 48.8,121.5 C46.5,120.6 44.2,119.5 42.1,118.4 C32.7,113.2 25.3,105.4 20.5,96.4 C20.1,95.7 19.7,94.9 19.4,94.1 C19.1,93.3 18.7,92.6 18.4,91.8 C18.1,91 17.7,90.2 17.4,89.3 C13.5,78.3 13.1,65.9 17,54.1 C17.3,53.3 17.5,52.5 17.8,51.7 C18.1,50.9 18.4,50.2 18.8,49.4 C24.1,37.4 33.3,28.2 44.3,22.7 C45.1,22.3 45.8,22 46.6,21.6 C47.4,21.3 48.1,21 48.9,20.7 C58.8,16.9 69.8,16 80.7,18.6 C83,19.2 85.4,19.9 87.6,20.8 C89.9,21.7 92.1,22.7 94.2,23.9 C104,29.3 111.5,37.3 116.3,46.8 C116.7,47.6 117,48.3 117.4,49.1 C117.8,49.9 118.1,50.6 118.4,51.4 C118.7,52.1 119,52.9 119.2,53.6 C122.9,64.6 123.3,76.7 119.4,88.4 Z" id="Shape" fill="#4988FD"></path>
            <path d="M119.2,53.7 C119.1,59.4 118.1,65.3 116.2,71 C115.9,71.8 115.6,72.7 115.3,73.5 C115,74.3 114.6,75.2 114.3,76 C108.5,89.1 98.4,99.1 86.2,104.8 C85.4,105.2 84.6,105.6 83.8,105.9 C83,106.2 82.1,106.6 81.3,106.9 C71,110.7 59.6,111.5 48.5,108.8 C46,108.2 43.5,107.4 41,106.5 C38.5,105.5 36.1,104.4 33.8,103.2 C27.4,99.7 21.9,95 17.4,89.6 C13.5,78.6 13.1,66.2 17,54.4 C17.3,53.6 17.5,52.8 17.8,52 C18.1,51.2 18.4,50.5 18.8,49.7 C24.1,37.7 33.3,28.5 44.3,23 C45.1,22.6 45.8,22.3 46.6,21.9 C47.4,21.6 48.1,21.3 48.9,21 C58.8,17.2 69.8,16.3 80.7,18.9 C83,19.5 85.4,20.2 87.6,21.1 C89.9,22 92.1,23 94.2,24.2 C104,29.6 111.5,37.6 116.3,47.1 C116.7,47.9 117,48.6 117.4,49.4 C117.8,50.2 118.1,50.9 118.4,51.7 C118.6,52.2 118.9,53 119.2,53.7 Z" id="Shape" fill="#6097FD"></path>
            <path d="M86.7,23.3 C90.3,24.7 92.3,31.1 92.1,40.5 C92,43.8 91.7,47.3 91.1,50.9 C86.4,50.5 81.8,49.4 77.3,47.7 C72.8,46 68.7,43.7 64.9,40.8 C73.7,27.3 82.2,21.6 86.7,23.3 Z M49.6,119.3 C44.9,117.5 42.9,107.3 45.1,92.8 C49.7,93.3 54.2,94.3 58.6,96 C62.8,97.6 66.8,99.9 70.7,102.8 C62.6,115 54.4,121.2 49.6,119.3 Z M73.4,98.6 C69.2,95.5 64.9,93.1 60.4,91.4 C55.7,89.6 50.8,88.4 45.9,87.9 C47.1,81.7 49,74.9 51.7,67.7 L82.8,79.7 C79.9,86.8 76.7,93.2 73.4,98.6 Z M84.6,75 L53.5,63 C54,61.7 54.6,60.4 55.1,59.1 L58.5,51.9 C59.7,49.5 60.9,47.3 62.2,45.1 C66.2,48.1 70.6,50.5 75.4,52.4 C80.2,54.3 85.1,55.4 90.1,55.9 C88.9,62 87,68.5 84.6,75 Z M89.3,76.8 C91.9,69.8 93.9,62.8 95.2,56.2 C95.4,56.2 95.6,56.2 95.8,56.2 C103.5,56.2 111.1,54.6 118.3,51.5 C118,50.7 117.7,50 117.3,49.2 C116.9,48.4 116.6,47.7 116.2,46.9 C109.7,49.7 102.8,51.1 96,51.2 C96.6,47.5 96.9,44 97,40.7 C97.2,33.6 96.2,27.9 94.1,24.1 C92,23 89.8,21.9 87.5,21 C85.2,20.1 82.9,19.4 80.6,18.8 C74.5,21 67.6,27.6 61,37.7 C55.9,33.1 51.8,27.4 48.9,20.9 C48.1,21.2 47.3,21.5 46.6,21.8 C45.8,22.1 45.1,22.5 44.3,22.9 C47.6,30.3 52.4,36.7 58.3,42 C56.9,44.4 55.5,47 54.1,49.7 L50.6,57 C50.6,57 50.6,57 50.6,57.1 C50,58.5 49.4,59.9 48.8,61.3 L18.7,49.7 C18.4,50.5 18,51.2 17.7,52 C17.4,52.8 17.1,53.6 16.9,54.4 L47,66 C44.4,73.2 42.3,80.6 40.9,87.7 C33.2,87.6 25.6,89 18.3,92.1 C18.3,92.1 18.3,92.1 18.3,92.1 C18.6,92.9 19,93.6 19.3,94.4 C19.7,95.2 20,95.9 20.4,96.7 C26.7,94.1 33.4,92.8 40.1,92.8 C38.6,103.5 38.9,112.9 42,118.8 C44.1,120 46.4,121 48.7,121.9 C51,122.8 53.4,123.5 55.8,124.1 C62,121.8 68.6,115.1 74.6,106.2 C75.2,106.7 75.7,107.2 76.3,107.7 C78.5,109.8 79.8,111.5 81.7,114.1 L82.8,115.6 C84.3,117.7 85.5,120.1 86.5,122.2 C87.3,121.9 88.1,121.6 88.8,121.3 C89.6,121 90.3,120.6 91.1,120.3 C91.1,120.3 91.1,120.3 91.1,120.3 C90,117.9 88.7,115.2 86.8,112.7 L85.7,111.2 C83.7,108.4 82.2,106.5 79.7,104.1 C78.9,103.4 78.1,102.6 77.3,102 C81.1,95.8 84.5,88.9 87.4,81.8 L117.5,93.4 C117.8,92.6 118.2,91.9 118.5,91.1 C118.8,90.3 119.1,89.5 119.3,88.8 L89.3,76.8 Z" id="Shape" fill="#3973F4"></path>
            <path d="M128.4,96.8 C127.1,96.2 125.7,96.8 125.1,98 C118.5,112.1 106.9,123.3 92.4,129.3 C76.4,136 63.3,135 47.9,130.8 L96.9,3.8 C97.4,2.5 96.8,1.1 95.5,0.6 C94.2,0.1 92.8,0.7 92.3,2 L43.3,128.9 C29.2,122.8 17.9,111.9 11.3,97.9 C-1.5,70.6 6.9,38 31.3,20.3 C32.4,19.5 32.7,17.9 31.9,16.8 C31.1,15.7 29.5,15.4 28.4,16.2 C2.1,35.3 -7,70.5 6.8,100 C13.9,115.2 26.2,127 41.5,133.5 L35.8,148.3 C35.3,149.6 35.9,151 37.2,151.5 C37.5,151.6 37.8,151.7 38.1,151.7 C39.1,151.7 40.1,151.1 40.4,150.1 L46.1,135.3 C54.3,137.5 61.8,139 69.5,139 C77.4,139 85.5,137.5 94.4,133.8 C110,127.3 122.5,115.3 129.7,100 C130.2,98.9 129.6,97.4 128.4,96.8 Z" id="Shape" fill="#3973F4"></path>
        </g>
    </g>
</svg>