<?xml version="1.0" encoding="UTF-8"?>
<svg width="139px" height="149px" viewBox="0 0 139 149" version="1.1" xmlns="http://www.w3.org/2000/svg" xmlns:xlink="http://www.w3.org/1999/xlink">
    <!-- Generator: Sketch 51.2 (57519) - http://www.bohemiancoding.com/sketch -->
    <title>Edit_File_1_</title>
    <desc>Created with Sketch.</desc>
    <defs></defs>
    <g id="Page-1" stroke="none" stroke-width="1" fill="none" fill-rule="evenodd">
        <g id="Edit_File_1_" fill-rule="nonzero">
            <path d="M113.9,95.2 L82.1,126.8 C81,127.9 80,129.3 79.4,130.8 L72.1,148.2 L6.7,148.4 C3.1,148.4 0.3,145.5 0.3,142 L0.3,6.7 C0.3,3.1 3.2,0.3 6.7,0.3 L80.9,0.3 L114.2,36.8 L114.9,94.3" id="Shape" fill="#4988FD"></path>
            <path d="M61.2,116.8 L36.1,116.8 C35.3,116.8 34.6,116.1 34.6,115.3 C34.6,114.5 35.3,113.8 36.1,113.8 L61.2,113.8 C62,113.8 62.7,114.5 62.7,115.3 C62.7,116.1 62,116.8 61.2,116.8 Z" id="Shape" fill="#C5DCFA"></path>
            <path d="M29.3,116.8 L19.5,116.8 C18.7,116.8 18,116.1 18,115.3 C18,114.5 18.7,113.8 19.5,113.8 L29.3,113.8 C30.1,113.8 30.8,114.5 30.8,115.3 C30.8,116.1 30.1,116.8 29.3,116.8 Z" id="Shape" fill="#C5DCFA"></path>
            <path d="M91.7,100.3 L66.8,100.3 C66,100.3 65.3,99.6 65.3,98.8 C65.3,98 66,97.3 66.8,97.3 L91.7,97.3 C92.5,97.3 93.2,98 93.2,98.8 C93.2,99.6 92.5,100.3 91.7,100.3 Z" id="Shape" fill="#C5DCFA"></path>
            <path d="M56.3,100.3 L20,100.3 C19.2,100.3 18.5,99.6 18.5,98.8 C18.5,98 19.2,97.3 20,97.3 L56.3,97.3 C57.1,97.3 57.8,98 57.8,98.8 C57.8,99.6 57.1,100.3 56.3,100.3 Z" id="Shape" fill="#C5DCFA"></path>
            <path d="M92.8,83.7 L84.1,83.7 C83.3,83.7 82.6,83 82.6,82.2 C82.6,81.4 83.3,80.7 84.1,80.7 L92.8,80.7 C93.6,80.7 94.3,81.4 94.3,82.2 C94.4,83 93.7,83.7 92.8,83.7 Z" id="Shape" fill="#C5DCFA"></path>
            <path d="M73.6,83.7 L20.5,83.7 C19.7,83.7 19,83 19,82.2 C19,81.4 19.7,80.7 20.5,80.7 L73.6,80.7 C74.4,80.7 75.1,81.4 75.1,82.2 C75.1,83 74.4,83.7 73.6,83.7 Z" id="Shape" fill="#C5DCFA"></path>
            <path d="M92.6,67.2 L58.4,67.2 C57.6,67.2 56.9,66.5 56.9,65.7 C56.9,64.9 57.6,64.2 58.4,64.2 L92.6,64.2 C93.4,64.2 94.1,64.9 94.1,65.7 C94.1,66.5 93.5,67.2 92.6,67.2 Z" id="Shape" fill="#C5DCFA"></path>
            <path d="M47.4,67.2 L21,67.2 C20.2,67.2 19.5,66.5 19.5,65.7 C19.5,64.9 20.2,64.2 21,64.2 L47.4,64.2 C48.2,64.2 48.9,64.9 48.9,65.7 C48.9,66.5 48.2,67.2 47.4,67.2 Z" id="Shape" fill="#C5DCFA"></path>
            <path d="M66,23.4 L21.5,23.4 C20.4,23.4 19.5,22.5 19.5,21.4 C19.5,20.3 20.4,19.4 21.5,19.4 L66,19.4 C67.1,19.4 68,20.3 68,21.4 C68,22.4 67.1,23.4 66,23.4 Z" id="Shape" fill="#FFFFFF"></path>
            <path d="M38.5,35.1 L21.5,35.1 C20.4,35.1 19.5,34.2 19.5,33.1 C19.5,32 20.4,31.1 21.5,31.1 L38.5,31.1 C39.6,31.1 40.5,32 40.5,33.1 C40.5,34.2 39.6,35.1 38.5,35.1 Z" id="Shape" fill="#FFFFFF"></path>
            <path d="M79.8,0.3 L79.8,29.3 C79.8,33.3 83.3,36.7 87.3,36.7 L113.1,36.7" id="Shape" fill="#3973F4"></path>
            <path d="M92.8,142.8 L81.3,147.3 C79.8,147.9 78.3,146.4 78.9,144.9 L83.4,133.4 C83.9,132.2 84.6,131.1 85.5,130.1 L127.7,87.9 C128.8,86.8 130.5,86.8 131.6,87.9 L138.2,94.5 C139.3,95.6 139.3,97.3 138.2,98.4 L96,140.6 C95.1,141.6 94,142.3 92.8,142.8 Z" id="Shape" fill="#4988FD"></path>
            <path d="M91.9,136.3 C91.4,136.3 90.9,136.1 90.5,135.7 C89.7,134.9 89.7,133.6 90.5,132.8 L128.5,94.8 C129.3,94 130.6,94 131.4,94.8 C132.2,95.6 132.2,96.9 131.4,97.7 L93.4,135.7 C93,136.1 92.5,136.3 91.9,136.3 Z" id="Shape" fill="#3973F4"></path>
        </g>
    </g>
</svg>