<?xml version="1.0" encoding="UTF-8"?>
<svg width="150px" height="138px" viewBox="0 0 150 138" version="1.1" xmlns="http://www.w3.org/2000/svg" xmlns:xlink="http://www.w3.org/1999/xlink">
    <!-- Generator: Sketch 51.2 (57519) - http://www.bohemiancoding.com/sketch -->
    <title>Email</title>
    <desc>Created with Sketch.</desc>
    <defs></defs>
    <g id="Page-1" stroke="none" stroke-width="1" fill="none" fill-rule="evenodd">
        <g id="Email" fill-rule="nonzero">
            <path d="M149.6,0.7 L149.5,1.2 L149.3,2 L122.8,131.4 C122.2,134.3 118.9,135.7 116.4,134.2 L74.2,108.9 C74.2,108.9 74.1,108.8 74.1,108.8 C74,108.8 74,108.7 73.9,108.6 L73.4,109.3 L69.3,114.9 C69.2,115 69.1,115.2 69,115.2 L53.6,136.5 C52.4,138.2 49.7,137.4 49.6,135.3 L48.2,96.5 L48.2,96.4 L3.2,81 C-0.4,79.8 -0.7,74.8 2.7,73.1 L149.6,0.7 Z" id="Shape" fill="#6097FD"></path>
            <path d="M149.6,1.2 L149.4,2 L149.1,3.3 L73.9,108.7 C73.9,108.7 53.9,136.1 53.9,136.1 C52.4,137.6 61.6,125.8 53.7,136.7 C52.5,138.4 49.8,137.6 49.7,135.5 L48.3,96.7 L149.6,1.2 Z" id="Shape" fill="#2767F4"></path>
        </g>
    </g>
</svg>