<?xml version="1.0" encoding="UTF-8"?>
<svg width="149px" height="77px" viewBox="0 0 149 77" version="1.1" xmlns="http://www.w3.org/2000/svg" xmlns:xlink="http://www.w3.org/1999/xlink">
    <!-- Generator: Sketch 51.2 (57519) - http://www.bohemiancoding.com/sketch -->
    <title>Email_2</title>
    <desc>Created with Sketch.</desc>
    <defs></defs>
    <g id="Page-1" stroke="none" stroke-width="1" fill="none" fill-rule="evenodd">
        <g id="Email_2" fill-rule="nonzero">
            <path d="M148.9,9.6 L143.7,67.7 C143.7,72.8 139.6,76.9 134.5,76.9 L48.7,76.9 C46.9,76.9 45.2,76.4 43.8,75.4 C41.2,73.8 39.5,70.9 39.5,67.7 L44.7,9.6 C44.7,8 45.1,6.5 45.8,5.3 C46.1,4.8 46.4,4.3 46.7,3.9 C47.1,3.5 47.5,3.1 47.9,2.7 C49.5,1.3 51.6,0.5 53.9,0.5 L139.7,0.5 C142,0.5 144,1.3 145.7,2.7 C146.1,3.1 146.5,3.5 146.9,3.9 C147.3,4.3 147.6,4.8 147.8,5.3 C148.1,5.9 148.4,6.5 148.5,7.1 C148.8,7.9 148.9,8.7 148.9,9.6 Z" id="Shape" fill="#DFECFD"></path>
            <path d="M147.8,5.3 L103.8,42.8 C101.2,45 97.9,46.2 94.7,46.2 C91.2,46.2 87.7,44.9 85,42.3 L45.8,5.3 C46.1,4.8 46.4,4.3 46.7,3.9 C47.1,3.5 47.5,3.1 47.9,2.7 L87.2,39.9 C91.2,43.7 97.3,43.8 101.5,40.3 L145.6,2.8 C146,3.2 146.4,3.6 146.8,4 C147.2,4.3 147.5,4.8 147.8,5.3 Z" id="Shape" fill="#C5DCFA"></path>
            <path d="M33.8,18.4 L2.8,18.4 C1.3,18.4 0.2,17.2 0.2,15.8 C0.2,14.3 1.4,13.2 2.8,13.2 L33.8,13.2 C35.3,13.2 36.4,14.4 36.4,15.8 C36.4,17.2 35.3,18.4 33.8,18.4 Z" id="Shape" fill="#4988FD"></path>
            <path d="M32.4,33.3 L14.4,33.3 C12.9,33.3 11.8,32.1 11.8,30.7 C11.8,29.2 13,28.1 14.4,28.1 L32.4,28.1 C33.9,28.1 35,29.3 35,30.7 C35.1,32.1 33.9,33.3 32.4,33.3 Z" id="Shape" fill="#4988FD"></path>
            <path d="M30.8,47.4 L20.6,47.4 C19.1,47.4 18,46.2 18,44.8 C18,43.3 19.2,42.2 20.6,42.2 L30.8,42.2 C32.3,42.2 33.4,43.4 33.4,44.8 C33.5,46.2 32.3,47.4 30.8,47.4 Z" id="Shape" fill="#4988FD"></path>
            <path d="M128.8,59.9 L118.1,60 C117.3,60 116.7,59.3 116.8,58.5 L118.3,47.8 C118.4,47.2 118.9,46.7 119.6,46.7 L130.3,46.6 C131.1,46.6 131.7,47.3 131.6,48.1 L130.1,58.8 C130,59.4 129.4,59.9 128.8,59.9 Z" id="Shape" fill="#C5DCFA"></path>
            <path d="M115.4,53.3 C113.3,53.3 111.5,52.5 110.2,51.9 C108,50.9 107.6,50.9 106.9,51.7 C106.3,52.4 105.2,52.5 104.5,51.9 C103.8,51.3 103.7,50.2 104.3,49.5 C106.8,46.6 109.6,47.9 111.6,48.8 C113.9,49.9 115.9,50.8 119,48.6 C119.8,48.1 120.8,48.2 121.4,49 C121.9,49.8 121.8,50.8 121,51.4 C118.9,52.8 117,53.3 115.4,53.3 Z" id="Shape" fill="#C5DCFA"></path>
            <path d="M115.6,59.2 C113.5,59.2 111.7,58.4 110.4,57.8 C108.2,56.8 107.8,56.8 107.1,57.6 C106.5,58.3 105.4,58.4 104.7,57.8 C104,57.2 103.9,56.1 104.5,55.4 C107,52.6 109.8,53.8 111.8,54.7 C114.1,55.8 116.1,56.7 119.2,54.5 C120,54 121,54.1 121.6,54.9 C122.1,55.7 122,56.7 121.2,57.3 C119.1,58.7 117.3,59.2 115.6,59.2 Z" id="Shape" fill="#C5DCFA"></path>
        </g>
    </g>
</svg>