<?xml version="1.0" encoding="UTF-8"?>
<svg width="133px" height="133px" viewBox="0 0 133 133" version="1.1" xmlns="http://www.w3.org/2000/svg" xmlns:xlink="http://www.w3.org/1999/xlink">
    <!-- Generator: Sketch 51.2 (57519) - http://www.bohemiancoding.com/sketch -->
    <title>Energy_Bar</title>
    <desc>Created with Sketch.</desc>
    <defs></defs>
    <g id="Page-1" stroke="none" stroke-width="1" fill="none" fill-rule="evenodd">
        <g id="Energy_Bar" fill-rule="nonzero">
            <path d="M132.7,43.3 C132.5,44 132.1,44.6 131.5,45.1 L120,52.8 L118.4,53.9 L54.4,117.9 L53.2,119.6 L44.8,131.8 C44.4,132.4 43.7,132.8 43,133 C42.5,133.1 41.9,133.1 41.4,133 L38.3,132.7 C37.3,132.4 36.5,131.7 36.1,130.7 L35.2,126.7 C34.9,125.9 34.3,125.2 33.4,124.9 L28.9,123.6 C28,123.2 27.3,122.4 27,121.4 L26.6,117.9 C26.3,116.8 25.5,115.9 24.4,115.6 L20.6,115 C19.6,114.7 18.8,113.9 18.4,112.9 L17.7,108.8 C17.4,107.8 16.7,107.1 15.8,106.7 L11.8,105.8 C10.9,105.5 10.3,104.8 9.9,103.9 L9,99.9 C8.7,99 7.9,98.3 6.9,98 L3,97.4 C3,97.4 3,97.4 3,97.4 C1.9,97.1 1.1,96.2 0.8,95.1 L0.5,91.3 C0.4,91 0.4,90.7 0.4,90.4 C0.5,89.5 0.9,88.6 1.7,88.1 L15.3,78.9 L18,76.2 L30.6,63.6 L79.3,14.9 L87.7,2.1 C88.4,1.1 89.7,0.6 91,0.8 L94.8,1.1 C95.9,1.3 96.8,2.2 97.1,3.3 C97.1,3.3 97.1,3.3 97.1,3.3 L97.7,7.2 C98,8.2 98.7,8.9 99.6,9.3 L103.6,10.3 C104.5,10.6 105.1,11.3 105.5,12.2 L106.5,16.2 C106.9,17.1 107.6,17.8 108.6,18.1 L112.7,18.8 C113.7,19.1 114.5,19.9 114.8,20.9 L115.4,24.7 C115.7,25.8 116.6,26.6 117.7,26.9 L121.2,27.3 C122.2,27.5 123,28.2 123.4,29.2 L124.7,33.7 C125,34.5 125.7,35.2 126.5,35.5 L130.5,36.4 C131.5,36.8 132.2,37.6 132.5,38.6 L132.8,41.7 C132.8,41.9 132.9,42 132.9,42.2 C132.9,42.6 132.8,43 132.7,43.3 Z" id="Shape" fill="#D5E6FD"></path>
            <path d="M90.8,55.3 C90.7,55.5 90.6,55.6 90.4,55.7 L82.1,61.8 L76.2,66.1 L82.3,72 L83.6,73.3 C84.3,74 83.9,75.3 82.9,75.4 L49.7,80.6 C48.5,80.8 47.8,79.2 48.8,78.5 L54.3,74.4 L62.8,68.1 L55.7,61 C55,60.3 55.4,59.1 56.4,58.9 L62.8,57.9 L89.6,53.6 C90.5,53.4 91.2,54.5 90.8,55.3 Z" id="Shape" fill="#3973F4"></path>
            <path d="M90.8,55.3 L82,61.8 L82.1,61.9 L76.2,66.2 L82.3,72.1 L55.5,76.3 C54.4,76.5 53.8,75.2 54.3,74.4 C54.4,74.3 54.5,74.2 54.6,74.1 L62.8,68 L68.6,63.6 L62.7,57.8 L89.5,53.5 C90.5,53.4 91.2,54.5 90.8,55.3 Z" id="Shape" fill="#4988FD"></path>
            <path d="M128.8,46.2 C128.8,46.6 128.8,46.9 128.7,47.3 L128.4,47.5 L120.9,52.9 L117.1,55.7 L116,56.8 L53.2,119.6 L52.3,120.5 L50.9,122.5 L43.7,132.2 L43.1,133 C42.6,133.1 42,133.1 41.5,133 L38.4,132.7 C37.4,132.4 36.6,131.7 36.2,130.7 L35.3,126.7 C35,125.9 34.4,125.2 33.5,124.9 L29,123.6 C28.9,123.6 28.8,123.5 28.7,123.5 C29.6,122.5 30.5,121.5 31.5,120.7 C38.3,115 40.6,100.2 67.3,92.3 C94,84.3 86.1,74.1 98,57 C109.9,39.9 113.4,50.2 127.6,43.9 L128.6,43.4 L128.6,43.5 L128.7,45.2 C128.7,45.3 128.8,45.4 128.8,45.5 C128.9,45.8 128.9,46 128.8,46.2 Z" id="Shape" fill="#BAD8FF"></path>
            <path d="M16,96.4 C14.5,99 12.5,102.4 10.8,105.2 C10.5,104.9 10.2,104.5 10,104.1 L9.1,100.1 C9.1,100 9,99.9 9,99.8 L14.7,95.3 C15.5,94.6 16.5,95.5 16,96.4 Z" id="Shape" fill="#BAD8FF"></path>
            <path d="M24.5,104.3 C23,106.9 21,110.3 19.3,113.1 C19,112.8 18.7,112.4 18.5,112 L17.5,108 C17.5,107.9 17.4,107.8 17.4,107.7 L23.1,103.2 C24,102.6 25,103.5 24.5,104.3 Z" id="Shape" fill="#BAD8FF"></path>
            <path d="M32.5,113.4 C31,116 29,119.4 27.3,122.2 C27,121.9 26.7,121.5 26.5,121.1 L25.5,117.1 C25.5,117 25.4,116.9 25.4,116.8 L31.1,112.3 C32,111.7 33,112.6 32.5,113.4 Z" id="Shape" fill="#BAD8FF"></path>
            <path d="M42.2,122.5 C40.7,125.1 38.7,128.5 37,131.3 C36.7,131 36.4,130.6 36.2,130.2 L35.2,126.2 C35.2,126.1 35.1,126 35.1,125.9 L40.8,121.4 C41.6,120.8 42.7,121.7 42.2,122.5 Z" id="Shape" fill="#BAD8FF"></path>
            <path d="M129.1,45.3 L128.8,45.5 L123.3,49.8 C122.5,50.4 121.5,49.5 122,48.7 C123.5,46.2 125.4,43 127,40.1 C127.4,40.3 127.7,40.6 127.9,41 L128.5,43.5 L128.9,45 C129,45.1 129,45.2 129.1,45.3 Z" id="Shape" fill="#BAD8FF"></path>
            <path d="M120.7,37.1 L115.4,41.3 C114.6,41.9 113.6,41 114.1,40.2 C115.5,37.8 117.4,34.7 119,31.9 C119.2,32.1 119.3,32.4 119.5,32.7 L120.7,37.1 Z" id="Shape" fill="#BAD8FF"></path>
            <path d="M111.8,28.9 L106.9,32.8 C106.1,33.4 105.1,32.5 105.6,31.7 C107,29.3 108.8,26.2 110.4,23.5 C110.6,23.8 110.8,24.1 110.9,24.4 L111.5,28.2 C111.5,28.5 111.6,28.7 111.8,28.9 Z" id="Shape" fill="#BAD8FF"></path>
            <path d="M102.5,19.4 L97.2,23.6 C96.4,24.2 95.4,23.3 95.9,22.5 C97.3,20.1 99.1,17 100.7,14.3 C101.1,14.6 101.4,15.1 101.6,15.6 L102.5,19.4 Z" id="Shape" fill="#BAD8FF"></path>
            <path d="M120.4,53.4 L117.4,55.6 C117.3,55.5 117.2,55.4 117.1,55.3 L96.7,34.9 C95.9,34.1 95.9,32.8 96.7,32.1 C97.5,31.3 98.7,31.3 99.5,32.1 L119.9,52.5 C120.1,52.7 120.3,53 120.4,53.4 Z" id="Shape" fill="#BAD8FF"></path>
            <path d="M92.3,29.7 C91.8,29.7 91.3,29.5 90.9,29.1 L87.7,25.9 C86.9,25.1 86.9,23.9 87.7,23.1 C88.5,22.3 89.7,22.3 90.5,23.1 L93.7,26.3 C94.5,27.1 94.5,28.3 93.7,29.1 C93.3,29.5 92.8,29.7 92.3,29.7 Z" id="Shape" fill="#BAD8FF"></path>
            <path d="M86.5,21.9 C86.1,22.3 85.6,22.5 85.1,22.5 C84.6,22.5 84.1,22.3 83.7,21.9 L83.4,21.6 C83.3,21.5 83.2,21.4 83.1,21.3 C83.9,20.2 84.6,19.2 85.3,18.3 C85.6,18.4 86,18.6 86.2,18.8 L86.5,19.1 C87.2,19.8 87.2,21.1 86.5,21.9 Z" id="Shape" fill="#BAD8FF"></path>
            <path d="M55.7,117.1 L53.2,119.6 L52.9,119.9 C52.8,119.8 52.7,119.7 52.6,119.7 L18.6,85.7 L20.8,83.5 L21.4,82.9 L55.4,116.9 C55.6,116.9 55.7,117 55.7,117.1 Z" id="Shape" fill="#BAD8FF"></path>
        </g>
    </g>
</svg>