<?xml version="1.0" encoding="UTF-8"?>
<svg width="118px" height="149px" viewBox="0 0 118 149" version="1.1" xmlns="http://www.w3.org/2000/svg" xmlns:xlink="http://www.w3.org/1999/xlink">
    <!-- Generator: Sketch 51.2 (57519) - http://www.bohemiancoding.com/sketch -->
    <title>Enterprise_2</title>
    <desc>Created with Sketch.</desc>
    <defs></defs>
    <g id="Page-1" stroke="none" stroke-width="1" fill="none" fill-rule="evenodd">
        <g id="Enterprise_2" fill-rule="nonzero">
            <path d="M54.5,27.1 C53.4,27.1 52.5,26.2 52.5,25.1 L52.5,2.3 C52.5,1.2 53.4,0.3 54.5,0.3 C55.6,0.3 56.5,1.2 56.5,2.3 L56.5,25.1 C56.5,26.2 55.6,27.1 54.5,27.1 Z" id="Shape" fill="#3973F4"></path>
            <path d="M62.4,27.5 C61.3,27.5 60.4,26.6 60.4,25.5 L60.4,15 C60.4,13.9 61.3,13 62.4,13 C63.5,13 64.4,13.9 64.4,15 L64.4,25.5 C64.4,26.6 63.5,27.5 62.4,27.5 Z" id="Shape" fill="#3973F4"></path>
            <rect id="Rectangle-path" fill="#6097FD" x="0.1" y="24.5" width="67.7" height="124.1"></rect>
            <rect id="Rectangle-path" fill="#4988FD" x="67.8" y="47.4" width="27.3" height="101.2"></rect>
            <rect id="Rectangle-path" fill="#3973F4" x="25.6" y="120.4" width="16.7" height="28.2"></rect>
            <polyline id="Shape" fill="#3973F4" points="9.8 42.3 9.8 36 21.4 36 21.4 47.7 9.8 47.7 9.8 46.9"></polyline>
            <rect id="Rectangle-path" fill="#3973F4" x="28.3" y="36" width="11.7" height="11.7"></rect>
            <rect id="Rectangle-path" fill="#DFECFD" x="46.9" y="36" width="11.7" height="11.7"></rect>
            <rect id="Rectangle-path" fill="#DFECFD" x="9.8" y="55.3" width="11.7" height="11.7"></rect>
            <polyline id="Shape" fill="#DFECFD" points="40 62.5 40 67 28.3 67 28.3 55.3 40 55.3 40 57.2"></polyline>
            <rect id="Rectangle-path" fill="#3973F4" x="46.9" y="55.3" width="11.7" height="11.7"></rect>
            <rect id="Rectangle-path" fill="#3973F4" x="9.8" y="74.7" width="11.7" height="11.7"></rect>
            <rect id="Rectangle-path" fill="#3973F4" x="28.3" y="74.7" width="11.7" height="11.7"></rect>
            <rect id="Rectangle-path" fill="#3973F4" x="46.9" y="74.7" width="11.7" height="11.7"></rect>
            <rect id="Rectangle-path" fill="#3973F4" x="9.8" y="94" width="11.7" height="11.7"></rect>
            <rect id="Rectangle-path" fill="#3973F4" x="28.3" y="94" width="11.7" height="11.7"></rect>
            <polyline id="Shape" fill="#DFECFD" points="56.8 94 58.6 94 58.6 105.7 46.9 105.7 46.9 94 48.9 94"></polyline>
            <polyline id="Shape" fill="#2767F4" points="85.7 55.3 86.7 55.3 86.7 67 75 67 75 55.3 80.2 55.3"></polyline>
            <rect id="Rectangle-path" fill="#2767F4" x="75" y="74.7" width="11.7" height="11.7"></rect>
            <rect id="Rectangle-path" fill="#2767F4" x="75" y="94" width="11.7" height="11.7"></rect>
            <rect id="Rectangle-path" fill="#2767F4" x="75" y="113.4" width="11.7" height="11.7"></rect>
            <path d="M117.9,27.2 C117.9,28.1 117.7,29 117.2,29.7 C116.4,30.8 115.2,31.4 113.8,31.4 L95,31.4 C94.4,31.4 93.9,31.3 93.4,31.1 C92.2,30.3 91.4,28.9 91.4,27.2 C91.4,27 91.4,26.8 91.4,26.6 C91.6,24.7 92.9,23.2 94.6,22.7 C94.6,22.6 94.6,22.5 94.6,22.4 C94.6,18.9 97.2,16 100.5,16 C102.6,16 104.5,17.2 105.5,19 C106.3,18.4 107.3,18.1 108.4,18.1 C110.9,18.1 113.1,20 113.6,22.5 C115.3,22.5 116.8,23.6 117.5,25.2 C117.8,25.9 117.9,26.5 117.9,27.2 Z" id="Shape" fill="#DFECFD"></path>
            <path d="M91.9,16.6 C91.9,17.1 91.8,17.5 91.6,17.9 C91.2,18.4 90.6,18.8 89.9,18.8 L80.3,18.8 C80,18.8 79.7,18.7 79.5,18.6 C78.9,18.2 78.5,17.5 78.5,16.6 C78.5,16.5 78.5,16.4 78.5,16.3 C78.6,15.3 79.3,14.5 80.1,14.3 C80.1,14.3 80.1,14.2 80.1,14.2 C80.1,12.4 81.5,10.9 83.1,10.9 C84.2,10.9 85.1,11.5 85.7,12.4 C86.1,12.1 86.6,11.9 87.2,11.9 C88.5,11.9 89.6,12.9 89.9,14.2 C90.8,14.2 91.5,14.8 91.9,15.6 C91.8,16 91.9,16.3 91.9,16.6 Z" id="Shape" fill="#DFECFD"></path>
        </g>
    </g>
</svg>