<?xml version="1.0" encoding="UTF-8"?>
<svg width="125px" height="150px" viewBox="0 0 125 150" version="1.1" xmlns="http://www.w3.org/2000/svg" xmlns:xlink="http://www.w3.org/1999/xlink">
    <!-- Generator: Sketch 51.2 (57519) - http://www.bohemiancoding.com/sketch -->
    <title>Enterprise</title>
    <desc>Created with Sketch.</desc>
    <defs></defs>
    <g id="Page-1" stroke="none" stroke-width="1" fill="none" fill-rule="evenodd">
        <g id="Enterprise" fill-rule="nonzero">
            <rect id="Rectangle-path" fill="#6097FD" x="37.8" y="30.1" width="43.8" height="119.7"></rect>
            <rect id="Rectangle-path" fill="#2767F4" x="52.6" y="125.8" width="14.2" height="24"></rect>
            <g id="Group" transform="translate(81.000000, 63.000000)">
                <rect id="Rectangle-path" fill="#4988FD" x="0.6" y="0.6" width="37.2" height="86.2"></rect>
                <rect id="Rectangle-path" fill="#2767F4" x="0.6" y="0.6" width="3.8" height="86.2"></rect>
                <path d="M30.2,13.2 L8.5,13.2 C7.7,13.2 7,12.5 7,11.7 C7,10.9 7.7,10.2 8.5,10.2 L30.2,10.2 C31,10.2 31.7,10.9 31.7,11.7 C31.7,12.6 31,13.2 30.2,13.2 Z" id="Shape" fill="#2767F4"></path>
                <path d="M30.2,23.7 L8.5,23.7 C7.7,23.7 7,23 7,22.2 C7,21.4 7.7,20.7 8.5,20.7 L30.2,20.7 C31,20.7 31.7,21.4 31.7,22.2 C31.7,23 31,23.7 30.2,23.7 Z" id="Shape" fill="#2767F4"></path>
                <path d="M30.2,34.2 L8.5,34.2 C7.7,34.2 7,33.5 7,32.7 C7,31.9 7.7,31.2 8.5,31.2 L30.2,31.2 C31,31.2 31.7,31.9 31.7,32.7 C31.7,33.5 31,34.2 30.2,34.2 Z" id="Shape" fill="#2767F4"></path>
                <path d="M30.2,44.7 L8.5,44.7 C7.7,44.7 7,44 7,43.2 C7,42.4 7.7,41.7 8.5,41.7 L30.2,41.7 C31,41.7 31.7,42.4 31.7,43.2 C31.7,44 31,44.7 30.2,44.7 Z" id="Shape" fill="#2767F4"></path>
                <path d="M30.2,55.2 L8.5,55.2 C7.7,55.2 7,54.5 7,53.7 C7,52.9 7.7,52.2 8.5,52.2 L30.2,52.2 C31,52.2 31.7,52.9 31.7,53.7 C31.7,54.5 31,55.2 30.2,55.2 Z" id="Shape" fill="#2767F4"></path>
                <path d="M30.2,65.6 L8.5,65.6 C7.7,65.6 7,64.9 7,64.1 C7,63.3 7.7,62.6 8.5,62.6 L30.2,62.6 C31,62.6 31.7,63.3 31.7,64.1 C31.7,64.9 31,65.6 30.2,65.6 Z" id="Shape" fill="#2767F4"></path>
            </g>
            <g id="Group" transform="translate(0.000000, 63.000000)">
                <rect id="Rectangle-path" fill="#4988FD" x="0.6" y="0.6" width="37.2" height="86.2"></rect>
                <rect id="Rectangle-path" fill="#2767F4" x="34.3" y="0.6" width="3.6" height="86.2"></rect>
                <path d="M30.2,13.2 L8.5,13.2 C7.7,13.2 7,12.5 7,11.7 C7,10.9 7.7,10.2 8.5,10.2 L30.2,10.2 C31,10.2 31.7,10.9 31.7,11.7 C31.8,12.6 31.1,13.2 30.2,13.2 Z" id="Shape" fill="#2767F4"></path>
                <path d="M30.2,23.7 L8.5,23.7 C7.7,23.7 7,23 7,22.2 C7,21.4 7.7,20.7 8.5,20.7 L30.2,20.7 C31,20.7 31.7,21.4 31.7,22.2 C31.8,23 31.1,23.7 30.2,23.7 Z" id="Shape" fill="#2767F4"></path>
                <path d="M30.2,34.2 L8.5,34.2 C7.7,34.2 7,33.5 7,32.7 C7,31.9 7.7,31.2 8.5,31.2 L30.2,31.2 C31,31.2 31.7,31.9 31.7,32.7 C31.8,33.5 31.1,34.2 30.2,34.2 Z" id="Shape" fill="#2767F4"></path>
                <path d="M30.2,44.7 L8.5,44.7 C7.7,44.7 7,44 7,43.2 C7,42.4 7.7,41.7 8.5,41.7 L30.2,41.7 C31,41.7 31.7,42.4 31.7,43.2 C31.8,44 31.1,44.7 30.2,44.7 Z" id="Shape" fill="#2767F4"></path>
                <path d="M30.2,55.2 L8.5,55.2 C7.7,55.2 7,54.5 7,53.7 C7,52.9 7.7,52.2 8.5,52.2 L30.2,52.2 C31,52.2 31.7,52.9 31.7,53.7 C31.7,54.5 31.1,55.2 30.2,55.2 Z" id="Shape" fill="#2767F4"></path>
                <path d="M30.2,65.6 L8.5,65.6 C7.7,65.6 7,64.9 7,64.1 C7,63.3 7.7,62.6 8.5,62.6 L30.2,62.6 C31,62.6 31.7,63.3 31.7,64.1 C31.7,64.9 31.1,65.6 30.2,65.6 Z" id="Shape" fill="#2767F4"></path>
            </g>
            <path d="M124.1,38.5 C124.1,39.3 123.9,40 123.5,40.6 C122.8,41.5 121.8,42.1 120.6,42.1 L104.5,42.1 C104,42.1 103.6,42 103.1,41.8 C102.1,41.1 101.4,39.9 101.4,38.5 C101.4,38.3 101.4,38.2 101.4,38 C101.6,36.4 102.7,35.1 104.1,34.7 C104.1,34.6 104.1,34.5 104.1,34.5 C104.1,31.5 106.4,29.1 109.1,29.1 C110.9,29.1 112.5,30.1 113.4,31.6 C114.1,31.1 115,30.8 115.9,30.8 C118.1,30.8 119.9,32.4 120.3,34.6 C121.8,34.6 123,35.5 123.6,36.9 C124,37.4 124.1,37.9 124.1,38.5 Z" id="Shape" fill="#DFECFD"></path>
            <path d="M26.7,26.7 C26.7,27.3 26.5,27.9 26.2,28.4 C25.6,29.1 24.8,29.6 23.9,29.6 L11,29.6 C10.6,29.6 10.2,29.5 9.9,29.4 C9.1,28.8 8.5,27.9 8.5,26.8 C8.5,26.7 8.5,26.5 8.5,26.4 C8.6,25.1 9.5,24 10.7,23.7 C10.7,23.6 10.7,23.6 10.7,23.5 C10.7,21.1 12.5,19.2 14.7,19.2 C16.1,19.2 17.4,20 18.1,21.2 C18.7,20.8 19.3,20.6 20.1,20.6 C21.8,20.6 23.3,21.9 23.7,23.6 C24.9,23.6 25.9,24.3 26.3,25.4 C26.6,25.8 26.7,26.2 26.7,26.7 Z" id="Shape" fill="#DFECFD"></path>
            <path d="M103.6,24.3 C103.6,24.8 103.5,25.2 103.2,25.6 C102.8,26.2 102.1,26.5 101.4,26.5 L91.3,26.5 C91,26.5 90.7,26.4 90.4,26.3 C89.8,25.9 89.3,25.1 89.3,24.2 C89.3,24.1 89.3,24 89.3,23.9 C89.4,22.9 90.1,22 91,21.8 C91,21.8 91,21.7 91,21.7 C91,19.8 92.4,18.3 94.2,18.3 C95.3,18.3 96.3,18.9 96.9,19.9 C97.3,19.6 97.9,19.4 98.5,19.4 C99.9,19.4 101,20.4 101.3,21.8 C102.2,21.8 103,22.4 103.4,23.2 C103.6,23.6 103.6,23.9 103.6,24.3 Z" id="Shape" fill="#DFECFD"></path>
            <path d="M63.7,3.8 C63.7,1.7 62,0 59.9,0 C57.8,0 56.1,1.7 56.1,3.8 C56.1,5.3 57,6.6 58.3,7.3 L58.3,19.6 C58.3,20.4 59,21.1 59.8,21.1 C60.6,21.1 61.3,20.4 61.3,19.6 L61.3,7.4 C62.7,6.8 63.7,5.4 63.7,3.8 Z" id="Shape" fill="#2767F4"></path>
            <path d="M77,30.2 L43.5,30.2 L43.5,25 C43.5,22.1 45.9,19.7 48.8,19.7 L71.7,19.7 C74.6,19.7 77,22.1 77,25 L77,30.2 Z" id="Shape" fill="#4988FD"></path>
            <path d="M74.2,44.1 L46.3,44.1 C45.5,44.1 44.8,43.4 44.8,42.6 C44.8,41.8 45.5,41.1 46.3,41.1 L74.2,41.1 C75,41.1 75.7,41.8 75.7,42.6 C75.7,43.4 75,44.1 74.2,44.1 Z" id="Shape" fill="#4988FD"></path>
            <path d="M74.2,51.8 L46.3,51.8 C45.5,51.8 44.8,51.1 44.8,50.3 C44.8,49.5 45.5,48.8 46.3,48.8 L74.2,48.8 C75,48.8 75.7,49.5 75.7,50.3 C75.7,51.1 75,51.8 74.2,51.8 Z" id="Shape" fill="#4988FD"></path>
            <path d="M74.2,59.5 L46.3,59.5 C45.5,59.5 44.8,58.8 44.8,58 C44.8,57.2 45.5,56.5 46.3,56.5 L74.2,56.5 C75,56.5 75.7,57.2 75.7,58 C75.7,58.8 75,59.5 74.2,59.5 Z" id="Shape" fill="#4988FD"></path>
            <path d="M74.2,67.2 L46.3,67.2 C45.5,67.2 44.8,66.5 44.8,65.7 C44.8,64.9 45.5,64.2 46.3,64.2 L74.2,64.2 C75,64.2 75.7,64.9 75.7,65.7 C75.7,66.5 75,67.2 74.2,67.2 Z" id="Shape" fill="#4988FD"></path>
            <path d="M74.2,74.9 L46.3,74.9 C45.5,74.9 44.8,74.2 44.8,73.4 C44.8,72.6 45.5,71.9 46.3,71.9 L74.2,71.9 C75,71.9 75.7,72.6 75.7,73.4 C75.7,74.2 75,74.9 74.2,74.9 Z" id="Shape" fill="#4988FD"></path>
            <path d="M74.2,82.5 L46.3,82.5 C45.5,82.5 44.8,81.8 44.8,81 C44.8,80.2 45.5,79.5 46.3,79.5 L74.2,79.5 C75,79.5 75.7,80.2 75.7,81 C75.7,81.8 75,82.5 74.2,82.5 Z" id="Shape" fill="#4988FD"></path>
            <path d="M74.2,90.2 L46.3,90.2 C45.5,90.2 44.8,89.5 44.8,88.7 C44.8,87.9 45.5,87.2 46.3,87.2 L74.2,87.2 C75,87.2 75.7,87.9 75.7,88.7 C75.7,89.5 75,90.2 74.2,90.2 Z" id="Shape" fill="#4988FD"></path>
            <path d="M74.2,97.9 L46.3,97.9 C45.5,97.9 44.8,97.2 44.8,96.4 C44.8,95.6 45.5,94.9 46.3,94.9 L74.2,94.9 C75,94.9 75.7,95.6 75.7,96.4 C75.7,97.2 75,97.9 74.2,97.9 Z" id="Shape" fill="#4988FD"></path>
            <path d="M74.2,105.6 L46.3,105.6 C45.5,105.6 44.8,104.9 44.8,104.1 C44.8,103.3 45.5,102.6 46.3,102.6 L74.2,102.6 C75,102.6 75.7,103.3 75.7,104.1 C75.7,104.9 75,105.6 74.2,105.6 Z" id="Shape" fill="#4988FD"></path>
            <path d="M74.2,113.3 L46.3,113.3 C45.5,113.3 44.8,112.6 44.8,111.8 C44.8,111 45.5,110.3 46.3,110.3 L74.2,110.3 C75,110.3 75.7,111 75.7,111.8 C75.7,112.6 75,113.3 74.2,113.3 Z" id="Shape" fill="#4988FD"></path>
        </g>
    </g>
</svg>