<?xml version="1.0" encoding="UTF-8"?>
<svg width="151px" height="144px" viewBox="0 0 151 144" version="1.1" xmlns="http://www.w3.org/2000/svg" xmlns:xlink="http://www.w3.org/1999/xlink">
    <!-- Generator: Sketch 51.2 (57519) - http://www.bohemiancoding.com/sketch -->
    <title>Exchange</title>
    <desc>Created with Sketch.</desc>
    <defs></defs>
    <g id="Page-1" stroke="none" stroke-width="1" fill="none" fill-rule="evenodd">
        <g id="Exchange" fill-rule="nonzero">
            <g id="Group" transform="translate(0.000000, 66.000000)">
                <g>
                    <circle id="Oval" fill="#6097FD" cx="30.7" cy="31.1" r="30.3"></circle>
                    <path d="M6.4,33.1 C5.6,33.1 4.9,32.4 4.9,31.6 L4.9,31.1 C4.9,28.2 5.4,25.4 6.3,22.8 C6.6,22 7.4,21.6 8.2,21.8 C9,22.1 9.4,22.9 9.2,23.7 C8.4,26.1 8,28.5 8,31.1 L8,31.5 C7.9,32.4 7.2,33.1 6.4,33.1 C6.4,33.1 6.4,33.1 6.4,33.1 Z" id="Shape" fill="#3973F4"></path>
                    <path d="M10.9,46.7 C10.4,46.7 10,46.5 9.7,46.1 C9,45.1 8.4,44.1 7.8,43 C7.4,42.2 7.7,41.3 8.5,40.9 C9.3,40.5 10.2,40.8 10.6,41.6 C11.1,42.5 11.6,43.5 12.3,44.3 C12.8,45 12.6,45.9 11.9,46.4 C11.5,46.6 11.2,46.7 10.9,46.7 Z" id="Shape" fill="#3973F4"></path>
                    <path d="M15.9,52 C15.6,52 15.2,51.9 15,51.7 C14.4,51.3 13.9,50.8 13.4,50.4 C12.8,49.8 12.7,48.9 13.3,48.2 C13.9,47.6 14.8,47.5 15.5,48.1 C16,48.5 16.4,48.9 16.9,49.3 C17.6,49.8 17.7,50.8 17.2,51.4 C16.9,51.8 16.4,52 15.9,52 Z" id="Shape" fill="#3973F4"></path>
                    <path d="M39.2,55.4 C38.6,55.4 38,55 37.8,54.4 C37.5,53.6 37.9,52.7 38.7,52.4 C44.4,50.3 49.1,45.8 51.5,40.3 C51.8,39.5 52.7,39.2 53.5,39.5 C54.3,39.8 54.6,40.7 54.3,41.5 C51.5,47.8 46.2,52.8 39.7,55.3 C39.6,55.4 39.4,55.4 39.2,55.4 Z" id="Shape" fill="#3973F4"></path>
                    <path d="M54.2,26.4 C53.5,26.4 52.9,25.9 52.7,25.3 C50.7,17.6 44.7,11.5 37.1,9.3 C36.3,9.1 35.8,8.2 36.1,7.4 C36.3,6.6 37.2,6.1 38,6.4 C46.6,8.9 53.4,15.9 55.7,24.6 C55.9,25.4 55.4,26.3 54.6,26.5 C54.4,26.4 54.3,26.4 54.2,26.4 Z" id="Shape" fill="#3973F4"></path>
                </g>
                <path d="M30.4,16.5 C31.4,16.5 32.3,17.3 32.3,18.4 L32.3,18.9 C34.2,19.2 36,19.8 37.5,20.6 C38.2,21 38.8,21.7 38.8,22.7 C38.8,24.1 37.7,25.1 36.4,25.1 C36,25.1 35.5,25 35.1,24.8 C34.1,24.3 33.1,23.8 32.1,23.6 L32.1,29 C37.5,30.5 39.9,32.7 39.9,36.7 C39.9,40.7 36.8,43.3 32.3,43.8 L32.3,45.7 C32.3,46.7 31.5,47.6 30.4,47.6 C29.4,47.6 28.5,46.8 28.5,45.7 L28.5,43.8 C26,43.5 23.6,42.6 21.4,41.3 C20.6,40.8 20.2,40.1 20.2,39.2 C20.2,37.8 21.3,36.8 22.7,36.8 C23.2,36.8 23.7,37 24.1,37.3 C25.6,38.3 27,38.9 28.7,39.3 L28.7,33.6 C23.5,32.2 21,30.2 21,26 C21,22.1 24,19.4 28.5,18.9 L28.5,18.5 C28.5,17.3 29.3,16.5 30.4,16.5 Z M28.7,28.1 L28.7,23.3 C27,23.6 26.2,24.4 26.2,25.6 C26.2,26.6 26.7,27.4 28.7,28.1 Z M32,34.4 L32,39.4 C33.7,39.1 34.5,38.4 34.5,37.1 C34.6,35.8 34,35.1 32,34.4 Z" id="Shape" fill="#FFFFFF"></path>
            </g>
            <g id="Group" transform="translate(91.000000, 16.000000)">
                <g>
                    <circle id="Oval" fill="#6097FD" cx="29.8" cy="30.6" r="29.7"></circle>
                    <path d="M5.9,32.6 C5.1,32.6 4.4,31.9 4.4,31.1 L4.4,30.6 C4.4,27.8 4.9,25 5.8,22.4 C6.1,21.6 6.9,21.2 7.7,21.4 C8.5,21.7 8.9,22.5 8.7,23.3 C7.9,25.6 7.5,28 7.5,30.5 L7.5,30.9 C7.5,31.9 6.8,32.6 5.9,32.6 C5.9,32.6 5.9,32.6 5.9,32.6 Z" id="Shape" fill="#3973F4"></path>
                    <path d="M10,45.4 C9.5,45.4 9,45.2 8.7,44.7 C8,43.6 7.3,42.5 6.8,41.3 C6.4,40.5 6.8,39.6 7.5,39.3 C8.3,38.9 9.2,39.3 9.5,40 C10,41 10.6,42 11.2,43 C11.7,43.7 11.5,44.7 10.8,45.1 C10.5,45.3 10.3,45.4 10,45.4 Z" id="Shape" fill="#3973F4"></path>
                    <path d="M15.3,51.1 C15,51.1 14.6,51 14.4,50.8 C13.9,50.4 13.3,49.9 12.8,49.5 C12.2,48.9 12.1,48 12.7,47.3 C13.3,46.7 14.2,46.6 14.9,47.2 C15.4,47.6 15.8,48 16.3,48.4 C17,48.9 17.1,49.9 16.6,50.5 C16.2,50.9 15.8,51.1 15.3,51.1 Z" id="Shape" fill="#3973F4"></path>
                    <path d="M38.1,54.5 C37.5,54.5 36.9,54.1 36.7,53.5 C36.4,52.7 36.8,51.8 37.6,51.5 C43.2,49.4 47.8,45.1 50.2,39.6 C50.5,38.8 51.4,38.5 52.2,38.8 C53,39.1 53.3,40 53,40.8 C50.3,47 45,51.9 38.7,54.3 C38.5,54.4 38.3,54.5 38.1,54.5 Z" id="Shape" fill="#3973F4"></path>
                    <path d="M52.8,26 C52.1,26 51.5,25.5 51.3,24.9 C49.3,17.4 43.4,11.4 36,9.2 C35.2,9 34.7,8.1 35,7.3 C35.2,6.5 36.1,6 36.9,6.3 C45.4,8.8 52.1,15.6 54.3,24.2 C54.5,25 54,25.9 53.2,26.1 C53.1,26 52.9,26 52.8,26 Z" id="Shape" fill="#3973F4"></path>
                </g>
                <path d="M38.7,39.7 C36.7,42.1 34.3,43.6 30.7,43.6 C25.2,43.6 21.5,40.3 20,35.4 L18.3,35.4 C17.3,35.4 16.5,34.6 16.5,33.6 C16.5,32.6 17.3,31.8 18.3,31.8 L19.4,31.8 C19.4,31.4 19.4,31.1 19.4,30.7 C19.4,30.3 19.4,29.8 19.4,29.4 L18.3,29.4 C17.3,29.4 16.5,28.6 16.5,27.6 C16.5,26.6 17.3,25.8 18.3,25.8 L20.1,25.8 C21.6,21.1 25.2,17.7 30.6,17.7 C34.3,17.7 36.6,19 38.4,21 C38.8,21.4 39.2,22 39.2,22.9 C39.2,24.3 38,25.5 36.5,25.5 C35.6,25.5 35,25.1 34.6,24.7 C33.4,23.4 32.2,22.7 30.5,22.7 C28.4,22.7 26.8,23.9 25.9,25.9 L30.9,25.9 C31.9,25.9 32.7,26.7 32.7,27.7 C32.7,28.7 31.9,29.5 30.9,29.5 L25,29.5 C25,29.9 25,30.3 25,30.8 C25,31.3 25,31.6 25,32 L30.9,32 C31.9,32 32.7,32.8 32.7,33.8 C32.7,34.8 31.9,35.6 30.9,35.6 L25.8,35.6 C26.7,37.7 28.4,38.9 30.7,38.9 C32.5,38.9 33.6,38.1 34.9,36.7 C35.3,36.2 35.9,35.8 36.8,35.8 C38.2,35.8 39.3,36.9 39.3,38.3 C39.2,38.7 38.9,39.4 38.7,39.7 Z" id="Shape" fill="#FFFFFF"></path>
            </g>
            <g id="Group" transform="translate(15.000000, 0.000000)" fill="#4988FD">
                <path d="M60.5,19.5 C59.1,20.9 59.1,23.2 60.5,24.6 C61.2,25.3 62.1,25.6 63,25.6 C63.9,25.6 64.8,25.3 65.5,24.6 L74.6,15.5 C75.3,14.8 75.6,13.9 75.6,13 C75.6,12.2 75.3,11.4 74.8,10.7 C74.8,10.7 74.8,10.7 74.8,10.7 C74.7,10.6 74.7,10.5 74.6,10.5 L65.5,1.4 C64.1,0 61.8,0 60.4,1.4 C59,2.8 59,5.1 60.4,6.5 L63.3,9.4 C52.6,9.9 41.7,13 31.7,18.4 C18.2,25.7 7.3,36.7 1,49.3 C0.1,51.1 0.8,53.2 2.6,54.1 C3.1,54.4 3.7,54.5 4.2,54.5 C5.5,54.5 6.8,53.8 7.4,52.5 C13,41.2 22.9,31.3 35.1,24.7 C44.1,19.8 54,17.1 63.6,16.5 L60.5,19.5 Z" id="Shape"></path>
                <path d="M118.3,89.8 C116.5,88.9 114.4,89.6 113.5,91.4 C107.9,102.7 98,112.6 85.8,119.2 C76.8,124.1 66.9,126.8 57.3,127.4 L60.5,124.2 C61.9,122.8 61.9,120.5 60.5,119.1 C59.1,117.7 56.8,117.7 55.4,119.1 L46.3,128.2 C46.2,128.3 46.2,128.4 46.1,128.5 C46.1,128.5 46.1,128.5 46.1,128.5 C45.6,129.1 45.3,129.9 45.3,130.7 C45.3,131.5 45.6,132.3 46.1,133 C46.1,133 46.1,133 46.1,133 C46.2,133.1 46.2,133.2 46.3,133.2 L55.4,142.3 C56.1,143 57,143.3 57.9,143.3 C58.8,143.3 59.7,143 60.4,142.3 C61.8,140.9 61.8,138.6 60.4,137.2 L57.5,134.3 C68.2,133.8 79.1,130.7 89.1,125.3 C102.6,118 113.5,107 119.8,94.4 C120.8,92.9 120.1,90.7 118.3,89.8 Z" id="Shape"></path>
            </g>
        </g>
    </g>
</svg>