<?xml version="1.0" encoding="UTF-8"?>
<svg width="147px" height="123px" viewBox="0 0 147 123" version="1.1" xmlns="http://www.w3.org/2000/svg" xmlns:xlink="http://www.w3.org/1999/xlink">
    <!-- Generator: Sketch 51.2 (57519) - http://www.bohemiancoding.com/sketch -->
    <title>File_2</title>
    <desc>Created with Sketch.</desc>
    <defs></defs>
    <g id="Page-1" stroke="none" stroke-width="1" fill="none" fill-rule="evenodd">
        <g id="File_2" fill-rule="nonzero">
            <path d="M118,16.5 L76.5,16.5 L76.5,0.8 L130.9,0.8 C131,0.8 131.1,0.8 131.2,0.8 C139.7,1 146.6,8 146.6,16.5 L128.6,16.5" id="Shape" fill="#C5DCFA"></path>
            <path d="M132.4,0.8 C129.2,1 126.2,2.3 124.1,4.5 C123.9,4.7 123.7,4.9 123.5,5.2 C121.6,7.4 120.2,10.3 120.2,13.4 L120.2,106.8 C120.2,115.5 113.2,122.5 104.5,122.5 L28.2,122.5 L28.2,12.7 C28.4,9.5 29.6,6.6 31.7,4.5 C34,2.2 37.1,0.8 40.6,0.8 L117.5,0.8 C117.5,0.8 117.5,0.8 117.5,0.8 L132.1,0.8 C132.1,0.8 132.2,0.8 132.4,0.8 Z" id="Shape" fill="#DFECFD"></path>
            <path d="M105,22.2 L82.3,22.2 C81.5,22.2 80.8,21.5 80.8,20.7 C80.8,19.9 81.5,19.2 82.3,19.2 L105,19.2 C105.8,19.2 106.5,19.9 106.5,20.7 C106.5,21.5 105.9,22.2 105,22.2 Z" id="Shape" fill="#4988FD"></path>
            <path d="M71.6,22.2 L42,22.2 C41.2,22.2 40.5,21.5 40.5,20.7 C40.5,19.9 41.2,19.2 42,19.2 L71.7,19.2 C72.5,19.2 73.2,19.9 73.2,20.7 C73.2,21.5 72.5,22.2 71.6,22.2 Z" id="Shape" fill="#4988FD"></path>
            <path d="M90.6,37 L61.1,37 C60.3,37 59.6,36.3 59.6,35.5 C59.6,34.7 60.3,34 61.1,34 L90.6,34 C91.4,34 92.1,34.7 92.1,35.5 C92.1,36.3 91.5,37 90.6,37 Z" id="Shape" fill="#4988FD"></path>
            <path d="M51.6,37 L42,37 C41.2,37 40.5,36.3 40.5,35.5 C40.5,34.7 41.2,34 42,34 L51.6,34 C52.4,34 53.1,34.7 53.1,35.5 C53.1,36.3 52.4,37 51.6,37 Z" id="Shape" fill="#C5DCFA"></path>
            <path d="M105,51.8 L86.9,51.8 C86.1,51.8 85.4,51.1 85.4,50.3 C85.4,49.5 86.1,48.8 86.9,48.8 L105,48.8 C105.8,48.8 106.5,49.5 106.5,50.3 C106.5,51.1 105.9,51.8 105,51.8 Z" id="Shape" fill="#C5DCFA"></path>
            <path d="M78.2,51.8 L42,51.8 C41.2,51.8 40.5,51.1 40.5,50.3 C40.5,49.5 41.2,48.8 42,48.8 L78.2,48.8 C79,48.8 79.7,49.5 79.7,50.3 C79.7,51.1 79.1,51.8 78.2,51.8 Z" id="Shape" fill="#4988FD"></path>
            <path d="M90.6,66.6 L70.7,66.6 C69.9,66.6 69.2,65.9 69.2,65.1 C69.2,64.3 69.9,63.6 70.7,63.6 L90.6,63.6 C91.4,63.6 92.1,64.3 92.1,65.1 C92.1,65.9 91.5,66.6 90.6,66.6 Z" id="Shape" fill="#4988FD"></path>
            <path d="M62,66.6 L42,66.6 C41.2,66.6 40.5,65.9 40.5,65.1 C40.5,64.3 41.2,63.6 42,63.6 L62.1,63.6 C62.9,63.6 63.6,64.3 63.6,65.1 C63.6,65.9 62.9,66.6 62,66.6 Z" id="Shape" fill="#C5DCFA"></path>
            <path d="M105,81.4 L91.1,81.4 C90.3,81.4 89.6,80.7 89.6,79.9 C89.6,79.1 90.3,78.4 91.1,78.4 L105,78.4 C105.8,78.4 106.5,79.1 106.5,79.9 C106.5,80.7 105.9,81.4 105,81.4 Z" id="Shape" fill="#4988FD"></path>
            <path d="M82.1,81.4 L58.8,81.4 C58,81.4 57.3,80.7 57.3,79.9 C57.3,79.1 58,78.4 58.8,78.4 L82.1,78.4 C82.9,78.4 83.6,79.1 83.6,79.9 C83.6,80.7 82.9,81.4 82.1,81.4 Z" id="Shape" fill="#C5DCFA"></path>
            <path d="M50.1,81.4 L42,81.4 C41.2,81.4 40.5,80.7 40.5,79.9 C40.5,79.1 41.2,78.4 42,78.4 L50.1,78.4 C50.9,78.4 51.6,79.1 51.6,79.9 C51.6,80.7 50.9,81.4 50.1,81.4 Z" id="Shape" fill="#4988FD"></path>
            <path d="M90.6,96.2 L76.8,96.2 C76,96.2 75.3,95.5 75.3,94.7 C75.3,93.9 76,93.2 76.8,93.2 L90.6,93.2 C91.4,93.2 92.1,93.9 92.1,94.7 C92.1,95.5 91.5,96.2 90.6,96.2 Z" id="Shape" fill="#4988FD"></path>
            <path d="M67.7,96.2 L42,96.2 C41.2,96.2 40.5,95.5 40.5,94.7 C40.5,93.9 41.2,93.2 42,93.2 L67.7,93.2 C68.5,93.2 69.2,93.9 69.2,94.7 C69.2,95.5 68.5,96.2 67.7,96.2 Z" id="Shape" fill="#C5DCFA"></path>
            <path d="M70.9,110.1 L91.1,110.1 C91.1,113.5 92.5,116.6 94.7,118.8 C96.9,121.1 100,122.4 103.4,122.4 L12.5,122.4 C9.1,122.4 6,121 3.8,118.8 C1.6,116.6 0.2,113.5 0.2,110.1 L60,110.1 C60,110.1 71.1,110.2 70.9,110.1 Z" id="Shape" fill="#C5DCFA"></path>
        </g>
    </g>
</svg>