<?xml version="1.0" encoding="UTF-8"?>
<svg width="123px" height="126px" viewBox="0 0 123 126" version="1.1" xmlns="http://www.w3.org/2000/svg" xmlns:xlink="http://www.w3.org/1999/xlink">
    <!-- Generator: Sketch 51.2 (57519) - http://www.bohemiancoding.com/sketch -->
    <title>File</title>
    <desc>Created with Sketch.</desc>
    <defs></defs>
    <g id="Page-1" stroke="none" stroke-width="1" fill="none" fill-rule="evenodd">
        <g id="File" fill-rule="nonzero">
            <path d="M118.2,0.1 L32.1,0.1 C29.8,0.1 27.9,2 27.9,4.3 L27.9,125.3 L106.2,125.3 C115.1,125.3 122.4,118.1 122.4,109.1 L122.4,4.3 C122.4,2 120.5,0.1 118.2,0.1 Z" id="Shape" fill="#DFECFD"></path>
            <path d="M73.1,112.6 L93.8,112.6 C93.8,116.1 95.2,119.3 97.5,121.6 C99.8,123.9 103,125.3 106.5,125.3 L13.1,125.3 C9.6,125.3 6.4,123.9 4.1,121.6 C1.8,119.3 0.4,116.1 0.4,112.6 L61.8,112.6 C61.8,112.6 73.2,112.7 73.1,112.6 Z" id="Shape" fill="#C5DCFA"></path>
            <path d="M106.9,22.2 L84.4,22.2 C83.6,22.2 82.9,21.5 82.9,20.7 C82.9,19.9 83.6,19.2 84.4,19.2 L106.9,19.2 C107.7,19.2 108.4,19.9 108.4,20.7 C108.4,21.5 107.8,22.2 106.9,22.2 Z" id="Shape" fill="#4988FD"></path>
            <path d="M73.9,22.2 L44.5,22.2 C43.7,22.2 43,21.5 43,20.7 C43,19.9 43.7,19.2 44.5,19.2 L73.9,19.2 C74.7,19.2 75.4,19.9 75.4,20.7 C75.4,21.5 74.7,22.2 73.9,22.2 Z" id="Shape" fill="#4988FD"></path>
            <path d="M92.7,36.9 L63.5,36.9 C62.7,36.9 62,36.2 62,35.4 C62,34.6 62.7,33.9 63.5,33.9 L92.7,33.9 C93.5,33.9 94.2,34.6 94.2,35.4 C94.2,36.2 93.5,36.9 92.7,36.9 Z" id="Shape" fill="#4988FD"></path>
            <path d="M54.1,36.9 L44.6,36.9 C43.8,36.9 43.1,36.2 43.1,35.4 C43.1,34.6 43.8,33.9 44.6,33.9 L54.1,33.9 C54.9,33.9 55.6,34.6 55.6,35.4 C55.6,36.2 54.9,36.9 54.1,36.9 Z" id="Shape" fill="#C5DCFA"></path>
            <path d="M106.9,51.5 L88.9,51.5 C88.1,51.5 87.4,50.8 87.4,50 C87.4,49.2 88.1,48.5 88.9,48.5 L106.9,48.5 C107.7,48.5 108.4,49.2 108.4,50 C108.4,50.8 107.8,51.5 106.9,51.5 Z" id="Shape" fill="#C5DCFA"></path>
            <path d="M80.4,51.5 L44.5,51.5 C43.7,51.5 43,50.8 43,50 C43,49.2 43.7,48.5 44.5,48.5 L80.4,48.5 C81.2,48.5 81.9,49.2 81.9,50 C81.9,50.8 81.2,51.5 80.4,51.5 Z" id="Shape" fill="#4988FD"></path>
            <path d="M92.7,66.2 L73,66.2 C72.2,66.2 71.5,65.5 71.5,64.7 C71.5,63.9 72.2,63.2 73,63.2 L92.7,63.2 C93.5,63.2 94.2,63.9 94.2,64.7 C94.2,65.5 93.5,66.2 92.7,66.2 Z" id="Shape" fill="#4988FD"></path>
            <path d="M64.4,66.2 L44.5,66.2 C43.7,66.2 43,65.5 43,64.7 C43,63.9 43.7,63.2 44.5,63.2 L64.4,63.2 C65.2,63.2 65.9,63.9 65.9,64.7 C65.9,65.5 65.2,66.2 64.4,66.2 Z" id="Shape" fill="#C5DCFA"></path>
            <path d="M106.9,80.8 L93.1,80.8 C92.3,80.8 91.6,80.1 91.6,79.3 C91.6,78.5 92.3,77.8 93.1,77.8 L106.9,77.8 C107.7,77.8 108.4,78.5 108.4,79.3 C108.4,80.1 107.8,80.8 106.9,80.8 Z" id="Shape" fill="#4988FD"></path>
            <path d="M84.2,80.8 L61.1,80.8 C60.3,80.8 59.6,80.1 59.6,79.3 C59.6,78.5 60.3,77.8 61.1,77.8 L84.2,77.8 C85,77.8 85.7,78.5 85.7,79.3 C85.7,80.1 85,80.8 84.2,80.8 Z" id="Shape" fill="#C5DCFA"></path>
            <path d="M52.6,80.8 L44.6,80.8 C43.8,80.8 43.1,80.1 43.1,79.3 C43.1,78.5 43.8,77.8 44.6,77.8 L52.6,77.8 C53.4,77.8 54.1,78.5 54.1,79.3 C54.1,80.1 53.4,80.8 52.6,80.8 Z" id="Shape" fill="#4988FD"></path>
            <path d="M92.7,95.4 L79,95.4 C78.2,95.4 77.5,94.7 77.5,93.9 C77.5,93.1 78.2,92.4 79,92.4 L92.7,92.4 C93.5,92.4 94.2,93.1 94.2,93.9 C94.2,94.7 93.5,95.4 92.7,95.4 Z" id="Shape" fill="#4988FD"></path>
            <path d="M70,95.4 L44.6,95.4 C43.8,95.4 43.1,94.7 43.1,93.9 C43.1,93.1 43.8,92.4 44.6,92.4 L70,92.4 C70.8,92.4 71.5,93.1 71.5,93.9 C71.5,94.7 70.8,95.4 70,95.4 Z" id="Shape" fill="#C5DCFA"></path>
        </g>
    </g>
</svg>