<?xml version="1.0" encoding="UTF-8"?>
<svg width="148px" height="137px" viewBox="0 0 148 137" version="1.1" xmlns="http://www.w3.org/2000/svg" xmlns:xlink="http://www.w3.org/1999/xlink">
    <!-- Generator: Sketch 51.2 (57519) - http://www.bohemiancoding.com/sketch -->
    <title>Filter</title>
    <desc>Created with Sketch.</desc>
    <defs></defs>
    <g id="Page-1" stroke="none" stroke-width="1" fill="none" fill-rule="evenodd">
        <g id="Filter" fill-rule="nonzero">
            <path d="M148,10.1 L87.7,70.3 L87.7,132.6 C87.7,135.5 84.4,137.2 82,135.4 L65.2,122.5 C62.7,120.6 61.2,117.6 61.2,114.4 L61.2,70.3 L0.9,10.1" id="Shape" fill="#FFFFFF"></path>
            <path d="M147.6,10.1 C147.5,10.4 147.4,10.7 147.1,11 L146.8,11.3 C146.8,11.3 146.8,11.3 146.8,11.3 L112.3,45.8 L87.8,70.3 L87.8,132.6 C87.8,135.5 84.5,137.2 82.1,135.4 L65.3,122.5 C62.8,120.6 61.3,117.6 61.3,114.4 L61.3,70.3 L35.9,44.9 L2.4,11.4 L1.9,10.9 C1.9,10.9 1.8,10.8 1.8,10.8 C1.6,10.6 1.5,10.3 1.4,10.1 L147.6,10.1 Z" id="Shape" fill="#4988FD"></path>
            <path d="M131.7,26 L87.8,70.3 L87.8,132.6 C87.8,135.5 84.5,137.2 82.1,135.4 L65.3,122.5 C62.8,120.6 61.3,117.6 61.3,114.4 L61.3,70.3 L42,50.1 C73.9,66.7 116.6,42.9 131.7,26 Z" id="Shape" fill="#3973F4"></path>
            <path d="M147.6,9.8 C147.6,9.9 147.6,10 147.6,10.1 C147.5,10.4 147.4,10.7 147.1,11 L146.8,11.3 C146.8,11.3 146.8,11.3 146.8,11.3 C141.4,16 111.1,19.6 74.5,19.6 C38.2,19.6 8.1,16.1 2.4,11.4 C2.2,11.2 2,11 1.9,10.9 C1.9,10.9 1.8,10.8 1.8,10.8 C1.6,10.6 1.5,10.3 1.4,10.1 C1.4,10 1.4,9.9 1.4,9.8 C1.4,4.4 34.1,0 74.5,0 C114.9,0 147.6,4.4 147.6,9.8 Z" id="Shape" fill="#3973F4"></path>
        </g>
    </g>
</svg>