<?xml version="1.0" encoding="UTF-8"?>
<svg width="97px" height="124px" viewBox="0 0 97 124" version="1.1" xmlns="http://www.w3.org/2000/svg" xmlns:xlink="http://www.w3.org/1999/xlink">
    <!-- Generator: Sketch 51.2 (57519) - http://www.bohemiancoding.com/sketch -->
    <title>Fire</title>
    <desc>Created with Sketch.</desc>
    <defs></defs>
    <g id="Page-1" stroke="none" stroke-width="1" fill="none" fill-rule="evenodd">
        <g id="Fire" fill-rule="nonzero">
            <path d="M95.4,63.1 C94.5,58.4 93.2,53.8 91.5,49.3 C88.4,41.1 84.2,33.4 78.9,26 C77,23.4 74.9,20.8 71.8,19.2 C73,27.3 72.1,34.7 67,41.2 C67,41.2 67,41.2 67,41.2 C66.7,41.5 66.5,41.8 66.2,42.2 C65.8,40.5 65.4,38.8 64.9,37.2 C62.5,29.6 58.9,22.9 54.2,16.8 C48.4,9.3 41.4,3.4 32.5,2.27373675e-13 C32.4,0.4 32.4,0.6 32.4,0.8 C33.5,10.4 31.9,19.5 27.3,27.8 C22.9,35.8 18,43.6 12.9,51.2 C6.4,60.9 1.9,71.3 0.9,83 C-0.2,95.5 2.5,106.6 12,115.2 C13.8,116.8 15.7,118.2 17.8,119.5 C20.7,121.2 23.8,122.6 27.1,123.6 C26.9,123.2 26.8,123 26.7,122.8 C21,116.4 19.7,108.9 21.4,100.6 C23,93 26.5,86.4 30.7,80.2 C34.6,74.4 38.2,68.4 39.2,61.2 C39.5,58.7 39.5,56 39.6,53.2 C47.4,57 52.3,63 55.5,70.4 C56.6,72.9 57.6,75.7 58.4,78.5 C58.9,77.9 59.3,77.3 59.7,76.7 C61.9,73.1 62,69.1 61.5,64.6 C66.4,68.7 70,73.3 72.6,78.6 C74.3,82 75.5,85.6 76.4,89.5 C77.1,92.5 77.3,95.3 77.3,98.1 C77.2,107.6 73.2,115.9 66.2,123.3 C66.1,123.4 65.9,123.6 65.8,123.7 C65.9,123.7 66,123.6 66.1,123.6 C68.2,122.6 70.4,121.6 72.4,120.5 C74.5,119.3 76.5,118 78.3,116.7 C90.1,108 96.6,95.8 96.9,79.8 C96.9,73.9 96.4,68.4 95.4,63.1 Z" id="Shape" fill="#4988FD"></path>
            <path d="M26.9,71.4 C31.7,69.1 35.4,67.3 38.2,65.9 C36.6,71.1 33.8,75.7 30.8,80.1 C26.6,86.4 23,93 21.5,100.5 C19.8,108.8 21.1,116.3 26.8,122.7 C26.9,122.8 27,123.1 27.2,123.5 C23.8,122.5 20.7,121.1 17.9,119.4 C17.6,119.2 17.4,119 17.1,118.8 C11.7,114.3 8.4,108.9 6.9,103 C5.8,92 8.5,80.1 26.9,71.4 Z" id="Shape" fill="#3973F4"></path>
            <path d="M96.8,79.6 C96.5,95.6 90,107.8 78.2,116.5 C76.4,117.9 74.4,119.2 72.3,120.3 C70.3,121.5 68.1,122.4 66,123.4 C66,123.3 66.1,123.2 66.1,123.1 C73.1,115.7 77.1,107.5 77.2,97.9 C85.6,88.3 92.1,77.4 95.4,63 C96.4,68.4 96.9,73.9 96.8,79.6 Z" id="Shape" fill="#3973F4"></path>
        </g>
    </g>
</svg>