<?xml version="1.0" encoding="UTF-8"?>
<svg width="151px" height="141px" viewBox="0 0 151 141" version="1.1" xmlns="http://www.w3.org/2000/svg" xmlns:xlink="http://www.w3.org/1999/xlink">
    <!-- Generator: Sketch 51.2 (57519) - http://www.bohemiancoding.com/sketch -->
    <title>Fit</title>
    <desc>Created with Sketch.</desc>
    <defs></defs>
    <g id="Page-1" stroke="none" stroke-width="1" fill="none" fill-rule="evenodd">
        <g id="Fit" fill-rule="nonzero">
            <path d="M150.1,0.7 C147.8,7.1 146.1,11.9 144.1,15.4 C144.1,15.4 144.1,15.5 144.1,15.5 C144,15.8 143.8,16 143.7,16.2 C143.7,16.2 143.7,16.2 143.7,16.2 C143.3,16.9 142.9,17.5 142.5,18 C141.2,19.6 139.8,20.8 138.1,21.5 L138.3,21.5 C137.9,21.6 138,21.5 137.9,21.6 L137.8,21.6 C137.7,22.5 137.5,23.3 137.4,24.2 C127.1,94.2 125,100.1 127.7,109.3 C133.4,129.2 137,130.1 112.8,135.7 C98.8,139 86.2,140.3 75.1,140.3 C46.5,140.5 27.7,132.6 19.3,129.8 C18.6,124.8 20.2,120.6 21.8,115.3 C27.4,96.9 24.8,102.8 13.2,24.2 C13.1,23.3 12.9,22.4 12.8,21.5 L12.7,21.5 C11.1,20.9 9.7,19.9 8.5,18.5 C5.5,15.1 3.5,9.4 0.4,0.6 L150.1,0.6 L150.1,0.7 Z" id="Shape" fill="#D5E6FD"></path>
            <path d="M24.6,21.8 C24.6,22 24.7,22.2 24.7,22.4 C24.1,22 23.4,21.5 22.9,20.9 C22.8,20.8 22.8,20.7 22.7,20.7 C23.3,21.1 23.9,21.5 24.6,21.8 Z" id="Shape" fill="#BAD8FF"></path>
            <path d="M150.1,0.7 C147.8,7.1 146.1,11.9 144.1,15.4 C144.1,15.4 144.1,15.5 144.1,15.5 C143.9,15.8 143.8,16 143.7,16.2 C143.7,16.2 143.7,16.2 143.7,16.2 C142.1,18.8 140.4,20.5 138,21.5 L138.2,21.5 C137.8,21.6 137.9,21.5 137.8,21.6 L137.7,21.6 C127.1,94.1 124.9,100 127.6,109.3 C133.3,129.2 136.9,130.1 112.7,135.7 C98.7,139 86.1,140.3 75,140.3 C82.1,139.7 90,138.8 98.1,136.7 C119.9,131 116.6,130.2 111.5,110.1 C109.1,100.7 111,94.8 120.6,21.7 L120.7,21.7 C120.9,21.6 120.7,21.7 121.1,21.6 L120.9,21.6 C124.6,19.9 129.1,16.2 129.1,8.8 C129.1,4.9 124.6,1.3 121,0.7 L150.1,0.7 Z" id="Shape" fill="#BAD8FF"></path>
            <path d="M75.1,114 C73.7,114 72.6,112.9 72.6,111.5 L72.6,50.1 C72.6,48.7 73.7,47.6 75.1,47.6 C76.5,47.6 77.6,48.7 77.6,50.1 L77.6,111.5 C77.6,112.9 76.4,114 75.1,114 Z" id="Shape" fill="#BAD8FF"></path>
            <path d="M67.2,109.9 C61.5,109.9 55.7,108.5 52.5,107 C51.2,106.4 50.7,104.9 51.3,103.7 C51.9,102.4 53.4,101.9 54.6,102.5 C58.9,104.5 68.4,106.1 74.5,103.8 C75.8,103.3 77.2,104 77.7,105.2 C78.2,106.5 77.5,107.9 76.3,108.4 C73.5,109.5 70.4,109.9 67.2,109.9 Z" id="Shape" fill="#BAD8FF"></path>
            <path d="M67.2,90.5 C61.5,90.5 55.7,89.1 52.5,87.6 C51.2,87 50.7,85.5 51.3,84.3 C51.9,83 53.4,82.5 54.6,83.1 C58.9,85.1 68.4,86.7 74.5,84.4 C75.8,83.9 77.2,84.6 77.7,85.8 C78.2,87.1 77.5,88.5 76.3,89 C73.5,90.1 70.4,90.5 67.2,90.5 Z" id="Shape" fill="#BAD8FF"></path>
            <path d="M67.3,71.4 C61.9,71.4 56.5,70.2 53.5,68.9 C52.2,68.4 51.6,66.9 52.1,65.7 C52.6,64.4 54.1,63.8 55.3,64.3 C59.7,66.1 68.6,67.5 74.5,65.3 C75.8,64.8 77.2,65.5 77.7,66.7 C78.2,68 77.5,69.4 76.3,69.9 C73.5,71 70.4,71.4 67.3,71.4 Z" id="Shape" fill="#BAD8FF"></path>
            <path d="M84.5,109.9 C81.3,109.9 78.2,109.5 75.5,108.4 C74.2,107.9 73.6,106.5 74.1,105.2 C74.6,103.9 76,103.3 77.3,103.8 C83.3,106.1 92.9,104.5 97.2,102.5 C98.5,101.9 99.9,102.5 100.5,103.7 C101.1,105 100.5,106.4 99.3,107 C96,108.6 90.3,109.9 84.5,109.9 Z" id="Shape" fill="#BAD8FF"></path>
            <path d="M84.5,90.5 C81.3,90.5 78.2,90.1 75.5,89 C74.2,88.5 73.6,87.1 74.1,85.8 C74.6,84.5 76,83.9 77.3,84.4 C83.3,86.7 92.9,85.1 97.2,83.1 C98.5,82.5 99.9,83.1 100.5,84.3 C101.1,85.6 100.5,87 99.3,87.6 C96,89.1 90.3,90.5 84.5,90.5 Z" id="Shape" fill="#BAD8FF"></path>
            <path d="M84.5,71.4 C81.4,71.4 78.3,71 75.5,70 C74.2,69.5 73.6,68.1 74.1,66.8 C74.6,65.5 76,64.9 77.3,65.4 C83.2,67.6 92.1,66.2 96.5,64.4 C97.8,63.9 99.2,64.5 99.7,65.8 C100.2,67.1 99.6,68.5 98.3,69 C95.2,70.1 89.9,71.4 84.5,71.4 Z" id="Shape" fill="#BAD8FF"></path>
            <path d="M116,73.3 C115.5,73.3 115,73.1 114.6,72.7 C110.4,68.5 106.8,61.3 104.4,52.3 C101.5,41.4 95.9,41.5 83.7,41.8 C80.7,41.9 77.3,42 73.5,41.8 L71.2,41.7 C53.6,41.2 47.7,41 44.7,52.2 C42.3,61.2 38.7,68.4 34.5,72.6 C33.7,73.4 32.5,73.4 31.7,72.6 C30.9,71.8 30.9,70.5 31.7,69.8 C35.3,66.2 38.7,59.4 40.8,51.2 C44.6,36.9 53.5,37.2 71.3,37.7 L73.6,37.8 C77.2,37.9 80.6,37.8 83.6,37.8 C95.8,37.5 104.6,37.3 108.3,51.3 C110.5,59.5 113.8,66.3 117.4,69.9 C118.2,70.7 118.2,71.9 117.4,72.7 C117,73.1 116.5,73.3 116,73.3 Z" id="Shape" fill="#BAD8FF"></path>
            <path d="M138,21.5 L138.2,21.5 C137.8,21.6 137.9,21.5 137.8,21.6 L137.7,21.6 C137.6,22.5 137.4,23.3 137.3,24.2 C136.1,24.4 134.3,24.6 131.6,24.8 C121.3,25.5 91.4,25.5 90.1,25.5 C88.7,25.5 87.6,24.4 87.6,23 C87.6,21.6 88.7,20.5 90.1,20.5 C90.4,20.5 121.1,20.4 131.3,19.8 C134.6,19.6 136.4,19.3 137.5,19.1 L137.8,19.1 C139.4,18.8 140.9,18.5 142.4,18.1 C141.2,19.6 139.8,20.8 138,21.5 Z" id="Shape" fill="#BAD8FF"></path>
            <path d="M64.8,23 C64.8,24.4 63.7,25.5 62.3,25.5 L59.8,25.5 C57.5,25.5 55.2,25.5 52.9,25.5 C45,25.5 30.3,25.4 24.8,25.4 C20.1,25.4 16.1,25 13.2,24.3 C13.1,23.4 12.9,22.5 12.8,21.6 L12.7,21.6 C11.1,21 9.7,20 8.5,18.6 C10.4,18.6 12.2,18.9 14.1,19.4 C15.9,19.9 19.1,20.4 24.7,20.4 C30.3,20.4 44.9,20.4 52.8,20.5 C55.1,20.5 57.4,20.5 59.7,20.5 L62.2,20.5 C63.7,20.5 64.8,21.6 64.8,23 Z" id="Shape" fill="#BAD8FF"></path>
            <circle id="Oval" fill="#ACCFFD" cx="75.4" cy="123.5" r="3.2"></circle>
        </g>
    </g>
</svg>