<?xml version="1.0" encoding="UTF-8"?>
<svg width="116px" height="147px" viewBox="0 0 116 147" version="1.1" xmlns="http://www.w3.org/2000/svg" xmlns:xlink="http://www.w3.org/1999/xlink">
    <!-- Generator: Sketch 51.2 (57519) - http://www.bohemiancoding.com/sketch -->
    <title>Fit_4</title>
    <desc>Created with Sketch.</desc>
    <defs></defs>
    <g id="Page-1" stroke="none" stroke-width="1" fill="none" fill-rule="evenodd">
        <g id="Fit_4" fill-rule="nonzero">
            <path d="M93.7,95.5 C94.3,111.1 102.5,122 114.6,145.9 L1.4,145.9 C13.5,122 21.7,111.1 22.3,95.5 C22.9,79.9 20.8,60.7 13.8,52.2 L12.2,50.3 L12.5,50.3 C12.4,50.3 12.2,50.2 12.1,50.1 C5.3,47.3 0.5,41.3 0.4,32.9 C0.2,21.1 8.8,11.4 11.8,0.4 L29.2,0.4 C30.8,0.4 32.2,1.5 32.6,3.1 C35.3,13.9 45,21.9 56.6,21.9 C68.2,21.9 77.9,13.9 80.6,3.1 C81,1.5 82.4,0.4 84,0.4 L104.5,0.4 C107.5,11.4 116.1,21.1 115.9,32.9 C115.8,41.2 111,47.2 104.2,50.1 C104.1,50.2 103.9,50.2 103.8,50.3 L104.1,50.3 L102.5,52.2 C95.2,60.8 93.1,79.9 93.7,95.5 Z" id="Shape" fill="#D5E6FD"></path>
            <path d="M115.7,33 C115.7,33.1 115.7,33.2 115.7,33.3 L115.7,33.4 C115.4,41.5 110.7,47.4 104,50.2 L12,50.2 C5.2,47.4 0.4,41.4 0.3,33 C0.1,21.2 8.7,11.5 11.7,0.5 L29.1,0.5 C30.7,0.5 32.1,1.6 32.5,3.2 C35.2,14 44.9,22 56.5,22 C68.1,22 77.8,14 80.5,3.2 C80.9,1.6 82.3,0.5 83.9,0.5 L104.4,0.5 C107.3,11.5 115.9,21.1 115.7,33 Z" id="Shape" fill="#4988FD"></path>
            <path d="M95.3,88.3 C95.5,78.1 97,61 103.3,52.9 L104.8,51 L104.5,51 C110.1,48.6 114.3,43.8 115.4,37.1 C115.4,36.9 115.4,36.8 115.3,36.6 C113.5,46 102.1,48.5 92.1,48.8 C87.2,48.9 18.7,48.8 17.6,48.8 L18.3,49.7 C19.2,50.8 19,50.4 19.7,51.8 C20.8,54 22.9,55.4 25.4,55.4 C73.2,55.7 82.3,52.6 85.1,61.9 C87.3,69.3 83.6,78.4 81.2,85.3 C73.4,107.3 73.6,137.2 101.4,145.6 C102,145.8 102.7,146 103.3,146.1 C118.4,145.9 114.1,144.5 111.4,139 C98.4,112.5 94.9,108.2 95.3,88.3 Z" id="Shape" fill="#C5DCFA"></path>
            <path d="M115.7,33.3 C115.4,41.5 110.7,47.4 104,50.2 L18.7,50.2 C17.4,49.2 16.2,48.7 14.9,47.7 C13,46.3 14.3,43.4 16.6,43.8 C46.4,49.4 92.6,45.6 101.9,37.5 C108.3,31.9 107.8,23.4 108.9,12.9 C111.6,19.6 114.5,25.4 114.7,26.3 C115,27.4 115.2,28.5 115.4,29.6 C115.6,30.8 115.7,32 115.7,33.3 Z" id="Shape" fill="#3973F4"></path>
            <ellipse id="Oval" fill="#ACCFFD" cx="56.3" cy="118.1" rx="2.2" ry="2.7"></ellipse>
        </g>
    </g>
</svg>