<?xml version="1.0" encoding="UTF-8"?>
<svg width="144px" height="147px" viewBox="0 0 144 147" version="1.1" xmlns="http://www.w3.org/2000/svg" xmlns:xlink="http://www.w3.org/1999/xlink">
    <!-- Generator: Sketch 51.2 (57519) - http://www.bohemiancoding.com/sketch -->
    <title>Fit_2</title>
    <desc>Created with Sketch.</desc>
    <defs></defs>
    <g id="Page-1" stroke="none" stroke-width="1" fill="none" fill-rule="evenodd">
        <g id="Fit_2" fill-rule="nonzero">
            <path d="M124.8,83.5 C124.8,83.5 124.8,83.5 124.8,83.5 C123.7,99.6 115.7,116.5 103.7,144.1 L103.3,146.3 L103.3,146.4 L66.6,145.7 L63.6,145.6 L50,145.3 L48,145.1 C37,122.9 30.4,106.9 27.5,92.1 C25.5,81.6 25.4,71.7 27,60.7 C27,60.6 27,60.4 27.1,60.3 C31,34.3 39.7,29.8 39.8,0.3 C110.7,1.7 106.7,1.2 107.6,1.2 C107.4,1.8 107.1,3.2 106.7,5.3 C105.8,10.7 104.9,20.2 106.6,28.2 L106.4,28.2 L106.7,28.3 C108.6,37.3 113.7,44.1 118.3,53.7 C123.1,63.6 125.5,72.8 124.8,83.5 Z" id="Shape" fill="#D5E6FD"></path>
            <path d="M81,81 C70.3,103.4 68,118.7 66.6,145.7 L63.6,145.6 C65,118.1 67.4,102.6 78.3,79.7 C78.7,78.9 79.6,78.6 80.3,79 C81,79.3 81.3,80.2 81,81 Z" id="Shape" fill="#C5DCFA"></path>
            <path d="M124.8,83.5 C124.8,83.5 124.8,83.5 124.8,83.5 C124.7,84 124.7,84.5 124.7,85 C123.7,97.3 118.7,110.7 114.1,122.4 C113,125.1 112,127.9 110.9,130.6 C104.6,146.4 105.1,146.4 103,146.4 C94.4,146.4 88.9,137.2 93,129.6 C103.4,110.4 116.3,83.9 107.1,51.5 C101.5,31.8 97.3,15.9 106.8,5.6 C105.9,11 105,20.5 106.7,28.5 L106.5,28.5 L106.8,28.6 C110.3,44.8 126.5,58.4 124.8,83.5 Z" id="Shape" fill="#C5DCFA"></path>
            <path d="M124.8,83 C124.8,83.2 124.8,83.4 124.8,83.6 C124.5,87.2 123.9,90.9 123,94.7 L121.7,93.5 C118.1,90.1 113.8,88 109.2,87 C97.3,84.3 83.3,88.4 75.1,94.4 L73.7,95.3 C72.2,96.2 71,97.7 70.5,99.4 L69.3,98.7 C52.3,87.9 36.8,81.7 27.9,91.9 L27.8,92 C25.8,81.5 25.7,71.6 27.3,60.6 C27.3,60.5 27.3,60.3 27.4,60.2 L28.3,60.6 C44.7,69.6 54,68.3 70.3,59.7 C82.5,53.2 96.7,49 106.9,49.6 C110.4,49.8 113.4,50.5 115.7,52 L118.6,53.7 C122.3,61.3 124.3,68.1 125,74.9 C125.1,75.4 125.1,76 125.1,76.5 C125,78.8 125,80.9 124.8,83 Z" id="Shape" fill="#4988FD"></path>
            <path d="M124.8,83 C124.8,83.2 124.8,83.4 124.8,83.6 C124.5,87.2 123.9,90.9 123,94.7 L121.7,93.5 C118.1,90.1 113.8,88 109.2,87 C111,76.1 110.8,64.2 107.2,51.3 C107,50.8 106.9,50.2 106.8,49.7 C110.3,49.9 113.3,50.6 115.6,52.1 L118.5,53.8 C122.2,61.4 124.2,68.2 124.9,75 C125,75.5 125,76.1 125,76.6 C125,78.8 125,80.9 124.8,83 Z" id="Shape" fill="#3973F4"></path>
            <g id="Group" transform="translate(0.000000, 3.000000)" fill="#4988FD">
                <path d="M15.1,4.5 C14.3,3.7 13.1,3.7 12.3,4.5 C11.5,5.3 11.5,6.5 12.3,7.3 L16.8,11.8 L2.8,11.8 C1.7,11.8 0.8,12.7 0.8,13.8 C0.8,14.9 1.7,15.8 2.8,15.8 L17,15.8 L12.3,20.5 C11.5,21.3 11.5,22.5 12.3,23.3 C12.7,23.7 13.2,23.9 13.7,23.9 C14.2,23.9 14.7,23.7 15.1,23.3 L23,15.4 C23.4,15 23.6,14.4 23.6,13.8 C23.6,13.3 23.4,12.7 23,12.3 L15.1,4.5 Z" id="Shape"></path>
                <path d="M141.7,8.3 L127.7,8.3 L132.2,3.8 C133,3 133,1.8 132.2,1 C131.4,0.2 130.2,0.2 129.4,1 L121.5,8.9 C121.1,9.3 120.9,9.8 120.9,10.4 C120.9,11 121,11.6 121.5,12 L129.4,19.9 C129.8,20.3 130.3,20.5 130.8,20.5 C131.3,20.5 131.8,20.3 132.2,19.9 C133,19.1 133,17.9 132.2,17.1 L127.5,12.4 L141.7,12.4 C142.8,12.4 143.7,11.5 143.7,10.4 C143.7,9.3 142.8,8.3 141.7,8.3 Z" id="Shape"></path>
            </g>
            <g id="Group" transform="translate(106.000000, 1.000000)" fill="#612EFF">
                <path d="M0.8,27.4 C0.8,27.4 0.8,27.5 0.8,27.5 L0.8,27.4 Z" id="Shape"></path>
                <path d="M1.7,0.3 C1.7,0.4 1.7,0.4 1.7,0.3 Z" id="Shape"></path>
            </g>
            <ellipse id="Oval" fill="#ACCFFD" cx="66.4" cy="44" rx="2" ry="2.7"></ellipse>
        </g>
    </g>
</svg>