<?xml version="1.0" encoding="UTF-8"?>
<svg width="117px" height="147px" viewBox="0 0 117 147" version="1.1" xmlns="http://www.w3.org/2000/svg" xmlns:xlink="http://www.w3.org/1999/xlink">
    <!-- Generator: Sketch 51.2 (57519) - http://www.bohemiancoding.com/sketch -->
    <title>Fit_3</title>
    <desc>Created with Sketch.</desc>
    <defs></defs>
    <g id="Page-1" stroke="none" stroke-width="1" fill="none" fill-rule="evenodd">
        <g id="Fit_3" fill-rule="nonzero">
            <path d="M110.2,146.2 L66.3,146.2 L66.2,146.7 C66.2,146.5 66.2,146.4 66.2,146.2 L64.8,146.2 C63.5,130.4 65.5,113.5 72.3,107.9 C69.4,107.2 67.2,106.3 65.8,104.9 L65,104.1 C62.7,101.9 59.9,99.1 58.3,94.5 C58.2,94.1 58,93.7 57.9,93.3 C56.5,98.6 53.4,101.7 50.9,104.2 L50.1,105 C48.7,106.4 46.5,107.4 43.6,108 C50.4,113.6 52.3,130.5 51,146.3 L49.6,146.3 C49.6,146.5 49.6,146.6 49.6,146.8 L49.5,146.3 L6.1,146.3 C2.3,126.2 -0.4,105.9 0.3,85.4 C0.9,67.8 3.9,57.7 7.4,49.6 C9.3,45.2 11.4,41.3 13.3,37.2 C17.1,28.9 20.3,19.3 20.3,0.9 L96.2,0.9 C96.2,20.3 99.7,30 103.8,38.6 C105.7,42.5 107.6,46.2 109.5,50.5 C112.8,58.4 115.6,68.4 116.2,85.4 C116.7,105.8 114,126.1 110.2,146.2 Z" id="Shape" fill="#D5E6FD"></path>
            <path d="M110.2,146.2 L101.7,146.2 C101.8,144.9 101.9,143.6 102,142.2 C107.6,76.4 109,84.8 96.4,58.2 C86.4,37.2 89.6,20.5 96.2,8.2 C98.2,44.5 114.6,41.1 116,85.2 C116.7,105.8 114,126.1 110.2,146.2 Z" id="Shape" fill="#C5DCFA"></path>
            <path d="M58.2,94.4 C58.1,94 57.9,93.6 57.8,93.2 C56.4,98.5 53.3,101.6 50.8,104.1 L50,104.9 C48.6,106.3 46.4,107.3 43.5,107.9 C50.3,113.5 52.2,130.4 50.9,146.2 L49.5,146.2 C49.5,146.4 49.5,146.5 49.5,146.7 L49.4,146.2 L48.5,146.2 C45.5,146.2 43,143.8 43,140.8 L43,140.7 C43.3,122.8 38.1,108.7 38.1,107.5 C38.1,106.1 58,91.9 48.1,64.7 L46,62.9 C46,62.9 57.2,65.2 57.2,51.2 C57.2,79.2 57.7,79.5 57.7,79.5 L58.2,94.4 Z" id="Shape" fill="#C5DCFA"></path>
            <path d="M108.6,48.8 C108,47.4 107.3,46.1 106.7,44.8 C106.3,43.9 105.9,43 105.4,42.2 C105,41.3 104.6,40.5 104.1,39.6 C103.9,39.2 103.7,38.9 103.6,38.5 L90.4,38.3 L13.1,37.1 C11.2,41.3 9.1,45.1 7.2,49.5 C24.2,52 41.5,58.7 48,64.6 C53.1,69.2 55.8,74.2 57.2,78.6 C57.4,79.4 57.6,80.1 57.8,80.8 C57.8,80.8 57.8,80.8 57.8,80.8 C59.9,71.5 67.7,58.1 93.9,52.2 C97.6,51.4 104.2,50.7 109.3,50.2 C109.1,49.8 108.9,49.3 108.6,48.8 Z" id="Shape" fill="#4988FD"></path>
            <path d="M109.3,50.4 C104.2,50.9 97.6,51.6 93.9,52.4 C92,47.4 90.9,42.7 90.4,38.3 L103.6,38.5 C103.8,38.9 104,39.3 104.1,39.6 C104.5,40.5 104.9,41.3 105.4,42.2 C105.8,43.1 106.3,44 106.7,44.8 C107.3,46.1 108,47.4 108.6,48.8 C108.9,49.3 109.1,49.8 109.3,50.4 Z" id="Shape" fill="#3973F4"></path>
            <path d="M58,50.7 L57.8,80.9 C57.6,80.2 57.5,79.4 57.2,78.7 C55.8,74.3 53.2,69.3 48,64.7 C51.7,63.5 58,59.9 58,50.7 Z" id="Shape" fill="#3973F4"></path>
        </g>
    </g>
</svg>