<?xml version="1.0" encoding="UTF-8"?>
<svg width="140px" height="146px" viewBox="0 0 140 146" version="1.1" xmlns="http://www.w3.org/2000/svg" xmlns:xlink="http://www.w3.org/1999/xlink">
    <!-- Generator: Sketch 51.2 (57519) - http://www.bohemiancoding.com/sketch -->
    <title>Fit_5</title>
    <desc>Created with Sketch.</desc>
    <defs></defs>
    <g id="Page-1" stroke="none" stroke-width="1" fill="none" fill-rule="evenodd">
        <g id="Fit_5" fill-rule="nonzero">
            <path d="M91.7,0.6 C94.9,0.6 97.4,3.4 97,6.6 C97,6.6 97,6.6 97,6.7 C95.5,18.4 90.6,22.8 89.9,33.7 C89.2,44.3 89,55.1 88.2,65.7 C88,68.8 87.6,71.9 87.2,74.9 C86.7,78.9 86.2,82.8 86,86.8 C86,87.2 86,87.6 86,88 C85.9,93.6 88.8,107.9 89,116.4 C89.1,124.5 87.7,131.4 87.8,137.1 C87.8,138.7 87.4,140.1 86.8,141.4 C85.3,144.1 82.5,146 79.2,146 L35.3,145.6 C31.3,145.6 27.5,143.8 25,140.8 C18,132.7 10.5,123.6 4.7,113.5 C0.6,106.4 -0.2,97.9 1.4,88.7 C3.6,75.7 10.7,61.2 20.2,46.7 C21.3,45 22.5,43.3 23.7,41.6 C33.7,27.3 35.3,16.3 32.7,4.4 C32.5,3.5 32.7,2.5 33.3,1.8 C33.9,1.1 34.8,0.6 35.7,0.6 L91.7,0.6 Z" id="Shape" fill="#DDECFE"></path>
            <path d="M85.9,86.8 C85.9,87.2 85.9,87.6 85.9,88 C85.8,93.6 88.7,107.9 88.9,116.4 C89,124.5 87.6,131.4 87.7,137.1 C87.7,138.7 87.3,140.1 86.7,141.4 C80.9,132.2 76.1,121.2 70.8,111.8 C70,110.5 69.4,109.3 69,108.2 C68.6,107.2 68.2,106.3 68,105.4 C67.9,105 67.8,104.6 67.8,104.2 C67.8,103.9 67.7,103.5 67.7,103.2 C67.7,102.2 67.8,101.3 68,100.3 C68.1,99.9 68.2,99.5 68.3,99.2 C68.4,98.8 68.6,98.4 68.7,98 C68.8,97.6 69,97.1 69.2,96.7 C69.4,96.2 69.5,95.8 69.7,95.3 C69.9,94.8 70.1,94.3 70.3,93.7 C70.4,93.4 70.5,93.1 70.6,92.9 C71,91.9 71.3,91 71.6,90 C71.8,89.6 71.9,89.1 72,88.7 C72.3,87.8 72.6,86.9 72.9,86 C73,85.6 73.2,85.1 73.3,84.7 C73.3,84.7 73.3,84.7 73.3,84.7 C73.4,84.3 73.6,83.8 73.7,83.4 C73.8,83 74,82.5 74.1,82.1 C83,49.2 74.1,27.6 87.6,0.8 L90.9,0.8 C94.3,0.8 96.9,3.5 97,6.8 C95.5,18.5 90.6,22.9 89.9,33.8 C89.2,44.4 89,55.2 88.2,65.8 C88,68.9 87.6,72 87.2,75 C86.6,78.8 86.1,82.7 85.9,86.8 Z" id="Shape" fill="#C5DCFA"></path>
            <path d="M87,74.9 C87,74.9 87.1,74.8 87.1,74.8 C86.6,78.8 86.1,82.7 85.9,86.7 C81.5,92.9 77,99.1 72.6,105.3 C71.7,106.6 70.6,107.9 69.1,108.2 C69,108.2 69,108.2 68.9,108.2 C66.8,108.4 65.2,106.3 64,104.6 C55.4,92 43.4,81.7 29.6,75.2 C25.6,73.3 21.2,71.7 16.8,71.9 C12.5,72.7 5.2,77.2 1,88.6 C3.2,75.6 10.3,61.1 19.8,46.6 C22.2,48.8 24.2,50.8 25.7,52.3 C37,60 48.3,67.7 59.6,75.4 C63.2,77.9 66.9,80.3 71.1,81.4 C72,81.6 73,81.8 74,81.8 C77.4,82 80.9,81 83.2,78.5 C83.9,77.7 84.6,76.7 85.5,75.9 L85.7,75.7 C86.2,75.4 86.6,75.1 87,74.9 Z" id="Shape" fill="#4988FD"></path>
            <path d="M87.1,74.8 C86.6,78.8 86.1,82.7 85.9,86.7 C81.5,92.9 77,99.1 72.6,105.3 C71.7,106.6 70.6,107.9 69.1,108.2 C69,108.2 69,108.2 68.9,108.2 C68.5,107.2 68.1,106.3 67.9,105.4 C67.8,105 67.7,104.6 67.7,104.2 C67.5,102.9 67.7,101.6 68,100.3 C68.1,99.9 68.2,99.5 68.3,99.2 C68.4,98.8 68.6,98.4 68.7,98 C68.8,97.6 69,97.1 69.2,96.7 C69.4,96.2 69.5,95.8 69.7,95.3 C69.9,94.8 70.1,94.3 70.3,93.7 C70.4,93.4 70.5,93.1 70.6,92.9 C71,91.9 71.3,91 71.6,90 C71.7,89.6 71.9,89.1 72,88.7 C72.3,87.8 72.6,86.9 72.9,86 C73,85.6 73.2,85.1 73.3,84.7 C73.3,84.7 73.3,84.7 73.3,84.7 C73.4,84.3 73.6,83.8 73.7,83.4 C73.8,83 74,82.5 74.1,82.1 C77.5,82.3 81,81.3 83.3,78.8 C84,78 84.7,77 85.6,76.2 L85.8,76 C86.2,75.7 86.5,75.4 86.9,75.2 C87,74.9 87,74.8 87.1,74.8 Z" id="Shape" fill="#3973F4"></path>
            <path d="M78.5,60.5 C78.3,60.5 78.2,60.5 78,60.4 C76.9,60.1 76.9,59.2 77,58.5 C77,58.5 77,58.4 77,58.4 C77,58.2 77.1,58 77.1,57.9 C77.3,57.3 77.5,56.4 78,54.8 C78.2,54 79.1,53.5 79.9,53.8 C80.7,54 81.2,54.9 80.9,55.7 C80.4,57.5 80.1,58.5 79.9,59 C79.9,59.1 79.8,59.2 79.8,59.3 C79.8,59.4 79.8,59.4 79.8,59.4 C79.6,60.1 79.1,60.5 78.5,60.5 Z" id="Shape" fill="#ACCFFD"></path>
            <path d="M101.9,73.8 C101.6,73.8 101.3,73.7 101.1,73.6 C100.4,73.1 100.2,72.2 100.7,71.5 C101.8,69.8 102.7,68.1 103.4,66.5 C103.7,65.7 104.6,65.4 105.4,65.7 C106.2,66 106.5,66.9 106.2,67.7 C105.4,69.6 104.5,71.4 103.2,73.2 C102.9,73.6 102.4,73.8 101.9,73.8 Z M107.3,57.9 C107.2,57.9 107.2,57.9 107.1,57.9 C106.3,57.8 105.7,57.1 105.8,56.3 C106,54.7 106.1,52.9 106.1,51.2 C106.1,51 106.1,50.7 106.1,50.5 C106.1,49.7 106.8,49 107.6,49 C108.4,49 109.1,49.7 109.1,50.5 C109.1,50.8 109.1,51 109.1,51.3 C109.1,53.1 109,55 108.8,56.7 C108.7,57.3 108.1,57.9 107.3,57.9 Z M106.5,41 C105.8,41 105.1,40.5 105,39.7 C104.7,37.9 104.3,36 103.9,33.9 C103.7,33.1 104.2,32.3 105.1,32.1 C105.9,31.9 106.7,32.4 106.9,33.3 C107.4,35.5 107.7,37.4 108,39.3 C108.1,40.1 107.6,40.9 106.8,41 C106.7,41 106.6,41 106.5,41 Z M102.9,24.4 C102.2,24.4 101.6,23.9 101.4,23.2 C100.9,21.2 100.5,19.3 100,17.3 C99.8,16.5 100.3,15.7 101.1,15.5 C101.9,15.3 102.7,15.8 102.9,16.6 C103.3,18.5 103.8,20.5 104.2,22.4 C104.4,23.2 103.9,24 103.1,24.2 C103.1,24.3 103,24.4 102.9,24.4 Z M96,79.8 C95.4,79.3 94.4,79.3 93.9,80 C93.6,80.3 93.3,80.7 93.1,81 L90.2,84.8 C89.7,85.5 89.8,86.4 90.5,86.9 C90.8,87.1 91.1,87.2 91.4,87.2 C91.9,87.2 92.3,87 92.6,86.6 L95.5,82.8 C95.7,82.5 96,82.2 96.2,81.9 C96.8,81.3 96.7,80.3 96,79.8 Z" id="Shape" fill="#7DB7FF"></path>
            <path d="M137.5,56.9 L119.6,56.9 C118.8,56.9 118.1,56.4 117.8,55.7 C117.5,55 117.7,54.1 118.2,53.5 L125.7,46 C126.5,45.2 127.7,45.2 128.5,46 C129.3,46.8 129.3,48 128.5,48.8 L124.4,52.9 L137.5,52.9 C138.6,52.9 139.5,53.8 139.5,54.9 C139.5,56 138.6,56.9 137.5,56.9 Z" id="Shape" fill="#4988FD"></path>
            <path d="M127.1,64.5 C126.6,64.5 126.1,64.3 125.7,63.9 L118.2,56.4 C117.4,55.6 117.4,54.4 118.2,53.6 C119,52.8 120.2,52.8 121,53.6 L128.5,61.1 C129.3,61.9 129.3,63.1 128.5,63.9 C128.1,64.4 127.6,64.5 127.1,64.5 Z" id="Shape" fill="#4988FD"></path>
        </g>
    </g>
</svg>