<?xml version="1.0" encoding="UTF-8"?>
<svg width="145px" height="138px" viewBox="0 0 145 138" version="1.1" xmlns="http://www.w3.org/2000/svg" xmlns:xlink="http://www.w3.org/1999/xlink">
    <!-- Generator: Sketch 51.2 (57519) - http://www.bohemiancoding.com/sketch -->
    <title>Folder</title>
    <desc>Created with Sketch.</desc>
    <defs></defs>
    <g id="Page-1" stroke="none" stroke-width="1" fill="none" fill-rule="evenodd">
        <g id="Folder">
            <g id="Group" transform="translate(0.000000, 40.000000)">
                <path d="M122.1,81.1 L17.4,81.1 C13.3,81.1 10,77.8 10,73.7 L10,7.6 C10,3.5 13.3,0.2 17.4,0.2 L122.1,0.2 C126.2,0.2 129.5,3.5 129.5,7.6 L129.5,73.7 C129.5,77.8 126.2,81.1 122.1,81.1 Z" id="Shape" fill="#3973F4" fill-rule="nonzero"></path>
                <path d="M129.5,42 L129.5,73.7 C129.5,77.8 126.2,81.1 122.1,81.1 L17.4,81.1 C13.3,81.1 10,77.8 10,73.7 L10,39.3" id="Shape" stroke="#1676EE" stroke-width="3" stroke-linecap="round" stroke-linejoin="round"></path>
                <path d="M52.3,0.2 L52.5,0.2" id="Shape" stroke="#1676EE" stroke-width="3" stroke-linecap="round" stroke-linejoin="round"></path>
                <path d="M135.5,14.5 L92.6,14.5 C88.4,14.5 84.4,15.9 81.2,18.6 L70,27.8 C66.8,30.4 62.7,31.9 58.6,31.9 L9.8,31.9 C4.4,31.9 0.2,36.7 1,42.1 L9.9,89.7 C10.6,94.2 14.4,97.4 18.9,97.4 L122.9,97.4 C127.4,97.4 131.2,94.2 131.9,89.8 L144.4,24.9 C145.1,19.5 141,14.5 135.5,14.5 Z" id="Shape" fill="#4988FD" fill-rule="nonzero"></path>
            </g>
            <g id="Group" transform="translate(24.000000, 0.000000)" fill-rule="nonzero">
                <path d="M95.4,30.8 L67.5,0.3 L5.5,0.3 C2.5,0.3 0.1,2.7 0.1,5.7 L0.1,71.9 L33.5,71.9 C37.7,71.9 41.7,70.5 44.9,67.8 L48.6,64.8 L17,64.8 C16.2,64.8 15.5,64.1 15.5,63.3 C15.5,62.5 16.2,61.8 17,61.8 L52.3,61.8 L56.2,58.6 C59.4,56 63.5,54.5 67.6,54.5 L95.8,54.5 L95.4,30.8 Z M17.8,16 L55,16 C56.1,16 57,16.9 57,18 C57,19.1 56.1,20 55,20 L17.8,20 C16.7,20 15.8,19.1 15.8,18 C15.8,16.9 16.7,16 17.8,16 Z M17.8,25.8 L32,25.8 C33.1,25.8 34,26.7 34,27.8 C34,28.9 33.1,29.8 32,29.8 L17.8,29.8 C16.7,29.8 15.8,28.9 15.8,27.8 C15.8,26.7 16.7,25.8 17.8,25.8 Z M39.5,50.9 L17.4,50.9 C16.6,50.9 15.9,50.2 15.9,49.4 C15.9,48.6 16.6,47.9 17.4,47.9 L39.5,47.9 C40.3,47.9 41,48.6 41,49.4 C41,50.2 40.4,50.9 39.5,50.9 Z M77.4,50.9 L48.8,50.9 C48,50.9 47.3,50.2 47.3,49.4 C47.3,48.6 48,47.9 48.8,47.9 L77.4,47.9 C78.2,47.9 78.9,48.6 78.9,49.4 C78.9,50.2 78.2,50.9 77.4,50.9 Z M73,30.8 C69.7,30.8 66.7,27.9 66.7,24.6 L66.7,0.4 L94.6,30.8 L73,30.8 Z" id="Shape" fill="#DFECFD"></path>
                <path d="M15.5,63.3 C15.5,64.1 16.2,64.8 17,64.8 L48.6,64.8 L52.3,61.8 L17,61.8 C16.2,61.8 15.5,62.4 15.5,63.3 Z" id="Shape" fill="#C5DCFA"></path>
                <path d="M77.4,47.9 L48.8,47.9 C48,47.9 47.3,48.6 47.3,49.4 C47.3,50.2 48,50.9 48.8,50.9 L77.4,50.9 C78.2,50.9 78.9,50.2 78.9,49.4 C78.9,48.6 78.2,47.9 77.4,47.9 Z" id="Shape" fill="#C5DCFA"></path>
                <path d="M39.5,47.9 L17.4,47.9 C16.6,47.9 15.9,48.6 15.9,49.4 C15.9,50.2 16.6,50.9 17.4,50.9 L39.5,50.9 C40.3,50.9 41,50.2 41,49.4 C41,48.6 40.4,47.9 39.5,47.9 Z" id="Shape" fill="#C5DCFA"></path>
                <path d="M17.8,20 L55,20 C56.1,20 57,19.1 57,18 C57,16.9 56.1,16 55,16 L17.8,16 C16.7,16 15.8,16.9 15.8,18 C15.8,19.1 16.7,20 17.8,20 Z" id="Shape" fill="#4988FD"></path>
                <path d="M17.8,29.8 L32,29.8 C33.1,29.8 34,28.9 34,27.8 C34,26.7 33.1,25.8 32,25.8 L17.8,25.8 C16.7,25.8 15.8,26.7 15.8,27.8 C15.8,28.9 16.7,29.8 17.8,29.8 Z" id="Shape" fill="#4988FD"></path>
                <path d="M66.7,24.6 C66.7,27.9 69.7,30.8 73,30.8 L94.6,30.8 L66.7,0.4 L66.7,24.6 Z" id="Shape" fill="#C5DCFA"></path>
            </g>
        </g>
    </g>
</svg>