<?xml version="1.0" encoding="UTF-8"?>
<svg width="149px" height="126px" viewBox="0 0 149 126" version="1.1" xmlns="http://www.w3.org/2000/svg" xmlns:xlink="http://www.w3.org/1999/xlink">
    <!-- Generator: Sketch 51.2 (57519) - http://www.bohemiancoding.com/sketch -->
    <title>Folders</title>
    <desc>Created with Sketch.</desc>
    <defs></defs>
    <g id="Page-1" stroke="none" stroke-width="1" fill="none" fill-rule="evenodd">
        <g id="Folders" fill-rule="nonzero">
            <g id="Group" transform="translate(0.000000, 5.000000)">
                <path d="M35.6,120.3 L3.5,120.3 C1.9,120.3 0.6,119 0.6,117.4 L0.6,3 C0.6,1.4 1.9,0.1 3.5,0.1 L35.6,0.1 C37.2,0.1 38.5,1.4 38.5,3 L38.5,117.4 C38.5,119 37.2,120.3 35.6,120.3 Z" id="Shape" fill="#4988FD"></path>
                <path d="M27.2,21.9 C27.2,26.1 23.8,29.6 19.5,29.6 C17.1,29.6 14.9,28.5 13.5,26.7 C12.5,25.4 11.9,23.7 11.9,22 C11.9,17.8 15.3,14.3 19.6,14.3 C23.6,14.3 26.9,17.3 27.2,21.2 C27.2,21.4 27.2,21.7 27.2,21.9 Z" id="Shape" fill="#2767F4"></path>
                <path d="M27.2,21.9 C27.2,26.1 23.8,29.6 19.5,29.6 C17.1,29.6 14.9,28.5 13.5,26.7 C13.5,26.5 13.5,26.2 13.5,26 C13.5,21.8 16.9,18.3 21.2,18.3 C23.6,18.3 25.8,19.4 27.2,21.2 C27.2,21.4 27.2,21.7 27.2,21.9 Z" id="Shape" fill="#3973F4"></path>
                <path d="M28.8,78.5 L24,78.5 C23.2,78.5 22.6,77.9 22.6,77.1 C22.6,76.3 23.2,75.7 24,75.7 L28.8,75.7 C29.6,75.7 30.2,76.3 30.2,77.1 C30.2,77.9 29.5,78.5 28.8,78.5 Z" id="Shape" fill="#3973F4"></path>
                <path d="M20.1,78.5 L10.3,78.5 C9.5,78.5 8.9,77.9 8.9,77.1 C8.9,76.3 9.5,75.7 10.3,75.7 L20.1,75.7 C20.9,75.7 21.5,76.3 21.5,77.1 C21.5,77.9 20.8,78.5 20.1,78.5 Z" id="Shape" fill="#3973F4"></path>
                <path d="M28.8,88.2 L10.3,88.2 C9.5,88.2 8.9,87.6 8.9,86.8 C8.9,86 9.5,85.4 10.3,85.4 L28.8,85.4 C29.6,85.4 30.2,86 30.2,86.8 C30.2,87.6 29.5,88.2 28.8,88.2 Z" id="Shape" fill="#3973F4"></path>
                <path d="M28.8,97.9 L18.3,97.9 C17.5,97.9 16.9,97.3 16.9,96.5 C16.9,95.7 17.5,95.1 18.3,95.1 L28.8,95.1 C29.6,95.1 30.2,95.7 30.2,96.5 C30.2,97.3 29.5,97.9 28.8,97.9 Z" id="Shape" fill="#3973F4"></path>
                <path d="M13.8,97.9 L10.3,97.9 C9.5,97.9 8.9,97.3 8.9,96.5 C8.9,95.7 9.5,95.1 10.3,95.1 L13.8,95.1 C14.6,95.1 15.2,95.7 15.2,96.5 C15.2,97.3 14.5,97.9 13.8,97.9 Z" id="Shape" fill="#3973F4"></path>
                <path d="M28.8,107.5 L10.3,107.5 C9.5,107.5 8.9,106.9 8.9,106.1 C8.9,105.3 9.5,104.7 10.3,104.7 L28.8,104.7 C29.6,104.7 30.2,105.3 30.2,106.1 C30.2,106.9 29.5,107.5 28.8,107.5 Z" id="Shape" fill="#3973F4"></path>
            </g>
            <g id="Group" transform="translate(40.000000, 5.000000)">
                <path d="M35.5,120.3 L3.4,120.3 C1.8,120.3 0.5,119 0.5,117.4 L0.5,3 C0.5,1.4 1.8,0.1 3.4,0.1 L35.5,0.1 C37.1,0.1 38.4,1.4 38.4,3 L38.4,117.4 C38.4,119 37.1,120.3 35.5,120.3 Z" id="Shape" fill="#4988FD"></path>
                <path d="M27.1,21.9 C27.1,26.1 23.7,29.6 19.4,29.6 C17,29.6 14.8,28.5 13.4,26.7 C12.4,25.4 11.8,23.7 11.8,22 C11.8,17.8 15.2,14.3 19.5,14.3 C23.5,14.3 26.8,17.3 27.1,21.2 C27.1,21.4 27.1,21.7 27.1,21.9 Z" id="Shape" fill="#2767F4"></path>
                <path d="M27.1,21.9 C27.1,26.1 23.7,29.6 19.4,29.6 C17,29.6 14.8,28.5 13.4,26.7 C13.4,26.5 13.4,26.2 13.4,26 C13.4,21.8 16.8,18.3 21.1,18.3 C23.5,18.3 25.7,19.4 27.1,21.2 C27.1,21.4 27.1,21.7 27.1,21.9 Z" id="Shape" fill="#3973F4"></path>
                <path d="M28.7,78.5 L23.9,78.5 C23.1,78.5 22.5,77.9 22.5,77.1 C22.5,76.3 23.1,75.7 23.9,75.7 L28.7,75.7 C29.5,75.7 30.1,76.3 30.1,77.1 C30.1,77.9 29.5,78.5 28.7,78.5 Z" id="Shape" fill="#3973F4"></path>
                <path d="M20,78.5 L10.2,78.5 C9.4,78.5 8.8,77.9 8.8,77.1 C8.8,76.3 9.4,75.7 10.2,75.7 L20,75.7 C20.8,75.7 21.4,76.3 21.4,77.1 C21.4,77.9 20.7,78.5 20,78.5 Z" id="Shape" fill="#3973F4"></path>
                <path d="M28.7,88.2 L10.2,88.2 C9.4,88.2 8.8,87.6 8.8,86.8 C8.8,86 9.4,85.4 10.2,85.4 L28.7,85.4 C29.5,85.4 30.1,86 30.1,86.8 C30.1,87.6 29.5,88.2 28.7,88.2 Z" id="Shape" fill="#3973F4"></path>
                <path d="M28.7,97.9 L18.2,97.9 C17.4,97.9 16.8,97.3 16.8,96.5 C16.8,95.7 17.4,95.1 18.2,95.1 L28.7,95.1 C29.5,95.1 30.1,95.7 30.1,96.5 C30.1,97.3 29.5,97.9 28.7,97.9 Z" id="Shape" fill="#3973F4"></path>
                <path d="M13.7,97.9 L10.2,97.9 C9.4,97.9 8.8,97.3 8.8,96.5 C8.8,95.7 9.4,95.1 10.2,95.1 L13.7,95.1 C14.5,95.1 15.1,95.7 15.1,96.5 C15.1,97.3 14.4,97.9 13.7,97.9 Z" id="Shape" fill="#3973F4"></path>
                <path d="M28.7,107.5 L10.2,107.5 C9.4,107.5 8.8,106.9 8.8,106.1 C8.8,105.3 9.4,104.7 10.2,104.7 L28.7,104.7 C29.5,104.7 30.1,105.3 30.1,106.1 C30.1,106.9 29.5,107.5 28.7,107.5 Z" id="Shape" fill="#3973F4"></path>
            </g>
            <g id="Group" transform="translate(78.000000, 0.000000)">
                <path d="M68.2,115.7 L37.4,124.9 C35.9,125.4 34.3,124.5 33.8,123 L1,13.4 C0.5,11.9 1.4,10.3 2.9,9.8 L33.7,0.6 C35.2,0.1 36.8,1 37.3,2.5 L70.1,112.1 C70.5,113.6 69.7,115.2 68.2,115.7 Z" id="Shape" fill="#4988FD"></path>
                <path d="M31.9,23.9 C33.1,28 30.8,32.2 26.8,33.4 C24.5,34.1 22.1,33.6 20.2,32.3 C18.8,31.3 17.8,29.9 17.3,28.2 C16.1,24.1 18.4,19.9 22.4,18.7 C26.2,17.6 30.2,19.5 31.7,23.2 C31.7,23.4 31.8,23.6 31.9,23.9 Z" id="Shape" fill="#2767F4"></path>
                <path d="M31.9,23.9 C33.1,28 30.8,32.2 26.8,33.4 C24.5,34.1 22.1,33.6 20.2,32.3 C20.1,32.1 20,31.9 20,31.6 C18.8,27.5 21.1,23.3 25.1,22.1 C27.4,21.4 29.8,21.9 31.7,23.2 C31.7,23.4 31.8,23.6 31.9,23.9 Z" id="Shape" fill="#3973F4"></path>
                <path d="M49.7,77.6 L45.1,79 C44.4,79.2 43.6,78.8 43.4,78.1 C43.2,77.4 43.6,76.6 44.3,76.4 L48.9,75 C49.6,74.8 50.4,75.2 50.6,75.9 C50.8,76.6 50.4,77.4 49.7,77.6 Z" id="Shape" fill="#3973F4"></path>
                <path d="M41.3,80.1 L31.9,82.9 C31.2,83.1 30.4,82.7 30.2,82 C30,81.3 30.4,80.5 31.1,80.3 L40.5,77.5 C41.2,77.3 42,77.7 42.2,78.4 C42.4,79.1 42,79.9 41.3,80.1 Z" id="Shape" fill="#3973F4"></path>
                <path d="M52.4,86.9 L34.6,92.2 C33.9,92.4 33.1,92 32.9,91.3 C32.7,90.6 33.1,89.8 33.8,89.6 L51.6,84.3 C52.3,84.1 53.1,84.5 53.3,85.2 C53.6,85.9 53.2,86.7 52.4,86.9 Z" id="Shape" fill="#3973F4"></path>
                <path d="M55.2,96.1 L45.1,99.1 C44.4,99.3 43.6,98.9 43.4,98.2 C43.2,97.5 43.6,96.7 44.3,96.5 L54.4,93.5 C55.1,93.3 55.9,93.7 56.1,94.4 C56.3,95.2 55.9,95.9 55.2,96.1 Z" id="Shape" fill="#3973F4"></path>
                <path d="M40.8,100.4 L37.4,101.4 C36.7,101.6 35.9,101.2 35.7,100.5 C35.5,99.8 35.9,99 36.6,98.8 L40,97.8 C40.7,97.6 41.5,98 41.7,98.7 C42,99.5 41.6,100.2 40.8,100.4 Z" id="Shape" fill="#3973F4"></path>
                <path d="M58,105.4 L40.2,110.7 C39.5,110.9 38.7,110.5 38.5,109.8 C38.3,109.1 38.7,108.3 39.4,108.1 L57.2,102.8 C57.9,102.6 58.7,103 58.9,103.7 C59.1,104.4 58.7,105.2 58,105.4 Z" id="Shape" fill="#3973F4"></path>
            </g>
        </g>
    </g>
</svg>