<?xml version="1.0" encoding="UTF-8"?>
<svg width="146px" height="108px" viewBox="0 0 146 108" version="1.1" xmlns="http://www.w3.org/2000/svg" xmlns:xlink="http://www.w3.org/1999/xlink">
    <!-- Generator: Sketch 51.2 (57519) - http://www.bohemiancoding.com/sketch -->
    <title>Game_Controller</title>
    <desc>Created with Sketch.</desc>
    <defs></defs>
    <g id="Page-1" stroke="none" stroke-width="1" fill="none" fill-rule="evenodd">
        <g id="Game_Controller" fill-rule="nonzero">
            <path d="M145.7,30.6 C145.7,36.1 144.2,41.2 141.7,45.6 C141.7,45.6 141.7,45.7 141.6,45.7 C141,46.6 140.5,47.5 139.8,48.4 L139.8,48.6 L139.9,50.3 L141.1,88.6 C141.2,89.2 141.2,89.9 141.2,90.5 C141.2,97.6 136.7,104 129.8,106.3 C123.8,108.3 117.5,106.7 113.2,102.6 C111.5,101 110.1,99 109.2,96.7 L100.8,75.2 L98.3,68.7 C98.3,68.7 98.3,68.7 98.3,68.7 L98.3,65.6 L49.6,65.6 L48.8,68.9 C48.3,68.1 48.7,69.9 48.4,69 L37.3,97.3 C34.7,103.8 28.5,107.7 21.9,107.7 C20.1,107.7 18.4,107.4 16.6,106.8 C14.3,106 12.2,104.8 10.4,103.1 C6.7,99.6 4.7,94.4 5.3,89.1 L6.5,50.4 L6.5,49 L6.5,48.8 C6.2,48.3 5.8,47.9 5.5,47.4 C5.5,47.4 5.5,47.4 5.5,47.4 C5.4,47.2 5.3,47.1 5.2,46.9 C2.3,42.3 0.6,36.9 0.6,31 C0.6,14.5 14,1 30.6,1 C39.2,1 46.9,4.6 52.4,10.4 L93.4,10.4 C98.9,4.2 106.9,0.2 115.9,0.2 C126.7,0.2 136.2,5.9 141.5,14.5 C144.1,19.5 145.7,24.8 145.7,30.6 Z" id="Shape" fill="#C5DCFA"></path>
            <circle id="Oval" fill="#DFECFD" cx="30.2" cy="31.1" r="29.9"></circle>
            <circle id="Oval" fill="#DFECFD" cx="115.8" cy="30.5" r="29.9"></circle>
            <path d="M35.1,26.7 L35.1,19.3 C35.1,18.3 34.3,17.5 33.3,17.5 L27.8,17.5 C26.8,17.5 26,18.3 26,19.3 L26,26.7 L18.6,26.7 C17.6,26.7 16.8,27.5 16.8,28.5 L16.8,34 C16.8,35 17.6,35.8 18.6,35.8 L26,35.8 L26,43.2 C26,44.2 26.8,45 27.8,45 L33.3,45 C34.3,45 35.1,44.2 35.1,43.2 L35.1,35.8 L42.5,35.8 C43.5,35.8 44.3,35 44.3,34 L44.3,28.5 C44.3,27.5 43.5,26.7 42.5,26.7 L35.1,26.7 Z" id="Shape" fill="#4988FD"></path>
            <g id="Group" transform="translate(97.000000, 12.000000)" fill="#4988FD">
                <circle id="Oval" cx="6.8" cy="19.4" r="6.2"></circle>
                <circle id="Oval" cx="32.2" cy="19.4" r="6.2"></circle>
                <circle id="Oval" cx="19.5" cy="32.1" r="6.2"></circle>
                <circle id="Oval" cx="19.5" cy="6.7" r="6.2"></circle>
            </g>
            <circle id="Oval" fill="#DFECFD" cx="87.6" cy="54.2" r="14.6"></circle>
            <path d="M98.2,54.2 C98.2,60 93.5,64.8 87.6,64.8 C83.1,64.8 79.2,61.9 77.7,57.9 C77.3,56.8 77,55.5 77,54.2 C77,48.4 81.8,43.6 87.6,43.6 C91.4,43.6 94.6,45.6 96.5,48.5 C97.6,50.2 98.2,52.1 98.2,54.2 Z" id="Shape" fill="#3973F4"></path>
            <circle id="Oval" fill="#DFECFD" cx="58.6" cy="54.2" r="14.6"></circle>
            <path d="M69.2,54.2 C69.2,60 64.4,64.8 58.6,64.8 C54.1,64.8 50.2,61.9 48.7,57.9 C48.3,56.8 48,55.5 48,54.2 C48,48.4 52.8,43.6 58.6,43.6 C62.3,43.6 65.6,45.6 67.5,48.5 C68.5,50.2 69.2,52.1 69.2,54.2 Z" id="Shape" fill="#3973F4"></path>
            <path d="M97.2,52.2 C97.2,58 92.5,62.8 86.6,62.8 C82.9,62.8 79.6,60.8 77.7,57.9 C77.3,56.8 77,55.5 77,54.2 C77,48.4 81.8,43.6 87.6,43.6 C91.4,43.6 94.6,45.6 96.5,48.5 C96.9,49.7 97.2,50.9 97.2,52.2 Z" id="Shape" fill="#4988FD"></path>
            <path d="M68.2,52.2 C68.2,58 63.4,62.8 57.6,62.8 C53.9,62.8 50.6,60.8 48.7,57.9 C48.3,56.8 48,55.5 48,54.2 C48,48.4 52.8,43.6 58.6,43.6 C62.3,43.6 65.6,45.6 67.5,48.5 C67.9,49.7 68.2,50.9 68.2,52.2 Z" id="Shape" fill="#4988FD"></path>
        </g>
    </g>
</svg>