<?xml version="1.0" encoding="UTF-8"?>
<svg width="147px" height="106px" viewBox="0 0 147 106" version="1.1" xmlns="http://www.w3.org/2000/svg" xmlns:xlink="http://www.w3.org/1999/xlink">
    <!-- Generator: Sketch 51.2 (57519) - http://www.bohemiancoding.com/sketch -->
    <title>Gift_Card</title>
    <desc>Created with Sketch.</desc>
    <defs></defs>
    <g id="Page-1" stroke="none" stroke-width="1" fill="none" fill-rule="evenodd">
        <g id="Gift_Card" fill-rule="nonzero">
            <path d="M146.4,16.5 L146.4,89.3 C146.4,98.4 139,105.8 129.9,105.8 L16.6,105.8 C12.9,105.8 9.4,104.5 6.6,102.5 C2.6,99.5 0.1,94.7 0.1,89.4 L0.1,16.6 C0.1,7.5 7.5,0.1 16.6,0.1 L129.9,0.1 C134.4,0.1 138.4,1.9 141.4,4.8 C144.5,7.7 146.4,11.9 146.4,16.5 Z" id="Shape" fill="#4988FD"></path>
            <path d="M127.1,46.6 L106.9,50.8 C106.6,50.9 106.4,51 106.3,51.3 L104.1,55.7 C103.6,56.6 102.2,56.2 102.4,55.2 L103,50.3 C103,50 102.9,49.7 102.7,49.5 L88.1,34.9 C84.6,31.4 78.7,32.9 77.3,37.6 L71.3,57.6 C70.4,60.7 72.3,63.7 75.1,64.5 C75.8,64.7 76,65.6 75.5,66.1 L69.1,72.1 C68.5,72.6 68.8,73.6 69.6,73.7 L76,74.8 C76.4,74.9 76.7,75.2 76.8,75.7 L77.1,81.4 C77.1,82.2 78.1,82.6 78.6,82 L97.8,64.5 C98.3,64 99.2,64.3 99.3,65 L106.7,96.9 C106.9,97.7 107.8,97.9 108.3,97.3 L112.2,92.4 C112.5,92 113,91.9 113.4,92.2 L118.7,95.8 C119.4,96.3 120.3,95.7 120.1,94.9 L116.9,77.4 C116.7,76.5 117.8,76 118.4,76.6 C121.9,79.8 127.6,78.2 128.9,73.7 L134.5,55.1 C136,50.1 131.9,45.6 127.1,46.6 Z" id="Shape" fill="#2767F4"></path>
            <path d="M146.4,40.7 L146.4,52.7 C146.3,52.7 146.1,52.7 146,52.7 L110.4,52.7 L110.6,94.1 L110.6,105.3 C110.6,105.4 110.6,105.6 110.6,105.7 L98.6,105.7 C98.6,105.6 98.6,105.5 98.6,105.3 L98.4,64 L98.4,52.7 L0.1,52.7 L0.1,40.7 L98.3,40.7 L98.1,-4.54747351e-13 C98.1,-4.54747351e-13 98.1,-4.54747351e-13 98.1,-4.54747351e-13 L110.1,-4.54747351e-13 L110.3,40.7 L145.9,40.7 C146.1,40.7 146.3,40.7 146.4,40.7 Z" id="Shape" fill="#DFECFD"></path>
            <path d="M134.9,52.7 C134.8,48.8 131.2,45.7 127.1,46.5 L106.9,50.7 C106.6,50.8 106.4,50.9 106.3,51.2 L104.1,55.6 C103.6,56.5 102.2,56.1 102.4,55.1 L103,50.2 C103,49.9 102.9,49.6 102.7,49.4 L94,40.7 L76.4,40.7 L72.8,52.7 L98.6,52.7 L98.6,64 C99,64.1 99.3,64.3 99.4,64.7 L106.8,96.6 C107,97.4 107.9,97.6 108.4,97 L110.7,94.1 L110.5,52.7 L134.9,52.7 Z" id="Shape" fill="#CEDDF2"></path>
            <polyline id="Shape" fill="#DFECFD" points="83.3 52.9 68.6 66.7 77.6 68.2 78 76.6 99.8 56.7 108 92.1 113.7 84.9 121.5 90.2 115.7 58.6"></polyline>
            <g id="Group" transform="translate(11.000000, 66.000000)" fill="#2767F4">
                <path d="M2.1,2.1 L44.3,2.1" id="Shape"></path>
                <path d="M44.3,4.1 L2.1,4.1 C1,4.1 0.1,3.2 0.1,2.1 C0.1,1 1,0.1 2.1,0.1 L44.3,0.1 C45.4,0.1 46.3,1 46.3,2.1 C46.3,3.2 45.4,4.1 44.3,4.1 Z" id="Shape"></path>
            </g>
            <g id="Group" transform="translate(32.000000, 76.000000)" fill="#2767F4">
                <path d="M2.1,2.2 L23.3,2.2" id="Shape"></path>
                <path d="M23.3,4.2 L2.1,4.2 C1,4.2 0.1,3.3 0.1,2.2 C0.1,1.1 1,0.2 2.1,0.2 L23.3,0.2 C24.4,0.2 25.3,1.1 25.3,2.2 C25.3,3.3 24.4,4.2 23.3,4.2 Z" id="Shape"></path>
            </g>
            <g id="Group" transform="translate(11.000000, 76.000000)" fill="#2767F4">
                <path d="M2.1,2.2 L16.6,2.2" id="Shape"></path>
                <path d="M16.6,4.2 L2.1,4.2 C1,4.2 0.1,3.3 0.1,2.2 C0.1,1.1 1,0.2 2.1,0.2 L16.6,0.2 C17.7,0.2 18.6,1.1 18.6,2.2 C18.6,3.3 17.7,4.2 16.6,4.2 Z" id="Shape"></path>
            </g>
            <g id="Group" transform="translate(44.000000, 86.000000)" fill="#2767F4">
                <path d="M2.2,2.9 L11.3,2.9" id="Shape"></path>
                <path d="M11.3,4.9 L2.3,4.9 C1.2,4.9 0.3,4 0.3,2.9 C0.3,1.8 1.2,0.9 2.3,0.9 L11.3,0.9 C12.4,0.9 13.3,1.8 13.3,2.9 C13.3,4 12.4,4.9 11.3,4.9 Z" id="Shape"></path>
            </g>
            <g id="Group" transform="translate(11.000000, 86.000000)" fill="#2767F4">
                <path d="M2.1,2.9 L28,2.9" id="Shape"></path>
                <path d="M28,4.9 L2.2,4.9 C1.1,4.9 0.2,4 0.2,2.9 C0.2,1.8 1.1,0.9 2.2,0.9 L28,0.9 C29.1,0.9 30,1.8 30,2.9 C30,4 29.1,4.9 28,4.9 Z" id="Shape"></path>
            </g>
            <path d="M96.8,36.1 L103.9,43.2 L102.3,56.2 L96.8,55.1 L78.4,57.9 C74.4,58.5 71.1,54.7 72.2,50.8 L78.6,29.4 C79.8,25.4 84.9,24.1 87.8,27.1 L88.2,27.5" id="Shape" fill="#FFFFFF"></path>
            <path d="M101.5,56 L106.7,58.2 L120.5,70.7 C123.5,73.4 128.4,72.1 129.5,68.2 L135.9,46.8 C137.1,42.8 133.6,38.9 129.5,39.8 L107.3,44.4 L101.5,56 Z" id="Shape" fill="#FFFFFF"></path>
            <path d="M96.9,44.7 C98.7,40.3 103.1,38.1 106.9,39.2 C111.2,40.5 113.4,46 111.7,51.5 C110,57 105.2,60.4 100.9,59.1 C97.9,58.2 95.7,55.3 95.6,51.7 C95.4,49 95.8,47.4 96.9,44.7 Z" id="Shape" fill="#DFECFD"></path>
        </g>
    </g>
</svg>