<?xml version="1.0" encoding="UTF-8"?>
<svg width="150px" height="129px" viewBox="0 0 150 129" version="1.1" xmlns="http://www.w3.org/2000/svg" xmlns:xlink="http://www.w3.org/1999/xlink">
    <!-- Generator: Sketch 51.2 (57519) - http://www.bohemiancoding.com/sketch -->
    <title>Gift</title>
    <desc>Created with Sketch.</desc>
    <defs></defs>
    <g id="Page-1" stroke="none" stroke-width="1" fill="none" fill-rule="evenodd">
        <g id="Gift" fill-rule="nonzero">
            <path d="M123.2,56 L123.2,65.9 C123.2,67.9 121.6,69.5 119.6,69.5 L35.9,69.5 C33.9,69.5 32.3,67.9 32.3,65.9 L32.3,56 C32.3,54 33.9,52.4 35.9,52.4 L119.6,52.4 C121.6,52.4 123.2,54.1 123.2,56 Z" id="Shape" fill="#6097FD"></path>
            <path d="M117.6,69.5 L117.6,123.4 C117.6,126.5 115.1,129 112,129 L43.4,129 C40.3,129 37.8,126.5 37.8,123.4 L37.8,69.5 L117.6,69.5 Z" id="Shape" fill="#4988FD"></path>
            <rect id="Rectangle-path" fill="#2767F4" x="37.8" y="69.5" width="79.8" height="5.9"></rect>
            <rect id="Rectangle-path" fill="#DFECFD" x="70.8" y="52.4" width="13.5" height="76.6"></rect>
            <rect id="Rectangle-path" fill="#C5DCFA" x="70.8" y="69.5" width="13.5" height="5.9"></rect>
            <g id="Group" fill="#6097FD">
                <path d="M76.3,14.9 C75.2,14.9 74.3,14 74.3,12.9 L74.3,2.8 C74.3,1.7 75.2,0.8 76.3,0.8 C77.4,0.8 78.3,1.7 78.3,2.8 L78.3,12.9 C78.3,14 77.4,14.9 76.3,14.9 Z" id="Shape"></path>
                <g transform="translate(2.000000, 93.000000)" id="Shape">
                    <path d="M145,7.5 C144.8,7.5 144.6,7.5 144.5,7.4 L134.7,4.7 C133.6,4.4 133,3.3 133.3,2.2 C133.6,1.1 134.7,0.5 135.8,0.8 L145.6,3.5 C146.7,3.8 147.3,4.9 147,6 C146.7,6.9 145.9,7.5 145,7.5 Z"></path>
                    <path d="M10.2,6.6 C9.2,6.6 8.4,5.9 8.2,5 C8,3.9 8.7,2.9 9.8,2.7 L13.4,2.1 C14.5,1.9 15.5,2.6 15.7,3.7 C15.9,4.8 15.2,5.8 14.1,6 L10.5,6.6 C10.5,6.6 10.4,6.6 10.2,6.6 Z"></path>
                    <path d="M2.7,8.1 C1.7,8.1 0.9,7.4 0.7,6.5 C0.5,5.4 1.2,4.4 2.3,4.2 L3.5,4 C4.6,3.8 5.6,4.5 5.8,5.6 C6,6.7 5.3,7.7 4.2,7.9 L3,8.1 C2.9,8.1 2.8,8.1 2.7,8.1 Z"></path>
                </g>
                <g transform="translate(0.000000, 54.000000)" id="Shape">
                    <path d="M16.5,8.3 C16.3,8.3 16.1,8.3 16,8.2 L2,4.4 C0.9,4.1 0.3,3 0.6,1.9 C0.9,0.8 2,0.2 3.1,0.5 L17.1,4.3 C18.2,4.6 18.8,5.7 18.5,6.8 C18.2,7.7 17.4,8.3 16.5,8.3 Z"></path>
                    <path d="M136,7.8 C135,7.8 134.2,7.1 134,6.2 C133.8,5.1 134.5,4.1 135.6,3.9 L145.6,2.1 C146.7,1.9 147.7,2.6 147.9,3.7 C148.1,4.8 147.4,5.8 146.3,6 L136.3,7.8 C136.2,7.8 136.1,7.8 136,7.8 Z"></path>
                </g>
                <g transform="translate(32.000000, 7.000000)" id="Shape">
                    <path d="M81.9,19 C81.4,19 81,18.8 80.6,18.5 C79.8,17.8 79.7,16.5 80.4,15.7 L85.7,9.6 C86.4,8.8 87.7,8.7 88.5,9.4 C89.3,10.1 89.4,11.4 88.7,12.2 L83.4,18.3 C83,18.7 82.5,19 81.9,19 Z"></path>
                    <path d="M92.1,7.5 C91.6,7.5 91.2,7.3 90.8,7 C90,6.3 89.9,5 90.6,4.2 L93.3,1.2 C94,0.4 95.3,0.3 96.1,1 C96.9,1.7 97,3 96.3,3.8 L93.6,6.8 C93.2,7.3 92.6,7.5 92.1,7.5 Z"></path>
                    <path d="M6,19.3 C5.4,19.3 4.8,19 4.4,18.5 L0.9,13.5 C0.3,12.6 0.5,11.4 1.4,10.7 C2.3,10.1 3.6,10.3 4.2,11.2 L7.7,16.2 C8.3,17.1 8.1,18.3 7.2,19 C6.8,19.2 6.3,19.3 6,19.3 Z"></path>
                </g>
            </g>
            <path d="M77.6,53.3 L64.4,53.3 C55.1,53.3 47.4,45.7 47.4,36.3 C47.4,27 55,19.3 64.4,19.3 C73.7,19.3 81.4,26.9 81.4,36.3 L81.4,49.5 C81.4,51.6 79.7,53.3 77.6,53.3 Z M64.4,26.9 C59.2,26.9 55,31.1 55,36.3 C55,41.5 59.2,45.7 64.4,45.7 L73.8,45.7 L73.8,36.3 C73.8,31.1 69.6,26.9 64.4,26.9 Z" id="Shape" fill="#DFECFD"></path>
            <path d="M88.7,53.3 L77.7,53.3 C75.6,53.3 73.9,51.6 73.9,49.5 L73.9,38.5 C73.9,30.3 80.5,23.7 88.7,23.7 C96.9,23.7 103.5,30.3 103.5,38.5 C103.5,46.6 96.8,53.3 88.7,53.3 Z M81.4,45.7 L88.7,45.7 C92.7,45.7 96,42.4 96,38.4 C96,34.4 92.7,31.1 88.7,31.1 C84.7,31.1 81.4,34.4 81.4,38.4 L81.4,45.7 Z" id="Shape" fill="#DFECFD"></path>
        </g>
    </g>
</svg>