<?xml version="1.0" encoding="UTF-8"?>
<svg width="149px" height="136px" viewBox="0 0 149 136" version="1.1" xmlns="http://www.w3.org/2000/svg" xmlns:xlink="http://www.w3.org/1999/xlink">
    <!-- Generator: Sketch 51.2 (57519) - http://www.bohemiancoding.com/sketch -->
    <title>Gold</title>
    <desc>Created with Sketch.</desc>
    <defs></defs>
    <g id="Page-1" stroke="none" stroke-width="1" fill="none" fill-rule="evenodd">
        <g id="Gold" fill-rule="nonzero">
            <path d="M96.8,75.1 L50.3,75.1 L51.1,72 L57.2,47.3 C57.6,45.9 58.8,44.9 60.3,44.9 L86.9,44.9 C88.4,44.9 89.7,45.9 90,47.3 L96.1,72 L96.8,75.1 Z" id="Shape" fill="#4988FD"></path>
            <path d="M72.7,105.3 L26.2,105.3 L27,102.1 L33,77.5 C33.4,76.1 34.6,75.1 36.1,75.1 L62.7,75.1 C64.2,75.1 65.5,76.1 65.8,77.5 L71.8,102.1 L72.7,105.3 Z" id="Shape" fill="#4988FD"></path>
            <path d="M122.2,105.3 L75.7,105.3 L76.5,102.1 L82.5,77.5 C82.9,76.1 84.1,75.1 85.6,75.1 L112.2,75.1 C113.7,75.1 115,76.1 115.3,77.5 L121.3,102.1 L122.2,105.3 Z" id="Shape" fill="#4988FD"></path>
            <path d="M48.8,135.6 L2.3,135.6 L3,132.7 L9.1,107.8 C9.4,106.4 10.7,105.4 12.2,105.4 L38.8,105.4 C40.3,105.4 41.6,106.4 41.9,107.8 L48,132.7 L48.8,135.6 Z" id="Shape" fill="#4988FD"></path>
            <path d="M98.3,135.6 L51.8,135.6 L52.5,132.7 L58.6,107.8 C59,106.4 60.2,105.4 61.7,105.4 L88.3,105.4 C89.8,105.4 91.1,106.4 91.4,107.8 L97.5,132.7 L98.3,135.6 Z" id="Shape" fill="#4988FD"></path>
            <path d="M147.3,135.6 L100.8,135.6 L101.5,132.7 L107.6,107.8 C107.9,106.4 109.2,105.4 110.7,105.4 L137.3,105.4 C138.8,105.4 140.1,106.4 140.4,107.8 L146.5,132.7 L147.3,135.6 Z" id="Shape" fill="#4988FD"></path>
            <path d="M128.3,57.6 C127.5,57.6 126.7,57.2 126.2,56.4 C125.5,55.2 125.8,53.7 127,53 L144.6,42 C145.8,41.3 147.3,41.6 148,42.8 C148.7,44 148.4,45.5 147.2,46.2 L129.6,57.2 C129.2,57.5 128.8,57.6 128.3,57.6 Z" id="Shape" fill="#C5DCFA"></path>
            <path d="M105.2,34.8 C104.8,34.8 104.3,34.7 103.9,34.5 C102.7,33.8 102.3,32.3 103,31.1 L113.4,13.2 C114.1,12 115.6,11.6 116.8,12.3 C118,13 118.4,14.5 117.7,15.7 L107.3,33.6 C106.9,34.3 106.1,34.8 105.2,34.8 Z" id="Shape" fill="#C5DCFA"></path>
            <path d="M20.2,57.6 C19.7,57.6 19.3,57.5 18.9,57.2 L1.3,46.2 C0.1,45.5 -0.2,43.9 0.5,42.8 C1.2,41.6 2.8,41.3 3.9,42 L21.5,53 C22.7,53.7 23,55.3 22.3,56.4 C21.9,57.2 21,57.6 20.2,57.6 Z" id="Shape" fill="#C5DCFA"></path>
            <path d="M43.3,34.8 C42.4,34.8 41.6,34.4 41.1,33.6 L30.7,15.7 C30,14.5 30.4,13 31.6,12.3 C32.8,11.6 34.3,12 35,13.2 L45.4,31.1 C46.1,32.3 45.7,33.8 44.5,34.5 C44.2,34.6 43.7,34.8 43.3,34.8 Z" id="Shape" fill="#C5DCFA"></path>
            <path d="M74.6,27 C73.2,27 72.1,25.9 72.1,24.5 L72.1,3.4 C72.1,2 73.2,0.9 74.6,0.9 C76,0.9 77.1,2 77.1,3.4 L77.1,24.5 C77.1,25.8 76,27 74.6,27 Z" id="Shape" fill="#C5DCFA"></path>
            <polygon id="Shape" fill="#3973F4" points="96.8 75.1 50.3 75.1 51.1 72 96.1 72"></polygon>
            <polygon id="Shape" fill="#3973F4" points="71.9 102.1 72.7 105.3 26.2 105.3 27 102.1"></polygon>
            <polygon id="Shape" fill="#3973F4" points="122.2 105.3 75.8 105.3 76.6 102.1 121.5 102.1"></polygon>
            <polygon id="Shape" fill="#3973F4" points="48.1 132.7 48.8 135.6 2.3 135.6 3 132.7"></polygon>
            <polygon id="Shape" fill="#3973F4" points="97.6 132.7 98.3 135.6 51.8 135.6 52.6 132.7"></polygon>
            <polygon id="Shape" fill="#3973F4" points="147.3 135.6 100.8 135.6 101.5 132.7 146.6 132.7"></polygon>
        </g>
    </g>
</svg>