<?xml version="1.0" encoding="UTF-8"?>
<svg width="149px" height="97px" viewBox="0 0 149 97" version="1.1" xmlns="http://www.w3.org/2000/svg" xmlns:xlink="http://www.w3.org/1999/xlink">
    <!-- Generator: Sketch 51.2 (57519) - http://www.bohemiancoding.com/sketch -->
    <title>Group</title>
    <desc>Created with Sketch.</desc>
    <defs>
        <linearGradient x1="49.939375%" y1="100.421182%" x2="49.939375%" y2="45.4211823%" id="linearGradient-1">
            <stop stop-color="#4988FD" offset="0%"></stop>
            <stop stop-color="#3973F4" offset="100%"></stop>
        </linearGradient>
        <linearGradient x1="50.2505%" y1="100.344882%" x2="50.2505%" y2="45.3543307%" id="linearGradient-2">
            <stop stop-color="#4988FD" offset="0%"></stop>
            <stop stop-color="#3973F4" offset="100%"></stop>
        </linearGradient>
        <linearGradient x1="50.1729282%" y1="63.2688889%" x2="50.1729282%" y2="16.3133333%" id="linearGradient-3">
            <stop stop-color="#4988FD" offset="0%"></stop>
            <stop stop-color="#3973F4" offset="100%"></stop>
        </linearGradient>
    </defs>
    <g id="Page-1" stroke="none" stroke-width="1" fill="none" fill-rule="evenodd">
        <g id="Group" fill-rule="nonzero">
            <g transform="translate(23.000000, 0.000000)" id="Shape">
                <path d="M90.4,96.1 L4.7,96.1 C1.9,96.1 -0.2,93.6 0.2,90.9 C1,85.3 2.2,84.1 10.6,80.7 L12.6,79.9 C16.4,78.4 21.5,76.4 28.3,73.6 C29.9,73 31.1,71.7 31.7,70.3 C32.1,69.5 32.3,68.5 32.3,67.6 L32.3,54.8 C32.1,54.5 31.9,54.3 31.7,54 C30.6,52.4 29.9,50.5 29.7,48.5 L28.6,48 C25.3,48.8 25.6,45.3 24.7,38.6 C24.4,35.8 24.8,35.2 26,34.8 L27,33.4 C20.7,19.1 23.9,10.2 30.1,7 C28,2.5 27.9,0.9 27.9,0.9 C27.9,0.9 41.2,3.1 45.7,2.2 C51.5,1.1 60.4,2.4 63.7,10.1 C69.2,12.3 71.3,15.8 71.8,19.5 C72.6,25.5 69.2,32.1 68.5,34.7 C68.6,34.8 68.6,34.9 68.7,35 C69.6,35.4 69.9,36.2 69.6,38.6 C68.8,45 69,48.9 65.7,48 L62.8,53.1 C62.7,53.7 62.6,53.9 62.6,54.3 C62.5,55.3 62.5,57.1 62.5,67.6 C62.5,68.9 62.9,70.1 63.5,71.1 C64.2,72.2 65.3,73.1 66.5,73.7 C66.5,73.7 66.6,73.7 66.6,73.8 C66.6,73.8 66.6,73.8 66.6,73.8 C74.1,76.9 79.6,79 83.5,80.6 C92.4,84.1 93.8,85.2 94.6,91.1 C95.4,93.7 93.2,96.1 90.4,96.1 Z" fill="#4988FD"></path>
                <path d="M68.8,34.6 C69.1,33 68.3,31 67.8,29.6 C67.7,29.4 67.6,29.1 67.5,28.9 C65,23.8 59.3,21.7 53.9,21.4 C40.1,20.7 38.8,23.3 34.5,19.4 C35.8,21.4 36,24.6 33.9,28.6 C32.5,31.4 29.7,32.6 27.2,33.4 C20.9,19.1 24.1,10.2 30.3,7 C28.2,2.5 28.1,0.9 28.1,0.9 C28.1,0.9 41.4,3.1 45.9,2.2 C51.7,1.1 60.6,2.4 63.9,10.1 C69.4,12.3 71.5,15.8 72,19.5 C72.9,25.4 69.4,32 68.8,34.6 Z" fill="#3973F4"></path>
                <path d="M11,80.7 C11.6,80.4 12.3,80.2 13,79.9" fill="#FFFFFF"></path>
                <path d="M87.2,96.1 C90.6,91 89.3,86.1 83.8,80.4 C92.7,83.9 94.1,85 94.9,90.9 C95.3,93.6 93.1,96.1 90.4,96.1 L87.2,96.1 Z" fill="#3973F4"></path>
                <path d="M63.8,71.1 L63.8,73.6 L31.8,73.6 L31.8,70.3 C32.2,69.5 32.4,68.5 32.4,67.6 L32.4,54.8 C32.2,54.5 32,54.3 31.8,54 L31.8,53.3 C32.5,54.5 33.4,55.5 34.4,56.4 L44.4,63.4 C46.7,65.4 50.1,65.4 52.5,63.5 L61.9,55.1 C62.2,54.8 62.5,54.5 62.8,54.2 C62.7,55.2 62.7,57 62.7,67.5 C62.8,68.9 63.1,70.1 63.8,71.1 Z" fill="url(#linearGradient-1)"></path>
            </g>
            <g transform="translate(95.000000, 20.000000)" id="Shape">
                <path d="M50.1,60.5 L24.5,60.5 C22.1,58.2 18.6,56.7 14,54.9 C12.9,54.4 11.6,54 10.2,53.4 C7.9,52.5 5.1,51.4 2,50.1 C4.3,49.2 7.3,48 11.3,46.4 C12.3,46 13,45.2 13.5,44.3 C13.7,43.8 13.9,43.2 13.9,42.6 L13.9,34.6 C13.8,34.4 13.6,34.3 13.5,34.1 C12.8,33.1 12.4,31.9 12.2,30.6 L11.5,30.3 C9.5,30.8 9.6,28.6 9.1,24.4 C8.9,22.6 9.1,22.3 9.9,22 L10.6,21.1 C9.1,17.7 8.4,14.8 8.4,12.3 C8.4,8.4 10.1,5.8 12.5,4.6 C11.2,1.8 11.1,0.8 11.1,0.8 C11.1,0.8 19.4,2.2 22.3,1.6 C25.9,0.9 31.5,1.7 33.6,6.5 C37,7.9 38.4,10.1 38.7,12.4 C39.2,16.1 37.1,20.3 36.7,21.9 C36.7,22 36.8,22 36.8,22.1 C37.3,22.4 37.5,22.8 37.3,24.4 C36.8,28.4 36.9,30.8 34.9,30.3 L33.1,33.5 C33,33.9 33,34 33,34.3 C32.9,34.9 33,36.1 33,42.6 C33,43.4 33.2,44.1 33.6,44.8 C34.1,45.5 34.7,46.1 35.5,46.4 C35.5,46.4 35.5,46.4 35.6,46.4 C35.6,46.4 35.6,46.4 35.6,46.4 C40.3,48.4 43.7,49.6 46.2,50.6 C51.7,52.8 52.6,53.5 53.2,57.2 C53.2,59 51.9,60.5 50.1,60.5 Z" fill="#4988FD"></path>
                <path d="M36.6,22 C36.8,21 36.3,19.7 35.9,18.9 C35.8,18.8 35.8,18.6 35.7,18.5 C34.1,15.3 30.6,14 27.2,13.8 C18.6,13.3 17.8,15 15.1,12.5 C15.9,13.8 16,15.7 14.7,18.2 C13.8,19.9 12.1,20.7 10.5,21.2 C6.6,12.3 8.5,6.7 12.4,4.7 C11.1,1.9 11,0.9 11,0.9 C11,0.9 19.3,2.3 22.1,1.7 C25.7,1 31.3,1.8 33.4,6.6 C36.8,8 38.2,10.1 38.5,12.5 C39.1,16.3 37,20.4 36.6,22 Z" fill="#3973F4"></path>
                <path d="M0.5,50.9 C0.9,50.7 1.3,50.6 1.8,50.4" fill="#FFFFFF"></path>
                <path d="M48.1,60.5 C50.2,57.3 49.4,54.3 46,50.7 C51.6,52.9 52.4,53.6 53,57.3 C53.2,59 51.9,60.5 50.2,60.5 L48.1,60.5 Z" fill="#3973F4"></path>
                <path d="M33.4,44.8 L33.4,46.4 L13.4,46.4 L13.4,44.4 C13.6,43.9 13.8,43.3 13.8,42.7 L13.8,34.7 C13.7,34.5 13.5,34.4 13.4,34.2 L13.4,33.7 C13.8,34.4 14.4,35.1 15,35.7 L21.3,40.1 C22.8,41.3 24.9,41.4 26.4,40.2 L32.3,34.9 C32.5,34.7 32.7,34.5 32.9,34.4 C32.8,35 32.9,36.2 32.9,42.7 C32.8,43.4 33,44.2 33.4,44.8 Z" fill="url(#linearGradient-2)"></path>
            </g>
            <g transform="translate(0.000000, 24.000000)" id="Shape">
                <g>
                    <path d="M13.8,31.4 C14.2,32 14.7,32.5 15.3,33.1 C15.7,33.5 16.2,33.9 16.8,34.3 C17.1,34.5 17.5,34.8 17.8,35 C17.9,35.1 17.9,35.1 18,35.2 C18.1,35.3 18.2,35.3 18.3,35.4 L18.3,38.6 C18.2,38.5 18.2,38.5 18.1,38.4 C17.8,38.1 17.5,37.9 17.2,37.7 C16.7,37.4 16.3,37.1 15.8,36.8 C15.6,36.7 15.5,36.6 15.3,36.5 C13.8,35.6 12.4,34.6 12.4,33.6 C12.4,32.9 12.8,32.2 13.8,31.4 Z M44.2,55 L45.3,55 C45.4,55 45.5,55 45.5,55 C45.4,55 45.4,55 45.3,55 L44.2,55 Z M39.1,41.6 C37.6,40.8 35.8,40.3 33.9,40.3 C33.3,40.3 32.8,40.3 32.4,40.3 C29.2,40.2 28.9,39.7 28.9,39.7 L28.9,34.4 C32.3,31.6 35.1,28.4 35.9,24.2 C38,23.7 39.3,21.8 39.1,19.7 C39,18.8 38.4,17.9 38.4,17 C38.4,16.5 38.4,16.1 38.4,15.6 C38.4,15.3 38.4,15 38.4,14.6 C38.4,14.3 38.4,14 38.3,13.6 C38.1,12 37.7,10.4 36.7,8.5 C34.1,3.6 28.9,0.3 23,0.3 C21.8,0.3 20.6,0.4 19.5,0.7 C17.4,1.2 15.5,2.1 13.8,3.4 C13.5,3.7 13.1,3.9 12.8,4.2 C12.7,4.3 12.6,4.3 12.6,4.4 C10.7,6.1 9.3,8.3 8.5,10.7 C7.7,13.1 7.5,15.7 7.8,18.2 C7.8,18.2 7.8,18.3 7.8,18.4 C7.8,18.5 7.8,18.5 7.8,18.6 C7.9,19 8,19 7.7,19.4 C7.6,19.5 7.5,19.7 7.4,19.8 C7,20.5 6.7,21.5 7.1,22.7 C7.9,24.9 9.5,24.6 10.9,25.9 C10.8,25.9 10.7,26 10.7,26 L10.6,26 L9,26.5 C-0.8,29.6 -1.9,40 8.2,42 C7.5,42.1 6.8,42.5 6.3,42.8 C3.1,45.3 1.1,49.1 0.5,52.9 C0.3,54 1.2,55.1 2.4,55.1 L23.6,55.1 C25.6,53.7 28.2,52.6 31.5,51.3 L35.9,49.6 C37.7,48.9 39.8,48.1 42.2,47.1 C42.9,46.8 43.7,46.5 44.4,46.2 C42.9,44.2 41.2,42.7 39.1,41.6 Z" fill="#4988FD"></path>
                    <path d="M32.4,40.3 C31.9,42.2 31.3,43.4 31.3,43.4 L14.3,40.7 L15.3,36.5 C15.5,36.6 15.6,36.7 15.8,36.8 C16.3,37.1 16.8,37.4 17.2,37.7 C17.5,37.9 17.8,38.1 18.1,38.4 C18.2,38.4 18.2,38.5 18.3,38.6 L18.3,35.4 C18.2,35.3 18.1,35.3 18,35.2 C20.7,36.6 24.2,37.3 29.1,34.4 C29.1,34.4 29,34.5 29,34.5 L29,39.8 C28.9,39.7 29.3,40.2 32.4,40.3 Z" fill="url(#linearGradient-3)"></path>
                    <path d="M44.3,46.1 C43.5,46.4 42.8,46.7 42.1,47 C41.4,45.2 40.4,43.5 39.2,41.7 C41.2,42.7 42.9,44.2 44.3,46.1 Z" fill="#3973F4"></path>
                    <path d="M47.2,53.6 C47.1,53.8 47.1,53.9 47,54.1 C47,54 47.1,53.8 47.2,53.6 Z" fill="#3973F4"></path>
                </g>
                <path d="M38.3,14.6 C35.5,15.6 32.4,16 29.4,15.7 C24.7,15.3 20.1,13.4 16.5,10.3 C15.3,13.7 12.3,16.3 9,17.8 C8.6,18 8.1,18.2 7.6,18.4 C7.6,18.3 7.6,18.3 7.6,18.2 C7.3,15.7 7.5,13.2 8.3,10.7 C9.1,8.3 10.5,6.1 12.4,4.4 C12.5,4.3 12.6,4.3 12.6,4.2 C12.9,3.9 13.3,3.6 13.6,3.4 C15.3,2.1 17.3,1.2 19.3,0.7 C20.5,0.4 21.6,0.3 22.8,0.3 C28.7,0.3 33.8,3.6 36.5,8.5 C37.5,10.4 37.9,12 38.1,13.6 C38.3,14 38.3,14.3 38.3,14.6 Z" fill="#3973F4"></path>
                <path d="M14,31.6 C14.4,32.1 14.8,32.6 15.3,33 C15.3,33 15.3,33 15.3,33 C14.8,32.6 14.4,32.1 14,31.6 Z" fill="#3973F4"></path>
                <path d="M20.2,48.2 C18.9,49.8 16.6,49.8 14.6,49.8 C16.7,47.8 15.5,41.1 8.2,41.9 L8.1,41.9 C-2,40 -0.9,29.5 8.9,26.4 L10.5,25.9 C10.6,26 10.7,26.1 10.8,26.1 C11.6,28.1 12.6,29.9 13.8,31.3 C9.8,34.7 15.4,35.7 18.1,38.3 C20.4,39.7 22.4,45.5 20.2,48.2 Z" fill="#3973F4"></path>
                <path d="M14,31.6 C13.9,31.5 13.9,31.5 13.8,31.4 C13.9,31.4 13.9,31.5 14,31.6 Z" fill="#3973F4"></path>
            </g>
            <path d="M45.4,79 C45.5,79 45.5,79 45.6,79 C45.5,79 45.4,79 45.4,79 L44.3,79 L45.4,79 Z" id="Shape" fill="#4988FD"></path>
            <path d="M46.9,78.1 C47,78 47.1,77.8 47.1,77.6 C47.1,77.8 47,78 46.9,78.1 Z" id="Shape" fill="#4988FD"></path>
        </g>
    </g>
</svg>