<?xml version="1.0" encoding="UTF-8"?>
<svg width="88px" height="132px" viewBox="0 0 88 132" version="1.1" xmlns="http://www.w3.org/2000/svg" xmlns:xlink="http://www.w3.org/1999/xlink">
    <!-- Generator: Sketch 51.2 (57519) - http://www.bohemiancoding.com/sketch -->
    <title>Gym</title>
    <desc>Created with Sketch.</desc>
    <defs></defs>
    <g id="Page-1" stroke="none" stroke-width="1" fill="none" fill-rule="evenodd">
        <g id="Gym">
            <ellipse id="Oval" stroke="#ACCFFD" stroke-width="2.7225" cx="43.8" cy="110.1" rx="23.3" ry="7.9"></ellipse>
            <ellipse id="Oval" stroke="#D5E6FD" stroke-width="3.4125" cx="43.8" cy="112.9" rx="41.8" ry="17.2"></ellipse>
            <path d="M13.5,42.9 C13.5,26.1 27.1,12.5 43.9,12.5 C60.7,12.5 74.3,26.1 74.3,42.9 C74.3,59.7 60.7,73.3 43.9,73.3 C27.1,73.3 13.5,59.7 13.5,42.9 Z M43.9,0.7 C19.7,0.7 0,20.4 0,44.6 C0,62.2 23.2,87.5 35.9,99.9 C38.7,102.6 42.5,103.7 46,103 C46.3,103 46.5,102.9 46.8,102.8 C46.9,102.8 47,102.8 47.1,102.7 C48.8,102.2 50.5,101.2 51.9,99.9 C62.5,89.5 80.4,70.3 86,53.9 C86.8,51.5 87.4,49.1 87.6,46.8 C87.7,46 87.7,45.3 87.7,44.5 C87.8,20.4 68.1,0.7 43.9,0.7 Z" id="Shape" fill="#4988FD" fill-rule="nonzero"></path>
            <g id="Dumbnell_1_" transform="translate(26.000000, 24.000000)" fill-rule="nonzero">
                <polygon id="Shape" fill="#ACCFFD" points="21.7 12.9 22.1 12.5 25.1 15.5 14.6 26 11.6 23 18.7 16"></polygon>
                <path d="M34.7,8.9 L32.9,7.2 C32.9,7.2 32.9,7.2 32.9,7.2 L27.4,1.9 C26.2,0.8 24.4,0.7 23.4,1.9 C22.6,2.7 22.5,4 22.9,5 C22.9,5.1 23,5.1 23,5.2 C23.1,5.3 23.1,5.4 23.2,5.5 C23.3,5.7 23.5,5.8 23.6,6 L30.8,13.1 C31,13.3 31.3,13.5 31.6,13.7 C31.7,13.7 31.7,13.7 31.8,13.8 C32.8,14.2 34.1,14 34.9,13.2 C35.9,11.9 35.9,10 34.7,8.9 Z" id="Shape" fill="#3973F4"></path>
                <path d="M33.9,15.8 L32.2,14.1 L31.7,13.6 L29.3,11.3 L23,5.2 L20.9,3.2 L20.8,3.1 C19.5,1.8 17.3,1.9 16,3.3 C14.8,4.5 14.7,6.4 15.6,7.7 C15.7,7.9 15.9,8 16,8.2 L29,21 C30.3,22.3 32.5,22.2 33.8,20.8 C35.2,19.3 35.2,17.1 33.9,15.8 Z" id="Shape" fill="#3973F4"></path>
                <path d="M20.1,30.5 L18.3,28.8 L7,17.7 C5.7,16.4 3.5,16.5 2.2,17.9 C1,19.1 0.9,21 1.8,22.3 C1.9,22.5 2,22.6 2.2,22.8 C2.2,22.8 2.2,22.8 2.2,22.8 L4.5,25.1 L11.1,31.6 L13.2,33.6 L15.2,35.6 C16.5,36.9 18.7,36.8 20,35.4 C21.3,34 21.5,31.8 20.1,30.5 Z" id="Shape" fill="#3973F4"></path>
                <path d="M13.4,33.6 C13.4,33.5 13.3,33.5 13.3,33.4 C13.2,33.2 13,33 12.8,32.8 L11,31.1 C11,31.1 11,31.1 11,31.1 L5.4,25.6 C5.2,25.4 5,25.3 4.8,25.2 C4.7,25.2 4.7,25.1 4.6,25.1 C3.5,24.5 2.2,24.7 1.3,25.6 C0.4,26.6 0.3,28.1 1.1,29.3 C1.2,29.5 1.4,29.6 1.5,29.8 L8.8,37 C10,38.2 11.8,38.2 12.9,37.1 C13.9,36.1 14,34.7 13.4,33.6 Z" id="Shape" fill="#3973F4"></path>
                <path d="M32.9,7.2 C32.9,7.2 32.9,7.2 32.9,7.2 L27.4,1.8 C26.2,0.7 24.4,0.6 23.4,1.8 C22.6,2.6 22.5,3.9 22.9,4.9 L20.8,2.8 C20.8,2.9 20.9,2.9 20.9,3 C21,3.2 21.2,3.4 21.4,3.6 L23.2,5.3 L28.7,10.7 C28.9,10.9 29.1,11 29.3,11.2 C29.4,11.2 29.4,11.3 29.5,11.3 C30.6,11.8 31.9,11.6 32.7,10.7 C33.6,9.8 33.7,8.3 32.9,7.2 Z" id="Shape" fill="#4988FD"></path>
                <path d="M32.1,14 C32,13.9 31.9,13.7 31.8,13.6 C31.8,13.6 31.7,13.5 31.7,13.5 L29.5,11.3 L23,4.9 L20.9,2.8 C20.9,2.9 21,2.9 21,3 L20.9,2.9 C19.6,1.6 17.4,1.7 16.1,3.1 C14.9,4.3 14.8,6.2 15.7,7.5 L27,18.5 C28.3,19.8 30.5,19.7 31.8,18.3 C32.9,17.2 33,15.4 32.1,14 Z" id="Shape" fill="#4988FD"></path>
                <path d="M18.4,28.8 L7.1,17.7 C5.8,16.4 3.6,16.5 2.3,17.9 C1.1,19.1 1,21 1.9,22.3 L2.5,22.8 L4.9,25.1 L11.2,31.3 L13.2,33.3 C13.2,33.3 13.2,33.3 13.2,33.3 C14.5,34.6 16.6,34.5 17.9,33.1 C19.1,32 19.3,30.1 18.4,28.8 Z" id="Shape" fill="#4988FD"></path>
                <path d="M11.3,31.6 C11.3,31.5 11.2,31.5 11.2,31.4 C11.1,31.3 11.1,31.2 11,31.1 C11,31.1 11,31.1 11,31.1 C10.9,30.9 10.7,30.8 10.6,30.6 L3.3,23.4 C3.1,23.2 2.8,23 2.5,22.8 C2.4,22.8 2.4,22.7 2.3,22.7 C2.3,22.7 2.3,22.7 2.3,22.7 L4.6,25 C3.5,24.4 2.2,24.6 1.3,25.5 C0.4,26.5 0.3,28 1.1,29.2 L6.7,34.7 C7.9,35.9 9.7,35.9 10.8,34.8 C11.6,33.9 11.8,32.7 11.3,31.6 Z" id="Shape" fill="#4988FD"></path>
            </g>
        </g>
    </g>
</svg>