<?xml version="1.0" encoding="UTF-8"?>
<svg width="147px" height="149px" viewBox="0 0 147 149" version="1.1" xmlns="http://www.w3.org/2000/svg" xmlns:xlink="http://www.w3.org/1999/xlink">
    <!-- Generator: Sketch 51.2 (57519) - http://www.bohemiancoding.com/sketch -->
    <title>Headphones</title>
    <desc>Created with Sketch.</desc>
    <defs></defs>
    <g id="Page-1" stroke="none" stroke-width="1" fill="none" fill-rule="evenodd">
        <g id="Headphones" fill-rule="nonzero">
            <path d="M135.9,85.2 L135.9,67.9 C135.9,49.5 127.9,32.9 115.2,21.5 L117,19.6 C118,18.5 117.9,16.8 116.8,15.9 C105.1,6.1 90,0.2 73.5,0.2 C56.7,0.2 41.3,6.4 29.4,16.5 C28.3,17.5 28.2,19.2 29.3,20.3 L31.1,22.1 C18.8,33.5 11,49.8 11,67.9 L11,85.4 C4.7,89.1 0.5,96 0.5,103.8 L0.5,116 C0.5,127.8 10.1,137.4 21.9,137.4 L21.9,138.9 C21.9,144 26,148.1 31.1,148.1 C36.2,148.1 40.3,144 40.3,138.9 L40.3,80.8 C40.3,75.7 36.2,71.6 31.1,71.6 C26,71.6 21.9,75.7 21.9,80.8 L21.9,82.3 C21.1,82.3 20.4,82.3 19.6,82.4 L19.6,67.8 C19.6,52.1 26.4,37.9 37.2,28 L39.3,30.1 C40.2,31 41.7,31.1 42.7,30.2 C51.1,23.4 61.7,19.3 73.3,19.3 C84.8,19.3 95.3,23.3 103.7,30 C104.8,30.9 106.3,30.8 107.2,29.8 L109.1,27.7 C120.1,37.6 127.1,51.9 127.1,67.8 L127.1,82.4 C126.5,82.3 125.9,82.3 125.2,82.3 L125.2,80.8 C125.2,75.7 121.1,71.6 116,71.6 C110.9,71.6 106.8,75.7 106.8,80.8 L106.8,138.9 C106.8,144 110.9,148.1 116,148.1 C121.1,148.1 125.2,144 125.2,138.9 L125.2,137.4 C137,137.4 146.6,127.8 146.6,116 L146.6,103.8 C146.8,95.9 142.4,88.9 135.9,85.2 Z" id="Shape" fill="#DFECFD"></path>
            <path d="M131.6,105.9 C129.2,105.9 127.3,104 127.3,101.6 L127.3,68 C127.3,38.3 103.2,14.2 73.5,14.2 C43.8,14.2 19.7,38.3 19.7,68 L19.7,101.6 C19.7,104 17.8,105.9 15.4,105.9 C13,105.9 11.1,104 11.1,101.6 L11.1,68 C11.1,33.6 39.1,5.6 73.5,5.6 C107.9,5.6 135.9,33.6 135.9,68 L135.9,101.6 C135.9,104 134,105.9 131.6,105.9 Z" id="Shape" fill="#2767F4"></path>
            <path d="M13.7,135.8 C6,132.6 0.6,124.9 0.6,116.1 L0.6,103.9 C0.6,92.1 10.2,82.5 22,82.5 L22,137.5" id="Shape" fill="#4988FD"></path>
            <path d="M125.4,137.5 L125.9,137.5 C137.4,137.5 146.8,128.1 146.8,116.6 L146.8,103.3 C146.8,91.8 137.4,82.4 125.9,82.4 L125.4,82.4 L125.4,137.5 Z" id="Shape" fill="#4988FD"></path>
            <path d="M117.7,18.4 C117.6,18.9 117.4,19.3 117.1,19.6 L107.5,29.9 C107.1,30.4 106.5,30.6 105.9,30.7 C105.2,30.8 104.5,30.6 104,30.1 C101,27.7 97.8,25.7 94.4,24 C88.1,21 81.1,19.3 73.7,19.3 C62.3,19.3 51.8,23.3 43.5,29.9 C43.4,30 43.3,30.1 43.1,30.2 C42.1,31 40.6,31 39.7,30.1 L29.6,20.2 C28.5,19.1 28.6,17.4 29.7,16.4 C41.6,6.2 57,0.1 73.8,0.1 C90.2,0.1 105.3,6 117.1,15.8 C117.5,16.5 117.8,17.5 117.7,18.4 Z" id="Shape" fill="#DFECFD"></path>
        </g>
    </g>
</svg>