<?xml version="1.0" encoding="UTF-8"?>
<svg width="121px" height="102px" viewBox="0 0 121 102" version="1.1" xmlns="http://www.w3.org/2000/svg" xmlns:xlink="http://www.w3.org/1999/xlink">
    <!-- Generator: Sketch 51.2 (57519) - http://www.bohemiancoding.com/sketch -->
    <title>Heart</title>
    <desc>Created with Sketch.</desc>
    <defs></defs>
    <g id="Page-1" stroke="none" stroke-width="1" fill="none" fill-rule="evenodd">
        <g id="Heart" fill-rule="nonzero">
            <path d="M116.1,17.3 C104.4,-2.7 75.8,-5.4 60.8,13.3 C45.8,-5.3 17.2,-2.7 5.4,17.3 C-4.6,34.3 2.6,50 15.4,65.1 L15.3,65.1 C28.4,80.7 46.9,94.3 55.7,99.8 C57.2,100.7 58.9,101.2 60.5,101.2 C62.3,101.3 64.1,100.8 65.7,99.8 C74.5,94.3 93,80.7 106.1,65.1 L106,65.1 C118.8,50.1 126.2,34.4 116.1,17.3 Z" id="Shape" fill="#4988FD"></path>
            <path d="M61.5,66.5 C61.5,66.5 61.5,66.5 61.5,66.5 C60.4,66.5 59.4,65.8 59,64.8 L48.4,35.6 L38.7,58.8 C38.3,59.8 37.4,60.4 36.3,60.4 C35.3,60.4 34.3,59.8 33.8,58.9 L23.4,37.6 L17.8,42.7 C17.3,43.1 16.7,43.4 16,43.4 L12.6,43.4 C11.1,43.4 9.9,42.2 9.9,40.7 C9.9,39.2 11.1,38 12.6,38 L15,38 L22.5,31.3 C23.1,30.7 24,30.5 24.8,30.7 C25.6,30.9 26.3,31.4 26.7,32.1 L36.1,51.3 L46.2,27.3 C46.6,26.3 47.6,25.7 48.6,25.7 C48.6,25.7 48.6,25.7 48.7,25.7 C49.8,25.7 50.8,26.4 51.1,27.4 L61.6,56.3 L69.3,36.2 C69.7,35.3 70.5,34.6 71.6,34.5 C72.6,34.4 73.6,34.9 74.1,35.8 L76.3,39.6 L78.3,35.6 C78.7,34.8 79.4,34.3 80.3,34.1 C81.2,34 82,34.3 82.6,34.9 C84.9,37.4 87.7,40.3 89.2,41.7 C91.3,40.8 95.7,38.8 99.7,37 C100,36.8 100.4,36.8 100.8,36.8 L108.3,36.7 C108.3,36.7 108.3,36.7 108.3,36.7 C109.7,36.7 110.9,37.9 111,39.3 C111,40.8 109.9,42 108.4,42 L101.4,42.1 C89.8,47.5 89.3,47.5 88.7,47.5 C87.6,47.5 87.1,47.5 81.4,41.5 L79,46.5 C78.6,47.4 77.7,47.9 76.7,48 C75.7,48 74.8,47.5 74.3,46.7 L72.4,43.4 L64.1,65 C63.6,65.8 62.6,66.5 61.5,66.5 Z" id="Shape" fill="#FFFFFF"></path>
        </g>
    </g>
</svg>