<?xml version="1.0" encoding="UTF-8"?>
<svg width="146px" height="144px" viewBox="0 0 146 144" version="1.1" xmlns="http://www.w3.org/2000/svg" xmlns:xlink="http://www.w3.org/1999/xlink">
    <!-- Generator: Sketch 51.2 (57519) - http://www.bohemiancoding.com/sketch -->
    <title>Help_1_</title>
    <desc>Created with Sketch.</desc>
    <defs></defs>
    <g id="Page-1" stroke="none" stroke-width="1" fill="none" fill-rule="evenodd">
        <g id="Help_1_" fill-rule="nonzero">
            <path d="M110.7,31.7 L110.7,143.4 L16.4,143.4 C16.1,143.4 15.8,143.4 15.6,143.4 C15.3,143.4 15.1,143.4 14.8,143.3 C14,143.2 13.3,143.1 12.6,142.9 C12.5,142.9 12.3,142.8 12.2,142.8 C12,142.8 11.8,142.7 11.6,142.6 C11.3,142.5 11.1,142.4 10.8,142.3 C10.8,142.3 10.8,142.3 10.7,142.3 C10.5,142.2 10.2,142.1 10,142 C9.7,141.9 9.5,141.8 9.3,141.7 C9.1,141.6 8.8,141.5 8.6,141.3 C8.4,141.2 8.1,141 7.9,140.9 C7.6,140.8 7.4,140.6 7.1,140.4 C6.2,139.8 5.5,139.2 4.7,138.4 C4.5,138.2 4.3,138 4.2,137.8 C3.7,137.2 3.2,136.6 2.7,135.9 C2.5,135.7 2.4,135.5 2.3,135.3 C2.1,135 1.9,134.7 1.8,134.4 C1.6,134.1 1.5,133.8 1.3,133.4 C1.3,133.4 1.3,133.3 1.3,133.3 C1.2,133.1 1.1,133 1.1,132.8 C1,132.6 0.9,132.4 0.9,132.2 C0.7,131.7 0.6,131.1 0.4,130.6 C0.4,130.4 0.3,130.2 0.3,130 C0.1,129.3 0,128.5 0,127.8 C0,127.6 0,127.4 0,127.2 L0,127.1 C0,126.9 0,126.7 0,126.6 L0,16.3 C0.2,7.3 7.6,0.2 16.6,0.2 L108.4,0.2 L108.4,0.3 C100.5,1.1 96.8,7.8 96.8,15.9 C96.8,20.2 98.6,24.2 101.4,27 C103.7,29.6 107,31.3 110.7,31.7 Z" id="Shape" fill="#FFFFFF"></path>
            <path d="M110.7,31.7 L110.7,143.4 L16.4,143.4 C16.1,143.4 15.8,143.4 15.6,143.4 C15.3,143.4 15.1,143.4 14.8,143.3 C14,143.2 13.3,143.1 12.6,142.9 C12.5,142.9 12.3,142.8 12.2,142.8 C12,142.8 11.8,142.7 11.6,142.6 C11.3,142.5 11.1,142.4 10.8,142.3 C10.8,142.3 10.8,142.3 10.7,142.3 C10.5,142.2 10.2,142.1 10,142 C9.7,141.9 9.5,141.8 9.3,141.7 C9.1,141.6 8.8,141.5 8.6,141.3 C8.4,141.2 8.1,141 7.9,140.9 C7.6,140.8 7.4,140.6 7.1,140.4 C6.2,139.8 5.5,139.2 4.7,138.4 C4.5,138.2 4.3,138 4.2,137.8 C3.7,137.2 3.2,136.6 2.7,135.9 C2.5,135.7 2.4,135.5 2.3,135.3 C2.1,135 1.9,134.7 1.8,134.4 C1.6,134.1 1.5,133.8 1.3,133.4 C1.3,133.4 1.3,133.3 1.3,133.3 C1.2,133.1 1.1,133 1.1,132.8 C1,132.6 0.9,132.4 0.9,132.2 C0.7,131.7 0.6,131.1 0.4,130.6 C0.4,130.4 0.3,130.2 0.3,130 C0.1,129.3 0,128.5 0,127.8 C0,127.6 0,127.4 0,127.2 L0,127.1 C0,126.9 0,126.7 0,126.6 L0,16.3 C0.2,7.3 7.6,0.2 16.6,0.2 L108.4,0.2 L108.4,0.3 C100.5,1.1 96.8,7.8 96.8,15.9 C96.8,20.2 98.6,24.2 101.4,27 C103.7,29.6 107,31.3 110.7,31.7 Z" id="Shape" fill="#2767F4"></path>
            <path d="M110.7,31.7 L110.7,143.3 L16.4,143.3 C16.1,143.3 15.8,143.3 15.6,143.3 C15.3,143.3 15.1,143.3 14.8,143.2 C14,143.1 13.3,143 12.6,142.8 C12.5,142.8 12.3,142.7 12.2,142.7 C12,142.7 11.8,142.6 11.6,142.5 C11.3,142.4 11.1,142.3 10.8,142.2 C10.8,142.2 10.8,142.2 10.7,142.2 C10.5,142.1 10.2,142 10,141.9 C9.7,141.8 9.5,141.7 9.3,141.6 C9.1,141.5 8.8,141.4 8.6,141.2 C8.4,141.1 8.1,140.9 7.9,140.8 C7.6,140.7 7.4,140.5 7.1,140.3 C6.2,139.7 5.4,139.1 4.7,138.3 C4.5,138.1 4.3,137.9 4.2,137.7 C3.7,137.1 3.2,136.5 2.7,135.8 C2.5,135.6 2.4,135.4 2.3,135.2 C2.1,134.9 1.9,134.6 1.8,134.3 C1.6,134 1.5,133.7 1.3,133.3 C1.3,133.3 1.3,133.2 1.3,133.2 C1.2,133 1.1,132.9 1.1,132.7 C1,132.5 0.9,132.3 0.9,132.1 C0.7,131.6 0.6,131 0.4,130.5 C0.4,130.3 0.3,130.1 0.3,129.9 C0.1,129.2 0,128.4 0,127.7 C0,127.5 0,127.3 0,127.1 L0,127 C0,126.8 0,126.6 0,126.5 L0,16.2 C0.1,20.4 1.9,24.1 4.6,26.9 C7.4,29.7 11.4,31.5 15.7,31.5 L110,31.5 C110,31.8 110.5,31.7 110.7,31.7 Z" id="Shape" fill="#4988FD"></path>
            <path d="M110.7,56.2 L110.7,130.8 C92,128.7 77.4,112.8 77.4,93.5 C77.4,74.2 91.9,58.3 110.7,56.2 Z" id="Shape" fill="#2767F4"></path>
            <path d="M18.3,31.8 L18.3,63.8 C18.3,65.6 20.4,66.7 21.9,65.6 L30,59.5 C31,58.8 32.3,58.8 33.3,59.5 L41.4,65.6 C42.9,66.7 45,65.7 45,63.8 L45,31.8" id="Shape" fill="#C5DCFA"></path>
            <g id="Group" transform="translate(80.000000, 54.000000)">
                <path d="M60.5,15 C63.9,20.2 65.9,26.4 65.9,33 C65.9,51.2 51.2,65.9 33,65.9 C14.8,65.9 0.1,51.2 0.1,33 C0.1,14.8 14.8,0.1 33,0.1 C44.5,0.2 54.6,6.1 60.5,15" id="Shape" fill="#21D3AC"></path>
                <path d="M38,25.3 C38,23.1 36,21.1 33,21.1 C27.7,21.1 26.3,25.6 26.3,25.6 L19.3,22.5 C19.3,22.5 22.1,13 33.3,13 C41.4,13 46.7,18.3 46.7,24.2 C46.7,34.5 36.6,34.5 36.6,41.8 L29,41.8 C29,41.8 28.4,40.4 28.4,39.3 C28.5,31.1 38,31.1 38,25.3 Z M32.4,45.1 C34.9,45.1 36.9,47.1 36.9,49.3 C36.9,51.5 34.9,53.5 32.4,53.5 C29.9,53.5 27.9,51.5 27.9,49.3 C27.9,47 29.9,45.1 32.4,45.1 Z" id="Shape" fill="#FFFFFF"></path>
            </g>
        </g>
    </g>
</svg>