<?xml version="1.0" encoding="UTF-8"?>
<svg width="147px" height="143px" viewBox="0 0 147 143" version="1.1" xmlns="http://www.w3.org/2000/svg" xmlns:xlink="http://www.w3.org/1999/xlink">
    <!-- Generator: Sketch 51.2 (57519) - http://www.bohemiancoding.com/sketch -->
    <title>Help</title>
    <desc>Created with Sketch.</desc>
    <defs></defs>
    <g id="Page-1" stroke="none" stroke-width="1" fill="none" fill-rule="evenodd">
        <g id="Help" fill-rule="nonzero">
            <path d="M34,7.9 C19.2,7.9 7.2,19.9 7.2,34.7 C7.2,49.5 19.2,61.5 34,61.5 C35.8,61.5 37.5,61.3 39.1,61 C39.8,58.4 40.7,55.9 41.9,53.5 C39.4,54.5 36.8,55.1 33.9,55.1 C22.6,55.1 13.5,45.9 13.5,34.7 C13.5,23.5 22.7,14.3 33.9,14.3 C45.2,14.3 54.3,23.5 54.3,34.7 C54.3,36.7 54,38.6 53.5,40.4 C55.7,38.9 58.1,37.7 60.6,36.7 C60.7,36 60.7,35.4 60.7,34.7 C60.8,19.9 48.8,7.9 34,7.9 Z" id="Shape" fill="#2767F4"></path>
            <path d="M111.5,7.9 C96.7,7.9 84.7,19.9 84.7,34.7 C84.7,35.2 84.7,35.7 84.7,36.1 C87.1,36.9 89.4,37.9 91.5,39.2 C91.2,37.7 91,36.2 91,34.7 C91,23.4 100.2,14.3 111.4,14.3 C122.7,14.3 131.8,23.5 131.8,34.7 C131.8,45.9 122.6,55.1 111.4,55.1 C109.3,55.1 107.3,54.8 105.4,54.2 C106.5,56.4 107.3,58.8 107.9,61.2 C109,61.4 110.2,61.4 111.4,61.4 C126.2,61.4 138.2,49.4 138.2,34.6 C138.2,19.9 126.2,7.9 111.5,7.9 Z" id="Shape" fill="#2767F4"></path>
            <path d="M60.3,102.8 C57.3,101.6 54.4,100 51.9,98 C53.5,100.9 54.5,104.3 54.5,107.9 C54.5,119.2 45.3,128.3 34.1,128.3 C22.8,128.3 13.7,119.1 13.7,107.9 C13.7,96.7 22.9,87.5 34.1,87.5 C37.9,87.5 41.6,88.6 44.6,90.4 C42.8,87.8 41.2,84.9 40.1,81.8 C38.2,81.3 36.1,81.1 34,81.1 C19.2,81.1 7.2,93.1 7.2,107.9 C7.2,122.7 19.2,134.7 34,134.7 C48.8,134.7 60.8,122.7 60.8,107.9 C60.8,106.1 60.6,104.4 60.3,102.8 Z" id="Shape" fill="#2767F4"></path>
            <path d="M111.5,81.1 C110,81.1 108.5,81.2 107.1,81.5 C106.2,84.2 104.9,86.8 103.3,89.2 C105.8,88.1 108.6,87.5 111.4,87.5 C122.7,87.5 131.8,96.7 131.8,107.9 C131.8,119.1 122.6,128.3 111.4,128.3 C100.1,128.3 91,119.1 91,107.9 C91,105 91.6,102.2 92.7,99.7 C90.3,101.2 87.8,102.5 85,103.4 C84.7,104.9 84.6,106.3 84.6,107.9 C84.6,122.7 96.6,134.7 111.4,134.7 C126.2,134.7 138.2,122.7 138.2,107.9 C138.2,93.1 126.2,81.1 111.5,81.1 Z" id="Shape" fill="#2767F4"></path>
            <g id="Group">
                <path d="M136.8,51 C133.5,39.7 127.3,29.4 118.6,21.4 C117.4,20.3 116.2,19.3 114.9,18.3 C107.9,12.8 99.8,8.9 91.2,6.6 C79.6,3.5 67.2,3.4 55.6,6.6 C51.6,7.7 47.8,9.1 44.1,11 C29,18.6 16.1,33 10.5,51.2 C7.5,61.1 6.6,72 8.6,83.6 C8.8,84.5 9,85.6 9.2,86.6 C9.3,86.8 9.3,87.1 9.4,87.3 C10.3,90.1 11.1,91.9 12.3,94.3 C22.2,113.9 37.9,127.2 54.8,132.9 C60.5,134.8 66.4,135.9 72.2,136 C78.6,136.1 85,135.3 91.1,133.5 C110.5,127.9 127.4,113.5 135,94.7 C136,92.3 136.8,89.8 137.5,87.3 C140.7,75.5 140.3,62.8 136.8,51 Z M45,54.6 C48,49.1 52.6,44.5 58.1,41.5 C62.7,39 68,37.5 73.7,37.5 C78.4,37.5 82.9,38.5 86.9,40.3 C93.5,43.2 98.9,48.2 102.3,54.5 C104.9,59.2 106.3,64.5 106.3,70.2 C106.3,75.1 105.2,79.8 103.3,84 C100.1,90.8 94.7,96.4 87.9,99.6 C83.6,101.7 78.8,102.8 73.7,102.8 C68.2,102.8 62.9,101.4 58.4,99 C52.1,95.6 47.1,90.3 44.1,83.8 C42.2,79.7 41.1,75 41.1,70.2 C41,64.5 42.4,59.2 45,54.6 Z" id="Shape" fill="#4988FD"></path>
                <path d="M114.9,18.3 C107.9,12.8 99.8,8.9 91.2,6.6 C79.6,3.5 67.2,3.4 55.6,6.6 C51.6,7.7 47.8,9.1 44.1,11 C29,18.6 16.1,33 10.5,51.2 C7.5,61.1 6.6,72 8.6,83.6 C8.8,84.5 9,85.6 9.2,86.6 C21.1,100.1 39.4,108.7 60,108.7 C95.9,108.7 125,82.4 125,49.9 C125.1,38.2 121.4,27.4 114.9,18.3 Z M103.2,83.9 C100,90.7 94.6,96.3 87.8,99.5 C83.5,101.6 78.7,102.7 73.6,102.7 C68.1,102.7 62.8,101.3 58.3,98.9 C52,95.5 47,90.2 44,83.7 C42.1,79.6 41,74.9 41,70.1 C41,64.5 42.4,59.1 45,54.5 C48,49 52.6,44.4 58.1,41.4 C62.7,38.9 68,37.4 73.7,37.4 C78.4,37.4 82.9,38.4 86.9,40.2 C93.5,43.1 98.9,48.1 102.3,54.4 C104.9,59.1 106.3,64.4 106.3,70.1 C106.3,75.1 105.2,79.7 103.2,83.9 Z" id="Shape" fill="#6097FD"></path>
                <path d="M91.4,5.1 L91.2,6.6 L86.8,40.3 C82.8,38.5 78.3,37.5 73.6,37.5 C68,37.5 62.7,38.9 58,41.5 L58.1,38.6 L57,28.1 L55.7,6.6 L55.6,4.8 C55.4,2.4 57.4,0.3 59.8,0.3 L87.3,0.3 C89.8,0.3 91.8,2.6 91.4,5.1 Z" id="Shape" fill="#DFECFD"></path>
                <path d="M91.6,137.5 C91.9,140 89.9,142.1 87.4,142.1 L58.6,142.1 C56.1,142.1 54.1,139.9 54.4,137.5 L54.9,132.9 L58.3,98.9 C62.9,101.3 68.1,102.7 73.6,102.7 C78.7,102.7 83.5,101.5 87.8,99.5 L91.2,133.5 L91.6,137.5 Z" id="Shape" fill="#DFECFD"></path>
                <path d="M41,70.1 C41,75 42.1,79.6 44,83.7 L9.5,87.2 L4.6,87.7 C2.1,88 0,86 0,83.5 L0,54.7 C0,52.2 2.2,50.2 4.6,50.5 L10.6,51.1 L45,54.5 C42.4,59.2 41,64.5 41,70.1 Z" id="Shape" fill="#DFECFD"></path>
                <path d="M146.1,54.7 L146.1,83.5 C146.1,86 143.9,88 141.5,87.7 L137.6,87.3 L103.3,83.9 C105.3,79.7 106.3,75.1 106.3,70.1 C106.3,64.4 104.9,59.1 102.3,54.4 L136.8,50.9 L141.5,50.4 C143.9,50.3 146.1,52.2 146.1,54.7 Z" id="Shape" fill="#DFECFD"></path>
            </g>
        </g>
    </g>
</svg>