<?xml version="1.0" encoding="UTF-8"?>
<svg width="146px" height="128px" viewBox="0 0 146 128" version="1.1" xmlns="http://www.w3.org/2000/svg" xmlns:xlink="http://www.w3.org/1999/xlink">
    <!-- Generator: Sketch 51.2 (57519) - http://www.bohemiancoding.com/sketch -->
    <title>ID</title>
    <desc>Created with Sketch.</desc>
    <defs></defs>
    <g id="Page-1" stroke="none" stroke-width="1" fill="none" fill-rule="evenodd">
        <g id="ID" fill-rule="nonzero">
            <path d="M146,30.5 L146,121.1 C146,124.6 143.1,127.5 139.6,127.5 L6.4,127.5 C2.9,127.5 0.1,124.6 0.1,121.1 L0.1,30.5 C0.1,27 3,24.1 6.5,24.1 L139.6,24.1 C142.3,24.1 144.7,25.8 145.6,28.2 C145.9,28.9 146,29.7 146,30.5 Z" id="Shape" fill="#4988FD"></path>
            <path d="M34.1,47.1 L136,47.1 C137.9,47.1 139.5,48.7 139.5,50.6 L139.5,116.9 C139.5,118.8 137.9,120.4 136,120.4 L11.8,120.4 C9.9,120.4 8.3,118.8 8.3,116.9 L8.3,50.6 C8.3,48.7 9.9,47.1 11.8,47.1 L25.7,47.1" id="Shape" fill="#6097FD"></path>
            <path d="M126.9,67.4 L79.6,67.4 C78.5,67.4 77.6,66.5 77.6,65.4 C77.6,64.3 78.5,63.4 79.6,63.4 L126.9,63.4 C128,63.4 128.9,64.3 128.9,65.4 C128.9,66.5 128,67.4 126.9,67.4 Z" id="Shape" fill="#2767F4"></path>
            <path d="M126.9,79.3 L112.9,79.3 C111.8,79.3 110.9,78.4 110.9,77.3 C110.9,76.2 111.8,75.3 112.9,75.3 L126.9,75.3 C128,75.3 128.9,76.2 128.9,77.3 C128.9,78.4 128,79.3 126.9,79.3 Z" id="Shape" fill="#2767F4"></path>
            <path d="M106,79.3 L79.6,79.3 C78.5,79.3 77.6,78.4 77.6,77.3 C77.6,76.2 78.5,75.3 79.6,75.3 L106,75.3 C107.1,75.3 108,76.2 108,77.3 C108,78.4 107.1,79.3 106,79.3 Z" id="Shape" fill="#2767F4"></path>
            <path d="M126.9,91.1 L100.3,91.1 C99.2,91.1 98.3,90.2 98.3,89.1 C98.3,88 99.2,87.1 100.3,87.1 L126.9,87.1 C128,87.1 128.9,88 128.9,89.1 C128.9,90.2 128,91.1 126.9,91.1 Z" id="Shape" fill="#2767F4"></path>
            <path d="M93.4,91.1 L79.6,91.1 C78.5,91.1 77.6,90.2 77.6,89.1 C77.6,88 78.5,87.1 79.6,87.1 L93.4,87.1 C94.5,87.1 95.4,88 95.4,89.1 C95.4,90.2 94.5,91.1 93.4,91.1 Z" id="Shape" fill="#2767F4"></path>
            <path d="M106.9,102.9 L79.6,102.9 C78.5,102.9 77.6,102 77.6,100.9 C77.6,99.8 78.5,98.9 79.6,98.9 L106.9,98.9 C108,98.9 108.9,99.8 108.9,100.9 C108.9,102 108,102.9 106.9,102.9 Z" id="Shape" fill="#2767F4"></path>
            <path d="M91,38.9 L55,38.9 C54,38.9 53.2,38.1 53.2,37.1 L53.2,34.2 C53.2,33.2 54,32.4 55,32.4 L91,32.4 C92,32.4 92.8,33.2 92.8,34.2 L92.8,37.1 C92.8,38 92,38.9 91,38.9 Z" id="Shape" fill="#2767F4"></path>
            <path d="M78.7,0.9 L67.3,0.9 C65.4,0.9 63.9,2.4 63.9,4.4 L63.9,37 L82.2,37 L82.2,4.4 C82.2,2.5 80.6,0.9 78.7,0.9 Z M73.3,15.7 C70.5,15.7 68.1,13.4 68.1,10.5 C68.1,7.6 70.4,5.3 73.3,5.3 C76.2,5.3 78.5,7.6 78.5,10.5 C78.5,13.4 76.2,15.7 73.3,15.7 Z" id="Shape" fill="#C5DCFA"></path>
            <circle id="Oval" fill="#DFECFD" cx="42.2" cy="84.5" r="23.5"></circle>
            <path d="M53.7,94.7 C53.7,95.8 52.6,95.8 52.6,95.8 L31.1,95.8 C31.1,95.8 30,95.8 30,94.7 C30,91.9 31.6,89.7 33.3,87.5 C33.9,86.7 35,85.4 36.5,84 C38,85.4 40,86.3 42.2,86.3 C44.3,86.3 46.3,85.5 47.8,84.2 C50.8,86.9 53.7,91 53.7,94.7 Z" id="Shape" fill="#4988FD"></path>
            <circle id="Oval" fill="#4988FD" cx="42.2" cy="77.9" r="6.7"></circle>
        </g>
    </g>
</svg>