<?xml version="1.0" encoding="UTF-8"?>
<svg width="123px" height="145px" viewBox="0 0 123 145" version="1.1" xmlns="http://www.w3.org/2000/svg" xmlns:xlink="http://www.w3.org/1999/xlink">
    <!-- Generator: Sketch 51.2 (57519) - http://www.bohemiancoding.com/sketch -->
    <title>Ideea</title>
    <desc>Created with Sketch.</desc>
    <defs></defs>
    <g id="Page-1" stroke="none" stroke-width="1" fill="none" fill-rule="evenodd">
        <g id="Ideea" fill-rule="nonzero">
            <path d="M96.9,61 C97,70.6 93.4,79.4 87.4,86 C81.4,92.7 77.7,101.2 77.3,110.2 C77.3,110.3 77.3,110.4 77.3,110.5 C77.3,110.9 77.3,111.4 77.3,111.8 L77.3,131.1 C77.3,133.4 75.4,135.3 73.1,135.3 L47.5,135.3 C45.2,135.3 43.3,133.4 43.3,131.1 L43.3,112.1 C43.3,111.6 43.3,111.1 43.3,110.5 C43.3,110.4 43.3,110.3 43.3,110.2 C43.1,107.3 42.7,104.5 41.9,101.8 C41.6,100.7 41.2,99.6 40.8,98.6 C40.8,98.6 40.8,98.6 40.8,98.6 C39,94.2 36.5,90 33.1,86.5 C27,79.9 23.3,71.1 23.3,61.5 C23.3,40.9 40.3,24.2 61,24.7 C76.1,25.1 89,34.6 94.3,47.9 C96,51.8 96.9,56.3 96.9,61 Z" id="Shape" fill="#DFECFD"></path>
            <path d="M96.9,61 C97,70.6 93.4,79.4 87.4,86 C81.4,92.7 77.7,101.2 77.3,110.2 C77.3,110.3 77.3,110.4 77.3,110.5 C77.3,110.9 77.3,111.4 77.3,111.8 L77.3,128.2 C62.7,125.5 44.8,115.6 45.5,112.3 C46,110 43.5,105.7 41.9,101.8 C41.4,100.7 41,99.6 40.8,98.6 C40.8,98.6 40.8,98.6 40.8,98.6 C40,95.3 41.2,93.1 48.2,94.8 C81.1,102.8 91.3,70.1 94.4,47.8 C96,51.8 96.9,56.3 96.9,61 Z" id="Shape" fill="#C5DCFA"></path>
            <path d="M77.3,110.4 C77.3,110.8 77.3,111.3 77.3,111.7 L77.3,131 C77.3,133.1 75.8,134.8 73.8,135.1 C73.6,135.1 73.3,135.2 73.1,135.2 L69.5,135.2 C69.5,140.4 65.3,144.6 60.1,144.6 C54.9,144.6 50.7,140.4 50.7,135.2 L47.5,135.2 C47.2,135.2 47,135.2 46.8,135.1 C44.8,134.8 43.4,133.1 43.4,131 L43.4,112 C43.4,111.5 43.4,111 43.4,110.4 L77.3,110.4 Z" id="Shape" fill="#4988FD"></path>
            <path d="M73.9,135.1 C73.7,135.1 73.4,135.2 73.2,135.2 L69.6,135.2 C69.6,140.4 65.4,144.6 60.2,144.6 C55,144.6 50.8,140.4 50.8,135.2 L47.6,135.2 C47.4,135.2 47.1,135.2 46.9,135.1 L73.9,135.1 Z" id="Shape" fill="#2767F4"></path>
            <path d="M70.7,124.9 L66.6,124.9 C65.5,124.9 64.6,124 64.6,122.9 C64.6,121.8 65.5,120.9 66.6,120.9 L70.7,120.9 C71.8,120.9 72.7,121.8 72.7,122.9 C72.7,124 71.8,124.9 70.7,124.9 Z" id="Shape" fill="#2767F4"></path>
            <path d="M60.9,122.9 C60.9,124 60,124.9 58.9,124.9 L43.5,124.9 L43.5,120.9 L58.9,120.9 C60,120.9 60.9,121.8 60.9,122.9 Z" id="Shape" fill="#2767F4"></path>
            <g id="Group" fill="#4988FD">
                <path d="M61.6,15.8 C60.5,15.8 59.6,14.9 59.6,13.8 L59.6,2.5 C59.6,1.4 60.5,0.5 61.6,0.5 C62.7,0.5 63.6,1.4 63.6,2.5 L63.6,13.8 C63.6,14.9 62.7,15.8 61.6,15.8 Z" id="Shape"></path>
                <path d="M27.7,29.8 C27.2,29.8 26.7,29.6 26.3,29.2 L18.3,21.2 C17.5,20.4 17.5,19.2 18.3,18.4 C19.1,17.6 20.3,17.6 21.1,18.4 L29.1,26.4 C29.9,27.2 29.9,28.4 29.1,29.2 C28.7,29.6 28.2,29.8 27.7,29.8 Z" id="Shape"></path>
                <path d="M103.4,105.6 C102.9,105.6 102.4,105.4 102,105 L94,97 C93.2,96.2 93.2,95 94,94.2 C94.8,93.4 96,93.4 96.8,94.2 L104.8,102.2 C105.6,103 105.6,104.2 104.8,105 C104.5,105.4 104,105.6 103.4,105.6 Z" id="Shape"></path>
                <path d="M13.6,63.7 L2.3,63.7 C1.2,63.7 0.3,62.8 0.3,61.7 C0.3,60.6 1.2,59.7 2.3,59.7 L13.6,59.7 C14.7,59.7 15.6,60.6 15.6,61.7 C15.6,62.8 14.7,63.7 13.6,63.7 Z" id="Shape"></path>
                <path d="M120.8,63.7 L109.5,63.7 C108.4,63.7 107.5,62.8 107.5,61.7 C107.5,60.6 108.4,59.7 109.5,59.7 L120.8,59.7 C121.9,59.7 122.8,60.6 122.8,61.7 C122.8,62.8 121.9,63.7 120.8,63.7 Z" id="Shape"></path>
                <path d="M19.7,105.6 C19.2,105.6 18.7,105.4 18.3,105 C17.5,104.2 17.5,103 18.3,102.2 L26.3,94.2 C27.1,93.4 28.3,93.4 29.1,94.2 C29.9,95 29.9,96.2 29.1,97 L21.1,105 C20.7,105.4 20.2,105.6 19.7,105.6 Z" id="Shape"></path>
                <path d="M95.5,29.8 C95,29.8 94.5,29.6 94.1,29.2 C93.3,28.4 93.3,27.2 94.1,26.4 L102.1,18.4 C102.9,17.6 104.1,17.6 104.9,18.4 C105.7,19.2 105.7,20.4 104.9,21.2 L96.9,29.2 C96.5,29.6 96,29.8 95.5,29.8 Z" id="Shape"></path>
            </g>
        </g>
    </g>
</svg>