<?xml version="1.0" encoding="UTF-8"?>
<svg width="132px" height="146px" viewBox="0 0 132 146" version="1.1" xmlns="http://www.w3.org/2000/svg" xmlns:xlink="http://www.w3.org/1999/xlink">
    <!-- Generator: Sketch 51.2 (57519) - http://www.bohemiancoding.com/sketch -->
    <title>Influence</title>
    <desc>Created with Sketch.</desc>
    <defs></defs>
    <g id="Page-1" stroke="none" stroke-width="1" fill="none" fill-rule="evenodd">
        <g id="Influence" fill-rule="nonzero">
            <path d="M127,0.6 L79.5,0.6 C39.7,0.6 6.7,32.5 6.4,72.3 C6.3,82.9 8.5,93 12.6,102.1 C23.8,127.4 49.2,145 78.6,145 L127,145 C129.4,145 131.3,143.1 131.3,140.7 L131.3,114.7 C131.3,112.3 129.4,110.4 127,110.4 L80.1,110.4 C65,110.4 51.8,101.7 45.6,88.9 C43.3,84.2 42,78.9 41.9,73.4 C41.5,52.3 58.5,35.1 79.5,35.1 L127,35.1 C129.4,35.1 131.3,33.2 131.3,30.8 L131.3,4.8 C131.3,2.5 129.3,0.6 127,0.6 Z" id="Shape" fill="#2767F4"></path>
            <path d="M131.3,4.9 L131.3,30.9 C131.3,33.3 129.4,35.2 127,35.2 L109,35.2 L109,0.6 L127,0.6 C129.3,0.6 131.3,2.5 131.3,4.9 Z" id="Shape" fill="#4988FD"></path>
            <path d="M127,145.1 L109,145.1 L109,110.5 L127,110.5 C129.4,110.5 131.3,112.4 131.3,114.8 L131.3,140.8 C131.3,143.1 129.3,145.1 127,145.1 Z" id="Shape" fill="#4988FD"></path>
            <path d="M108.9,16.2 L108.9,0.6 L126.9,0.6 C129.3,0.6 131.2,2.5 131.2,4.9 L131.2,30.9 C131.2,33.3 129.3,35.2 126.9,35.2 L108.9,35.2 L108.9,25.7" id="Shape" fill="#6097FD"></path>
            <path d="M108.9,118.1 L108.9,116.9" id="Shape" fill="#4988FD"></path>
            <path d="M109.1,110.5 L127,110.5 C129.4,110.5 131.3,112.4 131.3,114.8 L131.3,140.8 C131.3,143.2 129.4,145.1 127,145.1 L109,145.1 L109,124.8" id="Shape" fill="#6097FD"></path>
            <path d="M77.3,99.7 C77.3,104.4 73.9,108.4 69.3,109.1 C68.8,109.2 68.3,109.2 67.7,109.2 C67.7,109.2 67.6,109.2 67.6,109.2 C67.5,109.2 67.4,109.2 67.3,109.2 C67.2,109.2 67.1,109.2 67.1,109.2 C57.8,108.7 47.4,108.2 32.4,106.9 L34.3,108.8 L43.8,118.3 C45.4,119.9 46.3,122.1 46.3,124.2 C46.3,126.3 45.5,128.5 43.8,130.1 C42.3,131.6 40.5,132.4 38.6,132.5 C36.2,132.7 33.8,131.9 32,130.1 L2.6,100.7 C1,99.1 2.27373675e-13,96.8 2.27373675e-13,94.5 L2.27373675e-13,53.1 C2.27373675e-13,52.8 2.27373675e-13,52.5 0.1,52.1 C0.4,49.3 2.1,46.7 4.6,45.4 C7.8,43.7 10.7,40.8 21,40 C22.8,39.9 24.8,39.8 27.1,39.8 L62,39.8 C64.3,39.8 66.4,40.7 67.9,42.3 C69.4,43.8 70.4,45.9 70.4,48.2 C70.4,51.5 68.5,54.4 65.7,55.7 C64.6,56.2 63.3,56.6 62,56.6 L65.2,56.6 C67.5,56.6 69.6,57.5 71.1,59.1 C72.6,60.6 73.6,62.7 73.6,65 C73.6,68.6 71.4,71.6 68.2,72.8 C67.3,73.1 66.3,73.3 65.2,73.3 L68,73.3 C70.3,73.3 72.4,74.2 73.9,75.8 C75.4,77.3 76.4,79.4 76.4,81.7 C76.4,85.6 73.8,88.9 70.2,89.8 C69.5,90 68.8,90.1 68,90.1 C68,90.1 64.2,90 67.7,90.1 C68.4,90.1 69,90.2 69.6,90.3 C74.1,91.3 77.3,95.1 77.3,99.7 Z" id="Shape" fill="#C5DCFA"></path>
        </g>
    </g>
</svg>