<?xml version="1.0" encoding="UTF-8"?>
<svg width="150px" height="128px" viewBox="0 0 150 128" version="1.1" xmlns="http://www.w3.org/2000/svg" xmlns:xlink="http://www.w3.org/1999/xlink">
    <!-- Generator: Sketch 51.2 (57519) - http://www.bohemiancoding.com/sketch -->
    <title>Insert_coin</title>
    <desc>Created with Sketch.</desc>
    <defs></defs>
    <g id="Page-1" stroke="none" stroke-width="1" fill="none" fill-rule="evenodd">
        <g id="Insert_coin" fill-rule="nonzero">
            <path d="M150,5.7 L150,113.1 C150,115.8 147.8,118 145.1,118 L126.8,118 C124.1,118 121.9,115.8 121.9,113.1 L121.9,5.7 C121.9,3 124.1,0.8 126.8,0.8 L145.1,0.8 C147.8,0.8 150,3 150,5.7 Z" id="Shape" fill="#FFFFFF"></path>
            <path d="M150,5.7 L150,113.1 C150,115.8 147.8,118 145.1,118 L126.8,118 C124.1,118 121.9,115.8 121.9,113.1 L121.9,5.7 C121.9,3 124.1,0.8 126.8,0.8 L145.1,0.8 C147.8,0.8 150,3 150,5.7 Z" id="Shape" fill="#2767F4"></path>
            <path d="M150,12.8 L150,113.1 C150,115.8 147.8,118 145.1,118 L129,118 L129,17.7 C129,15 131.2,12.8 133.9,12.8 L150,12.8 Z" id="Shape" fill="#3973F4"></path>
            <path d="M150,28.4 L150,97.7 C122,117.7 81.4,98.1 81.4,62.1 C81.4,37.2 100.8,20.3 122,18.7 C132.3,17.9 139.2,20.6 150,28.4 Z" id="Shape" fill="#6097FD"></path>
            <path d="M122.1,82.1 L122.1,79.5 C110.4,78.6 114.9,71.1 118.6,72.8 C123.2,74.9 129,74.2 129,69.9 C129,63.2 114.6,65.3 114.6,54.8 C114.6,50.3 117.6,46.7 122.4,45.6 L122.4,42.8 C122.4,39.3 127.7,39.3 127.7,42.8 L127.7,45.2 C129.3,45.3 130.8,45.7 132.2,46.2 C135.6,47.6 133.6,52.9 130,51.4 C126.5,50 121.1,50.1 121.1,54 C121.1,59.8 135.5,58 135.5,69.3 C135.5,74 132.3,77.8 127.3,78.9 L127.3,81.8 C127.3,83.3 126.1,84.4 124.7,84.4 C123.2,84.7 122.1,83.5 122.1,82.1 Z" id="Shape" fill="#FFFFFF"></path>
            <path d="M90.9,64.4 C90.5,54.9 93.9,45.5 100.8,38.6 C103.2,36.2 106.8,39.8 104.4,42.2 C99,47.7 95.9,55 95.9,62.8 C95.9,63.3 95.9,63.7 95.9,64.2 C96.2,67.5 91,67.8 90.9,64.4 Z" id="Shape" fill="#3973F4"></path>
            <path d="M121.5,96.6 C118.1,96.3 118.5,91.2 121.9,91.5 C124.8,91.7 127.6,91.6 130.4,90.9 C133.7,90.1 134.9,95.1 131.6,95.9 C128.2,96.7 124.7,96.9 121.5,96.6 Z" id="Shape" fill="#3973F4"></path>
            <path d="M135.6,89.1 C137.8,88.1 139.8,86.8 141.7,85.3 C144.3,83.2 147.6,87.2 144.9,89.3 C142.7,91.1 140.3,92.6 137.7,93.8 C134.6,95.2 132.5,90.5 135.6,89.1 Z" id="Shape" fill="#3973F4"></path>
            <path d="M141,39.6 C134.5,34.7 126.7,33 119.4,34.3 C116,34.9 115.2,29.8 118.5,29.2 C120.3,28.9 122.2,28.7 124.1,28.7 C131.4,28.7 138.3,31 144.1,35.5 C145.2,36.4 145.4,38 144.6,39.1 C143.8,40.3 142.2,40.5 141,39.6 Z" id="Shape" fill="#3973F4"></path>
            <path d="M88,37.9 C83.4,45.7 81.5,54.5 81.9,62.9 L78.7,63.3 C75.9,63.7 73.3,64.9 71.2,66.7 C71,66.8 70.9,67 70.8,67.1 C70.6,67.2 70.5,67.4 70.4,67.5 L63,75.2 C61.9,76.4 61.7,78.1 62.6,79.4 L69.8,90.4 C70.6,91.6 72.1,92.3 73.8,92 C74.2,91.9 74.5,91.8 74.6,91.7 C75.2,91.4 74.5,91.8 79.4,89.2 C96.3,80.6 97.7,79.6 99.9,79.3 C100,79.3 100.6,79.2 100.7,79.2 C101.7,78.7 108,78.7 112.3,82.9 C117.3,87.8 116.5,93.3 112.4,95.6 C53.2,130.5 65.3,126.2 39.8,126.9 C32.7,127.1 31.6,127.5 30,126 C25.3,121.9 9.1,107.8 1.9,101.8 C0.4,100.6 -4.54747351e-13,98.7 0.4,97.2 C0.8,95.5 1.2,95.8 13,81.7 L17.2,76.8 L44.1,45.3 C47.6,41.2 52.6,38.6 58,38.3 L87.6,36.2" id="Shape" fill="#C5DCFA"></path>
        </g>
    </g>
</svg>