<?xml version="1.0" encoding="UTF-8"?>
<svg width="137px" height="142px" viewBox="0 0 137 142" version="1.1" xmlns="http://www.w3.org/2000/svg" xmlns:xlink="http://www.w3.org/1999/xlink">
    <!-- Generator: Sketch 51.2 (57519) - http://www.bohemiancoding.com/sketch -->
    <title>Insurance</title>
    <desc>Created with Sketch.</desc>
    <defs></defs>
    <g id="Page-1" stroke="none" stroke-width="1" fill="none" fill-rule="evenodd">
        <g id="Insurance" fill-rule="nonzero">
            <path d="M54.2,141.2 C44.6,141.2 36.8,133.4 36.8,123.8 L36.8,117.3 C36.8,115.5 38.3,114 40.1,114 C41.9,114 43.4,115.5 43.4,117.3 L43.4,123.8 C43.4,129.8 48.3,134.7 54.3,134.7 C60.3,134.7 65.2,129.8 65.2,123.8 L65.2,59.6 C65.2,57.8 66.7,56.3 68.5,56.3 C70.3,56.3 71.8,57.8 71.8,59.6 L71.8,123.8 C71.6,133.3 63.8,141.2 54.2,141.2 Z" id="Shape" fill="#C5DCFA"></path>
            <path d="M68.3,16.8 C66.5,16.8 65,15.3 65,13.5 L65,4 C65,2.2 66.5,0.7 68.3,0.7 C70.1,0.7 71.6,2.2 71.6,4 L71.6,13.5 C71.6,15.4 70.1,16.8 68.3,16.8 Z" id="Shape" fill="#C5DCFA"></path>
            <path d="M136.1,74.4 C132.4,65.7 123.8,59.5 113.7,59.5 C103.3,59.5 94.4,66 91,75.2 C90.9,74.9 90.8,74.7 90.7,74.4 C87,65.6 78.4,59.5 68.3,59.5 C58.2,59.5 49.6,65.6 45.9,74.4 C45.8,74.7 45.7,74.9 45.6,75.2 C42.1,66 33.3,59.5 22.9,59.5 C12.8,59.5 4.2,65.6 0.5,74.4 C4.1,40.2 33.1,13.5 68.3,13.5 C103.5,13.5 132.5,40.2 136.1,74.4 Z" id="Shape" fill="#3973F4"></path>
            <path d="M90.7,74.5 C87,65.7 78.4,59.6 68.3,59.6 C58.2,59.6 49.6,65.7 45.9,74.5 C47.7,39.9 57,13.6 68.3,13.6 C79.6,13.5 88.9,39.9 90.7,74.5 Z" id="Shape" fill="#6097FD"></path>
        </g>
    </g>
</svg>