<?xml version="1.0" encoding="UTF-8"?>
<svg width="99px" height="144px" viewBox="0 0 99 144" version="1.1" xmlns="http://www.w3.org/2000/svg" xmlns:xlink="http://www.w3.org/1999/xlink">
    <!-- Generator: Sketch 51.2 (57519) - http://www.bohemiancoding.com/sketch -->
    <title>Investment</title>
    <desc>Created with Sketch.</desc>
    <defs></defs>
    <g id="Page-1" stroke="none" stroke-width="1" fill="none" fill-rule="evenodd">
        <g id="Investment" fill-rule="nonzero">
            <g id="Group">
                <path d="M55.4,119.8 C44,124.6 30.5,124.1 19.1,117.1 C7.7,110.2 1,98.4 0.1,86 C11.5,81.2 25,81.7 36.4,88.7 C47.8,95.6 54.5,107.4 55.4,119.8 Z" id="Shape" fill="#21D3AC"></path>
                <path d="M55.4,119.8 C54.5,120.2 53.6,120.5 52.6,120.9 C41.8,124.6 29.5,123.6 19,117.2 C7.6,110.3 0.9,98.5 2.27373675e-13,86.1 C11.4,81.3 24.9,81.8 36.3,88.8 C47,95.3 53.6,106.1 55.1,117.6 C55.3,118.2 55.3,119 55.4,119.8 Z" id="Shape" fill="#21D3AC"></path>
                <path d="M62.6,95.1 C70.1,98.3 78.9,97.9 86.4,93.4 C93.8,88.9 98.2,81.2 98.8,73.1 C91.3,69.9 82.5,70.3 75,74.8 C67.6,79.3 63.3,87 62.6,95.1 Z" id="Shape" fill="#21D3AC"></path>
                <path d="M98.9,73 C98.3,81.1 93.9,88.8 86.5,93.3 C79.8,97.4 72.1,98.1 65.2,95.9 C64.4,95.6 63.6,95.3 62.8,95 C62.9,94.1 63,93.2 63.2,92.2 C64.5,85.1 68.7,78.6 75.3,74.6 C82.6,70.2 91.4,69.9 98.9,73 Z" id="Shape" fill="#21D3AC"></path>
                <path d="M58.8,141.1 C56.8,141.1 55.1,139.5 55.1,137.4 L55.1,70.5 C55.1,68.5 56.7,66.8 58.8,66.8 C60.8,66.8 62.5,68.4 62.5,70.5 L62.5,137.4 C62.5,139.4 60.8,141.1 58.8,141.1 Z" id="Shape" fill="#C5DCFA"></path>
                <path d="M80.9,143.4 L37.6,143.4 C35.6,143.4 33.9,141.8 33.9,139.7 C33.9,137.7 35.5,136 37.6,136 L80.9,136 C82.9,136 84.6,137.6 84.6,139.7 C84.6,141.8 82.9,143.4 80.9,143.4 Z" id="Shape" fill="#C5DCFA"></path>
                <circle id="Oval" fill="#4988FD" cx="58.8" cy="36.3" r="35.8"></circle>
                <path d="M58.9,56 C57.4,56 56.3,54.8 56.3,53.4 L56.3,51.5 C54.6,51.3 52.9,50.9 51.6,50.2 C50.3,49.6 49.6,48.1 50.1,46.7 C50.5,45.6 51.6,44.8 52.8,44.8 C53.2,44.8 53.6,44.9 54,45.1 C55,45.5 56.5,46.1 58.3,46.1 C60.7,46.1 62.3,44.9 62.3,43.1 C62.3,41.9 61.8,40.5 58.1,39.1 C54.1,37.5 50.1,35.3 50.1,30.3 C50.1,26.3 52.7,23.3 56.7,22.2 L56.7,20.2 C56.7,18.7 57.9,17.6 59.3,17.6 C60.8,17.6 61.9,18.8 61.9,20.2 L61.9,21.9 C63.2,22 64.4,22.3 65.5,22.8 C66.9,23.4 67.6,25 67,26.4 C66.6,27.5 65.5,28.2 64.4,28.2 C64,28.2 63.7,28.1 63.3,28 C62.2,27.5 61,27.3 59.7,27.3 C57.2,27.3 56.3,28.6 56.3,29.8 C56.3,31.1 57,32 61,33.6 C64.5,35 68.6,37.4 68.6,42.8 C68.6,46.9 65.9,50.2 61.7,51.3 L61.7,53.5 C61.5,54.8 60.4,56 58.9,56 Z" id="Shape" fill="#FFFFFF"></path>
            </g>
            <path d="M55.4,119.8 C54.5,120.2 53.6,120.5 52.6,120.9 L32.2,108.3 C31.2,107.7 30.9,106.4 31.5,105.4 C32.1,104.4 33.4,104.1 34.4,104.7 L55.1,117.5 C55.3,118.2 55.3,119 55.4,119.8 Z" id="Shape" fill="#59E0C3"></path>
            <path d="M79.3,86.5 L65.1,96 C64.3,95.7 63.5,95.4 62.7,95.1 C62.8,94.2 62.9,93.3 63.1,92.3 L77.1,82.9 C78.1,82.3 79.4,82.5 80,83.5 C80.5,84.5 80.3,85.8 79.3,86.5 Z" id="Shape" fill="#59E0C3"></path>
        </g>
    </g>
</svg>