<?xml version="1.0" encoding="UTF-8"?>
<svg width="154px" height="144px" viewBox="0 0 154 144" version="1.1" xmlns="http://www.w3.org/2000/svg" xmlns:xlink="http://www.w3.org/1999/xlink">
    <!-- Generator: Sketch 51.2 (57519) - http://www.bohemiancoding.com/sketch -->
    <title>Jumping_Rope</title>
    <desc>Created with Sketch.</desc>
    <defs></defs>
    <g id="Page-1" stroke="none" stroke-width="1" fill="none" fill-rule="evenodd">
        <g id="Jumping_Rope" fill-rule="nonzero">
            <path d="M149.8,77.3 L149.8,134.6 C149.8,139.5 145.8,143.5 140.9,143.5 C136,143.5 132,139.5 132,134.6 L132,77.3 L149.8,77.3 Z" id="Shape" fill="#3973F4"></path>
            <path d="M22,77.3 L22,134.6 C22,139.5 18,143.5 13.1,143.5 C8.2,143.5 4.2,139.5 4.2,134.6 L4.2,77.3 L22,77.3 Z" id="Shape" fill="#3973F4"></path>
            <path d="M149.8,77.3 L149.8,126.7 C149.8,131.6 145.8,135.6 140.9,135.6 C136,135.6 132,131.6 132,126.7 L132,77.3 L149.8,77.3 Z" id="Shape" fill="#4988FD"></path>
            <path d="M22,77.3 L22,126.7 C22,131.6 18,135.6 13.1,135.6 C8.2,135.6 4.2,131.6 4.2,126.7 L4.2,77.3 L22,77.3 Z" id="Shape" fill="#4988FD"></path>
            <path d="M77.7,112.6 L76.7,112.6 C61.4,112.6 48.9,100.1 48.9,84.8 L48.9,27 L48.9,24.3 C48.9,15.6 41.8,8.5 33,8.5 C24.2,8.5 17.1,15.6 17.1,24.4 L17.1,75.9 C17.1,78.1 15.3,79.9 13.1,79.9 C10.9,79.9 9.1,78.1 9.1,75.9 L9.1,24.4 C9.1,11.2 19.8,0.5 33,0.5 C46.2,0.5 56.9,11.2 56.9,24.4 L56.9,27.1 L56.9,84.8 C56.9,95.7 65.8,104.6 76.7,104.6 L77.7,104.6 C88.6,104.6 97.5,95.7 97.5,84.8 L97.5,27 L97.5,24.4 C97.5,11.2 108.2,0.5 121.4,0.5 C134.6,0.5 145.3,11.2 145.3,24.4 L145.3,75.9 C145.3,78.1 143.5,79.9 141.3,79.9 C139.1,79.9 137.3,78.1 137.3,75.9 L137.3,24.4 C137.3,15.7 130.2,8.5 121.4,8.5 C112.7,8.5 105.5,15.6 105.5,24.4 L105.5,27 L105.5,84.8 C105.4,100.1 93,112.6 77.7,112.6 Z" id="Shape" fill="#D5E6FD"></path>
            <path d="M150.6,80.5 L131.4,80.5 C129.7,80.5 128.4,79.2 128.4,77.5 C128.4,75.8 129.7,74.5 131.4,74.5 L150.6,74.5 C152.3,74.5 153.6,75.8 153.6,77.5 C153.6,79.2 152.3,80.5 150.6,80.5 Z" id="Shape" fill="#4988FD"></path>
            <path d="M22.9,80.5 L3.7,80.5 C2,80.5 0.7,79.2 0.7,77.5 C0.7,75.8 2,74.5 3.7,74.5 L22.9,74.5 C24.6,74.5 25.9,75.8 25.9,77.5 C25.9,79.2 24.5,80.5 22.9,80.5 Z" id="Shape" fill="#4988FD"></path>
        </g>
    </g>
</svg>