<?xml version="1.0" encoding="UTF-8"?>
<svg width="148px" height="111px" viewBox="0 0 148 111" version="1.1" xmlns="http://www.w3.org/2000/svg" xmlns:xlink="http://www.w3.org/1999/xlink">
    <!-- Generator: Sketch 51.2 (57519) - http://www.bohemiancoding.com/sketch -->
    <title>Junk_Food</title>
    <desc>Created with Sketch.</desc>
    <defs></defs>
    <g id="Page-1" stroke="none" stroke-width="1" fill="none" fill-rule="evenodd">
        <g id="Junk_Food" fill-rule="nonzero">
            <path d="M123.4,28 C123.4,13 96.2,0.8 62.6,0.8 C29,0.8 1.8,13 1.8,28 L1.8,32.2 L123.3,32.2 L123.3,28 L123.4,28 Z" id="Shape" fill="#D5E6FD"></path>
            <path d="M101.7,66.5 L95.6,95.6 L27.8,95.6 C20.4,95.6 13.1,93 7.8,87.9 C4.1,84.4 2,80.4 2,76.3 L2,66.5 L101.7,66.5 Z" id="Shape" fill="#C5DCFA"></path>
            <path d="M99.4,66.5 L95.6,84.6 L27.8,84.6 C20.4,84.6 13.1,82 7.8,76.9 C4.5,73.7 2.4,70.2 2.1,66.5 L99.4,66.5 Z" id="Shape" fill="#D5E6FD"></path>
            <path d="M121.9,46 L3.4,46 C1.8,46 0.5,44.7 0.5,43 C0.5,41.3 1.8,40 3.4,40 L121.9,40 C123.5,40 124.8,41.3 124.8,43 C124.8,44.7 123.5,46 121.9,46 Z" id="Shape" fill="#4988FD"></path>
            <path d="M14.9,55.3 L42.9,75.4 C44.3,76.1 45.9,76.2 47.3,75.7 L88.8,55.3 C88.8,55.3 14.3,55.9 14.9,55.3 Z" id="Shape" fill="#3973F4"></path>
            <path d="M118.6,58.3 L3.4,58.3 C1.8,58.3 0.5,57 0.5,55.3 C0.5,53.6 1.8,52.3 3.4,52.3 L118.6,52.3 C120.2,52.3 121.5,53.6 121.5,55.3 C121.5,57 120.3,58.3 118.6,58.3 Z" id="Shape" fill="#4988FD"></path>
            <circle id="Oval" fill="#4988FD" cx="120" cy="82.9" r="27.5"></circle>
            <path d="M125.3,82.8 L131.7,76.4 C133.2,74.9 133.2,72.6 131.7,71.1 C130.2,69.6 127.9,69.6 126.4,71.1 L120,77.5 L113.6,71.1 C112.1,69.6 109.8,69.6 108.3,71.1 C106.8,72.6 106.8,74.9 108.3,76.4 L114.7,82.8 L108.3,89.2 C106.8,90.7 106.8,93 108.3,94.5 C109,95.2 110,95.6 110.9,95.6 C111.8,95.6 112.8,95.2 113.5,94.5 L119.9,88.1 L126.3,94.5 C127,95.2 128,95.6 128.9,95.6 C129.9,95.6 130.8,95.2 131.5,94.5 C133,93 133,90.7 131.5,89.2 L125.3,82.8 Z" id="Shape" fill="#D5E6FD"></path>
            <path d="M20,27.2 L18.9,27.2 C17.8,27.2 16.9,26.3 16.9,25.2 C16.9,24.1 17.8,23.2 18.9,23.2 L20,23.2 C21.1,23.2 22,24.1 22,25.2 C22,26.3 21.2,27.2 20,27.2 Z" id="Shape" fill="#FFFFFF"></path>
            <path d="M27.5,16.8 L26.4,16.8 C25.3,16.8 24.4,15.9 24.4,14.8 C24.4,13.7 25.3,12.8 26.4,12.8 L27.5,12.8 C28.6,12.8 29.5,13.7 29.5,14.8 C29.5,15.9 28.6,16.8 27.5,16.8 Z" id="Shape" fill="#FFFFFF"></path>
            <path d="M36.5,26.1 L35.4,26.1 C34.3,26.1 33.4,25.2 33.4,24.1 C33.4,23 34.3,22.1 35.4,22.1 L36.5,22.1 C37.6,22.1 38.5,23 38.5,24.1 C38.5,25.2 37.6,26.1 36.5,26.1 Z" id="Shape" fill="#FFFFFF"></path>
            <path d="M48.8,14.7 L47.7,14.7 C46.6,14.7 45.7,13.8 45.7,12.7 C45.7,11.6 46.6,10.7 47.7,10.7 L48.8,10.7 C49.9,10.7 50.8,11.6 50.8,12.7 C50.8,13.8 49.9,14.7 48.8,14.7 Z" id="Shape" fill="#FFFFFF"></path>
            <path d="M55.1,25.6 L54,25.6 C52.9,25.6 52,24.7 52,23.6 C52,22.5 52.9,21.6 54,21.6 L55.1,21.6 C56.2,21.6 57.1,22.5 57.1,23.6 C57.1,24.7 56.2,25.6 55.1,25.6 Z" id="Shape" fill="#FFFFFF"></path>
            <path d="M61.3,15.7 L60.2,15.7 C59.1,15.7 58.2,14.8 58.2,13.7 C58.2,12.6 59.1,11.7 60.2,11.7 L61.3,11.7 C62.4,11.7 63.3,12.6 63.3,13.7 C63.3,14.8 62.5,15.7 61.3,15.7 Z" id="Shape" fill="#FFFFFF"></path>
            <path d="M72.8,27.2 L71.7,27.2 C70.6,27.2 69.7,26.3 69.7,25.2 C69.7,24.1 70.6,23.2 71.7,23.2 L72.8,23.2 C73.9,23.2 74.8,24.1 74.8,25.2 C74.8,26.3 73.9,27.2 72.8,27.2 Z" id="Shape" fill="#FFFFFF"></path>
            <path d="M74.9,11.4 L73.8,11.4 C72.7,11.4 71.8,10.5 71.8,9.4 C71.8,8.3 72.7,7.4 73.8,7.4 L74.9,7.4 C76,7.4 76.9,8.3 76.9,9.4 C76.9,10.5 76,11.4 74.9,11.4 Z" id="Shape" fill="#FFFFFF"></path>
            <path d="M81.6,18.7 L80.5,18.7 C79.4,18.7 78.5,17.8 78.5,16.7 C78.5,15.6 79.4,14.7 80.5,14.7 L81.6,14.7 C82.7,14.7 83.6,15.6 83.6,16.7 C83.6,17.8 82.7,18.7 81.6,18.7 Z" id="Shape" fill="#FFFFFF"></path>
            <path d="M91.1,26.9 L90,26.9 C88.9,26.9 88,26 88,24.9 C88,23.8 88.9,22.9 90,22.9 L91.1,22.9 C92.2,22.9 93.1,23.8 93.1,24.9 C93.1,26 92.2,26.9 91.1,26.9 Z" id="Shape" fill="#FFFFFF"></path>
            <path d="M94.3,17.2 L93.2,17.2 C92.1,17.2 91.2,16.3 91.2,15.2 C91.2,14.1 92.1,13.2 93.2,13.2 L94.3,13.2 C95.4,13.2 96.3,14.1 96.3,15.2 C96.3,16.3 95.4,17.2 94.3,17.2 Z" id="Shape" fill="#FFFFFF"></path>
            <path d="M103.9,24.1 L102.8,24.1 C101.7,24.1 100.8,23.2 100.8,22.1 C100.8,21 101.7,20.1 102.8,20.1 L103.9,20.1 C105,20.1 105.9,21 105.9,22.1 C105.9,23.2 105,24.1 103.9,24.1 Z" id="Shape" fill="#FFFFFF"></path>
        </g>
    </g>
</svg>