<?xml version="1.0" encoding="UTF-8"?>
<svg width="150px" height="127px" viewBox="0 0 150 127" version="1.1" xmlns="http://www.w3.org/2000/svg" xmlns:xlink="http://www.w3.org/1999/xlink">
    <!-- Generator: Sketch 51.2 (57519) - http://www.bohemiancoding.com/sketch -->
    <title>Justice</title>
    <desc>Created with Sketch.</desc>
    <defs></defs>
    <g id="Page-1" stroke="none" stroke-width="1" fill="none" fill-rule="evenodd">
        <g id="Justice" fill-rule="nonzero">
            <g id="Group">
                <path d="M80.4,47.6 L88,55.2 L87.5,55.7 C85.2,58 85.2,61.9 87.5,64.2 C89.8,66.5 93.7,66.5 96,64.2 L118,42.2 C120.3,39.9 120.3,36 118,33.7 C115.7,31.4 111.8,31.4 109.5,33.7 L109.7,33.5 L86.7,10.5 L86.5,10.7 C88.8,8.4 88.8,4.5 86.5,2.2 C84.2,-0.1 80.3,-0.1 78,2.2 L56,24.2 C53.7,26.5 53.7,30.4 56,32.7 C58.3,35 62.2,35 64.5,32.7 L65,32.2 L72.6,39.8 L33.5,78.9 C32.6,79.8 31.2,79.8 30.4,78.9 L1.9,107.4 C-0.1,109.4 -0.1,112.6 1.9,114.6 L5.8,118.5 C7.8,120.5 11,120.5 13,118.5 L41.5,90 C40.6,89.1 40.6,87.7 41.5,86.9 L80.4,47.6 Z" id="Shape" fill="#FFFFFF"></path>
                <path d="M149.6,119 C149.6,121 148.8,122.8 147.5,124.1 C146.2,125.4 144.4,126.2 142.5,126.2 L66.5,126.2 C62.5,126.2 59.2,123.1 59.2,119.1 C59.2,117.1 60,115.3 61.3,114 C62.4,112.9 63.9,112.1 65.5,112 C65.8,112 66,111.9 66.3,111.9 L68.4,111.9 C69,111.9 69.6,111.7 70.2,111.4 C71.2,110.8 71.9,109.7 71.9,108.4 C71.9,105.9 73.9,103.9 76.4,103.9 L132.4,103.9 C134.9,103.9 136.9,105.9 136.9,108.4 C136.9,109.7 137.6,110.8 138.6,111.4 C139.1,111.7 139.7,111.9 140.4,111.9 L142.3,111.9 C142.6,111.9 142.8,111.9 143.1,112 C146.7,112.4 149.6,115.4 149.6,119 Z" id="Shape" fill="#4988FD"></path>
                <path d="M149.6,119 C149.6,121 148.8,122.8 147.5,124.1 C146.2,125.4 144.4,126.2 142.5,126.2 L66.5,126.2 C62.5,126.2 59.2,123.1 59.2,119.1 C59.2,117.1 60,115.3 61.3,114 C62.4,112.9 63.9,112.1 65.5,112 L143.1,112 C146.7,112.4 149.6,115.4 149.6,119 Z" id="Shape" fill="#2767F4"></path>
            </g>
            <g id="Group">
                <path d="M118,42.1 L95.9,64.1 C94.7,65.3 93.2,65.9 91.7,65.9 C90.2,65.9 88.6,65.3 87.4,64.1 C85.1,61.8 85.1,57.9 87.4,55.6 L87.9,55.1 L85.7,52.9 L80.3,47.5 L41.2,86.6 C40.3,87.5 40.3,88.9 41.2,89.7 L12.7,118.2 C10.7,120.2 7.5,120.2 5.5,118.2 L1.6,114.3 C1.2,113.9 0.9,113.4 0.6,112.9 C-0.3,111 4.53304061e-13,108.7 1.6,107.1 L30.1,78.6 C31,79.5 32.4,79.5 33.2,78.6 L72,39.8 L72.3,39.5 L72.1,39.3 L64.7,31.9 L64.2,32.4 C62.6,34 60.3,34.5 58.3,33.9 C57.4,33.6 56.5,33.1 55.7,32.4 C53.4,30.1 53.4,26.2 55.7,23.9 L77.7,1.8 C80.1,-0.5 83.9,-0.5 86.2,1.8 C87.3,2.9 87.9,4.3 88,5.8 C88.1,7.4 87.5,9.1 86.2,10.3 L86.4,10.1 L89.5,13.2 L109.4,33.1 L109.2,33.3 C110.4,32.1 111.9,31.5 113.5,31.5 C115,31.5 116.6,32.1 117.7,33.3 C120.4,35.9 120.4,39.7 118,42.1 Z" id="Shape" fill="#4988FD"></path>
                <path d="M41.3,86.6 C40.4,87.5 40.4,88.9 41.3,89.7 L12.8,118.2 C10.8,120.2 7.6,120.2 5.6,118.2 L1.7,114.3 C1.3,113.9 1,113.4 0.7,112.9 C8.5,113.3 24.5,102 32.9,91.9 C43.1,79.4 76.1,47.4 76.1,47.4 C76.1,47.4 71.6,42.9 72.2,39.9 C72.2,39.7 72.3,39.6 72.3,39.4 C73.9,41.1 77.3,44.5 80.3,47.5 L41.3,86.6 Z" id="Shape" fill="#2767F4"></path>
                <path d="M89.8,13.5 C89.8,13.6 89.8,13.6 89.8,13.5 L68.1,35.2 L65,32.1 L64.5,32.6 C62.9,34.2 60.6,34.7 58.6,34.1 C58.3,32.7 58.7,31.1 59.8,30 L82.9,6.9 C84.3,5.5 86.5,5.2 88.2,6.1 C88.3,7.7 87.7,9.4 86.4,10.6 L86.6,10.4 L89.8,13.5 Z" id="Shape" fill="#2767F4"></path>
            </g>
            <path d="M86.5,10.7 L64.6,32.6 C62.2,35 58.4,35 56.1,32.6 C53.7,30.2 53.7,26.4 56.1,24.1 L78,2.2 C80.4,-0.2 84.2,-0.2 86.5,2.2 C88.8,4.5 88.8,8.3 86.5,10.7 Z" id="Shape" fill="#4988FD"></path>
            <path d="M120.3,37.4 C120.3,38.9 119.7,40.5 118.5,41.7 L96.4,63.7 C94.1,66 90.2,66 87.9,63.7 C87.5,63.3 87.2,62.9 86.9,62.4 C86.4,61.5 86.1,60.5 86.1,59.4 C86.1,57.9 86.7,56.3 87.9,55.1 L110,33 C111.7,31.3 114.2,30.8 116.4,31.6 C117.2,31.9 117.9,32.3 118.5,33 C119.7,34.3 120.3,35.8 120.3,37.4 Z" id="Shape" fill="#2767F4"></path>
            <path d="M117.1,34.7 C117.1,36.2 116.5,37.8 115.3,39 L93.2,61 C91.5,62.7 89,63.2 86.8,62.4 C86.3,61.5 86,60.5 86,59.4 C86,57.9 86.6,56.3 87.8,55.1 L109.9,33 C111.6,31.3 114.1,30.8 116.3,31.6 C116.9,32.7 117.1,33.7 117.1,34.7 Z" id="Shape" fill="#6097FD"></path>
        </g>
    </g>
</svg>