<?xml version="1.0" encoding="UTF-8"?>
<svg width="109px" height="144px" viewBox="0 0 109 144" version="1.1" xmlns="http://www.w3.org/2000/svg" xmlns:xlink="http://www.w3.org/1999/xlink">
    <!-- Generator: Sketch 51.2 (57519) - http://www.bohemiancoding.com/sketch -->
    <title>Kettlebell</title>
    <desc>Created with Sketch.</desc>
    <defs></defs>
    <g id="Page-1" stroke="none" stroke-width="1" fill="none" fill-rule="evenodd">
        <g id="Kettlebell" fill-rule="nonzero">
            <path d="M100.2,72.2 C99.4,70.9 99.1,69.9 100.1,68.4 C106.9,58.6 109.1,47.9 107.3,36.1 C104.6,18.5 88.4,2.5 70.7,0.9 C62.2,0.1 53.6,0.4 45,0.4 C41.9,0.4 38.8,0.8 35.8,1.4 C5.6,7.9 -8.3,42.2 8.9,67.9 C10,69.5 9.9,70.6 8.9,72.1 C-5,94 -0.5,123.5 19.3,140.3 C21.8,142.4 24.4,143.3 27.6,143.3 C36.6,143.2 45.6,143.3 54.6,143.3 C63.7,143.3 72.7,143.3 81.8,143.3 C84.4,143.3 86.8,142.8 88.8,141.1 C109.2,124.2 114.1,94.7 100.2,72.2 Z M83.9,54 C83.7,54.3 83.5,54.5 83.2,54.9 C64.2,43.9 45.1,43.8 26.1,54.7 C19.1,44.7 23.7,29.3 35.3,24 C37.8,22.9 40.7,22 43.5,21.9 C51.3,21.6 59.1,21.4 66.9,22 C82,23.1 91.3,40.8 83.9,54 Z" id="Shape" fill="#4988FD"></path>
            <path d="M81.3,97.7 C81.3,100.9 80.7,103.9 79.6,106.7 C79.6,106.7 79.6,106.7 79.6,106.7 C76,116.2 66.8,122.9 56.1,122.9 C50.1,122.9 44.6,120.8 40.3,117.3 C40.3,117.3 40.3,117.3 40.3,117.3 C34.6,112.7 30.9,105.6 30.9,97.7 C30.9,97 30.9,96.3 31,95.6 C32.1,82.7 42.9,72.5 56.1,72.5 C59.3,72.5 62.3,73.1 65.1,74.2 C74.6,77.8 81.3,87 81.3,97.7 Z" id="Shape" fill="#3973F4"></path>
            <path d="M70.8,86.3 C58.9,78.8 42.2,84 36.1,95.8 C34.9,98.1 31.8,97.6 31,95.6 C32.1,82.7 42.9,72.5 56.1,72.5 C59.3,72.5 62.3,73.1 65.1,74.2 C68.9,76 72.2,78.8 74.7,82.3 C76.4,84.8 73.4,88 70.8,86.3 Z" id="Shape" fill="#2767F4"></path>
            <path d="M108,106.4 C108.5,99 98.8,95.8 94.6,102 C84,117.6 66.7,127.8 47.1,127.8 C41.8,127.8 36.6,127 31.7,125.6 C24.6,123.6 19.2,132.2 24.3,137.5 C25.3,138.5 26.3,139.5 27.4,140.5 C29.6,142.5 32,143.3 34.9,143.3 C43.1,143.2 51.3,143.3 59.4,143.3 C67.6,143.3 75.9,143.3 84.2,143.3 C86.6,143.3 88.7,142.8 90.6,141.2 C101.1,132.3 107.1,119.6 108,106.4 Z" id="Shape" fill="#3973F4"></path>
            <ellipse id="Oval" fill="#5E95FD" cx="54.7" cy="4.3" rx="16.8" ry="1.8"></ellipse>
        </g>
    </g>
</svg>