<?xml version="1.0" encoding="UTF-8"?>
<svg width="103px" height="147px" viewBox="0 0 103 147" version="1.1" xmlns="http://www.w3.org/2000/svg" xmlns:xlink="http://www.w3.org/1999/xlink">
    <!-- Generator: Sketch 51.2 (57519) - http://www.bohemiancoding.com/sketch -->
    <title>Key</title>
    <desc>Created with Sketch.</desc>
    <defs></defs>
    <g id="Page-1" stroke="none" stroke-width="1" fill="none" fill-rule="evenodd">
        <g id="Key">
            <path d="M35.2,26.4 C30.7,26.4 27.1,22.8 27.1,18.3 C27.1,13.8 30.7,10.2 35.2,10.2 C39.7,10.2 43.3,13.8 43.3,18.3 C43.2,22.8 39.6,26.4 35.2,26.4 Z M35.2,0.2 C16.3,0.2 0.9,15.5 0.9,34.4 C0.9,49.3 10.4,62 23.7,66.7 L23.7,73.6 C23.7,76.2 24.6,78.8 26.1,80.9 L29.9,85.9 C30.5,86.7 30.4,87.8 29.6,88.5 L24.2,93.1 C23.9,93.4 23.7,93.7 23.7,94.1 C23.7,94.6 23.9,95 24.3,95.2 L25.8,96.1 L25.8,100.6 C25.8,101.9 26.5,103 27.5,103.7 C28.5,104.3 28.7,105.7 27.9,106.5 L24.6,110.3 C24,111 23.7,111.8 23.7,112.7 L23.7,115.8 C23.7,116.8 24.1,117.8 24.8,118.5 L27.6,121.2 C28.3,121.9 28.4,123 27.8,123.8 L24.5,127.8 C24,128.5 23.7,129.3 23.7,130.2 L23.7,133 C23.7,134.9 24.5,136.8 25.8,138.1 L33.6,145.5 C33.7,145.6 33.9,145.7 34,145.8 C35,146.4 36.4,146.1 37,145 L38,143.3 L45,130.8 C45.6,129.7 45.9,128.5 45.9,127.3 L45.9,66.8 C46,66.8 46.1,66.7 46.2,66.7 C59.6,62.1 69.2,49.3 69.2,34.3 C69.4,15.5 54.1,0.2 35.2,0.2 Z" id="Shape" fill="#4988FD" fill-rule="nonzero"></path>
            <path d="M66,40.5 C63.5,50.4 56.3,57.6 46.4,60.9 L46.4,66.8 C46.3,66.8 46.2,66.9 46.1,66.9 L46.1,93.3 C40.4,87.7 36.8,79.9 36.8,71.3 C36.8,54.8 49.7,41.4 66,40.5 Z" id="Shape" fill="#3973F4" fill-rule="nonzero"></path>
            <path d="M38.1,67.1 L38.1,143.4 L37.1,145.1 C36.5,146.2 35.1,146.5 34.1,145.9 L34.1,67.1 C34.1,66 35,65.1 36.1,65.1 C37.2,65.1 38.1,66 38.1,67.1 Z" id="Shape" fill="#3973F4" fill-rule="nonzero"></path>
            <path d="M54.6,48.3 C54.3,48.7 53.9,49.1 53.6,49.5" id="Shape" stroke="#91C2FF" stroke-width="3" stroke-linecap="round" stroke-linejoin="round"></path>
            <g id="Group" transform="translate(41.000000, 36.000000)" fill-rule="nonzero">
                <circle id="Oval" fill="#21D3AC" cx="31" cy="31.3" r="30.8"></circle>
                <path d="M28.1,43.4 C27,43.4 25.9,43 25.2,42.2 L16.6,33.6 C15,32 15,29.4 16.6,27.7 C18.2,26.1 20.8,26.1 22.5,27.7 L28.2,33.4 L41.2,20.4 C42.8,18.8 45.4,18.8 47.1,20.4 C48.7,22 48.7,24.6 47.1,26.3 L31.1,42.3 C30.2,43 29.2,43.4 28.1,43.4 Z" id="Shape" fill="#FFFFFF"></path>
            </g>
        </g>
    </g>
</svg>