<?xml version="1.0" encoding="UTF-8"?>
<svg width="149px" height="136px" viewBox="0 0 149 136" version="1.1" xmlns="http://www.w3.org/2000/svg" xmlns:xlink="http://www.w3.org/1999/xlink">
    <!-- Generator: Sketch 51.2 (57519) - http://www.bohemiancoding.com/sketch -->
    <title>Keys</title>
    <desc>Created with Sketch.</desc>
    <defs></defs>
    <g id="Page-1" stroke="none" stroke-width="1" fill="none" fill-rule="evenodd">
        <g id="Keys" fill-rule="nonzero">
            <g id="Group" transform="translate(19.000000, 17.000000)">
                <path d="M23.9,29.7 C23.6,33.6 20.2,36.6 16.3,36.4 C12.4,36.1 9.4,32.7 9.7,28.8 C10,24.9 13.3,21.9 17.3,22.2 C21.2,22.3 24.2,25.7 23.9,29.7 Z M0.9,28.1 C-0.2,44.8 12.4,59.1 29.1,60.2 C42.2,61.1 53.9,53.4 58.8,42 L64.9,42.4 C67.2,42.6 69.5,41.9 71.4,40.7 L76,37.7 C76.7,37.2 77.7,37.4 78.3,38.1 L82,43.1 C82.2,43.4 82.5,43.6 82.9,43.6 C83.3,43.6 83.7,43.4 83.9,43.1 L84.8,41.9 L88.8,42.2 C89.9,42.3 91,41.8 91.6,40.9 C92.2,40.1 93.4,40 94.1,40.7 L97.3,43.9 C97.9,44.5 98.6,44.8 99.4,44.8 L102.1,45 C103,45.1 103.9,44.8 104.5,44.2 L107,41.9 C107.6,41.3 108.6,41.3 109.3,41.9 L112.6,45 C113.2,45.5 113.9,45.8 114.6,45.9 L117.1,46.1 C118.8,46.2 120.4,45.6 121.7,44.5 L128.6,38 C128.7,37.9 128.8,37.8 128.9,37.7 C129.5,36.8 129.3,35.6 128.3,35 L126.9,34.1 L116.3,27.2 C115.4,26.6 114.3,26.3 113.3,26.2 L60.1,22.7 C60.1,22.6 60.1,22.5 60,22.4 C56.7,10.3 46,1.1 32.8,0.3 C16.3,-1.1 2,11.5 0.9,28.1 Z" id="Shape" fill="#3973F4"></path>
                <path d="M59.9,29.4 L127,33.8 L128.4,34.7 C129.3,35.3 129.5,36.5 129,37.4 L59.6,32.9 C58.6,32.8 57.9,32 58,31 C58.1,30.1 59,29.3 59.9,29.4 Z" id="Shape" fill="#2767F4"></path>
            </g>
            <g id="Group" transform="translate(12.000000, 35.000000)">
                <path d="M25.3,25.2 C22.5,28 18,28 15.2,25.2 C12.4,22.4 12.4,17.9 15.2,15.1 C18,12.3 22.5,12.3 25.3,15.1 C28,17.9 28,22.4 25.3,25.2 Z M8.9,8.9 C-2.9,20.7 -2.9,39.8 8.9,51.6 C18.2,60.9 32.1,62.9 43.3,57.5 L47.6,61.8 C49.2,63.4 51.4,64.5 53.6,64.8 L59.1,65.6 C60,65.7 60.6,66.5 60.5,67.4 L60,73.6 C60,73.9 60.1,74.3 60.3,74.5 C60.6,74.8 61,74.9 61.4,74.8 L62.9,74.5 L65.7,77.3 C66.5,78.1 67.6,78.4 68.7,78.2 C69.7,78 70.7,78.7 70.8,79.7 L71.1,84.2 C71.1,85 71.5,85.7 72.1,86.3 L74,88.2 C74.6,88.8 75.5,89.2 76.4,89.2 L79.8,89.1 C80.7,89.1 81.4,89.7 81.5,90.6 L81.9,95.1 C82,95.9 82.3,96.6 82.8,97.1 L84.6,98.9 C85.8,100.1 87.4,100.8 89.1,100.7 L98.6,100.4 C98.8,100.4 98.9,100.4 99,100.3 C100,100 100.7,99 100.4,97.9 L99.9,96.2 L96.5,84 C96.2,83 95.7,82 94.9,81.2 L57.2,43.5 C57.2,43.4 57.3,43.3 57.3,43.2 C62.8,31.9 60.8,18 51.5,8.6 C39.9,-2.9 20.7,-2.9 8.9,8.9 Z" id="Shape" fill="#4988FD"></path>
                <path d="M52.5,48.7 L100.1,96.3 L100.6,98 C100.9,99.1 100.2,100.1 99.2,100.4 L50,51.2 C49.3,50.5 49.3,49.4 50,48.7 C50.7,48 51.8,48.1 52.5,48.7 Z" id="Shape" fill="#3973F4"></path>
            </g>
            <path d="M56,17.5 C54.7,17.2 53.4,17.1 52,17 C51.3,17 50.6,16.9 49.9,16.9 C49.4,16.1 48.9,15.3 48.3,14.6 C40.1,4.3 25.1,2.5 14.7,10.7 C4.4,18.9 2.6,33.9 10.8,44.3 C12.5,46.4 14.4,48.2 16.6,49.5 C17.7,50.2 19,50.9 20.2,51.4 C21.9,52.1 23.7,52.7 25.5,53 C28.2,53.5 30.9,53.5 33.6,53 C34.9,52.8 36.3,52.4 37.6,52 C37.9,51.9 38.2,51.8 38.5,51.9 C38.6,52.2 38.8,52.4 38.9,52.7 C39.4,54 39.5,55.5 39.2,56.9 C36,58 32.8,58.6 29.6,58.6 C28.4,58.6 27.1,58.5 25.9,58.4 C24.5,58.2 23.1,57.9 21.7,57.5 C19.1,56.8 16.6,55.7 14.3,54.2 C11.5,52.5 9,50.2 6.8,47.5 C2,41.4 -0.1,33.8 0.8,26.1 C1.7,18.4 5.5,11.5 11.6,6.7 C24.2,-3.2 42.5,-1.1 52.4,11.5 C53.8,13.3 55,15.3 56,17.5 Z" id="Shape" fill="#2767F4"></path>
        </g>
    </g>
</svg>