<?xml version="1.0" encoding="UTF-8"?>
<svg width="149px" height="98px" viewBox="0 0 149 98" version="1.1" xmlns="http://www.w3.org/2000/svg" xmlns:xlink="http://www.w3.org/1999/xlink">
    <!-- Generator: Sketch 51.2 (57519) - http://www.bohemiancoding.com/sketch -->
    <title>Laptop_Store</title>
    <desc>Created with Sketch.</desc>
    <defs></defs>
    <g id="Page-1" stroke="none" stroke-width="1" fill="none" fill-rule="evenodd">
        <g id="Laptop_Store" fill-rule="nonzero">
            <g id="Group" transform="translate(3.000000, 0.000000)">
                <path d="M145.9,87.7 L145.9,91.5 C145.9,95 143,97.8 139.3,97.8 L7.2,97.8 C3.6,97.8 0.6,95 0.6,91.5 L0.6,87.7 L60.3,87.7 C60.8,89.1 62.2,90.1 63.8,90.1 L82.5,90.1 C84.1,90.1 85.5,89.1 86,87.7 L145.9,87.7 Z" id="Shape" fill="#2767F4"></path>
                <path d="M145.9,87.7 C145.9,91.1 143,93.9 139.3,93.9 L7.2,93.9 C3.6,93.9 0.7,91.1 0.6,87.7 L60.3,87.7 C60.8,89.1 62.2,90.1 63.8,90.1 L82.5,90.1 C84.1,90.1 85.5,89.1 86,87.7 L145.9,87.7 Z" id="Shape" fill="#3973F4"></path>
                <path d="M138.5,87.7 L8.2,87.7 L8.2,5.8 C8.2,2.8 10.6,0.4 13.6,0.4 L133.1,0.4 C136.1,0.4 138.5,2.8 138.5,5.8 L138.5,87.7 Z" id="Shape" fill="#4988FD"></path>
                <polyline id="Shape" fill="#FFFFFF" points="106 88 14.3 88 14.3 7.3 131.9 7.3 131.9 88 119.6 88"></polyline>
                <path d="M14.3,7.3 L131.9,7.3" id="Shape" fill="#FFFFFF"></path>
            </g>
            <g id="Group" transform="translate(0.000000, 5.000000)">
                <path d="M147.1,8.7 L135.4,0.5 C111.4,0.5 42.8,0.5 17.7,0.5 L0.2,8.7 L0.2,11.2 L0.3,11.2 C-0.3,17.1 4.4,22.9 10.7,22.9 C16.5,22.9 21.2,18.1 21.2,12.2 C21.2,18.1 25.9,22.9 31.7,22.9 C37.5,22.9 42.3,17.5 42.3,11.6 C42.3,17.5 46.9,22.9 52.7,22.9 C58.2,22.9 62.7,18.6 63.2,13.1 C63.9,19.1 68.9,23.2 73.7,23.2 C79.4,23.2 84.1,18.5 84.2,12.7 C84.2,12.9 84.2,13 84.2,13.2 L84.2,12.8 C87,28.2 105.1,24.6 105.1,12.3 C105.1,25.5 124.2,26.8 126.4,14.2 C127.5,19 131.6,23 136.6,23 C143.3,23 147.8,16.8 147,11.3 L147.1,11.3 L147.1,8.7 Z" id="Shape" fill="#DFECFD"></path>
                <g transform="translate(21.000000, 0.000000)" fill="#6097FD" id="Shape">
                    <path d="M84.5,8.7 L84.4,13 C84.5,12.5 84.5,12 84.5,11.5 C84.5,17.4 89.3,22.8 95.1,22.8 C100.9,22.8 105.6,18 105.6,12.1 C105.6,12.3 105.6,12.6 105.6,12.8 L105.5,9.1 L98.8,2.6 L96.8,0.4 L80.1,0.4 L84.5,8.7 Z"></path>
                    <path d="M21.3,8.7 L21.4,13 C21.3,12.5 21.3,12 21.3,11.5 C21.3,17.4 16.5,22.8 10.7,22.8 C4.9,22.8 0.2,18 0.2,12.1 C0.2,12.3 0.2,12.6 0.2,12.8 L0.3,9.1 L7,2.6 L9.2,0.5 L25.7,0.5 L21.3,8.7 Z"></path>
                    <path d="M42.1,8.9 L42,13.2 C42.1,12.7 42.1,12.2 42.1,11.7 C42.1,17.6 46.9,23 52.7,23 C58.5,23 63.2,18.2 63.2,12.3 C63.2,12.5 63.2,12.8 63.2,13 L63.1,9.3 L61.3,2.8 L60.5,0.4 L44.4,0.4 L42.1,8.9 Z"></path>
                </g>
            </g>
        </g>
    </g>
</svg>