<?xml version="1.0" encoding="UTF-8"?>
<svg width="149px" height="121px" viewBox="0 0 149 121" version="1.1" xmlns="http://www.w3.org/2000/svg" xmlns:xlink="http://www.w3.org/1999/xlink">
    <!-- Generator: Sketch 51.2 (57519) - http://www.bohemiancoding.com/sketch -->
    <title>Like_UI</title>
    <desc>Created with Sketch.</desc>
    <defs></defs>
    <g id="Page-1" stroke="none" stroke-width="1" fill="none" fill-rule="evenodd">
        <g id="Like_UI" fill-rule="nonzero">
            <g id="Group" transform="translate(0.000000, 24.000000)">
                <path d="M142.8,86.8 L142.8,90.5 C142.8,93.9 139.9,96.7 136.4,96.7 L6.4,96.7 C2.8,96.7 0,93.9 0,90.5 L0,86.8 L58.8,86.8 C59.3,88.2 60.7,89.2 62.3,89.2 L80.7,89.2 C82.3,89.2 83.7,88.2 84.2,86.8 L142.8,86.8 Z" id="Shape" fill="#2767F4"></path>
                <path d="M142.8,86.8 C142.8,90.2 139.9,92.9 136.4,92.9 L6.4,92.9 C2.8,92.9 0,90.2 0,86.8 L58.8,86.8 C59.3,88.2 60.7,89.2 62.3,89.2 L80.7,89.2 C82.3,89.2 83.7,88.2 84.2,86.8 L142.8,86.8 Z" id="Shape" fill="#3973F4"></path>
                <path d="M135.4,6.8 L135.4,86.9 L7.2,86.9 L7.2,6.8 C7.2,3.6 9.8,1 13,1 L129.6,1 C132.8,1 135.4,3.6 135.4,6.8 Z" id="Shape" fill="#4988FD"></path>
                <path d="M135.4,6.8 L135.4,29.9 C133.4,31.1 131.3,32 129,32.6 L129,7.7 L94.6,7.7 C94.6,7.2 94.6,6.8 94.6,6.3 C94.6,4.5 94.8,2.7 95.1,0.9 L129.6,0.9 C132.8,1 135.4,3.6 135.4,6.8 Z" id="Shape" fill="#3973F4"></path>
                <path d="M129,32.5 L129,87.1 L13.3,87.1 L13.3,7.6 L94.7,7.6 C95.4,22 107.3,33.4 121.8,33.4 C124.3,33.5 126.7,33.2 129,32.5 Z" id="Shape" fill="#FFFFFF"></path>
                <path d="M129,7.7 L129,32.6 C126.7,33.2 124.3,33.6 121.8,33.6 C107.2,33.6 95.4,22.1 94.7,7.8 L129,7.8 L129,7.7 Z" id="Shape" fill="#D4E8FF"></path>
                <path d="M13.3,7.7 L129,7.7" id="Shape" fill="#FFFFFF"></path>
            </g>
            <path d="M107.9,4.9 C112,2.2 116.9,0.6 122.2,0.6 C136.6,0.6 148.3,12.3 148.3,26.7 C148.3,41.1 136.6,52.8 122.2,52.8 C107.8,52.8 96.1,41.1 96.1,26.7 C96.1,17.6 100.8,9.6 107.9,4.9" id="Shape" fill="#21D3AC"></path>
            <path d="M138.2,28.7 C138,29.7 137.4,30.2 136,30.4 C137,31 137.6,31.8 137.3,32.9 C137,34.1 136.1,34.5 135,34.6 C135,34.6 135,34.7 135.1,34.7 C137.2,36.2 135.9,38.6 133.9,38.9 C133.6,39 133.4,39 133.1,39 C119.2,39 118.5,39.3 115.8,38 C115.7,38 115.7,37.9 115.6,37.9 C115.1,37.8 116,39.4 114.2,39.4 C108.8,39.4 108,39.7 108,38.1 L108,22.6 C108,21 108.7,21.3 114.2,21.4 C114.9,21.4 115.5,21.6 115.6,22.2 C115.6,22.3 115.7,22.4 115.7,22.6 C115.7,23.4 115.7,23.6 115.8,23.5 C122.3,18.9 122.3,14.7 122.7,12.6 C122.8,11.8 123.2,11.2 124,11 C127.1,10 127.7,16.4 126.5,20.7 C130.4,20.7 133,20.7 136,20.7 C139.1,20.7 140.3,24.7 136.6,26 C137.5,26.6 138.4,27.3 138.2,28.7 Z" id="Shape" fill="#FFFFFF"></path>
            <path d="M115.6,22.3 L115.6,38 C115.1,37.9 116,39.5 114.2,39.5 C108.8,39.5 108,39.8 108,38.2 L108,22.7 C108,21.1 108.7,21.4 114.2,21.5 C114.9,21.5 115.4,21.7 115.6,22.3 Z" id="Shape" fill="#D4E8FF"></path>
            <circle id="Oval" fill="#FFFFFF" cx="111.6" cy="36" r="1.2"></circle>
            <g id="Group" transform="translate(19.000000, 37.000000)">
                <path d="M2.2,0.5 C1,0.5 0,1.5 0,2.7 L0,42.4 C0,43.6 1,44.6 2.2,44.6 L29.2,44.6 C30.4,44.6 31.4,43.6 31.4,42.4 L31.4,2.7 C31.4,1.5 30.4,0.5 29.2,0.5 L2.2,0.5 Z M15.7,10.2 C18.6,10.2 20.9,12.5 20.9,15.4 C20.9,18.3 18.6,20.6 15.7,20.6 C12.8,20.6 10.5,18.3 10.5,15.4 C10.5,12.5 12.9,10.2 15.7,10.2 Z M18.5,34.8 L12.9,34.8 C12.2,34.8 11.6,34.2 11.6,33.5 C11.6,32.8 12.2,32.2 12.9,32.2 L18.5,32.2 C19.2,32.2 19.8,32.8 19.8,33.5 C19.8,34.2 19.2,34.8 18.5,34.8 Z M22.7,30.1 L8.7,30.1 C8,30.1 7.4,29.5 7.4,28.8 C7.4,28.1 8,27.5 8.7,27.5 L22.7,27.5 C23.4,27.5 24,28.1 24,28.8 C24,29.5 23.4,30.1 22.7,30.1 Z" id="Shape" fill="#C5DCFA"></path>
                <circle id="Oval" fill="#FFFFFF" cx="15.7" cy="15.4" r="5.2"></circle>
                <path d="M22.7,27.6 L8.7,27.6 C8,27.6 7.4,28.2 7.4,28.9 C7.4,29.6 8,30.2 8.7,30.2 L22.7,30.2 C23.4,30.2 24,29.6 24,28.9 C24,28.2 23.4,27.6 22.7,27.6 Z" id="Shape" fill="#FFFFFF"></path>
                <path d="M18.5,32.2 L12.9,32.2 C12.2,32.2 11.6,32.8 11.6,33.5 C11.6,34.2 12.2,34.8 12.9,34.8 L18.5,34.8 C19.2,34.8 19.8,34.2 19.8,33.5 C19.8,32.8 19.2,32.2 18.5,32.2 Z" id="Shape" fill="#FFFFFF"></path>
                <path d="M38.5,0.5 C37.3,0.5 36.3,1.5 36.3,2.7 L36.3,42.4 C36.3,43.6 37.3,44.6 38.5,44.6 L65.5,44.6 C66.7,44.6 67.7,43.6 67.7,42.4 L67.7,2.7 C67.7,1.5 66.7,0.5 65.5,0.5 L38.5,0.5 Z M52,10.2 C54.9,10.2 57.2,12.5 57.2,15.4 C57.2,18.3 54.9,20.6 52,20.6 C49.1,20.6 46.8,18.3 46.8,15.4 C46.8,12.5 49.1,10.2 52,10.2 Z M54.8,34.8 L49.2,34.8 C48.5,34.8 47.9,34.2 47.9,33.5 C47.9,32.8 48.5,32.2 49.2,32.2 L54.8,32.2 C55.5,32.2 56.1,32.8 56.1,33.5 C56.1,34.2 55.5,34.8 54.8,34.8 Z M59,30.1 L45,30.1 C44.3,30.1 43.7,29.5 43.7,28.8 C43.7,28.1 44.3,27.5 45,27.5 L59,27.5 C59.7,27.5 60.3,28.1 60.3,28.8 C60.3,29.5 59.7,30.1 59,30.1 Z" id="Shape" fill="#C5DCFA"></path>
                <circle id="Oval" fill="#FFFFFF" cx="52" cy="15.4" r="5.2"></circle>
                <path d="M59,27.6 L45,27.6 C44.3,27.6 43.7,28.2 43.7,28.9 C43.7,29.6 44.3,30.2 45,30.2 L59,30.2 C59.7,30.2 60.3,29.6 60.3,28.9 C60.3,28.2 59.7,27.6 59,27.6 Z" id="Shape" fill="#FFFFFF"></path>
                <path d="M54.8,32.2 L49.2,32.2 C48.5,32.2 47.9,32.8 47.9,33.5 C47.9,34.2 48.5,34.8 49.2,34.8 L54.8,34.8 C55.5,34.8 56.1,34.2 56.1,33.5 C56.1,32.8 55.5,32.2 54.8,32.2 Z" id="Shape" fill="#FFFFFF"></path>
                <path d="M102.4,20.5 C98.8,20.5 95.4,19.8 92.3,18.5 C91.4,19.7 89.9,20.5 88.3,20.5 C85.4,20.5 83.1,18.2 83.1,15.3 C83.1,14.4 83.3,13.6 83.7,12.9 C80.2,9.5 77.6,5.2 76.3,0.4 L74.8,0.4 C73.6,0.4 72.6,1.4 72.6,2.6 L72.6,42.3 C72.6,43.5 73.6,44.5 74.8,44.5 L101.8,44.5 C103,44.5 104,43.5 104,42.3 L104,20.4 C103.4,20.5 102.9,20.5 102.4,20.5 Z M91,34.8 L85.4,34.8 C84.7,34.8 84.1,34.2 84.1,33.5 C84.1,32.8 84.7,32.2 85.4,32.2 L91,32.2 C91.7,32.2 92.3,32.8 92.3,33.5 C92.3,34.2 91.7,34.8 91,34.8 Z M95.2,30.1 L81.2,30.1 C80.5,30.1 79.9,29.5 79.9,28.8 C79.9,28.1 80.5,27.5 81.2,27.5 L95.2,27.5 C95.9,27.5 96.5,28.1 96.5,28.8 C96.5,29.5 95.9,30.1 95.2,30.1 Z" id="Shape" fill="#C5DCFA"></path>
                <path d="M88.2,20.6 C89.8,20.6 91.3,19.8 92.2,18.6 C89,17.3 86,15.4 83.6,13 C83.2,13.7 83,14.5 83,15.4 C83,18.2 85.3,20.6 88.2,20.6 Z" id="Shape" fill="#FFFFFF"></path>
                <path d="M95.2,27.6 L81.2,27.6 C80.5,27.6 79.9,28.2 79.9,28.9 C79.9,29.6 80.5,30.2 81.2,30.2 L95.2,30.2 C95.9,30.2 96.5,29.6 96.5,28.9 C96.5,28.2 95.9,27.6 95.2,27.6 Z" id="Shape" fill="#FFFFFF"></path>
                <path d="M91,32.2 L85.4,32.2 C84.7,32.2 84.1,32.8 84.1,33.5 C84.1,34.2 84.7,34.8 85.4,34.8 L91,34.8 C91.7,34.8 92.3,34.2 92.3,33.5 C92.3,32.8 91.7,32.2 91,32.2 Z" id="Shape" fill="#FFFFFF"></path>
                <path d="M31.4,50.9 C31.4,49.7 30.4,48.7 29.2,48.7 L2.2,48.7 C1,48.7 -1.13686838e-13,49.7 -1.13686838e-13,50.9 L-1.13686838e-13,74.2 L31.4,74.2 L31.4,50.9 Z M15.7,68.7 C12.8,68.7 10.5,66.4 10.5,63.5 C10.5,60.6 12.8,58.3 15.7,58.3 C18.6,58.3 20.9,60.6 20.9,63.5 C20.9,66.4 18.6,68.7 15.7,68.7 Z" id="Shape" fill="#C5DCFA"></path>
                <circle id="Oval" fill="#FFFFFF" cx="15.7" cy="63.5" r="5.2"></circle>
                <path d="M67.6,50.9 C67.6,49.7 66.6,48.7 65.4,48.7 L38.4,48.7 C37.2,48.7 36.2,49.7 36.2,50.9 L36.2,74.2 L67.6,74.2 L67.6,50.9 Z M52,68.7 C49.1,68.7 46.8,66.4 46.8,63.5 C46.8,60.6 49.1,58.3 52,58.3 C54.9,58.3 57.2,60.6 57.2,63.5 C57.2,66.4 54.8,68.7 52,68.7 Z" id="Shape" fill="#C5DCFA"></path>
                <circle id="Oval" fill="#FFFFFF" cx="52" cy="63.5" r="5.2"></circle>
                <path d="M103.9,50.9 C103.9,49.7 102.9,48.7 101.7,48.7 L74.7,48.7 C73.5,48.7 72.5,49.7 72.5,50.9 L72.5,74.2 L103.9,74.2 L103.9,50.9 Z M88.2,68.7 C85.3,68.7 83,66.4 83,63.5 C83,60.6 85.3,58.3 88.2,58.3 C91.1,58.3 93.4,60.6 93.4,63.5 C93.4,66.4 91.1,68.7 88.2,68.7 Z" id="Shape" fill="#C5DCFA"></path>
                <circle id="Oval" fill="#FFFFFF" cx="88.2" cy="63.5" r="5.2"></circle>
            </g>
        </g>
    </g>
</svg>