<?xml version="1.0" encoding="UTF-8"?>
<svg width="92px" height="144px" viewBox="0 0 92 144" version="1.1" xmlns="http://www.w3.org/2000/svg" xmlns:xlink="http://www.w3.org/1999/xlink">
    <!-- Generator: Sketch 51.2 (57519) - http://www.bohemiancoding.com/sketch -->
    <title>Like</title>
    <desc>Created with Sketch.</desc>
    <defs></defs>
    <g id="Page-1" stroke="none" stroke-width="1" fill="none" fill-rule="evenodd">
        <g id="Like" fill-rule="nonzero">
            <g id="Group" transform="translate(0.000000, 19.000000)">
                <path d="M58.2,124.6 L9.2,124.6 C4.3,124.6 0.3,120.6 0.3,115.7 L0.3,9.7 C0.3,4.8 4.3,0.8 9.2,0.8 L58.2,0.8 C63.1,0.8 67.1,4.8 67.1,9.7 L67.1,115.7 C67.1,120.7 63.1,124.6 58.2,124.6 Z" id="Shape" fill="#FFFFFF"></path>
                <path d="M67.1,9.7 L67.1,115.7 C67.1,120.6 63.1,124.6 58.2,124.6 L9.2,124.6 C4.3,124.6 0.3,120.6 0.3,115.7 L0.3,9.7 C0.3,4.8 4.3,0.8 9.2,0.8 L58.2,0.8 C63.1,0.8 67.1,4.8 67.1,9.7 Z" id="Shape" fill="#4988FD"></path>
                <path d="M67.1,9.7 L67.1,41.3 C65.5,41.6 63.9,41.7 62.3,41.7 C47.6,41.7 35.7,29.8 35.7,15.1 C35.7,9.9 37.2,5 39.8,0.8 L58.2,0.8 C63.1,0.8 67.1,4.8 67.1,9.7 Z" id="Shape" fill="#2767F4"></path>
                <circle id="Oval" fill="#2767F4" cx="33.7" cy="116.5" r="4.1"></circle>
                <g transform="translate(26.000000, 5.000000)" fill="#2767F4" id="Shape">
                    <path d="M14.2,2.5 L5,2.5 C4.5,2.5 4.1,2.1 4.1,1.6 C4.1,1.1 4.5,0.7 5,0.7 L14.2,0.7 C14.7,0.7 15.1,1.1 15.1,1.6 C15.1,2.1 14.7,2.5 14.2,2.5 Z"></path>
                    <path d="M1.5,2.5 L1.2,2.5 C0.7,2.5 0.3,2.1 0.3,1.6 C0.3,1.1 0.7,0.7 1.2,0.7 L1.5,0.7 C2,0.7 2.4,1.1 2.4,1.6 C2.4,2.1 2.1,2.5 1.5,2.5 Z"></path>
                </g>
                <rect id="Rectangle-path" fill="#FFFFFF" x="3.4" y="11.2" width="60.6" height="97.5"></rect>
                <path d="M64,11.2 L64,41.6 C63.4,41.6 62.9,41.7 62.3,41.7 C47.6,41.7 35.7,29.8 35.7,15.1 C35.7,13.8 35.8,12.5 36,11.3 L64,11.3 L64,11.2 Z" id="Shape" fill="#DFEBFA"></path>
            </g>
            <g id="Group" transform="translate(9.000000, 44.000000)">
                <path d="M48.8,3.9 L48.8,65.7 C48.8,67.6 47.3,69.1 45.4,69.1 L3.4,69.1 C1.5,69.1 0,67.6 0,65.7 L0,3.9 C0,2 1.5,0.5 3.4,0.5 L45.4,0.5 C47.3,0.5 48.8,2 48.8,3.9 Z" id="Shape" fill="#C5DCFA"></path>
                <path d="M48.8,3.9 L48.8,16.3 C39.8,14.8 32.3,8.7 28.8,0.5 L45.4,0.5 C47.3,0.5 48.8,2 48.8,3.9 Z" id="Shape" fill="#B5D0F2"></path>
                <circle id="Oval" fill="#FFFFFF" cx="24.4" cy="23.6" r="8.1"></circle>
                <path d="M35.3,46.5 L13.5,46.5 C12.4,46.5 11.5,45.6 11.5,44.5 C11.5,43.4 12.4,42.5 13.5,42.5 L35.3,42.5 C36.4,42.5 37.3,43.4 37.3,44.5 C37.3,45.6 36.4,46.5 35.3,46.5 Z" id="Shape" fill="#FFFFFF"></path>
                <path d="M28.7,53.8 L20,53.8 C18.9,53.8 18,52.9 18,51.8 C18,50.7 18.9,49.8 20,49.8 L28.7,49.8 C29.8,49.8 30.7,50.7 30.7,51.8 C30.7,52.9 29.8,53.8 28.7,53.8 Z" id="Shape" fill="#FFFFFF"></path>
            </g>
            <path d="M50.2,5 C54.4,2.2 59.4,0.6 64.8,0.6 C79.5,0.6 91.4,12.5 91.4,27.2 C91.4,41.9 79.5,53.8 64.8,53.8 C50.1,53.8 38.2,41.9 38.2,27.2 C38.2,17.9 42.9,9.7 50.2,5" id="Shape" fill="#21D3AC"></path>
            <path d="M74.4,35.1 C71.6,37.2 68.7,39.1 65.8,41 C65.6,41.1 65.2,41.2 65.1,41.1 C57.4,36.3 48.7,31.4 51.2,21.5 C52.3,16.9 57,14.6 61.4,16.5 C62.4,16.9 63.4,17.6 64.3,18.2 C65.3,19 65.6,19 66.6,18.2 C72.2,13.6 78.8,16.1 79.8,22.2 C80.6,27.1 79,31.6 74.4,35.1 Z" id="Shape" fill="#FFFFFF"></path>
        </g>
    </g>
</svg>