<?xml version="1.0" encoding="UTF-8"?>
<svg width="139px" height="129px" viewBox="0 0 139 129" version="1.1" xmlns="http://www.w3.org/2000/svg" xmlns:xlink="http://www.w3.org/1999/xlink">
    <!-- Generator: Sketch 51.2 (57519) - http://www.bohemiancoding.com/sketch -->
    <title>Like_1_</title>
    <desc>Created with Sketch.</desc>
    <defs></defs>
    <g id="Page-1" stroke="none" stroke-width="1" fill="none" fill-rule="evenodd">
        <g id="Like_1_">
            <g id="Group">
                <path d="M127.9,68.1 C144.8,62.1 139.3,44.4 125.3,44.4 C112.2,44.4 100.3,44.4 82.9,44.4 C88.5,25.3 85.6,-3.2 71.8,1.1 C68.4,2.2 66.5,4.7 65.9,8.4 C64.4,17.5 64.3,36.4 35.1,57.1 C34.4,57.6 34.5,56.5 34.5,53.1 C34.5,52.8 34.5,52.6 34.5,52.4 C34.2,49 31.7,47.8 28,47.8 C3.5,47.7 0.4,46.3 0.4,53.4 C0.4,74 0.4,94.5 0.4,115.1 L0.4,122.9 C0.4,130 3.7,128.6 28,128.5 C36.3,128.5 31.8,121.1 34.5,121.9 C34.7,121.9 34.9,122 35.1,122.1 C46.9,127.8 50,126.6 112.3,126.5 C113.5,126.5 114.8,126.4 116,126.2 C124.4,124.7 130.1,114.5 122.3,107.9 C122,107.6 121.7,107.4 121.3,107.1 C121.2,107 121.2,106.9 121.1,106.7 C121.6,106.6 122,106.6 122.5,106.5 C123.6,106.3 124.6,106 125.6,105.6 C128.3,104.5 130.3,102.5 131.2,99.1 C132.5,93.9 129.9,90.5 125.6,87.8 C132,86.8 134.8,84.8 135.7,80.2 C136.8,73.9 132.7,70.8 127.9,68.1 Z M17.5,62 C20.4,62 22.7,64.3 22.7,67.2 C22.7,70.1 20.4,72.4 17.5,72.4 C14.6,72.4 12.3,70.1 12.3,67.2 C12.2,64.3 14.6,62 17.5,62 Z" id="Shape" fill="#DFECFD" fill-rule="nonzero"></path>
                <path d="M116,126 C114.8,126.2 113.6,126.3 112.3,126.3 C50,126.4 46.9,127.6 35.1,121.9 C34.9,121.8 34.7,121.7 34.5,121.7 C31.8,121 36.3,128.3 28,128.3 C3.7,128.4 0.4,129.8 0.4,122.7 L0.4,114.9 C7.2,117.1 28.9,120.7 33.6,111 C43.7,117 84.6,120.2 98.4,118.7 C112.2,117.2 123.5,115.6 122.3,108.8 C122.2,108.4 122.2,108.1 122.2,107.8 C130.1,114.4 124.4,124.5 116,126 Z" id="Shape" fill="#C5DCFA" fill-rule="nonzero"></path>
                <path d="M28.1,47.7 C3.6,47.6 0.5,46.2 0.5,53.3 C0.5,73.9 0.5,94.4 0.5,115 L0.5,122.8 C0.5,129.9 3.8,128.5 28.1,128.4 C36.4,128.4 31.9,121 34.6,121.8 L34.6,52.4 C34.3,49 31.8,47.7 28.1,47.7 Z M17.5,62 C20.4,62 22.7,64.3 22.7,67.2 C22.7,70.1 20.4,72.4 17.5,72.4 C14.6,72.4 12.3,70.1 12.3,67.2 C12.2,64.3 14.6,62 17.5,62 Z" id="Shape" fill="#4988FD" fill-rule="nonzero"></path>
                <path d="M34.6,111.5 L34.6,121.8 C34.6,124.2 35.4,128.4 28.1,128.4 C3.8,128.4 0.5,129.9 0.5,122.8 L0.5,115 C7.3,117.2 29,120.8 33.7,111.1 C34,111.2 34.3,111.3 34.6,111.5 Z" id="Shape" fill="#3973F4" fill-rule="nonzero"></path>
                <path d="M34.6,78.5 L34.6,57.1" id="Shape"></path>
            </g>
        </g>
    </g>
</svg>