<?xml version="1.0" encoding="UTF-8"?>
<svg width="143px" height="144px" viewBox="0 0 143 144" version="1.1" xmlns="http://www.w3.org/2000/svg" xmlns:xlink="http://www.w3.org/1999/xlink">
    <!-- Generator: Sketch 51.2 (57519) - http://www.bohemiancoding.com/sketch -->
    <title>Link</title>
    <desc>Created with Sketch.</desc>
    <defs></defs>
    <g id="Page-1" stroke="none" stroke-width="1" fill="none" fill-rule="evenodd">
        <g id="Link" fill-rule="nonzero">
            <path d="M78.4,87.6 C78,85.8 77.3,84 76.5,82.3 C75.2,79.6 73.4,77.1 71.2,74.9 L68.3,71.9 C67.7,71.3 67.2,70.8 66.6,70.3 C55.8,61.2 39.5,61.7 29.3,71.9 L8.1,93.1 C-0.8,102 -2.4,115.6 3.6,126.2 C4.8,128.3 6.3,130.4 8.1,132.2 L11.1,135.2 C16.5,140.6 23.5,143.3 30.6,143.3 C37.7,143.3 44.7,140.6 50.1,135.2 L71.3,114 C78.3,106.8 80.7,96.7 78.4,87.6 Z M18.4,103.6 L39.6,82.4 C42.1,79.9 45.4,78.6 48.7,78.6 C52,78.6 55.3,79.9 57.8,82.4 L60.8,85.4 C63,87.6 64.3,90.4 64.5,93.3 C64.8,97 63.6,100.8 60.8,103.6 L39.6,124.8 C34.6,129.8 26.4,129.8 21.4,124.8 L18.4,121.8 C18,121.4 17.7,121 17.4,120.6 C13.4,115.6 13.7,108.2 18.4,103.6 Z" id="Shape" fill="#3973F4"></path>
            <path d="M142.1,23.8 C140.9,19.1 138.5,14.7 134.9,11.1 L131.9,8.1 C121.1,-2.7 103.6,-2.7 92.9,8.1 L71.7,29.3 C62.8,38.2 61.3,51.8 67.2,62.4 C68.4,64.5 69.9,66.6 71.7,68.4 L74.7,71.4 C80.1,76.8 87.1,79.5 94.2,79.5 C101.3,79.5 108.3,76.8 113.7,71.4 L134.9,50.2 C142.1,43 144.5,33 142.1,23.8 Z M82.2,39.8 L103.4,18.6 C105.9,16.1 109.2,14.8 112.5,14.8 C115.8,14.8 119.1,16.1 121.6,18.6 L124.6,21.6 C126.8,23.8 128,26.6 128.3,29.5 C128.6,33.2 127.4,37 124.6,39.9 L103.4,61.1 C98.4,66.1 90.2,66.1 85.2,61.1 L82.2,58.1 C81.8,57.7 81.5,57.3 81.2,56.9 C77.2,51.8 77.5,44.4 82.2,39.8 Z" id="Shape" fill="#3973F4"></path>
            <path d="M103.5,47.9 C103.3,49.4 102.6,50.9 101.4,52 L52.6,100.8 C51.2,102.2 49.3,103 47.4,103 C45.5,103 43.6,102.3 42.2,100.8 C41.9,100.5 41.7,100.2 41.5,99.9 C39.4,97 39.6,93 42.2,90.4 L91,41.6 C93.9,38.7 98.5,38.7 101.4,41.6 C103.1,43.4 103.8,45.7 103.5,47.9 Z" id="Shape" fill="#4988FD"></path>
        </g>
    </g>
</svg>