<?xml version="1.0" encoding="UTF-8"?>
<svg width="113px" height="145px" viewBox="0 0 113 145" version="1.1" xmlns="http://www.w3.org/2000/svg" xmlns:xlink="http://www.w3.org/1999/xlink">
    <!-- Generator: Sketch 51.2 (57519) - http://www.bohemiancoding.com/sketch -->
    <title>Link_File</title>
    <desc>Created with Sketch.</desc>
    <defs></defs>
    <g id="Page-1" stroke="none" stroke-width="1" fill="none" fill-rule="evenodd">
        <g id="Link_File" fill-rule="nonzero">
            <path d="M111.1,35.6 L112.3,138.1 C112.3,141.6 109.5,144.4 106,144.4 L6.3,144.4 C2.8,144.4 0,141.6 0,138.1 L0,6.3 C0,2.8 2.8,0 6.3,0 L78.6,0 L111.1,35.6 Z" id="Shape" fill="#4988FD"></path>
            <path d="M78.6,0.1 L78.6,28.4 C78.6,32.3 82.1,35.6 85.9,35.6 L111,35.6" id="Shape" fill="#3973F4"></path>
            <path d="M56.8,60.4 C61.5,65.1 61.5,72.7 56.8,77.4 L53,81.2 C48.3,85.9 40.7,85.9 36,81.2 L26.7,71.9 C22,67.2 22,59.6 26.7,54.9 L30.5,51.1 C35.2,46.4 42.8,46.4 47.5,51.1 L56.8,60.4 Z M45.2,59.2 L42.2,56.2 C40.4,54.4 37.4,54.4 35.5,56.2 L31.7,60 C29.9,61.8 29.9,64.8 31.7,66.7 L41,76 C42.8,77.8 45.8,77.8 47.7,76 L51.5,72.2 C53.3,70.4 53.3,67.4 51.5,65.5 L49.4,63.4 L45.2,59.2 Z" id="Shape" fill="#C5DCFA"></path>
            <path d="M86.6,90.2 C91.3,94.9 91.3,102.5 86.6,107.2 L82.8,111 C78.1,115.7 70.5,115.7 65.8,111 L56.6,101.8 C51.9,97.1 51.9,89.5 56.6,84.8 L60.4,81 C65.1,76.3 72.7,76.3 77.4,81 L86.6,90.2 Z M70.4,105.3 L70.9,105.8 C72.7,107.6 75.7,107.6 77.6,105.8 L81.4,102 C83.2,100.2 83.2,97.2 81.4,95.3 L72.2,86.1 C70.4,84.3 67.4,84.3 65.5,86.1 L61.7,89.9 C59.9,91.7 59.9,94.7 61.7,96.6 L63.9,98.8 L70.4,105.3 Z" id="Shape" fill="#C5DCFA"></path>
            <path d="M68.2,87.4 C69.7,88.9 69.7,91.4 68.2,92.9 C66.7,94.4 64.2,94.4 62.7,92.9 L45.8,76 C44.3,74.5 44.3,72 45.8,70.5 C47.3,69 49.8,69 51.3,70.5 L52.3,71.5" id="Shape" fill="#DFECFD"></path>
        </g>
    </g>
</svg>