<?xml version="1.0" encoding="UTF-8"?>
<svg width="116px" height="146px" viewBox="0 0 116 146" version="1.1" xmlns="http://www.w3.org/2000/svg" xmlns:xlink="http://www.w3.org/1999/xlink">
    <!-- Generator: Sketch 51.2 (57519) - http://www.bohemiancoding.com/sketch -->
    <title>Lock</title>
    <desc>Created with Sketch.</desc>
    <defs></defs>
    <g id="Page-1" stroke="none" stroke-width="1" fill="none" fill-rule="evenodd">
        <g id="Lock" fill-rule="nonzero">
            <path d="M15,53.6 C18.5,53.6 23.2,53.1 26.7,53.1 C26.7,46.7 26.8,40.1 28.9,34 C32.9,22.1 44.8,13.4 57.3,13.1 C69.8,12.8 82.1,21 86.7,32.7 C89.2,39.2 89.5,46.3 89.3,53.2 C92.9,53.2 96.4,53.2 100,53.1 C102.9,38.3 97.7,22.2 86.6,12.1 C55.6,-16.2 8.4,10.7 15,53.6 Z" id="Shape" fill="#2767F4"></path>
            <path d="M115.2,54.3 L115.2,138.8 C115.2,142.6 112.1,145.7 108.3,145.7 L7.4,145.7 C3.6,145.7 0.5,142.6 0.5,138.8 L0.5,54.3 C0.5,50.5 3.6,47.4 7.4,47.4 L108.3,47.4 C110.6,47.4 112.7,48.6 113.9,50.3 C114.7,51.5 115.2,52.8 115.2,54.3 Z" id="Shape" fill="#4988FD"></path>
            <path d="M113.9,50.4 L113.9,122.5 C113.9,126.3 110.8,129.4 107,129.4 L6.1,129.4 C3.8,129.4 1.7,128.2 0.5,126.5 L0.5,54.4 C0.5,50.6 3.6,47.5 7.4,47.5 L108.3,47.5 C110.6,47.4 112.7,48.6 113.9,50.4 Z" id="Shape" fill="#6097FD"></path>
            <path d="M72.5,87 C72.5,93.1 68.6,98.2 63.1,99.9 L63.1,114.2 C63.1,116.5 61.2,118.3 59,118.3 C56.7,118.3 54.9,116.4 54.9,114.2 L54.9,99.9 C49.4,98.1 45.5,93 45.5,87 C45.5,79.5 51.6,73.5 59,73.5 C66.4,73.5 72.5,79.6 72.5,87 Z" id="Shape" fill="#2767F4"></path>
        </g>
    </g>
</svg>