<?xml version="1.0" encoding="UTF-8"?>
<svg width="98px" height="147px" viewBox="0 0 98 147" version="1.1" xmlns="http://www.w3.org/2000/svg" xmlns:xlink="http://www.w3.org/1999/xlink">
    <!-- Generator: Sketch 51.2 (57519) - http://www.bohemiancoding.com/sketch -->
    <title>Log_Out</title>
    <desc>Created with Sketch.</desc>
    <defs></defs>
    <g id="Page-1" stroke="none" stroke-width="1" fill="none" fill-rule="evenodd">
        <g id="Log_Out" fill-rule="nonzero">
            <path d="M76.1,118.9 L7.7,118.9 C3.7,118.9 0.5,115.7 0.5,111.7 L0.5,7.7 C0.5,3.7 3.7,0.5 7.7,0.5 L76.1,0.5 C81.1,0.5 85.1,4.5 85.1,9.5 L85.1,109.9 C85.2,114.8 81.1,118.9 76.1,118.9 Z" id="Shape" fill="#FFFFFF"></path>
            <path d="M85.2,9.4 L85.2,109.8 C85.2,114.8 81.2,118.8 76.2,118.8 L7.7,118.8 C7,118.8 6.3,118.7 5.6,118.5 C2.6,117.6 0.4,114.9 0.4,111.6 L0.4,7.6 C0.4,3.6 3.6,0.4 7.6,0.4 L76.1,0.4 C81.1,0.4 85.2,4.5 85.2,9.4 Z" id="Shape" fill="#2767F4"></path>
            <path d="M32.4,145.3 L4.6,121.4 C2,119.2 0.5,115.9 0.5,112.5 L0.5,5.4 C0.5,3.1 3.2,1.8 5,3.3 L35.3,29.4 C37.4,31.2 38.6,33.8 38.6,36.6 L38.6,142.5 C38.6,145.7 34.8,147.4 32.4,145.3 Z" id="Shape" fill="#6097FD"></path>
            <path d="M96.8,56.7 L83.7,43.6 C82.1,42 79.4,42 77.8,43.6 C76.2,45.2 76.2,47.9 77.8,49.5 L83.8,55.5 L55.4,55.5 C53.1,55.5 51.2,57.4 51.2,59.7 C51.2,62 53.1,63.9 55.4,63.9 L83.8,63.9 L77.8,69.9 C76.2,71.5 76.2,74.2 77.8,75.8 C78.6,76.6 79.7,77 80.8,77 C81.9,77 82.9,76.6 83.7,75.8 L96.8,62.7 C97.6,61.9 98,60.9 98,59.7 C98,58.5 97.6,57.5 96.8,56.7 Z" id="Shape" fill="#21D3AC"></path>
        </g>
    </g>
</svg>