<?xml version="1.0" encoding="UTF-8"?>
<svg width="147px" height="120px" viewBox="0 0 147 120" version="1.1" xmlns="http://www.w3.org/2000/svg" xmlns:xlink="http://www.w3.org/1999/xlink">
    <!-- Generator: Sketch 51.2 (57519) - http://www.bohemiancoding.com/sketch -->
    <title>Map</title>
    <desc>Created with Sketch.</desc>
    <defs></defs>
    <g id="Page-1" stroke="none" stroke-width="1" fill="none" fill-rule="evenodd">
        <g id="Map" fill-rule="nonzero">
            <path d="M131.2,119.4 L16.2,119.4 C7.8,119.4 0.9,112.6 0.9,104.1 L0.9,27.8 L146.401089,27.8 L146.4,104.1 C146.5,112.6 139.7,119.4 131.2,119.4 Z" id="Shape" fill="#DFECFD"></path>
            <path d="M137.3,91.9 C130.1,102.3 123.4,102.1 121.4,93.6 C120.8,90.9 121.5,81.4 133.8,85.9 L137.3,91.9 Z" id="Shape" fill="#4988FD"></path>
            <path d="M137.3,75.6 C137.3,75.6 123.4,75.6 121.2,68.9 C119.4,63.6 117.6,66.8 117,68.3 C116.8,68.8 116.5,69.1 116.1,69.4 C114.3,70.5 109.7,73 107.9,71.2 C105.7,69 101.2,62.3 99,60.1 C97.3,58.4 86.9,59.3 81.8,59.8 C80.2,60 79,58.6 79.2,57 C79.8,52.2 81.9,50.1 82.9,49.3 C83.2,49.1 83.5,48.9 83.9,48.8 C86,48.4 94.8,46.7 96.8,46.7 C99,46.7 101.3,40 103.5,40 C105.7,40 114.6,42.2 116.9,40 C119.3,37.6 126.8,35 137.4,35.9 L137.4,75.6 L137.3,75.6 Z" id="Shape" fill="#4988FD"></path>
            <path d="M13.2,71.4 L13.2,91.5 C9.8,91.5 6.7,92.9 4.5,95.1 C2.3,97.3 0.9,100.4 0.9,103.8 L0.9,13.1 C0.9,9.7 2.3,6.6 4.5,4.4 C6.7,2.2 9.8,0.8 13.2,0.8 L13.2,60.4 C13.2,60.5 13.1,71.6 13.2,71.4 Z" id="Shape" fill="#FFFFFF"></path>
            <path d="M13.2,71.4 L13.2,91.5 C9.8,91.5 6.7,92.9 4.5,95.1 C2.3,97.3 0.9,100.4 0.9,103.8 L0.9,13.1 C0.9,9.7 2.3,6.6 4.5,4.4 C6.7,2.2 9.8,0.8 13.2,0.8 L13.2,60.4 C13.2,60.5 13.1,71.6 13.2,71.4 Z" id="Shape" fill="#C5DCFA"></path>
            <path d="M134.1,71.4 L134.1,91.5 C137.5,91.5 140.6,92.9 142.8,95.1 C145,97.3 146.4,100.4 146.4,103.8 L146.4,13.1 C146.4,9.7 145,6.6 142.8,4.4 C140.6,2.2 137.5,0.8 134.1,0.8 L134.1,60.4 C134.1,60.5 134.2,71.6 134.1,71.4 Z" id="Shape" fill="#FFFFFF"></path>
            <path d="M134.1,71.4 L134.1,91.5 C137.5,91.5 140.6,92.9 142.8,95.1 C145,97.3 146.4,100.4 146.4,103.8 L146.4,13.1 C146.4,9.7 145,6.6 142.8,4.4 C140.6,2.2 137.5,0.8 134.1,0.8 L134.1,60.4 C134.1,60.5 134.2,71.6 134.1,71.4 Z" id="Shape" fill="#C5DCFA"></path>
            <path d="M61.1,56.3 C60.9,52.5 60,49.5 59.4,48 C59.1,47.2 58.4,46.6 57.6,46.5 C54.6,45.9 47.3,44.5 45.5,44.5 C43.3,44.5 41,31.1 32.1,35.6 C23.2,40.1 21,42.3 23.2,49 C25.4,55.7 29.9,51.2 29.9,55.7 C29.9,60.2 27.7,64.6 29.9,66.8 C31.7,68.6 37.6,70.3 40,73.2 C40.9,74.2 42.4,74.4 43.5,73.5 C46.3,71.1 47.8,70.4 47.8,66.8 C47.8,62.3 52.3,62.3 56.7,60.1 L59.8,58.6 C60.6,58.1 61.1,57.2 61.1,56.3 Z" id="Shape" fill="#4988FD"></path>
            <path d="M48.4,77.7 C48,77.8 47.6,78 47.3,78.3 L43.3,82.3 C43.3,82.3 41.1,84.5 41.1,86.8 C41.1,88.8 44.7,94.4 45.4,95.5 C45.5,95.6 45.6,95.8 45.6,96 C46.1,97.2 48.1,102.8 48.3,107.2 C48.4,109.1 50.6,110.1 52.1,109 C56.2,106 58.8,101.3 58.8,98 C58.8,93.5 58.8,91.3 61,91.3 C63.2,91.3 67.7,86.8 65.5,82.4 C63.7,78.9 59.2,76.7 57.3,76 C56.8,75.8 56.3,75.8 55.8,75.9 L48.4,77.7 Z" id="Shape" fill="#4988FD"></path>
            <path d="M81.2,75.6 L81.2,76.7 L81.2,82.6 C81.2,83.7 81.9,84.6 83,84.9 C86.1,85.7 92.4,87.8 92.4,91.2 L92.4,102 C92.4,103.4 93.7,104.6 95.1,104.4 C99.1,103.9 106.4,102.1 108,95.7 C110.2,86.8 110.2,84.6 108,80.1 C106,76.1 98.8,72.2 97.2,71.4 C97,71.3 96.8,71.2 96.5,71.2 C94.6,70.8 85.7,69.5 83.5,71.3 C81.6,72.5 81.1,73.7 81.2,75.6 Z" id="Shape" fill="#4988FD"></path>
        </g>
    </g>
</svg>