<?xml version="1.0" encoding="UTF-8"?>
<svg width="149px" height="145px" viewBox="0 0 149 145" version="1.1" xmlns="http://www.w3.org/2000/svg" xmlns:xlink="http://www.w3.org/1999/xlink">
    <!-- Generator: Sketch 51.2 (57519) - http://www.bohemiancoding.com/sketch -->
    <title>Map_2</title>
    <desc>Created with Sketch.</desc>
    <defs></defs>
    <g id="Page-1" stroke="none" stroke-width="1" fill="none" fill-rule="evenodd">
        <g id="Map_2" fill-rule="nonzero">
            <path d="M143.6,142.6 L110.7,130 L74.5,144.6 L35.3,130 L5.3,141.5 C2.6,142.5 -0.2,140 0.6,137.2 L19.3,72.5 C19.9,70.4 21.4,68.6 23.4,67.7 L53.4,53.6 L74.5,68.7 L95.1,55.6 L128.3,70.2 C130.5,71.2 132.1,73.1 132.6,75.4 L148.2,138.5 C149,141.3 146.3,143.7 143.6,142.6 Z" id="Shape" fill="#DFECFD"></path>
            <path d="M53.5,53.7 L35.4,130 L5.4,141.5 C2.7,142.5 -0.1,140 0.7,137.2 L19.4,72.5 C20,70.4 21.5,68.6 23.5,67.7 L53.5,53.7 Z" id="Shape" fill="#C5DCFA"></path>
            <path d="M143.4,143.1 L110.5,130.5 L94.9,56.2 L128.1,70.8 C130.3,71.8 131.9,73.7 132.4,76 L148,139.1 C148.8,141.7 146,144.1 143.4,143.1 Z" id="Shape" fill="#DFECFD"></path>
            <polygon id="Shape" fill="#C5DCFA" points="110.8 130 74.6 144.6 74.6 68.7 95.2 55.7"></polygon>
            <path d="M42.3,112.7 C42.2,112.7 42.1,112.7 41.9,112.7 C41.5,112.6 41.2,112.6 40.8,112.5 C39.7,112.2 39.1,111.2 39.3,110.1 C39.5,109 40.6,108.4 41.7,108.6 C42,108.7 42.3,108.7 42.6,108.8 C43.7,109 44.4,110 44.2,111.1 C44.1,112 43.3,112.7 42.3,112.7 Z M49.3,112.4 C48.4,112.4 47.6,111.8 47.4,110.9 C47.1,109.8 47.8,108.7 48.9,108.5 C49.2,108.4 49.5,108.3 49.8,108.3 C50.9,108 52,108.6 52.3,109.6 C52.6,110.7 52,111.8 51,112.1 C50.6,112.2 50.3,112.3 49.9,112.4 C49.6,112.4 49.4,112.4 49.3,112.4 Z M35,109.6 C34.6,109.6 34.2,109.5 33.9,109.3 C33.6,109.1 33.3,108.9 33,108.7 C32.1,108.1 31.9,106.8 32.5,105.9 C33.1,105 34.4,104.8 35.3,105.4 C35.6,105.6 35.8,105.8 36.1,105.9 C37,106.5 37.3,107.7 36.7,108.7 C36.3,109.3 35.7,109.6 35,109.6 Z M56.5,109.1 C55.9,109.1 55.2,108.8 54.8,108.2 C54.2,107.3 54.4,106 55.4,105.4 C55.7,105.2 55.9,105.1 56.2,104.9 C57.1,104.3 58.4,104.5 59,105.4 C59.6,106.3 59.4,107.6 58.5,108.2 C58.2,108.4 57.9,108.6 57.6,108.8 C57.3,109 56.9,109.1 56.5,109.1 Z M106.9,106.8 C105.9,106.8 105,106 104.9,104.9 C104.8,103.8 105.7,102.8 106.8,102.8 C107,102.8 107.3,102.8 107.6,102.7 C108.7,102.5 109.7,103.2 109.9,104.3 C110.1,105.4 109.4,106.4 108.3,106.6 C107.9,106.7 107.5,106.7 107.1,106.8 C107,106.8 107,106.8 106.9,106.8 Z M28.9,104.4 C28.4,104.4 27.8,104.2 27.5,103.8 C27.3,103.6 27,103.3 26.8,103 C26,102.2 26.1,100.9 26.9,100.2 C27.7,99.5 29,99.5 29.7,100.3 C29.9,100.5 30.1,100.8 30.4,101 C31.2,101.8 31.1,103.1 30.3,103.8 C29.9,104.2 29.4,104.4 28.9,104.4 Z M100.5,104.4 C100.1,104.4 99.6,104.3 99.3,104 C99,103.8 98.7,103.6 98.5,103.3 C97.7,102.6 97.6,101.3 98.3,100.5 C99,99.7 100.3,99.6 101.1,100.3 C101.3,100.5 101.6,100.7 101.8,100.9 C102.7,101.6 102.8,102.8 102.1,103.7 C101.7,104.1 101.1,104.4 100.5,104.4 Z M62.8,104.2 C62.2,104.2 61.7,104 61.3,103.5 C60.6,102.7 60.7,101.4 61.5,100.7 C61.8,100.5 62,100.3 62.2,100.1 C63,99.4 64.3,99.5 65,100.3 C65.7,101.1 65.6,102.4 64.8,103.1 C64.5,103.3 64.3,103.5 64,103.8 C63.7,104 63.3,104.2 62.8,104.2 Z M114.3,103.8 C113.6,103.8 113,103.5 112.6,102.9 C112,102 112.3,100.7 113.2,100.1 C113.5,99.9 113.7,99.8 114,99.6 C114.9,99 116.2,99.2 116.8,100.1 C117.4,101 117.2,102.3 116.3,102.9 C116,103.1 115.7,103.3 115.4,103.5 C115,103.7 114.6,103.8 114.3,103.8 Z M94.7,99 C94.2,99 93.7,98.8 93.3,98.4 C93.1,98.2 92.8,98 92.6,97.7 C91.8,97 91.7,95.7 92.5,94.9 C93.2,94.1 94.5,94 95.3,94.8 C95.6,95 95.8,95.3 96.1,95.5 C96.9,96.3 96.9,97.5 96.2,98.3 C95.7,98.8 95.2,99 94.7,99 Z M120.6,99 C120,99 119.5,98.8 119.1,98.3 C118.4,97.5 118.5,96.2 119.3,95.5 C119.5,95.3 119.8,95.1 120,94.9 C120.8,94.2 122.1,94.3 122.8,95.1 C123.5,95.9 123.4,97.2 122.6,97.9 C122.3,98.1 122.1,98.3 121.8,98.6 C121.5,98.8 121.1,99 120.6,99 Z M68.6,98.7 C68.1,98.7 67.6,98.5 67.2,98.1 C66.4,97.3 66.4,96.1 67.2,95.3 L67.9,94.6 C68.7,93.8 69.9,93.8 70.7,94.5 C71.5,95.3 71.5,96.5 70.8,97.3 L70.1,98 C69.7,98.5 69.1,98.7 68.6,98.7 Z M23.8,98.3 C23.2,98.3 22.6,98 22.2,97.5 C22,97.2 21.8,97 21.6,96.7 C20.9,95.8 21.1,94.6 22,93.9 C22.9,93.2 24.1,93.4 24.8,94.3 L25.4,95.1 C26.1,96 25.9,97.2 25,97.9 C24.6,98.2 24.2,98.3 23.8,98.3 Z M88.5,93.8 C88.1,93.8 87.7,93.7 87.3,93.4 C87,93.2 86.8,93 86.5,92.8 C85.6,92.2 85.4,90.9 86.1,90 C86.7,89.1 88,88.9 88.9,89.6 C89.2,89.8 89.4,90 89.7,90.2 C90.6,90.9 90.8,92.1 90.1,93 C89.8,93.5 89.2,93.8 88.5,93.8 Z M126.6,93.6 C126.1,93.6 125.5,93.4 125.1,93 C124.3,92.2 124.4,90.9 125.2,90.2 L125.9,89.5 C126.7,88.7 128,88.8 128.7,89.6 C129.5,90.4 129.4,91.7 128.6,92.4 L127.9,93.1 C127.5,93.4 127.1,93.6 126.6,93.6 Z M74.1,92.8 C73.6,92.8 73.1,92.6 72.7,92.3 C71.9,91.5 71.8,90.3 72.6,89.5 C72.8,89.2 73.1,89 73.3,88.7 C74.1,87.9 75.3,87.9 76.1,88.7 C76.9,89.5 76.9,90.7 76.1,91.5 C75.9,91.7 75.7,92 75.4,92.2 C75.1,92.6 74.6,92.8 74.1,92.8 Z M19.2,91.8 C18.5,91.8 17.9,91.5 17.5,90.9 L16.9,90.1 C16.3,89.2 16.6,87.9 17.5,87.3 C18.4,86.7 19.7,87 20.3,87.9 L20.8,88.7 C21.4,89.6 21.2,90.9 20.2,91.5 C20,91.7 19.6,91.8 19.2,91.8 Z M81.7,89.7 C81.5,89.7 81.2,89.7 81,89.6 C80.8,89.5 80.5,89.4 80.3,89.4 C79.2,89.2 78.5,88.1 78.8,87 C79.1,85.9 80.1,85.2 81.2,85.5 C81.6,85.6 82,85.7 82.4,85.9 C83.4,86.3 84,87.4 83.6,88.5 C83.3,89.2 82.6,89.7 81.7,89.7 Z" id="Shape" fill="#B2D0F5"></path>
            <path d="M74.6,0.4 C92.9,0.4 107.7,15.2 107.7,33.5 C107.7,48.1 86.7,77 78.1,88.2 C76.3,90.6 72.7,90.6 70.9,88.2 C62.3,77 41.3,48.1 41.3,33.5 C41.5,15.3 56.3,0.4 74.6,0.4 Z" id="Shape" fill="#4988FD"></path>
            <circle id="Oval" fill="#2767F4" cx="74.6" cy="33.4" r="13.1"></circle>
        </g>
    </g>
</svg>