<?xml version="1.0" encoding="UTF-8"?>
<svg width="150px" height="90px" viewBox="0 0 150 90" version="1.1" xmlns="http://www.w3.org/2000/svg" xmlns:xlink="http://www.w3.org/1999/xlink">
    <!-- Generator: Sketch 51.2 (57519) - http://www.bohemiancoding.com/sketch -->
    <title>Marketing</title>
    <desc>Created with Sketch.</desc>
    <defs></defs>
    <g id="Page-1" stroke="none" stroke-width="1" fill="none" fill-rule="evenodd">
        <g id="Marketing">
            <path d="M45.6,69.6 L37.5,70.4 L36.4,66.5 L32,50.8 L47.5,57 L49.2,63.1 L49.4,63.9 C50.2,66.6 48.4,69.3 45.6,69.6 Z" id="Shape" fill="#2767F4" fill-rule="nonzero"></path>
            <path d="M51.3,85.3 C51.3,87.6 49.1,89.4 46.9,89.3 L40.2,89.1 C36.1,89 32.6,86.2 31.4,82.3 L23.4,55.2 L23,54.8 L36.8,54.9 L41.3,71 C46.1,77 44.7,75.2 48,79.7 C49.1,81.4 51.2,83 51.3,85.3 Z" id="Shape" fill="#3973F4" fill-rule="nonzero"></path>
            <path d="M103.1,41.7 L103.1,42.8 C102.8,69.4 93.1,88.3 83.5,80.3 C75.3,73.8 67.7,64.6 57.8,61.5 C49.4,58.9 40.4,58.2 31.7,57.6 C28.9,57.4 26.2,57.3 23.5,57.2 C21.5,57.1 19.4,57.1 17.4,57.1 C5.7,57.1 1.2,49.4 0.8,43.2 C0.8,42.9 0.8,42.6 0.8,42.3 C0.8,34.1 7.4,27.5 15.6,27.5 C18.8,27.5 21.8,27.5 24.6,27.5 C24.9,27.5 25.1,27.5 25.4,27.5 L33,27.3 C48,26.5 58.4,23.5 73,12.5 C75.5,10.6 78.1,8.6 80.2,6.3 C82.3,4.1 84.8,1.4 88.1,1.4 C96.3,1.3 103.1,19.4 103.1,41.7 Z" id="Shape" fill="#4988FD" fill-rule="nonzero"></path>
            <path d="M104.7,40.3 L104.7,40.7 C104.7,41.4 104.7,42.1 104.7,42.8 C104.6,44.6 104.6,46.3 104.4,48.1 C104,53.6 103.1,58.8 102,63.3 C102,63.3 102,63.3 102,63.3 C101.9,63.6 101.9,63.9 101.8,64.1 C101.3,66 100.7,67.8 100.1,69.5 C100,69.7 99.9,70 99.8,70.2 C99.7,70.4 99.6,70.7 99.5,70.9 C98.2,74.1 96.7,76.7 95.1,78.5 C95,78.6 94.9,78.7 94.8,78.9 C94.6,79.1 94.4,79.4 94.1,79.6 C94,79.7 93.9,79.8 93.8,79.8 C93.8,79.8 93.8,79.8 93.8,79.8 C92.2,81.2 90.5,82 88.7,82 C87.5,82 86.3,81.6 85.1,80.9 C84.9,80.8 84.7,80.7 84.5,80.5 C84.4,80.4 84.3,80.4 84.2,80.3 C84.1,80.2 83.9,80.1 83.8,80 C78.8,75.8 74.9,65.2 73.4,51.9 C72.9,47.9 72.7,43.7 72.7,39.4 C72.7,35.2 72.9,31.1 73.4,27.3 C74.3,19.5 75.8,13.4 78,8.2 C78.8,7 79.6,6.2 80.3,5.5 C82.5,3.3 85.2,0.6 88.6,0.6 C97.5,0.6 104.5,18.2 104.7,40.3 Z" id="Shape" fill="#3973F4" fill-rule="nonzero"></path>
            <path d="M85.2,41.9 C85.2,48.4 80,53.6 73.5,53.6 C73.1,49.9 72.8,45.9 72.8,41.7 C72.8,37.7 73,33.8 73.4,30.2 L73.5,30.2 C80,30.2 85.2,35.4 85.2,41.9 Z" id="Shape" fill="#DFECFD" fill-rule="nonzero"></path>
            <path d="M20.5,43.3 C20.5,48.4 21.6,53.2 23.5,57.2 C23.5,57.2 23.5,57.2 23.5,57.2 C21.5,57.1 19.4,57.1 17.4,57.1 C5.7,57.1 1.2,49.4 0.8,43.2 C0.8,42.9 0.8,42.6 0.8,42.3 C0.8,34.1 7.4,27.5 15.6,27.5 C18.8,27.5 21.8,27.5 24.6,27.5 C22,31.7 20.5,37.3 20.5,43.3 Z" id="Shape" fill="#3973F4" fill-rule="nonzero"></path>
            <path d="M35.3,51.8 C35.2,52.1 35.1,52.3 34.9,52.5" id="Shape"></path>
            <path d="M127.9,19 C127.1,19 126.4,18.6 126.1,17.8 C125.6,16.8 126.1,15.6 127.1,15.1 L127.6,14.9 C128.6,14.4 129.8,14.9 130.3,15.9 C130.8,16.9 130.3,18.1 129.3,18.6 L128.8,18.8 C128.5,18.9 128.2,19 127.9,19 Z" id="Shape" fill="#4988FD" fill-rule="nonzero"></path>
            <path d="M110.1,27.2 C109.3,27.2 108.6,26.8 108.3,26 C107.8,25 108.3,23.8 109.3,23.3 L120.1,18.3 C121.1,17.8 122.3,18.3 122.8,19.3 C123.3,20.3 122.8,21.5 121.8,22 L111,27 C110.7,27.1 110.4,27.2 110.1,27.2 Z" id="Shape" fill="#4988FD" fill-rule="nonzero"></path>
            <path d="M126.9,43.5 C125.8,43.5 124.9,42.7 124.9,41.6 C124.9,40.5 125.7,39.6 126.8,39.5 L147,38.7 C148.1,38.6 149,39.5 149.1,40.6 C149.1,41.7 148.3,42.6 147.2,42.7 L126.9,43.5 C126.9,43.5 126.9,43.5 126.9,43.5 Z" id="Shape" fill="#4988FD" fill-rule="nonzero"></path>
            <path d="M112.2,44.1 C111.1,44.1 110.2,43.3 110.2,42.2 C110.2,41.1 111,40.2 112.1,40.1 L118.9,39.8 C120,39.7 120.9,40.6 121,41.7 C121,42.8 120.2,43.7 119.1,43.8 L112.2,44.1 C112.3,44.1 112.3,44.1 112.2,44.1 Z" id="Shape" fill="#4988FD" fill-rule="nonzero"></path>
            <path d="M136.2,77 C135.8,77 135.5,76.9 135.2,76.7 L132.1,74.8 C131.2,74.2 130.9,73 131.4,72 C132,71.1 133.2,70.8 134.2,71.3 L137.3,73.2 C138.2,73.8 138.5,75 138,76 C137.5,76.6 136.9,77 136.2,77 Z" id="Shape" fill="#4988FD" fill-rule="nonzero"></path>
            <path d="M125.5,70.4 C125.1,70.4 124.8,70.3 124.5,70.1 L107.6,59.7 C106.7,59.1 106.4,57.9 106.9,56.9 C107.5,56 108.7,55.7 109.7,56.2 L126.6,66.6 C127.5,67.2 127.8,68.4 127.3,69.4 C126.9,70.1 126.2,70.4 125.5,70.4 Z" id="Shape" fill="#4988FD" fill-rule="nonzero"></path>
        </g>
    </g>
</svg>