<?xml version="1.0" encoding="UTF-8"?>
<svg width="134px" height="82px" viewBox="0 0 134 82" version="1.1" xmlns="http://www.w3.org/2000/svg" xmlns:xlink="http://www.w3.org/1999/xlink">
    <!-- Generator: Sketch 51.2 (57519) - http://www.bohemiancoding.com/sketch -->
    <title>Meat</title>
    <desc>Created with Sketch.</desc>
    <defs></defs>
    <g id="Page-1" stroke="none" stroke-width="1" fill="none" fill-rule="evenodd">
        <g id="Meat" fill-rule="nonzero">
            <g id="Group">
                <path d="M0.7,28.4 L0.7,53.1 C0.7,62.1 7.8,69.9 16.8,70.6 C22.7,71 32.7,67.9 58.2,77.6 C63.8,79.7 70.1,80.4 76.1,80.9 C92.5,82.2 109.2,80.3 122.8,70.4 C128.2,66.4 133.6,61.1 133.9,53.9 L133.9,26.3" id="Shape" fill="#3973F4"></path>
                <path d="M20.7,8.1 C47.7,1.8 81.1,-2.3 108.7,2.9 C121.3,5.3 132.4,12.5 133.6,26.1 C134.5,36.5 130.3,41.9 115,50.9 C99.7,59.9 68.1,57.1 58.1,53.3 C48.1,49.5 34.2,45.1 19.8,46.3 C6.8,47.4 -1.4,35.9 1.1,24.6 C3.5,13.9 11.9,10.1 20.7,8.1" id="Shape" fill="#4988FD"></path>
                <ellipse id="Oval" fill="#3973F4" cx="96.2" cy="28.9" rx="10.7" ry="6.2"></ellipse>
            </g>
            <ellipse id="Oval" fill="#FFFFFF" cx="96.2" cy="28.9" rx="10.7" ry="6.2"></ellipse>
            <path d="M27.4,29.6 C26.7,29.6 26,29.2 25.6,28.5 C25.1,27.5 25.4,26.3 26.4,25.8 L47.6,14.5 C48.6,14 49.8,14.3 50.3,15.3 C50.8,16.3 50.5,17.5 49.5,18 L28.3,29.3 C28,29.5 27.7,29.6 27.4,29.6 Z" id="Shape" fill="#3973F4"></path>
            <path d="M44.9,38.1 C44.2,38.1 43.6,37.8 43.2,37.1 C42.6,36.2 42.9,34.9 43.9,34.4 L78.7,13.2 C79.6,12.6 80.9,12.9 81.4,13.9 C82,14.8 81.7,16.1 80.7,16.6 L45.9,37.8 C45.6,38 45.3,38.1 44.9,38.1 Z" id="Shape" fill="#3973F4"></path>
        </g>
    </g>
</svg>