<?xml version="1.0" encoding="UTF-8"?>
<svg width="96px" height="143px" viewBox="0 0 96 143" version="1.1" xmlns="http://www.w3.org/2000/svg" xmlns:xlink="http://www.w3.org/1999/xlink">
    <!-- Generator: Sketch 51.2 (57519) - http://www.bohemiancoding.com/sketch -->
    <title>Medal</title>
    <desc>Created with Sketch.</desc>
    <defs></defs>
    <g id="Page-1" stroke="none" stroke-width="1" fill="none" fill-rule="evenodd">
        <g id="Medal" fill-rule="nonzero">
            <polygon id="Shape" fill="#DFECFD" points="64.5 47.7 62 55 47.7 97.6 46.3 101.8 46.3 101.8 39.1 123.2 37.9 127 35.6 123.1 26.7 108.4 26.1 107.3 8.8 114.2 4.7 115.9 10.5 98.7 11.9 94.5 14.2 87.6 31.3 36.6 34.5 37.6"></polygon>
            <polygon id="Shape" fill="#DFECFD" points="96 131.8 77.6 124.3 74.7 123.2 65.2 139.1 62.9 142.9 49.5 102.9 49.1 101.8 47.7 97.6 36.3 63.6 62 55 66 53.6 69.4 52.5 69.8 53.5 81.4 88.3 95.5 130.1"></polygon>
            <path d="M81.4,88.3 C73,96.5 61.6,101.6 49.1,101.8 L47.7,97.7 L46.3,101.8 C33.7,101.3 22.4,96 14.2,87.7 L31.3,36.6 L34.5,37.7 L64.5,47.8 L62.1,55.1 L66.1,53.8 L69.5,52.7 L69.9,53.8 L81.4,88.3 Z" id="Shape" fill="#C4D9F2"></path>
            <circle id="Oval" fill="#6097FD" cx="48.2" cy="48.6" r="47.7"></circle>
            <circle id="Oval" fill="#4988FD" cx="48.2" cy="48.6" r="39"></circle>
            <path d="M73.2,42.4 L72.9,42.7 L62.5,52.8 C62.1,53.2 62,53.7 62.1,54.2 L64.6,68.9 C64.8,70.2 63.5,71.1 62.4,70.5 L49.2,63.6 C48.8,63.4 48.2,63.4 47.8,63.6 L35.3,70.2 L34.6,70.5 C33.5,71.1 32.2,70.1 32.4,68.9 L34.9,54.2 C34.9,54.1 34.9,54.1 34.9,54 C34.9,53.6 34.8,53.1 34.4,52.8 L25.8,44.4 L23.7,42.4 C22.8,41.5 23.3,40 24.6,39.8 L39.4,37.7 C39.9,37.6 40.3,37.3 40.6,36.9 L47.2,23.5 C47.8,22.4 49.4,22.4 50,23.5 L51.2,25.8 L56.6,36.8 C56.8,37.3 57.3,37.6 57.8,37.6 L58,37.6 L72.5,39.7 C73.6,39.9 74.1,41.5 73.2,42.4 Z" id="Shape" fill="#FFFFFF"></path>
        </g>
    </g>
</svg>