<?xml version="1.0" encoding="UTF-8"?>
<svg width="122px" height="176px" viewBox="0 0 122 176" version="1.1" xmlns="http://www.w3.org/2000/svg" xmlns:xlink="http://www.w3.org/1999/xlink">
    <!-- Generator: Sketch 51.2 (57519) - http://www.bohemiancoding.com/sketch -->
    <title>Microphone</title>
    <desc>Created with Sketch.</desc>
    <defs></defs>
    <g id="Page-1" stroke="none" stroke-width="1" fill="none" fill-rule="evenodd">
        <g id="Microphone" fill-rule="nonzero">
            <path d="M100.4,39.9 L100.4,88.8 C100.4,89.3 100.4,89.8 100.4,90.3 C99.6,111.4 82.3,128.2 61.1,128.2 C39.8,128.2 22.5,111.3 21.8,90.2 C21.8,89.7 21.8,89.3 21.8,88.8 L21.8,39.9 C21.8,39.4 21.8,39 21.8,38.5 C22.5,17.4 39.9,0.5 61.1,0.5 C72,0.5 81.8,4.9 88.9,12 C95.7,18.8 100,28.1 100.4,38.4 C100.4,39 100.4,39.5 100.4,39.9 Z" id="Shape" fill="#4988FD"></path>
            <path d="M116.2,59.9 C113.2,59.9 110.9,62.3 110.9,65.2 L110.9,90.1 C110.9,117.6 88.5,139.9 61.1,139.9 C33.6,139.9 11.3,117.5 11.3,90.1 L11.3,65.2 C11.3,62.2 8.9,59.9 6,59.9 C3.1,59.9 0.7,62.3 0.7,65.2 L0.7,90.1 C0.7,121.7 25,147.7 55.9,150.4 L55.9,165.1 L34.4,165.1 C31.4,165.1 29.1,167.5 29.1,170.4 C29.1,173.4 31.5,175.7 34.4,175.7 L88.1,175.7 C91.1,175.7 93.4,173.3 93.4,170.4 C93.4,167.4 91,165.1 88.1,165.1 L66.6,165.1 L66.6,150.4 C97.5,147.7 121.8,121.7 121.8,90.1 L121.8,65.2 C121.6,62.2 119.2,59.9 116.2,59.9 Z" id="Shape" fill="#C5DCFA"></path>
            <g id="Group" transform="translate(21.000000, 38.000000)" fill="#1D60F4">
                <path d="M22.8,5.3 C22.8,8 20.7,10.1 18,10.1 L1.5,10.1 C1.2,10.1 0.9,10.1 0.7,10 L0.7,1.9 C0.7,1.4 0.7,1 0.7,0.5 C1,0.4 1.2,0.4 1.5,0.4 L18,0.4 C20.6,0.5 22.8,2.6 22.8,5.3 Z" id="Shape"></path>
                <path d="M22.8,26.4 C22.8,29.1 20.7,31.2 18,31.2 L1.5,31.2 C1.2,31.2 0.9,31.2 0.7,31.1 L0.7,21.6 C1,21.5 1.2,21.5 1.5,21.5 L18,21.5 C20.6,21.6 22.8,23.7 22.8,26.4 Z" id="Shape"></path>
                <path d="M22.8,47.5 C22.8,50.2 20.7,52.3 18,52.3 L1.5,52.3 C1.2,52.3 1,52.3 0.7,52.2 C0.7,51.7 0.7,51.3 0.7,50.8 L0.7,42.7 C1,42.6 1.2,42.6 1.5,42.6 L18,42.6 C20.6,42.7 22.8,44.8 22.8,47.5 Z" id="Shape"></path>
            </g>
            <g id="Group" transform="translate(78.000000, 38.000000)" fill="#1D60F4">
                <path d="M22.4,1.9 L22.4,10 C22.3,10 22.2,10 22.1,10 L5.6,10 C2.9,10 0.8,7.9 0.8,5.2 C0.8,2.5 2.9,0.4 5.6,0.4 L22.1,0.4 C22.2,0.4 22.3,0.4 22.4,0.4 C22.4,1 22.4,1.5 22.4,1.9 Z" id="Shape"></path>
                <path d="M22.4,21.6 L22.4,31.2 C22.3,31.2 22.2,31.2 22.1,31.2 L5.6,31.2 C2.9,31.2 0.8,29.1 0.8,26.4 C0.8,23.7 2.9,21.6 5.6,21.6 L22.1,21.6 C22.2,21.6 22.3,21.6 22.4,21.6 Z" id="Shape"></path>
                <path d="M22.4,42.7 L22.4,50.8 C22.4,51.3 22.4,51.8 22.4,52.3 C22.3,52.3 22.2,52.3 22.1,52.3 L5.6,52.3 C2.9,52.3 0.8,50.1 0.8,47.5 C0.8,44.8 2.9,42.7 5.6,42.7 L22.1,42.7 C22.2,42.7 22.3,42.7 22.4,42.7 Z" id="Shape"></path>
            </g>
        </g>
    </g>
</svg>