<?xml version="1.0" encoding="UTF-8"?>
<svg width="77px" height="142px" viewBox="0 0 77 142" version="1.1" xmlns="http://www.w3.org/2000/svg" xmlns:xlink="http://www.w3.org/1999/xlink">
    <!-- Generator: Sketch 51.2 (57519) - http://www.bohemiancoding.com/sketch -->
    <title>Milk</title>
    <desc>Created with Sketch.</desc>
    <defs></defs>
    <g id="Page-1" stroke="none" stroke-width="1" fill="none" fill-rule="evenodd">
        <g id="Milk" fill-rule="nonzero">
            <g id="Group">
                <path d="M76.2,39.7 L76.2,138 C76.2,140.2 74.4,141.9 72.3,141.9 L4.6,141.9 C2.4,141.9 0.7,140.1 0.7,138 L0.7,39.3 C0.7,33.6 3.2,30 4.4,28.3 C9.3,20.6 7.7,23.1 11.4,17.4 L11.4,6.8 C11.4,4.1 13.2,1.9 15.6,1.1 C16.2,0.9 16.7,0.8 17.4,0.8 L58.7,0.8 C59.5,0.8 60.2,1 60.9,1.2 C63.1,2.1 64.6,4.2 64.6,6.7 L64.7,17.3 L73,29.2 C75.1,32.4 76.2,36 76.2,39.7 Z" id="Shape" fill="#4988FD"></path>
                <ellipse id="Oval" fill="#6097FD" cx="25.7" cy="93.5" rx="17.5" ry="22"></ellipse>
                <path d="M76.3,39.3 L76.3,138.2 C76.3,140.3 74.5,142 72.4,142 L53,142 L53,39.5 C53,36 54.1,32.6 56.1,29.8 L64.8,17.5 L64.8,18.1 L65.1,18.5 L73.1,29.4 C75.1,32.3 76.3,35.8 76.3,39.3 Z" id="Shape" fill="#3973F4"></path>
                <path d="M76.3,39.3 L76.3,138.2 C76.3,140.3 74.5,142 72.4,142 L54.8,142 L63.6,132.1 C64.6,131 65.2,129.5 65.1,128 L64.2,27.2 C64.2,26.9 64.2,26.5 64.3,26.2 L65.1,18.6 L73.1,29.5 C75.1,32.3 76.3,35.8 76.3,39.3 Z" id="Shape" fill="#2767F4"></path>
                <path d="M19.6,0.9 L19.6,4.8 C19.6,5.9 18.7,6.8 17.6,6.8 C16.5,6.8 15.6,5.9 15.6,4.8 L15.6,1.2 C16.2,1 16.7,0.9 17.4,0.9 L19.6,0.9 Z" id="Shape" fill="#3973F4"></path>
                <path d="M26.5,0.9 L26.5,4.8 C26.5,5.9 25.6,6.8 24.5,6.8 C23.4,6.8 22.5,5.9 22.5,4.8 L22.5,0.9 L26.5,0.9 Z" id="Shape" fill="#3973F4"></path>
                <path d="M33.3,0.9 L33.3,4.8 C33.3,5.9 32.4,6.8 31.3,6.8 C30.2,6.8 29.3,5.9 29.3,4.8 L29.3,0.9 L33.3,0.9 Z" id="Shape" fill="#3973F4"></path>
                <path d="M40.2,0.9 L40.2,4.8 C40.2,5.9 39.3,6.8 38.2,6.8 C37.1,6.8 36.2,5.9 36.2,4.8 L36.2,0.9 L40.2,0.9 Z" id="Shape" fill="#3973F4"></path>
                <path d="M47.1,0.9 L47.1,4.8 C47.1,5.9 46.2,6.8 45.1,6.8 C44,6.8 43.1,5.9 43.1,4.8 L43.1,0.9 L47.1,0.9 Z" id="Shape" fill="#3973F4"></path>
                <path d="M54,0.9 L54,4.8 C54,5.9 53.1,6.8 52,6.8 C50.9,6.8 50,5.9 50,4.8 L50,0.9 L54,0.9 Z" id="Shape" fill="#3973F4"></path>
                <path d="M60.9,1.3 L60.9,4.8 C60.9,5.9 60,6.8 58.9,6.8 C57.8,6.8 56.9,5.9 56.9,4.8 L56.9,0.9 L58.7,0.9 C59.5,0.9 60.2,1 60.9,1.3 Z" id="Shape" fill="#3973F4"></path>
            </g>
        </g>
    </g>
</svg>