<?xml version="1.0" encoding="UTF-8"?>
<svg width="101px" height="146px" viewBox="0 0 101 146" version="1.1" xmlns="http://www.w3.org/2000/svg" xmlns:xlink="http://www.w3.org/1999/xlink">
    <!-- Generator: Sketch 51.2 (57519) - http://www.bohemiancoding.com/sketch -->
    <title>Mobile_Store</title>
    <desc>Created with Sketch.</desc>
    <defs></defs>
    <g id="Page-1" stroke="none" stroke-width="1" fill="none" fill-rule="evenodd">
        <g id="Mobile_Store">
            <path d="M79.2,146 L21.5,146 C15.7,146 11,141.3 11,135.5 L11,10.7 C11,4.9 15.7,0.2 21.5,0.2 L79.2,0.2 C85,0.2 89.7,4.9 89.7,10.7 L89.7,135.5 C89.7,141.3 85,146 79.2,146 Z" id="Shape" fill="#FFFFFF" fill-rule="nonzero"></path>
            <path d="M89.7,10.7 L89.7,135.5 C89.7,141.3 85,146 79.2,146 L21.5,146 C15.7,146 11,141.3 11,135.5 L11,10.7 C11,4.9 15.7,0.2 21.5,0.2 L79.2,0.2 C85,0.2 89.7,4.9 89.7,10.7 Z" id="Shape" fill="#4988FD" fill-rule="nonzero"></path>
            <rect id="Rectangle-path" fill="#FFFFFF" fill-rule="nonzero" x="16.4" y="11.8" width="67.9" height="117.4"></rect>
            <path d="M11,46.6 L11,46.1" id="Shape" stroke="#1676EE" stroke-width="3" stroke-linecap="round" stroke-linejoin="round"></path>
            <circle id="Oval" fill="#2767F4" fill-rule="nonzero" cx="51" cy="137.4" r="4.9"></circle>
            <path d="M56.6,7.8 L47.5,7.8 C46.7,7.8 46,7.1 46,6.3 C46,5.5 46.7,4.8 47.5,4.8 L56.6,4.8 C57.4,4.8 58.1,5.5 58.1,6.3 C58.1,7.1 57.4,7.8 56.6,7.8 Z" id="Shape" fill="#2767F4" fill-rule="nonzero"></path>
            <path d="M42.1,7.8 L41.5,7.8 C40.7,7.8 40,7.1 40,6.3 C40,5.5 40.7,4.8 41.5,4.8 L42.1,4.8 C42.9,4.8 43.6,5.5 43.6,6.3 C43.6,7.1 42.9,7.8 42.1,7.8 Z" id="Shape" fill="#2767F4" fill-rule="nonzero"></path>
            <g id="Group" transform="translate(0.000000, 10.000000)" fill-rule="nonzero">
                <path d="M100.3,26.6 C100.3,26.9 100.3,27.2 100.3,27.5 C100.3,33.1 95.8,37.7 90.3,37.7 C84.8,37.7 80.3,32.6 80.3,27 C80.3,27.2 80.3,26.9 80.3,26.9 C80.3,26.9 80.3,27 80.3,27.1 C80.3,27.1 80.3,27.1 80.3,27 C80.3,32.6 75.8,37.7 70.3,37.7 C64.8,37.7 60.3,33.1 60.3,27.5 C60.3,33.1 55.8,37.7 50.3,37.7 C45.2,37.7 41.2,33.4 40.5,28.4 C40.4,27.9 40.4,27.5 40.4,27 C40.4,27 40.4,27 40.4,27.1 C40.4,27.1 40.4,26.9 40.4,26.9 C40.4,26.9 40.4,27.1 40.4,27.1 C40.4,27.1 40.4,27.1 40.4,27 C40.4,32.6 35.8,37.7 30.3,37.7 C24.8,37.7 20.3,33.1 20.3,27.5 C20.3,27.7 20.3,27.9 20.3,28.2 C20,33.5 15.6,37.7 10.3,37.7 C4.8,37.7 0.3,33.1 0.3,27.5 C0.3,27.2 0.3,26.9 0.3,26.6 L0.3,13.9 L11.4,0.9 L89.1,0.9 L100.2,13.9 L100.2,26.6 L100.3,26.6 Z" id="Shape" fill="#DFECFD"></path>
                <path d="M40.5,13.9 L40.6,28.4 C40.5,27.9 40.5,27.5 40.5,27 C40.5,32.6 35.9,37.7 30.4,37.7 C24.9,37.7 20.4,33.1 20.4,27.5 C20.4,27.7 20.4,27.9 20.4,28.2 L20.5,14.3 L26.8,3 L28.2,1 L44.6,1 L40.5,13.9 Z" id="Shape" fill="#6097FD"></path>
                <path d="M60.6,13.9 L60.5,28.4 C60.6,27.9 60.6,27.5 60.6,27 C60.6,32.6 65.2,37.7 70.7,37.7 C76.2,37.7 80.7,33.1 80.7,27.5 C80.7,27.7 80.7,27.9 80.7,28.2 L80.6,14.3 L74.3,3 L72.9,1 L56.5,1 L60.6,13.9 Z" id="Shape" fill="#6097FD"></path>
            </g>
        </g>
    </g>
</svg>