<?xml version="1.0" encoding="UTF-8"?>
<svg width="150px" height="142px" viewBox="0 0 150 142" version="1.1" xmlns="http://www.w3.org/2000/svg" xmlns:xlink="http://www.w3.org/1999/xlink">
    <!-- Generator: Sketch 51.2 (57519) - http://www.bohemiancoding.com/sketch -->
    <title>Mobile_UI</title>
    <desc>Created with Sketch.</desc>
    <defs></defs>
    <g id="Page-1" stroke="none" stroke-width="1" fill="none" fill-rule="evenodd">
        <g id="Mobile_UI" fill-rule="nonzero">
            <g id="Group" transform="translate(23.000000, 0.000000)">
                <path d="M93.9,141.2 L10.7,141.2 C5.2,141.2 0.8,136.8 0.8,131.3 L0.8,10.5 C0.8,5 5.2,0.6 10.7,0.6 L93.9,0.6 C99.4,0.6 103.8,5 103.8,10.5 L103.8,131.3 C103.9,136.8 99.4,141.2 93.9,141.2 Z" id="Shape" fill="#FFFFFF"></path>
                <path d="M103.9,10.5 L103.9,131.3 C103.9,136.8 99.5,141.2 94,141.2 L10.8,141.2 C5.3,141.2 0.9,136.8 0.9,131.3 L0.9,10.5 C0.9,5 5.3,0.6 10.8,0.6 L94,0.6 C99.4,0.6 103.9,5 103.9,10.5 Z" id="Shape" fill="#4988FD"></path>
                <circle id="Oval" fill="#2767F4" cx="52.3" cy="132.1" r="4.6"></circle>
                <g transform="translate(43.000000, 4.000000)" fill="#2767F4" id="Shape">
                    <path d="M16.8,3 L6.7,3 C6,3 5.4,2.4 5.4,1.7 C5.4,1 6,0.4 6.7,0.4 L16.8,0.4 C17.5,0.4 18.1,1 18.1,1.7 C18.1,2.4 17.5,3 16.8,3 Z"></path>
                    <path d="M2.3,3 L1.9,3 C1.2,3 0.6,2.4 0.6,1.7 C0.6,1 1.2,0.4 1.9,0.4 L2.3,0.4 C3,0.4 3.6,1 3.6,1.7 C3.6,2.4 3,3 2.3,3 Z"></path>
                </g>
                <rect id="Rectangle-path" fill="#FFFFFF" x="4.2" y="10.2" width="96.2" height="113.3"></rect>
            </g>
            <g id="Group" transform="translate(49.000000, 35.000000)">
                <path d="M50.9,4.2 L50.9,68 C50.9,69.9 49.3,71.5 47.4,71.5 L4,71.5 C2.1,71.5 0.5,69.9 0.5,68 L0.5,4.2 C0.5,2.3 2.1,0.7 4,0.7 L47.4,0.7 C49.3,0.7 50.9,2.2 50.9,4.2 Z" id="Shape" fill="#C5DCFA"></path>
                <circle id="Oval" fill="#FFFFFF" cx="25.7" cy="24.5" r="8.3"></circle>
                <path d="M36.9,48.2 L14.4,48.2 C13.3,48.2 12.4,47.3 12.4,46.2 C12.4,45.1 13.3,44.2 14.4,44.2 L36.9,44.2 C38,44.2 38.9,45.1 38.9,46.2 C38.9,47.3 38,48.2 36.9,48.2 Z" id="Shape" fill="#FFFFFF"></path>
                <path d="M30.1,55.7 L21.1,55.7 C20,55.7 19.1,54.8 19.1,53.7 C19.1,52.6 20,51.7 21.1,51.7 L30.1,51.7 C31.2,51.7 32.1,52.6 32.1,53.7 C32.2,54.8 31.3,55.7 30.1,55.7 Z" id="Shape" fill="#FFFFFF"></path>
            </g>
            <g id="Group" transform="translate(0.000000, 41.000000)">
                <path d="M41.1,3 L41.1,54.8 C41.1,56.4 39.8,57.7 38.3,57.7 L3,57.7 C1.4,57.7 0.1,56.4 0.1,54.8 L0.1,3 C0.1,1.4 1.4,0.1 3,0.1 L38.3,0.1 C39.9,0.2 41.1,1.4 41.1,3 Z" id="Shape" fill="#C5DCFA"></path>
                <circle id="Oval" fill="#FFFFFF" cx="20.7" cy="19.5" r="6.8"></circle>
                <path d="M29.8,38.8 L11.5,38.8 C10.6,38.8 9.8,38.1 9.8,37.1 C9.8,36.1 10.5,35.4 11.5,35.4 L29.8,35.4 C30.7,35.4 31.5,36.1 31.5,37.1 C31.5,38.1 30.7,38.8 29.8,38.8 Z" id="Shape" fill="#FFFFFF"></path>
                <path d="M24.3,44.9 L17,44.9 C16.1,44.9 15.3,44.2 15.3,43.2 C15.3,42.2 16,41.5 17,41.5 L24.3,41.5 C25.2,41.5 26,42.2 26,43.2 C26,44.2 25.2,44.9 24.3,44.9 Z" id="Shape" fill="#FFFFFF"></path>
            </g>
            <g id="Group" transform="translate(108.000000, 41.000000)">
                <path d="M41.5,3 L41.5,54.8 C41.5,56.4 40.2,57.7 38.7,57.7 L3.4,57.7 C1.8,57.7 0.5,56.4 0.5,54.8 L0.5,3 C0.5,1.4 1.8,0.1 3.4,0.1 L38.7,0.1 C40.2,0.2 41.5,1.4 41.5,3 Z" id="Shape" fill="#C5DCFA"></path>
                <circle id="Oval" fill="#FFFFFF" cx="21" cy="19.5" r="6.8"></circle>
                <path d="M30.1,38.8 L11.8,38.8 C10.9,38.8 10.1,38.1 10.1,37.1 C10.1,36.1 10.8,35.4 11.8,35.4 L30.1,35.4 C31,35.4 31.8,36.1 31.8,37.1 C31.8,38.1 31,38.8 30.1,38.8 Z" id="Shape" fill="#FFFFFF"></path>
                <path d="M24.6,44.9 L17.3,44.9 C16.4,44.9 15.6,44.2 15.6,43.2 C15.6,42.2 16.3,41.5 17.3,41.5 L24.6,41.5 C25.5,41.5 26.3,42.2 26.3,43.2 C26.3,44.2 25.5,44.9 24.6,44.9 Z" id="Shape" fill="#FFFFFF"></path>
            </g>
        </g>
    </g>
</svg>