<?xml version="1.0" encoding="UTF-8"?>
<svg width="120px" height="144px" viewBox="0 0 120 144" version="1.1" xmlns="http://www.w3.org/2000/svg" xmlns:xlink="http://www.w3.org/1999/xlink">
    <!-- Generator: Sketch 51.2 (57519) - http://www.bohemiancoding.com/sketch -->
    <title>Mobile_phone_in_hand</title>
    <desc>Created with Sketch.</desc>
    <defs></defs>
    <g id="Page-1" stroke="none" stroke-width="1" fill="none" fill-rule="evenodd">
        <g id="Mobile_phone_in_hand" fill-rule="nonzero">
            <path d="M7.3,22.3 C4,21.1 0.5,23.7 0.5,27.2 L0.5,82.1 C0.5,83.8 0.8,85.5 1.3,87.1 L6.2,101.5 C7.7,105.9 11.6,108.9 16.1,109.3 C16.4,109.3 16.7,109.3 17.1,109.3 L20.6,109.3 L20.6,41.2 C20.7,32.5 15.1,25.1 7.3,22.3 Z" id="Shape" fill="#DFECFD"></path>
            <path d="M31.9,56.3 L31.9,89.6 C31.9,100.7 40.9,109.6 51.9,109.6 L102.3,109.6 C106.5,109.6 109.9,106.2 109.9,102 C109.9,98.2 107.2,95.1 103.5,94.5 L103.5,91.1 L109.4,91.1 C113.6,91.1 117,87.7 117,83.5 C117,79.3 113.6,75.9 109.4,75.9 L103.7,75.9 L103.7,72.8 L111.5,72.8 C116,72.8 119.7,69.1 119.7,64.6 C119.7,60.1 116,56.4 111.5,56.4 L103.9,56.4 L103.9,52.6 L111.7,52.6 C116.2,52.6 119.9,48.9 119.9,44.4 C119.9,39.9 116.2,36.2 111.7,36.2 L67.3,36.2 L67.3,35.8 L45,35.8 C41.2,40.1 37.6,44.3 35.2,47.2 C33.1,49.7 31.9,53 31.9,56.3 Z" id="Shape" fill="#DFECFD"></path>
            <g id="Group" transform="translate(19.000000, 0.000000)">
                <path d="M67.4,143.2 L11,143.2 C5.3,143.2 0.7,138.6 0.7,132.9 L0.7,10.9 C0.7,5.2 5.3,0.6 11,0.6 L67.4,0.6 C73.1,0.6 77.7,5.2 77.7,10.9 L77.7,132.9 C77.7,138.6 73.1,143.2 67.4,143.2 Z" id="Shape" fill="#FFFFFF"></path>
                <path d="M77.7,10.9 L77.7,133 C77.7,138.7 73.1,143.3 67.4,143.3 L11,143.3 C5.3,143.3 0.7,138.7 0.7,133 L0.7,10.9 C0.7,5.2 5.3,0.6 11,0.6 L67.4,0.6 C73.1,0.7 77.7,5.3 77.7,10.9 Z" id="Shape" fill="#4988FD"></path>
                <circle id="Oval" fill="#2767F4" cx="39.2" cy="133.8" r="4.7"></circle>
                <g transform="translate(30.000000, 6.000000)" fill="#2767F4" id="Shape">
                    <path d="M16.6,2.4 L6.1,2.4 C5.5,2.4 5,1.9 5,1.3 C5,0.7 5.5,0.2 6.1,0.2 L16.6,0.2 C17.2,0.2 17.7,0.7 17.7,1.3 C17.7,1.9 17.2,2.4 16.6,2.4 Z"></path>
                    <path d="M2.1,2.4 L1.8,2.4 C1.2,2.4 0.7,1.9 0.7,1.3 C0.7,0.7 1.2,0.2 1.8,0.2 L2.1,0.2 C2.7,0.2 3.2,0.7 3.2,1.3 C3.2,1.9 2.7,2.4 2.1,2.4 Z"></path>
                </g>
                <rect id="Rectangle-path" fill="#FFFFFF" x="4.3" y="12.7" width="69.8" height="112.3"></rect>
            </g>
        </g>
    </g>
</svg>