<?xml version="1.0" encoding="UTF-8"?>
<svg width="113px" height="132px" viewBox="0 0 113 132" version="1.1" xmlns="http://www.w3.org/2000/svg" xmlns:xlink="http://www.w3.org/1999/xlink">
    <!-- Generator: Sketch 51.2 (57519) - http://www.bohemiancoding.com/sketch -->
    <title>Mobile_Phones</title>
    <desc>Created with Sketch.</desc>
    <defs></defs>
    <g id="Page-1" stroke="none" stroke-width="1" fill="none" fill-rule="evenodd">
        <g id="Mobile_Phones" fill-rule="nonzero">
            <g id="Group" transform="translate(46.000000, 0.000000)">
                <path d="M57.4,129.7 L9.1,129.7 C4.3,129.7 0.3,125.8 0.3,120.9 L0.3,9.5 C0.3,4.7 4.2,0.7 9.1,0.7 L57.4,0.7 C62.2,0.7 66.2,4.6 66.2,9.5 L66.2,120.9 C66.2,125.8 62.3,129.7 57.4,129.7 Z" id="Shape" fill="#FFFFFF"></path>
                <path d="M66.2,7.7 L66.2,122.7 C66.2,126.6 63.1,129.7 59.2,129.7 L7.4,129.7 C3.5,129.7 0.4,126.6 0.4,122.7 L0.4,7.7 C0.4,3.8 3.5,0.7 7.4,0.7 L59.2,0.7 C63.1,0.7 66.2,3.9 66.2,7.7 Z" id="Shape" fill="#3973F4"></path>
                <path d="M39,6.8 L27.6,6.8 C27,6.8 26.4,6.3 26.4,5.6 C26.4,5 26.9,4.4 27.6,4.4 L39,4.4 C39.6,4.4 40.2,4.9 40.2,5.6 C40.2,6.3 39.6,6.8 39,6.8 Z" id="Shape" fill="#2767F4"></path>
                <path d="M60.3,117.3 L6.2,117.3 C4.7,117.3 3.4,116 3.4,114.5 L3.4,11.8 C3.4,10.3 4.7,9 6.2,9 L60.3,9 C61.8,9 63.1,10.3 63.1,11.8 L63.1,114.5 C63.1,116.1 61.9,117.3 60.3,117.3 Z" id="Shape" fill="#DFECFD"></path>
                <path d="M36.8,126.1 L29.7,126.1 C28.8,126.1 28.1,125.4 28.1,124.5 L28.1,121.6 C28.1,120.7 28.8,120 29.7,120 L36.8,120 C37.7,120 38.4,120.7 38.4,121.6 L38.4,124.5 C38.5,125.4 37.7,126.1 36.8,126.1 Z" id="Shape" fill="#2767F4"></path>
            </g>
            <g id="Group" transform="translate(0.000000, 28.000000)">
                <path d="M48.2,103.7 L7.5,103.7 C3.4,103.7 0.1,100.4 0.1,96.3 L0.1,8.2 C0.1,4.1 3.4,0.8 7.5,0.8 L48.2,0.8 C52.3,0.8 55.6,4.1 55.6,8.2 L55.6,96.3 C55.6,100.4 52.3,103.7 48.2,103.7 Z" id="Shape" fill="#FFFFFF"></path>
                <path d="M55.6,8.2 L55.6,96.3 C55.6,100.4 52.3,103.7 48.2,103.7 L7.5,103.7 C3.4,103.7 0.1,100.4 0.1,96.3 L0.1,8.2 C0.1,4.1 3.4,0.8 7.5,0.8 L48.2,0.8 C52.3,0.8 55.6,4.1 55.6,8.2 Z" id="Shape" fill="#4988FD"></path>
                <circle id="Oval" fill="#2767F4" cx="27.9" cy="96.9" r="3.4"></circle>
                <g transform="translate(21.000000, 4.000000)" fill="#2767F4" id="Shape">
                    <path d="M12.2,2.4 L4.6,2.4 C4.2,2.4 3.8,2.1 3.8,1.6 C3.8,1.2 4.1,0.8 4.6,0.8 L12.2,0.8 C12.6,0.8 13,1.1 13,1.6 C13,2 12.6,2.4 12.2,2.4 Z"></path>
                    <path d="M1.7,2.4 L1.5,2.4 C1.1,2.4 0.7,2.1 0.7,1.6 C0.7,1.2 1,0.8 1.5,0.8 L1.7,0.8 C2.1,0.8 2.5,1.1 2.5,1.6 C2.5,2 2.2,2.4 1.7,2.4 Z"></path>
                </g>
                <rect id="Rectangle-path" fill="#FFFFFF" x="2.7" y="9.4" width="50.4" height="81"></rect>
            </g>
        </g>
    </g>
</svg>