<?xml version="1.0" encoding="UTF-8"?>
<svg width="126px" height="148px" viewBox="0 0 126 148" version="1.1" xmlns="http://www.w3.org/2000/svg" xmlns:xlink="http://www.w3.org/1999/xlink">
    <!-- Generator: Sketch 51.2 (57519) - http://www.bohemiancoding.com/sketch -->
    <title>Money_Bag</title>
    <desc>Created with Sketch.</desc>
    <defs></defs>
    <g id="Page-1" stroke="none" stroke-width="1" fill="none" fill-rule="evenodd">
        <g id="Money_Bag" fill-rule="nonzero">
            <path d="M122.7,147.6 L3,147.6 C1.8,147.6 0.9,146.6 0.9,145.5 C0.9,144.4 1.9,143.4 3,143.4 L122.7,143.4 C123.9,143.4 124.8,144.4 124.8,145.5 C124.8,146.6 123.9,147.6 122.7,147.6 Z" id="Shape" fill="#C5DCFA"></path>
            <path d="M111.7,101.6 C111.7,130.4 89.9,147.2 63,147.2 C45,147.2 29.3,139.7 20.9,126.1 C16.7,119.4 14.3,111.1 14.3,101.6 C14.3,76.7 32.4,56.5 44.5,36.9 C53.3,22.7 72.7,22.7 81.4,36.9 C90,50.9 102.2,66 108.1,82.6 C110.4,88.8 111.7,95.1 111.7,101.6 Z" id="Shape" fill="#4988FD"></path>
            <path d="M111.7,101.6 C111.7,130.4 89.9,147.2 63,147.2 C52.3,147.2 42.4,144.5 34.4,139.5 C29.8,136.6 32.3,129.6 37.7,130.3 C40.9,130.7 44.1,130.9 47.5,130.9 C78.4,130.9 104,113.3 108.2,82.5 C110.4,88.8 111.7,95.1 111.7,101.6 Z" id="Shape" fill="#3973F4"></path>
            <path d="M48.1,31.9 C41.9,25.1 35.6,15 32.1,9.1 C31.3,7.7 31.1,6.1 31.6,4.5 C32.1,3 33.2,1.8 34.6,1.2 C49.5,-4.8 57.3,15 90.2,4.8 L75.7,31.7 L48.1,31.9 Z" id="Shape" fill="#3973F4"></path>
            <path d="M118.9,52.1 C115.1,52.1 110.2,48.5 103.6,40.8 C96.1,32.1 90.8,27.8 87.5,27.8 C87.5,27.8 87.5,27.8 87.5,27.8 C85.1,27.8 83,30.2 79.9,33.8 C79,34.9 77.3,35.1 76.1,34.1 C75,33.2 74.8,31.5 75.8,30.3 C79,26.4 82.4,22.4 87.5,22.4 C87.5,22.4 87.5,22.4 87.6,22.4 C92.9,22.4 98.7,26.7 107.8,37.3 C116.4,47.3 119.1,46.7 119.2,46.7 C119.4,46.5 119.8,45.5 119.8,44.6 C119.8,43.1 121,41.9 122.5,41.9 C122.5,41.9 122.5,41.9 122.5,41.9 C124,41.9 125.2,43.1 125.2,44.6 C125.2,45.2 125.1,50.3 121.1,51.8 C120.3,52 119.6,52.1 118.9,52.1 Z" id="Shape" fill="#3973F4"></path>
            <path d="M94.6,48.7 C93.1,48.7 91.9,47.5 91.9,46 C91.9,40.3 89.2,32.8 85.4,31.2 C83.5,30.4 81.1,31.3 78.4,34 C77.4,35 75.7,35 74.6,34 C73.6,33 73.6,31.3 74.6,30.2 C80,24.8 84.6,25 87.4,26.2 C94.2,29 97.2,39.5 97.2,46 C97.2,47.5 96,48.7 94.6,48.7 Z" id="Shape" fill="#3973F4"></path>
            <path d="M62.7,120.4 C60.9,120.4 59.4,118.9 59.4,117.1 L59.4,113 C56.4,112.8 53.4,112.1 50.9,110.9 C49.2,110.1 48.4,108.1 49,106.4 C49.5,104.9 50.9,103.9 52.4,103.9 C52.9,103.9 53.4,104 53.9,104.2 C55.6,105 58.3,105.9 61.5,105.9 C66,105.9 69.1,103.4 69.1,99.8 C69.1,96.5 66.9,94.3 61.5,92.1 C54.9,89.5 48.8,86.1 48.8,78.5 C48.8,72.2 53.1,67.3 59.8,65.8 L59.8,61.6 C59.8,59.8 61.3,58.3 63.1,58.3 C64.9,58.3 66.4,59.8 66.4,61.6 L66.4,65.4 C68.8,65.6 71,66.1 73,66.9 C74.8,67.6 75.7,69.7 75,71.6 C74.5,73 73.1,73.9 71.6,73.9 C71.1,73.9 70.6,73.8 70.2,73.6 C68.2,72.8 66.1,72.4 63.8,72.4 C58.9,72.4 57.1,75.2 57.1,77.6 C57.1,80.6 59,82.2 65.5,84.9 C73.9,88.3 77.5,92.6 77.5,99.3 C77.5,105.9 72.9,111.1 65.9,112.6 L65.9,117.1 C66.1,118.9 64.6,120.4 62.7,120.4 Z" id="Shape" fill="#FFFFFF"></path>
        </g>
    </g>
</svg>