<?xml version="1.0" encoding="UTF-8"?>
<svg width="77px" height="141px" viewBox="0 0 77 141" version="1.1" xmlns="http://www.w3.org/2000/svg" xmlns:xlink="http://www.w3.org/1999/xlink">
    <!-- Generator: Sketch 51.2 (57519) - http://www.bohemiancoding.com/sketch -->
    <title>Monney_bag_2</title>
    <desc>Created with Sketch.</desc>
    <defs></defs>
    <g id="Page-1" stroke="none" stroke-width="1" fill="none" fill-rule="evenodd">
        <g id="Monney_bag_2" fill-rule="nonzero">
            <path d="M25.5,59.7 C16.7,73.6 3.3,87.7 3.3,105.2 C3.3,127.7 19.7,140.8 39.9,140.8 C60.1,140.8 76.5,127.7 76.5,105.2 C76.5,88.2 63.6,73.7 54.9,59.9" id="Shape" fill="#4988FD"></path>
            <path d="M41.4,122.4 C39.4,122.4 37.8,120.8 37.8,118.8 L37.8,117.1 C35.9,116.9 34.1,116.4 32.5,115.6 C30.7,114.8 29.9,112.7 30.5,110.9 C31.1,109.4 32.5,108.3 34.1,108.3 C34.6,108.3 35.2,108.4 35.7,108.6 C36.8,109.1 38.5,109.7 40.5,109.7 C42.6,109.7 44.6,108.8 44.6,106.7 C44.6,105.5 44.2,104.1 40,102.4 C35.2,100.5 30.3,97.8 30.3,91.6 C30.3,86.8 33.3,83.1 38.1,81.7 L38.1,79.7 C38.1,77.7 39.7,76.1 41.7,76.1 C43.7,76.1 45.3,77.7 45.3,79.7 L45.3,81.3 C46.7,81.5 48,81.8 49.2,82.3 C51.1,83.1 52,85.3 51.3,87.2 C50.7,88.7 49.3,89.7 47.7,89.7 C47.2,89.7 46.7,89.6 46.2,89.4 C45,88.9 43.6,88.6 42.2,88.6 C39,88.6 38.7,90.5 38.7,91 C38.7,92.1 39.1,93 43.8,95 C48.1,96.7 53,99.6 53,106.3 C53,111.2 49.8,115.2 44.9,116.6 L44.9,118.8 C45,120.8 43.4,122.4 41.4,122.4 Z" id="Shape" fill="#FFFFFF"></path>
            <path d="M37.1,21.9 C32.7,15.2 26.9,3.1 26.9,3.1 C35.9,-6 40.2,11.4 59.7,3.1 C59.7,3.1 52.1,20.6 51.2,22" id="Shape" fill="#4988FD"></path>
            <g id="Group" transform="translate(0.000000, 15.000000)">
                <path d="M33.4,0.7 L32.3,1.1 C25.3,3.6 20.5,10.3 16.6,13.1 C16.3,13.3 16.3,12.8 16.3,11.3 C16.3,11.2 16.3,11.1 16.3,11 C16.2,9.5 15,8.9 13.3,8.9 C2.1,8.9 0.7,8.2 0.7,11.4 C0.7,20.8 0.7,30.2 0.7,39.6 L0.7,43.2 C0.7,46.4 2.2,45.8 13.3,45.8 C17.1,45.8 16.2,42.8 16.3,42.8 C16.4,42.8 16.5,42.9 16.6,42.9 C22,45.5 27.1,45 55.5,44.9 C56.1,44.9 56.6,44.9 57.2,44.8 C61,44.1 63.6,39.5 60.1,36.5 C60,36.4 59.8,36.3 59.7,36.2 C59.7,36.2 59.6,36.1 59.6,36 C59.8,36 60,35.9 60.2,35.9 C60.7,35.8 61.2,35.7 61.6,35.5 C62.8,35 63.7,34.1 64.2,32.5 C64.8,30.1 63.6,28.6 61.6,27.3 C64.5,26.9 65.8,25.9 66.2,23.8 C66.8,21 64.9,19.6 62.7,18.3 C70.4,15.6 67.9,7.5 61.5,7.5 C57.1,7.5 51,7.5 44.9,7.5 L37.6,7.5 L33.4,0.7 Z M8.5,15.3 C9.8,15.3 10.9,16.4 10.9,17.7 C10.9,19 9.8,20.1 8.5,20.1 C7.2,20.1 6.1,19 6.1,17.7 C6.1,16.4 7.2,15.3 8.5,15.3 Z" id="Shape" fill="#C5DCFA"></path>
                <path d="M13.3,8.8 C2.1,8.8 0.7,8.1 0.7,11.3 C0.7,20.7 0.7,30.1 0.7,39.5 L0.7,43.1 C0.7,46.3 2.2,45.7 13.3,45.7 C16.6,45.7 16.2,42.7 16.3,42.7 L16.3,11 C16.2,9.4 15,8.8 13.3,8.8 Z M8.5,15.3 C9.8,15.3 10.9,16.4 10.9,17.7 C10.9,19 9.8,20.1 8.5,20.1 C7.2,20.1 6.1,19 6.1,17.7 C6.1,16.4 7.2,15.3 8.5,15.3 Z" id="Shape" fill="#3973F4"></path>
            </g>
        </g>
    </g>
</svg>