<?xml version="1.0" encoding="UTF-8"?>
<svg width="103px" height="175px" viewBox="0 0 103 175" version="1.1" xmlns="http://www.w3.org/2000/svg" xmlns:xlink="http://www.w3.org/1999/xlink">
    <!-- Generator: Sketch 51.2 (57519) - http://www.bohemiancoding.com/sketch -->
    <title>Mouse</title>
    <desc>Created with Sketch.</desc>
    <defs></defs>
    <g id="Page-1" stroke="none" stroke-width="1" fill="none" fill-rule="evenodd">
        <g id="Mouse" fill-rule="nonzero">
            <path d="M48.8,174.4 C22.4,174.4 0.9,153 0.9,126.5 L0.9,79.5 C0.9,53.1 22.3,31.6 48.8,31.6 C75.2,31.6 96.7,53 96.7,79.5 L96.7,126.5 C96.7,153 75.2,174.4 48.8,174.4 Z" id="Shape" fill="#DFECFD"></path>
            <path d="M48.8,89.6 C47.5,89.6 46.4,88.5 46.4,87.2 L46.4,73.2 C46.4,71.9 47.5,70.8 48.8,70.8 C50.1,70.8 51.2,71.9 51.2,73.2 L51.2,87.2 C51.2,88.5 50.1,89.6 48.8,89.6 Z" id="Shape" fill="#C5DCFA"></path>
            <path d="M48.8,51.7 C47.5,51.7 46.4,50.6 46.4,49.3 L46.4,16.4 C46.4,7.8 53.4,0.8 62,0.8 C62,0.8 62,0.8 62,0.8 C66.2,0.8 70.1,2.4 73,5.4 C76,8.3 77.6,12.3 77.6,16.4 L77.6,19.6 C77.6,25.1 82.1,29.7 87.7,29.7 C93.2,29.7 97.8,25.2 97.8,19.6 L97.8,19.3 C97.8,18 98.9,16.9 100.2,16.9 C101.5,16.9 102.6,18 102.6,19.3 L102.6,19.6 C102.6,27.8 95.9,34.5 87.7,34.5 C79.5,34.5 72.8,27.8 72.8,19.6 L72.8,16.4 C72.8,13.5 71.7,10.8 69.6,8.8 C67.6,6.8 64.9,5.7 62,5.7 C62,5.7 62,5.7 62,5.7 C56.1,5.7 51.3,10.5 51.3,16.4 L51.3,49.3 C51.2,50.6 50.1,51.7 48.8,51.7 Z" id="Shape" fill="#C5DCFA"></path>
            <path d="M48.8,73.1 C45.2,73.1 42.2,70.1 42.2,66.5 L42.2,55.8 C42.2,52.2 45.2,49.2 48.8,49.2 C52.4,49.2 55.4,52.2 55.4,55.8 L55.4,66.5 C55.4,70.2 52.4,73.1 48.8,73.1 Z" id="Shape" fill="#6097FD"></path>
        </g>
    </g>
</svg>