<?xml version="1.0" encoding="UTF-8"?>
<svg width="145px" height="145px" viewBox="0 0 145 145" version="1.1" xmlns="http://www.w3.org/2000/svg" xmlns:xlink="http://www.w3.org/1999/xlink">
    <!-- Generator: Sketch 51.2 (57519) - http://www.bohemiancoding.com/sketch -->
    <title>Navigation</title>
    <desc>Created with Sketch.</desc>
    <defs></defs>
    <g id="Page-1" stroke="none" stroke-width="1" fill="none" fill-rule="evenodd">
        <g id="Navigation" fill-rule="nonzero">
            <circle id="Oval" fill="#4988FD" cx="72.8" cy="72.3" r="72"></circle>
            <circle id="Oval" fill="#DFECFD" cx="72.8" cy="72.3" r="59.9"></circle>
            <g id="Group" transform="translate(70.000000, 10.000000)" fill="#4988FD">
                <path d="M2.8,13.1 C1.4,13.1 0.3,12 0.3,10.6 L0.3,2.6 C0.3,1.2 1.4,0.1 2.8,0.1 C4.2,0.1 5.3,1.2 5.3,2.6 L5.3,10.6 C5.3,12 4.2,13.1 2.8,13.1 Z" id="Shape"></path>
                <path d="M2.8,124.4 C1.4,124.4 0.3,123.3 0.3,121.9 L0.3,114.1 C0.3,112.7 1.4,111.6 2.8,111.6 C4.2,111.6 5.3,112.7 5.3,114.1 L5.3,121.9 C5.3,123.3 4.2,124.4 2.8,124.4 Z" id="Shape"></path>
            </g>
            <g id="Group" transform="translate(10.000000, 69.000000)" fill="#4988FD">
                <path d="M11.2,5.8 L3.2,5.8 C1.8,5.8 0.7,4.7 0.7,3.3 C0.7,1.9 1.8,0.8 3.2,0.8 L11.2,0.8 C12.6,0.8 13.7,1.9 13.7,3.3 C13.7,4.7 12.6,5.8 11.2,5.8 Z" id="Shape"></path>
                <path d="M122.5,5.8 L114.7,5.8 C113.3,5.8 112.2,4.7 112.2,3.3 C112.2,1.9 113.3,0.8 114.7,0.8 L122.5,0.8 C123.9,0.8 125,1.9 125,3.3 C125,4.7 123.9,5.8 122.5,5.8 Z" id="Shape"></path>
            </g>
            <path d="M103.3,51 L81.7,88 C81.6,88.2 81.4,88.4 81.2,88.5 L44.2,110.1 C43,110.8 41.6,109.4 42.3,108.2 C48.3,98 62.2,74.3 63.9,71.2 C64,71 64.2,70.8 64.4,70.7 C67.4,68.9 91.2,55 101.4,49.1 C102.6,48.4 104,49.8 103.3,51 Z" id="Shape" fill="#C5DCFA"></path>
            <path d="M102.7,42 C102.2,41.6 101.6,41.5 100.9,41.8 C92.2,46.9 74.6,57.2 67.3,61.5 C65.2,62.8 63.4,64.6 62.1,66.7 C57.8,74 47.5,91.6 42.4,100.3 C42,100.9 42.2,101.6 42.6,102.1 C42.9,102.4 43.3,102.6 43.7,102.6 C44,102.6 44.2,102.5 44.5,102.4 L78.1,82.7 C78.8,82.3 79.4,81.8 80.1,81.3 C80.8,80.7 81.4,80.1 82,79.4 C82.5,78.8 83,78.1 83.4,77.4 L103.1,43.8 C103.3,43.5 103.3,43.3 103.3,43 C103.2,42.7 103,42.3 102.7,42 Z M69.4,68.7 C71.2,66.9 74.2,66.8 76.1,68.6 C76.5,68.9 76.9,69.4 77.2,70.2 C77.2,70.2 77.2,70.2 77.2,70.2 C77.5,71.1 77.7,72.2 77.4,73.4 C77.4,73.4 77.4,73.4 77.4,73.4 C77.4,73.5 77.3,73.6 77.3,73.8 C77.2,73.9 77.2,74.1 77.1,74.2 C77.1,74.2 77.1,74.3 77,74.3 C77,74.4 76.9,74.5 76.8,74.6 C76.7,74.7 76.7,74.8 76.6,74.9 C76.5,75.1 76.3,75.3 76.2,75.4 C76.1,75.5 76,75.6 75.9,75.7 C75.8,75.8 75.6,75.9 75.5,76 C75.4,76.1 75.3,76.1 75.1,76.2 C74,76.8 72.9,76.9 71.9,76.7 C71.8,76.7 71.7,76.7 71.6,76.6 C71.5,76.6 71.4,76.6 71.3,76.5 C70.4,76.2 69.7,75.8 69.4,75.3 C69.4,75.3 69.3,75.3 69.3,75.2 C67.5,73.6 67.5,70.6 69.4,68.7 Z" id="Shape" fill="#6097FD"></path>
            <path d="M103.2,43.1 L81.9,79.4 C81.3,80.1 80.7,80.7 80,81.3 L43.7,102.6 C43.3,102.6 42.8,102.4 42.6,102.1 L69.2,75.5 C69.2,75.5 69.2,75.5 69.3,75.6 C69.9,76.2 70.5,76.6 71.2,76.8 C71.3,76.8 71.4,76.9 71.5,76.9 C71.6,76.9 71.7,77 71.8,77 C72.5,77.2 73.3,77.1 74.1,76.9 C74.3,76.9 74.4,76.8 74.5,76.8 C74.7,76.7 74.9,76.7 75,76.5 C75.1,76.4 75.2,76.4 75.4,76.3 C75.5,76.2 75.7,76.1 75.8,76 C75.9,75.9 76,75.8 76.1,75.7 C76.3,75.5 76.4,75.4 76.5,75.2 C76.6,75.1 76.7,75 76.7,74.9 C76.8,74.8 76.8,74.7 76.9,74.6 C76.9,74.6 76.9,74.5 77,74.5 C77.1,74.4 77.1,74.2 77.2,74.1 C77.2,74 77.3,73.9 77.3,73.7 C77.3,73.7 77.3,73.7 77.3,73.7 C77.6,72.7 77.5,71.5 77.1,70.5 C77.1,70.5 77.1,70.5 77.1,70.5 C77,70.4 77,70.2 76.9,70.1 C76.7,69.7 76.4,69.3 76.1,69 C76.1,69 76,68.9 76,68.9 L102.7,42.3 C103,42.3 103.2,42.7 103.2,43.1 Z" id="Shape" fill="#3973F4"></path>
        </g>
    </g>
</svg>