<?xml version="1.0" encoding="UTF-8"?>
<svg width="148px" height="133px" viewBox="0 0 148 133" version="1.1" xmlns="http://www.w3.org/2000/svg" xmlns:xlink="http://www.w3.org/1999/xlink">
    <!-- Generator: Sketch 51.2 (57519) - http://www.bohemiancoding.com/sketch -->
    <title>News</title>
    <desc>Created with Sketch.</desc>
    <defs></defs>
    <g id="Page-1" stroke="none" stroke-width="1" fill="none" fill-rule="evenodd">
        <g id="News" fill-rule="nonzero">
            <g id="Group">
                <path d="M4.7,25.8 L43.9,25.8 L43.9,111 C43.9,123.1 34.1,132.8 22.1,132.8 L21.9,132.8 C9.8,132.8 0.1,123 0.1,111 L0.1,30.5 C-1.38777878e-17,27.9 2.1,25.8 4.7,25.8" id="Shape" fill="#4988FD"></path>
                <g transform="translate(8.000000, 0.000000)" id="Shape">
                    <path d="M39.9,0.3 L29.9,0.3 C27.3,0.3 25.2,2.4 25.2,5 L25.2,25.8 L12.5,118.3 L111.6,118.3 C118.6,118.3 124.2,112.9 124.2,106.1 L124.2,5 C124.2,2.4 122.1,0.3 119.5,0.3 L39.9,0.3 Z" fill="#4988FD"></path>
                    <g transform="translate(0.000000, 10.000000)" fill="#2767F4">
                        <path d="M21.3,0.8 L25.2,0.8 L25.2,96 C25.2,102.8 19.7,108.3 12.9,108.3 L12.6,108.3 C5.8,108.3 0.3,102.8 0.3,96 L0.3,5.5 C0.3,2.9 2.4,0.8 5,0.8 L21.3,0.8"></path>
                    </g>
                </g>
                <g transform="translate(20.000000, 16.000000)" id="Shape">
                    <path d="M1.4,115.8 C1.5,115.8 1.5,115.8 1.6,115.8 L1.4,115.8 Z" fill="#DDECFE"></path>
                    <path d="M122.7,0.9 C125.3,0.9 127.4,3 127.4,5.6 L127.4,95.4 C127.4,106.7 118.3,115.9 106.8,116.8 C106.2,116.8 105.7,116.9 105.1,116.9 L0.6,116.9 C10.4,116.9 18.7,110.5 21.7,101.7 C22.5,99.5 22.9,97.1 22.9,94.6 L22.9,5.6 C22.9,3 25,0.9 27.6,0.9 L122.7,0.9 Z" fill="#6097FD"></path>
                </g>
                <path d="M134.3,34.2 L128.4,34.2 C127.5,34.2 126.8,33.5 126.8,32.6 C126.8,31.7 127.5,31 128.4,31 L134.3,31 C135.2,31 135.9,31.7 135.9,32.6 C135.9,33.5 135.2,34.2 134.3,34.2 Z" id="Shape" fill="#DFECFD"></path>
                <path d="M121.5,34.2 L91.3,34.2 C90.4,34.2 89.7,33.5 89.7,32.6 C89.7,31.7 90.4,31 91.3,31 L121.5,31 C122.4,31 123.1,31.7 123.1,32.6 C123.1,33.5 122.3,34.2 121.5,34.2 Z" id="Shape" fill="#DFECFD"></path>
                <path d="M70.1,34.2 L58.5,34.2 C57.6,34.2 56.9,33.5 56.9,32.6 C56.9,31.7 57.6,31 58.5,31 L70.1,31 C71,31 71.7,31.7 71.7,32.6 C71.7,33.5 70.9,34.2 70.1,34.2 Z" id="Shape" fill="#DFECFD"></path>
                <path d="M134.9,47.7 L116.5,47.7 C115.6,47.7 114.9,47 114.9,46.1 C114.9,45.2 115.6,44.5 116.5,44.5 L134.9,44.5 C135.8,44.5 136.5,45.2 136.5,46.1 C136.5,47 135.7,47.7 134.9,47.7 Z" id="Shape" fill="#DFECFD"></path>
                <path d="M104.4,47.7 L59,47.7 C58.1,47.7 57.4,47 57.4,46.1 C57.4,45.2 58.1,44.5 59,44.5 L104.4,44.5 C105.3,44.5 106,45.2 106,46.1 C106,47 105.3,47.7 104.4,47.7 Z" id="Shape" fill="#DFECFD"></path>
                <path d="M134.9,66.1 L110,66.1 C109.1,66.1 108.4,65.4 108.4,64.5 C108.4,63.6 109.1,62.9 110,62.9 L134.9,62.9 C135.8,62.9 136.5,63.6 136.5,64.5 C136.4,65.4 135.7,66.1 134.9,66.1 Z" id="Shape" fill="#DFECFD"></path>
                <path d="M134.9,79.2 L120.2,79.2 C119.3,79.2 118.6,78.5 118.6,77.6 C118.6,76.7 119.3,76 120.2,76 L134.9,76 C135.8,76 136.5,76.7 136.5,77.6 C136.5,78.5 135.7,79.2 134.9,79.2 Z" id="Shape" fill="#DFECFD"></path>
                <path d="M115.1,79.2 L110,79.2 C109.1,79.2 108.4,78.5 108.4,77.6 C108.4,76.7 109.1,76 110,76 L115.1,76 C116,76 116.7,76.7 116.7,77.6 C116.7,78.5 115.9,79.2 115.1,79.2 Z" id="Shape" fill="#DFECFD"></path>
                <path d="M134.9,92.2 L110,92.2 C109.1,92.2 108.4,91.5 108.4,90.6 C108.4,89.7 109.1,89 110,89 L134.9,89 C135.8,89 136.5,89.7 136.5,90.6 C136.5,91.5 135.7,92.2 134.9,92.2 Z" id="Shape" fill="#DFECFD"></path>
                <path d="M119.9,109.5 L110.2,109.5 C109.3,109.5 108.6,108.8 108.6,107.9 C108.6,107 109.3,106.3 110.2,106.3 L119.9,106.3 C120.8,106.3 121.5,107 121.5,107.9 C121.5,108.8 120.8,109.5 119.9,109.5 Z" id="Shape" fill="#DFECFD"></path>
                <path d="M102.6,109.5 L59.1,109.5 C58.2,109.5 57.5,108.8 57.5,107.9 C57.5,107 58.2,106.3 59.1,106.3 L102.6,106.3 C103.5,106.3 104.2,107 104.2,107.9 C104.1,108.8 103.4,109.5 102.6,109.5 Z" id="Shape" fill="#DFECFD"></path>
                <path d="M97.6,66.4 L97.6,89.1 C97.6,90.6 96.4,91.8 94.9,91.8 L60.5,91.8 C59.5,91.8 58.7,91.3 58.2,90.5 C58,90.1 57.8,89.6 57.8,89.1 L57.8,66.4 C57.8,64.9 59,63.7 60.5,63.7 L94.9,63.7 C96.4,63.7 97.6,64.9 97.6,66.4 Z" id="Shape" fill="#FFFFFF"></path>
            </g>
            <path d="M97.6,78.5 L97.6,89.2 C97.6,90.7 96.4,91.9 94.9,91.9 L60.5,91.9 C59.5,91.9 58.7,91.4 58.2,90.6 L67.5,81 C68.7,79.8 70.6,79.6 72,80.5 L76.9,83.8 C77.9,84.5 79.3,84.3 80.1,83.5 L87.6,76 C88.7,74.9 90.5,74.6 91.9,75.4 L97.6,78.5 Z" id="Shape" fill="#DFECFD"></path>
            <circle id="Oval" fill="#C5DCFA" cx="67.1" cy="72.4" r="3.6"></circle>
        </g>
    </g>
</svg>