<?xml version="1.0" encoding="UTF-8"?>
<svg width="149px" height="118px" viewBox="0 0 149 118" version="1.1" xmlns="http://www.w3.org/2000/svg" xmlns:xlink="http://www.w3.org/1999/xlink">
    <!-- Generator: Sketch 51.2 (57519) - http://www.bohemiancoding.com/sketch -->
    <title>Nfc</title>
    <desc>Created with Sketch.</desc>
    <defs></defs>
    <g id="Page-1" stroke="none" stroke-width="1" fill="none" fill-rule="evenodd">
        <g id="Nfc" fill-rule="nonzero">
            <g id="Group" transform="translate(15.000000, 15.000000)">
                <path d="M100.5,72.8 L72.8,100.5 C70,103.3 65.5,103.3 62.7,100.5 L2.8,40.6 C1.13686838e-13,37.8 1.13686838e-13,33.3 2.8,30.5 L30.5,2.8 C33.3,0 37.8,0 40.6,2.8 L100.5,62.7 C103.3,65.6 103.3,70.1 100.5,72.8 Z" id="Shape" fill="#FFFFFF"></path>
                <path d="M40.6,2.9 L100.5,62.8 C103.3,65.6 103.3,70.1 100.5,72.9 L72.8,100.6 C70,103.4 65.5,103.4 62.7,100.6 L2.8,40.7 C1.13686838e-13,37.9 1.13686838e-13,33.4 2.8,30.6 L30.5,2.9 C33.3,0.1 37.8,0.1 40.6,2.9 Z" id="Shape" fill="#4988FD"></path>
                <rect id="Rectangle-path" fill="#FFFFFF" transform="translate(50.351035, 50.475455) rotate(-45.000000) translate(-50.351035, -50.475455) " x="26.051268" y="10.6258372" width="48.5995339" height="79.6992357"></rect>
                <circle id="Oval" fill="#2767F4" transform="translate(82.808310, 82.280850) rotate(-45.000000) translate(-82.808310, -82.280850) " cx="82.80831" cy="82.28085" r="3.09997027"></circle>
                <path d="M18.2,22 C17.9,22 17.7,21.9 17.5,21.7 C17.1,21.3 17.1,20.7 17.5,20.3 L21.9,15.9 C22.3,15.5 22.9,15.5 23.3,15.9 C23.7,16.3 23.7,16.9 23.3,17.3 L18.9,21.7 C18.7,22 18.4,22 18.2,22 Z" id="Shape" fill="#2767F4"></path>
                <path d="M15.3,24.9 C15,24.9 14.8,24.8 14.6,24.6 C14.2,24.2 14.2,23.6 14.6,23.2 L14.9,22.9 C15.3,22.5 15.9,22.5 16.3,22.9 C16.7,23.3 16.7,23.9 16.3,24.3 L16,24.6 C15.8,24.8 15.6,24.9 15.3,24.9 Z" id="Shape" fill="#2767F4"></path>
            </g>
            <path d="M71,33.2 L86.5,48.7 C102.5,49.6 99.4,48.3 108,56 C108.7,56.7 108.9,57.7 108.5,58.6 L104.6,65.8 C104.1,66.8 102.9,67.4 101.4,66.7 C97.7,65.2 100.5,66.3 87.4,60.9 C86.7,60.6 85.9,60.4 85.2,60.3 C81.4,59.8 77.5,62 76.1,65.9 C75.5,67.5 76,69.2 77.1,70.3 C77.4,70.6 77.8,70.9 78.2,71.1 C117.7,90.3 108.2,87.9 129.3,86.7 C131.3,86.6 130.9,85.6 147.5,69.4 C148.6,68.3 148.6,66.5 147.5,65.4 L118.3,36.2 C115.9,33.8 112.6,32.5 109.3,32.5 L71,33.2 Z" id="Shape" fill="#C5DCFA"></path>
            <path d="M14.5,37.2 C14.5,37.2 14.5,37.2 14.5,37.2 C13.1,37.2 12,36 12,34.7 C12.1,28.7 14.5,23.1 18.7,18.8 C23,14.5 28.6,12.2 34.6,12.1 C34.6,12.1 34.6,12.1 34.6,12.1 C36,12.1 37.1,13.2 37.1,14.6 C37.1,16 36,17.1 34.6,17.1 C29.9,17.2 25.5,19 22.2,22.4 C18.9,25.7 17,30.1 16.9,34.8 C17,36.1 15.9,37.2 14.5,37.2 Z" id="Shape" fill="#6097FD"></path>
            <path d="M3.1,37.2 C3.1,37.2 3.1,37.2 3.1,37.2 C1.7,37.2 0.6,36 0.6,34.7 C0.7,25.7 4.3,17.2 10.7,10.8 C17.1,4.4 25.6,0.8 34.6,0.7 C34.6,0.7 34.6,0.7 34.6,0.7 C36,0.7 37.1,1.8 37.1,3.2 C37.1,4.6 36,5.7 34.6,5.7 C26.9,5.8 19.6,8.9 14.2,14.3 C8.7,19.8 5.7,27 5.6,34.7 C5.6,36.1 4.5,37.2 3.1,37.2 Z" id="Shape" fill="#6097FD"></path>
            <path d="M3.1,37.2 C3.1,37.2 3.1,37.2 3.1,37.2 C1.7,37.2 0.6,36 0.6,34.7 C0.7,25.7 4.3,17.2 10.7,10.8 C17.1,4.4 25.6,0.8 34.6,0.7 C34.6,0.7 34.6,0.7 34.6,0.7 C36,0.7 37.1,1.8 37.1,3.2 C37.1,4.6 36,5.7 34.6,5.7 C26.9,5.8 19.6,8.9 14.2,14.3 C8.7,19.8 5.7,27 5.6,34.7 C5.6,36.1 4.5,37.2 3.1,37.2 Z" id="Shape" fill="#6097FD"></path>
            <g id="Group" transform="translate(42.000000, 42.000000)">
                <path d="M18.6,30.1 C17.5,30.1 16.4,29.4 15.9,28.4 C15.5,27.6 15.5,26.8 15.8,26 C16.1,25.2 16.7,24.6 17.5,24.4 C18.4,24.1 19.7,23.4 20.8,22.3 C21.5,21.6 22,20.7 22,20 C22.1,19.3 21.8,18.7 21.4,18.2 C20.9,17.7 20.4,17.5 19.6,17.5 C18.8,17.5 17.7,17.8 16.3,18.4 C13.8,19.5 11.8,20 10.1,20 C8.1,20 6.4,19.3 4.9,17.8 C2.3,15.2 1.9,11.4 3.8,8 L2.6,6.8 C1.5,5.7 1.5,4 2.6,2.9 C3.1,2.4 3.8,2.1 4.6,2.1 C5.4,2.1 6,2.4 6.6,2.9 L7.5,3.8 C8.4,3.1 9.3,2.6 10.3,2.2 C10.7,2.1 11,2 11.4,2 C12.5,2 13.6,2.7 14.1,3.7 C14.4,4.4 14.4,5.2 14.2,6 C13.9,6.7 13.3,7.3 12.6,7.6 C11.6,8 10.7,8.6 9.9,9.4 C9.2,10.1 8.8,10.8 8.8,11.5 C8.8,12.1 9.1,12.6 9.3,12.8 C9.7,13.2 10,13.3 10.6,13.3 C11.4,13.3 12.6,13 14.5,12.1 C16.6,11.2 18.5,10.8 20.1,10.8 C22.3,10.8 24.2,11.6 25.9,13.3 C28.6,16 29,20 27.1,23.6 L28.3,24.8 C29.4,25.9 29.4,27.6 28.3,28.7 C27.7,29.3 27.1,29.5 26.3,29.5 C25.5,29.5 24.9,29.2 24.3,28.7 L23.3,27.7 C22.1,28.6 20.8,29.4 19.5,29.8 C19.3,30 19,30.1 18.6,30.1 Z" id="Shape" fill="#FFFFFF"></path>
                <path d="M11.6,3.4 C12.1,3.4 12.7,3.7 12.9,4.2 C13.2,4.9 12.9,5.8 12.1,6.1 C11.2,6.5 10.1,7.1 8.9,8.3 C6.7,10.5 7.2,12.7 8.3,13.8 C9,14.5 9.7,14.8 10.6,14.8 C11.7,14.8 13.2,14.3 15.1,13.5 C17,12.7 18.6,12.3 20.1,12.3 C21.9,12.3 23.4,12.9 24.8,14.3 C27.1,16.6 27.6,20.3 25.1,23.7 L27.2,25.8 C27.7,26.3 27.7,27.1 27.2,27.6 C27,27.8 26.6,28 26.3,28 C26,28 25.7,27.9 25.4,27.6 L23.4,25.6 C22.1,26.9 20.5,27.9 19,28.4 C18.8,28.5 18.7,28.5 18.5,28.5 C18,28.5 17.4,28.2 17.2,27.7 C16.8,26.9 17.2,26.1 18,25.8 C19.3,25.3 20.7,24.5 21.9,23.3 C23.9,21.3 24.1,18.7 22.5,17.1 C21.7,16.3 20.8,15.9 19.7,15.9 C18.6,15.9 17.3,16.3 15.9,16.9 C13.8,17.8 12,18.4 10.3,18.4 C8.8,18.4 7.4,17.9 6.2,16.7 C3.8,14.3 3.7,10.8 5.9,7.7 L3.9,5.7 C3.4,5.2 3.4,4.4 3.9,3.9 C4.1,3.7 4.5,3.5 4.8,3.5 C5.1,3.5 5.4,3.6 5.7,3.9 L7.6,5.8 C8.8,4.6 10,3.9 11,3.5 C11.2,3.5 11.4,3.4 11.6,3.4 Z M11.6,0.4 C11,0.4 10.4,0.5 9.9,0.7 C9.2,1 8.5,1.3 7.9,1.8 C7.1,1 6,0.6 4.9,0.6 C3.8,0.6 2.7,1 1.9,1.8 C1.1,2.6 0.7,3.7 0.7,4.8 C0.7,5.9 1.1,7 1.9,7.8 L2.3,8.2 C0.7,11.9 1.4,15.9 4.2,18.8 C5.9,20.5 8,21.4 10.4,21.4 C12.3,21.4 14.4,20.9 17.2,19.7 C18.3,19.2 19.2,19 19.8,19 C20.2,19 20.3,19.1 20.5,19.3 C20.7,19.5 20.7,19.6 20.7,19.9 C20.7,20.3 20.4,20.8 19.9,21.3 C18.9,22.3 17.8,22.8 17.1,23.1 C15.9,23.5 15,24.4 14.5,25.6 C14,26.7 14.1,28 14.6,29.2 C15.3,30.8 16.9,31.8 18.6,31.8 C19.1,31.8 19.6,31.7 20.1,31.5 C21.1,31.1 22.2,30.6 23.2,29.9 L23.3,30 C24.1,30.8 25.2,31.2 26.3,31.2 C27.4,31.2 28.5,30.8 29.3,30 C30.1,29.2 30.6,28.1 30.6,27 C30.6,25.9 30.2,24.8 29.4,24 L28.9,23.5 C30.6,19.6 29.9,15.4 26.9,12.5 C25,10.6 22.7,9.6 20.1,9.6 C18.3,9.6 16.3,10.1 13.9,11.1 C13.3,11.4 11.4,12.1 10.6,12.1 C10.5,12.1 10.5,12.1 10.5,12.1 C10.5,12.1 10.5,12.1 10.4,12 C10.1,11.7 10.8,10.9 11,10.7 C11.7,10 12.4,9.5 13.2,9.2 C14.3,8.7 15.2,7.8 15.6,6.7 C16,5.6 16,4.4 15.5,3.3 C14.9,1.5 13.3,0.4 11.6,0.4 Z" id="Shape" fill="#1676EE"></path>
            </g>
        </g>
    </g>
</svg>