<?xml version="1.0" encoding="UTF-8"?>
<svg width="119px" height="145px" viewBox="0 0 119 145" version="1.1" xmlns="http://www.w3.org/2000/svg" xmlns:xlink="http://www.w3.org/1999/xlink">
    <!-- Generator: Sketch 51.2 (57519) - http://www.bohemiancoding.com/sketch -->
    <title>Notification</title>
    <desc>Created with Sketch.</desc>
    <defs></defs>
    <g id="Page-1" stroke="none" stroke-width="1" fill="none" fill-rule="evenodd">
        <g id="Notification" fill-rule="nonzero">
            <circle id="Oval" fill="#FFFFFF" cx="54.1" cy="131.5" r="12.8"></circle>
            <circle id="Oval" fill="#2767F4" cx="54.1" cy="131.5" r="12.8"></circle>
            <path d="M107.3,121.1 C107.2,126.1 103,130.1 97.9,130.1 L10,130.1 C7.5,130.1 5.2,129.1 3.5,127.4 C1.7,125.6 0.6,123.1 0.8,120.3 C1.1,115.4 5.3,111.7 10.2,111.7 C11.3,111.7 12.3,111.2 13,110.5 C13.7,109.8 14.2,108.8 14.2,107.6 L14.2,64.2 C14.2,42.1 32,24 54,24 C61.3,24 68.2,26 74,29.4 C77,31.1 79.7,33.2 82.1,35.7 C85.3,38.9 88,42.7 90,46.9 C92.4,52 93.8,57.8 93.8,63.9 L93.8,107.7 C93.8,109.9 95.6,111.7 97.8,111.7 L98,111.7 C100.5,111.7 102.8,112.7 104.5,114.4 C106.4,116.1 107.4,118.5 107.3,121.1 Z" id="Shape" fill="#4988FD"></path>
            <circle id="Oval" fill="#4988FD" cx="54.1" cy="9.9" r="9.5"></circle>
            <path d="M93.9,63.9 L93.9,71.4 C93.7,71.4 93.5,71.4 93.3,71.4 C77.3,71.4 64.3,58.4 64.3,42.4 C64.3,37.1 65.7,32.2 68.2,27.9 C70.2,28.2 72.2,28.7 74.1,29.4 C77.1,31.1 79.8,33.2 82.2,35.7 C85.4,38.9 88.1,42.7 90.1,46.9 C92.6,52.1 93.9,57.8 93.9,63.9 Z" id="Shape" fill="#3973F4"></path>
            <path d="M107.3,121.1 C107.2,126.1 103,130.1 97.9,130.1 L69.5,130.1 C70.4,128.6 72.4,125.1 72.7,123.5 C75,112.4 61.1,110.8 52.3,110.8 C78.6,106.1 91,72.8 90,46.9 C92.4,52 93.8,57.8 93.8,63.9 L93.8,107.7 C93.8,109.9 95.6,111.7 97.8,111.7 L98,111.7 C100.5,111.7 102.8,112.7 104.5,114.4 C106.4,116.1 107.4,118.5 107.3,121.1 Z" id="Shape" fill="#3973F4"></path>
            <g id="Group" transform="translate(66.000000, 10.000000)">
                <path d="M48.2,12.4 C50.9,16.5 52.5,21.4 52.5,26.7 C52.5,41.1 40.8,52.8 26.4,52.8 C12,52.8 0.3,41.1 0.3,26.7 C0.3,12.3 12,0.6 26.4,0.6 C35.6,0.7 43.6,5.4 48.2,12.4" id="Shape" fill="#21D3AC"></path>
                <polygon id="Shape" fill="#FFFFFF" points="24.8 18.5 24.5 18.5 18.1 22.9 18.1 17.8 24.8 13.2 30.2 13.2 30.2 39.3 24.7 39.3 24.7 18.5"></polygon>
            </g>
        </g>
    </g>
</svg>