<?xml version="1.0" encoding="UTF-8"?>
<svg width="148px" height="148px" viewBox="0 0 148 148" version="1.1" xmlns="http://www.w3.org/2000/svg" xmlns:xlink="http://www.w3.org/1999/xlink">
    <!-- Generator: Sketch 51.2 (57519) - http://www.bohemiancoding.com/sketch -->
    <title>Notification_2</title>
    <desc>Created with Sketch.</desc>
    <defs></defs>
    <g id="Page-1" stroke="none" stroke-width="1" fill="none" fill-rule="evenodd">
        <g id="Notification_2" fill-rule="nonzero">
            <g id="Group" transform="translate(8.000000, 21.000000)">
                <circle id="Oval" fill="#FFFFFF" transform="translate(30.711640, 91.571480) rotate(-45.000000) translate(-30.711640, -91.571480) " cx="30.71164" cy="91.57148" r="11.6998878"></circle>
                <circle id="Oval" fill="#2767F4" transform="translate(30.711640, 91.571480) rotate(-45.000000) translate(-30.711640, -91.571480) " cx="30.71164" cy="91.57148" r="11.6998878"></circle>
                <path d="M71.9,119.3 C68.6,122.5 63.3,122.3 60,119 L3.2,62.2 C1.6,60.6 0.7,58.4 0.7,56.3 C0.7,54 1.7,51.7 3.6,50 C6.9,47.1 12.1,47.3 15.2,50.5 C16.6,51.9 19,52 20.4,50.5 L48.4,22.5 C62.6,8.3 85.9,8 100.1,22.2 C107.2,29.3 110.7,38.6 110.7,47.9 C110.7,57.2 107.1,66.5 100,73.6 L71.7,101.9 C70.3,103.3 70.3,105.7 71.7,107.1 L71.8,107.2 C73.4,108.8 74.2,111 74.2,113.2 C74.5,115.5 73.6,117.7 71.9,119.3 Z" id="Shape" fill="#4988FD"></path>
                <circle id="Oval" fill="#4988FD" transform="translate(109.211140, 13.072380) rotate(-45.000000) translate(-109.211140, -13.072380) " cx="109.21114" cy="13.07238" r="8.69991657"></circle>
                <path d="M71.5,119.7 C68.4,122.7 63.4,122.5 60.3,119.4 L40.5,100 C41.6,99.7 45.5,98.7 46.7,97.9 C54.7,92.6 47.3,83.4 42.1,78.1 C62.9,92.7 95,74.9 107.8,56.3 C107,63.8 103.8,71 98,76.8 L71.4,103.4 C70,104.8 70.1,106.9 71.4,108.3 L71.5,108.4 C73,109.9 73.8,112 73.8,114 C73.9,116.1 73.1,118.1 71.5,119.7 Z" id="Shape" fill="#3973F4"></path>
            </g>
            <path d="M18.6,52.8 C18.4,52.8 18.2,52.8 18,52.7 C16.6,52.4 15.8,51 16.1,49.6 C20.1,32.7 33.7,19.6 50.7,16.4 C52.1,16.1 53.4,17 53.7,18.4 C54,19.8 53.1,21.1 51.7,21.4 C36.6,24.3 24.6,35.8 21.1,50.8 C20.8,52 19.8,52.8 18.6,52.8 Z" id="Shape" fill="#4988FD"></path>
            <path d="M2.7,48.8 C2.5,48.8 2.3,48.8 2.1,48.7 C0.7,48.4 -0.1,47 0.2,45.6 C5.7,22.8 24,5 47,0.4 C48.4,0.1 49.7,1 50,2.4 C50.3,3.8 49.4,5.1 48,5.4 C27,9.7 10.2,26 5.2,46.8 C4.9,48 3.8,48.8 2.7,48.8 Z" id="Shape" fill="#4988FD"></path>
            <path d="M129.5,95 C129.7,95 129.9,95 130.1,95.1 C131.5,95.4 132.3,96.8 132,98.2 C128,115.1 114.4,128.2 97.4,131.4 C96,131.7 94.7,130.8 94.4,129.4 C94.1,128 95,126.7 96.4,126.4 C111.5,123.5 123.5,112 127,97 C127.3,95.8 128.3,95 129.5,95 Z" id="Shape" fill="#4988FD"></path>
            <path d="M145.4,99 C145.6,99 145.8,99 146,99.1 C147.4,99.4 148.2,100.8 147.9,102.2 C142.4,125 124.1,142.8 101.1,147.4 C99.7,147.7 98.4,146.8 98.1,145.4 C97.8,144 98.7,142.7 100.1,142.4 C121.1,138.1 137.9,121.8 142.9,101 C143.2,99.8 144.3,99 145.4,99 Z" id="Shape" fill="#4988FD"></path>
        </g>
    </g>
</svg>