<?xml version="1.0" encoding="UTF-8"?>
<svg width="116px" height="122px" viewBox="0 0 116 122" version="1.1" xmlns="http://www.w3.org/2000/svg" xmlns:xlink="http://www.w3.org/1999/xlink">
    <!-- Generator: Sketch 51.2 (57519) - http://www.bohemiancoding.com/sketch -->
    <title>Old_School_Phone</title>
    <desc>Created with Sketch.</desc>
    <defs></defs>
    <g id="Page-1" stroke="none" stroke-width="1" fill="none" fill-rule="evenodd">
        <g id="Old_School_Phone" fill-rule="nonzero">
            <g id="Group">
                <path d="M65.8,46.6 L51.4,46.6 C48.2,46.6 45.6,49.2 45.6,52.4 L45.6,59.8 C45.6,63 48.2,65.6 51.4,65.6 L65.8,65.6 C69,65.6 71.6,63 71.6,59.8 L71.6,52.4 C71.6,49.1 69,46.6 65.8,46.6 Z" id="Shape" fill="#2767F4"></path>
                <path d="M109.9,121.8 L7.3,121.8 C3.9,121.8 1.2,119.1 1.2,115.7 L1.2,90.7 C1.2,88.7 1.8,86.8 2.9,85.1 L21.3,58.2 C22.3,56.7 24.1,55.8 25.9,55.8 L91.3,55.8 C93.2,55.8 94.9,56.7 95.9,58.2 L114.2,85.1 C115.3,86.7 115.9,88.7 115.9,90.6 L115.9,115.7 C116,119.1 113.2,121.8 109.9,121.8 Z" id="Shape" fill="#4988FD"></path>
                <path d="M114.9,93 L114.9,116.2 C114.9,119.3 112.2,121.9 108.8,121.9 L6.2,121.9 C2.8,121.9 0.1,119.4 0.1,116.2 L0.1,93 C0.1,91.1 0.7,89.3 1.8,87.8 L2,87.6 L113,87.6 L113.2,87.8 C114.4,89.4 114.9,91.2 114.9,93 Z" id="Shape" fill="#2767F4"></path>
                <path d="M111.9,36.1 C111.9,36.4 111.9,36.7 111.8,37 C111.3,42.4 107.2,46.8 101.7,47.1 C97,47.4 92.3,47.4 87.6,47.1 C82.1,46.7 77.9,42.4 77.4,36.9 C77.4,36.8 77.4,36.7 77.4,36.6 C77.3,34.9 77.3,33.2 77.3,31.5 C77.3,27.8 75.5,25.8 71.9,25.1 C63,23.5 54.1,23.7 45.3,25.2 C42,25.7 40.3,27.8 40.3,31.2 C40.3,32.9 40.3,34.6 40.3,36.3 C40.3,36.5 40.3,36.7 40.3,36.9 C39.9,42.5 35.5,47 29.8,47.3 C25.5,47.5 21.2,47.5 16.9,47.4 C11.1,47.2 6.5,42.9 6,37.1 C6,37.1 6,37 6,37 C5.8,33.9 5.6,30.7 6,27.7 C6.3,25.8 6.8,23.9 7.7,22.1 C8.7,20.1 10,18.3 10.8,17.1 C15.7,12.8 20.4,9.9 25.5,7.6 C44.1,-0.5 62.7,-1.8 81.5,3.8 C84.8,4.8 88.1,6 91.4,7.4 C95.9,9.3 100.2,11.8 104,14.8 C108.6,18.3 111,23.1 111.6,28.6 C111.6,28.6 111.6,28.6 111.6,28.6 C111.6,29 111.7,29.3 111.7,29.7 C112,31.9 111.9,34 111.9,36.1 Z" id="Shape" fill="#4988FD"></path>
                <circle id="Oval" fill="#FFFFFF" cx="58.9" cy="89.1" r="23.4"></circle>
                <circle id="Oval" fill="#C5DCFA" cx="58.9" cy="89.1" r="13"></circle>
            </g>
            <path d="M6,37 L40.3,37 C39.9,42.6 35.5,47.1 29.8,47.4 C25.5,47.6 21.2,47.6 16.9,47.5 C11.1,47.3 6.5,43 6,37.2 C6,37.1 6,37 6,37 Z" id="Shape" fill="#2767F4"></path>
            <path d="M111.8,37 C111.3,42.4 107.2,46.8 101.7,47.1 C97,47.4 92.3,47.4 87.6,47.1 C82.1,46.7 77.9,42.4 77.4,36.9 L111.8,36.9 L111.8,37 Z" id="Shape" fill="#2767F4"></path>
        </g>
    </g>
</svg>