<?xml version="1.0" encoding="UTF-8"?>
<svg width="149px" height="108px" viewBox="0 0 149 108" version="1.1" xmlns="http://www.w3.org/2000/svg" xmlns:xlink="http://www.w3.org/1999/xlink">
    <!-- Generator: Sketch 51.2 (57519) - http://www.bohemiancoding.com/sketch -->
    <title>Online_Store_2</title>
    <desc>Created with Sketch.</desc>
    <defs></defs>
    <g id="Page-1" stroke="none" stroke-width="1" fill="none" fill-rule="evenodd">
        <g id="Online_Store_2" fill-rule="nonzero">
            <g id="Group">
                <path d="M0.9,7.4 L0.9,17.8 L0.9,100.7 C0.9,104.5 4,107.5 7.7,107.5 L142,107.5 C145.8,107.5 148.8,104.4 148.8,100.7 L148.8,17.8 L148.8,7.8 C148.8,3.8 145.6,0.6 141.6,0.6 L7.7,0.6 L0.9,7.4 Z" id="Shape" fill="#6097FD"></path>
                <path d="M104.9,17.9 L0.9,17.9 L0.9,7.5 C0.9,3.7 3.9,0.7 7.7,0.7 L142,0.7 C145.8,0.7 148.8,3.7 148.8,7.5 L148.8,17.9 L126,17.9 L104.9,17.9 Z" id="Shape" fill="#4988FD"></path>
                <circle id="Oval" fill="#FFFFFF" cx="11.5" cy="9.3" r="2.9"></circle>
                <circle id="Oval" fill="#DFECFD" cx="20.2" cy="9.3" r="2.9"></circle>
                <circle id="Oval" fill="#C4D9F2" cx="28.9" cy="9.3" r="2.9"></circle>
            </g>
            <g id="Group" transform="translate(13.000000, 34.000000)">
                <path d="M60.9,7.9 C60.2,6.9 59.1,6.3 57.9,6.3 L13.8,6.3 L12.8,3.8 C12.1,2 10.4,0.8 8.4,0.8 L2.5,0.8 C1.4,0.8 0.5,1.7 0.5,2.8 C0.5,3.9 1.4,4.8 2.5,4.8 L8.4,4.8 C8.7,4.8 8.9,5 9,5.2 L19.1,30.7 C20,33 22.2,34.5 24.7,34.5 L47.4,34.5 C49.8,34.5 52,33 53,30.8 L61.2,11.2 C61.7,10.2 61.6,8.9 60.9,7.9 Z" id="Shape" fill="#FFFFFF"></path>
                <path d="M25.2,50.9 C21.8,50.9 19.1,48.2 19.1,44.8 C19.1,41.4 21.8,38.7 25.2,38.7 C28.6,38.7 31.3,41.4 31.3,44.8 C31.3,48.2 28.6,50.9 25.2,50.9 Z M25.2,42.7 C24.1,42.7 23.1,43.6 23.1,44.8 C23.1,46 24,46.9 25.2,46.9 C26.3,46.9 27.3,46 27.3,44.8 C27.3,43.6 26.4,42.7 25.2,42.7 Z" id="Shape" fill="#FFFFFF"></path>
                <path d="M46.2,50.9 C42.8,50.9 40.1,48.2 40.1,44.8 C40.1,41.4 42.8,38.7 46.2,38.7 C49.6,38.7 52.3,41.4 52.3,44.8 C52.3,48.2 49.5,50.9 46.2,50.9 Z M46.2,42.7 C45.1,42.7 44.1,43.6 44.1,44.8 C44.1,46 45,46.9 46.2,46.9 C47.4,46.9 48.3,46 48.3,44.8 C48.3,43.6 47.3,42.7 46.2,42.7 Z" id="Shape" fill="#FFFFFF"></path>
                <path d="M113.7,12 L78.3,12 C77.2,12 76.3,11.1 76.3,10 C76.3,8.9 77.2,8 78.3,8 L113.7,8 C114.8,8 115.7,8.9 115.7,10 C115.7,11.1 114.8,12 113.7,12 Z" id="Shape" fill="#C4D9F2"></path>
                <path d="M113.7,28.4 L78.3,28.4 C77.2,28.4 76.3,27.5 76.3,26.4 C76.3,25.3 77.2,24.4 78.3,24.4 L113.7,24.4 C114.8,24.4 115.7,25.3 115.7,26.4 C115.7,27.5 114.8,28.4 113.7,28.4 Z" id="Shape" fill="#C4D9F2"></path>
                <path d="M98.7,44.8 L78.3,44.8 C77.2,44.8 76.3,43.9 76.3,42.8 C76.3,41.7 77.2,40.8 78.3,40.8 L98.7,40.8 C99.8,40.8 100.7,41.7 100.7,42.8 C100.7,43.9 99.8,44.8 98.7,44.8 Z" id="Shape" fill="#C4D9F2"></path>
            </g>
        </g>
    </g>
</svg>