<?xml version="1.0" encoding="UTF-8"?>
<svg width="146px" height="140px" viewBox="0 0 146 140" version="1.1" xmlns="http://www.w3.org/2000/svg" xmlns:xlink="http://www.w3.org/1999/xlink">
    <!-- Generator: Sketch 51.2 (57519) - http://www.bohemiancoding.com/sketch -->
    <title>Open</title>
    <desc>Created with Sketch.</desc>
    <defs></defs>
    <g id="Page-1" stroke="none" stroke-width="1" fill="none" fill-rule="evenodd">
        <g id="Open" fill-rule="nonzero">
            <g id="Group" transform="translate(16.000000, 0.000000)" fill="#3973F4">
                <path d="M96.2,48.5 L46.6,13.5 C47,11.8 47,10 46.6,8.3 C45.1,2.5 39.2,-1.1 33.4,0.4 C27.6,1.9 24,7.8 25.5,13.6 C26,15.4 26.9,17.1 28.2,18.5 L1.1,72.4 C0.5,73.6 1,75.1 2.2,75.8 C2.6,76 2.9,76.1 3.3,76.1 C4.2,76.1 5.1,75.6 5.5,74.7 L33.5,19.1 C34.1,18 33.7,16.6 32.7,15.9 C31.5,15.1 30.7,13.9 30.3,12.5 C29.5,9.3 31.4,6.1 34.6,5.3 C37.8,4.5 41,6.4 41.7,9.6 C42,10.9 41.9,12.3 41.3,13.5 C40.8,14.6 41.1,15.9 42.1,16.6 L93.3,52.7 C94.4,53.5 96,53.2 96.8,52.1 C97.6,50.9 97.3,49.3 96.2,48.5 Z" id="Shape"></path>
                <circle id="Oval" transform="translate(35.734490, 10.480310) rotate(-14.034854) translate(-35.734490, -10.480310) " cx="35.73449" cy="10.48031" r="2.99985039"></circle>
            </g>
            <path d="M138.9,110.8 L23.6,139.6 C18.6,140.8 13.6,137.8 12.3,132.8 L0.5,85.6 C-0.7,80.6 2.3,75.6 7.3,74.3 L122.6,45.5 C127.6,44.3 132.6,47.3 133.9,52.3 L145.7,99.5 C146.9,104.5 143.9,109.5 138.9,110.8 Z" id="Shape" fill="#4988FD"></path>
            <g id="Group" transform="translate(27.000000, 71.000000)" fill="#FFFFFF">
                <path d="M15.4,42.9 C8.5,44.6 1.9,40.6 0.4,34.4 C-1.2,28.2 2.8,21.6 9.7,19.8 C16.6,18.1 23.2,22.1 24.7,28.3 C26.2,34.6 22.2,41.2 15.4,42.9 Z M14.1,37.6 C17.5,36.7 19.5,33.4 18.6,29.9 C17.7,26.3 14.4,24.3 11,25.2 C7.6,26.1 5.6,29.4 6.5,32.9 C7.3,36.5 10.6,38.5 14.1,37.6 Z" id="Shape"></path>
                <path d="M35.5,14.1 C40.3,12.9 44.4,15.3 45.5,19.7 C46.6,24.1 44.1,28.1 39.3,29.4 L35.4,30.4 L37,36.9 L31.1,38.4 L25.7,16.6 L35.5,14.1 Z M32.9,20.4 L34.1,25.1 L37.7,24.2 C39.1,23.8 39.9,22.5 39.6,21.2 C39.3,20 37.9,19.1 36.5,19.5 L32.9,20.4 Z" id="Shape"></path>
                <polygon id="Shape" points="68.7 23.7 69.9 28.7 52.8 33 47.4 11.2 64.2 7 65.4 12 54.5 14.7 55.4 18.1 63.8 16 65 20.7 56.6 22.8 57.5 26.5"></polygon>
                <polygon id="Shape" points="88.6 0.8 94 22.6 88.9 23.9 76.5 14.1 79.5 26.2 73.6 27.7 68.2 5.9 73.3 4.6 85.7 14.4 82.7 2.3"></polygon>
            </g>
        </g>
    </g>
</svg>