<?xml version="1.0" encoding="UTF-8"?>
<svg width="147px" height="147px" viewBox="0 0 147 147" version="1.1" xmlns="http://www.w3.org/2000/svg" xmlns:xlink="http://www.w3.org/1999/xlink">
    <!-- Generator: Sketch 51.2 (57519) - http://www.bohemiancoding.com/sketch -->
    <title>Open_24-7_2</title>
    <desc>Created with Sketch.</desc>
    <defs></defs>
    <g id="Page-1" stroke="none" stroke-width="1" fill="none" fill-rule="evenodd">
        <g id="Open_24-7_2" fill-rule="nonzero">
            <g id="Group">
                <path d="M146,66.6 C137.1,-20.2 6.7,-20.4 0.8,65.8 C-2.2,90.1 7.9,112 23,126.7 C23,126.7 23.1,126.8 23.1,126.8 C23.2,126.9 26.8,130.2 27,130.2 C28.3,131.2 29.8,132.4 31.1,133.3 C31.1,133.3 31.1,133.3 31.2,133.3 C44.9,143 61.7,148.2 80.2,146.5 C83.4,146.2 85.7,143.2 85.1,140 L84.1,134.9 C83.6,132.1 81,130.2 78.2,130.5 C74.8,130.8 71.2,130.7 70.5,130.6 C70.5,130.6 70.4,130.6 70.4,130.6 C50.9,130.1 30,117.2 21.1,96.4 C21.1,96.4 21.1,96.3 21,96.3 C20.7,95.7 19.4,92.3 19.2,91.4 C6.2,51.9 39.3,12.7 79.1,17.3 C79.1,17.3 79.2,17.3 79.2,17.3 C89.3,18.2 98,22.6 98,22.6 C109.6,28.3 118.2,37.2 122.8,45.8 C124.1,47.1 135.3,67.8 127.3,91.7 C140.6,96 137.4,95 142.7,96.6 C146.1,86.7 146.9,77.2 146,66.6 Z" id="Shape" fill="#FFFFFF"></path>
                <path d="M65.5,1.4 C65.4,1.4 65.4,1.4 65.3,1.4 C29,5.4 2.2,35.5 0.5,70.1 C0.5,70.1 -2.8,96.6 19.5,123.3 C19.8,123.7 26.4,130.3 26.9,130.3 C28.1,131.3 29.7,132.5 31,133.4 C31,133.4 31,133.4 31.1,133.4 C45,143.2 61,147.6 77,146.8 C82.7,146.5 86.2,140.5 83.9,135.4 C81,129 74.3,131.2 70.5,130.7 C70.5,130.7 70.4,130.7 70.4,130.7 C58.7,130.4 44.2,124.9 34.3,115.3 C34.1,115.1 31.4,112.5 31.3,112.2 C30.3,111.7 24.1,103.6 21.1,96.5 C4.1,62.6 31.5,15.3 75.3,17.1 C75.5,17.1 79,17.3 79.2,17.4 C97.8,19 114.9,31.4 122.8,45.9 C124.5,47.6 133.2,65.3 129.1,85 C128.3,89 130.7,92.9 134.6,94.1 C139.2,95.6 144.1,92.7 145,88 C155.1,36.8 110.7,-3.9 65.5,1.4 Z" id="Shape" fill="#4988FD"></path>
                <path d="M72.4,36.3 C71,36.3 69.8,35.2 69.8,33.7 L69.8,28.9 C69.8,27.5 70.9,26.3 72.4,26.3 C73.9,26.3 75,27.4 75,28.9 L75,33.7 C75,35.1 73.8,36.3 72.4,36.3 Z" id="Shape" fill="#2767F4"></path>
                <path d="M72.4,123 C71,123 69.8,121.9 69.8,120.4 L69.8,115.6 C69.8,114.2 70.9,113 72.4,113 C73.9,113 75,114.1 75,115.6 L75,120.4 C75,121.9 73.8,123 72.4,123 Z" id="Shape" fill="#2767F4"></path>
                <path d="M31.4,77.2 L26.6,77.2 C25.2,77.2 24,76.1 24,74.6 C24,73.1 25.1,72 26.6,72 L31.4,72 C32.8,72 34,73.1 34,74.6 C34,76.1 32.9,77.2 31.4,77.2 Z" id="Shape" fill="#2767F4"></path>
                <path d="M118.2,77.2 L113.4,77.2 C112,77.2 110.8,76.1 110.8,74.6 C110.8,73.1 111.9,72 113.4,72 L118.2,72 C119.6,72 120.8,73.1 120.8,74.6 C120.8,76.1 119.6,77.2 118.2,77.2 Z" id="Shape" fill="#2767F4"></path>
            </g>
            <path d="M92.3,51.8 C91.2,50.9 89.6,51.1 88.7,52.2 L79.3,64.1 C77.5,63.1 75.4,62.6 73.2,62.6 C70.3,62.6 67.7,63.5 65.6,65.1 L39.8,43.6 C38.7,42.7 37.1,42.8 36.2,43.9 C35.3,45 35.4,46.6 36.5,47.5 L62.1,68.9 C60.9,70.8 60.2,73.1 60.2,75.6 C60.2,82.7 66,88.5 73.1,88.5 C80.2,88.5 86,82.7 86,75.6 C86,72.5 84.9,69.7 83.1,67.4 L92.6,55.4 C93.6,54.2 93.4,52.6 92.3,51.8 Z" id="Shape" fill="#2767F4"></path>
            <g id="Group" transform="translate(92.000000, 104.000000)" fill="#2767F4">
                <path d="M4.5,30.1 C2.2,30.1 0.6,28.7 0.6,26.6 C0.6,24.4 1.4,23.8 6.5,19.7 C7.6,18.8 8.9,17.7 10.5,16.4 C14.2,13.4 15.3,12 15.3,9.9 C15.3,8 14,6.7 12.2,6.7 C10.7,6.7 9.1,7.5 7.7,9 C7.4,9.3 6.6,10.1 5.2,10.1 C3.9,10.1 2.7,9.4 2.1,8.2 C1.5,7 1.7,5.5 2.6,4.5 C5.2,1.5 8.2,0.1 12.3,0.1 C18.5,0.1 22.7,3.8 22.7,9.4 C22.7,15.1 19.5,17.5 12.6,22.8 C12.2,23.1 11.9,23.3 11.5,23.6 L20,23.6 C22.1,23.6 23.2,25.2 23.2,26.8 C23.2,28.4 22.1,30 20,30 L4.5,30 L4.5,30.1 Z" id="Shape"></path>
                <path d="M42.1,30.4 C40.1,30.4 38.6,28.9 38.6,26.9 L38.6,24 L27.4,24 C26,24 24.7,23.2 24.1,22 C23.4,20.5 23.9,18.6 25.4,16.8 C28.2,13.6 30.4,11 32.2,8.9 C39.5,0.3 39.7,0.1 42.1,0.1 C44.1,0.1 45.6,1.6 45.6,3.6 L45.6,17.9 L46.6,17.9 C48.6,17.9 49.7,19.5 49.7,21 C49.7,22.5 48.6,24 46.6,24 L45.6,24 L45.6,26.9 C45.6,28.8 44,30.4 42.1,30.4 Z M38.6,17.8 L38.6,10.8 L32.6,17.8 L38.6,17.8 Z" id="Shape"></path>
            </g>
        </g>
    </g>
</svg>