<?xml version="1.0" encoding="UTF-8"?>
<svg width="149px" height="120px" viewBox="0 0 149 120" version="1.1" xmlns="http://www.w3.org/2000/svg" xmlns:xlink="http://www.w3.org/1999/xlink">
    <!-- Generator: Sketch 51.2 (57519) - http://www.bohemiancoding.com/sketch -->
    <title>Open_safe</title>
    <desc>Created with Sketch.</desc>
    <defs></defs>
    <g id="Page-1" stroke="none" stroke-width="1" fill="none" fill-rule="evenodd">
        <g id="Open_safe" fill-rule="nonzero">
            <polygon id="Shape" fill="#3973F4" points="28.1 120 19.5 120 17.8 114.8 29.8 114.8"></polygon>
            <polygon id="Shape" fill="#3973F4" points="92 120 83.4 120 81.7 114.8 93.7 114.8"></polygon>
            <path d="M107.7,115.6 L6.8,115.6 C3.1,115.6 0.1,112.6 0.1,108.9 L0.1,6.9 C0.1,3.2 3.1,0.2 6.8,0.2 L107.6,0.2 C111.3,0.2 114.3,3.2 114.3,6.9 L114.3,108.9 C114.4,112.6 111.4,115.6 107.7,115.6 Z" id="Shape" fill="#4988FD"></path>
            <path d="M95.8,101.4 L18.7,101.4 C15.9,101.4 13.5,99.1 13.5,96.2 L13.5,18.2 C13.5,15.4 15.8,13 18.7,13 L95.8,13 C98.6,13 101,15.3 101,18.2 L101,96.2 C101,99.1 98.7,101.4 95.8,101.4 Z" id="Shape" fill="#2767F4"></path>
            <rect id="Rectangle-path" fill="#3973F4" x="12.7" y="53.1" width="88.3" height="7.6"></rect>
            <polyline id="Shape" fill="#3973F4" points="97.7 31.7 97.7 24.9 103.9 24.9 103.9 43.7 97.7 43.7 97.7 42.1"></polyline>
            <rect id="Rectangle-path" fill="#3973F4" x="97.7" y="68.7" width="6.2" height="18.8"></rect>
            <g id="Group" transform="translate(100.000000, 2.000000)">
                <g transform="translate(18.000000, 27.000000)">
                    <rect id="Rectangle-path" stroke="#1676EE" stroke-width="3" fill="#99C7FF" stroke-linecap="round" stroke-linejoin="round" x="0.9" y="24" width="21.6" height="8.4"></rect>
                    <path d="M27.6,18.1 L28,4.1 C28,3.2 27.7,2.3 27.1,1.7 C26.1,0.6 24.3,0.6 23.2,1.7 C22.6,2.3 22.3,3.2 22.3,4.1 L22.7,18 C21,18.2 19.7,19.9 19.7,22 L19.7,33.5 C19.7,35.6 21,37.2 22.7,37.5 L22.3,51.2 C22.3,52.1 22.6,53 23.2,53.6 C23.7,54.1 24.4,54.4 25.1,54.4 C25.8,54.4 26.5,54.1 27,53.6 C27.6,53 27.9,52.1 27.9,51.2 L27.5,37.5 C29,37.1 30.1,35.5 30.1,33.6 L30.1,22.1 C30.2,20.2 29.1,18.6 27.6,18.1 Z" id="Shape" fill="#C5DCFA"></path>
                </g>
                <path d="M2.7,9 L19.9,2.3 L20,108.2 L2.5,101.1 C1.1,100.5 0.2,99.1 0.2,97.6 L0.2,12.5 C0.3,11 1.3,9.6 2.7,9 Z" id="Shape" fill="#4988FD"></path>
                <path d="M34.9,110 L21.3,108.5 C19.3,108.5 17.6,106.9 17.6,104.8 L17.6,5.8 C17.6,3.8 19.2,2.1 21.3,2.1 L34.9,0.6 C36.9,0.6 38.6,2.2 38.6,4.3 L38.6,106.4 C38.5,108.4 36.9,110 34.9,110 Z" id="Shape" fill="#6097FD"></path>
                <g transform="translate(24.000000, 33.000000)" fill="#3973F4">
                    <circle id="Oval" cx="4.1" cy="22.3" r="3.4"></circle>
                    <path d="M6.3,24.9 C7,24.3 7.5,23.3 7.5,22.3 C7.5,20.4 6,18.9 4.1,18.9 C2.2,18.9 0.7,20.4 0.7,22.3 C0.7,22.5 0.7,22.8 0.8,23" id="Shape"></path>
                    <circle id="Oval" cx="4.1" cy="40.4" r="3.4"></circle>
                    <circle id="Oval" cx="4.1" cy="4.1" r="3.4"></circle>
                </g>
                <ellipse id="Oval" fill="#3973F4" cx="9.1" cy="55.3" rx="5" ry="16.2"></ellipse>
            </g>
        </g>
    </g>
</svg>