<?xml version="1.0" encoding="UTF-8"?>
<svg width="144px" height="147px" viewBox="0 0 144 147" version="1.1" xmlns="http://www.w3.org/2000/svg" xmlns:xlink="http://www.w3.org/1999/xlink">
    <!-- Generator: Sketch 51.2 (57519) - http://www.bohemiancoding.com/sketch -->
    <title>Open_24-7</title>
    <desc>Created with Sketch.</desc>
    <defs></defs>
    <g id="Page-1" stroke="none" stroke-width="1" fill="none" fill-rule="evenodd">
        <g id="Open_24-7" fill-rule="nonzero">
            <g id="Group">
                <path d="M111.7,130.3 C111.6,130.4 111.5,130.6 111.4,130.7 C108,135.8 104.4,141 98.6,143.7 C96.1,144.8 93.5,145.6 91.9,146.2 C84,146.7 77.4,146 70.8,144.3 C47.1,138.3 28.3,125.9 14.6,106.8 C12.2,103.4 9.9,99.9 7.8,96.1 C4.9,91 2.7,85.5 1.2,79.8 C-0.6,72.6 0.9,66 5,60 C6.3,58.1 7.8,56.2 9.3,54.4 C9.4,54.2 9.6,54.1 9.7,53.9 C14.1,48.5 21.7,47 27.5,50.9 C32.2,54 36.7,57.5 40.9,61.2 C46,65.7 46.6,73 42.9,78.6 C42.8,78.8 42.7,78.9 42.6,79.1 C41.5,80.6 40.3,82.1 39.2,83.5 C36.5,87.1 36.6,90.2 39.6,93.5 C46.9,101.5 55.5,107.8 65,112.9 C68.5,114.8 71.7,114.1 74.2,110.9 C75.5,109.3 76.7,107.6 78,106.1 C78.1,105.9 78.3,105.8 78.4,105.7 C82.9,100.6 90.5,99.5 96.2,103.5 C100.5,106.5 104.6,109.6 108.6,112.9 C114.1,117.4 115.3,124.6 111.7,130.3 Z" id="Shape" fill="#4988FD"></path>
                <path d="M60.1,76 C58.2,76 56.9,74.8 56.9,73.1 C56.9,72 57.4,71.1 58.4,70.3 L66.6,63.3 C69.9,60.5 71.4,58.8 71.4,56.5 C71.4,54.3 69.9,52.9 67.7,52.9 C65.9,52.9 64.5,53.7 62.9,55.7 C62.3,56.3 61.6,56.7 60.8,56.7 C59.3,56.7 58,55.5 58,53.9 C58,53.2 58.2,52.6 58.7,52 C61.3,48.8 64.1,47.4 68.1,47.4 C73.7,47.4 77.6,51 77.6,56.1 C77.6,60.8 74.9,63.4 70.4,67.1 L66.2,70.6 L75.4,70.6 C76.9,70.6 78.1,71.8 78.1,73.3 C78.1,74.8 76.9,76 75.4,76 L60.1,76 Z" id="Shape" fill="#4988FD"></path>
                <path d="M96.8,76.2 C95.2,76.2 93.9,74.9 93.9,73.3 L93.9,69.9 L82.5,69.9 C80.9,69.9 79.6,68.6 79.6,67 C79.6,66 80,65 80.8,64.1 L93.4,49.1 C94.4,48 95.2,47.3 96.8,47.3 C98.4,47.3 99.7,48.6 99.7,50.2 L99.7,64.7 L101.1,64.7 C102.6,64.7 103.7,65.8 103.7,67.3 C103.7,68.7 102.6,69.8 101.1,69.8 L99.7,69.8 L99.7,73.2 C99.7,75 98.4,76.2 96.8,76.2 Z M93.9,64.9 L93.9,56.6 L87,64.9 L93.9,64.9 Z" id="Shape" fill="#4988FD"></path>
                <path d="M77.8,0.9 C49.3,0.9 25.1,19 16,44.3 C17.5,43.9 19,43.7 20.6,43.7 C24.1,43.7 27.6,44.7 30.5,46.7 C30.9,47 31.4,47.3 31.8,47.6 C39.3,29.5 57.1,16.9 77.8,16.9 C105.3,16.9 127.6,39.2 127.6,66.7 C127.6,82.7 120,97 108.2,106.1 C109.5,107.1 110.7,108.1 112,109.1 C115.1,111.7 117.2,115 118.1,118.6 C133.6,106.6 143.6,87.8 143.6,66.7 C143.6,30.4 114.1,0.9 77.8,0.9 Z" id="Shape" fill="#6097FD"></path>
            </g>
            <path d="M43.1,78.6 C43,78.8 42.9,78.9 42.8,79.1 L9.5,54.4 C9.6,54.2 9.8,54.1 9.9,53.9 C14.3,48.5 21.9,47 27.7,50.9 C32.4,54 36.9,57.5 41.1,61.2 C46.2,65.7 46.9,73 43.1,78.6 Z" id="Shape" fill="#3973F4"></path>
            <path d="M111.7,130.3 L78.6,105.7 C83.1,100.6 90.7,99.5 96.4,103.5 C100.7,106.5 104.8,109.6 108.8,112.9 C114.1,117.4 115.3,124.6 111.7,130.3 Z" id="Shape" fill="#3973F4"></path>
        </g>
    </g>
</svg>