<?xml version="1.0" encoding="UTF-8"?>
<svg width="131px" height="131px" viewBox="0 0 131 131" version="1.1" xmlns="http://www.w3.org/2000/svg" xmlns:xlink="http://www.w3.org/1999/xlink">
    <!-- Generator: Sketch 51.2 (57519) - http://www.bohemiancoding.com/sketch -->
    <title>Package</title>
    <desc>Created with Sketch.</desc>
    <defs></defs>
    <g id="Page-1" stroke="none" stroke-width="1" fill="none" fill-rule="evenodd">
        <g id="Package" fill-rule="nonzero">
            <g id="Group">
                <path d="M130.6,7.4 L130.6,122.8 C130.6,126.5 127.9,129.6 124.3,130.1 C123.9,130.2 123.6,130.2 123.2,130.2 L7.8,130.2 C3.7,130.2 0.4,126.9 0.4,122.8 L0.4,7.4 C0.4,3.3 3.7,0 7.8,0 L123.2,0 C127.3,0 130.6,3.3 130.6,7.4 Z" id="Shape" fill="#4988FD"></path>
                <path d="M50.1,0 L80.8,0 L80.8,28.7 C80.8,30.3 80.1,31.8 78.9,32.8 L75,36.1 C73.2,37.6 70.7,37.8 68.7,36.6 L62.8,33 C60.9,31.9 58.5,32 56.8,33.3 L53.8,35.6 C52.2,36.8 49.8,35.7 49.9,33.6 L50.1,0 Z" id="Shape" fill="#DFECFD"></path>
                <path d="M130.6,62.6 L130.6,122.8 C130.6,126.5 127.9,129.6 124.3,130.1 C7.2,130.1 14.3,130.9 11.4,128.2 C32.9,126 54.7,121.6 74.6,113.2 C74.6,113.2 74.6,113.2 74.7,113.2 C99.1,102.9 118.8,86.9 130.6,62.6 Z" id="Shape" fill="#3973F4"></path>
                <path d="M76.3,91.6 L93.8,91.6 L93.8,83.9 C93.8,82.5 95.4,81.8 96.4,82.7 L113.6,97.4 C114.4,98.1 114.4,99.4 113.6,100.2 L96.4,114.9 C95.4,115.8 93.8,115 93.8,113.7 L93.8,106 L76.3,106 C76.3,105.9 76.3,91.2 76.3,91.6 Z" id="Shape" fill="#FFFFFF"></path>
            </g>
        </g>
    </g>
</svg>