<?xml version="1.0" encoding="UTF-8"?>
<svg width="110px" height="147px" viewBox="0 0 110 147" version="1.1" xmlns="http://www.w3.org/2000/svg" xmlns:xlink="http://www.w3.org/1999/xlink">
    <!-- Generator: Sketch 51.2 (57519) - http://www.bohemiancoding.com/sketch -->
    <title>Package_sent_1_</title>
    <desc>Created with Sketch.</desc>
    <defs></defs>
    <g id="Page-1" stroke="none" stroke-width="1" fill="none" fill-rule="evenodd">
        <g id="Package_sent_1_" fill-rule="nonzero">
            <g id="Group" transform="translate(31.000000, 98.000000)">
                <path d="M47.9,3.6 L47.9,45.4 C47.9,46.9 46.7,48.1 45.2,48.1 L3.4,48.1 C1.9,48.1 0.7,46.9 0.7,45.4 L0.7,3.6 C0.7,2.1 1.9,0.9 3.4,0.9 L45.2,0.9 C46.7,0.9 47.9,2.1 47.9,3.6 Z" id="Shape" fill="#4988FD"></path>
                <path d="M18.8,0.9 L29.9,0.9 L29.9,13.5 C29.9,13.7 29.8,14 29.6,14.1 L27.2,16.2 C26.9,16.4 26.5,16.5 26.2,16.3 L22.7,14.2 C22.4,14 22.1,14 21.8,14.2 L20,15.6 C19.5,16 18.7,15.6 18.7,14.9 L18.7,7" id="Shape" fill="#DFECFD"></path>
            </g>
            <path d="M108.8,37.1 C108.2,36.6 107.2,36.6 106.7,37.2 L60.7,89.7 L80.7,47.4 C81.1,46.7 80.7,45.8 80,45.4 C79.3,45 78.4,45.4 78,46.1 L54.6,95.3 L38.7,63.8 L34.2,54.9 L30.4,47.4 C30,46.7 29.1,46.4 28.4,46.7 C27.7,47.1 27.4,48 27.7,48.7 L31.5,56.2 L36,65.1 L47.9,88.6 L3.1,37 C2.6,36.4 1.6,36.3 1,36.9 C0.4,37.5 0.3,38.4 0.9,39 L53.6,99.7 C53.6,99.7 53.6,99.7 53.6,99.7 C53.6,99.7 53.6,99.7 53.7,99.8 C53.8,99.9 53.8,99.9 53.9,100 C53.9,100 54,100 54,100.1 C54.1,100.1 54.2,100.2 54.2,100.2 C54.2,100.2 54.3,100.2 54.3,100.2 C54.4,100.2 54.5,100.3 54.7,100.3 C54.7,100.3 54.7,100.3 54.7,100.3 C54.7,100.3 54.7,100.3 54.7,100.3 C54.7,100.3 54.7,100.3 54.7,100.3 C54.8,100.3 54.9,100.3 55,100.2 C55,100.2 55.1,100.2 55.1,100.2 C55.2,100.2 55.3,100.1 55.3,100.1 C55.3,100.1 55.4,100.1 55.4,100 C55.5,99.9 55.6,99.9 55.7,99.8 C55.7,99.8 55.7,99.8 55.7,99.8 C55.7,99.8 55.7,99.8 55.7,99.8 L108.8,39.2 C109.5,38.6 109.4,37.6 108.8,37.1 Z" id="Shape" fill="#DFECFD"></path>
            <g id="Group" transform="translate(1.000000, 0.000000)">
                <path d="M79,6.5 C92,13 102.1,24.4 107,38.3 C104.7,37.7 102.3,37.4 99.8,37.4 C91.2,37.4 83.4,41.1 78.4,47 C78.3,47.1 78.5,46.9 78.4,47 C78.4,46.8 78.4,47.2 78.4,47 C73.3,39.4 64.2,34.1 53.9,34.1 C42.8,34.1 33.1,40 28.3,48.5 C28.2,48.6 28.4,48.4 28.3,48.5 C28.3,48.3 28.3,48.7 28.3,48.5 C23.4,41.9 15.2,37.4 6,37.4 C4.1,37.4 2.3,37.6 0.5,37.9 C8.1,16.9 27.7,1.7 51.1,0.6 L51.2,0.6 C52,0.6 52.9,0.5 53.7,0.5 C61.2,0.5 68.3,2 74.9,4.6" id="Shape" fill="#6097FD"></path>
                <path d="M78.4,47 C73.3,39.4 64.2,34.1 53.9,34.1 C42.8,34.1 33.1,40 28.3,48.5 C28.2,48.6 28.4,48.4 28.3,48.5 C28.3,48.3 28.3,48.7 28.3,48.5 C29.2,22 42.3,0.6 51.1,0.6 L51.2,0.6 C59.9,0.6 75.2,20.3 78.4,47 Z" id="Shape" fill="#DFECFD"></path>
                <path d="M78.4,47 C78.3,47 78.5,46.9 78.4,47 C78.4,46.8 78.4,47.1 78.4,47 C78.5,47.1 78.3,46.8 78.4,47 Z" id="Shape" fill="#FFFFFF"></path>
                <path d="M28.3,48.5 C28.2,48.6 28.3,48.4 28.3,48.5 C28.3,48.3 28.3,48.7 28.3,48.5 C28.3,48.6 28.2,48.4 28.3,48.5 Z" id="Shape" fill="#FFFFFF"></path>
            </g>
        </g>
    </g>
</svg>