<?xml version="1.0" encoding="UTF-8"?>
<svg width="131px" height="131px" viewBox="0 0 131 131" version="1.1" xmlns="http://www.w3.org/2000/svg" xmlns:xlink="http://www.w3.org/1999/xlink">
    <!-- Generator: Sketch 51.2 (57519) - http://www.bohemiancoding.com/sketch -->
    <title>Package_sent</title>
    <desc>Created with Sketch.</desc>
    <defs></defs>
    <g id="Page-1" stroke="none" stroke-width="1" fill="none" fill-rule="evenodd">
        <g id="Package_sent" fill-rule="nonzero">
            <g id="Group">
                <path d="M130.6,7.9 L130.6,123.4 C130.6,127.5 127.3,130.8 123.2,130.8 L7.7,130.8 C3.6,130.8 0.3,127.5 0.3,123.4 L0.3,7.9 C0.3,3.8 3.6,0.5 7.7,0.5 L123.2,0.5 C127.3,0.5 130.6,3.8 130.6,7.9 Z" id="Shape" fill="#4988FD"></path>
                <path d="M130.6,61.7 L130.6,123.4 C130.6,127.5 127.3,130.8 123.2,130.8 L15.3,130.8 C86.5,122.2 116.6,93.2 130.6,61.7 Z" id="Shape" fill="#3973F4"></path>
                <path d="M50.2,0.5 L80.9,0.5 L80.9,29.2 C80.9,30.8 80.2,32.3 79,33.3 L75.1,36.6 C73.3,38.1 70.8,38.3 68.8,37.1 L62.9,33.5 C61,32.4 58.6,32.5 56.9,33.8 L53.9,36.1 C52.3,37.3 49.9,36.2 50,34.1 L50.2,0.5 Z" id="Shape" fill="#DFECFD"></path>
                <g transform="translate(18.000000, 78.000000)" fill="#FFFFFF" id="Shape">
                    <path d="M5.6,15.1 L9.9,10.8 L9.9,23.2 C9.9,24.9 11.3,26.4 13.1,26.4 C14.9,26.4 16.3,25 16.3,23.2 L16.3,10.8 L20.6,15.1 C21.2,15.7 22,16 22.8,16 C23.6,16 24.4,15.7 25,15.1 C26.2,13.9 26.2,11.9 25,10.6 L15.3,0.9 C14.7,0.3 13.9,0 13.1,0 C12.3,0 11.5,0.3 10.9,0.9 L1.2,10.6 C-2.27373675e-13,11.8 -2.27373675e-13,13.8 1.2,15.1 C2.4,16.4 4.4,16.4 5.6,15.1 Z"></path>
                    <path d="M33.9,15.1 L38.2,10.8 L38.2,23.2 C38.2,24.9 39.6,26.4 41.4,26.4 C43.2,26.4 44.6,25 44.6,23.2 L44.6,10.8 L48.9,15.1 C49.5,15.7 50.3,16 51.1,16 C51.9,16 52.7,15.7 53.3,15.1 C54.5,13.9 54.5,11.9 53.3,10.6 L43.6,0.9 C42.4,-0.3 40.4,-0.3 39.1,0.9 L29.4,10.6 C28.2,11.8 28.2,13.8 29.4,15.1 C30.7,16.4 32.7,16.4 33.9,15.1 Z"></path>
                    <path d="M51.1,29.1 L3.3,29.1 C1.6,29.1 0.1,30.5 0.1,32.3 C0.1,34.1 1.5,35.5 3.3,35.5 L51.1,35.5 C52.8,35.5 54.3,34.1 54.3,32.3 C54.3,30.5 52.9,29.1 51.1,29.1 Z"></path>
                </g>
            </g>
        </g>
    </g>
</svg>