<?xml version="1.0" encoding="UTF-8"?>
<svg width="149px" height="141px" viewBox="0 0 149 141" version="1.1" xmlns="http://www.w3.org/2000/svg" xmlns:xlink="http://www.w3.org/1999/xlink">
    <!-- Generator: Sketch 51.2 (57519) - http://www.bohemiancoding.com/sketch -->
    <title>Package_received</title>
    <desc>Created with Sketch.</desc>
    <defs></defs>
    <g id="Page-1" stroke="none" stroke-width="1" fill="none" fill-rule="evenodd">
        <g id="Package_received" fill-rule="nonzero">
            <g id="Group" transform="translate(34.000000, 0.000000)">
                <path d="M100.1,5.8 L100.1,93.9 C100.1,96.7 98,99.1 95.3,99.5 C95,99.5 94.7,99.6 94.5,99.6 L6.4,99.6 C3.3,99.6 0.8,97.1 0.8,94 L0.8,5.9 C0.8,2.8 3.3,0.3 6.4,0.3 L94.5,0.3 C97.5,0.1 100.1,2.7 100.1,5.8 Z" id="Shape" fill="#4988FD"></path>
                <path d="M38.6,0.1 L62.1,0.1 L62.1,22 C62.1,23.2 61.6,24.4 60.6,25.1 L57.6,27.6 C56.3,28.7 54.3,28.9 52.8,28 L48.3,25.3 C46.9,24.4 45,24.5 43.7,25.5 L41.4,27.2 C40.2,28.1 38.4,27.2 38.4,25.7 L38.6,0.1 Z" id="Shape" fill="#DFECFD"></path>
                <path d="M100.1,47.9 L100.1,93.9 C100.1,96.7 98,99.1 95.3,99.5 C6,99.5 11.4,100.1 9.2,98.1 C25.6,96.4 42.3,93.1 57.5,86.7 C57.5,86.7 57.5,86.7 57.5,86.7 C76,78.6 91,66.4 100.1,47.9 Z" id="Shape" fill="#3973F4"></path>
                <path d="M58.6,70 L71.9,70 L71.9,64.1 C71.9,63.1 73.1,62.5 73.9,63.2 L87.1,74.4 C87.7,75 87.7,76 87.1,76.5 L73.9,87.7 C73.1,88.4 71.9,87.8 71.9,86.8 L71.9,80.9 L58.6,80.9 C58.6,80.9 58.6,69.7 58.6,70 Z" id="Shape" fill="#FFFFFF"></path>
            </g>
            <g id="Group" transform="translate(0.000000, 76.000000)">
                <path d="M148.8,36.1 C148.9,40 146.5,43.5 142.9,44.7 L108,56.7 C76,67.6 85.2,67.6 53.4,56.9 C39.9,52.3 47.3,56.4 6.8,25.3 C3.5,23.1 1.8,20.7 0.8,17.1 C0.8,17.1 0.8,17.1 0.8,17.1 C0.8,17.1 0.7,16.7 0.7,16.4 C0.6,16.4 0.4,13.8 0.4,13.7 C0.4,3.1 12.1,-3.5 21.2,2.1 L60.4,26 C60.4,25.2 60.4,25 60.4,23.8 C60.4,23.8 60.2,20.3 60.4,22.5 C60.4,22.7 60.4,23 60.5,23.2 C60.6,22.8 60.6,22.3 60.8,21.9 C58.6,13.3 65.1,4.9 74,4.9 L144.3,8.9 C146.4,9 148.1,10.8 148.2,12.9 C148.2,21.4 148.1,17 148.8,36.1 Z" id="Shape" fill="#C5DCFA"></path>
                <path d="M73.9,32.2 L109.3,32.2 L73.1,34.8 C63.4,34.8 56.8,24.9 60.6,15.9 C58.8,24.2 65.2,32.2 73.9,32.2 Z" id="Shape" fill="#BAD3F5"></path>
            </g>
        </g>
    </g>
</svg>