<?xml version="1.0" encoding="UTF-8"?>
<svg width="149px" height="131px" viewBox="0 0 149 131" version="1.1" xmlns="http://www.w3.org/2000/svg" xmlns:xlink="http://www.w3.org/1999/xlink">
    <!-- Generator: Sketch 51.2 (57519) - http://www.bohemiancoding.com/sketch -->
    <title>Package_Opened</title>
    <desc>Created with Sketch.</desc>
    <defs></defs>
    <g id="Page-1" stroke="none" stroke-width="1" fill="none" fill-rule="evenodd">
        <g id="Package_Opened" fill-rule="nonzero">
            <path d="M18.3,35.9 L1.5,19.5 C-9.99200722e-16,18 0.7,15.4 2.8,14.9 L58.8,0.8 C60.3,0.4 61.8,1 62.8,2.1 L77.1,19.9 L18.3,35.9" id="Shape" fill="#6097FD"></path>
            <path d="M18.3,35.9 L77.5,47.1 L77.8,130 L18.4,114.2 C18.5,114.2 18.8,35.9 18.3,35.9 Z" id="Shape" fill="#4988FD"></path>
            <path d="M134.3,32.7 L77.5,47.2 L77.8,130.1 L134.5,110.3 C134.6,110.3 133.8,32.7 134.3,32.7 Z" id="Shape" fill="#3973F4"></path>
            <path d="M134.2,61.5 L87.6,74.6 C85.6,74.8 83.8,73.6 83.2,71.6 L79.2,54.5 L77.6,47.2 L134.2,33.1 C134,33.1 134.1,45.3 134.2,61.5 Z" id="Shape" fill="#2767F4"></path>
            <path d="M134.3,32.7 L147.6,48.8 C148.9,50.5 148.1,52.9 146.1,53.5 L98.7,67.4 C97.2,67.8 95.7,67.3 94.7,66.2 L77.5,47.2 L134.3,32.7 Z" id="Shape" fill="#6097FD"></path>
            <polygon id="Shape" fill="#2767F4" points="134.3 32.7 77.5 47.1 77 47.1 18.3 35.9 77 20 77.2 19.9"></polygon>
            <path d="M48.7,113.5 L26.1,108.3 C25.3,108.1 24.8,107.4 24.8,106.6 L24.8,92.1 C24.8,91 25.8,90.2 26.9,90.4 L49.5,95.6 C50.3,95.8 50.8,96.5 50.8,97.3 L50.8,111.8 C50.8,112.9 49.8,113.7 48.7,113.5 Z" id="Shape" fill="#DFECFD"></path>
            <path d="M46.6,102.4 C46.5,102.4 46.4,102.4 46.4,102.4 L27.5,98 C27,97.9 26.6,97.3 26.8,96.8 C26.9,96.3 27.5,95.9 28,96 L46.8,100.4 C47.3,100.5 47.7,101.1 47.6,101.6 C47.5,102.1 47.1,102.4 46.6,102.4 Z" id="Shape" fill="#6097FD"></path>
            <path d="M38.6,106.2 C38.5,106.2 38.5,106.2 38.4,106.2 L27.6,103.7 C27.1,103.6 26.7,103 26.8,102.5 C26.9,102 27.5,101.6 28,101.7 L38.8,104.2 C39.3,104.3 39.7,104.9 39.6,105.4 C39.4,105.9 39,106.2 38.6,106.2 Z" id="Shape" fill="#6097FD"></path>
            <polygon id="Shape" fill="#4988FD" points="134.3 32.7 77.5 47.1 77 47.1 77 20 77.2 19.9"></polygon>
        </g>
    </g>
</svg>