<?xml version="1.0" encoding="UTF-8"?>
<svg width="144px" height="113px" viewBox="0 0 144 113" version="1.1" xmlns="http://www.w3.org/2000/svg" xmlns:xlink="http://www.w3.org/1999/xlink">
    <!-- Generator: Sketch 51.2 (57519) - http://www.bohemiancoding.com/sketch -->
    <title>Package_3</title>
    <desc>Created with Sketch.</desc>
    <defs></defs>
    <g id="Page-1" stroke="none" stroke-width="1" fill="none" fill-rule="evenodd">
        <g id="Package_3" fill-rule="nonzero">
            <path d="M110.2,25.9 L110.2,106 C110.2,109.5 107.4,112.3 103.9,112.3 L7.2,112.3 C3.7,112.3 0.9,109.5 0.9,106 L0.9,25.9 C0.9,22.4 3.7,19.6 7.2,19.6 L103.9,19.6 C106.7,19.6 109.1,21.4 109.9,23.9 C110,24.5 110.2,25.2 110.2,25.9 Z" id="Shape" fill="#4988FD"></path>
            <path d="M110.2,25.9 L110.2,54.7 C99.1,51.9 90.9,41.8 90.9,29.9 C90.9,26.2 91.7,22.7 93.1,19.6 L103.9,19.6 C106.7,19.6 109.1,21.4 109.9,23.9 C110,24.5 110.2,25.2 110.2,25.9 Z" id="Shape" fill="#3973F4"></path>
            <path d="M107,20.4 L64.9,20.6 L45.1,20.6 L3.8,20.5 L31.7,2 C33,1.1 34.6,0.7 36.2,0.7 L75.3,0.7 C77,0.7 78.6,1.2 80,2.2 L107,20.4 Z" id="Shape" fill="#3973F4"></path>
            <path d="M63.5,20.9 L63.5,62.4 C63.5,63.4 62.7,64.2 61.7,64.2 L45.4,64.2 L43.6,62.4 L43.6,20.9 L51.4,1.6 L56,1.6 L63.5,20.9 Z" id="Shape" fill="#E0E6F2"></path>
            <path d="M63.5,20.6 L63.5,64.4 C63.5,65.4 62.7,66.2 61.7,66.2 L45.4,66.2 L43.6,64.4 L43.6,20.6 L63.5,20.6 Z" id="Shape" fill="#FFFFFF"></path>
            <circle id="Oval" fill="#21D3AC" cx="118.3" cy="26.3" r="25.6"></circle>
            <path d="M115.9,36.4 C115,36.4 114.1,36 113.5,35.4 L106.3,28.2 C105,26.9 105,24.7 106.3,23.3 C107.6,22 109.8,22 111.2,23.3 L115.9,28 L126.7,17.2 C128,15.9 130.2,15.9 131.6,17.2 C132.9,18.5 132.9,20.7 131.6,22.1 L118.3,35.4 C117.7,36 116.8,36.4 115.9,36.4 Z" id="Shape" fill="#FFFFFF"></path>
        </g>
    </g>
</svg>