<?xml version="1.0" encoding="UTF-8"?>
<svg width="118px" height="150px" viewBox="0 0 118 150" version="1.1" xmlns="http://www.w3.org/2000/svg" xmlns:xlink="http://www.w3.org/1999/xlink">
    <!-- Generator: Sketch 51.2 (57519) - http://www.bohemiancoding.com/sketch -->
    <title>Pants</title>
    <desc>Created with Sketch.</desc>
    <defs></defs>
    <g id="Page-1" stroke="none" stroke-width="1" fill="none" fill-rule="evenodd">
        <g id="Pants" fill-rule="nonzero">
            <g id="Group">
                <path d="M115.2,143.9 L84.3,148.2 L84.2,148.2 C82.7,148.4 81.3,147.5 80.9,146 L79.9,142.2 L60.1,63.1 L56.9,50.2 L36.3,142 L35.3,146.7 C35,148.2 33.6,149.2 32.1,149 L5.8,145.9 L3.3,145.6 C1.6,145.4 0.5,143.9 0.7,142.2 L1.3,138.2 L21.4,8.3 L22.2,3 C22.4,1.7 23.5,0.7 24.8,0.7 L88,0.7 C89.3,0.7 90.4,1.6 90.6,2.9 L91.5,7.6 L91.6,8.3 L117.1,138.1 L117.5,140.4 C118,142.1 116.9,143.7 115.2,143.9 Z" id="Shape" fill="#4988FD"></path>
                <path d="M92.4,31.6 C92.1,31.6 91.8,31.5 91.6,31.4 C84,28 77.8,22.6 72.7,14.8 C72.1,13.9 72.3,12.6 73.3,12 C74.2,11.4 75.5,11.6 76.1,12.6 C80.8,19.7 86.4,24.6 93.3,27.7 C94.3,28.2 94.8,29.4 94.3,30.4 C93.9,31.2 93.2,31.6 92.4,31.6 Z" id="Shape" fill="#3973F4"></path>
                <path d="M23.2,31.6 C23.5,31.6 23.8,31.5 24,31.4 C31.6,28 37.8,22.6 42.9,14.8 C43.5,13.9 43.3,12.6 42.3,12 C41.4,11.4 40.1,11.6 39.5,12.6 C34.8,19.7 29.2,24.6 22.3,27.7 C21.3,28.2 20.8,29.4 21.3,30.4 C21.6,31.2 22.4,31.6 23.2,31.6 Z" id="Shape" fill="#3973F4"></path>
                <path d="M56.9,38.7 C55.8,38.7 54.8,37.8 54.8,36.6 L54.8,8.7 C54.8,7.6 55.7,6.6 56.9,6.6 C58,6.6 59,7.5 59,8.7 L59,36.6 C59,37.7 58,38.7 56.9,38.7 Z" id="Shape" fill="#3973F4"></path>
            </g>
            <path d="M91.7,8.4 L21.4,8.4 L22.2,3.1 C22.4,1.8 23.5,0.8 24.8,0.8 L88,0.8 C89.3,0.8 90.4,1.7 90.6,3 L91.5,7.7 L91.7,8.4 Z" id="Shape" fill="#3973F4"></path>
            <path d="M36.3,142.1 L35.3,146.8 C35,148.3 33.6,149.3 32.1,149.1 L5.8,146 L3.3,145.7 C1.6,145.5 0.5,144 0.7,142.3 L1.3,138.3 L36.3,142.1 Z" id="Shape" fill="#3973F4"></path>
            <path d="M115.2,143.9 L84.3,148.2 L84.2,148.2 C82.7,148.4 81.3,147.5 80.9,146 L79.9,142.2 L117.2,138.1 L117.6,140.4 C118,142.1 116.9,143.7 115.2,143.9 Z" id="Shape" fill="#3973F4"></path>
        </g>
    </g>
</svg>