<?xml version="1.0" encoding="UTF-8"?>
<svg width="150px" height="139px" viewBox="0 0 150 139" version="1.1" xmlns="http://www.w3.org/2000/svg" xmlns:xlink="http://www.w3.org/1999/xlink">
    <!-- Generator: Sketch 51.2 (57519) - http://www.bohemiancoding.com/sketch -->
    <title>Paper_Clip</title>
    <desc>Created with Sketch.</desc>
    <defs></defs>
    <g id="Page-1" stroke="none" stroke-width="1" fill="none" fill-rule="evenodd">
        <g id="Paper_Clip" fill="#4988FD" fill-rule="nonzero">
            <path d="M0.5,112.6 C0.5,108.4 0.2,104.2 0.6,100 C1.1,93.6 4,88.3 8.6,83.7 C29,63.4 49.3,43.1 69.6,22.8 C75.5,16.9 81.4,10.9 87.4,5 C88,4.4 88.7,3.7 89.5,3.3 C91.4,2.3 93.3,2.5 94.8,4.1 C96.4,5.7 96.5,7.6 95.4,9.4 C94.9,10.3 94.1,11.1 93.3,11.9 C67.4,37.9 41.4,63.8 15.4,89.7 C11.3,93.8 9.2,98.5 9.3,104.3 C9.4,110.2 9.3,116.2 9.3,122.1 C9.3,127.2 12.2,130.1 17.2,130.2 C23.2,130.2 29.3,130.2 35.3,130.2 C41.1,130.3 45.7,128.2 49.8,124 C78.4,95.2 107.1,66.6 135.7,37.9 C141.6,32 141.6,26.7 135.6,20.8 C132.8,18 130,15.1 127,12.3 C122.8,8.4 117.1,8.5 113,12.5 C91.3,34.1 69.7,55.7 48.1,77.4 C47.2,78.3 46.4,79.8 46.3,81.1 C46,84.7 46,88.3 46.2,91.9 C46.2,92.5 47.4,93.6 48.1,93.6 C51.5,93.8 53.9,93.9 57.3,93.5 C59,93.3 60.9,92.2 62.2,90.9 C82.9,70.3 103.6,49.6 124.3,28.9 C125,28.2 125.7,27.5 126.6,26.9 C128.5,25.7 131,26.1 132.3,27.7 C133.8,29.5 133.8,31.4 132.5,33.3 C132,34 131.4,34.6 130.8,35.2 C110.1,55.9 89.4,76.5 68.8,97.2 C65.4,100.7 61.4,102.7 56.6,102.7 C53,102.7 50.4,102.9 46.9,102.6 C41.4,102.1 37.7,98.2 37.4,92.7 C37.2,88.9 37.3,85 37.4,81.1 C37.5,77.2 39.1,73.8 41.9,71 C63.5,49.4 85,27.8 106.6,6.3 C114.6,-1.7 126.5,-1.4 134.4,6.7 C137.1,9.4 139.9,12.2 142.6,14.9 C151.4,23.7 151.4,35 142.6,43.8 C122.5,63.9 102.4,84 82.3,104 C73.6,112.7 64.8,121.3 56.2,130.2 C50.5,136.1 43.6,138.9 35.6,139 C29.4,139.1 23.2,139.1 17,139 C7,138.8 0.3,131.9 0.3,121.8 C0.3,118.7 0.3,115.6 0.3,112.5 C0.4,112.6 0.5,112.6 0.5,112.6 Z" id="Shape"></path>
        </g>
    </g>
</svg>