<?xml version="1.0" encoding="UTF-8"?>
<svg width="150px" height="128px" viewBox="0 0 150 128" version="1.1" xmlns="http://www.w3.org/2000/svg" xmlns:xlink="http://www.w3.org/1999/xlink">
    <!-- Generator: Sketch 51.2 (57519) - http://www.bohemiancoding.com/sketch -->
    <title>Partnership</title>
    <desc>Created with Sketch.</desc>
    <defs></defs>
    <g id="Page-1" stroke="none" stroke-width="1" fill="none" fill-rule="evenodd">
        <g id="Partnership" fill-rule="nonzero">
            <path d="M89.6,47.3 C89.3,47.3 88.9,47.3 88.5,47.3" id="Shape" fill="#FFFFFF"></path>
            <path d="M111.4,88.6 C113.7,90.9 113.7,94.7 111.4,97 L111,97.4 C108.7,99.7 104.9,99.7 102.6,97.4 L105.7,100.5 C108,102.8 108,106.6 105.7,108.9 L105.3,109.3 C103,111.6 99.2,111.6 96.9,109.3 L96.8,109.2 C99.1,111.5 99.1,115.3 96.8,117.6 L96.4,118 C94.1,120.3 90.3,120.3 88,118 L87.3,117.3 C89.6,119.6 89.6,123.4 87.3,125.7 C85,128 81.2,128 78.9,125.7 L72.6,119.4 L69.3,119.9 L20.8,71.4 L47.7,44.5 L54.8,51.6 C56.1,52.9 58.3,52.9 59.6,51.6 L59.9,51.3 C63.1,48.1 68.3,48.1 71.5,51.3 L72.8,52.6 L72.9,53.1 L74.6,51.4 C74.7,51.3 74.8,51.2 74.9,51.1 C75.2,50.8 75.7,50.4 76.1,50.1 C76.2,50 76.4,49.9 76.6,49.8 C77.1,49.5 77.7,49.2 78.3,48.9 C78.5,48.8 78.6,48.7 78.8,48.7 C79.8,48.3 80.9,48 82.2,47.8 C82.4,47.8 82.5,47.7 82.7,47.7 C83.7,47.6 84.9,47.5 86.2,47.5 L105.5,47.5 L127,69 L109.3,86.7 L111.4,88.6 Z" id="Shape" fill="#C5DCFA"></path>
            <path d="M126.9,68.8 L109.2,86.5 L88.3,65.6 C85.5,62.8 80.9,62.8 78,65.6 L74.3,69.3 L72.9,70.7 C70.5,73.1 67.3,74.3 64.1,74.3 C60.9,74.3 57.7,73.1 55.2,70.6 L72.7,53.1 L74.4,51.4 C74.5,51.3 74.6,51.2 74.7,51.1 C75,50.8 75.5,50.4 75.9,50.1 C76,50 76.2,49.9 76.4,49.8 C76.9,49.5 77.5,49.2 78.1,48.9 C78.3,48.8 78.4,48.7 78.6,48.7 C79.6,48.3 80.7,48 82,47.8 C82.2,47.8 82.3,47.7 82.5,47.7 C83.5,47.6 84.7,47.5 86,47.5 L105.3,47.5 L126.9,68.8 Z" id="Shape" fill="#DFECFD"></path>
            <g id="Group" transform="translate(30.000000, 81.000000)" fill="#DFECFD">
                <path d="M17.6,11.1 L10.3,18.4 C8.1,20.6 4.5,20.6 2.4,18.4 L1.7,17.7 C-0.5,15.5 -0.5,11.9 1.7,9.8 L9,2.5 C11.2,0.3 14.8,0.3 16.9,2.5 L17.6,3.2 C19.8,5.3 19.8,8.9 17.6,11.1 Z" id="Shape"></path>
                <path d="M29.7,16.5 L14.9,31.3 C12.7,33.5 9.2,33.5 7,31.3 L6.3,30.6 C4.1,28.4 4.1,24.9 6.3,22.7 L21.1,7.9 C23.3,5.7 26.8,5.7 29,7.9 L29.7,8.6 C31.8,10.7 31.8,14.3 29.7,16.5 Z" id="Shape"></path>
                <path d="M37.2,22.8 C37.6,24.6 37,26.6 35.6,28 L26.4,37.2 C24.1,39.5 20.4,39.5 18.2,37.2 L17.8,36.8 C15.5,34.5 15.5,30.8 17.8,28.6 L27,19.4 C29.3,17.1 33,17.1 35.2,19.4 L35.6,19.8 C36.4,20.6 36.9,21.7 37.2,22.8" id="Shape"></path>
                <path d="M42.2,38.8 L37.7,43.3 C35.5,45.5 31.8,45.5 29.6,43.3 L29,42.7 C26.8,40.5 26.8,36.8 29,34.6 L33.5,30.1 C35.7,27.9 39.4,27.9 41.6,30.1 L42.2,30.7 C44.5,32.9 44.5,36.5 42.2,38.8 Z" id="Shape"></path>
            </g>
            <path d="M35.6,25.1 L2.1,58.8 C0.5,60.4 0.5,63 2.1,64.7 L9.6,72.2 L11.9,74.5 C13.5,76.1 16.1,76.1 17.8,74.5 L51.5,40.8 C53.1,39.2 53.1,36.5 51.5,34.9 L41.6,25.1 C39.9,23.4 37.2,23.5 35.6,25.1 Z M13.5,66.1 C11.6,66.1 10.1,64.6 10.1,62.7 C10.1,60.8 11.6,59.3 13.5,59.3 C15.4,59.3 16.9,60.8 16.9,62.7 C16.9,64.5 15.3,66.1 13.5,66.1 Z" id="Shape" fill="#4988FD"></path>
            <path d="M108.3,25.1 L98.8,34.8 C97.2,36.4 97.2,39 98.8,40.6 L132.5,74.3 C134.1,75.9 136.7,75.9 138.4,74.3 L148.1,64.5 C149.7,62.9 149.7,60.2 148.1,58.6 L114.2,24.9 C112.6,23.5 109.9,23.5 108.3,25.1 Z M136.9,66.1 C135,66.1 133.5,64.6 133.5,62.7 C133.5,60.8 135,59.3 136.9,59.3 C138.8,59.3 140.3,60.8 140.3,62.7 C140.3,64.5 138.7,66.1 136.9,66.1 Z" id="Shape" fill="#4988FD"></path>
            <path d="M77.4,6.7 C76.3,6.7 75.3,5.8 75.3,4.6 L75.3,2.2 C75.3,1.1 76.2,0.1 77.4,0.1 C78.6,0.1 79.5,1 79.5,2.2 L79.5,4.6 C79.4,5.8 78.5,6.7 77.4,6.7 Z" id="Shape" fill="#6097FD"></path>
            <path d="M77.4,28.9 C76.3,28.9 75.3,28 75.3,26.8 L75.3,11.6 C75.3,10.5 76.2,9.5 77.4,9.5 C78.6,9.5 79.5,10.4 79.5,11.6 L79.5,26.8 C79.4,28 78.5,28.9 77.4,28.9 Z" id="Shape" fill="#6097FD"></path>
            <path d="M98.2,18 C97.8,18 97.4,17.9 97.1,17.7 C96.1,17.1 95.8,15.8 96.4,14.9 L104.9,1.2 C105.5,0.2 106.8,-0.1 107.7,0.5 C108.7,1.1 109,2.4 108.4,3.3 L99.9,17 C99.5,17.7 98.9,18 98.2,18 Z" id="Shape" fill="#6097FD"></path>
            <path d="M91.4,28.9 C91,28.9 90.6,28.8 90.3,28.6 C89.3,28 89,26.7 89.6,25.8 L92.6,21 C93.2,20 94.5,19.7 95.4,20.3 C96.4,20.9 96.7,22.2 96.1,23.1 L93.1,27.9 C92.7,28.6 92,28.9 91.4,28.9 Z" id="Shape" fill="#6097FD"></path>
            <path d="M63.4,28.9 C62.7,28.9 62,28.6 61.7,27.9 L52.9,13.9 C52.3,12.9 52.6,11.7 53.6,11.1 C54.6,10.5 55.8,10.8 56.4,11.8 L65.2,25.8 C65.8,26.8 65.5,28 64.5,28.6 C64.1,28.8 63.8,28.9 63.4,28.9 Z" id="Shape" fill="#6097FD"></path>
        </g>
    </g>
</svg>