<?xml version="1.0" encoding="UTF-8"?>
<svg width="98px" height="147px" viewBox="0 0 98 147" version="1.1" xmlns="http://www.w3.org/2000/svg" xmlns:xlink="http://www.w3.org/1999/xlink">
    <!-- Generator: Sketch 51.2 (57519) - http://www.bohemiancoding.com/sketch -->
    <title>Pay_with_cash</title>
    <desc>Created with Sketch.</desc>
    <defs></defs>
    <g id="Page-1" stroke="none" stroke-width="1" fill="none" fill-rule="evenodd">
        <g id="Pay_with_cash" fill-rule="nonzero">
            <g id="Group">
                <path d="M97.1,6.6 L97.1,113.9 C97.1,117.1 94.5,119.7 91.3,119.7 L44.8,119.7 C41.6,119.7 39,117.1 39,113.9 L39,6.6 C39,3.4 41.6,0.8 44.8,0.8 L91.3,0.8 C94.5,0.8 97.1,3.4 97.1,6.6 Z" id="Shape" fill="#3973F4"></path>
                <path d="M46.8,110.1 L46.8,14.3 C49.8,14.3 52.3,11.9 52.3,8.8 L84.2,8.8 C84.2,11.8 86.6,14.3 89.7,14.3 L89.7,104.6 C86.7,104.6 84.2,107 84.2,110.1 L46.8,110.1" id="Shape" fill="#6097FD"></path>
                <ellipse id="Oval" fill="#3973F4" cx="68" cy="58.2" rx="15.8" ry="13.7"></ellipse>
                <path d="M67.8,97.9 C66.1,97.9 64.8,96.6 64.8,94.9 L64.8,87.4 C64.8,85.7 66.1,84.4 67.8,84.4 C69.5,84.4 70.8,85.7 70.8,87.4 L70.8,94.9 C70.8,96.5 69.4,97.9 67.8,97.9 Z" id="Shape" fill="#3973F4"></path>
                <path d="M67.8,35.2 C66.1,35.2 64.8,33.9 64.8,32.2 L64.8,24.8 C64.8,23.1 66.1,21.8 67.8,21.8 C69.5,21.8 70.8,23.1 70.8,24.8 L70.8,32.2 C70.8,33.9 69.4,35.2 67.8,35.2 Z" id="Shape" fill="#3973F4"></path>
                <path d="M39,46.8 L39,74.1 C25.7,88.9 27.3,85.1 26.5,99.5 C26.4,100.7 27.2,101.9 28.4,102.2 L38.2,105.1 C39.6,105.5 41.1,105 41.8,103.1 C43.7,98.5 42.3,102 49,85.8 C49.4,84.9 49.9,84.1 50.4,83.3 C53.4,79.5 58.7,78.1 63.3,80.2 C65.2,81.1 66.3,83 66.3,85 C66.3,85.6 66.2,86.1 66,86.7 C48.2,138.4 54.3,127.8 34.9,145.3 C33,147 32.6,145.7 3.7,146 C1.8,146 0.2,144.5 0.2,142.5 L0.2,91.2 C0.2,87 1.9,83 4.9,80 L39,46.8 Z" id="Shape" fill="#C5DCFA"></path>
            </g>
        </g>
    </g>
</svg>