<?xml version="1.0" encoding="UTF-8"?>
<svg width="148px" height="103px" viewBox="0 0 148 103" version="1.1" xmlns="http://www.w3.org/2000/svg" xmlns:xlink="http://www.w3.org/1999/xlink">
    <!-- Generator: Sketch 51.2 (57519) - http://www.bohemiancoding.com/sketch -->
    <title>Pay_with_card</title>
    <desc>Created with Sketch.</desc>
    <defs></defs>
    <g id="Page-1" stroke="none" stroke-width="1" fill="none" fill-rule="evenodd">
        <g id="Pay_with_card" fill-rule="nonzero">
            <path d="M147.6,49.3 L147.6,96.1 C147.6,99.6 144.8,102.4 141.3,102.4 L61,102.4 C57.5,102.4 54.7,99.6 54.7,96.1 L54.7,49.3 C54.7,45.8 57.5,43 61,43 L141.3,43 C144.8,43 147.6,45.9 147.6,49.3 Z" id="Shape" fill="#4988FD"></path>
            <rect id="Rectangle-path" fill="#3973F4" x="54.8" y="77.8" width="92.9" height="11"></rect>
            <path d="M112.1,43.1 L82.5,43.1 L71.3,33.1 C69.3,31.3 66.7,30.2 64,30 L55,29.5 C53.7,29.4 52.4,30.3 52.1,31.6 L49,42.2 C48.5,43.7 49.3,45.4 50.8,46 L51.2,46.1 L55,47.7 L70,53.9 C71,54.3 71.9,54.8 72.7,55.5 C76.8,58.7 78.4,64.5 76,69.4 C75,71.5 73,72.7 70.8,72.7 C70.2,72.7 69.6,72.6 68.9,72.4 L50,65.9 L26.5,57.8 C22.7,56.5 19.4,54.3 16.7,51.3 L9.1,42.9 L5.3,38.6 C4.7,37.9 4.3,37 4.3,36 C4.4,30.7 4.5,12.7 4.5,4.7 C4.5,2.6 6.2,0.9 8.3,0.9 L63.9,0.9 C68.5,0.9 72.8,2.7 76,6 L112.1,43.1 Z" id="Shape" fill="#C5DCFA"></path>
            <path d="M16.6,81.6 L13.7,81.6 C12.9,81.6 12.2,80.9 12.2,80.1 C12.2,79.3 12.9,78.6 13.7,78.6 L16.6,78.6 C17.4,78.6 18.1,79.3 18.1,80.1 C18.1,80.9 17.4,81.6 16.6,81.6 Z" id="Shape" fill="#C5DCFA"></path>
            <path d="M40.5,81.6 L22.6,81.6 C21.8,81.6 21.1,80.9 21.1,80.1 C21.1,79.3 21.8,78.6 22.6,78.6 L40.5,78.6 C41.3,78.6 42,79.3 42,80.1 C42,80.9 41.3,81.6 40.5,81.6 Z" id="Shape" fill="#C5DCFA"></path>
            <path d="M13.6,91.7 L1.6,91.7 C0.8,91.7 0.1,91 0.1,90.2 C0.1,89.4 0.8,88.7 1.6,88.7 L13.6,88.7 C14.4,88.7 15.1,89.4 15.1,90.2 C15.1,91 14.4,91.7 13.6,91.7 Z" id="Shape" fill="#C5DCFA"></path>
            <path d="M40.5,91.7 L22.2,91.7 C21.4,91.7 20.7,91 20.7,90.2 C20.7,89.4 21.4,88.7 22.2,88.7 L40.5,88.7 C41.3,88.7 42,89.4 42,90.2 C42,91 41.3,91.7 40.5,91.7 Z" id="Shape" fill="#C5DCFA"></path>
        </g>
    </g>
</svg>