<?xml version="1.0" encoding="UTF-8"?>
<svg width="143px" height="146px" viewBox="0 0 143 146" version="1.1" xmlns="http://www.w3.org/2000/svg" xmlns:xlink="http://www.w3.org/1999/xlink">
    <!-- Generator: Sketch 51.2 (57519) - http://www.bohemiancoding.com/sketch -->
    <title>PDF_File</title>
    <desc>Created with Sketch.</desc>
    <defs></defs>
    <g id="Page-1" stroke="none" stroke-width="1" fill="none" fill-rule="evenodd">
        <g id="PDF_File">
            <path d="M141.2,36.1 L142.4,139.5 C142.4,143 139.6,145.8 136.1,145.8 L35.6,145.8 C32.1,145.8 29.3,143 29.3,139.5 L29.3,6.6 C29.3,3.1 32.1,0.3 35.6,0.3 L108.5,0.3 L141.2,36.1 Z" id="Shape" fill="#DFECFD" fill-rule="nonzero"></path>
            <path d="M123.8,107.4 L63.5,107.4 C62.7,107.4 62,106.7 62,105.9 C62,105.1 62.7,104.4 63.5,104.4 L123.8,104.4 C124.6,104.4 125.3,105.1 125.3,105.9 C125.3,106.7 124.6,107.4 123.8,107.4 Z" id="Shape" fill="#C5DCFA" fill-rule="nonzero"></path>
            <path d="M56.1,107.4 L45.5,107.4 C44.7,107.4 44,106.7 44,105.9 C44,105.1 44.7,104.4 45.5,104.4 L56.1,104.4 C56.9,104.4 57.6,105.1 57.6,105.9 C57.6,106.7 56.9,107.4 56.1,107.4 Z" id="Shape" fill="#C5DCFA" fill-rule="nonzero"></path>
            <path d="M123.6,91.1 L96.7,91.1 C95.9,91.1 95.2,90.4 95.2,89.6 C95.2,88.8 95.9,88.1 96.7,88.1 L123.6,88.1 C124.4,88.1 125.1,88.8 125.1,89.6 C125.1,90.4 124.4,91.1 123.6,91.1 Z" id="Shape" fill="#C5DCFA" fill-rule="nonzero"></path>
            <path d="M85.3,91.1 L46,91.1 C45.2,91.1 44.5,90.4 44.5,89.6 C44.5,88.8 45.2,88.1 46,88.1 L85.3,88.1 C86.1,88.1 86.8,88.8 86.8,89.6 C86.8,90.4 86.1,91.1 85.3,91.1 Z" id="Shape" fill="#C5DCFA" fill-rule="nonzero"></path>
            <path d="M124.1,74.9 L113.7,74.9 C112.9,74.9 112.2,74.2 112.2,73.4 C112.2,72.6 112.9,71.9 113.7,71.9 L124.1,71.9 C124.9,71.9 125.6,72.6 125.6,73.4 C125.6,74.2 125,74.9 124.1,74.9 Z" id="Shape" fill="#C5DCFA" fill-rule="nonzero"></path>
            <path d="M104,74.9 L46.5,74.9 C45.7,74.9 45,74.2 45,73.4 C45,72.6 45.7,71.9 46.5,71.9 L104,71.9 C104.8,71.9 105.5,72.6 105.5,73.4 C105.5,74.2 104.9,74.9 104,74.9 Z" id="Shape" fill="#C5DCFA" fill-rule="nonzero"></path>
            <path d="M78.1,125.2 L74.5,125.2 C73.7,125.2 73,124.5 73,123.7 C73,122.9 73.7,122.2 74.5,122.2 L78.1,122.2 C78.9,122.2 79.6,122.9 79.6,123.7 C79.6,124.5 79,125.2 78.1,125.2 Z" id="Shape" fill="#C5DCFA" fill-rule="nonzero"></path>
            <path d="M67.9,125.2 L46.5,125.2 C45.7,125.2 45,124.5 45,123.7 C45,122.9 45.7,122.2 46.5,122.2 L67.9,122.2 C68.7,122.2 69.4,122.9 69.4,123.7 C69.4,124.5 68.8,125.2 67.9,125.2 Z" id="Shape" fill="#C5DCFA" fill-rule="nonzero"></path>
            <path d="M124.7,58.6 L87.6,58.6 C86.8,58.6 86.1,57.9 86.1,57.1 C86.1,56.3 86.8,55.6 87.6,55.6 L124.7,55.6 C125.5,55.6 126.2,56.3 126.2,57.1 C126.2,57.9 125.5,58.6 124.7,58.6 Z" id="Shape" fill="#C5DCFA" fill-rule="nonzero"></path>
            <path d="M75.7,58.6 L47.1,58.6 C46.3,58.6 45.6,57.9 45.6,57.1 C45.6,56.3 46.3,55.6 47.1,55.6 L75.7,55.6 C76.5,55.6 77.2,56.3 77.2,57.1 C77.2,57.9 76.5,58.6 75.7,58.6 Z" id="Shape" fill="#C5DCFA" fill-rule="nonzero"></path>
            <path d="M95.8,21.9 L47.6,21.9 C46.5,21.9 45.6,21 45.6,19.9 C45.6,18.8 46.5,17.9 47.6,17.9 L95.8,17.9 C96.9,17.9 97.8,18.8 97.8,19.9 C97.8,21 96.9,21.9 95.8,21.9 Z" id="Shape" fill="#4988FD" fill-rule="nonzero"></path>
            <path d="M66,33.4 L47.6,33.4 C46.5,33.4 45.6,32.5 45.6,31.4 C45.6,30.3 46.5,29.4 47.6,29.4 L66,29.4 C67.1,29.4 68,30.3 68,31.4 C68,32.5 67.1,33.4 66,33.4 Z" id="Shape" fill="#4988FD" fill-rule="nonzero"></path>
            <path d="M108.4,0.3 L108.4,28.8 C108.4,32.7 111.9,36.1 115.8,36.1 L141.1,36.1" id="Shape" fill="#C5DCFA" fill-rule="nonzero"></path>
            <path d="M59.8,84.4 L6,84.4 C3.2,84.4 0.9,82.1 0.9,79.3 L0.9,54.8 C0.9,52 3.2,49.7 6,49.7 L59.8,49.7 C62.6,49.7 64.9,52 64.9,54.8 L64.9,79.3 C64.9,82.1 62.6,84.4 59.8,84.4 Z" id="Shape" fill="#4988FD" fill-rule="nonzero"></path>
            <text id="P" fill="#FFFFFF" font-family="Helvetica" font-size="20.9718" font-weight="normal">
                <tspan x="12.1641" y="74.4321">P</tspan>
            </text>
            <text id="D" fill="#FFFFFF" font-family="Helvetica" font-size="20.9718" font-weight="normal">
                <tspan x="27.1592" y="74.4321">D</tspan>
            </text>
            <text id="F" fill="#FFFFFF" font-family="Helvetica" font-size="20.9718" font-weight="normal">
                <tspan x="43.7725" y="74.4321">F</tspan>
            </text>
        </g>
    </g>
</svg>