<?xml version="1.0" encoding="UTF-8"?>
<svg width="150px" height="100px" viewBox="0 0 150 100" version="1.1" xmlns="http://www.w3.org/2000/svg" xmlns:xlink="http://www.w3.org/1999/xlink">
    <!-- Generator: Sketch 51.2 (57519) - http://www.bohemiancoding.com/sketch -->
    <title>Pen_tool</title>
    <desc>Created with Sketch.</desc>
    <defs></defs>
    <g id="Page-1" stroke="none" stroke-width="1" fill="none" fill-rule="evenodd">
        <g id="Pen_tool" fill-rule="nonzero">
            <path d="M57.5,39.3 L58.6,37.4" id="Shape" fill="#FFFFFF"></path>
            <path d="M75.8,14.7 L75.2,13.6 C74.5,12.4 72.9,12.2 72,13.2 C71.9,13.3 71.9,13.3 71.8,13.4 C71.8,13.4 71.8,13.4 71.8,13.4 C71.7,13.5 71.7,13.5 71.6,13.6 L70.8,15.1 L61,32.9 L60.8,33.3 L53.2,47.1 C47.3,57.9 46,59 47,61.2 C47.7,63 49.1,63 52.1,65.4 C52.1,65.4 52.1,65.4 52.1,65.4 C53.2,66 56.3,69.1 57.6,73 C57.6,73 57.6,73 57.6,73 C57.7,73.3 57.8,73.5 57.8,73.8 C57.8,73.8 57.9,74.2 58.1,74.8 C58.3,75.6 58.5,77.5 58.7,79.4 C58.7,80 58.8,80.7 58.8,81.3 L88,80.4 C88,80.1 88,79.7 88.1,79.4 C88.2,78.4 88.3,77.3 88.3,76.9 C88.3,76.9 88.6,75.2 88.7,74.8 C88.7,74.7 88.7,74.7 88.7,74.7 C88.7,74.7 89,73.3 89,73.3 C89.3,72.3 89.8,70.1 91.6,67.6 C94.5,63.6 97.7,63 98.8,61.8 C98.9,61.7 99.3,61.3 99.3,61.1 C99.5,60.8 99.7,60.2 99.7,60.1 C99.7,60.1 99.7,60.1 99.7,60.1 C100.2,58.3 99.9,58.5 75.8,14.7 Z M73.5,67.7 C69.5,67.7 66.3,64.5 66.3,60.5 C66.3,56.5 69.5,53.3 73.5,53.3 C77.5,53.3 80.7,56.5 80.7,60.5 C80.7,64.5 77.5,67.7 73.5,67.7 Z" id="Shape" fill="#4988FD"></path>
            <path d="M88.7,74.7 C88.6,75.1 88.3,76.8 88.3,76.8 C88.2,77.3 88.1,78.9 88,80.3 L58.8,81.2 C58.7,78.8 58.4,75.8 58.1,74.7 L88.7,74.7 Z" id="Shape" fill="#2767F4"></path>
            <path d="M75.8,14.7 L75.8,48.8 C75.8,50.2 74.7,51.3 73.3,51.3 C71.9,51.3 70.8,50.2 70.8,48.8 L70.8,15 L71.6,13.5 C71.6,13.4 71.7,13.3 71.8,13.3 C71.8,13.3 71.8,13.3 71.8,13.3 C71.9,13.2 71.9,13.2 72,13.1 C72.9,12.2 74.5,12.3 75.2,13.5 L75.8,14.7 Z" id="Shape" fill="#3973F4"></path>
            <path d="M149.1,59.3 L144,54.2 C141.6,47.5 138.2,41.2 133.9,35.5 C129.7,29.8 124.6,24.7 118.9,20.4 C113.7,16.5 108.1,13.4 102.3,11 L129.7,11 C130.6,13 132.7,14.4 135,14.4 C138.2,14.4 140.9,11.8 140.9,8.5 C140.9,5.3 138.3,2.6 135,2.6 C132.7,2.6 130.6,4 129.7,6 L82,6 C81.4,5.9 80.7,5.9 80.1,5.8 L75.3,1 C74.3,0 72.7,0 71.7,1 L66.8,6 L18.9,6 C17.9,4 15.9,2.6 13.6,2.6 C10.3,2.6 7.7,5.3 7.7,8.5 C7.7,11.8 10.4,14.4 13.6,14.4 C16,14.4 18.1,13 19,10.9 L47.2,10.9 C41.3,13.3 35.8,16.4 30.6,20.3 C19.2,28.9 10.4,40.9 5.5,54.2 L0.6,59.1 C-4.54747351e-13,59.7 -4.54747351e-13,60.6 0.6,61.2 L7.4,68 C7.7,68.3 8.1,68.4 8.5,68.4 C8.9,68.4 9.3,68.3 9.6,68 L16.4,61.2 C17,60.6 17,59.7 16.4,59.1 L11.1,53.8 C20.5,29.9 42.3,13.4 67.8,10.8 L72,15 C72.5,15.5 73.1,15.7 73.8,15.7 C74.5,15.7 75.1,15.4 75.6,15 L79.8,10.8 L82,10.8 C107.6,13.4 129.4,29.9 138.8,53.9 L133.6,59.1 C133,59.7 133,60.6 133.6,61.2 L140.4,68 C140.7,68.3 141.1,68.4 141.5,68.4 C141.9,68.4 142.3,68.3 142.6,68 L149.4,61.2 C149.6,60.9 149.6,59.9 149.1,59.3 Z M133.4,6.4 C133.8,6.1 134.4,5.9 135,5.9 C136.5,5.9 137.7,7.1 137.7,8.6 C137.7,10.1 136.5,11.3 135,11.3 C134.4,11.3 133.8,11.1 133.4,10.8 C132.7,10.3 132.3,9.5 132.3,8.7 C132.3,7.6 132.8,6.8 133.4,6.4 Z M14.7,11 C14.3,11.2 13.9,11.3 13.5,11.3 C12,11.3 10.8,10.1 10.8,8.6 C10.8,7.1 12,5.9 13.5,5.9 C13.8,5.9 14.2,6 14.5,6.1 C15.5,6.5 16.2,7.5 16.2,8.6 C16.2,9.6 15.6,10.5 14.7,11 Z M13,60.3 L8.3,65 L3.6,60.3 L4.4,59.5 L8.3,55.6 L9.7,57 L13,60.3 Z M75.4,11 L73.6,12.8 L71.8,11 L71.5,10.7 L68.9,8.1 L71,6 L71.3,5.7 L73.6,3.4 L75.8,5.6 L76.1,5.9 L78.2,8 L75.7,10.5 L75.4,11 Z M141.2,65.1 L136.5,60.4 L139.7,57.2 L141.2,55.7 L145,59.5 L145.9,60.4 L141.2,65.1 Z" id="Shape" fill="#1676EE"></path>
            <path d="M83,99.3 L56.1,99.3 C54.6,99.3 53.4,98.1 53.4,96.6 L53.4,89.6 L53.4,83.9 L53.4,82.2 C53.4,80.7 54.6,79.5 56.1,79.5 L90.6,79.5 C92.1,79.5 93.3,80.7 93.3,82.2 L93.3,96.6 C93.3,98.1 92.1,99.3 90.6,99.3 L89.5,99.3 L83,99.3 Z" id="Shape" fill="#3973F4"></path>
        </g>
    </g>
</svg>