<?xml version="1.0" encoding="UTF-8"?>
<svg width="146px" height="136px" viewBox="0 0 146 136" version="1.1" xmlns="http://www.w3.org/2000/svg" xmlns:xlink="http://www.w3.org/1999/xlink">
    <!-- Generator: Sketch 51.2 (57519) - http://www.bohemiancoding.com/sketch -->
    <title>Phone</title>
    <desc>Created with Sketch.</desc>
    <defs></defs>
    <g id="Page-1" stroke="none" stroke-width="1" fill="none" fill-rule="evenodd">
        <g id="Phone" fill-rule="nonzero">
            <path d="M100.5,74 C99.6,74 98.7,73.5 98.3,72.6 C90.6,57.1 75.2,46.4 58,44.8 C56.6,44.7 55.6,43.4 55.8,42.1 C55.9,40.7 57.2,39.7 58.5,39.9 C77.4,41.7 94.3,53.4 102.8,70.5 C103.4,71.7 102.9,73.2 101.7,73.8 C101.2,73.9 100.8,74 100.5,74 Z" id="Shape" fill="#6097FD"></path>
            <path d="M121,74.3 C120,74.3 119,73.6 118.6,72.6 C109.1,44.7 82.8,25.9 53.3,25.9 C51.9,25.9 50.4,25.9 49,26 C47.6,26.1 46.4,25 46.4,23.7 C46.3,22.3 47.4,21.1 48.7,21.1 C50.2,21 51.8,21 53.3,21 C85,21 113.1,41.1 123.4,71.1 C123.8,72.4 123.1,73.8 121.8,74.3 C121.5,74.3 121.2,74.3 121,74.3 Z" id="Shape" fill="#6097FD"></path>
            <path d="M143.3,77.6 C142.2,77.6 141.1,76.8 140.9,75.6 C131.9,34.9 95.1,5.3 53.4,5.3 C48.8,5.3 44.1,5.7 39.6,6.4 C38.2,6.6 37,5.7 36.7,4.3 C36.5,2.9 37.4,1.7 38.8,1.4 C43.6,0.7 48.5,0.3 53.3,0.3 C75,0.3 96.2,7.8 113,21.5 C129.6,35 141.2,53.8 145.7,74.5 C146,75.8 145.1,77.2 143.8,77.5 C143.6,77.6 143.4,77.6 143.3,77.6 Z" id="Shape" fill="#6097FD"></path>
            <g id="Group" transform="translate(0.000000, 35.000000)">
                <path d="M114.8,81.8 C114.5,82.6 114.1,83.4 113.6,84.1 C113.4,84.4 113.3,84.6 113.1,84.9 C109.3,91.1 103.6,96.5 96.5,98.9 C88.8,101.5 79.9,99.9 72.3,98 C48.2,91.9 29,79.2 15.1,59.8 C12.6,56.4 10.3,52.8 8.2,48.9 C5.7,44.5 3.7,39.9 2.3,35 C2,34.1 1.8,33.2 1.5,32.3 C-0.4,25 1.2,18.3 5.3,12.1 C6.8,9.9 8.4,7.9 10.1,5.9 C10.7,5.1 11.4,4.4 12.2,3.8 C12.3,3.7 12.4,3.7 12.4,3.6 C17,1.82254212e-12 23.3,-0.5 28.2,2.8 C33,6 37.5,9.5 41.9,13.3 C46.4,17.3 47.5,23.5 45.1,28.8 C45,29 45,29.2 44.9,29.3 C44.6,29.9 44.3,30.4 43.9,31 C42.7,32.7 41.4,34.3 40.1,36 C37.3,39.6 37.5,42.8 40.5,46.2 C47.9,54.4 56.7,60.8 66.4,66 C70,67.9 73.2,67.2 75.8,64 C77.1,62.4 78.4,60.7 79.7,59.1 C80.4,58.3 81.1,57.5 82,56.9 C86.7,53.3 93.2,52.9 98.2,56.4 C102.5,59.4 106.7,62.7 110.8,66 C115.7,70 117.2,76.4 114.8,81.8 Z" id="Shape" fill="#4988FD"></path>
                <path d="M45.2,28.9 C45.1,29.1 45.1,29.3 45,29.4 L12.5,3.6 C17.1,-9.09494702e-13 23.4,-0.5 28.3,2.8 C33.1,6 37.6,9.5 42,13.3 C46.5,17.3 47.5,23.5 45.2,28.9 Z" id="Shape" fill="#6097FD"></path>
            </g>
            <path d="M113.1,119.9 C112.6,120 111.5,122.2 111.2,122.7 C110.4,123.8 109.6,124.9 108.7,126 C107,127.9 105.2,129.7 103.1,131.1 C90.4,139.5 71.7,134 58.7,128.8 C41.4,121.8 26.1,110.1 15.2,94.9 C12.7,91.5 10.4,87.9 8.3,84 C5.8,79.6 3.8,75 2.4,70.1 C42.8,125.3 82.7,127.6 113.1,119.9 Z" id="Shape" fill="#3973F4"></path>
            <path d="M114.8,116.8 L82,91.9 C86.7,88.3 93.2,87.9 98.2,91.4 C102.5,94.4 106.7,97.6 110.8,101 C115.7,105.1 117.2,111.4 114.8,116.8 Z" id="Shape" fill="#6097FD"></path>
        </g>
    </g>
</svg>