<?xml version="1.0" encoding="UTF-8"?>
<svg width="141px" height="145px" viewBox="0 0 141 145" version="1.1" xmlns="http://www.w3.org/2000/svg" xmlns:xlink="http://www.w3.org/1999/xlink">
    <!-- Generator: Sketch 51.2 (57519) - http://www.bohemiancoding.com/sketch -->
    <title>Phone_1_</title>
    <desc>Created with Sketch.</desc>
    <defs></defs>
    <g id="Page-1" stroke="none" stroke-width="1" fill="none" fill-rule="evenodd">
        <g id="Phone_1_" fill-rule="nonzero">
            <g id="Group" transform="translate(33.000000, 77.000000)" fill="#2767F4">
                <path d="M16.3,8.2 C16.3,12.5 12.8,16 8.5,16 C6.4,16 4.4,15.1 3,13.8 C1.5,12.4 0.6,10.4 0.6,8.2 C0.6,3.9 4.1,0.4 8.4,0.4 C12.4,0.4 15.7,3.4 16.2,7.2 C16.3,7.5 16.3,7.9 16.3,8.2 Z" id="Shape"></path>
                <path d="M73.5,8.2 C73.5,12.5 70,16 65.7,16 C63.6,16 61.6,15.1 60.2,13.8 C58.7,12.4 57.8,10.4 57.8,8.2 C57.8,3.9 61.3,0.4 65.6,0.4 C69.6,0.4 72.9,3.4 73.4,7.2 C73.4,7.5 73.5,7.9 73.5,8.2 Z" id="Shape"></path>
                <path d="M44.9,33.8 C44.9,38.1 41.4,41.6 37.1,41.6 C35,41.6 33,40.7 31.6,39.4 C30.1,38 29.2,36 29.2,33.8 C29.2,29.5 32.7,26 37,26 C41,26 44.2,29 44.7,32.8 C44.9,33.1 44.9,33.5 44.9,33.8 Z" id="Shape"></path>
                <path d="M73.5,59.5 C73.5,63.8 70,67.3 65.7,67.3 C63.6,67.3 61.6,66.4 60.2,65.1 C58.7,63.7 57.8,61.7 57.8,59.5 C57.8,55.2 61.3,51.7 65.6,51.7 C69.6,51.7 72.9,54.7 73.4,58.5 C73.4,58.7 73.5,59.1 73.5,59.5 Z" id="Shape"></path>
            </g>
            <g id="Group" transform="translate(33.000000, 77.000000)" fill="#2767F4">
                <circle id="Oval" cx="37" cy="8.2" r="7.8"></circle>
                <circle id="Oval" cx="8.5" cy="33.8" r="7.8"></circle>
                <circle id="Oval" cx="65.6" cy="33.8" r="7.8"></circle>
                <circle id="Oval" cx="8.5" cy="59.5" r="7.8"></circle>
                <circle id="Oval" cx="37" cy="59.5" r="7.8"></circle>
            </g>
            <g id="Group">
                <g fill="#4988FD" id="Shape">
                    <path d="M1.6,52.5 C1.4,51.6 1.2,50.7 1.1,49.7 C1.1,49.4 1.1,49 1,48.7 C0.2,41 1.5,32.7 5.7,26 C10.5,18.4 18.8,14.1 26.8,10.5 C51.2,-0.4 75.9,-2.3 100.6,4.8 C105,6.1 109.3,7.6 113.7,9.4 C118.7,11.5 123.5,14.1 127.9,17.2 C128.7,17.8 129.5,18.4 130.3,19 C136.8,23.9 139.9,30.7 140.4,38.6 C140.6,41.4 140.5,44.2 140.5,47 C140.5,48.1 140.4,49.1 140.1,50.1 C138.7,56.3 133.7,61.1 127.1,61.6 C121,62.1 114.7,62.1 108.6,61.8 C102.1,61.4 97.1,56.9 95.6,50.8 C95.4,49.9 95.2,49 95.2,48.1 C95,45.9 95.1,43.6 95.1,41.4 C95,36.5 92.8,33.9 88,33.1 C76.3,31.1 64.6,31.5 53,33.6 C48.7,34.3 46.4,37.1 46.4,41.5 C46.4,43.7 46.4,46 46.4,48.2 C46.4,49.4 46.2,50.5 45.9,51.6 C44.3,57.8 39.1,62.4 32.5,62.8 C26.8,63.1 21.1,63.2 15.5,63 C8.7,63 3.3,58.6 1.6,52.5 Z"></path>
                </g>
                <path d="M1.1,48.7 C1.6,48.1 0.9,44.2 0.9,43.3 C0.9,41.3 1.1,39.2 1.4,37.2 C3.6,23.4 14.9,16 26.9,10.6 C51.3,-0.3 76,-2.2 100.7,4.9 C105.1,6.2 109.4,7.7 113.8,9.5 C118.8,11.6 123.6,14.2 128,17.3 C56.9,-2.5 21.7,22.1 1.1,48.7 Z" id="Shape" fill="#2767F4"></path>
                <path d="M95.7,51 L140.2,50.3 C138.8,56.5 133.8,61.3 127.2,61.8 C121.1,62.3 114.8,62.3 108.7,62 C102.2,61.6 97.2,57.1 95.7,51 Z" id="Shape" fill="#6097FD"></path>
                <path d="M1.6,52.5 L45.9,51.8 C44.3,58 39.1,62.6 32.5,63 C26.8,63.3 21.1,63.4 15.5,63.2 C8.7,63 3.3,58.6 1.6,52.5 Z" id="Shape" fill="#6097FD"></path>
            </g>
        </g>
    </g>
</svg>