<?xml version="1.0" encoding="UTF-8"?>
<svg width="139px" height="145px" viewBox="0 0 139 145" version="1.1" xmlns="http://www.w3.org/2000/svg" xmlns:xlink="http://www.w3.org/1999/xlink">
    <!-- Generator: Sketch 51.2 (57519) - http://www.bohemiancoding.com/sketch -->
    <title>Piggybank</title>
    <desc>Created with Sketch.</desc>
    <defs></defs>
    <g id="Page-1" stroke="none" stroke-width="1" fill="none" fill-rule="evenodd">
        <g id="Piggybank">
            <path d="M138.7,83.6 C138.7,82.8 138.7,82.1 138.6,81.5 C137.7,74.9 132.1,79.6 126.8,76.5 C125.8,75.9 124.9,75.1 123.9,73.9 C118,66.1 110.4,60.5 116.8,47.7 C117.1,47.2 117.4,46.6 117.7,46.1 C117.7,46.1 117.7,46.1 117.7,46.1 C118.4,44.8 117.3,43.3 115.9,43.4 C115.8,43.4 115.8,43.4 115.7,43.4 C104.3,45.1 105.2,49.9 98,49.8 C88.9,49.7 69.6,49.8 53.7,49.8 C25.2,49.7 9.9,79.9 24,102.4 C31.8,114.9 38.4,128 42.4,142.2 C42.9,144 43.7,144.4 45.8,144.4 C47.3,144.4 49.4,144.3 52.4,144.4 C54.1,144.4 55,143.6 55.5,142.1 C56.4,139.2 57.4,136.3 58.3,133.4 C58.9,131.3 60.2,130.3 62.4,130.4 C68.6,130.6 74.9,130.7 81.1,130.9 C84,131 86,132.5 87.1,135.1 C87.2,135.3 87.3,135.5 87.4,135.8 C88.1,137.9 88.8,140 89.5,142.1 C90,143.9 91.1,144.7 93,144.7 L93.1,144.7 C102,144.5 102.5,145.4 103.7,141.3 C105.5,135 107.3,128.8 109.1,122.5 C112.1,111.9 120.6,115.4 137.4,99.2 C139.2,97.3 138.8,94.6 138.7,83.6 Z M107.5,80.5 C107.1,80.5 106.7,80.4 106.3,80.3 C104,79.7 102.3,77.6 102.3,75.2 C102.3,72.4 104.6,70.2 107.4,70.1 C109.9,70.1 112,71.8 112.5,74.1 C112.6,74.5 112.6,74.9 112.6,75.2 C112.8,78.1 110.4,80.5 107.5,80.5 Z" id="Shape" fill="#4988FD" fill-rule="nonzero"></path>
            <path d="M113.5,114.5 C113.3,114.1 112.8,113.9 112.4,114.1 C88.4,123.2 59.8,123.9 41.4,115.2 C39.9,114.5 38,114.8 36.9,116 C35.7,117.2 35.5,119.1 36.3,120.6 C39,125.7 41.7,131.7 44.2,139.2 C44.5,140 44.8,140.9 45,141.7 C45.2,142.5 45.5,143.4 45.8,144.2 C47.3,144.2 49.4,144.1 52.4,144.2 C54.1,144.2 55,143.4 55.5,141.9 C56.4,139 57.4,136.1 58.3,133.2 C58.9,131.2 60.2,130.1 62.4,130.2 C68.6,130.4 74.9,130.5 81.1,130.7 C84,130.8 86,132.3 87.1,134.9 C87.8,137.1 88.2,138.8 88.8,140.2 C88.8,140.2 88.8,140.2 88.8,140.3 C89,140.8 89.2,141.2 89.5,141.7 C89.5,141.7 89.5,141.7 89.5,141.8 C90.2,142.9 91.2,143.8 92.8,144.7 C98.8,144.7 101.1,144.9 102.2,144 C102.3,144 102.3,143.9 102.3,143.9 L102.4,143.8 C102.5,143.7 102.5,143.7 102.6,143.6 C102.8,143.4 102.9,143.1 103,142.8 C103.1,142.5 103.3,142.1 103.4,141.6 C103.4,141.5 103.5,141.4 103.5,141.3 C103.9,140 104.2,138.8 104.5,137.6 C105.9,132.7 107.3,127.8 108.7,123 C108.7,123 108.7,122.9 108.7,122.9 C108.7,122.8 108.8,122.6 108.8,122.5 C109.2,121.1 109.7,120 110.2,119 L110.3,118.9 C111.1,117.6 112,116.6 113.1,115.8 C113.6,115.4 113.7,114.9 113.5,114.5 Z" id="Shape" fill="#DDECFE" fill-rule="nonzero"></path>
            <path d="M112.7,75.2 C112.7,78.1 110.3,80.5 107.5,80.5 C106.1,80.5 104.8,79.9 103.9,79 C102.9,78 102.3,76.7 102.3,75.3 C102.3,72.5 104.6,70.3 107.4,70.2 C110.1,70.1 112.3,72.1 112.6,74.7 C112.7,74.8 112.7,75 112.7,75.2 Z" id="Shape" fill="#FFFFFF" fill-rule="nonzero"></path>
            <path d="M112.7,75.2 C112.7,78.1 110.3,80.5 107.5,80.5 C106.1,80.5 104.8,79.9 103.9,79 C103.9,78.8 103.9,78.6 103.9,78.3 C103.9,75.5 106.2,73.3 109,73.2 C110.4,73.2 111.8,73.7 112.7,74.6 C112.7,74.8 112.7,75 112.7,75.2 Z" id="Shape" fill="#C5DCFA" fill-rule="nonzero"></path>
            <path d="M113.2,115.7 C111.9,116.7 111.1,117.5 110.4,118.8 L110.3,118.9 C109.9,119.7 109.5,120.6 109,121.9 C108.9,122.2 108.8,122.5 108.7,122.8 C108.7,122.8 108.7,122.9 108.7,122.9 C107.7,125.9 106.5,130.4 104.5,137.5 C104.2,138.6 103.8,139.9 103.5,141.2 C103.5,141.3 103.4,141.4 103.4,141.5 C103.3,142 103.1,142.4 103,142.7 C102.9,143 102.7,143.3 102.6,143.5 L102.4,143.7 L102.3,143.8 C102.3,143.8 102.2,143.9 102.2,143.9 C101.1,144.8 98.8,144.6 92.8,144.6 C91.6,144.5 90.4,143.4 89.5,141.7 C89.5,141.7 89.5,141.7 89.5,141.6 C89.3,141.2 89,140.7 88.8,140.2 C88.8,140.2 88.8,140.2 88.8,140.1 C88.1,138.6 87.5,136.8 87.1,134.8 C86,132.2 84,130.7 81.1,130.6 C74.9,130.4 68.6,130.3 62.4,130.1 C60.2,130 59,131.1 58.3,133.1 C57.4,136 56.4,138.9 55.5,141.8 C55,143.3 54.1,144.1 52.4,144.1 C49.3,144 47.2,144.2 45.8,144.1 C45.5,143.2 45.3,142.4 45,141.6 C44.7,140.7 44.5,139.9 44.2,139.1 C41.7,131.6 38.9,125.6 36.3,120.5 C35.5,119 35.8,117.2 36.9,115.9 C38.1,114.7 39.9,114.3 41.4,115.1 C59.8,123.8 88.5,123.1 112.4,114 C112.8,113.8 113.3,114 113.5,114.4 C113.7,114.9 113.6,115.4 113.2,115.7 Z" id="Shape" fill="#4079F7" fill-rule="nonzero"></path>
            <path d="M61.4,49.8 C61.8,49.8 62.2,49.8 62.6,49.8" id="Shape" stroke="#1676EE" stroke-width="3" stroke-linecap="round" stroke-linejoin="round"></path>
            <path d="M88.2,58.7 C90,58.9 91.6,59.2 93,59.5 C94.9,59.9 96.1,61.8 95.7,63.8 C95.3,65.7 93.4,66.9 91.4,66.5 C82.9,64.6 63.7,64 54.2,67.4 C53.8,67.5 53.4,67.6 53,67.6 C51.5,67.6 50.2,66.7 49.7,65.3 C49,63.5 50,61.4 51.8,60.7 C57.3,58.7 65.5,57.9 73.4,57.8" id="Shape" fill="#3973F4" fill-rule="nonzero"></path>
            <path d="M77.8,57.7 L78,57.7" id="Shape" stroke="#1676EE" stroke-width="3" fill="#96C5FF" fill-rule="nonzero" stroke-linecap="round" stroke-linejoin="round"></path>
            <path d="M8,80.5 C6.2,80.5 4.5,80 3.2,79.1 C1,77.6 -0.2,75 0.3,72.6 C0.5,71.5 1.5,70.8 2.6,71 C3.7,71.2 4.4,72.2 4.2,73.3 C4,74.2 4.6,75.2 5.4,75.8 C6.3,76.4 7.5,76.6 8.8,76.5 C7.2,75.3 6.4,73.6 6.6,71.8 C6.7,70.6 7.3,69.5 8.3,68.7 C9.3,67.9 10.7,67.5 11.9,67.6 C14.2,67.9 16.1,69.8 16.5,72.1 C16.6,72.9 16.6,73.8 16.4,74.6 C17.5,74.8 18.6,75 19.6,75.2 C20.7,75.4 21.4,76.4 21.3,77.5 C21.1,78.6 20.1,79.3 19,79.2 C17.4,78.9 15.8,78.7 14.1,78.3 C12.9,79.3 11.3,80 9.6,80.3 C9.1,80.5 8.6,80.5 8,80.5 Z M11.4,71.6 C11.2,71.6 11,71.7 10.8,71.8 C10.7,71.9 10.6,72.1 10.6,72.2 C10.6,72.5 10.9,73 11.4,73.3 C11.7,73.5 12.2,73.7 12.6,73.8 C12.7,73.5 12.7,73.1 12.7,72.8 C12.6,72.3 12,71.7 11.4,71.6 C11.5,71.6 11.5,71.6 11.4,71.6 Z" id="Shape" fill="#4988FD" fill-rule="nonzero"></path>
            <g id="Group" transform="translate(50.000000, 0.000000)" fill-rule="nonzero">
                <path d="M23.3,24.9 C10.8,24.9 0.7,35 0.7,47.5 C0.7,55.2 4.6,62 10.4,66.1 C18.5,64.8 29,65 36.4,65.9 C42.1,61.8 45.8,55.1 45.8,47.5 C45.9,35 35.7,24.9 23.3,24.9 Z M25.5,57.6 L25.5,58.9 C25.5,59.9 24.7,60.8 23.6,60.8 C22.6,60.8 21.7,60 21.7,58.9 L21.7,57.8 C20.6,57.7 19.6,57.4 18.7,57 C17.8,56.6 17.3,55.5 17.7,54.5 C18,53.7 18.7,53.2 19.6,53.2 C19.9,53.2 20.2,53.3 20.4,53.4 C21,53.7 22,54 23.1,54 C24.5,54 25.5,53.3 25.5,52.2 C25.5,51.3 25.1,50.6 22.9,49.7 C20.3,48.7 17.5,47.2 17.5,43.8 C17.5,41.2 19.2,39.1 21.8,38.4 L21.8,37.2 C21.8,36.2 22.6,35.3 23.7,35.3 C24.8,35.3 25.6,36.1 25.6,37.2 L25.6,38.2 C26.4,38.3 27.2,38.5 27.8,38.8 C28.8,39.2 29.3,40.4 28.9,41.4 C28.6,42.2 27.9,42.7 27,42.7 C26.7,42.7 26.5,42.6 26.2,42.5 C25.5,42.2 24.7,42.1 23.9,42.1 C22,42.1 21.9,43.2 21.9,43.6 C21.9,44.4 22.3,44.9 24.8,45.9 C27.2,46.9 29.9,48.4 29.9,52.1 C30,54.6 28.2,56.8 25.5,57.6 Z" id="Shape" fill="#C5DCFA"></path>
                <path d="M24.9,45.7 C22.4,44.7 22,44.1 22,43.4 C22,43.1 22.1,41.9 24,41.9 C24.8,41.9 25.6,42 26.3,42.3 C26.5,42.4 26.8,42.5 27.1,42.5 C27.9,42.5 28.7,42 29,41.2 C29.4,40.2 28.9,39 27.9,38.6 C27.2,38.3 26.5,38.1 25.7,38 L25.7,37 C25.7,36 24.9,35.1 23.8,35.1 C22.7,35.1 21.9,35.9 21.9,37 L21.9,38.2 C19.2,38.9 17.6,41 17.6,43.6 C17.6,46.9 20.3,48.5 23,49.5 C25.2,50.4 25.6,51.1 25.6,52 C25.6,53.1 24.6,53.8 23.2,53.8 C22,53.8 21.1,53.5 20.5,53.2 C20.2,53.1 20,53 19.7,53 C18.9,53 18.1,53.5 17.8,54.3 C17.4,55.3 17.9,56.4 18.8,56.8 C19.7,57.2 20.7,57.5 21.8,57.6 L21.8,58.7 C21.8,59.7 22.6,60.6 23.7,60.6 C24.7,60.6 25.6,59.8 25.6,58.7 L25.6,57.4 C28.3,56.6 30.1,54.4 30.1,51.7 C30,48.3 27.3,46.7 24.9,45.7 Z" id="Shape" fill="#FFFFFF"></path>
                <path d="M41.7,6.5 C41.7,5.4 40.8,4.5 39.7,4.5 C38.6,4.5 37.7,5.4 37.7,6.5 L37.7,10.2 C37.7,11.3 38.6,12.2 39.7,12.2 C40.8,12.2 41.7,11.3 41.7,10.2 L41.7,6.5 Z" id="Shape" fill="#C5DCFA"></path>
                <path d="M39.7,15.9 C38.6,15.9 37.7,16.8 37.7,17.9 L37.7,25.1 C37.7,26.2 38.6,27.1 39.7,27.1 C40.8,27.1 41.7,26.2 41.7,25.1 L41.7,17.9 C41.7,16.8 40.8,15.9 39.7,15.9 Z" id="Shape" fill="#C5DCFA"></path>
                <path d="M34.1,21.9 C35.2,21.9 36.1,21 36.1,19.9 L36.1,2.1 C36.1,1 35.2,0.1 34.1,0.1 C33,0.1 32.1,1 32.1,2.1 L32.1,19.9 C32.1,21 33,21.9 34.1,21.9 Z" id="Shape" fill="#C5DCFA"></path>
            </g>
        </g>
    </g>
</svg>