<?xml version="1.0" encoding="UTF-8"?>
<svg width="121px" height="104px" viewBox="0 0 121 104" version="1.1" xmlns="http://www.w3.org/2000/svg" xmlns:xlink="http://www.w3.org/1999/xlink">
    <!-- Generator: Sketch 51.2 (57519) - http://www.bohemiancoding.com/sketch -->
    <title>Pinch</title>
    <desc>Created with Sketch.</desc>
    <defs></defs>
    <g id="Page-1" stroke="none" stroke-width="1" fill="none" fill-rule="evenodd">
        <g id="Pinch" fill-rule="nonzero">
            <path d="M80.6,10.8 C84.1,9 88.4,10.3 90.6,13.6 L117.7,54.9 C123.7,64 121.1,76.3 112,82.2 L84.6,100.2 C81.8,102 78.5,102.8 75.2,102.4 C64,100.9 52.8,99.5 41.8,97.1 C33.1,95.2 24.6,92.5 15.9,90.7 C15,90.5 14.2,90.3 13.3,90.1 C11.8,89.8 10.6,88.5 10.4,86.9 C10,83.7 13.5,82.2 15.9,81.3 C18.8,80.2 22,79.8 25.1,80.2 L47.3,82.9 L49.7,81.3 L11.4,22.8 C9,19.1 9.7,14 13.3,11.5 C17,8.9 22.2,9.9 24.7,13.7 L43.5,42.4 L45.8,40.9 L39.7,31.6 C37.3,27.9 38,22.8 41.6,20.3 C45.3,17.7 50.5,18.7 53,22.5 L59.3,32.2 L61.9,30.5 L59,26 C56.7,22.6 57.4,17.8 60.8,15.5 C64.3,13.1 69.1,14 71.4,17.5 L74.6,22.3 L77.4,20.5 C75.7,17 77,12.7 80.6,10.8 Z" id="Shape" fill="#DFECFD"></path>
            <path d="M9.4,32.7 C8.9,32.7 8.4,32.6 8,32.3 C2.3,28.3 -0.5,21.4 0.9,14.6 C1.8,10.1 4.5,6.2 8.3,3.7 C12.1,1.2 16.8,0.3 21.3,1.2 C28.1,2.6 33.4,8 34.7,14.8 C35,16.2 34.1,17.5 32.7,17.7 C31.3,18 30,17.1 29.8,15.7 C28.9,10.8 25.1,7 20.3,6 C17.1,5.3 13.8,5.9 11.1,7.7 C8.4,9.5 6.5,12.2 5.8,15.4 C4.8,20.2 6.8,25.2 10.8,28 C11.9,28.8 12.2,30.3 11.4,31.5 C11,32.3 10.2,32.7 9.4,32.7 Z" id="Shape" fill="#6097FD"></path>
            <path d="M17.8,103.4 C12.3,103.4 7,100.8 3.6,96 C1,92.2 -1.14130927e-13,87.6 0.8,83.1 C1.6,78.6 4.1,74.6 7.9,72 C13.8,67.9 21.8,67.9 27.7,72 C28.8,72.8 29.1,74.4 28.3,75.5 C27.5,76.6 25.9,76.9 24.8,76.1 C20.6,73.2 15,73.1 10.7,76.1 C8,78 6.2,80.8 5.6,84 C5,87.2 5.7,90.5 7.6,93.2 C11,98.1 17.4,99.8 22.7,97.3 C24,96.7 25.4,97.3 26,98.5 C26.6,99.8 26,101.2 24.8,101.8 C22.6,102.9 20.2,103.4 17.8,103.4 Z" id="Shape" fill="#6097FD"></path>
            <path d="M14.6,55.6 L13.6,56.6 L13.6,45.7 L14.6,46.7 C15.6,47.7 17.2,47.7 18.1,46.7 C19.1,45.7 19.1,44.1 18.1,43.2 L12.8,37.9 C11.8,36.9 10.2,36.9 9.3,37.9 L4,43.2 C3,44.2 3,45.8 4,46.7 C4.5,47.2 5.1,47.4 5.8,47.4 C6.5,47.4 7.1,47.2 7.6,46.7 L8.6,45.7 L8.6,56.6 L7.6,55.6 C6.6,54.6 5,54.6 4.1,55.6 C3.1,56.6 3.1,58.2 4.1,59.1 L9.4,64.4 C9.9,64.9 10.5,65.1 11.2,65.1 C11.9,65.1 12.5,64.9 13,64.4 L18.3,59.1 C19.3,58.1 19.3,56.5 18.3,55.6 C17.2,54.6 15.6,54.6 14.6,55.6 Z" id="Shape" fill="#3973F4"></path>
        </g>
    </g>
</svg>