<?xml version="1.0" encoding="UTF-8"?>
<svg width="150px" height="69px" viewBox="0 0 150 69" version="1.1" xmlns="http://www.w3.org/2000/svg" xmlns:xlink="http://www.w3.org/1999/xlink">
    <!-- Generator: Sketch 51.2 (57519) - http://www.bohemiancoding.com/sketch -->
    <title>Podium</title>
    <desc>Created with Sketch.</desc>
    <defs></defs>
    <g id="Page-1" stroke="none" stroke-width="1" fill="none" fill-rule="evenodd">
        <g id="Podium" fill-rule="nonzero">
            <g id="Group">
                <path d="M149.5,57.7 L149.5,68.7 L0,68.7 L0,57.7 L4.8,57.7 L4.8,21 C4.8,20.9 4.8,20.8 4.8,20.7 C5,18.9 6.5,17.4 8.3,17.4 L43.6,17.4 C45.5,17.4 47,18.8 47.2,20.7 C47.2,20.8 47.2,20.9 47.2,21 L47.2,57.7 L53.9,57.7 L53.9,4 C53.9,3.9 53.9,3.9 53.9,3.8 C54,1.9 55.5,0.4 57.5,0.4 L92.8,0.4 C94.7,0.4 96.3,1.9 96.4,3.8 C96.4,3.9 96.4,3.9 96.4,4 L96.4,57.6 L103.1,57.6 L103.1,32.6 C103.1,32.5 103.1,32.4 103.1,32.4 C103.2,30.6 104.8,29.1 106.7,29.1 L142,29.1 C143.9,29.1 145.4,30.6 145.6,32.4 C145.6,32.5 145.6,32.6 145.6,32.6 L145.6,57.6 L149.5,57.6 L149.5,57.7 Z" id="Shape" fill="#4988FD"></path>
                <polygon id="Shape" fill="#3973F4" points="149.5 57.7 149.5 68.7 0 68.7 0 57.7 4.9 57.7 4.9 53.8 145.5 53.8 145.5 57.7"></polygon>
                <path d="M27.1,27.8 C29.5,27.8 31.2,29.2 31.2,31.2 C31.2,32.5 30.5,33.5 28.5,35.4 L26.3,37.5 L26.3,37.6 L31.4,37.6 L31.4,39.6 L23.1,39.6 L23.1,37.9 L26.9,34.2 C28.5,32.6 28.9,32 28.9,31.3 C28.9,30.4 28.1,29.7 27.1,29.7 C26,29.7 25.2,30.4 25.2,31.5 L23,31.5 C22.9,29.3 24.6,27.8 27.1,27.8 Z" id="Shape" fill="#FFFFFF"></path>
                <polygon id="Shape" fill="#FFFFFF" points="75 13.2 74.9 13.2 72.1 15.2 72.1 13 75.1 10.9 77.5 10.9 77.5 22.5 75.1 22.5 75.1 13.2"></polygon>
                <path d="M123.1,43.6 L124.5,43.6 C125.6,43.6 126.3,43 126.3,42 C126.3,41.1 125.6,40.5 124.4,40.5 C123.3,40.5 122.5,41.1 122.5,42.1 L120.3,42.1 C120.4,39.9 122,38.5 124.5,38.5 C126.9,38.5 128.6,39.8 128.6,41.6 C128.6,42.9 127.8,44 126.5,44.2 L126.5,44.3 C128.1,44.5 129.1,45.5 129.1,47.1 C129.1,49.1 127.2,50.6 124.6,50.6 C122,50.6 120.3,49.2 120.2,47 L122.5,47 C122.6,48 123.4,48.6 124.6,48.6 C125.8,48.6 126.6,47.9 126.6,46.9 C126.6,45.9 125.8,45.3 124.5,45.3 L123.1,45.3 L123.1,43.6 Z" id="Shape" fill="#FFFFFF"></path>
            </g>
            <polygon id="Shape" fill="#D5E6FD" points="149.5 57.7 149.5 68.7 0 68.7 0 57.7 4.9 57.7 4.9 57.6 145.5 57.6 145.5 57.7"></polygon>
            <path d="M47.3,20.7 L4.9,20.7 C5.1,18.9 6.6,17.4 8.4,17.4 L43.7,17.4 C45.6,17.5 47.2,18.9 47.3,20.7 Z" id="Shape" fill="#6A9EFD"></path>
            <path d="M96.4,3.8 L54,3.8 C54.1,1.9 55.6,0.4 57.6,0.4 L92.9,0.4 C94.8,0.5 96.3,2 96.4,3.8 Z" id="Shape" fill="#6A9EFD"></path>
            <path d="M145.5,32.4 L103.1,32.4 C103.2,30.6 104.8,29.1 106.7,29.1 L142,29.1 C143.8,29.1 145.4,30.6 145.5,32.4 Z" id="Shape" fill="#6A9EFD"></path>
        </g>
    </g>
</svg>