<?xml version="1.0" encoding="UTF-8"?>
<svg width="144px" height="148px" viewBox="0 0 144 148" version="1.1" xmlns="http://www.w3.org/2000/svg" xmlns:xlink="http://www.w3.org/1999/xlink">
    <!-- Generator: Sketch 51.2 (57519) - http://www.bohemiancoding.com/sketch -->
    <title>POS</title>
    <desc>Created with Sketch.</desc>
    <defs></defs>
    <g id="Page-1" stroke="none" stroke-width="1" fill="none" fill-rule="evenodd">
        <g id="POS" fill-rule="nonzero">
            <path d="M122.5,34.2 L21.9,34.2 C15.8,34.2 10.8,39.2 10.8,45.3 L10.8,130 L133.7,130 L133.7,45.3 C133.6,39.2 128.6,34.2 122.5,34.2 Z" id="Shape" fill="#4988FD"></path>
            <path d="M122.5,34.2 L21.9,34.2 C15.8,34.2 10.8,39.2 10.8,45.3 L10.8,130 L133.7,130 L133.7,45.3 C133.6,39.2 128.6,34.2 122.5,34.2 Z" id="Shape" fill="#4988FD"></path>
            <rect id="Rectangle-path" fill="#3973F4" x="98.1" y="11.6" width="10.8" height="23.5"></rect>
            <path d="M133.6,45.3 L133.6,130 L10.7,130 L10.7,45.3 C10.7,39.2 15.7,34.2 21.8,34.2 L122.4,34.2 C126.3,34.2 129.8,36.2 131.7,39.3 C132.9,41 133.6,43.1 133.6,45.3 Z" id="Shape" fill="#4988FD"></path>
            <path d="M143.5,116.2 L143.5,141.9 C143.5,144.8 141.2,147.1 138.3,147.1 L6,147.1 C5.8,147.1 5.5,147.1 5.3,147.1 C2.7,146.8 0.7,144.6 0.7,141.9 L0.7,116.2 C0.7,113.3 3,111 5.9,111 L138.2,111 C140.9,111 143.1,113 143.4,115.6 C143.5,115.8 143.5,116 143.5,116.2 Z" id="Shape" fill="#6097FD"></path>
            <path d="M100.2,111 L100.2,118.1 C100.2,122.2 96.9,125.4 92.9,125.4 L51.6,125.4 C50.3,125.4 49,125 47.9,124.4 C45.7,123.1 44.2,120.8 44.2,118 L44.2,110.9 L100.2,110.9 L100.2,111 Z" id="Shape" fill="#3973F4"></path>
            <path d="M64.6,57 L64.6,90.1 C64.6,92.2 62.9,93.9 60.8,93.9 L27.7,93.9 C25.6,93.9 23.9,92.2 23.9,90.1 L23.9,57 C23.9,54.9 25.6,53.2 27.7,53.2 L60.8,53.2 C62.9,53.2 64.6,54.9 64.6,57 Z" id="Shape" fill="#C5DCFA"></path>
            <path d="M93.6,60.9 L77.8,60.9 C77.2,60.9 76.7,60.4 76.7,59.8 L76.7,54.3 C76.7,53.7 77.2,53.2 77.8,53.2 L93.6,53.2 C94.2,53.2 94.7,53.7 94.7,54.3 L94.7,59.8 C94.7,60.4 94.2,60.9 93.6,60.9 Z" id="Shape" fill="#6097FD"></path>
            <path d="M118.4,60.9 L102.6,60.9 C102,60.9 101.5,60.4 101.5,59.8 L101.5,54.3 C101.5,53.7 102,53.2 102.6,53.2 L118.4,53.2 C119,53.2 119.5,53.7 119.5,54.3 L119.5,59.8 C119.5,60.4 119,60.9 118.4,60.9 Z" id="Shape" fill="#6097FD"></path>
            <path d="M93.6,77.1 L77.8,77.1 C77.2,77.1 76.7,76.6 76.7,76 L76.7,70.5 C76.7,69.9 77.2,69.4 77.8,69.4 L93.6,69.4 C94.2,69.4 94.7,69.9 94.7,70.5 L94.7,76 C94.7,76.6 94.2,77.1 93.6,77.1 Z" id="Shape" fill="#6097FD"></path>
            <path d="M118.4,77.1 L102.6,77.1 C102,77.1 101.5,76.6 101.5,76 L101.5,70.5 C101.5,69.9 102,69.4 102.6,69.4 L118.4,69.4 C119,69.4 119.5,69.9 119.5,70.5 L119.5,76 C119.5,76.6 119,77.1 118.4,77.1 Z" id="Shape" fill="#6097FD"></path>
            <path d="M93.6,93.4 L77.8,93.4 C77.2,93.4 76.7,92.9 76.7,92.3 L76.7,86.8 C76.7,86.2 77.2,85.7 77.8,85.7 L93.6,85.7 C94.2,85.7 94.7,86.2 94.7,86.8 L94.7,92.3 C94.7,92.9 94.2,93.4 93.6,93.4 Z" id="Shape" fill="#6097FD"></path>
            <path d="M118.1,93.4 L102.3,93.4 C101.7,93.4 101.2,92.9 101.2,92.3 L101.2,86.8 C101.2,86.2 101.7,85.7 102.3,85.7 L118.1,85.7 C118.7,85.7 119.2,86.2 119.2,86.8 L119.2,92.3 C119.1,92.9 118.7,93.4 118.1,93.4 Z" id="Shape" fill="#6097FD"></path>
            <rect id="Rectangle-path" fill="#4988FD" x="80" y="0.8" width="47" height="19"></rect>
            <rect id="Rectangle-path" fill="#3973F4" x="84.3" y="4.8" width="38.3" height="11"></rect>
        </g>
    </g>
</svg>