<?xml version="1.0" encoding="UTF-8"?>
<svg width="145px" height="148px" viewBox="0 0 145 148" version="1.1" xmlns="http://www.w3.org/2000/svg" xmlns:xlink="http://www.w3.org/1999/xlink">
    <!-- Generator: Sketch 51.2 (57519) - http://www.bohemiancoding.com/sketch -->
    <title>POS_3</title>
    <desc>Created with Sketch.</desc>
    <defs></defs>
    <g id="Page-1" stroke="none" stroke-width="1" fill="none" fill-rule="evenodd">
        <g id="POS_3">
            <path d="M67.7,107.3 L67.7,105.9 C67.7,102.6 70.4,99.9 73.7,99.9 L94,99.9 C96.7,99.9 99.3,100.6 101.6,102 L131.3,119.3 C132.6,120.1 134.1,120.5 135.6,120.5 L142.7,120.5 C143.9,120.5 144.8,121.4 144.8,122.6 L144.8,137.7 L144.8,145.4 C144.8,146.6 143.9,147.5 142.7,147.5 L97.7,147.5 L67.7,107.3 Z" id="Shape" fill="#FFFFFF" fill-rule="nonzero"></path>
            <path d="M141.5,126.6 L141.5,145.3 C141.5,146.5 140.6,147.4 139.4,147.4 L86.5,147.4 L68.4,120.8 L64.6,111.4 L64.6,110 C64.6,109.8 64.6,109.6 64.6,109.4 C64.9,106.4 67.4,104.1 70.5,104.1 L90.8,104.1 C93.5,104.1 96.1,104.8 98.4,106.2 L128.1,123.5 C129.4,124.3 130.9,124.7 132.4,124.7 L139.5,124.7 C140.5,124.5 141.5,125.5 141.5,126.6 Z" id="Shape" fill="#C5DCFA" fill-rule="nonzero"></path>
            <g id="Group" transform="translate(6.000000, 0.000000)">
                <path d="M24.6,20.7 L63.6,20.7 C67,20.7 69.7,23.4 69.7,26.8 L69.7,65.4 C69.7,66.3 69.7,67.1 69.6,68 L66,111.9 C65.7,115.8 62.4,118.8 58.5,118.8 L12,118.8 C8.1,118.8 4.8,115.8 4.5,111.9 L0.9,68 C0.8,67.1 0.8,66.3 0.8,65.4 L0.8,26.8 C0.8,23.4 3.5,20.7 6.9,20.7 L13.3,20.7" id="Shape" fill="#C5DCFA" fill-rule="nonzero"></path>
                <path d="M13.2,20.7 L18,20.7" id="Shape" stroke="#91C2FF" stroke-width="3" fill="#FFFFFF" fill-rule="nonzero"></path>
                <path d="M15.9,20.7 L16.6,20.7" id="Shape" stroke="#91C2FF" stroke-width="3" stroke-linecap="round" stroke-linejoin="round"></path>
                <path d="M60.8,43.9 L60.8,55.3 C60.8,57 59.5,58.4 57.9,58.4 L12.3,58.4 C10.7,58.4 9.4,57 9.4,55.3 L9.4,43.9 C9.4,42.2 10.7,40.8 12.3,40.8 L57.9,40.8 C59.6,40.9 60.8,42.2 60.8,43.9 Z" id="Shape" fill="#DFECFD" fill-rule="nonzero"></path>
                <path d="M16.2,68.1 C16.9,67.7 17.7,67.4 18.5,67.4 C20.9,67.4 22.9,69.4 22.9,71.8 C22.9,74.2 20.9,76.2 18.5,76.2 C16.3,76.2 14.4,74.5 14.2,72.4" id="Shape" fill="#4988FD" fill-rule="nonzero"></path>
                <circle id="Oval" fill="#4988FD" fill-rule="nonzero" cx="35.1" cy="71.8" r="4.4"></circle>
                <circle id="Oval" fill="#4988FD" fill-rule="nonzero" cx="51.6" cy="71.8" r="4.4"></circle>
                <circle id="Oval" fill="#4988FD" fill-rule="nonzero" cx="18.5" cy="86.9" r="4.4"></circle>
                <path d="M36.5,91 C36,91.2 35.5,91.3 35,91.3 C32.6,91.3 30.6,89.3 30.6,86.9 C30.6,84.5 32.6,82.5 35,82.5 C37.4,82.5 39.4,84.5 39.4,86.9 C39.4,87.2 39.4,87.5 39.3,87.8" id="Shape" fill="#4988FD" fill-rule="nonzero"></path>
                <circle id="Oval" fill="#4988FD" fill-rule="nonzero" cx="51.6" cy="86.9" r="4.4"></circle>
                <circle id="Oval" fill="#4988FD" fill-rule="nonzero" cx="18.5" cy="102" r="4.4"></circle>
                <circle id="Oval" fill="#4988FD" fill-rule="nonzero" cx="35.1" cy="102" r="4.4"></circle>
                <circle id="Oval" fill="#4988FD" fill-rule="nonzero" cx="51.6" cy="102" r="4.4"></circle>
                <g transform="translate(8.000000, 0.000000)" fill-rule="nonzero" id="Shape">
                    <path d="M52.8,36.2 L2,36.2 C0.9,36.2 0,35.3 0,34.2 C0,33.1 0.9,32.2 2,32.2 L52.8,32.2 C53.9,32.2 54.8,33.1 54.8,34.2 C54.8,35.3 53.9,36.2 52.8,36.2 Z" fill="#3973F4"></path>
                    <g transform="translate(3.000000, 0.000000)">
                        <path d="M37.7,4.2 L37.7,0 L33.1,3.4 L28.5,0 L23.9,3.4 L19.3,0 L14.7,3.4 L10.1,0 L5.5,3.4 L0.9,0 L0.9,23.4 C1,29.5 2.1,32.1 7.2,34.1 L43.7,34.1 C38.6,32.8 37.2,29.6 37.4,23.4 L37.4,13.4" fill="#DFECFD"></path>
                        <path d="M29.3,20.7 L7.7,20.7 C6.9,20.7 6.2,20 6.2,19.2 C6.2,18.4 6.9,17.7 7.7,17.7 L29.3,17.7 C30.1,17.7 30.8,18.4 30.8,19.2 C30.8,20 30.2,20.7 29.3,20.7 Z" fill="#C5DCFA"></path>
                        <path d="M29.3,13.2 L20.9,13.2 C20.1,13.2 19.4,12.5 19.4,11.7 C19.4,10.9 20.1,10.2 20.9,10.2 L29.3,10.2 C30.1,10.2 30.8,10.9 30.8,11.7 C30.8,12.5 30.2,13.2 29.3,13.2 Z" fill="#C5DCFA"></path>
                        <path d="M11,13.2 L7.8,13.2 C7,13.2 6.3,12.5 6.3,11.7 C6.3,10.9 7,10.2 7.8,10.2 L11,10.2 C11.8,10.2 12.5,10.9 12.5,11.7 C12.5,12.5 11.8,13.2 11,13.2 Z" fill="#C5DCFA"></path>
                    </g>
                </g>
            </g>
            <path d="M70.2,129.4 L91.4,129.4 C93.6,129.4 95.4,127.6 95.4,125.4 L95.4,123.6 C95.4,121.4 93.6,119.6 91.4,119.6 L70.2,119.6 C67.6,119.6 65.6,121.7 65.6,124.2 L65.6,124.8 C65.5,127.4 67.6,129.4 70.2,129.4 Z" id="Shape" fill="#C5DCFA" fill-rule="nonzero"></path>
            <path d="M73.9,138.8 L98.1,138.8 C100.3,138.8 102.1,137 102.1,134.8 L102.1,133.1 C102.1,130.9 100.3,129.1 98.1,129.1 L73.9,129.1 C71.3,129.1 69.3,131.2 69.3,133.7 L69.3,134.3 C69.3,136.7 71.4,138.8 73.9,138.8 Z" id="Shape" fill="#C5DCFA" fill-rule="nonzero"></path>
            <path d="M73.9,143.1 C73.9,144.3 74.4,145.4 75.3,146.2 C76.1,147 77.3,147.6 78.6,147.6 L98.9,147.6 C101.5,147.6 103.5,145.5 103.5,143 C103.5,140.4 101.4,138.4 98.9,138.4 L78.8,138.4 C76.2,138.3 73.9,140.5 73.9,143.1 Z" id="Shape" fill="#C5DCFA" fill-rule="nonzero"></path>
            <g id="Group" transform="translate(0.000000, 55.000000)" fill-rule="nonzero">
                <path d="M1.4,33.8 C2.44249065e-15,35.7 0.4,38.4 2.4,39.7 L54.4,77.3 C56.3,78.7 59,78.3 60.3,76.3 L83,44.9 C84.4,43 84,40.3 82,39 L30,1.4 C28.1,-2.24931185e-13 25.4,0.4 24.1,2.4 L1.4,33.8 Z" id="Shape" fill="#4988FD"></path>
                <path d="M66.4,50.4 C66,50.4 65.6,50.3 65.2,50 L59.5,45.9 C58.6,45.3 58.4,44 59.1,43.1 C59.7,42.2 61,42 61.9,42.7 L67.6,46.8 C68.5,47.4 68.7,48.7 68,49.6 C67.7,50.1 67.1,50.4 66.4,50.4 Z" id="Shape" fill="#3973F4"></path>
                <path d="M54.8,42 C54.4,42 54,41.9 53.6,41.6 L47.1,36.9 C46.2,36.3 46,35 46.7,34.1 C47.3,33.2 48.6,33 49.5,33.7 L56,38.4 C56.9,39 57.1,40.3 56.4,41.2 C56.1,41.7 55.4,42 54.8,42 Z" id="Shape" fill="#3973F4"></path>
                <path d="M42.2,32.9 C41.8,32.9 41.4,32.8 41,32.5 L34.6,27.9 C33.7,27.3 33.5,26 34.2,25.1 C34.9,24.2 36.1,24 37,24.7 L43.4,29.3 C44.3,29.9 44.5,31.2 43.8,32.1 C43.5,32.6 42.9,32.9 42.2,32.9 Z" id="Shape" fill="#3973F4"></path>
                <path d="M30.1,24.1 C29.7,24.1 29.3,24 28.9,23.7 L22.2,18.9 C21.3,18.3 21.1,17 21.8,16.1 C22.4,15.2 23.7,15 24.6,15.7 L31.3,20.5 C32.2,21.1 32.4,22.4 31.7,23.3 C31.3,23.8 30.7,24.1 30.1,24.1 Z" id="Shape" fill="#3973F4"></path>
            </g>
            <path d="M114,140.5 C111.3,140.4 108.8,139.3 107,137.4 L93.3,123 C92,121.7 90.3,120.9 88.4,120.9 L68.3,120.9 L64.5,111.5 L64.5,110.1 C64.5,109.9 64.5,109.7 64.5,109.5 L93.5,109.5 L114,140.5 Z" id="Shape" fill="#BAD3F5" fill-rule="nonzero"></path>
            <path d="M93.9,107.3 L62.1,107.3 C60.7,107.3 59.5,108.4 59.5,109.9 C59.5,114.8 63.5,118.8 68.4,118.8 L88.8,118.8 C90.6,118.8 92.4,119.6 93.7,120.9 L107.4,135.3 C109.2,137.2 111.8,138.4 114.5,138.4 L93.9,107.3 Z" id="Shape" fill="#C5DCFA" fill-rule="nonzero"></path>
            <circle id="Oval" fill="#3973F4" fill-rule="nonzero" transform="translate(16.353930, 90.029300) rotate(-54.191247) translate(-16.353930, -90.029300) " cx="16.35393" cy="90.0293" r="5.70017958"></circle>
            <circle id="Oval" fill="#6097FD" fill-rule="nonzero" transform="translate(22.452840, 94.433440) rotate(-54.191247) translate(-22.452840, -94.433440) " cx="22.45284" cy="94.43344" r="5.70017958"></circle>
        </g>
    </g>
</svg>