<?xml version="1.0" encoding="UTF-8"?>
<svg width="135px" height="147px" viewBox="0 0 135 147" version="1.1" xmlns="http://www.w3.org/2000/svg" xmlns:xlink="http://www.w3.org/1999/xlink">
    <!-- Generator: Sketch 51.2 (57519) - http://www.bohemiancoding.com/sketch -->
    <title>Presentation</title>
    <desc>Created with Sketch.</desc>
    <defs></defs>
    <g id="Page-1" stroke="none" stroke-width="1" fill="none" fill-rule="evenodd">
        <g id="Presentation" fill-rule="nonzero">
            <path d="M67.1,139.9 C66,139.9 65.1,139 65.1,137.9 L65.1,113.6 C65.1,112.5 66,111.6 67.1,111.6 C68.2,111.6 69.1,112.5 69.1,113.6 L69.1,137.9 C69.1,139 68.3,139.9 67.1,139.9 Z" id="Shape" fill="#4988FD"></path>
            <path d="M124.4,13.6 L124.4,98.9 C124.4,108.9 116.3,117 106.3,117 L27.9,117 C17.9,117 9.8,108.9 9.8,98.9 L9.8,13.6 L124.4,13.6 Z" id="Shape" fill="#DFECFD"></path>
            <rect id="Rectangle-path" fill="#C5DCFA" x="9.9" y="13.6" width="114.6" height="10.6"></rect>
            <path d="M125.8,17.9 L8.6,17.9 C3.9,17.9 4.54747351e-13,14.1 4.54747351e-13,9.3 C4.54747351e-13,4.6 3.8,0.7 8.6,0.7 L125.8,0.7 C130.5,0.7 134.4,4.5 134.4,9.3 C134.3,14.1 130.5,17.9 125.8,17.9 Z" id="Shape" fill="#6097FD"></path>
            <circle id="Oval" fill="#6097FD" cx="67.1" cy="140.2" r="6.3"></circle>
            <path d="M64.3,42.2 C49.9,42.3 38.2,54 38.2,68.5 C38.2,83 50,94.8 64.5,94.8 C78.9,94.8 90.7,83.2 90.8,68.7 L64.3,68.7 L64.3,42.2 Z" id="Shape" fill="#4988FD"></path>
            <path d="M72.5,34.2 C72.4,34.2 72.4,34.2 72.3,34.2 L72.3,60.7 L98.8,60.7 C98.8,60.6 98.8,60.6 98.8,60.5 C98.8,46 87,34.2 72.5,34.2 Z" id="Shape" fill="#21D3AC"></path>
        </g>
    </g>
</svg>