<?xml version="1.0" encoding="UTF-8"?>
<svg width="146px" height="146px" viewBox="0 0 146 146" version="1.1" xmlns="http://www.w3.org/2000/svg" xmlns:xlink="http://www.w3.org/1999/xlink">
    <!-- Generator: Sketch 51.2 (57519) - http://www.bohemiancoding.com/sketch -->
    <title>Printer</title>
    <desc>Created with Sketch.</desc>
    <defs></defs>
    <g id="Page-1" stroke="none" stroke-width="1" fill="none" fill-rule="evenodd">
        <g id="Printer" fill-rule="nonzero">
            <path d="M131.3,28.7 L131.3,37.9 L14.7,37.9 L14.7,28.7 C14.7,20.6 21.1,14 29.1,13.6 L99.3,13.6 L116.3,13.6 C124.6,13.6 131.3,20.4 131.3,28.7 Z" id="Shape" fill="#2767F4"></path>
            <polygon id="Shape" fill="#DFECFD" points="115.4 13.6 115.4 37.8 29.1 37.8 29.1 0.7 99.1 0.7 99.3 0.9"></polygon>
            <path d="M115.4,13.6 L102,13.6 C100.5,13.6 99.3,12.4 99.3,10.9 L99.3,0.9 L115.4,13.6 Z" id="Shape" fill="#C5DCFA"></path>
            <path d="M145.7,49.8 L145.7,119 C145.7,125.6 140.4,130.9 133.8,130.9 L12.3,130.9 C9.7,130.9 7.3,130.1 5.3,128.6 C2.3,126.4 0.3,122.9 0.3,118.9 L0.3,49.7 C0.3,43.1 5.6,37.8 12.2,37.8 L133.7,37.8 C137.4,37.8 140.7,39.5 142.9,42.1 C144.7,44.3 145.7,46.9 145.7,49.8 Z" id="Shape" fill="#6097FD"></path>
            <path d="M145.7,51.4 L145.7,119 C145.7,125.6 140.4,130.9 133.8,130.9 L12.3,130.9 C9.7,130.9 7.3,130.1 5.3,128.6 L5.3,127.8 C126.2,124 142.6,83.9 145.7,51.4 Z" id="Shape" fill="#4988FD"></path>
            <polyline id="Shape" fill="#2767F4" points="29.1 111.3 12.5 111.3 12.5 99.9 134.4 99.9 134.4 111.3 115.4 111.3"></polyline>
            <polyline id="Shape" fill="#DFECFD" points="115.4 99.9 115.4 145.4 29.1 145.4 29.1 99.9"></polyline>
            <path d="M102.6,114.3 L90,114.3 C89.2,114.3 88.5,113.6 88.5,112.8 C88.5,112 89.2,111.3 90,111.3 L102.5,111.3 C103.3,111.3 104,112 104,112.8 C104,113.6 103.4,114.3 102.6,114.3 Z" id="Shape" fill="#C5DCFA"></path>
            <path d="M81.9,114.3 L57.5,114.3 C56.7,114.3 56,113.6 56,112.8 C56,112 56.7,111.3 57.5,111.3 L81.9,111.3 C82.7,111.3 83.4,112 83.4,112.8 C83.4,113.6 82.8,114.3 81.9,114.3 Z" id="Shape" fill="#C5DCFA"></path>
            <path d="M49.9,114.3 L42.7,114.3 C41.9,114.3 41.2,113.6 41.2,112.8 C41.2,112 41.9,111.3 42.7,111.3 L49.9,111.3 C50.7,111.3 51.4,112 51.4,112.8 C51.4,113.6 50.8,114.3 49.9,114.3 Z" id="Shape" fill="#C5DCFA"></path>
            <path d="M102.6,124.9 L80.7,124.9 C79.9,124.9 79.2,124.2 79.2,123.4 C79.2,122.6 79.9,121.9 80.7,121.9 L102.6,121.9 C103.4,121.9 104.1,122.6 104.1,123.4 C104.1,124.2 103.4,124.9 102.6,124.9 Z" id="Shape" fill="#C5DCFA"></path>
            <path d="M72.9,124.9 L42.8,124.9 C42,124.9 41.3,124.2 41.3,123.4 C41.3,122.6 42,121.9 42.8,121.9 L72.9,121.9 C73.7,121.9 74.4,122.6 74.4,123.4 C74.4,124.2 73.7,124.9 72.9,124.9 Z" id="Shape" fill="#C5DCFA"></path>
            <circle id="Oval" fill="#2767F4" cx="100.2" cy="58.8" r="4.9"></circle>
            <circle id="Oval" fill="#21D3AC" cx="119.7" cy="58.8" r="4.9"></circle>
        </g>
    </g>
</svg>