<?xml version="1.0" encoding="UTF-8"?>
<svg width="149px" height="149px" viewBox="0 0 149 149" version="1.1" xmlns="http://www.w3.org/2000/svg" xmlns:xlink="http://www.w3.org/1999/xlink">
    <!-- Generator: Sketch 51.2 (57519) - http://www.bohemiancoding.com/sketch -->
    <title>Procesor</title>
    <desc>Created with Sketch.</desc>
    <defs></defs>
    <g id="Page-1" stroke="none" stroke-width="1" fill="none" fill-rule="evenodd">
        <g id="Procesor" fill-rule="nonzero">
            <g id="Group" fill="#C5DCFA">
                <path d="M1.6,37 C0.8,37 0.1,36.3 0.1,35.5 C0.1,34.7 0.8,34 1.6,34 L21.5,33.9 C21.5,33.9 21.5,33.9 21.5,33.9 C22.3,33.9 23,34.6 23,35.4 C23,36.2 22.3,36.9 21.5,36.9 L1.6,37 C1.6,37 1.6,37 1.6,37 Z" id="Shape"></path>
                <path d="M1.8,70.1 C1,70.1 0.3,69.4 0.3,68.6 C0.3,67.8 1,67.1 1.8,67.1 L21.7,67 C21.7,67 21.7,67 21.7,67 C22.5,67 23.2,67.7 23.2,68.5 C23.2,69.3 22.5,70 21.7,70 L1.8,70.1 C1.8,70.1 1.8,70.1 1.8,70.1 Z" id="Shape"></path>
                <path d="M1.9,102.5 C1.1,102.5 0.4,101.8 0.4,101 C0.4,100.2 1.1,99.5 1.9,99.5 L21.8,99.4 C21.8,99.4 21.8,99.4 21.8,99.4 C22.6,99.4 23.3,100.1 23.3,100.9 C23.3,101.7 22.6,102.4 21.8,102.4 L1.9,102.5 C1.9,102.5 1.9,102.5 1.9,102.5 Z" id="Shape"></path>
                <path d="M1.7,53.2 C0.9,53.2 0.2,52.5 0.2,51.7 C0.2,50.9 0.9,50.2 1.7,50.2 L21.6,50.1 C21.6,50.1 21.6,50.1 21.6,50.1 C22.4,50.1 23.1,50.8 23.1,51.6 C23.1,52.4 22.4,53.1 21.6,53.1 L1.7,53.2 C1.7,53.2 1.7,53.2 1.7,53.2 Z" id="Shape"></path>
                <path d="M1.8,86.4 C1,86.4 0.3,85.7 0.3,84.9 C0.3,84.1 1,83.4 1.8,83.4 L21.7,83.3 C21.7,83.3 21.7,83.3 21.7,83.3 C22.5,83.3 23.2,84 23.2,84.8 C23.2,85.6 22.5,86.3 21.7,86.3 L1.8,86.4 C1.8,86.4 1.8,86.4 1.8,86.4 Z" id="Shape"></path>
                <path d="M2,117.3 C1.2,117.3 0.5,116.6 0.5,115.8 C0.5,115 1.2,114.3 2,114.3 L21.9,114.2 C21.9,114.2 21.9,114.2 21.9,114.2 C22.7,114.2 23.4,114.9 23.4,115.7 C23.4,116.5 22.7,117.2 21.9,117.2 L2,117.3 C2,117.3 2,117.3 2,117.3 Z" id="Shape"></path>
                <path d="M147.3,53.1 L127.4,53.1 C126.6,53.1 125.9,52.4 125.9,51.6 C125.9,50.8 126.6,50.1 127.4,50.1 L147.3,50.1 C148.1,50.1 148.8,50.8 148.8,51.6 C148.8,52.4 148.1,53.1 147.3,53.1 Z" id="Shape"></path>
                <path d="M147.3,86.3 L127.4,86.3 C126.6,86.3 125.9,85.6 125.9,84.8 C125.9,84 126.6,83.3 127.4,83.3 L147.3,83.3 C148.1,83.3 148.8,84 148.8,84.8 C148.8,85.6 148.1,86.3 147.3,86.3 Z" id="Shape"></path>
                <path d="M147.3,117.3 L127.4,117.3 C126.6,117.3 125.9,116.6 125.9,115.8 C125.9,115 126.6,114.3 127.4,114.3 L147.3,114.3 C148.1,114.3 148.8,115 148.8,115.8 C148.8,116.6 148.1,117.3 147.3,117.3 Z" id="Shape"></path>
                <path d="M147.3,36.9 L127.4,36.9 C126.6,36.9 125.9,36.2 125.9,35.4 C125.9,34.6 126.6,33.9 127.4,33.9 L147.3,33.9 C148.1,33.9 148.8,34.6 148.8,35.4 C148.8,36.2 148.1,36.9 147.3,36.9 Z" id="Shape"></path>
                <path d="M147.3,70.1 L127.4,70.1 C126.6,70.1 125.9,69.4 125.9,68.6 C125.9,67.8 126.6,67.1 127.4,67.1 L147.3,67.1 C148.1,67.1 148.8,67.8 148.8,68.6 C148.8,69.4 148.1,70.1 147.3,70.1 Z" id="Shape"></path>
                <path d="M147.3,101.1 L127.4,101.1 C126.6,101.1 125.9,100.4 125.9,99.6 C125.9,98.8 126.6,98.1 127.4,98.1 L147.3,98.1 C148.1,98.1 148.8,98.8 148.8,99.6 C148.8,100.4 148.1,101.1 147.3,101.1 Z" id="Shape"></path>
                <path d="M49.7,149 C48.9,149 48.2,148.3 48.2,147.5 L48.2,127.6 C48.2,126.8 48.9,126.1 49.7,126.1 C50.5,126.1 51.2,126.8 51.2,127.6 L51.2,147.5 C51.2,148.3 50.6,149 49.7,149 Z" id="Shape"></path>
                <path d="M82.9,149 C82.1,149 81.4,148.3 81.4,147.5 L81.4,127.6 C81.4,126.8 82.1,126.1 82.9,126.1 C83.7,126.1 84.4,126.8 84.4,127.6 L84.4,147.5 C84.4,148.3 83.7,149 82.9,149 Z" id="Shape"></path>
                <path d="M113.8,149 C113,149 112.3,148.3 112.3,147.5 L112.3,127.6 C112.3,126.8 113,126.1 113.8,126.1 C114.6,126.1 115.3,126.8 115.3,127.6 L115.3,147.5 C115.4,148.3 114.7,149 113.8,149 Z" id="Shape"></path>
                <path d="M33.5,149 C32.7,149 32,148.3 32,147.5 L32,127.6 C32,126.8 32.7,126.1 33.5,126.1 C34.3,126.1 35,126.8 35,127.6 L35,147.5 C35,148.3 34.3,149 33.5,149 Z" id="Shape"></path>
                <path d="M66.7,149 C65.9,149 65.2,148.3 65.2,147.5 L65.2,127.6 C65.2,126.8 65.9,126.1 66.7,126.1 C67.5,126.1 68.2,126.8 68.2,127.6 L68.2,147.5 C68.2,148.3 67.5,149 66.7,149 Z" id="Shape"></path>
                <path d="M97.6,149 C96.8,149 96.1,148.3 96.1,147.5 L96.1,127.6 C96.1,126.8 96.8,126.1 97.6,126.1 C98.4,126.1 99.1,126.8 99.1,127.6 L99.1,147.5 C99.2,148.3 98.5,149 97.6,149 Z" id="Shape"></path>
                <path d="M34.8,23.4 C34,23.4 33.3,22.7 33.3,21.9 L33.3,2 C33.3,1.2 34,0.5 34.8,0.5 C35.6,0.5 36.3,1.2 36.3,2 L36.3,21.9 C36.4,22.7 35.7,23.4 34.8,23.4 Z" id="Shape"></path>
                <path d="M68,23.4 C67.2,23.4 66.5,22.7 66.5,21.9 L66.5,2 C66.5,1.2 67.2,0.5 68,0.5 C68.8,0.5 69.5,1.2 69.5,2 L69.5,21.9 C69.6,22.7 68.9,23.4 68,23.4 Z" id="Shape"></path>
                <path d="M99,23.4 C98.2,23.4 97.5,22.7 97.5,21.9 L97.5,2 C97.5,1.2 98.2,0.5 99,0.5 C99.8,0.5 100.5,1.2 100.5,2 L100.5,21.9 C100.5,22.7 99.8,23.4 99,23.4 Z" id="Shape"></path>
                <path d="M49.7,23.4 C48.9,23.4 48.2,22.7 48.2,21.9 L48.2,2 C48.2,1.2 48.9,0.5 49.7,0.5 C50.5,0.5 51.2,1.2 51.2,2 L51.2,21.9 C51.2,22.7 50.6,23.4 49.7,23.4 Z" id="Shape"></path>
                <path d="M82.9,23.4 C82.1,23.4 81.4,22.7 81.4,21.9 L81.4,2 C81.4,1.2 82.1,0.5 82.9,0.5 C83.7,0.5 84.4,1.2 84.4,2 L84.4,21.9 C84.4,22.7 83.7,23.4 82.9,23.4 Z" id="Shape"></path>
                <path d="M113.8,23.4 C113,23.4 112.3,22.7 112.3,21.9 L112.3,2 C112.3,1.2 113,0.5 113.8,0.5 C114.6,0.5 115.3,1.2 115.3,2 L115.3,21.9 C115.4,22.7 114.7,23.4 113.8,23.4 Z" id="Shape"></path>
            </g>
            <path d="M118.8,128.4 L29,128.4 C24.5,128.4 20.8,124.7 20.8,120.2 L20.8,30.4 C20.8,25.9 24.5,22.2 29,22.2 L118.8,22.2 C123.3,22.2 127,25.9 127,30.4 L127,120.2 C127,124.7 123.3,128.4 118.8,128.4 Z" id="Shape" fill="#4988FD"></path>
            <circle id="Oval" fill="#C5DCFA" cx="110.4" cy="107.4" r="4.8"></circle>
            <path d="M94.2,99.7 L53.6,99.7 C51.4,99.7 49.6,97.9 49.6,95.7 L49.6,55 C49.6,52.8 51.4,51 53.6,51 L94.2,51 C96.4,51 98.2,52.8 98.2,55 L98.2,95.6 C98.2,97.8 96.4,99.7 94.2,99.7 Z" id="Shape" fill="#2767F4"></path>
        </g>
    </g>
</svg>