<?xml version="1.0" encoding="UTF-8"?>
<svg width="142px" height="135px" viewBox="0 0 142 135" version="1.1" xmlns="http://www.w3.org/2000/svg" xmlns:xlink="http://www.w3.org/1999/xlink">
    <!-- Generator: Sketch 51.2 (57519) - http://www.bohemiancoding.com/sketch -->
    <title>Products_in_basket</title>
    <desc>Created with Sketch.</desc>
    <defs></defs>
    <g id="Page-1" stroke="none" stroke-width="1" fill="none" fill-rule="evenodd">
        <g id="Products_in_basket">
            <g id="Group" transform="translate(0.000000, 50.000000)" fill-rule="nonzero">
                <path d="M135.5,19.9 L124.6,76.2 C123.8,81.1 119.6,84.8 114.6,84.8 L27.3,84.8 C22.3,84.8 18.1,81.2 17.3,76.2 L6.4,19.9" id="Shape" fill="#FFFFFF"></path>
                <path d="M135.5,19.9 L134.5,25.2 L124.7,76.2 C123.9,81.1 119.7,84.8 114.7,84.8 L27.4,84.8 C22.4,84.8 18.2,81.2 17.4,76.2 L7.6,25.2 L6.6,19.9 L135.5,19.9 Z" id="Shape" fill="#4988FD"></path>
                <polygon id="Shape" fill="#2767F4" points="135.5 19.9 133.9 27.5 8.2 27.6 6.4 19.9"></polygon>
                <path d="M10.5,19.9 L7.1,19.9 C3.2,19.9 0,17 0,13.5 L0,6.6 C0,3.1 3.2,0.2 7.1,0.2 L134.8,0.2 C138.7,0.2 141.9,3.1 141.9,6.6 L141.9,13.5 C141.9,17 138.7,19.9 134.8,19.9 L131.4,19.9" id="Shape" fill="#6097FD"></path>
                <g transform="translate(28.000000, 32.000000)" fill="#FFFFFF" id="Shape">
                    <path d="M5.6,2.8 C5.3,1.3 3.9,0.3 2.4,0.6 C0.9,0.9 -0.1,2.3 0.2,3.8 L6.9,37.8 C7.6,41.4 13,40.3 12.3,36.7 L5.6,2.8 Z"></path>
                    <path d="M24.2,3 C24,1.5 22.6,0.4 21.1,0.7 C19.6,0.9 18.5,2.3 18.8,3.8 C19.8,10.9 22.6,30.5 23.6,37.8 C24.1,41.4 29.6,40.6 29.1,37 C28.6,33.8 24.8,6.9 24.2,3 Z"></path>
                    <path d="M40.2,3.3 L40.2,37.3 C40.2,40.9 45.7,41 45.7,37.3 L45.7,3.3 C45.7,-0.3 40.2,-0.3 40.2,3.3 Z"></path>
                    <path d="M61.7,3 C59.2,20.6 60.3,12.6 56.9,37 C56.4,40.6 61.9,41.4 62.4,37.8 L65.2,18 C65.3,17.6 65.2,17.7 65.3,17.3 L67.2,3.8 C67.6,0.1 62.2,-0.7 61.7,3 Z"></path>
                    <path d="M80.3,2.8 C79.4,7.4 73.9,35.2 73.6,36.9 C72.9,40.5 78.3,41.5 79,38 L85.7,4 C86.4,0.3 81,-0.8 80.3,2.8 Z"></path>
                </g>
            </g>
            <g id="Group" transform="translate(11.000000, 0.000000)">
                <g>
                    <path d="M31.8,20.8 L31.8,13.7 C31.8,9.8 28.6,6.6 24.7,6.6 C20.8,6.6 17.6,9.8 17.6,13.7 C17.6,17.6 20.8,20.8 24.7,20.8 L31.8,20.8 Z" id="Shape"></path>
                    <path d="M48.4,15.3 C48.4,12.3 45.9,9.8 42.9,9.8 C39.9,9.8 37.4,12.3 37.4,15.3 L37.4,20.8 L42.9,20.8 C45.9,20.8 48.4,18.3 48.4,15.3 Z" id="Shape"></path>
                    <path d="M29.5,38.7 L29.5,26.5 L24.7,26.5 C23.3,26.5 22,26.3 20.8,25.9 L3.3,25.9 C1.8,25.9 0.6,27.1 0.6,28.6 L0.6,36 C0.6,37.5 1.8,38.7 3.3,38.7 L4.8,38.7 L29.5,38.7 Z" id="Shape" fill="#6097FD" fill-rule="nonzero"></path>
                    <path d="M66.2,25.8 L46.6,25.8 C45.5,26.2 44.2,26.4 43,26.4 L39.7,26.4 L39.7,38.6 L66.3,38.6 C67.8,38.6 69,37.4 69,35.9 L69,28.5 C68.9,27 67.7,25.8 66.2,25.8 Z" id="Shape" fill="#6097FD" fill-rule="nonzero"></path>
                    <polygon id="Shape" fill="#4988FD" fill-rule="nonzero" points="39.6 38.7 64.7 38.7 64.7 43.1 39.6 43.1 39.6 43.1 39.6 50.3 64.7 50.3 64.7 38.7 39.6 38.7"></polygon>
                    <polygon id="Shape" fill="#4988FD" fill-rule="nonzero" points="29.5 43.1 4.7 43.1 4.7 38.7 29.5 38.7 29.5 38.7 29.5 38.7 4.7 38.7 4.7 38.7 4.7 50.3 29.5 50.3"></polygon>
                    <rect id="Rectangle-path" fill="#2767F4" fill-rule="nonzero" x="4.7" y="38.7" width="24.8" height="4.5"></rect>
                    <rect id="Rectangle-path" fill="#2767F4" fill-rule="nonzero" x="39.6" y="38.7" width="25.1" height="4.5"></rect>
                    <path d="M34.6,26.4 C34.6,26.4 34.6,26.4 34.6,26.4 C34.6,26.4 34.6,26.4 34.6,26.4 L29.4,26.4 L29.4,38.6 L39.6,38.6 L39.6,26.4 L34.6,26.4 Z" id="Shape" fill="#DFECFD" fill-rule="nonzero"></path>
                    <polygon id="Shape" fill="#DFECFD" fill-rule="nonzero" points="29.5 43.1 29.5 50.3 39.6 50.3 39.6 43.1"></polygon>
                    <polygon id="Shape" fill="#C5DCFA" fill-rule="nonzero" points="29.5 43.1 29.5 43.1 39.6 43.1 39.6 43.1 39.6 38.7 39.6 38.7 29.5 38.7 29.5 38.7"></polygon>
                    <path d="M29.5,26.4 L34.6,26.4 C34.6,26.4 34.6,26.4 34.6,26.4 C33,26.4 31.8,25.1 31.8,23.6 L31.8,15.3 C31.8,12 33.2,9 35.5,7 C33.3,3.4 29.2,0.9 24.6,0.9 C17.6,0.9 11.8,6.6 11.8,13.7 C11.8,19.4 15.5,24.2 20.6,25.8 C21.8,26.2 23.2,26.4 24.5,26.4 L29.5,26.4 Z M17.6,13.7 C17.6,9.8 20.8,6.6 24.7,6.6 C28.6,6.6 31.8,9.8 31.8,13.7 L31.8,20.8 L24.7,20.8 C20.7,20.8 17.6,17.6 17.6,13.7 Z" id="Shape" fill="#DFECFD" fill-rule="nonzero"></path>
                    <path d="M31.8,15.3 L31.8,23.6 C31.8,25.2 33.1,26.4 34.6,26.4 C34.6,26.4 34.6,26.4 34.6,26.4 L39.6,26.4 L42.9,26.4 C44.2,26.4 45.4,26.2 46.5,25.8 C50.9,24.3 54,20.2 54,15.3 C54,9.2 49,4.2 42.9,4.2 C40.1,4.2 37.5,5.3 35.5,7 C33.2,9 31.8,12 31.8,15.3 Z M37.4,15.3 C37.4,12.3 39.9,9.8 42.9,9.8 C45.9,9.8 48.4,12.3 48.4,15.3 C48.4,18.3 45.9,20.8 42.9,20.8 L37.4,20.8 L37.4,15.3 Z" id="Shape" fill="#DFECFD" fill-rule="nonzero"></path>
                </g>
                <g transform="translate(72.000000, 17.000000)">
                    <path d="M20.8,13.6 L20.8,8.9 C20.8,6.3 18.7,4.2 16.1,4.2 C13.5,4.2 11.4,6.3 11.4,8.9 C11.4,11.5 13.5,13.6 16.1,13.6 L20.8,13.6 Z" id="Shape"></path>
                    <path d="M31.8,10 C31.8,8 30.2,6.4 28.2,6.4 C26.2,6.4 24.6,8 24.6,10 L24.6,13.6 L28.2,13.6 C30.2,13.6 31.8,12 31.8,10 Z" id="Shape"></path>
                    <path d="M43.6,16.9 L30.6,16.9 C29.8,17.2 29,17.3 28.2,17.3 L26,17.3 L26,25.4 L43.6,25.4 C44.6,25.4 45.4,24.6 45.4,23.6 L45.4,18.7 C45.4,17.7 44.6,16.9 43.6,16.9 Z" id="Shape" fill="#6097FD" fill-rule="nonzero"></path>
                    <path d="M19.3,25.4 L19.3,17.3 L16.1,17.3 C15.2,17.3 14.3,17.2 13.5,16.9 L1.9,16.9 C0.9,16.9 0.1,17.7 0.1,18.7 L0.1,23.6 C0.1,24.6 0.9,25.4 1.9,25.4 L2.9,25.4 L19.3,25.4 Z" id="Shape" fill="#6097FD" fill-rule="nonzero"></path>
                    <polygon id="Shape" fill="#4988FD" fill-rule="nonzero" points="26 25.4 42.6 25.4 42.6 28.4 26 28.4 26 28.4 26 33.3 42.6 33.3 42.6 25.4 26 25.4"></polygon>
                    <polygon id="Shape" fill="#4988FD" fill-rule="nonzero" points="19.3 28.4 2.9 28.4 2.9 25.4 19.3 25.4 19.3 25.4 19.3 25.4 2.9 25.4 2.9 25.4 2.9 33.3 19.3 33.3"></polygon>
                    <rect id="Rectangle-path" fill="#2767F4" fill-rule="nonzero" x="26" y="25.4" width="16.6" height="3"></rect>
                    <rect id="Rectangle-path" fill="#2767F4" fill-rule="nonzero" x="2.9" y="25.4" width="16.4" height="3"></rect>
                    <polygon id="Shape" fill="#DFECFD" fill-rule="nonzero" points="22.7 17.4 22.7 17.4 22.7 17.4 19.3 17.4 19.3 25.4 19.3 25.4 26 25.4 26 25.4 26 25.4 26 17.4"></polygon>
                    <rect id="Rectangle-path" fill="#DFECFD" fill-rule="nonzero" x="19.3" y="28.4" width="6.7" height="4.9"></rect>
                    <polygon id="Shape" fill="#C5DCFA" fill-rule="nonzero" points="19.3 28.4 19.3 28.4 26 28.4 26 28.4 26 25.4 26 25.4 19.3 25.4 19.3 25.4"></polygon>
                    <path d="M19.3,17.4 L22.7,17.4 C22.7,17.4 22.7,17.4 22.7,17.4 C21.7,17.4 20.8,16.6 20.8,15.5 L20.8,10 C20.8,7.8 21.8,5.9 23.3,4.5 C21.8,2.1 19.2,0.5 16.1,0.5 C11.4,0.5 7.7,4.3 7.7,8.9 C7.7,12.6 10.2,15.8 13.5,16.9 C14.3,17.2 15.2,17.3 16.1,17.3 L19.3,17.3 L19.3,17.4 Z M11.4,8.9 C11.4,6.3 13.5,4.2 16.1,4.2 C18.7,4.2 20.8,6.3 20.8,8.9 L20.8,13.6 L16.1,13.6 C13.5,13.6 11.4,11.5 11.4,8.9 Z" id="Shape" fill="#DFECFD" fill-rule="nonzero"></path>
                    <path d="M20.8,10 L20.8,15.5 C20.8,16.5 21.6,17.4 22.7,17.4 C22.7,17.4 22.7,17.4 22.7,17.4 L26,17.4 L28.2,17.4 C29,17.4 29.9,17.3 30.6,17 C33.5,16 35.6,13.3 35.6,10 C35.6,5.9 32.3,2.6 28.2,2.6 C26.3,2.6 24.6,3.3 23.3,4.5 C21.8,5.9 20.8,7.8 20.8,10 Z M24.6,10 C24.6,8 26.2,6.4 28.2,6.4 C30.2,6.4 31.8,8 31.8,10 C31.8,12 30.2,13.6 28.2,13.6 L24.6,13.6 L24.6,10 Z" id="Shape" fill="#DFECFD" fill-rule="nonzero"></path>
                </g>
            </g>
        </g>
    </g>
</svg>