<?xml version="1.0" encoding="UTF-8"?>
<svg width="112px" height="144px" viewBox="0 0 112 144" version="1.1" xmlns="http://www.w3.org/2000/svg" xmlns:xlink="http://www.w3.org/1999/xlink">
    <!-- Generator: Sketch 51.2 (57519) - http://www.bohemiancoding.com/sketch -->
    <title>Profile</title>
    <desc>Created with Sketch.</desc>
    <defs></defs>
    <g id="Page-1" stroke="none" stroke-width="1" fill="none" fill-rule="evenodd">
        <g id="Profile" fill-rule="nonzero">
            <path d="M110.7,35.9 L111.9,137.7 C111.9,141.1 109.1,143.9 105.7,143.9 L6.6,143.9 C3.2,143.9 0.4,141.1 0.4,137.7 L0.4,6.8 C0.4,3.4 3.2,0.6 6.6,0.6 L78.4,0.6 L110.7,35.9 Z" id="Shape" fill="#4988FD"></path>
            <path d="M78.5,0.7 L78.5,28.8 C78.5,32.7 81.9,36 85.8,36 L110.8,36" id="Shape" fill="#3973F4"></path>
            <g id="Group" transform="translate(18.000000, 76.000000)">
                <path d="M74.9,3.8 L68.8,3.8 C68,3.8 67.3,3.1 67.3,2.3 C67.3,1.5 68,0.8 68.8,0.8 L74.9,0.8 C75.7,0.8 76.4,1.5 76.4,2.3 C76.4,3.1 75.7,3.8 74.9,3.8 Z" id="Shape" fill="#C5DCFA"></path>
                <path d="M61.8,3.8 L42.5,3.8 C41.7,3.8 41,3.1 41,2.3 C41,1.5 41.7,0.8 42.5,0.8 L61.8,0.8 C62.6,0.8 63.3,1.5 63.3,2.3 C63.3,3.1 62.6,3.8 61.8,3.8 Z" id="Shape" fill="#4988FD"></path>
                <path d="M33.2,3.8 L2.1,3.8 C1.3,3.8 0.6,3.1 0.6,2.3 C0.6,1.5 1.3,0.8 2.1,0.8 L33.2,0.8 C34,0.8 34.7,1.5 34.7,2.3 C34.7,3.1 34.1,3.8 33.2,3.8 Z" id="Shape" fill="#C5DCFA"></path>
                <path d="M74.9,14.9 L70.6,14.9 C69.8,14.9 69.1,14.2 69.1,13.4 C69.1,12.6 69.8,11.9 70.6,11.9 L74.9,11.9 C75.7,11.9 76.4,12.6 76.4,13.4 C76.4,14.2 75.7,14.9 74.9,14.9 Z" id="Shape" fill="#C5DCFA"></path>
                <path d="M61.8,14.9 L48.4,14.9 C47.6,14.9 46.9,14.2 46.9,13.4 C46.9,12.6 47.6,11.9 48.4,11.9 L61.8,11.9 C62.6,11.9 63.3,12.6 63.3,13.4 C63.3,14.2 62.6,14.9 61.8,14.9 Z" id="Shape" fill="#4988FD"></path>
                <path d="M40.6,14.9 L33.2,14.9 C32.4,14.9 31.7,14.2 31.7,13.4 C31.7,12.6 32.4,11.9 33.2,11.9 L40.6,11.9 C41.4,11.9 42.1,12.6 42.1,13.4 C42.1,14.2 41.4,14.9 40.6,14.9 Z" id="Shape" fill="#C5DCFA"></path>
                <path d="M24.8,14.9 L2.1,14.9 C1.3,14.9 0.6,14.2 0.6,13.4 C0.6,12.6 1.3,11.9 2.1,11.9 L24.8,11.9 C25.6,11.9 26.3,12.6 26.3,13.4 C26.3,14.2 25.6,14.9 24.8,14.9 Z" id="Shape" fill="#4988FD"></path>
                <path d="M74.9,25.9 L56.2,25.9 C55.4,25.9 54.7,25.2 54.7,24.4 C54.7,23.6 55.4,22.9 56.2,22.9 L74.9,22.9 C75.7,22.9 76.4,23.6 76.4,24.4 C76.4,25.2 75.7,25.9 74.9,25.9 Z" id="Shape" fill="#C5DCFA"></path>
                <path d="M47.4,25.9 L20.4,25.9 C19.6,25.9 18.9,25.2 18.9,24.4 C18.9,23.6 19.6,22.9 20.4,22.9 L47.4,22.9 C48.2,22.9 48.9,23.6 48.9,24.4 C48.9,25.2 48.2,25.9 47.4,25.9 Z" id="Shape" fill="#4988FD"></path>
                <path d="M11,25.9 L2.1,25.9 C1.3,25.9 0.6,25.2 0.6,24.4 C0.6,23.6 1.3,22.9 2.1,22.9 L11,22.9 C11.8,22.9 12.5,23.6 12.5,24.4 C12.5,25.2 11.8,25.9 11,25.9 Z" id="Shape" fill="#C5DCFA"></path>
                <path d="M74.9,37 L44.7,37 C43.9,37 43.2,36.3 43.2,35.5 C43.2,34.7 43.9,34 44.7,34 L74.9,34 C75.7,34 76.4,34.7 76.4,35.5 C76.4,36.3 75.7,37 74.9,37 Z" id="Shape" fill="#4988FD"></path>
                <path d="M33.9,37 L29,37 C28.2,37 27.5,36.3 27.5,35.5 C27.5,34.7 28.2,34 29,34 L33.9,34 C34.7,34 35.4,34.7 35.4,35.5 C35.4,36.3 34.7,37 33.9,37 Z" id="Shape" fill="#C5DCFA"></path>
                <path d="M18.3,37 L2.1,37 C1.3,37 0.6,36.3 0.6,35.5 C0.6,34.7 1.3,34 2.1,34 L18.3,34 C19.1,34 19.8,34.7 19.8,35.5 C19.8,36.3 19.2,37 18.3,37 Z" id="Shape" fill="#4988FD"></path>
                <path d="M39.3,48.1 L2.1,48.1 C1.3,48.1 0.6,47.4 0.6,46.6 C0.6,45.8 1.3,45.1 2.1,45.1 L39.3,45.1 C40.1,45.1 40.8,45.8 40.8,46.6 C40.8,47.4 40.1,48.1 39.3,48.1 Z" id="Shape" fill="#4988FD"></path>
            </g>
            <circle id="Oval" fill="#DFECFD" cx="54.3" cy="40.7" r="19.7"></circle>
            <path d="M64,49.3 C64,50.2 63.1,50.2 63.1,50.2 L45.1,50.2 C45.1,50.2 44.2,50.2 44.2,49.3 C44.2,47 45.6,45.1 47,43.2 C47.5,42.5 48.4,41.4 49.7,40.3 C51,41.5 52.7,42.2 54.5,42.2 C56.3,42.2 57.9,41.5 59.2,40.4 C61.5,42.7 64,46.2 64,49.3 Z" id="Shape" fill="#4988FD"></path>
            <circle id="Oval" fill="#4988FD" cx="54.4" cy="35.2" r="5.6"></circle>
        </g>
    </g>
</svg>