<?xml version="1.0" encoding="UTF-8"?>
<svg width="150px" height="150px" viewBox="0 0 150 150" version="1.1" xmlns="http://www.w3.org/2000/svg" xmlns:xlink="http://www.w3.org/1999/xlink">
    <!-- Generator: Sketch 51.2 (57519) - http://www.bohemiancoding.com/sketch -->
    <title>QR_Code</title>
    <desc>Created with Sketch.</desc>
    <defs></defs>
    <g id="Page-1" stroke="none" stroke-width="1" fill="none" fill-rule="evenodd">
        <g id="QR_Code" fill-rule="nonzero">
            <g id="Group" fill="#6097FD">
                <path d="M3.4,35.3 C2,35.3 0.9,34.2 0.9,32.8 L0.9,3.1 C0.9,1.7 2,0.6 3.4,0.6 L33.1,0.6 C34.5,0.6 35.6,1.7 35.6,3.1 C35.6,4.5 34.5,5.6 33.1,5.6 L5.9,5.6 L5.9,32.8 C5.9,34.2 4.7,35.3 3.4,35.3 Z" id="Shape"></path>
                <path d="M33.1,149.5 L3.4,149.5 C2,149.5 0.9,148.4 0.9,147 L0.9,117.3 C0.9,115.9 2,114.8 3.4,114.8 C4.8,114.8 5.9,115.9 5.9,117.3 L5.9,144.5 L33.1,144.5 C34.5,144.5 35.6,145.6 35.6,147 C35.5,148.4 34.4,149.5 33.1,149.5 Z" id="Shape"></path>
                <path d="M147.2,35.3 C145.8,35.3 144.7,34.2 144.7,32.8 L144.7,5.6 L117.5,5.6 C116.1,5.6 115,4.5 115,3.1 C115,1.7 116.1,0.6 117.5,0.6 L147.2,0.6 C148.6,0.6 149.7,1.7 149.7,3.1 L149.7,32.8 C149.7,34.2 148.6,35.3 147.2,35.3 Z" id="Shape"></path>
                <path d="M147.2,149.5 L117.5,149.5 C116.1,149.5 115,148.4 115,147 C115,145.6 116.1,144.5 117.5,144.5 L144.7,144.5 L144.7,117.3 C144.7,115.9 145.8,114.8 147.2,114.8 C148.6,114.8 149.7,115.9 149.7,117.3 L149.7,147 C149.7,148.4 148.6,149.5 147.2,149.5 Z" id="Shape"></path>
            </g>
            <path d="M125.4,126 C117.4,126 105.8,126 97.7,126 C97.7,123.5 97.7,121.1 97.7,118.4 C100,118.4 103,118.4 105.3,118.4 C105.5,115.7 105.1,113.2 105.3,110.8 C107.6,110.8 110,110.8 112.5,110.8 C112.5,113.5 112.5,115.8 112.5,118.2 C114.2,118.2 115.7,118.2 117.4,118.2 C117.4,113.3 117.4,108.5 117.4,103.6 C119,103.6 124,103.6 125.3,103.6 C125.4,111.1 125.4,118.6 125.4,126 Z" id="Shape" fill="#4988FD"></path>
            <path d="M125.4,81.3 C124.1,81.3 119.1,81.3 117.6,81.3 C117.6,78.8 117.6,76.5 117.6,74 C119,74 124,74 125.4,74 C125.4,76.4 125.4,78.8 125.4,81.3 Z" id="Shape" fill="#4988FD"></path>
            <path d="M126,98.5 C124.6,98.5 119.6,98.5 118.2,98.5 C118.2,96 118.2,93.6 118.2,91.2 C119.7,91.2 124.7,91.2 126,91.2 C126,93.6 126,96.1 126,98.5 Z" id="Shape" fill="#4988FD"></path>
            <path d="M23.9,125.8 C23.9,112.6 23.9,99.5 23.9,86.3 C37.1,86.3 50.2,86.3 63.4,86.3 C63.4,99.4 63.4,112.5 63.4,125.8 C50.3,125.8 37.2,125.8 23.9,125.8 Z M29,91.3 C29,101.3 29,111.1 29,120.8 C38.9,120.8 48.8,120.8 58.6,120.8 C58.6,110.9 58.6,101.1 58.6,91.3 C48.6,91.3 38.8,91.3 29,91.3 Z" id="Shape" fill="#4988FD"></path>
            <path d="M64,63.6 C50.8,63.6 37.8,63.6 24.6,63.6 C24.6,50.4 24.6,37.4 24.6,24.1 C37.7,24.1 50.8,24.1 64,24.1 C64,37.3 64,50.3 64,63.6 Z M59.1,58.7 C59.1,48.7 59.1,39 59.1,29.2 C49.2,29.2 39.4,29.2 29.5,29.2 C29.5,39.1 29.5,48.9 29.5,58.7 C39.5,58.7 49.3,58.7 59.1,58.7 Z" id="Shape" fill="#4988FD"></path>
            <path d="M126.1,63.6 C112.9,63.6 99.9,63.6 86.7,63.6 C86.7,50.4 86.7,37.4 86.7,24.1 C99.8,24.1 112.9,24.1 126.1,24.1 C126.1,37.3 126.1,50.3 126.1,63.6 Z M121.2,58.7 C121.2,48.7 121.2,39 121.2,29.2 C111.3,29.2 101.5,29.2 91.6,29.2 C91.6,39.1 91.6,48.9 91.6,58.7 C101.6,58.7 111.4,58.7 121.2,58.7 Z" id="Shape" fill="#4988FD"></path>
            <path d="M87.5,68.9 C87.5,71.4 87.5,83.5 87.5,86.2 C85.2,86.2 82.9,86.2 80.4,86.2 C80.4,89.6 80.4,92.8 80.4,96.3 C82.8,96.3 85.1,96.3 87.6,96.3 C87.6,98.7 87.6,101 87.6,103.5 C85.3,103.5 82.9,103.5 80.4,103.5 C80.4,108.6 80.4,113.4 80.4,118.7 C82.8,118.6 85.2,118.5 87.5,118.4 L87.4,118.4 C87.4,120.9 87.4,123.4 87.4,126 C82.6,126 77.8,126 72.8,126 C72.8,112.8 72.8,99.8 72.8,86.5 C75.1,86.5 77.5,86.5 80.1,86.5 C80.1,83.9 80.1,71.8 80.1,69.1 C82.8,68.9 85.1,68.9 87.5,68.9 Z" id="Shape" fill="#4988FD"></path>
            <path d="M49.1,71.3 C40.8,71.3 32.6,71.3 24.4,71.3 C24.4,73.8 24.4,76.1 24.4,78.6 C32.6,78.6 40.8,78.6 49.1,78.6 C49.1,76.2 49.1,73.8 49.1,71.3 Z" id="Shape" fill="#4988FD"></path>
            <path d="M71.7,26.5 C74.3,26.5 76.6,26.5 79,26.5 C79,31.4 79,36.2 79,41.2 C76.6,41.2 74.2,41.2 71.7,41.2 C71.7,36.4 71.7,31.5 71.7,26.5 Z" id="Shape" fill="#4988FD"></path>
            <path d="M71.7,53.7 C71.7,51.3 71.7,49 71.7,46.5 C74.1,46.5 76.5,46.5 79,46.5 C79,48.8 79,51.2 79,53.7 C76.6,53.7 74.2,53.7 71.7,53.7 Z" id="Shape" fill="#4988FD"></path>
            <path d="M79.1,59 C79.1,61.4 79.1,63.7 79.1,66.1 C76.7,66.1 74.3,66.1 71.7,66.1 C71.7,63.8 71.7,61.5 71.7,59 C74.1,59 76.5,59 79.1,59 Z" id="Shape" fill="#4988FD"></path>
            <path d="M106,110.8 C103.5,110.8 101,110.8 98.4,110.8 C98.4,108.5 98.4,106.2 98.4,103.7 C100.8,103.7 103.6,103.7 106,103.7 C106.1,106.1 105.8,108.5 106,110.8 C106,110.9 106,110.8 106,110.8 Z" id="Shape" fill="#4988FD"></path>
            <path d="M56.7,71.3 C56.7,73.8 56.7,76.1 56.7,78.5 C59.1,78.5 61.5,78.5 63.9,78.5 C63.9,76.1 63.9,73.7 63.9,71.3 C61.5,71.3 59.2,71.3 56.7,71.3 Z" id="Shape" fill="#4988FD"></path>
            <path d="M88.2,118.2 C88.2,115.9 88.2,113.6 88.2,111.1 C90.8,111.1 93.2,111.1 95.7,111.1 C95.7,113.5 95.7,115.8 95.7,118.2 C93.1,118.2 90.6,118.2 88.2,118.2 C88.1,118.2 88.2,118.2 88.2,118.2 Z" id="Shape" fill="#4988FD"></path>
            <path d="M99.1,36.5 C104,36.5 108.8,36.5 113.8,36.5 C113.8,41.5 113.8,46.4 113.8,51.4 C109,51.4 104.1,51.4 99.1,51.4 C99.1,46.6 99.1,41.7 99.1,36.5 Z" id="Shape" fill="#4988FD"></path>
            <path d="M51.1,98.6 C51.1,103.6 51.1,108.5 51.1,113.5 C46.2,113.5 41.4,113.5 36.4,113.5 C36.4,108.6 36.4,103.6 36.4,98.6 C41.2,98.6 46,98.6 51.1,98.6 Z" id="Shape" fill="#4988FD"></path>
            <path d="M37,36.5 C41.9,36.5 46.7,36.5 51.6,36.5 C51.6,41.5 51.6,46.4 51.6,51.4 C46.7,51.4 41.9,51.4 37,51.4 C37,46.6 37,41.6 37,36.5 Z" id="Shape" fill="#4988FD"></path>
            <polygon id="Shape" fill="#4988FD" points="109.5 74.4 109.5 90.7 102.2 90.7 102.2 81.8 93.2 81.8 93.2 74.5 102.2 74.5 102.2 74.4"></polygon>
        </g>
    </g>
</svg>