<?xml version="1.0" encoding="UTF-8"?>
<svg width="142px" height="150px" viewBox="0 0 142 150" version="1.1" xmlns="http://www.w3.org/2000/svg" xmlns:xlink="http://www.w3.org/1999/xlink">
    <!-- Generator: Sketch 51.2 (57519) - http://www.bohemiancoding.com/sketch -->
    <title>Receiving_money_1_</title>
    <desc>Created with Sketch.</desc>
    <defs></defs>
    <g id="Page-1" stroke="none" stroke-width="1" fill="none" fill-rule="evenodd">
        <g id="Receiving_money_1_" fill-rule="nonzero">
            <path d="M27.6,120.1 C27.6,120.3 27.6,120.5 27.6,120.6 C27.6,120.6 27.6,120.6 27.6,120.6 C27.6,120.8 27.6,121 27.6,121.1 C27.5,120.9 27.5,120.5 27.6,120.1 Z" id="Shape" fill="#DDECFE"></path>
            <g id="Group" transform="translate(26.000000, 99.000000)">
                <path d="M115.9,28.2 C116,31.2 114.1,33.9 111.3,34.9 L84.2,44.2 C59.4,52.7 66.5,52.7 41.9,44.4 C31.4,40.9 37.2,44 5.8,19.9 C3.2,18.2 1.9,16.3 1.1,13.5 C1.1,13.5 1.1,13.5 1.1,13.5 C1.1,13.5 1,13.2 1,13 C0.9,13 0.8,11 0.8,10.9 C0.8,2.7 9.9,-2.4 16.9,1.9 L47.3,20.4 C47.3,19.7 47.3,19.6 47.3,18.7 C47.2,18.7 47.3,17.2 47.3,17.1 C47.3,17.1 47.3,17.7 47.3,17.7 C47.3,17.9 47.3,18.1 47.4,18.2 C47.5,17.9 47.5,17.5 47.6,17.2 C47.4,16.4 47.3,15.5 47.3,14.6 C47.3,11.7 48.5,9.1 50.4,7.1 C52.3,5.2 55,4 57.9,4 L112.4,7.1 C114.1,7.2 115.4,8.5 115.4,10.2 L115.5,15.1 L115.5,15.5 L115.9,28.2 Z" id="Shape" fill="#C5DCFA"></path>
                <path d="M57.8,25.2 L85.2,25.2 L57.2,27.2 C51.4,27.2 46.6,22.5 46.6,16.6 C46.6,15.1 46.9,13.8 47.4,12.5 C47.3,13.2 47.2,13.9 47.2,14.6 C47.2,20.5 51.9,25.2 57.8,25.2 Z" id="Shape" fill="#BAD3F5"></path>
            </g>
            <path d="M123.9,95.8 L20.2,95.8 C17.2,95.8 14.8,93.4 14.8,90.4 L14.8,44.1 C14.8,41.1 17.2,38.7 20.2,38.7 L123.9,38.7 C126.9,38.7 129.3,41.1 129.3,44.1 L129.3,90.4 C129.3,93.3 126.9,95.8 123.9,95.8 Z" id="Shape" fill="#3973F4"></path>
            <path d="M24.3,46.3 L116.1,46.3 C116.1,49.3 118.5,51.7 121.5,51.7 L121.5,83.1 C118.5,83.1 116.1,85.5 116.1,88.5 L29.7,88.5 C29.7,85.5 27.3,83.1 24.3,83.1 L24.3,46.3" id="Shape" fill="#6097FD"></path>
            <ellipse id="Oval" fill="#3973F4" cx="73.7" cy="67.8" rx="14.1" ry="16.9"></ellipse>
            <path d="M97.9,38.7 L71.1,38.7 L61,29.7 C59.2,28.1 56.8,27.1 54.4,26.9 L46.2,26.4 C45,26.3 43.9,27.1 43.5,28.3 L40.7,37.9 C40.3,39.3 41,40.8 42.3,41.3 L42.6,41.4 L46.1,42.9 L59.7,48.5 C60.6,48.9 61.4,49.4 62.1,49.9 C65.8,52.8 67.2,58 65.1,62.5 C64.2,64.4 62.4,65.5 60.4,65.5 C59.8,65.5 59.3,65.4 58.7,65.2 L41.6,59.3 L20.3,52 C16.9,50.8 13.8,48.8 11.4,46.1 L4.6,38.5 L1.1,34.6 C0.5,34 0.2,33.1 0.2,32.3 C0.2,27.5 0.4,11.2 0.3,4 C0.3,2.1 1.8,0.6 3.7,0.6 L54.1,0.6 C58.2,0.6 62.2,2.3 65.1,5.2 L97.9,38.7 Z" id="Shape" fill="#C5DCFA"></path>
            <path d="M45.7,69.8 L38.1,69.8 C36.5,69.8 35.2,68.5 35.2,66.9 C35.2,65.3 36.5,64 38.1,64 L45.7,64 C47.3,64 48.6,65.3 48.6,66.9 C48.6,68.5 47.3,69.8 45.7,69.8 Z" id="Shape" fill="#3973F4"></path>
            <path d="M108,69.8 L100.8,69.8 C99.2,69.8 97.9,68.5 97.9,66.9 C97.9,65.3 99.2,64 100.8,64 L108,64 C109.6,64 110.9,65.3 110.9,66.9 C110.9,68.5 109.6,69.8 108,69.8 Z" id="Shape" fill="#3973F4"></path>
        </g>
    </g>
</svg>