<?xml version="1.0" encoding="UTF-8"?>
<svg width="149px" height="133px" viewBox="0 0 149 133" version="1.1" xmlns="http://www.w3.org/2000/svg" xmlns:xlink="http://www.w3.org/1999/xlink">
    <!-- Generator: Sketch 51.2 (57519) - http://www.bohemiancoding.com/sketch -->
    <title>Receiving_money_3</title>
    <desc>Created with Sketch.</desc>
    <defs></defs>
    <g id="Page-1" stroke="none" stroke-width="1" fill="none" fill-rule="evenodd">
        <g id="Receiving_money_3" fill-rule="nonzero">
            <path d="M123,59.7 L59,59.7 C58.4,59.7 58,59.3 58,58.7 L58,45.8 C58,45.2 58.4,44.8 59,44.8 L123,44.8 C123.6,44.8 124,45.2 124,45.8 L124,58.7 C124,59.3 123.5,59.7 123,59.7 Z" id="Shape" fill="#4988FD"></path>
            <path d="M123,77 L59,77 C58.4,77 58,76.6 58,76 L58,63.1 C58,62.5 58.4,62.1 59,62.1 L123,62.1 C123.6,62.1 124,62.5 124,63.1 L124,76 C124,76.5 123.5,77 123,77 Z" id="Shape" fill="#4988FD"></path>
            <path d="M123,91.7 L59,91.7 C58.4,91.7 58,91.3 58,90.7 L58,77.8 C58,77.2 58.4,76.8 59,76.8 L123,76.8 C123.6,76.8 124,77.2 124,77.8 L124,90.7 C124,91.3 123.5,91.7 123,91.7 Z" id="Shape" fill="#4988FD"></path>
            <g id="Group" transform="translate(0.000000, 67.000000)">
                <path d="M148.4,36.9 C148.5,40.8 146.1,44.3 142.5,45.5 L107.6,57.5 C75.6,68.4 84.8,68.4 53,57.7 C39.5,53.1 46.9,57.2 6.4,26.1 C3.1,23.9 1.4,21.5 0.4,17.9 C0.4,17.9 0.4,17.9 0.4,17.9 C0.4,17.9 0.3,17.5 0.3,17.2 C0.2,17.2 0,14.6 0,14.5 C0,3.9 11.7,-2.7 20.8,2.9 L60,26.8 C60,26 60,25.8 60,24.6 C60,24.6 59.8,21.1 60,23.3 C60,23.5 60,23.8 60.1,24 C60.2,23.6 60.2,23.1 60.4,22.7 C58.2,14.1 64.7,5.7 73.6,5.7 L143.9,9.7 C146,9.8 147.7,11.6 147.8,13.7 C147.8,22.2 147.7,17.8 148.4,36.9 Z" id="Shape" fill="#C5DCFA"></path>
                <path d="M73.4,33 L108.8,33 L72.6,35.6 C62.9,35.6 56.3,25.7 60.1,16.7 C58.4,25 64.8,33 73.4,33 Z" id="Shape" fill="#BAD3F5"></path>
            </g>
            <path d="M124.1,15.4 C124,15.4 124,15.4 124.1,15.4 C124.1,8 109.3,2 91,2 C72.7,2 57.9,8 57.9,15.4 C57.9,15.4 57.9,15.5 57.9,15.5 L57.9,27.3 C57.9,27.3 57.9,27.4 57.9,27.4 C57.9,27.4 57.9,27.5 57.9,27.5 C58,34.8 72.8,40.8 90.9,40.8 C109.1,40.8 123.8,34.9 123.9,27.5 L123.9,15.4 L124.1,15.4 Z" id="Shape" fill="#4988FD"></path>
            <ellipse id="Oval" fill="#6097FD" cx="91" cy="14.3" rx="33.1" ry="13.4"></ellipse>
            <path d="M82.9,24.8 C82.8,24.8 82.8,24.8 82.7,24.8 C78.6,24.3 74.8,23.4 71.8,22.2 C71.2,21.9 70.9,21.2 71.1,20.6 C71.4,20 72.1,19.7 72.7,19.9 C75.5,21 79.1,21.9 83,22.4 C83.7,22.5 84.2,23.1 84.1,23.8 C84.1,24.4 83.6,24.8 82.9,24.8 Z" id="Shape" fill="#3973F4"></path>
            <path d="M92.1,25.3 C91.4,25.3 90.9,24.8 90.9,24.1 C90.9,23.4 91.4,22.9 92.1,22.8 C99.9,22.7 107.2,21.2 111.6,18.7 C112.2,18.4 112.9,18.6 113.3,19.2 C113.6,19.8 113.4,20.5 112.8,20.9 C108,23.6 100.4,25.2 92.1,25.3 C92.2,25.3 92.1,25.3 92.1,25.3 Z" id="Shape" fill="#3973F4"></path>
            <path d="M109.4,8.6 C109.3,8.6 109.1,8.6 109,8.5 C108.3,8.2 107.7,8 106.9,7.8 C106.3,7.6 105.9,6.9 106.1,6.3 C106.3,5.6 107,5.3 107.6,5.5 C108.4,5.7 109.1,6 109.8,6.3 C110.4,6.5 110.8,7.3 110.5,7.9 C110.3,8.3 109.8,8.6 109.4,8.6 Z" id="Shape" fill="#3973F4"></path>
            <path d="M65.1,15.5 C64.4,15.5 63.9,14.9 63.9,14.3 C63.9,8 75.5,3.2 91,3.2 C92.8,3.2 94.7,3.3 96.5,3.4 C97.2,3.5 97.7,4 97.6,4.7 C97.5,5.4 96.9,5.9 96.3,5.8 C94.6,5.7 92.8,5.6 91,5.6 C76.5,5.6 66.4,10.1 66.4,14.2 C66.4,14.9 65.8,15.5 65.1,15.5 Z" id="Shape" fill="#3973F4"></path>
        </g>
    </g>
</svg>