<?xml version="1.0" encoding="UTF-8"?>
<svg width="136px" height="149px" viewBox="0 0 136 149" version="1.1" xmlns="http://www.w3.org/2000/svg" xmlns:xlink="http://www.w3.org/1999/xlink">
    <!-- Generator: Sketch 51.2 (57519) - http://www.bohemiancoding.com/sketch -->
    <title>Receiving_money_2</title>
    <desc>Created with Sketch.</desc>
    <defs></defs>
    <g id="Page-1" stroke="none" stroke-width="1" fill="none" fill-rule="evenodd">
        <g id="Receiving_money_2" fill-rule="nonzero">
            <g id="Group">
                <circle id="Oval" fill="#6097FD" cx="81.8" cy="64.9" r="33.3"></circle>
                <g transform="translate(52.000000, 36.000000)" fill="#3973F4" id="Shape">
                    <path d="M3.1,31.6 C1.9,31.6 0.9,30.6 0.9,29.5 L0.9,28.9 C0.9,25.7 1.4,22.6 2.4,19.6 C2.8,18.5 4,17.8 5.2,18.2 C6.3,18.6 7,19.8 6.6,21 C5.7,23.5 5.3,26.2 5.3,28.9 L5.3,29.4 C5.3,30.6 4.3,31.6 3.1,31.6 C3.1,31.6 3.1,31.6 3.1,31.6 Z"></path>
                    <path d="M6.6,46.1 C4.7,43.5 3.2,40.7 2.3,37.6 C1.9,36.4 2.6,35.2 3.7,34.9 C4.8,34.5 6.1,35.2 6.4,36.3 C7.2,38.9 8.5,41.3 10.1,43.5 C10.8,44.5 10.6,45.8 9.6,46.6 C8.7,47.3 7.3,47.1 6.6,46.1 Z"></path>
                    <path d="M12.1,51.8 C9.8,50 12.5,46.6 14.7,48.3 L14.9,48.5 C17.2,50.1 14.8,53.8 12.1,51.8 Z"></path>
                    <path d="M38.4,51.9 C44.5,49.6 49.6,44.8 52.2,38.8 C52.7,37.7 54,37.2 55.1,37.7 C56.2,38.2 56.7,39.5 56.2,40.6 C53.1,47.7 47.1,53.3 39.9,56 C37.3,57 35.7,52.9 38.4,51.9 Z"></path>
                    <path d="M53.6,22.6 C51.4,14.3 45,7.7 36.7,5.3 C35.5,5 34.9,3.8 35.2,2.6 C35.5,1.4 36.7,0.8 37.9,1.1 C47.6,3.9 55.2,11.7 57.8,21.4 C58.1,22.6 57.4,23.8 56.2,24.1 C55,24.5 53.9,23.8 53.6,22.6 Z"></path>
                    <path d="M22.2,5.5 C21.3,5.5 20.4,4.9 20.1,3.9 C19.8,2.7 20.4,1.5 21.6,1.2 C22.9,0.8 24.2,0.5 25.5,0.3 C26.7,0.1 27.8,0.9 28,2.1 C28.2,3.3 27.4,4.4 26.2,4.6 C25.1,4.8 24,5 22.9,5.3 C22.7,5.4 22.4,5.5 22.2,5.5 Z"></path>
                </g>
                <path d="M80.1,81.7 L80.1,79.5 C70.5,78.8 74.2,72.8 77.2,74.2 C81,75.9 85.8,75.4 85.8,71.8 C85.8,66.3 74,68 74,59.4 C74,55.7 76.5,52.8 80.4,52 L80.4,49.7 C80.4,47 84.6,47 84.6,49.7 L84.6,51.8 C92.9,52.5 89.5,58 86.6,56.8 C83.6,55.6 79.2,55.8 79.2,59 C79.2,63.8 91,62.4 91,71.6 C91,75.4 88.3,78.5 84.3,79.4 L84.3,81.9 C84.3,84.4 80.1,84.4 80.1,81.7 Z" id="Shape" fill="#FFFFFF"></path>
                <path d="M92.3,33.3 C89.6,32.3 85.7,31.6 81.8,31.6 C76.5,31.6 71.5,32.9 67,35.1 C60.7,29.5 60.2,28.9 58.8,28.1 C58.8,28.1 58.8,28.1 58.8,28.1 C56,26.5 54.2,26.7 45.9,26.2 C44.7,26.1 43.6,26.9 43.3,28.1 C40.5,37.7 39,39.8 42.4,41.2 C60.7,48.8 60.5,48.5 62.6,50.4 C62.7,50.5 63.8,51.7 63.8,51.8 C68.1,57.8 64.6,67 58.4,64.8 C8.3,47.5 18.6,53.7 1.2,34.4 C-0.5,32.6 0.8,32.3 0.5,4 C0.5,2.2 1.9,0.6 3.9,0.6 L53.9,0.6 C58,0.6 61.9,2.3 64.8,5.2 L92.3,33.3 Z" id="Shape" fill="#C5DCFA"></path>
            </g>
            <g id="Group" transform="translate(25.000000, 100.000000)">
                <path d="M110.2,27.3 C110.3,30.2 108.5,32.8 105.8,33.7 L79.9,42.6 C56.1,50.7 63,50.7 39.4,42.8 C29.4,39.4 34.9,42.4 4.9,19.4 C2.5,17.8 1.2,16 0.4,13.3 C0.4,13.3 0.4,13.3 0.4,13.3 C0.4,13.3 0.3,13 0.3,12.8 C0.2,12.8 0.1,10.9 0.1,10.8 C0.1,3 8.8,-2 15.5,2.2 L44.6,19.9 C44.6,19.3 44.6,19.2 44.6,18.3 C44.6,18.3 44.5,15.7 44.6,17.3 C44.6,17.5 44.6,17.7 44.7,17.8 C44.8,17.5 44.8,17.2 44.9,16.8 C43.2,10.5 48.1,4.2 54.7,4.2 L106.9,7.2 C108.5,7.3 109.7,8.6 109.8,10.2 C109.7,16.4 109.6,13.1 110.2,27.3 Z" id="Shape" fill="#C5DCFA"></path>
                <path d="M54.5,24.4 L80.7,24.4 L53.9,26.3 C46.7,26.3 41.8,19 44.6,12.3 C43.4,18.5 48.1,24.4 54.5,24.4 Z" id="Shape" fill="#BAD3F5"></path>
            </g>
        </g>
    </g>
</svg>