<?xml version="1.0" encoding="UTF-8"?>
<svg width="149px" height="133px" viewBox="0 0 149 133" version="1.1" xmlns="http://www.w3.org/2000/svg" xmlns:xlink="http://www.w3.org/1999/xlink">
    <!-- Generator: Sketch 51.2 (57519) - http://www.bohemiancoding.com/sketch -->
    <title>Recipt_2</title>
    <desc>Created with Sketch.</desc>
    <defs></defs>
    <g id="Page-1" stroke="none" stroke-width="1" fill="none" fill-rule="evenodd">
        <g id="Recipt_2" fill-rule="nonzero">
            <path d="M143.4,31.8 L6.2,31.8 C3.1,31.8 0.7,29.3 0.7,26.3 L0.7,5.5 C0.7,2.4 3.2,2.27373675e-13 6.2,2.27373675e-13 L143.4,2.27373675e-13 C146.5,2.27373675e-13 148.9,2.5 148.9,5.5 L148.9,26.3 C148.9,29.3 146.4,31.8 143.4,31.8 Z" id="Shape" fill="#6097FD"></path>
            <path d="M135.9,20.5 L14.4,20.5 C12.1,20.5 10.3,18.7 10.3,16.4 C10.3,14.1 12.1,12.3 14.4,12.3 L135.9,12.3 C138.2,12.3 140,14.1 140,16.4 C140,18.7 138.1,20.5 135.9,20.5 Z" id="Shape" fill="#2767F4"></path>
            <g id="Group" transform="translate(23.000000, 11.000000)">
                <path d="M104.7,0.9 L104.7,115.6 C104.7,118 101.8,119.3 100,117.6 L97.9,115.6 C96.8,114.6 95.1,114.6 94,115.6 L89.2,120.3 C88.1,121.3 86.4,121.3 85.3,120.3 L80.5,115.6 C79.4,114.6 77.7,114.6 76.6,115.6 L71.8,120.3 C70.7,121.3 69,121.3 67.9,120.3 L63.1,115.6 C62,114.6 60.3,114.6 59.2,115.6 L54.4,120.3 C53.3,121.3 51.6,121.3 50.5,120.3 L45.7,115.6 C44.6,114.6 42.9,114.6 41.8,115.6 L37,120.3 C35.9,121.3 34.2,121.3 33.1,120.3 L28.3,115.6 C27.2,114.6 25.5,114.6 24.4,115.6 L19.6,120.3 C18.5,121.3 16.8,121.3 15.7,120.3 L8.9,113.7 L8.4,114.2 L4.9,117.6 C3.1,119.3 0.2,118.1 0.2,115.6 L0.2,0.9 L104.7,0.9 Z" id="Shape" fill="#C5DCFA"></path>
                <g transform="translate(16.000000, 10.000000)" fill="#4988FD" id="Shape">
                    <path d="M69.2,4.8 L57.9,4.8 C56.8,4.8 55.8,3.9 55.8,2.7 C55.8,1.5 56.7,0.6 57.9,0.6 L69.2,0.6 C70.3,0.6 71.3,1.5 71.3,2.7 C71.3,3.9 70.3,4.8 69.2,4.8 Z"></path>
                    <path d="M49.8,4.8 L2.8,4.8 C1.7,4.8 0.7,3.9 0.7,2.7 C0.7,1.5 1.6,0.6 2.8,0.6 L49.8,0.6 C50.9,0.6 51.9,1.5 51.9,2.7 C51.9,3.9 51,4.8 49.8,4.8 Z"></path>
                    <path d="M69.2,25 L49.8,25 C48.7,25 47.7,24.1 47.7,22.9 C47.7,21.7 48.6,20.8 49.8,20.8 L69.2,20.8 C70.3,20.8 71.3,21.7 71.3,22.9 C71.3,24.1 70.3,25 69.2,25 Z"></path>
                    <path d="M42.1,25 L19.5,25 C18.4,25 17.4,24.1 17.4,22.9 C17.4,21.7 18.3,20.8 19.5,20.8 L42.1,20.8 C43.2,20.8 44.2,21.7 44.2,22.9 C44.2,24.1 43.2,25 42.1,25 Z"></path>
                    <path d="M11.7,25 L2.8,25 C1.7,25 0.7,24.1 0.7,22.9 C0.7,21.7 1.6,20.8 2.8,20.8 L11.7,20.8 C12.8,20.8 13.8,21.7 13.8,22.9 C13.8,24.1 12.8,25 11.7,25 Z"></path>
                    <path d="M36,45.1 L20.8,45.1 C19.7,45.1 18.7,44.2 18.7,43 C18.7,41.9 19.6,40.9 20.8,40.9 L36,40.9 C37.1,40.9 38.1,41.8 38.1,43 C38.1,44.2 37.1,45.1 36,45.1 Z"></path>
                    <path d="M12.4,45.1 L2.9,45.1 C1.8,45.1 0.8,44.2 0.8,43 C0.8,41.9 1.7,40.9 2.9,40.9 L12.4,40.9 C13.5,40.9 14.5,41.8 14.5,43 C14.4,44.2 13.5,45.1 12.4,45.1 Z"></path>
                    <path d="M36,65.2 L2.8,65.2 C1.7,65.2 0.7,64.3 0.7,63.1 C0.7,62 1.6,61 2.8,61 L36,61 C37.1,61 38.1,61.9 38.1,63.1 C38.1,64.3 37.1,65.2 36,65.2 Z"></path>
                    <path d="M36,85.3 L16.6,85.3 C15.5,85.3 14.5,84.4 14.5,83.2 C14.5,82.1 15.4,81.1 16.6,81.1 L36,81.1 C37.1,81.1 38.1,82 38.1,83.2 C38.1,84.4 37.1,85.3 36,85.3 Z"></path>
                    <path d="M7.8,85.3 L2.8,85.3 C1.7,85.3 0.7,84.4 0.7,83.2 C0.7,82.1 1.6,81.1 2.8,81.1 L7.8,81.1 C8.9,81.1 9.9,82 9.9,83.2 C9.9,84.4 9,85.3 7.8,85.3 Z"></path>
                </g>
                <path d="M76.1,94.6 L76.1,91.5 C64.2,90.7 67.3,83.9 70.7,83.9 C71.1,83.9 71.6,84 72,84.2 C73.3,84.8 75.4,85.5 78,85.5 C81.5,85.5 83.9,83.6 83.9,80.8 C83.9,73.1 67.7,75.6 67.7,63.8 C67.7,58.7 71.1,54.8 76.5,53.6 L76.5,50.4 C76.5,46.7 82.2,46.7 82.2,50.4 L82.2,53.3 C84.1,53.5 85.8,53.8 87.4,54.5 C91,56 88.9,61.7 85,60.2 C80.9,58.5 74.8,58.8 74.8,63.2 C74.8,69.9 91,67.9 91,80.5 C91,85.8 87.3,90 81.8,91.2 L81.8,94.6 C81.8,96.2 80.5,97.4 79,97.4 C77.3,97.4 76.1,96.1 76.1,94.6 Z" id="Shape" fill="#4988FD"></path>
            </g>
        </g>
    </g>
</svg>