<?xml version="1.0" encoding="UTF-8"?>
<svg width="103px" height="139px" viewBox="0 0 103 139" version="1.1" xmlns="http://www.w3.org/2000/svg" xmlns:xlink="http://www.w3.org/1999/xlink">
    <!-- Generator: Sketch 51.2 (57519) - http://www.bohemiancoding.com/sketch -->
    <title>Recipt</title>
    <desc>Created with Sketch.</desc>
    <defs></defs>
    <g id="Page-1" stroke="none" stroke-width="1" fill="none" fill-rule="evenodd">
        <g id="Recipt" fill-rule="nonzero">
            <path d="M102.7,5.5 L102.7,133.3 C102.7,135.5 100.1,136.5 98.6,135 L95.9,132.4 C95,131.5 93.4,131.5 92.5,132.4 L87.4,137.4 C86.5,138.3 84.9,138.3 84,137.4 L78.9,132.4 C78,131.5 76.4,131.5 75.5,132.4 L70.4,137.4 C69.5,138.3 67.9,138.3 67,137.4 L61.9,132.4 C61,131.5 59.4,131.5 58.5,132.4 L53.4,137.4 C52.5,138.3 50.9,138.3 50,137.4 L44.9,132.4 C44,131.5 42.4,131.5 41.5,132.4 L36.4,137.4 C35.5,138.3 33.9,138.3 33,137.4 L27.9,132.4 C27,131.5 25.4,131.5 24.5,132.4 L19.4,137.4 C18.5,138.3 16.9,138.3 16,137.4 L9.2,130.8 L8.7,131.3 L4.8,135.1 C3.3,136.6 0.7,135.5 0.7,133.4 L0.7,5.6 C0.7,3.4 3.3,2.4 4.8,3.9 L7.5,6.5 C8.4,7.4 10,7.4 10.9,6.5 L16,1.5 C16.9,0.6 18.5,0.6 19.4,1.5 L24.5,6.5 C25.4,7.4 27,7.4 27.9,6.5 L33,1.5 C33.9,0.6 35.5,0.6 36.4,1.5 L41.5,6.5 C42.4,7.4 44,7.4 44.9,6.5 L50,1.5 C50.9,0.6 52.5,0.6 53.4,1.5 L58.5,6.5 C59.4,7.4 61,7.4 61.9,6.5 L67,1.5 C67.9,0.6 69.5,0.6 70.4,1.5 L75.5,6.5 C76.4,7.4 78,7.4 78.9,6.5 L84,1.5 C84.9,0.6 86.5,0.6 87.4,1.5 L92.5,6.5 C93.4,7.4 95,7.4 95.9,6.5 L98.6,3.9 C100.1,2.2 102.7,3.3 102.7,5.5 Z" id="Shape" fill="#C5DCFA"></path>
            <g id="Group" transform="translate(16.000000, 30.000000)" fill="#4988FD">
                <path d="M67.5,4.2 L56.5,4.2 C55.4,4.2 54.5,3.3 54.5,2.2 C54.5,1.1 55.4,0.2 56.5,0.2 L67.5,0.2 C68.6,0.2 69.5,1.1 69.5,2.2 C69.5,3.3 68.6,4.2 67.5,4.2 Z" id="Shape"></path>
                <path d="M51.1,4.2 L2.8,4.2 C1.7,4.2 0.8,3.3 0.8,2.2 C0.8,1.1 1.7,0.2 2.8,0.2 L51.1,0.2 C52.2,0.2 53.1,1.1 53.1,2.2 C53.1,3.3 52.2,4.2 51.1,4.2 Z" id="Shape"></path>
                <path d="M67.5,23.9 L48.5,23.9 C47.4,23.9 46.5,23 46.5,21.9 C46.5,20.8 47.4,19.9 48.5,19.9 L67.5,19.9 C68.6,19.9 69.5,20.8 69.5,21.9 C69.5,23 68.6,23.9 67.5,23.9 Z" id="Shape"></path>
                <path d="M41.7,23.9 L19,23.9 C17.9,23.9 17,23 17,21.9 C17,20.8 17.9,19.9 19,19.9 L41.7,19.9 C42.8,19.9 43.7,20.8 43.7,21.9 C43.7,23 42.8,23.9 41.7,23.9 Z" id="Shape"></path>
                <path d="M11.4,23.9 L2.7,23.9 C1.6,23.9 0.7,23 0.7,21.9 C0.7,20.8 1.6,19.9 2.7,19.9 L11.4,19.9 C12.5,19.9 13.4,20.8 13.4,21.9 C13.4,23 12.5,23.9 11.4,23.9 Z" id="Shape"></path>
                <path d="M35.2,43.5 L20.2,43.5 C19.1,43.5 18.2,42.6 18.2,41.5 C18.2,40.4 19.1,39.5 20.2,39.5 L35.2,39.5 C36.3,39.5 37.2,40.4 37.2,41.5 C37.2,42.6 36.3,43.5 35.2,43.5 Z" id="Shape"></path>
                <path d="M12.1,43.5 L2.8,43.5 C1.7,43.5 0.8,42.6 0.8,41.5 C0.8,40.4 1.7,39.5 2.8,39.5 L12.1,39.5 C13.2,39.5 14.1,40.4 14.1,41.5 C14.1,42.6 13.2,43.5 12.1,43.5 Z" id="Shape"></path>
                <path d="M35.2,63.2 L2.8,63.2 C1.7,63.2 0.8,62.3 0.8,61.2 C0.8,60.1 1.7,59.2 2.8,59.2 L35.2,59.2 C36.3,59.2 37.2,60.1 37.2,61.2 C37.2,62.3 36.3,63.2 35.2,63.2 Z" id="Shape"></path>
                <path d="M35.2,82.8 L15.5,82.8 C14.4,82.8 13.5,81.9 13.5,80.8 C13.5,79.7 14.4,78.8 15.5,78.8 L35.2,78.8 C36.3,78.8 37.2,79.7 37.2,80.8 C37.2,81.9 36.3,82.8 35.2,82.8 Z" id="Shape"></path>
                <path d="M7.6,82.8 L2.7,82.8 C1.6,82.8 0.7,81.9 0.7,80.8 C0.7,79.7 1.6,78.8 2.7,78.8 L7.6,78.8 C8.7,78.8 9.6,79.7 9.6,80.8 C9.6,81.9 8.7,82.8 7.6,82.8 Z" id="Shape"></path>
            </g>
            <path d="M77.5,114.9 C76,114.9 74.7,113.7 74.7,112.1 L74.7,109.1 C72.4,108.9 70.1,108.4 68.2,107.5 C66.8,106.8 66.1,105.2 66.6,103.8 C67,102.6 68.2,101.8 69.4,101.8 C69.8,101.8 70.3,101.9 70.6,102.1 C71.9,102.7 74,103.4 76.5,103.4 C80,103.4 82.3,101.6 82.3,98.8 C82.3,96.3 80.6,94.6 76.5,93 C71.3,91 66.5,88.2 66.5,82.2 C66.5,77.2 69.8,73.4 75.1,72.2 L75.1,69 C75.1,67.5 76.3,66.2 77.9,66.2 C79.5,66.2 80.7,67.4 80.7,69 L80.7,71.8 C82.5,71.9 84.2,72.3 85.8,73 C87.3,73.6 88,75.3 87.4,76.8 C87,78 85.9,78.7 84.6,78.7 C84.2,78.7 83.8,78.6 83.4,78.5 C81.9,77.9 80.2,77.6 78.5,77.6 C74.8,77.6 73.5,79.7 73.5,81.5 C73.5,83.7 74.9,85 79.9,87.1 C86.5,89.8 89.3,93.2 89.3,98.4 C89.3,103.5 85.7,107.7 80.3,108.9 L80.3,112.2 C80.3,113.7 79.1,114.9 77.5,114.9 Z" id="Shape" fill="#4988FD"></path>
        </g>
    </g>
</svg>