<?xml version="1.0" encoding="UTF-8"?>
<svg width="144px" height="150px" viewBox="0 0 144 150" version="1.1" xmlns="http://www.w3.org/2000/svg" xmlns:xlink="http://www.w3.org/1999/xlink">
    <!-- Generator: Sketch 51.2 (57519) - http://www.bohemiancoding.com/sketch -->
    <title>Recipt_3</title>
    <desc>Created with Sketch.</desc>
    <defs></defs>
    <g id="Page-1" stroke="none" stroke-width="1" fill="none" fill-rule="evenodd">
        <g id="Recipt_3" fill-rule="nonzero">
            <path d="M138.9,27.4 L33.7,27.4 C31.2,27.4 29.2,25.4 29.2,22.9 L29.2,5.2 C29.2,2.7 31.2,0.7 33.7,0.7 L138.9,0.7 C141.4,0.7 143.4,2.7 143.4,5.2 L143.4,22.9 C143.4,25.4 141.4,27.4 138.9,27.4 Z" id="Shape" fill="#6097FD"></path>
            <path d="M130.7,17.4 L40.8,17.4 C39.2,17.4 37.9,16 37.9,14.4 C37.9,12.7 39.2,11.4 40.8,11.4 L130.7,11.4 C132.3,11.4 133.6,12.8 133.6,14.4 C133.6,16.1 132.3,17.4 130.7,17.4 Z" id="Shape" fill="#2767F4"></path>
            <g id="Group" transform="translate(0.000000, 13.000000)">
                <path d="M111.8,63.9 L111.8,84 C111.8,85.6 110,86.5 108.7,85.6 L104.6,82.6 C103.9,82.1 103,82.1 102.3,82.6 L96.3,87.1 C95.6,87.6 94.7,87.6 94,87.1 L88,82.6 C87.3,82.1 86.4,82.1 85.7,82.6 L79.7,87.1 C79,87.6 78.1,87.6 77.4,87.1 L71.4,82.6 C70.7,82.1 69.8,82.1 69.1,82.6 L63.1,87.1 C62.4,87.6 61.5,87.6 60.8,87.1 L54.8,82.6 C54.1,82.1 53.2,82.1 52.5,82.6 L48.4,85.6 C47.1,86.6 45.3,85.6 45.3,84 L45.3,20.2 C45.4,9.1 47.5,4.2 56.9,0.6 L123.5,0.6 C114.2,3 111.5,8.8 111.9,20.2 L111.9,48.4 L111.9,63.9 L111.8,63.9 Z" id="Shape" fill="#DFECFD"></path>
                <path d="M96.5,27.6 L74.5,27.6 C73.4,27.6 72.5,26.7 72.5,25.6 C72.5,24.5 73.4,23.6 74.5,23.6 L96.5,23.6 C97.6,23.6 98.5,24.5 98.5,25.6 C98.5,26.7 97.6,27.6 96.5,27.6 Z" id="Shape" fill="#4988FD"></path>
                <path d="M66.8,27.6 L57.1,27.6 C56,27.6 55.1,26.7 55.1,25.6 C55.1,24.5 56,23.6 57.1,23.6 L66.8,23.6 C67.9,23.6 68.8,24.5 68.8,25.6 C68.8,26.7 67.9,27.6 66.8,27.6 Z" id="Shape" fill="#4988FD"></path>
                <path d="M96.5,45 L57.1,45 C56,45 55.1,44.1 55.1,43 C55.1,41.9 56,41 57.1,41 L96.5,41 C97.6,41 98.5,41.9 98.5,43 C98.5,44.1 97.6,45 96.5,45 Z" id="Shape" fill="#4988FD"></path>
                <path d="M96.5,62.3 L81.1,62.3 C80,62.3 79.1,61.4 79.1,60.3 C79.1,59.2 80,58.3 81.1,58.3 L96.5,58.3 C97.6,58.3 98.5,59.2 98.5,60.3 C98.5,61.4 97.6,62.3 96.5,62.3 Z" id="Shape" fill="#4988FD"></path>
                <path d="M63,62.3 L57.1,62.3 C56,62.3 55.1,61.4 55.1,60.3 C55.1,59.2 56,58.3 57.1,58.3 L63,58.3 C64.1,58.3 65,59.2 65,60.3 C65,61.4 64.1,62.3 63,62.3 Z" id="Shape" fill="#4988FD"></path>
                <path d="M45.2,22.2 L45.2,53.5 L34.6,65.3 C32.7,67.4 31.5,70.2 31.4,73.1 L30.8,82.7 C30.7,84.1 31.6,85.4 33,85.8 L44.2,89.1 C45.8,89.6 47.6,88.8 48.2,87.2 L48.4,86.8 L50.1,82.7 L56.7,66.9 C57.1,65.9 57.7,64.9 58.4,64.1 C61.8,59.7 67.9,58.1 73.1,60.6 C75.3,61.6 76.6,63.8 76.6,66.1 C76.6,66.7 76.5,67.4 76.3,68.1 L69.4,88.1 L60.8,112.9 C59.4,116.9 57.1,120.5 53.9,123.3 L45,131.3 L40.5,135.3 C39.8,136 38.8,136.3 37.8,136.3 C32.2,136.2 13.1,136 4.7,136.1 C2.5,136.1 0.7,134.3 0.7,132.1 L0.7,73.3 C0.7,68.5 2.7,63.8 6.1,60.5 L45.2,22.2 Z" id="Shape" fill="#C5DCFA"></path>
            </g>
        </g>
    </g>
</svg>