<?xml version="1.0" encoding="UTF-8"?>
<svg width="148px" height="86px" viewBox="0 0 148 86" version="1.1" xmlns="http://www.w3.org/2000/svg" xmlns:xlink="http://www.w3.org/1999/xlink">
    <!-- Generator: Sketch 51.2 (57519) - http://www.bohemiancoding.com/sketch -->
    <title>Responsive</title>
    <desc>Created with Sketch.</desc>
    <defs></defs>
    <g id="Page-1" stroke="none" stroke-width="1" fill="none" fill-rule="evenodd">
        <g id="Responsive" fill-rule="nonzero">
            <g id="Group">
                <path d="M128,76.9 L128,80.2 C128,83.2 125.4,85.7 122.2,85.7 L5.9,85.7 C2.7,85.7 0.1,83.2 0.1,80.2 L0.1,76.9 L52.7,76.9 C53.1,78.1 54.4,79 55.8,79 L72.2,79 C73.6,79 74.9,78.1 75.3,76.9 L128,76.9 Z" id="Shape" fill="#2767F4"></path>
                <path d="M121.4,76.9 L6.6,76.9 L6.6,4.2 C6.6,1.9 8.5,0 10.8,0 L117.2,0 C119.5,0 121.4,1.9 121.4,4.2 L121.4,76.9 Z" id="Shape" fill="#2767F4"></path>
                <polyline id="Shape" fill="#FFFFFF" points="92.8 77.2 12 77.2 12 6.1 115.6 6.1 115.6 77.2 104.8 77.2"></polyline>
                <path d="M12,6.1 L115.6,6.1" id="Shape" fill="#FFFFFF"></path>
            </g>
            <g id="Group" transform="translate(76.000000, 5.000000)">
                <path d="M52.4,80.8 L6.1,80.8 C3,80.8 0.5,78.3 0.5,75.2 L0.5,6.6 C0.5,3.5 3,1 6.1,1 L52.4,1 C55.5,1 58,3.5 58,6.6 L58,75.2 C58,78.2 55.5,80.8 52.4,80.8 Z" id="Shape" fill="#FFFFFF"></path>
                <path d="M58,6.5 L58,75.2 C58,78.3 55.5,80.8 52.4,80.8 L6.1,80.8 C3,80.8 0.5,78.3 0.5,75.2 L0.5,6.5 C0.5,3.4 3,0.9 6.1,0.9 L52.4,0.9 C55.5,0.8 58,3.4 58,6.5 Z" id="Shape" fill="#4988FD"></path>
                <circle id="Oval" fill="#2767F4" cx="28.7" cy="75.6" r="2.6"></circle>
                <g transform="translate(23.000000, 3.000000)" fill="#2767F4" id="Shape">
                    <path d="M9.9,1.5 L4.2,1.5 C3.8,1.5 3.5,1.2 3.5,0.8 C3.5,0.4 3.8,0.1 4.2,0.1 L9.9,0.1 C10.3,0.1 10.6,0.4 10.6,0.8 C10.6,1.2 10.3,1.5 9.9,1.5 Z"></path>
                    <path d="M1.7,1.5 L1.5,1.5 C1.1,1.5 0.8,1.2 0.8,0.8 C0.8,0.4 1.1,0.1 1.5,0.1 L1.7,0.1 C2.1,0.1 2.4,0.4 2.4,0.8 C2.4,1.2 2.1,1.5 1.7,1.5 Z"></path>
                </g>
                <rect id="Rectangle-path" fill="#FFFFFF" x="2.4" y="6.3" width="53.6" height="64.4"></rect>
            </g>
            <g id="Group" transform="translate(114.000000, 23.000000)">
                <path d="M29.1,62.8 L4.5,62.8 C2,62.8 0,60.8 0,58.3 L0,5 C0,2.5 2,0.5 4.5,0.5 L29.1,0.5 C31.6,0.5 33.6,2.5 33.6,5 L33.6,58.3 C33.6,60.8 31.6,62.8 29.1,62.8 Z" id="Shape" fill="#FFFFFF"></path>
                <path d="M33.6,5 L33.6,58.3 C33.6,60.8 31.6,62.8 29.1,62.8 L4.5,62.8 C2,62.8 0,60.8 0,58.3 L0,5 C0,2.5 2,0.5 4.5,0.5 L29.1,0.5 C31.6,0.5 33.6,2.5 33.6,5 Z" id="Shape" fill="#6097FD"></path>
                <circle id="Oval" fill="#2767F4" cx="16.8" cy="58.7" r="2.1"></circle>
                <g transform="translate(13.000000, 2.000000)" fill="#2767F4" id="Shape">
                    <path d="M7.1,1.9 L2.5,1.9 C2.2,1.9 2,1.7 2,1.4 C2,1.1 2.2,0.9 2.5,0.9 L7.1,0.9 C7.4,0.9 7.6,1.1 7.6,1.4 C7.6,1.7 7.3,1.9 7.1,1.9 Z"></path>
                    <path d="M0.7,1.9 L0.6,1.9 C0.3,1.9 0.1,1.7 0.1,1.4 C0.1,1.1 0.3,0.9 0.6,0.9 L0.7,0.9 C1,0.9 1.2,1.1 1.2,1.4 C1.2,1.7 1,1.9 0.7,1.9 Z"></path>
                </g>
                <rect id="Rectangle-path" fill="#FFFFFF" x="1.6" y="5.8" width="30.5" height="49"></rect>
            </g>
        </g>
    </g>
</svg>