<?xml version="1.0" encoding="UTF-8"?>
<svg width="132px" height="147px" viewBox="0 0 132 147" version="1.1" xmlns="http://www.w3.org/2000/svg" xmlns:xlink="http://www.w3.org/1999/xlink">
    <!-- Generator: Sketch 51.2 (57519) - http://www.bohemiancoding.com/sketch -->
    <title>Return_policy</title>
    <desc>Created with Sketch.</desc>
    <defs></defs>
    <g id="Page-1" stroke="none" stroke-width="1" fill="none" fill-rule="evenodd">
        <g id="Return_policy" fill-rule="nonzero">
            <path d="M124.6,81.3 C129.1,81.3 132.4,85.3 131.8,89.7 C130.4,99.1 127,108.3 121.4,116.7 C121.4,116.7 121.4,116.7 121.4,116.8 C120.6,118 119.6,119.4 118.7,120.6 C118.7,121.1 112.9,127.2 112.5,127.5 C68.2,166.9 8.2,138.9 1.2,89.6 C1.2,89.5 1.2,89.5 1.2,89.5 C-4.1,54 22.3,18.1 60.1,14.6 L57.5,12 C54.8,9.3 54.8,4.8 57.5,2.1 C60.2,-0.6 64.7,-0.6 67.4,2.1 L83,17.7 C85.7,20.4 85.7,24.9 83,27.6 C66.4,44.2 66.3,45.2 62.5,45.2 C56.3,45.2 53.1,37.7 57.5,33.2 L61.6,29.1 C49.8,30.3 41,35.1 39.8,36.3 C26.8,43.8 16.2,59.6 15.2,76.5 C15.1,76.6 15.1,79.9 15.1,80 C14.7,119.6 58.2,143 88.3,126.7 C94.6,123.8 101.8,117.9 102.2,117.1 C102.4,117 104.7,114.5 104.9,114.3 C111.7,106.9 116,96.7 117.4,87.5 C117.9,83.9 121,81.3 124.6,81.3 Z" id="Shape" fill="#4988FD"></path>
            <circle id="Oval" fill="#4988FD" cx="123.8" cy="64.7" r="7.1"></circle>
            <circle id="Oval" fill="#4988FD" cx="113.6" cy="44.1" r="7.1"></circle>
            <circle id="Oval" fill="#4988FD" cx="97.3" cy="29.8" r="7.1"></circle>
            <circle id="Oval" fill="#4988FD" cx="97.3" cy="29.8" r="7.1"></circle>
            <path d="M66.6,112.5 C64.3,112.5 62.5,110.7 62.5,108.4 L62.5,105.5 C59.9,105.2 57.3,104.5 55.2,103.5 C53.1,102.5 52.1,100.2 52.9,98 C53.5,96.2 55.2,95 57,95 C57.6,95 58.2,95.1 58.8,95.4 C60.3,96.1 62.6,96.9 65.5,96.9 C69.1,96.9 71.6,95 71.6,92.2 C71.6,90.3 70.8,88.2 65.2,86 C59,83.6 52.7,80.1 52.7,72.4 C52.7,66.3 56.7,61.5 63,59.8 L63,56.7 C63,54.4 64.8,52.6 67.1,52.6 C69.4,52.6 71.2,54.4 71.2,56.7 L71.2,59.3 C73.2,59.5 75.1,60 76.7,60.7 C78.9,61.6 79.9,64.1 79.1,66.3 C78.4,68 76.8,69.1 75,69.1 C74.4,69.1 73.9,69 73.3,68.8 C71.6,68.1 69.7,67.7 67.7,67.7 C63.9,67.7 62.5,69.7 62.5,71.6 C62.5,73.6 63.5,75 69.7,77.5 C75.2,79.7 81.5,83.4 81.5,91.8 C81.5,98.1 77.2,103.3 70.7,105 L70.7,108.4 C70.8,110.6 68.9,112.5 66.6,112.5 Z" id="Shape" fill="#2767F4"></path>
        </g>
    </g>
</svg>