<?xml version="1.0" encoding="UTF-8"?>
<svg width="143px" height="150px" viewBox="0 0 143 150" version="1.1" xmlns="http://www.w3.org/2000/svg" xmlns:xlink="http://www.w3.org/1999/xlink">
    <!-- Generator: Sketch 51.2 (57519) - http://www.bohemiancoding.com/sketch -->
    <title>Rings</title>
    <desc>Created with Sketch.</desc>
    <defs></defs>
    <g id="Page-1" stroke="none" stroke-width="1" fill="none" fill-rule="evenodd">
        <g id="Rings" fill-rule="nonzero">
            <path d="M44.5,67.1 C42,67.1 40,65.1 40,62.6 L40,5 C40,2.5 42,0.5 44.5,0.5 C47,0.5 49,2.5 49,5 L49,62.6 C49,65.1 46.9,67.1 44.5,67.1 Z" id="Shape" fill="#D5E6FD"></path>
            <path d="M98.2,47.9 C95.7,47.9 93.7,45.9 93.7,43.4 L93.7,5 C93.7,2.5 95.7,0.5 98.2,0.5 C100.7,0.5 102.7,2.5 102.7,5 L102.7,43.4 C102.7,45.9 100.6,47.9 98.2,47.9 Z" id="Shape" fill="#D5E6FD"></path>
            <path d="M82.6,127.2 C75.2,140.6 60.9,149.7 44.5,149.7 C20.5,149.7 0.9,130.2 0.9,106.1 C0.9,82.1 20.4,62.5 44.5,62.5 C50,62.5 55.2,63.5 60,65.4 M56.1,81 C52.6,79.4 48.6,78.5 44.5,78.5 C29.2,78.5 16.8,90.9 16.8,106.2 C16.8,121.5 29.2,133.9 44.5,133.9 C55.2,133.9 64.6,127.8 69.2,118.8" id="Shape" fill="#3973F4"></path>
            <path d="M99.2,130.5 C75.2,130.5 55.6,111 55.6,86.9 C55.6,62.8 75.1,43.3 99.2,43.3 C123.3,43.3 142.8,62.8 142.8,86.9 C142.8,111 123.2,130.5 99.2,130.5 Z M99.2,59.2 C83.9,59.2 71.5,71.6 71.5,86.9 C71.5,102.2 83.9,114.6 99.2,114.6 C114.5,114.6 126.9,102.2 126.9,86.9 C126.9,71.6 114.5,59.2 99.2,59.2 Z" id="Shape" fill="#4988FD"></path>
        </g>
    </g>
</svg>