<?xml version="1.0" encoding="UTF-8"?>
<svg width="151px" height="128px" viewBox="0 0 151 128" version="1.1" xmlns="http://www.w3.org/2000/svg" xmlns:xlink="http://www.w3.org/1999/xlink">
    <!-- Generator: Sketch 51.2 (57519) - http://www.bohemiancoding.com/sketch -->
    <title>Router</title>
    <desc>Created with Sketch.</desc>
    <defs></defs>
    <g id="Page-1" stroke="none" stroke-width="1" fill="none" fill-rule="evenodd">
        <g id="Router" fill-rule="nonzero">
            <path d="M28.2,120.9 L28.2,124.5 C28.2,126 27,127.3 25.4,127.3 L18.9,127.3 C17.4,127.3 16.1,126.1 16.1,124.5 L16.1,120.9" id="Shape" fill="#2767F4"></path>
            <path d="M137.6,120.9 L137.6,124.5 C137.6,126 136.4,127.3 134.8,127.3 L128.3,127.3 C126.8,127.3 125.5,126.1 125.5,124.5 L125.5,120.9" id="Shape" fill="#2767F4"></path>
            <g id="Group" fill="#C5DCFA">
                <path d="M14.1,29.4 C12.9,29.4 11.7,28.8 11.1,27.7 C10.1,26 10.7,23.9 12.4,22.9 C13.6,22.2 14.9,21.5 16.2,21 C20.4,19.2 24.9,18.3 29.5,18.3 C35.5,18.3 41.4,19.9 46.6,22.9 C48.3,23.9 48.8,26 47.9,27.7 C46.9,29.4 44.8,29.9 43.1,29 C39,26.6 34.3,25.4 29.5,25.4 C25.9,25.4 22.3,26.1 19,27.5 C18,27.9 16.9,28.5 16,29 C15.3,29.3 14.7,29.4 14.1,29.4 Z" id="Shape"></path>
                <path d="M54.5,16.4 C53.7,16.4 53,16.1 52.3,15.6 C45.8,10.4 37.7,7.5 29.4,7.5 C22.2,7.5 15.3,9.5 9.4,13.4 C8.4,14.1 7.4,14.8 6.5,15.5 C5,16.7 2.8,16.5 1.6,15 C0.4,13.5 0.6,11.3 2.1,10.1 C3.2,9.2 4.4,8.4 5.6,7.6 C12.6,3 20.9,0.5 29.4,0.5 C39.3,0.5 49,3.9 56.7,10.1 C58.2,11.3 58.4,13.5 57.2,15 C56.5,15.9 55.5,16.4 54.5,16.4 Z" id="Shape"></path>
            </g>
            <path d="M29.7,82.9 C27.8,82.9 26.2,81.3 26.2,79.4 L26.2,39 C26.2,37.1 27.8,35.5 29.7,35.5 C31.6,35.5 33.2,37.1 33.2,39 L33.2,79.5 C33.2,81.3 31.6,82.9 29.7,82.9 Z" id="Shape" fill="#2767F4"></path>
            <path d="M150.6,87.5 L150.6,112.9 C150.6,117.3 147,120.9 142.6,120.9 L10.7,120.9 C9.5,120.9 8.3,120.6 7.3,120.1 C4.6,118.8 2.7,116 2.7,112.8 L2.7,87.4 C2.7,83 6.3,79.4 10.7,79.4 L142.6,79.4 C146.4,79.4 149.7,82.1 150.4,85.7 C150.6,86.3 150.6,86.9 150.6,87.5 Z" id="Shape" fill="#4988FD"></path>
            <circle id="Oval" fill="#FFFFFF" cx="130.1" cy="100.2" r="10.1"></circle>
            <polyline id="Shape" fill="#2767F4" points="28.8 94.2 28.8 106.2 16.8 106.2 16.8 94.2 28.8 94.2"></polyline>
            <rect id="Rectangle-path" fill="#2767F4" x="39.5" y="94.2" width="12" height="12"></rect>
            <rect id="Rectangle-path" fill="#2767F4" x="62.1" y="94.2" width="12" height="12"></rect>
        </g>
    </g>
</svg>