<?xml version="1.0" encoding="UTF-8"?>
<svg width="133px" height="99px" viewBox="0 0 133 99" version="1.1" xmlns="http://www.w3.org/2000/svg" xmlns:xlink="http://www.w3.org/1999/xlink">
    <!-- Generator: Sketch 51.2 (57519) - http://www.bohemiancoding.com/sketch -->
    <title>Running</title>
    <desc>Created with Sketch.</desc>
    <defs></defs>
    <g id="Page-1" stroke="none" stroke-width="1" fill="none" fill-rule="evenodd">
        <g id="Running" transform="translate(2.000000, 0.000000)">
            <g id="Group" transform="translate(0.000000, 97.000000)" stroke="#D5E6FD" stroke-linecap="round" stroke-linejoin="round" stroke-width="3">
                <path d="M126.7,0.4 L10.1,0.4" id="Shape"></path>
                <path d="M2.2,0.4 L0.3,0.4" id="Shape"></path>
            </g>
            <path d="M129.4,90.2 C129.2,90.5 129,90.7 128.8,91 C126.4,94.5 122,96 117.8,96.8 C113.3,97.6 108.8,98 104.3,97.8 C90.7,97.3 77.3,92.6 65.1,86.2 C64.7,86 64.3,85.8 63.9,85.6 C47.5,76.6 32.9,64.7 17.1,54.6 C14.3,52.8 11.3,50.9 9.5,48 C8.5,46.3 8.1,44.3 8.6,42.4 C8.6,42 8.9,41.5 9,41.2 C9.2,40.8 9.4,40.3 9.6,39.9 C10.7,37.6 11.3,36.9 14,33.4 C14.7,32.4 15.6,31.3 16.7,29.8 C19.2,26.4 21.6,23.1 24.2,19.9 C29,14.1 34.1,8.5 39.5,3.1 C40.5,2.1 41.5,1.1 42.8,0.7 C44.1,0.3 45.8,0.6 46.4,1.8 C47,2.8 46.7,4 46.5,5.1 C45.5,10.2 45.7,15.7 48.5,20.1 C51.7,25.1 57.8,27.7 63.7,28 L63.7,26.7 C63.2,16 72.4,2.1 84.2,5 C83.8,9.2 83.4,12.9 83,15.9 C82.6,19 82.2,21.6 81.9,23.5 C82.4,23.3 83,23 83.5,22.8 C89,32.8 94.5,42.9 100,52.9 C101.8,56.2 103.6,59.5 106.4,61.9 C106.9,62.3 107.4,62.7 107.9,63.1 C113,66.6 118.8,68.5 124,73 C127.8,76.3 130.1,79.3 130.8,83.3 C131.3,86.3 130.9,87.8 129.4,90.2 Z" id="Shape" fill="#4988FD" fill-rule="nonzero"></path>
            <path d="M129.4,90.2 C129.2,90.5 129,90.7 128.8,91 C126.4,94.5 122,96 117.8,96.8 C113.3,97.6 108.8,98 104.3,97.8 C90.7,97.3 77.3,92.6 65.1,86.2 C64.7,86 64.3,85.8 63.9,85.6 C47.5,76.6 32.9,64.7 17.1,54.6 C14.3,52.8 11.3,50.9 9.5,48 C8.5,46.3 8.1,44.3 8.6,42.4 C8.6,42 8.9,41.5 9,41.2 C9.2,40.8 9.4,40.3 9.6,39.9 C10.7,37.6 11.3,36.9 14,33.4 C34.9,54.7 72,86.6 129.3,90 C129.3,90 129.4,90 129.4,90.2 Z" id="Shape" fill="#D5E6FD" fill-rule="nonzero"></path>
            <path d="M84,10 C83.4,17.3 82.6,19.7 82.1,23 C78.1,24.3 72.7,25.9 66.4,26.9 C69.5,15.9 73.8,7.5 84,10 Z" id="Shape" fill="#3973F4" fill-rule="nonzero"></path>
            <path d="M85.6,35.2 C84.9,35.2 84.2,34.8 83.9,34.2 C83.3,33.2 83.7,32 84.6,31.5 L88.7,29.1 C89.7,28.5 90.9,28.9 91.4,29.8 C91.9,30.7 91.6,32 90.7,32.5 L86.6,34.9 C86.3,35.2 86,35.2 85.6,35.2 Z" id="Shape" fill="#3973F4" fill-rule="nonzero"></path>
            <path d="M91.2,44.9 C90.5,44.9 89.8,44.5 89.5,43.9 C88.9,42.9 89.3,41.7 90.2,41.2 L94.3,38.8 C95.3,38.2 96.5,38.6 97,39.5 C97.5,40.4 97.2,41.7 96.3,42.2 L92.2,44.6 C91.9,44.8 91.5,44.9 91.2,44.9 Z" id="Shape" fill="#3973F4" fill-rule="nonzero"></path>
            <path d="M97.1,56.6 C96.4,56.6 95.7,56.2 95.4,55.6 C94.8,54.6 95.2,53.4 96.1,52.9 L100.2,50.5 C101.2,49.9 102.4,50.3 102.9,51.2 C103.5,52.2 103.1,53.4 102.2,53.9 L98.1,56.3 C97.8,56.5 97.5,56.6 97.1,56.6 Z" id="Shape" fill="#3973F4" fill-rule="nonzero"></path>
            <path d="M61.8,48.4 L72.9,41.6" id="Shape" stroke="#D5E6FD" stroke-width="4" stroke-linecap="round" stroke-linejoin="round"></path>
            <path d="M50.9,55.2 L54.9,52.8" id="Shape" stroke="#D5E6FD" stroke-width="4" stroke-linecap="round" stroke-linejoin="round"></path>
            <path d="M63.7,62.8 L79,53.2" id="Shape" stroke="#D5E6FD" stroke-width="4" stroke-linecap="round" stroke-linejoin="round"></path>
            <path d="M77.4,71.6 L86.3,66.1" id="Shape" stroke="#D5E6FD" stroke-width="4" stroke-linecap="round" stroke-linejoin="round"></path>
            <path d="M106.6,61.9 C102,63.2 98.4,63.3 93.7,59.5 C88.9,55.7 81.6,44.3 72.8,25.6 C76.4,24.8 79.5,23.8 82.1,23 C82.3,21.7 82.6,20.6 82.8,19.2 C82.6,20.8 82.4,22.2 82.2,23.4 C82.7,23.2 83.3,22.9 83.8,22.7 C89.3,32.7 94.8,42.8 100.3,52.8 C102,56.1 103.8,59.4 106.6,61.9 Z" id="Shape" fill="#3973F4" fill-rule="nonzero"></path>
        </g>
    </g>
</svg>