<?xml version="1.0" encoding="UTF-8"?>
<svg width="135px" height="142px" viewBox="0 0 135 142" version="1.1" xmlns="http://www.w3.org/2000/svg" xmlns:xlink="http://www.w3.org/1999/xlink">
    <!-- Generator: Sketch 51.2 (57519) - http://www.bohemiancoding.com/sketch -->
    <title>Safe</title>
    <desc>Created with Sketch.</desc>
    <defs></defs>
    <g id="Page-1" stroke="none" stroke-width="1" fill="none" fill-rule="evenodd">
        <g id="Safe" fill-rule="nonzero">
            <polygon id="Shape" fill="#3973F4" points="33 141.1 22.9 141.1 20.9 135 35 135"></polygon>
            <polygon id="Shape" fill="#3973F4" points="108 141.1 97.9 141.1 95.9 135 110 135"></polygon>
            <path d="M126.4,136 L8,136 C3.6,136 0.1,132.5 0.1,128.1 L0.1,8.3 C0.1,3.9 3.6,0.4 8,0.4 L126.4,0.4 C130.8,0.4 134.3,3.9 134.3,8.3 L134.3,128.1 C134.3,132.5 130.8,136 126.4,136 Z" id="Shape" fill="#4988FD"></path>
            <path d="M112.5,119.3 L21.9,119.3 C18.6,119.3 15.9,116.6 15.9,113.3 L15.9,21.7 C15.9,18.4 18.6,15.7 21.9,15.7 L112.5,15.7 C115.8,15.7 118.5,18.4 118.5,21.7 L118.5,113.3 C118.6,116.6 115.9,119.3 112.5,119.3 Z" id="Shape" stroke="#3973F4" stroke-width="4" fill="#4988FD"></path>
            <polyline id="Shape" fill="#3973F4" points="114.7 37.5 114.7 29.5 122 29.5 122 51.5 114.7 51.5 114.7 49.7"></polyline>
            <rect id="Rectangle-path" fill="#3973F4" x="114.7" y="80.9" width="7.3" height="22.1"></rect>
            <path d="M84.2,82.7 C86.3,79.7 87.5,76 87.5,72 C87.5,68.2 86.4,64.6 84.4,61.6 L97.7,48.3 C99.1,46.9 99.1,44.7 97.7,43.4 C96.3,42 94.1,42 92.7,43.4 L79.5,56.6 C76.5,54.5 73,53.3 69.1,53.3 C65.1,53.3 61.4,54.6 58.4,56.8 L44.9,43.3 C43.5,41.9 41.3,41.9 39.9,43.3 C38.5,44.7 38.5,46.9 39.9,48.2 L53.5,61.8 C51.7,64.7 50.6,68.1 50.6,71.8 C50.6,75.6 51.8,79.2 53.7,82.2 L39.9,96 C38.5,97.4 38.5,99.6 39.9,100.9 C40.6,101.6 41.5,101.9 42.4,101.9 C43.3,101.9 44.2,101.6 44.9,100.9 L58.7,87.1 C61.7,89.2 65.2,90.4 69.1,90.4 C72.8,90.4 76.3,89.3 79.2,87.4 L92.8,101 C93.5,101.7 94.4,102 95.3,102 C96.2,102 97.1,101.7 97.8,101 C99.2,99.6 99.2,97.4 97.8,96.1 L84.2,82.7 Z" id="Shape" fill="#3973F4"></path>
            <path d="M82.3,78.9 C84.4,75.9 85.6,72.2 85.6,68.2 C85.6,64.4 84.5,60.8 82.5,57.8 L95.8,44.5 C97.2,43.1 97.2,40.9 95.8,39.6 C94.4,38.2 92.2,38.2 90.8,39.6 L77.6,52.8 C74.6,50.7 71.1,49.5 67.2,49.5 C63.2,49.5 59.5,50.8 56.5,53 L43,39.5 C41.6,38.1 39.4,38.1 38,39.5 C36.6,40.9 36.6,43.1 38,44.4 L51.6,58 C49.8,60.9 48.7,64.3 48.7,68 C48.7,71.8 49.9,75.4 51.8,78.4 L38,92.2 C36.6,93.6 36.6,95.8 38,97.1 C38.7,97.8 39.6,98.1 40.5,98.1 C41.4,98.1 42.3,97.8 43,97.1 L56.8,83.3 C59.8,85.4 63.3,86.6 67.2,86.6 C70.9,86.6 74.4,85.5 77.3,83.6 L90.9,97.2 C91.6,97.9 92.5,98.2 93.4,98.2 C94.3,98.2 95.2,97.9 95.9,97.2 C97.3,95.8 97.3,93.6 95.9,92.3 L82.3,78.9 Z" id="Shape" fill="#C5DCFA"></path>
            <circle id="Oval" fill="#FFFFFF" cx="67.2" cy="68.3" r="6.9"></circle>
        </g>
    </g>
</svg>