<?xml version="1.0" encoding="UTF-8"?>
<svg width="148px" height="133px" viewBox="0 0 148 133" version="1.1" xmlns="http://www.w3.org/2000/svg" xmlns:xlink="http://www.w3.org/1999/xlink">
    <!-- Generator: Sketch 51.2 (57519) - http://www.bohemiancoding.com/sketch -->
    <title>Sale</title>
    <desc>Created with Sketch.</desc>
    <defs></defs>
    <g id="Page-1" stroke="none" stroke-width="1" fill="none" fill-rule="evenodd">
        <g id="Sale" transform="translate(0.000000, -1.000000)" fill-rule="nonzero">
            <path d="M64.8,125.1 L75.3,131.7 C79.6,134.4 85.3,133.2 88.1,128.8 L130.8,61.5 C133.3,57.6 134,52.8 132.8,48.3 L127.1,27.7 L118.6,26.8" id="Shape" fill="#3973F4"></path>
            <path d="M41.9,109.6 L55.6,122.4 C59.3,125.9 65.2,125.7 68.7,122 L123.2,63.8 C126.4,60.4 128,55.8 127.6,51.2 L125.7,27.7 L115.8,26.9" id="Shape" fill="#4988FD"></path>
            <path d="M124.1,27.7 L119.4,54.8 C118.6,59.4 115.9,63.4 112,65.9 L44.6,108.5 C40.3,111.2 34.6,109.9 31.8,105.6 L2.3,58.9 C-0.4,54.6 0.9,48.8 5.2,46.1 L72.6,3.5 C76.5,1 81.3,0.3 85.8,1.6 L113.3,9.2 C118.9,10.7 122.9,15.2 124.2,20.5" id="Shape" fill="#6097FD"></path>
            <path d="M30.1,103 L28.7,102.1 C25.8,100.3 24.3,97.1 24.4,94" id="Shape" fill="#4988FD"></path>
            <path d="M115.6,27.7 C115,28.7 114.2,29.6 113.1,30.3 C109.6,32.5 105,31.5 102.8,28 C100.6,24.5 101.6,19.9 105.1,17.7 C108.6,15.5 113.2,16.5 115.4,20 C115.5,20.2 115.6,20.3 115.7,20.5" id="Shape" fill="#3973F4"></path>
            <g id="Group" transform="translate(27.000000, 25.000000)" fill="#FFFFFF">
                <path d="M1.6,44.3 C-0.1,41.5 0.8,37.2 4.8,34.7 C6.6,33.5 8.3,33.1 9.6,33 C11.1,32.9 12.3,34.3 12,35.8 L12,35.9 C11.8,36.9 10.9,37.7 9.9,37.8 C9.3,37.8 8.5,38 7.8,38.4 C6.7,39.1 6.4,40.3 6.9,41.1 C8.4,43.5 15.8,37.1 19.7,43.2 C21.7,46.3 20.7,50.6 16.3,53.4 C14,54.9 11.7,55.2 10,55.2 C8.6,55.2 7.5,53.8 7.8,52.4 L7.8,52.3 C8,51.2 9,50.4 10.1,50.5 C11,50.5 12.1,50.4 13.2,49.7 C14.6,48.8 14.9,47.4 14.3,46.4 C12.9,44 5.5,50.4 1.6,44.3 Z" id="Shape"></path>
                <path d="M27.8,40.2 L28.4,42.8 C28.7,44 28.2,45.2 27.2,45.8 C25.5,46.8 23.3,45.9 22.9,44 L19.9,29.3 C19.5,27.5 20.3,25.6 21.9,24.6 C23.5,23.6 25.5,23.7 27,24.8 L39,33.9 C40.6,35.1 40.5,37.5 38.8,38.5 C37.8,39.1 36.5,39.1 35.5,38.3 L33.4,36.6 L27.8,40.2 Z M25.1,29.4 L26.7,35.6 L30,33.5 L25.1,29.4 Z" id="Shape"></path>
                <path d="M44.4,35 L34.6,19.4 C33.9,18.3 34.2,16.8 35.3,16.1 L36.1,15.6 C37.2,14.9 38.7,15.2 39.4,16.3 L46.5,27.6 L52.3,23.9 C53.4,23.2 54.9,23.5 55.6,24.6 L55.8,24.9 C56.5,26 56.2,27.5 55.1,28.2 L44.4,35 Z" id="Shape"></path>
                <path d="M72,14.7 C72.7,15.8 72.4,17.3 71.3,18 L59.5,25.5 L48.4,7.9 L60,0.6 C61.1,-0.1 62.6,0.2 63.3,1.3 C64,2.4 63.7,3.9 62.6,4.6 L55.8,8.9 L57.5,11.7 L62.4,8.6 C63.4,7.9 64.8,8.3 65.5,9.3 C66.2,10.3 65.8,11.7 64.8,12.4 L59.9,15.5 L61.8,18.5 L68.8,14.1 C69.9,13.3 71.3,13.6 72,14.7 Z" id="Shape"></path>
            </g>
            <path d="M143.8,27.7 L110,27.7 C108,27.7 106.4,26.1 106.4,24.1 C106.4,22.1 108,20.5 110,20.5 L143.8,20.5 C145.8,20.5 147.4,22.1 147.4,24.1 C147.4,26.1 145.8,27.7 143.8,27.7 Z" id="Shape" fill="#21D3AC"></path>
        </g>
    </g>
</svg>