<?xml version="1.0" encoding="UTF-8"?>
<svg width="134px" height="133px" viewBox="0 0 134 133" version="1.1" xmlns="http://www.w3.org/2000/svg" xmlns:xlink="http://www.w3.org/1999/xlink">
    <!-- Generator: Sketch 51.2 (57519) - http://www.bohemiancoding.com/sketch -->
    <title>Save</title>
    <desc>Created with Sketch.</desc>
    <defs></defs>
    <g id="Page-1" stroke="none" stroke-width="1" fill="none" fill-rule="evenodd">
        <g id="Save" fill-rule="nonzero">
            <path d="M133.2,41.5 L133.2,122 C133.2,128.1 128.3,133 122.2,133 L11.9,133 C5.8,133 0.8,128.1 0.8,122 L0.8,11.7 C0.8,5.6 5.7,0.7 11.9,0.7 L93.4,0.7 C96.1,0.7 98.7,1.4 100.9,2.8 C101.9,3.4 102.9,4.2 103.8,5 L128.2,29.4 C131.4,32.6 133.2,36.9 133.2,41.5 Z" id="Shape" fill="#4988FD"></path>
            <polyline id="Shape" fill="#DFECFD" points="14.5 133 14.5 66.6 120.5 66.6 120.5 133"></polyline>
            <path d="M100.9,2.7 L100.9,49.8 L14.5,49.8 L14.5,0.7 L93.4,0.7 C96.1,0.6 98.7,1.4 100.9,2.7 Z" id="Shape" fill="#C5DCFA"></path>
            <path d="M106.9,88.7 L29.6,88.7 C28.2,88.7 27.1,87.6 27.1,86.2 C27.1,84.8 28.2,83.7 29.6,83.7 L106.9,83.7 C108.3,83.7 109.4,84.8 109.4,86.2 C109.4,87.6 108.2,88.7 106.9,88.7 Z" id="Shape" fill="#4988FD"></path>
            <path d="M106.9,102.8 L29.6,102.8 C28.2,102.8 27.1,101.7 27.1,100.3 C27.1,98.9 28.2,97.8 29.6,97.8 L106.9,97.8 C108.3,97.8 109.4,98.9 109.4,100.3 C109.4,101.7 108.2,102.8 106.9,102.8 Z" id="Shape" fill="#4988FD"></path>
            <path d="M70.1,116.9 L29.5,116.9 C28.1,116.9 27,115.8 27,114.4 C27,113 28.1,111.9 29.5,111.9 L70.1,111.9 C71.5,111.9 72.6,113 72.6,114.4 C72.6,115.8 71.5,116.9 70.1,116.9 Z" id="Shape" fill="#4988FD"></path>
            <path d="M86.5,39.3 L79.4,39.3 C78.5,39.3 77.7,38.6 77.7,37.6 L77.7,14.1 C77.7,13.2 78.4,12.4 79.4,12.4 L86.5,12.4 C87.4,12.4 88.2,13.1 88.2,14.1 L88.2,37.6 C88.2,38.6 87.5,39.3 86.5,39.3 Z" id="Shape" fill="#2767F4"></path>
        </g>
    </g>
</svg>