<?xml version="1.0" encoding="UTF-8"?>
<svg width="156px" height="100px" viewBox="0 0 156 100" version="1.1" xmlns="http://www.w3.org/2000/svg" xmlns:xlink="http://www.w3.org/1999/xlink">
    <!-- Generator: Sketch 51.2 (57519) - http://www.bohemiancoding.com/sketch -->
    <title>Save_to_cloud</title>
    <desc>Created with Sketch.</desc>
    <defs></defs>
    <g id="Page-1" stroke="none" stroke-width="1" fill="none" fill-rule="evenodd">
        <g id="Save_to_cloud" fill-rule="nonzero">
            <path d="M155.8,60.9 C155.8,71.4 149.2,80.4 140,84 C137.2,85.1 134.2,85.7 131,85.7 L25.5,85.7 C17.8,85.7 11,82.2 6.4,76.8 C2.8,72.5 0.6,67 0.6,60.9 C0.6,58.6 0.9,56.4 1.5,54.3 C4.4,43.8 14,36.1 25.4,36.1 L25.5,36.1 C28.8,22.3 41.2,12.1 56,12.1 C62.2,12.1 68,13.9 72.9,17 C79,7.3 89.8,0.8 102.1,0.8 C121.2,0.8 136.6,16.3 136.6,35.3 C136.6,35.8 136.6,36.3 136.6,36.8 C145.4,38.9 152.4,45.7 154.7,54.3 C155.5,56.4 155.8,58.6 155.8,60.9 Z" id="Shape" fill="#C5DCFA"></path>
            <path d="M154.9,54.2 C152.8,61.8 147.2,67.9 140,70.7 C137.2,71.8 134.2,72.4 131,72.4 L25.5,72.4 C17.8,72.4 11,68.9 6.4,63.5 C4.2,60.8 2.5,57.7 1.5,54.2 C4.4,43.7 14,36 25.4,36 L25.5,36 C28.8,22.2 41.2,12 56,12 C62.2,12 68,13.8 72.9,16.9 C79,7.2 89.8,0.7 102.1,0.7 C121.2,0.7 136.6,16.2 136.6,35.2 C136.6,35.7 136.6,36.2 136.6,36.7 C145.5,38.8 152.5,45.6 154.9,54.2 Z" id="Shape" fill="#DFECFD"></path>
            <path d="M102,56 L102,95.3 C102,97.5 100.2,99.4 97.9,99.4 L60.3,99.4 C58.1,99.4 56.2,97.6 56.2,95.3 L56.2,44.6 C56.2,42.4 58,40.5 60.3,40.5 L88.2,40.5 L88.4,40.7 L100.8,53.1 C101.6,53.9 102,54.9 102,56 Z" id="Shape" fill="#4988FD"></path>
            <path d="M90.1,76.7 L67.6,76.7 C66.8,76.7 66.1,76 66.1,75.2 C66.1,74.4 66.8,73.7 67.6,73.7 L90.1,73.7 C90.9,73.7 91.6,74.4 91.6,75.2 C91.6,76 91,76.7 90.1,76.7 Z" id="Shape" fill="#DFECFD"></path>
            <path d="M90.1,68.3 L67.6,68.3 C66.8,68.3 66.1,67.6 66.1,66.8 C66.1,66 66.8,65.3 67.6,65.3 L90.1,65.3 C90.9,65.3 91.6,66 91.6,66.8 C91.6,67.6 91,68.3 90.1,68.3 Z" id="Shape" fill="#DFECFD"></path>
            <path d="M77.3,85.3 L67.7,85.3 C66.9,85.3 66.2,84.6 66.2,83.8 C66.2,83 66.9,82.3 67.7,82.3 L77.3,82.3 C78.1,82.3 78.8,83 78.8,83.8 C78.8,84.6 78.1,85.3 77.3,85.3 Z" id="Shape" fill="#DFECFD"></path>
            <path d="M102,54.3 L102,55.4 L92.8,55.4 C90.4,55.4 88.4,53.4 88.4,51 L88.4,40.7 L102,54.3 Z" id="Shape" fill="#2767F4"></path>
        </g>
    </g>
</svg>