<?xml version="1.0" encoding="UTF-8"?>
<svg width="120px" height="121px" viewBox="0 0 120 121" version="1.1" xmlns="http://www.w3.org/2000/svg" xmlns:xlink="http://www.w3.org/1999/xlink">
    <!-- Generator: Sketch 51.2 (57519) - http://www.bohemiancoding.com/sketch -->
    <title>Scale</title>
    <desc>Created with Sketch.</desc>
    <defs></defs>
    <g id="Page-1" stroke="none" stroke-width="1" fill="none" fill-rule="evenodd">
        <g id="Scale" fill-rule="nonzero">
            <g id="Group">
                <path d="M105.4,121 L15,121 C7,121 0.5,114.5 0.5,106.5 L0.5,16.1 C0.5,8.1 7,1.6 15,1.6 L105.4,1.6 C113.4,1.6 119.9,8.1 119.9,16.1 L119.9,106.5 C119.8,114.5 113.4,121 105.4,121 Z" id="Shape" fill="#FFFFFF"></path>
                <path d="M105.4,119.7 L15,119.7 C7,119.7 0.5,113.2 0.5,105.2 L0.5,14.8 C0.5,6.8 7,0.3 15,0.3 L105.4,0.3 C113.4,0.3 119.9,6.8 119.9,14.8 L119.9,105.2 C119.8,113.2 113.4,119.7 105.4,119.7 Z" id="Shape" fill="#4988FD"></path>
                <path d="M98.2,29 C98,29.5 97.6,30 97.2,30.5 L86.5,41.2 C84.8,42.9 82,43.1 80,41.6 C74.6,37.4 67.9,35 60.6,35 C53.3,35 46.6,37.5 41.2,41.6 C40.5,42.2 39.6,42.5 38.7,42.6 C37.3,42.8 35.8,42.3 34.7,41.2 L24,30.5 C22,28.5 22.1,25.2 24.3,23.3 C34.1,15.1 46.7,10.1 60.5,10.1 C74.3,10.1 86.9,15 96.7,23.3 C98.5,24.7 99,27.1 98.2,29 Z" id="Shape" fill="#FFFFFF"></path>
                <path d="M76.1,23.3 L71.5,37.2 C69,36.4 66.4,35.8 63.8,35.5 L73.7,22.3 C73.7,22.2 73.8,22.2 73.8,22.1 C74.7,20.9 76.6,21.9 76.1,23.3 Z" id="Shape" fill="#4988FD"></path>
                <g transform="translate(14.000000, 52.000000)" fill="#D5E6FD" id="Shape">
                    <path d="M22.4,53.7 L7,53.7 C3.5,53.7 0.6,50.8 0.6,47.3 L0.6,6.9 C0.6,3.4 3.5,0.5 7,0.5 L22.5,0.5 C26,0.5 28.9,3.4 28.9,6.9 L28.9,47.3 C28.8,50.8 26,53.7 22.4,53.7 Z"></path>
                    <path d="M88.5,53.7 L73,53.7 C69.5,53.7 66.6,50.8 66.6,47.3 L66.6,6.9 C66.6,3.4 69.5,0.5 73,0.5 L88.5,0.5 C92,0.5 94.9,3.4 94.9,6.9 L94.9,47.3 C94.9,50.8 92,53.7 88.5,53.7 Z"></path>
                </g>
                <path d="M32.9,24.1 C32.5,24.1 32.1,23.9 31.8,23.6 L28.8,20.2 C28.3,19.6 28.3,18.6 28.9,18.1 C29.5,17.6 30.5,17.6 31,18.2 L34,21.6 C34.5,22.2 34.5,23.2 33.9,23.7 C33.6,24 33.3,24.1 32.9,24.1 Z" id="Shape" fill="#4988FD"></path>
                <path d="M50.1,16.3 C49.5,16.3 48.9,15.9 48.7,15.3 L47.4,11.9 C47.1,11.1 47.5,10.3 48.3,10 C49.1,9.7 49.9,10.1 50.2,10.9 L51.5,14.3 C51.8,15.1 51.4,15.9 50.6,16.2 C50.5,16.3 50.3,16.3 50.1,16.3 Z" id="Shape" fill="#4988FD"></path>
                <path d="M59.5,18.6 C58.7,18.6 58,18 58,17.2 L57.7,10.3 C57.7,9.5 58.3,8.8 59.1,8.7 C59.9,8.7 60.6,9.3 60.7,10.1 L61,17 C61,17.8 60.4,18.5 59.5,18.6 C59.5,18.6 59.5,18.6 59.5,18.6 Z" id="Shape" fill="#4988FD"></path>
                <path d="M42.8,21.7 C42.3,21.7 41.7,21.4 41.5,20.9 L38.4,15.1 C38,14.4 38.3,13.5 39,13.1 C39.7,12.7 40.6,13 41,13.7 L44.1,19.5 C44.5,20.2 44.2,21.1 43.5,21.5 C43.3,21.6 43,21.7 42.8,21.7 Z" id="Shape" fill="#4988FD"></path>
                <path d="M86.8,24.1 C86.4,24.1 86.1,24 85.8,23.7 C85.2,23.2 85.1,22.2 85.7,21.6 L88.7,18.2 C89.2,17.6 90.2,17.5 90.8,18.1 C91.4,18.6 91.5,19.6 90.9,20.2 L87.9,23.6 C87.6,24 87.2,24.1 86.8,24.1 Z" id="Shape" fill="#4988FD"></path>
                <path d="M69.6,16.3 C69.4,16.3 69.3,16.3 69.1,16.2 C68.3,15.9 67.9,15.1 68.2,14.3 L69.5,10.9 C69.8,10.1 70.6,9.7 71.4,10 C72.2,10.3 72.6,11.1 72.3,11.9 L71,15.3 C70.8,15.9 70.2,16.3 69.6,16.3 Z" id="Shape" fill="#4988FD"></path>
                <path d="M76.9,21.7 C76.7,21.7 76.4,21.6 76.2,21.5 C75.5,21.1 75.2,20.2 75.6,19.5 L78.7,13.7 C79.1,13 80,12.7 80.7,13.1 C81.4,13.5 81.7,14.4 81.3,15.1 L78.2,20.9 C78,21.4 77.5,21.7 76.9,21.7 Z" id="Shape" fill="#4988FD"></path>
            </g>
        </g>
    </g>
</svg>