<?xml version="1.0" encoding="UTF-8"?>
<svg width="147px" height="152px" viewBox="0 0 147 152" version="1.1" xmlns="http://www.w3.org/2000/svg" xmlns:xlink="http://www.w3.org/1999/xlink">
    <!-- Generator: Sketch 51.2 (57519) - http://www.bohemiancoding.com/sketch -->
    <title>Scales_1_</title>
    <desc>Created with Sketch.</desc>
    <defs></defs>
    <g id="Page-1" stroke="none" stroke-width="1" fill="none" fill-rule="evenodd">
        <g id="Scales_1_" fill-rule="nonzero">
            <path d="M91.8,79 C91.5,79 91.3,78.9 91,78.8 C90,78.4 89.5,77.1 89.9,76.1 L116.1,15.9 C116.4,15.2 117.2,14.7 118,14.7 C118,14.7 118,14.7 118,14.7 C118.8,14.7 119.5,15.2 119.9,15.9 L146.8,76.1 C147.3,77.1 146.8,78.3 145.8,78.8 C144.8,79.3 143.6,78.8 143.1,77.8 L118.1,21.8 L93.8,77.7 C93.3,78.6 92.6,79 91.8,79 Z" id="Shape" fill="#6097FD"></path>
            <path d="M81.6,26.8 C79.9,26.8 78.4,25.8 77.8,24.1 C77,22 78.1,19.6 80.3,18.9 L130.9,0.7 C133,-0.1 135.4,1 136.1,3.2 C136.9,5.3 135.8,7.7 133.6,8.4 L83,26.6 C82.5,26.7 82.1,26.8 81.6,26.8 Z" id="Shape" fill="#C5DCFA"></path>
            <path d="M14.4,50.9 C12.7,50.9 11.2,49.9 10.6,48.2 C9.8,46.1 10.9,43.7 13.1,43 L63.4,24.9 C65.5,24.1 67.9,25.2 68.6,27.4 C69.4,29.5 68.3,31.9 66.1,32.6 L15.8,50.7 C15.3,50.8 14.9,50.9 14.4,50.9 Z" id="Shape" fill="#C5DCFA"></path>
            <path d="M73.3,151.9 C71,151.9 69.2,150.1 69.2,147.8 L69.2,35 C69.2,32.7 71,30.9 73.3,30.9 C75.6,30.9 77.4,32.7 77.4,35 L77.4,147.8 C77.4,150 75.6,151.9 73.3,151.9 Z" id="Shape" fill="#C5DCFA"></path>
            <path d="M109.2,151.9 L37.4,151.9 C35.1,151.9 33.3,150.1 33.3,147.8 C33.3,145.5 35.1,143.7 37.4,143.7 L109.2,143.7 C111.5,143.7 113.3,145.5 113.3,147.8 C113.3,150.1 111.5,151.9 109.2,151.9 Z" id="Shape" fill="#BAD3F5"></path>
            <path d="M2.6,110.7 C2.3,110.7 2.1,110.6 1.8,110.5 C0.8,110.1 0.3,108.8 0.7,107.8 L26.9,47.6 C27.2,46.9 28,46.4 28.8,46.4 C28.8,46.4 28.8,46.4 28.8,46.4 C29.6,46.4 30.3,46.9 30.7,47.6 L57.6,107.8 C58.1,108.8 57.6,110 56.6,110.5 C55.6,111 54.4,110.5 53.9,109.5 L28.9,53.5 L4.6,109.4 C4.2,110.3 3.4,110.7 2.6,110.7 Z" id="Shape" fill="#6097FD"></path>
            <g id="Group" transform="translate(0.000000, 74.000000)" fill="#4988FD">
                <path d="M55.7,32.7 L2.6,32.7 C2,32.7 1.4,33 1,33.5 C0.6,34 0.5,34.7 0.7,35.3 C4.3,48 16,56.9 29.2,56.9 C42.4,56.9 54.2,48 57.7,35.3 C57.9,34.7 57.7,34 57.4,33.5 C57,33 56.4,32.7 55.7,32.7 Z" id="Shape"></path>
                <path d="M146.5,1.7 C146.1,1.2 145.5,0.9 144.9,0.9 L91.8,0.9 C91.2,0.9 90.6,1.2 90.2,1.7 C89.8,2.2 89.7,2.9 89.9,3.5 C93.5,16.2 105.2,25.1 118.4,25.1 C131.6,25.1 143.4,16.2 146.9,3.5 C147,2.9 146.9,2.3 146.5,1.7 Z" id="Shape"></path>
            </g>
            <circle id="Oval" fill="#BAD3F5" cx="73.3" cy="26" r="10"></circle>
            <circle id="Oval" fill="#C5DCFA" cx="73.3" cy="26" r="4.2"></circle>
        </g>
    </g>
</svg>