<?xml version="1.0" encoding="UTF-8"?>
<svg width="106px" height="132px" viewBox="0 0 106 132" version="1.1" xmlns="http://www.w3.org/2000/svg" xmlns:xlink="http://www.w3.org/1999/xlink">
    <!-- Generator: Sketch 51.2 (57519) - http://www.bohemiancoding.com/sketch -->
    <title>SD_Card</title>
    <desc>Created with Sketch.</desc>
    <defs></defs>
    <g id="Page-1" stroke="none" stroke-width="1" fill="none" fill-rule="evenodd">
        <g id="SD_Card" fill-rule="nonzero">
            <g id="Group">
                <path d="M105.2,10.9 L105.2,121 C105.2,126.6 100.7,131.1 95.1,131.1 L10.2,131.1 C4.6,131.1 0.1,126.6 0.1,121 L0.1,94 C0.1,92.2 0.9,90.5 2.3,89.4 L14.8,79.7 L14.8,68 L4.7,68 C2.2,68 0.1,66 0.1,63.4 L0.1,53.2 C0.1,51.9 0.7,50.7 1.6,49.8 L10.8,41.7 C13.3,39.4 14.8,36.2 14.8,32.8 L14.8,10.9 C14.8,5.3 19.3,0.8 24.9,0.8 L95.1,0.8 C100.7,0.8 105.2,5.3 105.2,10.9 Z" id="Shape" fill="#4988FD"></path>
                <path d="M35.9,32.2 C34.8,32.2 33.9,31.3 33.9,30.2 L33.9,13.4 C33.9,12.3 34.8,11.4 35.9,11.4 C37,11.4 37.9,12.3 37.9,13.4 L37.9,30.2 C37.9,31.3 37,32.2 35.9,32.2 Z" id="Shape" fill="#2767F4"></path>
                <path d="M47.5,32.2 C46.4,32.2 45.5,31.3 45.5,30.2 L45.5,13.4 C45.5,12.3 46.4,11.4 47.5,11.4 C48.6,11.4 49.5,12.3 49.5,13.4 L49.5,30.2 C49.5,31.3 48.6,32.2 47.5,32.2 Z" id="Shape" fill="#2767F4"></path>
                <path d="M59,32.2 C57.9,32.2 57,31.3 57,30.2 L57,13.4 C57,12.3 57.9,11.4 59,11.4 C60.1,11.4 61,12.3 61,13.4 L61,30.2 C61,31.3 60.1,32.2 59,32.2 Z" id="Shape" fill="#2767F4"></path>
                <path d="M70.6,32.2 C69.5,32.2 68.6,31.3 68.6,30.2 L68.6,13.4 C68.6,12.3 69.5,11.4 70.6,11.4 C71.7,11.4 72.6,12.3 72.6,13.4 L72.6,30.2 C72.6,31.3 71.7,32.2 70.6,32.2 Z" id="Shape" fill="#2767F4"></path>
                <path d="M82.1,32.2 C81,32.2 80.1,31.3 80.1,30.2 L80.1,13.4 C80.1,12.3 81,11.4 82.1,11.4 C83.2,11.4 84.1,12.3 84.1,13.4 L84.1,30.2 C84.1,31.3 83.2,32.2 82.1,32.2 Z" id="Shape" fill="#2767F4"></path>
                <path d="M93.1,110.9 L28.6,110.9 C27.5,110.9 26.6,110 26.6,108.9 C26.6,107.8 27.5,106.9 28.6,106.9 L93.1,106.9 C94.2,106.9 95.1,107.8 95.1,108.9 C95.1,110 94.2,110.9 93.1,110.9 Z" id="Shape" fill="#2767F4"></path>
            </g>
            <g id="Group" transform="translate(49.000000, 75.000000)" fill="#DFECFD">
                <path d="M5.1,16.2 C5.3,18 7.2,19.2 9.7,19.2 C12.2,19.2 13.8,18 13.8,16.4 C13.8,15 12.7,14.2 10.1,13.6 L7.2,13 C3.1,12.1 1.1,10.1 1.1,6.8 C1.1,2.7 4.6,-9.09494702e-13 9.5,-9.09494702e-13 C14.6,-9.09494702e-13 17.9,2.6 17.9,6.6 L13.6,6.6 C13.4,4.7 11.8,3.6 9.5,3.6 C7.2,3.6 5.7,4.7 5.7,6.3 C5.7,7.7 6.8,8.4 9.3,9 L12,9.6 C16.4,10.5 18.3,12.4 18.3,15.8 C18.3,20.1 14.8,22.8 9.4,22.8 C4.1,22.8 0.7,20.3 0.6,16.1 L5.1,16.1 L5.1,16.2 Z" id="Shape"></path>
                <path d="M32.3,0.4 C38.9,0.4 42.8,4.3 42.8,11.3 C42.8,18.3 38.9,22.4 32.3,22.4 L23.8,22.4 L23.8,0.4 L32.3,0.4 Z M28.4,18.7 L31.7,18.7 C35.8,18.7 38.1,16.2 38.1,11.4 C38.1,6.8 35.8,4.3 31.7,4.3 L28.4,4.3 L28.4,18.7 Z" id="Shape"></path>
            </g>
        </g>
    </g>
</svg>