<?xml version="1.0" encoding="UTF-8"?>
<svg width="141px" height="142px" viewBox="0 0 141 142" version="1.1" xmlns="http://www.w3.org/2000/svg" xmlns:xlink="http://www.w3.org/1999/xlink">
    <!-- Generator: Sketch 51.2 (57519) - http://www.bohemiancoding.com/sketch -->
    <title>search_currency</title>
    <desc>Created with Sketch.</desc>
    <defs></defs>
    <g id="Page-1" stroke="none" stroke-width="1" fill="none" fill-rule="evenodd">
        <g id="search_currency" fill-rule="nonzero">
            <path d="M139.9,133.6 L133.4,140.1 C132.1,141.4 130,141.4 128.8,140.1 L95.1,106.3 C94,105.2 93.8,103.4 94.7,102.2 L85.4,92.9 C85.3,93 85.2,93.1 85.1,93.2 C84.8,93.5 84.5,93.7 84.1,94 C84,94.1 83.9,94.1 83.9,94.2 C83.9,94.2 83.9,94.2 83.9,94.2 C63.4,109.7 34.2,108.1 15.5,89.5 C-4.9,69.1 -4.9,36 15.5,15.7 C35.9,-4.7 68.9,-4.7 89.3,15.7 C108.4,34.8 109.6,65.1 92.8,85.6 L102.1,94.9 C102.1,94.9 102.1,94.9 102.1,94.9 C103.4,94.1 105.1,94.2 106.2,95.3 L139.9,129 C141.2,130.3 141.2,132.4 139.9,133.6 Z" id="Shape" fill="#4988FD"></path>
            <path d="M52.1,76.9 C50.2,76.9 48.7,75.4 48.7,73.5 L48.7,71.1 C46.6,70.9 44.4,70.3 42.7,69.5 C41,68.7 40.2,66.8 40.8,65 C41.3,63.5 42.7,62.6 44.2,62.6 C44.7,62.6 45.2,62.7 45.7,62.9 C46.9,63.5 48.9,64.1 51.2,64.1 C54.2,64.1 56.2,62.5 56.2,60.2 C56.2,58.6 55.6,56.9 50.9,55 C45.8,53 40.7,50.1 40.7,43.8 C40.7,38.8 44,34.8 49.1,33.5 L49.1,30.9 C49.1,29 50.6,27.5 52.5,27.5 C54.4,27.5 55.9,29 55.9,30.9 L55.9,33.1 C57.5,33.3 59.1,33.7 60.5,34.2 C62.3,34.9 63.1,37 62.5,38.8 C62,40.2 60.7,41.1 59.1,41.1 C58.6,41.1 58.2,41 57.7,40.8 C56.3,40.2 54.7,39.9 53.1,39.9 C49.9,39.9 48.8,41.5 48.8,43.1 C48.8,44.8 49.7,45.9 54.7,48 C59.2,49.8 64.4,52.8 64.4,59.7 C64.4,64.9 60.9,69.1 55.6,70.5 L55.6,73.3 C55.5,75.4 54,76.9 52.1,76.9 Z" id="Shape" fill="#FFFFFF"></path>
            <path d="M64.7,91.9 C63.7,91.9 62.7,91.2 62.3,90.2 C61.9,88.9 62.6,87.5 63.9,87 C78.7,82 88.7,68.1 88.7,52.4 C88.7,45.3 86.7,38.4 82.8,32.5 C82,31.3 82.4,29.8 83.5,29 C84.7,28.2 86.2,28.6 87,29.7 C91.4,36.4 93.7,44.3 93.7,52.4 C93.7,70.2 82.4,86 65.5,91.8 C65.2,91.9 65,91.9 64.7,91.9 Z" id="Shape" fill="#6097FD"></path>
            <path d="M19,75.5 C18.2,75.5 17.3,75.1 16.9,74.3 C12.8,67.7 10.7,60.2 10.7,52.4 C10.7,29.5 29.3,10.9 52.2,10.9 C55.1,10.9 58.1,11.2 60.9,11.8 C62.3,12.1 63.1,13.4 62.8,14.8 C62.5,16.2 61.2,17 59.8,16.7 C57.3,16.2 54.7,15.9 52.1,15.9 C32,15.9 15.6,32.3 15.6,52.4 C15.6,59.2 17.5,65.9 21.1,71.7 C21.8,72.9 21.5,74.4 20.3,75.1 C19.9,75.4 19.4,75.5 19,75.5 Z" id="Shape" fill="#6097FD"></path>
            <path d="M34.1,89.6 C33.7,89.6 33.3,89.5 32.9,89.3 C29,87.3 25.5,84.6 22.4,81.5 C21.4,80.5 21.5,78.9 22.4,78 C23.4,77 25,77.1 25.9,78 C28.6,80.8 31.7,83.1 35.2,84.9 C36.4,85.5 36.9,87.1 36.3,88.3 C35.9,89.1 35,89.6 34.1,89.6 Z" id="Shape" fill="#6097FD"></path>
            <path d="M139.9,133.6 L133.4,140.1 C132.1,141.4 130.1,141.4 128.8,140.1 L95.1,106.3 C94,105.2 93.8,103.4 94.7,102.2 L85.4,92.9 C85.3,93 85.2,93.1 85.1,93.2 C86.9,91.7 88.3,90.1 92.9,85.6 L102.2,94.9 C103.5,94.1 105.2,94.2 106.3,95.3 L140,129 C141.2,130.3 141.2,132.3 139.9,133.6 Z" id="Shape" fill="#3973F4"></path>
            <path d="M139.9,133.6 L133.4,140.1 C132.1,141.4 130.1,141.4 128.8,140.1 L95.1,106.3 C94,105.2 93.8,103.4 94.7,102.2 L102.1,94.8 C102.1,94.8 102.1,94.8 102.1,94.8 C103.4,94 105.1,94.1 106.2,95.2 L139.9,128.9 C141.2,130.3 141.2,132.3 139.9,133.6 Z" id="Shape" fill="#C5DCFA"></path>
        </g>
    </g>
</svg>