<?xml version="1.0" encoding="UTF-8"?>
<svg width="146px" height="145px" viewBox="0 0 146 145" version="1.1" xmlns="http://www.w3.org/2000/svg" xmlns:xlink="http://www.w3.org/1999/xlink">
    <!-- Generator: Sketch 51.2 (57519) - http://www.bohemiancoding.com/sketch -->
    <title>Search_User</title>
    <desc>Created with Sketch.</desc>
    <defs></defs>
    <g id="Page-1" stroke="none" stroke-width="1" fill="none" fill-rule="evenodd">
        <g id="Search_User" fill-rule="nonzero">
            <g id="Group">
                <polygon id="Shape" fill="#2767F4" points="126.5 115.8 116.5 125.9 87.5 97.3 97.5 87.2"></polygon>
                <path d="M17.1,16.8 C-4.4,38.3 -4.4,73.3 17.1,94.8 C38.6,116.3 73.6,116.3 95.1,94.8 C116.6,73.3 116.6,38.3 95.1,16.8 C73.5,-4.7 38.6,-4.7 17.1,16.8 Z M88.1,87.8 C70.4,105.5 41.7,105.5 24,87.8 C6.3,70.1 6.3,41.4 24,23.7 C41.7,6 70.4,6 88.1,23.7 C105.8,41.5 105.8,70.1 88.1,87.8 Z" id="Shape" fill="#4988FD"></path>
                <path d="M142.2,141.5 C137.7,146 130.5,146 126,141.5 L93.3,109.2 L109.5,93 L142.2,125.3 C146.6,129.8 146.6,137 142.2,141.5 Z" id="Shape" fill="#4988FD"></path>
            </g>
            <path d="M80,77.5 C80,79.8 77.7,79.8 77.7,79.8 L32.8,79.8 C32.8,79.8 30.5,79.8 30.5,77.5 C30.5,71.8 33.9,67.2 37.5,62.4 C38.8,60.7 41,58 44.1,55.2 C47.2,58.2 51.5,60 56.1,60 C60.6,60 64.7,58.3 67.8,55.6 C73.9,61.1 80,69.8 80,77.5 Z" id="Shape" fill="#21D3AC"></path>
            <circle id="Oval" fill="#21D3AC" cx="56" cy="42.4" r="14"></circle>
        </g>
    </g>
</svg>