<?xml version="1.0" encoding="UTF-8"?>
<svg width="128px" height="148px" viewBox="0 0 128 148" version="1.1" xmlns="http://www.w3.org/2000/svg" xmlns:xlink="http://www.w3.org/1999/xlink">
    <!-- Generator: Sketch 51.2 (57519) - http://www.bohemiancoding.com/sketch -->
    <title>Secure_Files</title>
    <desc>Created with Sketch.</desc>
    <defs></defs>
    <g id="Page-1" stroke="none" stroke-width="1" fill="none" fill-rule="evenodd">
        <g id="Secure_Files" fill-rule="nonzero">
            <path d="M17.5,65.8 L8.3,27.2 C7.6,24.3 9.4,21.4 12.3,20.8 L72.3,6.6 L106.3,29.7 L127.5,114.6 C128.2,117.5 126.4,120.4 123.5,121 L40.7,140.6 C37.8,141.3 34.9,139.5 34.3,136.6 L16.8,62.9" id="Shape" fill="#B2D0F5"></path>
            <g id="Group">
                <g id="Shape">
                    <path d="M122.2,63.2 L90.1,144.6 C89,147.3 85.9,148.7 83.1,147.5 L4.3,115.4 C1.6,114.3 0.2,111.2 1.4,108.4 L43.9,4.2 C45,1.5 48.1,0.1 50.9,1.3 L108,24.6 L122.2,63.2 Z" fill="#C5DCFA"></path>
                    <path d="M108,24.7 L98.9,47 C97.6,50.1 99.3,53.8 102.4,55.1 L122.3,63.2" fill="#B2D0F5"></path>
                </g>
                <g transform="translate(18.000000, 11.000000)" id="Shape">
                    <path d="M96,117.9 C96,120.9 93.6,123.3 90.6,123.3 L5.5,123.3 C2.5,123.3 0.1,120.9 0.1,117.9 L0.1,5.4 C0.1,2.4 2.5,0 5.5,0 L67.2,0 L94.9,30.3 L95.5,81.1 L96,117.9 Z" fill="#DFECFD"></path>
                    <path d="M95.6,81.2 L92.8,81.2 C92.8,75.8 93.3,70.8 89.6,64.7 C89.6,64.7 89.6,64.7 89.6,64.7 C89.5,64.5 87.5,61.6 87.3,61.6 C80.9,54.3 70.5,52.1 61.7,56 L55.1,60.6 C51.1,64.6 48.6,70.1 48.6,76.2 L48.6,81.3 L44.4,81.3 C42.5,81.3 40.9,82.8 40.9,84.8 L40.9,123.4 L90.6,123.4 C93.6,123.4 96,121 96,118 L95.6,81.2 Z M86.8,81.2 L54.7,81.2 L54.7,76.1 C54.7,62.2 71.5,54.4 82.1,64.8 C87.5,70.2 86.8,76.2 86.8,81.2 Z" fill="#CFE4FF"></path>
                    <path d="M80.3,91 L29.3,91 C28.5,91 27.8,90.3 27.8,89.5 C27.8,88.7 28.5,88 29.3,88 L80.3,88 C81.1,88 81.8,88.7 81.8,89.5 C81.8,90.3 81.1,91 80.3,91 Z" fill="#C5DCFA"></path>
                    <path d="M23,91 L14,91 C13.2,91 12.5,90.3 12.5,89.5 C12.5,88.7 13.2,88 14,88 L23,88 C23.8,88 24.5,88.7 24.5,89.5 C24.5,90.3 23.8,91 23,91 Z" fill="#C5DCFA"></path>
                    <path d="M80.1,77.2 L57.3,77.2 C56.5,77.2 55.8,76.5 55.8,75.7 C55.8,74.9 56.5,74.2 57.3,74.2 L80.1,74.2 C80.9,74.2 81.6,74.9 81.6,75.7 C81.6,76.5 81,77.2 80.1,77.2 Z" fill="#C5DCFA"></path>
                    <path d="M47.7,77.2 L14.4,77.2 C13.6,77.2 12.9,76.5 12.9,75.7 C12.9,74.9 13.6,74.2 14.4,74.2 L47.7,74.2 C48.5,74.2 49.2,74.9 49.2,75.7 C49.2,76.5 48.6,77.2 47.7,77.2 Z" fill="#C5DCFA"></path>
                    <path d="M80.6,63.5 L71.8,63.5 C71,63.5 70.3,62.8 70.3,62 C70.3,61.2 71,60.5 71.8,60.5 L80.6,60.5 C81.4,60.5 82.1,61.2 82.1,62 C82.1,62.8 81.4,63.5 80.6,63.5 Z" fill="#C5DCFA"></path>
                    <path d="M63.6,63.5 L14.9,63.5 C14.1,63.5 13.4,62.8 13.4,62 C13.4,61.2 14.1,60.5 14.9,60.5 L63.6,60.5 C64.4,60.5 65.1,61.2 65.1,62 C65.1,62.8 64.4,63.5 63.6,63.5 Z" fill="#C5DCFA"></path>
                    <path d="M41.6,106.1 L38.6,106.1 C37.8,106.1 37.1,105.4 37.1,104.6 C37.1,103.8 37.8,103.1 38.6,103.1 L41.6,103.1 C42.4,103.1 43.1,103.8 43.1,104.6 C43.1,105.4 42.5,106.1 41.6,106.1 Z" fill="#C5DCFA"></path>
                    <path d="M33,106.1 L14.9,106.1 C14.1,106.1 13.4,105.4 13.4,104.6 C13.4,103.8 14.1,103.1 14.9,103.1 L33,103.1 C33.8,103.1 34.5,103.8 34.5,104.6 C34.5,105.4 33.8,106.1 33,106.1 Z" fill="#C5DCFA"></path>
                    <path d="M81,49.7 L49.6,49.7 C48.8,49.7 48.1,49 48.1,48.2 C48.1,47.4 48.8,46.7 49.6,46.7 L81,46.7 C81.8,46.7 82.5,47.4 82.5,48.2 C82.5,49 81.9,49.7 81,49.7 Z" fill="#C5DCFA"></path>
                    <path d="M39.6,49.7 L15.4,49.7 C14.6,49.7 13.9,49 13.9,48.2 C13.9,47.4 14.6,46.7 15.4,46.7 L39.6,46.7 C40.4,46.7 41.1,47.4 41.1,48.2 C41.1,49 40.4,49.7 39.6,49.7 Z" fill="#C5DCFA"></path>
                    <path d="M56.6,18.7 L15.8,18.7 C14.7,18.7 13.8,17.8 13.8,16.7 C13.8,15.6 14.7,14.7 15.8,14.7 L56.6,14.7 C57.7,14.7 58.6,15.6 58.6,16.7 C58.6,17.8 57.7,18.7 56.6,18.7 Z" fill="#4988FD"></path>
                    <path d="M31.4,28.5 L15.8,28.5 C14.7,28.5 13.8,27.6 13.8,26.5 C13.8,25.4 14.7,24.5 15.8,24.5 L31.4,24.5 C32.5,24.5 33.4,25.4 33.4,26.5 C33.4,27.6 32.5,28.5 31.4,28.5 Z" fill="#4988FD"></path>
                    <path d="M67.3,0.1 L67.3,24.2 C67.3,27.5 70.2,30.4 73.6,30.4 L95.1,30.4" fill="#C5DCFA"></path>
                </g>
                <g transform="translate(66.000000, 64.000000)" id="Shape">
                    <path d="M7.6,27.8 C9.4,27.8 11.9,27.5 13.7,27.5 C13.7,24.2 13.8,20.8 14.8,17.6 C16.9,11.5 23,6.9 29.5,6.8 C36,6.6 42.3,10.9 44.7,16.9 C46,20.2 46.1,23.9 46,27.5 C47.8,27.5 49.7,27.5 51.5,27.5 C53,19.9 50.3,11.5 44.5,6.3 C28.6,-8.3 4.2,5.7 7.6,27.8 Z" fill="#2767F4"></path>
                    <path d="M59.4,28.2 L59.4,71.9 C59.4,73.9 57.8,75.5 55.8,75.5 L3.6,75.5 C1.6,75.5 4.54747351e-13,73.9 4.54747351e-13,71.9 L4.54747351e-13,28.2 C4.54747351e-13,26.2 1.6,24.6 3.6,24.6 L55.8,24.6 C57,24.6 58.1,25.2 58.7,26.1 C59.2,26.8 59.4,27.5 59.4,28.2 Z" fill="#4988FD"></path>
                    <path d="M58.8,26.2 L58.8,63.5 C58.8,65.5 57.2,67.1 55.2,67.1 L3,67.1 C1.8,67.1 0.7,66.5 0.1,65.6 L0.1,28.3 C0.1,26.3 1.7,24.7 3.7,24.7 L55.9,24.7 C57.1,24.7 58.1,25.3 58.8,26.2 Z" fill="#6097FD"></path>
                    <path d="M37.3,45.1 C37.3,48.2 35.3,50.9 32.4,51.8 L32.4,59.2 C32.4,60.4 31.4,61.3 30.3,61.3 C29.1,61.3 28.2,60.3 28.2,59.2 L28.2,51.8 C25.4,50.9 23.3,48.3 23.3,45.1 C23.3,41.2 26.4,38.1 30.3,38.1 C34.2,38.1 37.3,41.3 37.3,45.1 Z" fill="#2767F4"></path>
                </g>
            </g>
        </g>
    </g>
</svg>