<?xml version="1.0" encoding="UTF-8"?>
<svg width="149px" height="134px" viewBox="0 0 149 134" version="1.1" xmlns="http://www.w3.org/2000/svg" xmlns:xlink="http://www.w3.org/1999/xlink">
    <!-- Generator: Sketch 51.2 (57519) - http://www.bohemiancoding.com/sketch -->
    <title>Secure_Payments</title>
    <desc>Created with Sketch.</desc>
    <defs></defs>
    <g id="Page-1" stroke="none" stroke-width="1" fill="none" fill-rule="evenodd">
        <g id="Secure_Payments" fill-rule="nonzero">
            <g id="Group" transform="translate(0.000000, 33.000000)">
                <path d="M148.9,89.9 L148.9,93.8 C148.9,97.3 145.9,100.2 142.2,100.2 L7.3,100.2 C3.6,100.2 0.6,97.3 0.6,93.8 L0.6,89.9 L61.6,89.9 C62.1,91.3 63.5,92.4 65.2,92.4 L84.3,92.4 C86,92.4 87.4,91.4 87.9,89.9 L148.9,89.9 Z" id="Shape" fill="#2767F4"></path>
                <path d="M148.9,89.9 C148.9,93.4 145.9,96.2 142.2,96.2 L7.3,96.2 C3.6,96.2 0.6,93.4 0.6,89.9 L61.6,89.9 C62.1,91.3 63.5,92.4 65.2,92.4 L84.3,92.4 C86,92.4 87.4,91.4 87.9,89.9 L148.9,89.9 Z" id="Shape" fill="#3973F4"></path>
                <path d="M141.3,89.9 L8.3,89.9 L8.3,5.7 C8.3,3 10.5,0.8 13.2,0.8 L136.5,0.8 C139.2,0.8 141.4,3 141.4,5.7 L141.3,89.9 Z" id="Shape" fill="#4988FD"></path>
                <polyline id="Shape" fill="#FFFFFF" points="108.2 90.2 14.5 90.2 14.5 7.8 134.6 7.8 134.6 90.2 122 90.2"></polyline>
                <path d="M14.5,7.8 L134.6,7.8" id="Shape" fill="#FFFFFF"></path>
            </g>
            <g id="Group" transform="translate(18.000000, 56.000000)" fill="#C5DCFA">
                <path d="M57.3,50.9 L48.8,50.9 C47.4,50.9 46.3,49.8 46.3,48.4 C46.3,47 47.4,45.9 48.8,45.9 L57.3,45.9 C58.7,45.9 59.8,47 59.8,48.4 C59.8,49.8 58.7,50.9 57.3,50.9 Z" id="Shape"></path>
                <path d="M38.5,50.9 L3.3,50.9 C1.9,50.9 0.8,49.8 0.8,48.4 C0.8,47 1.9,45.9 3.3,45.9 L38.5,45.9 C39.9,45.9 41,47 41,48.4 C41,49.8 39.9,50.9 38.5,50.9 Z" id="Shape"></path>
                <path d="M73.7,39 L35.4,39 C34,39 32.9,37.9 32.9,36.5 C32.9,35.1 34,34 35.4,34 L73.7,34 C75.1,34 76.2,35.1 76.2,36.5 C76.2,37.9 75.1,39 73.7,39 Z" id="Shape"></path>
                <path d="M24.7,39 L3.8,39 C2.4,39 1.3,37.9 1.3,36.5 C1.3,35.1 2.4,34 3.8,34 L24.7,34 C26.1,34 27.2,35.1 27.2,36.5 C27.2,37.9 26.1,39 24.7,39 Z" id="Shape"></path>
                <path d="M28.8,5.4 L4.3,5.4 C2.9,5.4 1.8,4.3 1.8,2.9 C1.8,1.5 2.9,0.4 4.3,0.4 L28.8,0.4 C30.2,0.4 31.3,1.5 31.3,2.9 C31.3,4.3 30.2,5.4 28.8,5.4 Z" id="Shape"></path>
                <path d="M20.9,15.8 L4.3,15.8 C2.9,15.8 1.8,14.7 1.8,13.3 C1.8,11.9 2.9,10.8 4.3,10.8 L20.9,10.8 C22.3,10.8 23.4,11.9 23.4,13.3 C23.4,14.7 22.2,15.8 20.9,15.8 Z" id="Shape"></path>
            </g>
            <g id="Group" transform="translate(39.000000, 0.000000)">
                <path d="M69.6,11.9 C69.5,31.4 68.7,44.1 64,54 C59.4,63.9 50.9,71 35.3,79.4 C35.2,79.4 35.1,79.5 35,79.5 C3.6,62.5 0.7,50.8 0.5,11.8 C0.8,11.8 1.1,11.8 1.4,11.8 C10.2,11.8 24.7,7.1 35.1,0.1 C45.7,7.5 60.9,12.2 69.6,11.9 Z" id="Shape" fill="#21D3AC"></path>
                <path d="M35,72 C34.7,72 34.5,71.9 34.3,71.8 C10.8,58.5 7.5,49.2 7,19.1 C7,18.4 7.5,17.7 8.3,17.6 C16.6,16.2 26.4,12.7 34.4,8.1 C34.9,7.8 35.4,7.8 35.9,8.1 C43.9,12.7 53.6,16.2 62,17.6 C62.7,17.7 63.3,18.4 63.3,19.1 C63,33.1 62.1,43.4 58.4,51.2 C54.8,58.8 48.3,64.7 36,71.8 C35.6,72 35.3,72 35,72 Z M10,20.4 C10.7,49.5 14.6,57.2 35,68.8 C46.3,62.3 52.3,56.8 55.5,50 C58.8,42.9 59.8,33.4 60.1,20.4 C52,18.9 42.8,15.5 35.1,11.2 C27.3,15.5 18.1,18.9 10,20.4 Z" id="Shape" fill="#59E0C3"></path>
                <path d="M33.2,51.4 C31.6,51.4 30.1,50.8 29,49.7 L21.1,42 C19.7,40.7 19.7,38.4 21,37.1 C22.3,35.7 24.6,35.7 25.9,37 L33.1,44 L47.3,29.8 C48.7,28.4 50.9,28.4 52.2,29.8 C53.6,31.2 53.6,33.4 52.2,34.7 L37.3,49.6 C36.3,50.7 34.8,51.4 33.2,51.4 Z M33.8,44.6 C33.9,44.6 33.9,44.6 33.8,44.6 Z" id="Shape" fill="#FFFFFF"></path>
            </g>
            <path d="M114.1,106.8 C112.7,106.8 111.6,105.7 111.6,104.3 L111.6,102.2 C109.8,102 108.1,101.6 106.6,100.9 C105.3,100.3 104.7,98.9 105.2,97.6 C105.6,96.5 106.6,95.8 107.7,95.8 C108.1,95.8 108.5,95.9 108.8,96 C109.8,96.5 111.4,97 113.3,97 C115.9,97 117.6,95.7 117.6,93.7 C117.6,92.4 117.1,90.9 113.2,89.3 C109,87.6 105.1,85.4 105.1,80.5 C105.1,76.5 107.7,73.4 111.9,72.3 L111.9,70 C111.9,68.6 113,67.5 114.4,67.5 C115.8,67.5 116.9,68.6 116.9,70 L116.9,72 C118.3,72.1 119.6,72.4 120.7,72.9 C122,73.4 122.7,75 122.2,76.3 C121.8,77.4 120.8,78 119.7,78 C119.3,78 119,77.9 118.7,77.8 C117.5,77.3 116.3,77.1 114.9,77.1 C112.2,77.1 111.2,78.5 111.2,79.9 C111.2,81.4 111.9,82.3 116.1,84 C119.7,85.5 123.8,87.8 123.8,93.3 C123.8,97.5 121,100.8 116.7,101.9 L116.7,104.3 C116.6,105.7 115.5,106.8 114.1,106.8 Z" id="Shape" fill="#4988FD"></path>
        </g>
    </g>
</svg>