<?xml version="1.0" encoding="UTF-8"?>
<svg width="147px" height="116px" viewBox="0 0 147 116" version="1.1" xmlns="http://www.w3.org/2000/svg" xmlns:xlink="http://www.w3.org/1999/xlink">
    <!-- Generator: Sketch 51.2 (57519) - http://www.bohemiancoding.com/sketch -->
    <title>Sent_Email</title>
    <desc>Created with Sketch.</desc>
    <defs></defs>
    <g id="Page-1" stroke="none" stroke-width="1" fill="none" fill-rule="evenodd">
        <g id="Sent_Email">
            <path d="M97,112.4 L97,113.1 C97,114.4 95.2,115.6 93.9,115.6 L4,115.5 C2.8,115.5 1.1,113 1,111.8 L1,111.6 L0.6,59.7 C0.7,59.6 0.9,59.4 1,59.3 C33,29.2 46.9,18.4 46.9,18.4 C47.9,17.5 49.5,17.4 50.7,18.4 C51.9,19.5 53.1,18.5 96.3,57.9 C96.5,58.1 96.7,58.3 97,58.5 L97,71.6 L97,112.4 Z" id="Shape" fill="#C5DCFA" fill-rule="nonzero"></path>
            <path d="M97.2,58.7 L97.2,113.5 C97.2,113.8 97.1,114.1 97,114.4 C96.8,115 96.3,115.4 95.7,115.6 C95.5,115.7 95.2,115.7 94.9,115.7 L3.8,115.8 C2.3,115.8 1.1,114.6 1,113.1 L0.6,59.7 C0.8,59.6 0.9,59.5 1.1,59.4 L44.7,83.5 C47.8,85.2 51.6,85.1 54.6,83.3 L94.2,59.2 L96.2,58.2 C96.7,58.4 96.8,58.5 97.2,58.7 Z" id="Shape" fill="#DFECFD" fill-rule="nonzero"></path>
            <g id="Group" transform="translate(43.000000, 12.000000)" stroke="#6097FD" stroke-linecap="round" stroke-linejoin="round" stroke-width="2.3588">
                <path d="M11.8,62.7 C11.1,62.1 10.4,61.5 9.7,60.9" id="Shape"></path>
                <path d="M6.2,56.8 C1.5,50.3 -0.6,41.9 0.6,34 C2.4,21.9 10.8,19.6 15.4,21.6 C18.5,23 20.4,27.2 18.8,30.4 C15.8,36.1 4.4,33.6 2.2,24.1 C1.4,20.6 2.2,16.7 4.3,13.8 C7.8,9 14.2,7.4 20.1,6.4 C30.6,4.6 43.8,3.8 51.1,13.3 C52,14.5 52.8,15.9 52.8,17.4 C52.9,20.5 49.4,25 41.6,22.7 C30.2,19.2 27.6,6.1 43,3.2 C45.8,2.7 50.7,2.2 56,1.5" id="Shape" stroke-dasharray="5.4283,5.4283"></path>
                <path d="M58.5,1.2 C59.4,1.1 60.3,0.9 61.2,0.8" id="Shape"></path>
            </g>
            <g id="Group" transform="translate(102.000000, 0.000000)" fill-rule="nonzero">
                <polyline id="Shape" fill="#2767F4" points="10.2 15.1 4.9 17.7 5.7 8.4"></polyline>
                <polygon id="Shape" fill="#4988FD" points="45.1 3.9 42.6 5.2 14.3 21.2 6.9 10.2 5.7 8.4 0.5 0.7 40.5 3.5"></polygon>
                <polygon id="Shape" fill="#2767F4" points="45.1 3.9 42.6 5.2 6.9 10.2 5.7 8.4 40.5 3.5"></polygon>
            </g>
        </g>
    </g>
</svg>