<?xml version="1.0" encoding="UTF-8"?>
<svg width="140px" height="147px" viewBox="0 0 140 147" version="1.1" xmlns="http://www.w3.org/2000/svg" xmlns:xlink="http://www.w3.org/1999/xlink">
    <!-- Generator: Sketch 51.2 (57519) - http://www.bohemiancoding.com/sketch -->
    <title>Servers_2</title>
    <desc>Created with Sketch.</desc>
    <defs></defs>
    <g id="Page-1" stroke="none" stroke-width="1" fill="none" fill-rule="evenodd">
        <g id="Servers_2" fill-rule="nonzero">
            <rect id="Rectangle-path" fill="#3973F4" x="22.9" y="35" width="112.4" height="15"></rect>
            <polygon id="Shape" fill="#2767F4" points="135.2 42.9 22.9 42.9 22.9 39 135.2 26.8"></polygon>
            <polyline id="Shape" fill="#4988FD" points="5.9 40 5.9 35 118.2 35 118.2 50.1 5.9 50.1 5.9 44.9"></polyline>
            <rect id="Rectangle-path" fill="#3973F4" x="5.9" y="37.7" width="112.4" height="5.1"></rect>
            <path d="M133.8,38.6 L6.7,38.6 C3.6,38.6 1,36 1,32.9 L1,6.4 C1,3.3 3.6,0.7 6.7,0.7 L133.8,0.7 C136.9,0.7 139.5,3.3 139.5,6.4 L139.5,32.9 C139.5,36.1 136.9,38.6 133.8,38.6 Z" id="Shape" fill="#3973F4"></path>
            <path d="M17.2,0.7 L115.8,0.7 C118,0.7 119.9,2.5 119.9,4.7 L119.9,34.5 C119.9,36.7 118.1,38.6 115.8,38.6 L5,38.6 C2.8,38.6 0.9,36.8 0.9,34.5 L0.9,4.7 C0.9,2.5 2.7,0.7 5,0.7 L7.7,0.7" id="Shape" fill="#6097FD"></path>
            <g id="Group" transform="translate(45.000000, 11.000000)" fill="#3973F4">
                <circle id="Oval" transform="translate(2.642720, 2.453480) rotate(-45.000000) translate(-2.642720, -2.453480) " cx="2.64272" cy="2.45348" r="1.59998466"></circle>
                <circle id="Oval" transform="translate(2.651740, 9.649300) rotate(-45.000000) translate(-2.651740, -9.649300) " cx="2.65174" cy="9.6493" r="1.59998466"></circle>
                <circle id="Oval" transform="translate(2.661360, 16.845420) rotate(-45.000000) translate(-2.661360, -16.845420) " cx="2.66136" cy="16.84542" r="1.59998466"></circle>
                <circle id="Oval" transform="translate(9.824530, 6.349750) rotate(-45.000000) translate(-9.824530, -6.349750) " cx="9.82453" cy="6.34975" r="1.59998466"></circle>
                <circle id="Oval" transform="translate(9.833550, 13.545870) rotate(-45.000000) translate(-9.833550, -13.545870) " cx="9.83355" cy="13.54587" r="1.59998466"></circle>
                <circle id="Oval" transform="translate(17.034360, 2.434540) rotate(-45.000000) translate(-17.034360, -2.434540) " cx="17.03436" cy="2.43454" r="1.59998466"></circle>
                <circle id="Oval" transform="translate(17.043980, 9.630660) rotate(-45.000000) translate(-17.043980, -9.630660) " cx="17.04398" cy="9.63066" r="1.59998466"></circle>
                <circle id="Oval" transform="translate(17.053500, 16.826480) rotate(-45.000000) translate(-17.053500, -16.826480) " cx="17.0535" cy="16.82648" r="1.59998466"></circle>
                <circle id="Oval" transform="translate(24.145460, 6.401520) rotate(-45.000000) translate(-24.145460, -6.401520) " cx="24.14546" cy="6.40152" r="1.59998466"></circle>
                <circle id="Oval" transform="translate(24.155080, 13.597640) rotate(-45.000000) translate(-24.155080, -13.597640) " cx="24.15508" cy="13.59764" r="1.59998466"></circle>
                <circle id="Oval" transform="translate(31.355890, 2.486310) rotate(-45.000000) translate(-31.355890, -2.486310) " cx="31.35589" cy="2.48631" r="1.59998466"></circle>
                <circle id="Oval" transform="translate(31.365410, 9.682430) rotate(-45.000000) translate(-31.365410, -9.682430) " cx="31.36541" cy="9.68243" r="1.59998466"></circle>
                <circle id="Oval" transform="translate(31.374530, 16.878550) rotate(-45.000000) translate(-31.374530, -16.878550) " cx="31.37453" cy="16.87855" r="1.59998466"></circle>
                <circle id="Oval" transform="translate(38.537700, 6.382580) rotate(-45.000000) translate(-38.537700, -6.382580) " cx="38.5377" cy="6.38258" r="1.59998466"></circle>
                <circle id="Oval" transform="translate(38.547320, 13.578700) rotate(-45.000000) translate(-38.547320, -13.578700) " cx="38.54732" cy="13.5787" r="1.59998466"></circle>
                <circle id="Oval" transform="translate(45.748130, 2.467370) rotate(-45.000000) translate(-45.748130, -2.467370) " cx="45.74813" cy="2.46737" r="1.59998466"></circle>
                <circle id="Oval" transform="translate(45.757150, 9.663490) rotate(-45.000000) translate(-45.757150, -9.663490) " cx="45.75715" cy="9.66349" r="1.59998466"></circle>
                <circle id="Oval" transform="translate(45.766770, 16.859610) rotate(-45.000000) translate(-45.766770, -16.859610) " cx="45.76677" cy="16.85961" r="1.59998466"></circle>
                <circle id="Oval" transform="translate(52.929940, 6.363940) rotate(-45.000000) translate(-52.929940, -6.363940) " cx="52.92994" cy="6.36394" r="1.59998466"></circle>
                <circle id="Oval" transform="translate(52.938960, 13.559860) rotate(-45.000000) translate(-52.938960, -13.559860) " cx="52.93896" cy="13.55986" r="1.59998466"></circle>
                <circle id="Oval" transform="translate(60.139770, 2.448730) rotate(-45.000000) translate(-60.139770, -2.448730) " cx="60.13977" cy="2.44873" r="1.59998466"></circle>
                <circle id="Oval" transform="translate(60.149390, 9.644650) rotate(-45.000000) translate(-60.149390, -9.644650) " cx="60.14939" cy="9.64465" r="1.59998466"></circle>
                <circle id="Oval" transform="translate(60.158910, 16.840670) rotate(-45.000000) translate(-60.158910, -16.840670) " cx="60.15891" cy="16.84067" r="1.59998466"></circle>
            </g>
            <circle id="Oval" fill="#3973F4" cx="21.6" cy="21.3" r="7.8"></circle>
            <rect id="Rectangle-path" fill="#3973F4" x="22.9" y="83.4" width="112.4" height="15"></rect>
            <polygon id="Shape" fill="#2767F4" points="135.2 91.2 22.9 91.2 22.9 87.3 135.2 86.1"></polygon>
            <polyline id="Shape" fill="#4988FD" points="5.9 88.4 5.9 83.4 118.2 83.4 118.2 98.4 5.9 98.4 5.9 93.3"></polyline>
            <rect id="Rectangle-path" fill="#3973F4" x="5.9" y="85.5" width="112.4" height="5.7"></rect>
            <path d="M133.8,87 L6.7,87 C3.6,87 1,84.4 1,81.3 L1,54.8 C1,51.7 3.6,49.1 6.7,49.1 L133.8,49.1 C136.9,49.1 139.5,51.7 139.5,54.8 L139.5,81.3 C139.5,84.4 136.9,87 133.8,87 Z" id="Shape" fill="#3973F4"></path>
            <path d="M17.2,49.1 L115.8,49.1 C118,49.1 119.9,50.9 119.9,53.1 L119.9,82.9 C119.9,85.1 118.1,87 115.8,87 L5,87 C2.8,87 0.9,85.2 0.9,82.9 L0.9,53.1 C0.9,50.9 2.7,49.1 5,49.1 L7.7,49.1" id="Shape" fill="#6097FD"></path>
            <g id="Group" transform="translate(45.000000, 59.000000)" fill="#3973F4">
                <circle id="Oval" transform="translate(2.609550, 2.766510) rotate(-45.000000) translate(-2.609550, -2.766510) " cx="2.60955" cy="2.76651" r="1.59998466"></circle>
                <circle id="Oval" transform="translate(2.618670, 9.962630) rotate(-45.000000) translate(-2.618670, -9.962630) " cx="2.61867" cy="9.96263" r="1.59998466"></circle>
                <circle id="Oval" transform="translate(2.628190, 17.158750) rotate(-45.000000) translate(-2.628190, -17.158750) " cx="2.62819" cy="17.15875" r="1.59998466"></circle>
                <circle id="Oval" transform="translate(9.791360, 6.663080) rotate(-45.000000) translate(-9.791360, -6.663080) " cx="9.79136" cy="6.66308" r="1.59998466"></circle>
                <circle id="Oval" transform="translate(9.800980, 13.858900) rotate(-45.000000) translate(-9.800980, -13.858900) " cx="9.80098" cy="13.8589" r="1.59998466"></circle>
                <circle id="Oval" transform="translate(17.001290, 2.747570) rotate(-45.000000) translate(-17.001290, -2.747570) " cx="17.00129" cy="2.74757" r="1.59998466"></circle>
                <circle id="Oval" transform="translate(17.010910, 9.943690) rotate(-45.000000) translate(-17.010910, -9.943690) " cx="17.01091" cy="9.94369" r="1.59998466"></circle>
                <circle id="Oval" transform="translate(17.020430, 17.139810) rotate(-45.000000) translate(-17.020430, -17.139810) " cx="17.02043" cy="17.13981" r="1.59998466"></circle>
                <circle id="Oval" transform="translate(24.112890, 6.714850) rotate(-45.000000) translate(-24.112890, -6.714850) " cx="24.11289" cy="6.71485" r="1.59998466"></circle>
                <circle id="Oval" transform="translate(24.122010, 13.910770) rotate(-45.000000) translate(-24.122010, -13.910770) " cx="24.12201" cy="13.91077" r="1.59998466"></circle>
                <circle id="Oval" transform="translate(31.322820, 2.799640) rotate(-45.000000) translate(-31.322820, -2.799640) " cx="31.32282" cy="2.79964" r="1.59998466"></circle>
                <circle id="Oval" transform="translate(31.332340, 9.995460) rotate(-45.000000) translate(-31.332340, -9.995460) " cx="31.33234" cy="9.99546" r="1.59998466"></circle>
                <circle id="Oval" transform="translate(31.341460, 17.191580) rotate(-45.000000) translate(-31.341460, -17.191580) " cx="31.34146" cy="17.19158" r="1.59998466"></circle>
                <circle id="Oval" transform="translate(38.504630, 6.695910) rotate(-45.000000) translate(-38.504630, -6.695910) " cx="38.50463" cy="6.69591" r="1.59998466"></circle>
                <circle id="Oval" transform="translate(38.514150, 13.892030) rotate(-45.000000) translate(-38.514150, -13.892030) " cx="38.51415" cy="13.89203" r="1.59998466"></circle>
                <circle id="Oval" transform="translate(45.714960, 2.780700) rotate(-45.000000) translate(-45.714960, -2.780700) " cx="45.71496" cy="2.7807" r="1.59998466"></circle>
                <circle id="Oval" transform="translate(45.724080, 9.976820) rotate(-45.000000) translate(-45.724080, -9.976820) " cx="45.72408" cy="9.97682" r="1.59998466"></circle>
                <circle id="Oval" transform="translate(45.733600, 17.172740) rotate(-45.000000) translate(-45.733600, -17.172740) " cx="45.7336" cy="17.17274" r="1.59998466"></circle>
                <circle id="Oval" transform="translate(52.896770, 6.677070) rotate(-45.000000) translate(-52.896770, -6.677070) " cx="52.89677" cy="6.67707" r="1.59998466"></circle>
                <circle id="Oval" transform="translate(52.906390, 13.873190) rotate(-45.000000) translate(-52.906390, -13.873190) " cx="52.90639" cy="13.87319" r="1.59998466"></circle>
                <circle id="Oval" transform="translate(60.107200, 2.761860) rotate(-45.000000) translate(-60.107200, -2.761860) " cx="60.1072" cy="2.76186" r="1.59998466"></circle>
                <circle id="Oval" transform="translate(60.116220, 9.957980) rotate(-45.000000) translate(-60.116220, -9.957980) " cx="60.11622" cy="9.95798" r="1.59998466"></circle>
                <circle id="Oval" transform="translate(60.125840, 17.154000) rotate(-45.000000) translate(-60.125840, -17.154000) " cx="60.12584" cy="17.154" r="1.59998466"></circle>
            </g>
            <circle id="Oval" fill="#3973F4" cx="21.6" cy="69.7" r="7.8"></circle>
            <rect id="Rectangle-path" fill="#3973F4" x="22.9" y="131.7" width="112.4" height="15"></rect>
            <polygon id="Shape" fill="#2767F4" points="135.2 139.6 22.9 139.6 22.9 135.7 135.2 123.4"></polygon>
            <polyline id="Shape" fill="#4988FD" points="5.9 136.7 5.9 131.7 118.2 131.7 118.2 146.8 5.9 146.8 5.9 141.6"></polyline>
            <rect id="Rectangle-path" fill="#3973F4" x="5.9" y="131.8" width="112.4" height="7.7"></rect>
            <path d="M133.8,135.3 L6.7,135.3 C3.6,135.3 1,132.7 1,129.6 L1,103.1 C1,100 3.6,97.4 6.7,97.4 L133.8,97.4 C136.9,97.4 139.5,100 139.5,103.1 L139.5,129.6 C139.5,132.8 136.9,135.3 133.8,135.3 Z" id="Shape" fill="#3973F4"></path>
            <path d="M17.2,97.4 L115.8,97.4 C118,97.4 119.9,99.2 119.9,101.4 L119.9,131.2 C119.9,133.4 118.1,135.3 115.8,135.3 L5,135.3 C2.8,135.3 0.9,133.5 0.9,131.2 L0.9,101.4 C0.9,99.2 2.7,97.4 5,97.4 L7.7,97.4" id="Shape" fill="#6097FD"></path>
            <g id="Group" transform="translate(45.000000, 107.000000)" fill="#3973F4">
                <circle id="Oval" transform="translate(2.647190, 3.150550) rotate(-45.000000) translate(-2.647190, -3.150550) " cx="2.64719" cy="3.15055" r="1.59998466"></circle>
                <circle id="Oval" transform="translate(2.656710, 10.346370) rotate(-45.000000) translate(-2.656710, -10.346370) " cx="2.65671" cy="10.34637" r="1.59998466"></circle>
                <circle id="Oval" transform="translate(2.595120, 17.471780) rotate(-45.000000) translate(-2.595120, -17.471780) " cx="2.59512" cy="17.47178" r="1.59998466"></circle>
                <circle id="Oval" transform="translate(9.829000, 7.046820) rotate(-45.000000) translate(-9.829000, -7.046820) " cx="9.829" cy="7.04682" r="1.59998466"></circle>
                <circle id="Oval" transform="translate(9.838620, 14.242940) rotate(-45.000000) translate(-9.838620, -14.242940) " cx="9.83862" cy="14.24294" r="1.59998466"></circle>
                <circle id="Oval" transform="translate(17.039330, 3.131610) rotate(-45.000000) translate(-17.039330, -3.131610) " cx="17.03933" cy="3.13161" r="1.59998466"></circle>
                <circle id="Oval" transform="translate(17.048450, 10.327730) rotate(-45.000000) translate(-17.048450, -10.327730) " cx="17.04845" cy="10.32773" r="1.59998466"></circle>
                <circle id="Oval" transform="translate(16.987360, 17.452940) rotate(-45.000000) translate(-16.987360, -17.452940) " cx="16.98736" cy="17.45294" r="1.59998466"></circle>
                <circle id="Oval" transform="translate(24.150530, 7.098690) rotate(-45.000000) translate(-24.150530, -7.098690) " cx="24.15053" cy="7.09869" r="1.59998466"></circle>
                <circle id="Oval" transform="translate(24.159550, 14.294810) rotate(-45.000000) translate(-24.159550, -14.294810) " cx="24.15955" cy="14.29481" r="1.59998466"></circle>
                <circle id="Oval" transform="translate(31.360360, 3.183480) rotate(-45.000000) translate(-31.360360, -3.183480) " cx="31.36036" cy="3.18348" r="1.59998466"></circle>
                <circle id="Oval" transform="translate(31.369980, 10.379500) rotate(-45.000000) translate(-31.369980, -10.379500) " cx="31.36998" cy="10.3795" r="1.59998466"></circle>
                <circle id="Oval" transform="translate(31.308790, 17.504910) rotate(-45.000000) translate(-31.308790, -17.504910) " cx="31.30879" cy="17.50491" r="1.59998466"></circle>
                <circle id="Oval" transform="translate(38.542170, 7.079950) rotate(-45.000000) translate(-38.542170, -7.079950) " cx="38.54217" cy="7.07995" r="1.59998466"></circle>
                <circle id="Oval" transform="translate(38.551790, 14.275870) rotate(-45.000000) translate(-38.551790, -14.275870) " cx="38.55179" cy="14.27587" r="1.59998466"></circle>
                <circle id="Oval" transform="translate(45.752600, 3.164540) rotate(-45.000000) translate(-45.752600, -3.164540) " cx="45.7526" cy="3.16454" r="1.59998466"></circle>
                <circle id="Oval" transform="translate(45.762120, 10.360660) rotate(-45.000000) translate(-45.762120, -10.360660) " cx="45.76212" cy="10.36066" r="1.59998466"></circle>
                <circle id="Oval" transform="translate(45.700530, 17.486070) rotate(-45.000000) translate(-45.700530, -17.486070) " cx="45.70053" cy="17.48607" r="1.59998466"></circle>
                <circle id="Oval" transform="translate(52.934410, 7.061110) rotate(-45.000000) translate(-52.934410, -7.061110) " cx="52.93441" cy="7.06111" r="1.59998466"></circle>
                <circle id="Oval" transform="translate(52.943930, 14.256930) rotate(-45.000000) translate(-52.943930, -14.256930) " cx="52.94393" cy="14.25693" r="1.59998466"></circle>
                <circle id="Oval" transform="translate(60.144740, 3.145900) rotate(-45.000000) translate(-60.144740, -3.145900) " cx="60.14474" cy="3.1459" r="1.59998466"></circle>
                <circle id="Oval" transform="translate(60.153860, 10.341720) rotate(-45.000000) translate(-60.153860, -10.341720) " cx="60.15386" cy="10.34172" r="1.59998466"></circle>
                <circle id="Oval" transform="translate(60.092770, 17.467130) rotate(-45.000000) translate(-60.092770, -17.467130) " cx="60.09277" cy="17.46713" r="1.59998466"></circle>
            </g>
            <circle id="Oval" fill="#3973F4" cx="21.6" cy="118" r="7.8"></circle>
        </g>
    </g>
</svg>