<?xml version="1.0" encoding="UTF-8"?>
<svg width="143px" height="148px" viewBox="0 0 143 148" version="1.1" xmlns="http://www.w3.org/2000/svg" xmlns:xlink="http://www.w3.org/1999/xlink">
    <!-- Generator: Sketch 51.2 (57519) - http://www.bohemiancoding.com/sketch -->
    <title>Servers</title>
    <desc>Created with Sketch.</desc>
    <defs></defs>
    <g id="Page-1" stroke="none" stroke-width="1" fill="none" fill-rule="evenodd">
        <g id="Servers" fill-rule="nonzero">
            <g id="Group" transform="translate(0.000000, 27.000000)">
                <path d="M139.5,115.4 L80.6,115.4 C78.8,115.4 77.4,114 77.4,112.2 C77.4,110.4 78.8,109 80.6,109 L139.5,109 C141.3,109 142.7,110.4 142.7,112.2 C142.7,113.9 141.3,115.4 139.5,115.4 Z" id="Shape" fill="#3973F4"></path>
                <path d="M71.8,18.5 C70,18.5 68.6,16.6 68.6,14.3 L68.6,4.5 C68.6,2.2 70,0.3 71.8,0.3 C73.6,0.3 75,2.2 75,4.5 L75,14.3 C75,16.6 73.6,18.5 71.8,18.5 Z" id="Shape" fill="#3973F4"></path>
                <path d="M71.8,60.1 C70,60.1 68.6,57.7 68.6,54.8 L68.6,44 C68.6,41.1 70,38.7 71.8,38.7 C73.6,38.7 75,41.1 75,44 L75,54.8 C75,57.7 73.6,60.1 71.8,60.1 Z" id="Shape" fill="#3973F4"></path>
                <path d="M63,115.4 L4,115.4 C2.2,115.4 0.8,114 0.8,112.2 C0.8,110.4 2.2,109 4,109 L63,109 C64.8,109 66.2,110.4 66.2,112.2 C66.2,113.9 64.8,115.4 63,115.4 Z" id="Shape" fill="#3973F4"></path>
                <path d="M71.8,106.5 C70,106.5 68.6,105.1 68.6,103.3 L68.6,83.6 C68.6,81.8 70,80.4 71.8,80.4 C73.6,80.4 75,81.8 75,83.6 L75,103.3 C75,105.1 73.6,106.5 71.8,106.5 Z" id="Shape" fill="#3973F4"></path>
                <circle id="Oval" fill="#C5DCFA" cx="71.8" cy="112.2" r="8.8"></circle>
            </g>
            <g id="Group" transform="translate(4.000000, 0.000000)">
                <path d="M130,32.5 L5.6,32.5 C2.9,32.5 0.7,30.3 0.7,27.6 L0.7,5.2 C0.7,2.5 2.9,0.3 5.6,0.3 L130,0.3 C132.7,0.3 134.9,2.5 134.9,5.2 L134.9,27.6 C134.9,30.3 132.7,32.5 130,32.5 Z" id="Shape" fill="#4988FD"></path>
                <g transform="translate(10.000000, 15.000000)" fill="#3973F4" id="Shape">
                    <path d="M2.1,2.2 L6.3,2.2"></path>
                    <path d="M6.3,4.1 L2.1,4.1 C1,4.1 0.2,3.2 0.2,2.2 C0.2,1.2 1.1,0.3 2.1,0.3 L6.3,0.3 C7.4,0.3 8.2,1.2 8.2,2.2 C8.2,3.2 7.3,4.1 6.3,4.1 Z"></path>
                </g>
                <g transform="translate(21.000000, 15.000000)" fill="#3973F4" id="Shape">
                    <path d="M2.6,2.2 L6.7,2.2"></path>
                    <path d="M6.7,4.1 L2.5,4.1 C1.4,4.1 0.6,3.2 0.6,2.2 C0.6,1.2 1.5,0.3 2.5,0.3 L6.7,0.3 C7.8,0.3 8.6,1.2 8.6,2.2 C8.6,3.2 7.8,4.1 6.7,4.1 Z"></path>
                </g>
                <g transform="translate(33.000000, 15.000000)" fill="#3973F4" id="Shape">
                    <path d="M2,2.2 L6.2,2.2"></path>
                    <path d="M6.2,4.1 L2,4.1 C0.9,4.1 0.1,3.2 0.1,2.2 C0.1,1.2 1,0.3 2,0.3 L6.2,0.3 C7.3,0.3 8.1,1.2 8.1,2.2 C8.1,3.2 7.2,4.1 6.2,4.1 Z"></path>
                </g>
                <g transform="translate(44.000000, 15.000000)" fill="#3973F4" id="Shape">
                    <path d="M2.5,2.2 L6.6,2.2"></path>
                    <path d="M6.6,4.1 L2.4,4.1 C1.3,4.1 0.5,3.2 0.5,2.2 C0.5,1.2 1.4,0.3 2.4,0.3 L6.6,0.3 C7.7,0.3 8.5,1.2 8.5,2.2 C8.5,3.2 7.7,4.1 6.6,4.1 Z"></path>
                </g>
                <g transform="translate(56.000000, 15.000000)" fill="#3973F4" id="Shape">
                    <path d="M1.9,2.2 L6.1,2.2"></path>
                    <path d="M6.1,4.1 L1.9,4.1 C0.8,4.1 0,3.2 0,2.2 C0,1.2 0.9,0.3 1.9,0.3 L6.1,0.3 C7.2,0.3 8,1.2 8,2.2 C8,3.2 7.1,4.1 6.1,4.1 Z"></path>
                </g>
                <g transform="translate(67.000000, 15.000000)" fill="#3973F4" id="Shape">
                    <path d="M2.4,2.2 L6.5,2.2"></path>
                    <path d="M6.5,4.1 L2.3,4.1 C1.2,4.1 0.4,3.2 0.4,2.2 C0.4,1.2 1.3,0.3 2.3,0.3 L6.5,0.3 C7.6,0.3 8.4,1.2 8.4,2.2 C8.4,3.2 7.6,4.1 6.5,4.1 Z"></path>
                </g>
                <g transform="translate(78.000000, 15.000000)" fill="#3973F4" id="Shape">
                    <path d="M2.8,2.2 L7,2.2"></path>
                    <path d="M7,4.1 L2.8,4.1 C1.7,4.1 0.9,3.2 0.9,2.2 C0.9,1.2 1.8,0.3 2.8,0.3 L7,0.3 C8.1,0.3 8.9,1.2 8.9,2.2 C8.9,3.2 8,4.1 7,4.1 Z"></path>
                </g>
                <circle id="Oval" fill="#3973F4" cx="117.8" cy="17.2" r="7.2"></circle>
            </g>
            <g id="Group" transform="translate(4.000000, 40.000000)">
                <path d="M130,32.5 L5.6,32.5 C2.9,32.5 0.7,30.3 0.7,27.6 L0.7,5.2 C0.7,2.5 2.9,0.3 5.6,0.3 L130,0.3 C132.7,0.3 134.9,2.5 134.9,5.2 L134.9,27.6 C134.9,30.3 132.7,32.5 130,32.5 Z" id="Shape" fill="#4988FD"></path>
                <g transform="translate(10.000000, 15.000000)" fill="#3973F4" id="Shape">
                    <path d="M2.1,2.2 L6.3,2.2"></path>
                    <path d="M6.3,4.1 L2.1,4.1 C1,4.1 0.2,3.2 0.2,2.2 C0.2,1.2 1.1,0.3 2.1,0.3 L6.3,0.3 C7.4,0.3 8.2,1.2 8.2,2.2 C8.2,3.2 7.3,4.1 6.3,4.1 Z"></path>
                </g>
                <g transform="translate(21.000000, 15.000000)" fill="#3973F4" id="Shape">
                    <path d="M2.6,2.2 L6.7,2.2"></path>
                    <path d="M6.7,4.1 L2.5,4.1 C1.4,4.1 0.6,3.2 0.6,2.2 C0.6,1.2 1.5,0.3 2.5,0.3 L6.7,0.3 C7.8,0.3 8.6,1.2 8.6,2.2 C8.6,3.2 7.8,4.1 6.7,4.1 Z"></path>
                </g>
                <g transform="translate(33.000000, 15.000000)" fill="#3973F4" id="Shape">
                    <path d="M2,2.2 L6.2,2.2"></path>
                    <path d="M6.2,4.1 L2,4.1 C0.9,4.1 0.1,3.2 0.1,2.2 C0.1,1.2 1,0.3 2,0.3 L6.2,0.3 C7.3,0.3 8.1,1.2 8.1,2.2 C8.1,3.2 7.2,4.1 6.2,4.1 Z"></path>
                </g>
                <g transform="translate(44.000000, 15.000000)" fill="#3973F4" id="Shape">
                    <path d="M2.5,2.2 L6.6,2.2"></path>
                    <path d="M6.6,4.1 L2.4,4.1 C1.3,4.1 0.5,3.2 0.5,2.2 C0.5,1.2 1.4,0.3 2.4,0.3 L6.6,0.3 C7.7,0.3 8.5,1.2 8.5,2.2 C8.5,3.2 7.7,4.1 6.6,4.1 Z"></path>
                </g>
                <g transform="translate(56.000000, 15.000000)" fill="#3973F4" id="Shape">
                    <path d="M1.9,2.2 L6.1,2.2"></path>
                    <path d="M6.1,4.1 L1.9,4.1 C0.8,4.1 0,3.2 0,2.2 C0,1.2 0.9,0.3 1.9,0.3 L6.1,0.3 C7.2,0.3 8,1.2 8,2.2 C8,3.2 7.1,4.1 6.1,4.1 Z"></path>
                </g>
                <g transform="translate(67.000000, 15.000000)" fill="#3973F4" id="Shape">
                    <path d="M2.4,2.2 L6.5,2.2"></path>
                    <path d="M6.5,4.1 L2.3,4.1 C1.2,4.1 0.4,3.2 0.4,2.2 C0.4,1.2 1.3,0.3 2.3,0.3 L6.5,0.3 C7.6,0.3 8.4,1.2 8.4,2.2 C8.4,3.2 7.6,4.1 6.5,4.1 Z"></path>
                </g>
                <g transform="translate(78.000000, 15.000000)" fill="#3973F4" id="Shape">
                    <path d="M2.8,2.2 L7,2.2"></path>
                    <path d="M7,4.1 L2.8,4.1 C1.7,4.1 0.9,3.2 0.9,2.2 C0.9,1.2 1.8,0.3 2.8,0.3 L7,0.3 C8.1,0.3 8.9,1.2 8.9,2.2 C8.9,3.2 8,4.1 7,4.1 Z"></path>
                </g>
                <circle id="Oval" fill="#3973F4" cx="117.8" cy="17.2" r="7.2"></circle>
            </g>
            <g id="Group" transform="translate(4.000000, 80.000000)">
                <path d="M130,32.5 L5.6,32.5 C2.9,32.5 0.7,30.3 0.7,27.6 L0.7,5.2 C0.7,2.5 2.9,0.3 5.6,0.3 L130,0.3 C132.7,0.3 134.9,2.5 134.9,5.2 L134.9,27.6 C134.9,30.3 132.7,32.5 130,32.5 Z" id="Shape" fill="#4988FD"></path>
                <g transform="translate(10.000000, 15.000000)" fill="#3973F4" id="Shape">
                    <path d="M2.1,2.2 L6.3,2.2"></path>
                    <path d="M6.3,4.1 L2.1,4.1 C1,4.1 0.2,3.2 0.2,2.2 C0.2,1.2 1.1,0.3 2.1,0.3 L6.3,0.3 C7.4,0.3 8.2,1.2 8.2,2.2 C8.2,3.2 7.3,4.1 6.3,4.1 Z"></path>
                </g>
                <g transform="translate(21.000000, 15.000000)" fill="#3973F4" id="Shape">
                    <path d="M2.6,2.2 L6.7,2.2"></path>
                    <path d="M6.7,4.1 L2.5,4.1 C1.4,4.1 0.6,3.2 0.6,2.2 C0.6,1.2 1.5,0.3 2.5,0.3 L6.7,0.3 C7.8,0.3 8.6,1.2 8.6,2.2 C8.6,3.2 7.8,4.1 6.7,4.1 Z"></path>
                </g>
                <g transform="translate(33.000000, 15.000000)" fill="#3973F4" id="Shape">
                    <path d="M2,2.2 L6.2,2.2"></path>
                    <path d="M6.2,4.1 L2,4.1 C0.9,4.1 0.1,3.2 0.1,2.2 C0.1,1.2 1,0.3 2,0.3 L6.2,0.3 C7.3,0.3 8.1,1.2 8.1,2.2 C8.1,3.2 7.2,4.1 6.2,4.1 Z"></path>
                </g>
                <g transform="translate(44.000000, 15.000000)" fill="#3973F4" id="Shape">
                    <path d="M2.5,2.2 L6.6,2.2"></path>
                    <path d="M6.6,4.1 L2.4,4.1 C1.3,4.1 0.5,3.2 0.5,2.2 C0.5,1.2 1.4,0.3 2.4,0.3 L6.6,0.3 C7.7,0.3 8.5,1.2 8.5,2.2 C8.5,3.2 7.7,4.1 6.6,4.1 Z"></path>
                </g>
                <g transform="translate(56.000000, 15.000000)" fill="#3973F4" id="Shape">
                    <path d="M1.9,2.2 L6.1,2.2"></path>
                    <path d="M6.1,4.1 L1.9,4.1 C0.8,4.1 0,3.2 0,2.2 C0,1.2 0.9,0.3 1.9,0.3 L6.1,0.3 C7.2,0.3 8,1.2 8,2.2 C8,3.2 7.1,4.1 6.1,4.1 Z"></path>
                </g>
                <g transform="translate(67.000000, 15.000000)" fill="#3973F4" id="Shape">
                    <path d="M2.4,2.2 L6.5,2.2"></path>
                    <path d="M6.5,4.1 L2.3,4.1 C1.2,4.1 0.4,3.2 0.4,2.2 C0.4,1.2 1.3,0.3 2.3,0.3 L6.5,0.3 C7.6,0.3 8.4,1.2 8.4,2.2 C8.4,3.2 7.6,4.1 6.5,4.1 Z"></path>
                </g>
                <g transform="translate(78.000000, 15.000000)" fill="#3973F4" id="Shape">
                    <path d="M2.8,2.2 L7,2.2"></path>
                    <path d="M7,4.1 L2.8,4.1 C1.7,4.1 0.9,3.2 0.9,2.2 C0.9,1.2 1.8,0.3 2.8,0.3 L7,0.3 C8.1,0.3 8.9,1.2 8.9,2.2 C8.9,3.2 8,4.1 7,4.1 Z"></path>
                </g>
                <circle id="Oval" fill="#3973F4" cx="117.8" cy="17.2" r="7.2"></circle>
            </g>
        </g>
    </g>
</svg>