<?xml version="1.0" encoding="UTF-8"?>
<svg width="112px" height="145px" viewBox="0 0 112 145" version="1.1" xmlns="http://www.w3.org/2000/svg" xmlns:xlink="http://www.w3.org/1999/xlink">
    <!-- Generator: Sketch 51.2 (57519) - http://www.bohemiancoding.com/sketch -->
    <title>Settings_File</title>
    <desc>Created with Sketch.</desc>
    <defs></defs>
    <g id="Page-1" stroke="none" stroke-width="1" fill="none" fill-rule="evenodd">
        <g id="Settings_File" fill-rule="nonzero">
            <path d="M110.4,36.1 L111.6,137.9 C111.6,141.3 108.8,144.1 105.4,144.1 L6.3,144.1 C2.9,144.1 0.1,141.3 0.1,137.9 L0.1,7 C0.1,3.6 2.9,0.8 6.3,0.8 L78.1,0.8 L110.4,36.1 Z" id="Shape" fill="#4988FD"></path>
            <path d="M78.2,0.8 L78.2,28.9 C78.2,32.8 81.6,36.1 85.5,36.1 L110.5,36.1" id="Shape" fill="#3973F4"></path>
            <path d="M87.6,64.3 L86.1,64.1 C85.4,64 84.8,63.5 84.6,62.9 C84.4,62.4 84.2,61.9 84,61.5 C83.7,60.9 83.8,60.1 84.2,59.6 L85.1,58.4 C85.7,57.7 85.6,56.6 84.9,55.9 L82.4,53.4 C81.7,52.7 80.7,52.7 80,53.2 L78.8,54.1 C78.2,54.5 77.5,54.6 76.9,54.3 C76.4,54.1 76,53.9 75.5,53.7 C74.8,53.5 74.4,52.9 74.3,52.2 L74.1,50.7 C74,49.8 73.2,49.1 72.2,49.1 L68.7,49.1 C67.8,49.1 67,49.8 66.8,50.7 L66.6,52.2 C66.5,52.9 66,53.5 65.4,53.7 C64.9,53.9 64.4,54.1 64,54.3 C63.4,54.6 62.6,54.5 62.1,54.1 L60.9,53.2 C60.1,52.6 59.1,52.7 58.5,53.4 L56,55.9 C55.3,56.6 55.3,57.6 55.8,58.4 L56.7,59.6 C57.1,60.2 57.2,60.9 56.9,61.5 C56.7,62 56.5,62.4 56.3,62.9 C56.1,63.6 55.5,64 54.8,64.1 L53.3,64.3 C52.4,64.4 51.7,65.2 51.7,66.2 L51.7,69.7 C51.7,70.6 52.4,71.4 53.3,71.6 L54.8,71.8 C55.5,71.9 56.1,72.4 56.3,73 C56.5,73.5 56.7,74 56.9,74.4 C57.2,75 57.1,75.8 56.7,76.3 L55.8,77.5 C55.2,78.3 55.3,79.3 56,80 L58.5,82.5 C59.2,83.2 60.2,83.2 60.9,82.7 L62.1,81.8 C62.7,81.4 63.4,81.3 64,81.6 C64.5,81.8 64.9,82 65.4,82.2 C66.1,82.4 66.5,83 66.6,83.7 L66.8,85.2 C66.9,86.1 67.7,86.8 68.7,86.8 L72.2,86.8 C73.1,86.8 73.9,86.1 74.1,85.2 L74.3,83.7 C74.4,83 74.9,82.4 75.5,82.2 C76,82 76.5,81.8 76.9,81.6 C77.5,81.3 78.3,81.4 78.8,81.8 L80,82.7 C80.8,83.3 81.8,83.2 82.4,82.5 L84.9,80 C85.6,79.3 85.6,78.3 85.1,77.5 L84.2,76.3 C83.8,75.7 83.7,75 84,74.4 C84.2,73.9 84.4,73.5 84.6,73 C84.8,72.3 85.4,71.9 86.1,71.8 L87.6,71.6 C88.5,71.5 89.2,70.7 89.2,69.7 L89.2,66.2 C89.2,65.2 88.5,64.4 87.6,64.3 Z M70.4,74.5 C66.7,74.5 63.7,71.5 63.7,67.8 C63.7,64.1 66.7,61.1 70.4,61.1 C74.1,61.1 77.1,64.1 77.1,67.8 C77.1,71.6 74.1,74.5 70.4,74.5 Z" id="Shape" fill="#C5DCFA"></path>
            <path d="M72.1,85.7 L70.1,85.4 C69.2,85.3 68.4,84.6 68,83.7 C67.8,83 67.5,82.4 67.2,81.7 C66.8,80.8 66.9,79.8 67.5,79 L68.7,77.4 C69.5,76.4 69.4,74.9 68.4,74 L65,70.6 C64.1,69.7 62.7,69.6 61.6,70.4 L60,71.6 C59.2,72.2 58.2,72.3 57.3,71.9 C56.7,71.6 56,71.3 55.3,71.1 C54.4,70.8 53.7,70 53.6,69 L53.3,67 C53.1,65.7 52,64.8 50.7,64.8 L45.9,64.8 C44.6,64.8 43.5,65.7 43.4,67 L43.1,69 C43,70 42.3,70.7 41.4,71.1 C40.7,71.3 40.1,71.6 39.4,71.9 C38.5,72.3 37.5,72.2 36.7,71.6 L35.1,70.4 C34.1,69.6 32.6,69.7 31.7,70.6 L28.3,74 C27.4,74.9 27.3,76.3 28,77.4 L29.2,79 C29.8,79.8 29.9,80.8 29.5,81.7 C29.2,82.3 28.9,83 28.7,83.7 C28.4,84.6 27.6,85.3 26.6,85.4 L24.6,85.7 C23.3,85.9 22.4,87 22.4,88.2 L22.4,93 C22.4,94.3 23.3,95.4 24.6,95.6 L26.6,95.9 C27.5,96 28.3,96.7 28.7,97.6 C28.9,98.3 29.2,98.9 29.5,99.6 C29.9,100.5 29.8,101.5 29.2,102.3 L28,103.9 C27.2,104.9 27.3,106.4 28.3,107.3 L31.7,110.7 C32.6,111.6 34,111.7 35.1,111 L36.7,109.8 C37.5,109.2 38.5,109.1 39.4,109.5 C40,109.8 40.7,110.1 41.4,110.3 C42.3,110.6 43,111.4 43.1,112.4 L43.4,114.4 C43.6,115.7 44.7,116.6 45.9,116.6 L50.7,116.6 C52,116.6 53.1,115.7 53.3,114.4 L53.6,112.4 C53.7,111.4 54.4,110.7 55.3,110.3 C56,110.1 56.6,109.8 57.3,109.5 C58.2,109.1 59.2,109.2 60,109.8 L61.6,111 C62.6,111.8 64.1,111.7 65,110.7 L68.4,107.3 C69.3,106.4 69.4,105 68.7,103.9 L67.5,102.3 C66.9,101.5 66.8,100.5 67.2,99.6 C67.5,99 67.8,98.3 68,97.6 C68.3,96.7 69.1,96 70.1,95.9 L72.1,95.6 C73.4,95.4 74.3,94.3 74.3,93 L74.3,88.2 C74.3,86.9 73.4,85.8 72.1,85.7 Z M48.5,99.4 C43.6,99.4 39.7,95.4 39.7,90.6 C39.7,85.7 43.6,81.8 48.5,81.8 C53.4,81.8 57.3,85.7 57.3,90.6 C57.3,95.5 53.3,99.4 48.5,99.4 Z" id="Shape" fill="#DFECFD"></path>
        </g>
    </g>
</svg>