<?xml version="1.0" encoding="UTF-8"?>
<svg width="145px" height="146px" viewBox="0 0 145 146" version="1.1" xmlns="http://www.w3.org/2000/svg" xmlns:xlink="http://www.w3.org/1999/xlink">
    <!-- Generator: Sketch 51.2 (57519) - http://www.bohemiancoding.com/sketch -->
    <title>Settings</title>
    <desc>Created with Sketch.</desc>
    <defs></defs>
    <g id="Page-1" stroke="none" stroke-width="1" fill="none" fill-rule="evenodd">
        <g id="Settings" fill-rule="nonzero">
            <path d="M133.5,49.3 C125.5,55.8 116.5,57.3 106.8,53.3 C105.6,52.8 104.9,52.9 104,53.9 C90.4,67.5 38.5,120.5 17.4,141.5 C13.6,145.3 7.4,145.3 3.6,141.5 C-0.2,137.7 -0.2,131.5 3.6,127.7 C24.7,106.6 76.6,53.7 90.3,40.1 C91.5,38.9 91.2,38 90.8,36.8 C85.7,21.2 94.7,4.7 110.5,1.2 C114,0.4 117.8,0.8 121.4,0.9 C122.1,0.9 123.2,1.5 123.4,2.1 C123.6,2.7 123.1,3.8 122.6,4.3 C118.9,8.1 115,11.8 111.3,15.6 C104.8,22.4 107.3,33.2 116.2,36.2 C121.1,37.9 125.5,36.7 129.2,33.1 C132.8,29.6 136.3,26 139.9,22.5 C140.6,21.9 141.8,21 142.4,21.3 C143.2,21.7 143.9,22.9 144,23.8 C145.2,34.2 141.6,42.8 133.5,49.3 Z" id="Shape" fill="#6097FD"></path>
            <path d="M73.1,96.1 C80.4,88.7 87.5,81.6 95,74 C99.4,78.5 103.7,83.2 108.2,87.6 C117.7,97.1 127.3,106.6 136.8,116.1 C139.9,119.2 142.8,122.2 143.8,126.7 C145.2,133.3 142.3,139.9 136.4,143.4 C130.9,146.6 123.4,146.1 118.7,141.7 C112.4,135.7 106.3,129.5 100.2,123.3 C91.6,114.7 83.1,106.1 74.5,97.5 C73.9,97 73.5,96.5 73.1,96.1 Z" id="Shape" fill="#FFFFFF"></path>
            <path d="M113.4,92.8 C121.2,100.6 129,108.4 136.8,116.1 C139.9,119.2 142.8,122.2 143.8,126.7 C145.2,133.3 142.3,139.9 136.4,143.4 C130.9,146.6 123.4,146.1 118.7,141.7 C112.4,135.7 106.3,129.5 100.2,123.3 C91.6,114.7 83.1,106.1 74.5,97.5 C74,97 73.6,96.5 73.2,96.1 C80.5,88.7 87.6,81.6 95.1,74 C99.5,78.5 103.8,83.2 108.3,87.6 C109.9,89.3 111.6,91 113.4,92.8" id="Shape" fill="#4988FD"></path>
            <path d="M0.3,12.9 C4.1,9.1 7.7,5.3 11.5,1.5 C12,1.8 12.6,2.1 13.1,2.5 C20.2,7.5 27.2,12.6 34.3,17.6 C39.1,21 41,26.3 39.2,31.9 C38.8,33.2 39,34 40,35 C47,41.9 53.9,48.8 60.8,55.7 C61.4,56.3 62.1,56.6 62.8,57.1 C60.4,59.5 58.4,61.5 56.2,63.6 C55.7,63.1 55.1,62.6 54.5,62 C47.6,55.1 40.6,48.2 33.7,41.2 C32.8,40.3 32,40 30.7,40.4 C24.6,42.2 19.8,40.3 16.1,35.1 C10.8,27.7 5.5,20.2 0.3,12.9 Z" id="Shape" fill="#C5DCFA"></path>
            <path d="M127.7,137.8 C127.2,137.8 126.7,137.6 126.3,137.2 L85.6,96.5 C84.8,95.7 84.8,94.5 85.6,93.7 C86.4,92.9 87.6,92.9 88.4,93.7 L129.1,134.4 C129.9,135.2 129.9,136.4 129.1,137.2 C128.7,137.6 128.2,137.8 127.7,137.8 Z" id="Shape" fill="#2767F4"></path>
            <path d="M134.9,130.6 C134.4,130.6 133.9,130.4 133.5,130 L92.8,89.3 C92,88.5 92,87.3 92.8,86.5 C93.6,85.7 94.8,85.7 95.6,86.5 L136.3,127.2 C137.1,128 137.1,129.2 136.3,130 C135.9,130.4 135.4,130.6 134.9,130.6 Z" id="Shape" fill="#2767F4"></path>
            <circle id="Oval" fill="#2767F4" cx="11.3" cy="133.8" r="4.2"></circle>
            <path d="M18.2,129.3 C17.6,129.3 16.9,129.1 16.4,128.6 C15.4,127.6 15.4,126 16.4,125.1 L92.4,49.1 C93.4,48.1 95,48.1 95.9,49.1 C96.8,50.1 96.9,51.7 95.9,52.6 L19.9,128.6 C19.5,129.1 18.9,129.3 18.2,129.3 Z" id="Shape" fill="#2767F4"></path>
        </g>
    </g>
</svg>