<?xml version="1.0" encoding="UTF-8"?>
<svg width="92px" height="143px" viewBox="0 0 92 143" version="1.1" xmlns="http://www.w3.org/2000/svg" xmlns:xlink="http://www.w3.org/1999/xlink">
    <!-- Generator: Sketch 51.2 (57519) - http://www.bohemiancoding.com/sketch -->
    <title>Shaker</title>
    <desc>Created with Sketch.</desc>
    <defs></defs>
    <g id="Page-1" stroke="none" stroke-width="1" fill="none" fill-rule="evenodd">
        <g id="Shaker" fill-rule="nonzero">
            <g id="Group" transform="translate(0.000000, 3.000000)" fill="#FFFFFF">
                <path d="M7.7,44.5 L17.2,135 C17.5,137.8 20.4,140 23.9,140 L31.2,140 L59.8,140 L67.4,140 C70.9,140 73.8,137.8 74.1,135 L83.6,44.5 L83.5,44.5 L7.7,44.5 Z" id="Shape"></path>
                <path d="M86.1,31 L86.2,16.5 C86.2,13.8 83.3,11.6 80,11.7 L80,1.6 C76,1.1 71,0.7 65.6,0.4 L65.6,13.6 L11.2,20.9 C7.3,21.4 4.5,24.1 4.5,27.3 L4.5,31 L6,31 C3.2,31 0.9,33.3 0.9,36.1 L0.9,39.1 C0.9,41.9 3.2,44.2 6,44.2 L86.1,44.2 C88.9,44.2 91.2,41.9 91.2,39.1 L91.2,36.1 C91.2,33.3 88.9,31 86.1,31 Z" id="Shape"></path>
            </g>
            <g id="Group" transform="translate(0.000000, 3.000000)">
                <path d="M86.9,44.2 C86.7,44.2 86.4,44.3 86.1,44.3 L83.6,44.3 L74.2,133.8 C73.9,136.6 71,138.8 67.5,138.8 L24,138.8 C20.5,138.8 17.5,136.6 17.3,133.8 L7.9,44.3 L6.1,44.3 C5.8,44.3 5.6,44.3 5.3,44.2 L86.9,44.2 Z" id="Shape" fill="#DDECFE"></path>
                <path d="M91.2,36.1 L91.2,39.1 C91.2,41.6 89.3,43.8 86.9,44.1 C86.7,44.1 86.4,44.2 86.1,44.2 L83.6,44.2 L83.5,44.7 L83.5,44.8 L83.4,45.4 L74.1,133.7 C73.9,135.7 72.3,137.4 70.1,138.2 C69.3,138.5 68.3,138.7 67.4,138.7 L24,138.7 C23,138.7 22.1,138.5 21.2,138.2 C19,137.4 17.4,135.7 17.2,133.7 L7.9,45.4 L7.8,44.8 L7.8,44.7 L7.8,44.2 L6,44.2 C5.7,44.2 5.5,44.2 5.2,44.1 C2.7,43.7 0.9,41.6 0.9,39.1 L0.9,36.1 C0.9,33.3 3.2,31 6,31 L4.5,31.3 L4.5,27.3 C4.5,24.1 7.3,21.4 11.2,20.9 L65.6,13.6 L65.6,0.4 C71,0.7 75.9,1.1 80,1.6 L80,11.7 C83.3,11.6 86.2,13.7 86.2,16.5 L86.2,31 C89,31 91.2,33.3 91.2,36.1 Z" id="Shape" fill="#4988FD"></path>
                <path d="M91.2,36.1 L91.2,39.1 C91.2,41.6 89.3,43.8 86.9,44.1 C86.7,44.1 86.4,44.2 86.1,44.2 L83.6,44.2 L83.5,44.7 L7.8,44.7 L7.8,44.2 L6,44.2 C5.7,44.2 5.5,44.2 5.2,44.1 C2.7,43.7 0.9,41.6 0.9,39.1 L0.9,36.1 C0.9,33.3 3.2,31 6,31 L4.5,31.5 L4.5,30.9 L86.2,30.9 L86.2,31 C89,31 91.2,33.3 91.2,36.1 Z" id="Shape" fill="#3973F4"></path>
                <path d="M84.2,44.1 L84.2,44.2 L83.6,44.2 L83.5,44.8 L83.4,45.4 L74.1,133.7 C73.9,135.7 72.3,137.4 70.1,138.2 C69.4,138.4 68.6,138.5 67.8,138.5 L23.5,138.5 C22.7,138.5 21.9,138.4 21.1,138.2 C18.9,137.4 17.3,135.7 17.1,133.7 L7.8,45.4 L7.7,44.8 L7.6,44.2 L7,44.2 L7,44.1 L84.2,44.1 Z" id="Shape" fill="#BAD8FF"></path>
            </g>
            <path d="M82.6,47.8 C78.3,49.2 75,53.2 74.6,58 L65.2,138.1 C65.1,139.6 64.4,140.9 63.3,141.8 L27.8,141.8 C26.7,140.9 26,139.6 25.9,138.1 L16.5,58 C16.1,53.2 12.9,49.3 8.5,47.8 L82.6,47.8 Z" id="Shape" fill="#D5E6FD"></path>
            <path d="M11,26.6 C9.4,26.6 8,25.3 8,23.7 C7.9,18.8 9.6,14.5 13.2,11 C23.7,0.8 47.6,-0.4 65.8,0.4 C72,0.7 77.2,1.2 80.4,1.6 C82.1,1.8 83.7,2 85.1,2.2 C86.7,2.5 87.9,4 87.6,5.6 C87.3,7.2 85.8,8.4 84.2,8.1 C82.8,7.9 81.3,7.7 79.7,7.5 C76.6,7.1 71.6,6.6 65.5,6.3 C41.8,5.2 24.3,8.5 17.4,15.2 C15,17.5 13.9,20.2 14,23.5 C14,25.2 12.7,26.6 11,26.6 C11,26.6 11,26.6 11,26.6 Z" id="Shape" fill="#4988FD"></path>
        </g>
    </g>
</svg>