<?xml version="1.0" encoding="UTF-8"?>
<svg width="149px" height="99px" viewBox="0 0 149 99" version="1.1" xmlns="http://www.w3.org/2000/svg" xmlns:xlink="http://www.w3.org/1999/xlink">
    <!-- Generator: Sketch 51.2 (57519) - http://www.bohemiancoding.com/sketch -->
    <title>Share</title>
    <desc>Created with Sketch.</desc>
    <defs></defs>
    <g id="Page-1" stroke="none" stroke-width="1" fill="none" fill-rule="evenodd">
        <g id="Share" transform="translate(0.000000, -3.000000)" fill-rule="nonzero">
            <circle id="Oval" fill="#4988FD" cx="139.1" cy="54.3" r="9.1"></circle>
            <circle id="Oval" fill="#4988FD" transform="translate(125.445850, 12.951350) rotate(-45.000000) translate(-125.445850, -12.951350) " cx="125.44585" cy="12.95135" r="9.09991273"></circle>
            <circle id="Oval" fill="#4988FD" transform="translate(124.217190, 92.565330) rotate(-45.000000) translate(-124.217190, -92.565330) " cx="124.21719" cy="92.56533" r="9.09991273"></circle>
            <circle id="Oval" fill="#4988FD" cx="9.1" cy="54.3" r="9.1"></circle>
            <circle id="Oval" fill="#4988FD" transform="translate(22.645870, 12.949130) rotate(-45.000000) translate(-22.645870, -12.949130) " cx="22.64587" cy="12.94913" r="9.09991273"></circle>
            <circle id="Oval" fill="#4988FD" transform="translate(23.815250, 92.558370) rotate(-45.000000) translate(-23.815250, -92.558370) " cx="23.81525" cy="92.55837" r="9.09991273"></circle>
            <path d="M95.6,75 C83.5,87.1 63.9,87.1 51.9,75 C39.8,62.9 39.8,43.3 51.9,31.3 C64,19.2 83.6,19.2 95.6,31.3 C107.7,43.4 107.7,62.9 95.6,75 Z" id="Shape" fill="#4988FD"></path>
            <g id="Group" transform="translate(21.000000, 21.000000)" fill="#4988FD">
                <path d="M103.6,35.3 L92.3,35.3 C91.2,35.3 90.3,34.4 90.3,33.3 C90.3,32.2 91.2,31.3 92.3,31.3 L103.6,31.3 C104.7,31.3 105.6,32.2 105.6,33.3 C105.6,34.4 104.7,35.3 103.6,35.3 Z" id="Shape"></path>
                <path d="M86,12.5 C85.5,12.5 85,12.3 84.6,11.9 C83.8,11.1 83.8,9.9 84.6,9.1 L92.6,1.1 C93.4,0.3 94.6,0.3 95.4,1.1 C96.2,1.9 96.2,3.1 95.4,3.9 L87.4,11.9 C87,12.3 86.5,12.5 86,12.5 Z" id="Shape"></path>
                <path d="M92.7,63.1 C92.2,63.1 91.7,62.9 91.3,62.5 L83.3,54.5 C82.5,53.7 82.5,52.5 83.3,51.7 C84.1,50.9 85.3,50.9 86.1,51.7 L94.1,59.7 C94.9,60.5 94.9,61.7 94.1,62.5 C93.8,62.9 93.2,63.1 92.7,63.1 Z" id="Shape"></path>
                <path d="M13.8,35.3 L2.5,35.3 C1.4,35.3 0.5,34.4 0.5,33.3 C0.5,32.2 1.4,31.3 2.5,31.3 L13.8,31.3 C14.9,31.3 15.8,32.2 15.8,33.3 C15.8,34.4 14.9,35.3 13.8,35.3 Z" id="Shape"></path>
                <path d="M20.2,12.5 C19.7,12.5 19.2,12.3 18.8,11.9 L10.8,3.9 C10,3.1 10,1.9 10.8,1.1 C11.6,0.3 12.8,0.3 13.6,1.1 L21.6,9.1 C22.4,9.9 22.4,11.1 21.6,11.9 C21.2,12.3 20.7,12.5 20.2,12.5 Z" id="Shape"></path>
                <path d="M13.4,63.1 C12.9,63.1 12.4,62.9 12,62.5 C11.2,61.7 11.2,60.5 12,59.7 L20,51.7 C20.8,50.9 22,50.9 22.8,51.7 C23.6,52.5 23.6,53.7 22.8,54.5 L14.8,62.5 C14.4,62.9 13.9,63.1 13.4,63.1 Z" id="Shape"></path>
            </g>
            <path d="M88.6,67.5 C88.6,68.9 87.2,68.9 87.2,68.9 L59.6,68.9 C59.6,68.9 58.2,68.9 58.2,67.5 C58.2,64 60.3,61.1 62.5,58.2 C63.3,57.1 64.7,55.5 66.6,53.8 C68.5,55.6 71.1,56.7 74,56.7 C76.7,56.7 79.3,55.7 81.2,54 C84.8,57.4 88.6,62.7 88.6,67.5 Z" id="Shape" fill="#DFECFD"></path>
            <circle id="Oval" fill="#DFECFD" cx="73.9" cy="45.8" r="8.6"></circle>
        </g>
    </g>
</svg>