<?xml version="1.0" encoding="UTF-8"?>
<svg width="128px" height="146px" viewBox="0 0 128 146" version="1.1" xmlns="http://www.w3.org/2000/svg" xmlns:xlink="http://www.w3.org/1999/xlink">
    <!-- Generator: Sketch 51.2 (57519) - http://www.bohemiancoding.com/sketch -->
    <title>Shield</title>
    <desc>Created with Sketch.</desc>
    <defs></defs>
    <g id="Page-1" stroke="none" stroke-width="1" fill="none" fill-rule="evenodd">
        <g id="Shield" fill-rule="nonzero">
            <path d="M127.1,21.6 L127.1,21.8 C126.8,57.4 125.4,80.5 116.9,98.7 C108.4,116.8 92.8,129.8 64.4,145.2 C64.2,145.3 64.1,145.4 63.9,145.4 C6.4,114.4 1.2,92.9 0.7,21.6 C1.2,21.6 1.8,21.6 2.3,21.6 C18.4,21.6 45,13.1 63.9,0.2 C83.4,13.5 111.2,22.2 127.1,21.6 Z" id="Shape" fill="#3973F4"></path>
            <path d="M116.8,31.2 C116.8,31.6 116.8,32 116.8,32.4 C116.3,61.7 114.4,80 107.7,94.3 C101,108.5 88.9,119.7 65.3,133.1 C64.9,133.3 64.5,133.5 64.1,133.8 C64.1,133.8 64,133.9 63.9,133.9 C48.6,125.3 38,117.7 30.6,109.7 C26.1,104.8 22.7,99.8 20.1,94.4 C13.3,79.9 11.4,61.3 10.9,31.3 C27.3,29.3 47.6,22.1 63.8,12.4 C65.1,13.2 66.4,13.9 67.7,14.7 C72.4,17.3 77.4,19.7 82.5,21.8 C82.5,21.8 82.5,21.8 82.6,21.8 C92.6,26 103,29.1 112.4,30.6 C113.7,30.8 115,31 116.3,31.2 C116.5,31.1 116.7,31.2 116.8,31.2 Z" id="Shape" fill="#6097FD"></path>
            <path d="M116.8,31.2 C116.8,31.6 116.8,32 116.8,32.4 C116.3,61.7 114.4,80 107.7,94.3 C101,108.5 88.9,119.7 65.3,133.1 C64.9,133.3 64.5,133.5 64.1,133.8 C56.2,129.2 49.7,124.9 44.3,120.6 C40.7,117.7 42.1,111.9 46.6,111 C71.3,106 102.2,91.2 116.4,31.2 C116.5,31.1 116.7,31.2 116.8,31.2 Z" id="Shape" fill="#4988FD"></path>
            <path d="M55.9,77.2 L59.1,80.3 L92.6,46.8 C94.8,44.6 98.4,44.6 100.6,46.8 C102.8,49 102.8,52.6 100.6,54.8 L63.2,92.2 C62.1,93.3 60.6,93.9 59.2,93.9 C57.8,93.9 56.3,93.4 55.2,92.3 L37.6,75.3 C35.4,73.1 35.3,69.5 37.5,67.3 C39.7,65.1 43.3,65 45.5,67.2" id="Shape" fill="#FFFFFF"></path>
        </g>
    </g>
</svg>