<?xml version="1.0" encoding="UTF-8"?>
<svg width="129px" height="148px" viewBox="0 0 129 148" version="1.1" xmlns="http://www.w3.org/2000/svg" xmlns:xlink="http://www.w3.org/1999/xlink">
    <!-- Generator: Sketch 51.2 (57519) - http://www.bohemiancoding.com/sketch -->
    <title>Shield_2</title>
    <desc>Created with Sketch.</desc>
    <defs></defs>
    <g id="Page-1" stroke="none" stroke-width="1" fill="none" fill-rule="evenodd">
        <g id="Shield_2" fill-rule="nonzero">
            <path d="M128.4,22.1 L128.4,22.3 C128.1,58.4 126.7,82 118,100.4 C109.4,118.8 93.6,132 64.7,147.7 C64.5,147.8 64.4,147.9 64.2,147.9 C5.8,116.4 0.5,94.6 0,22.1 C0.5,22.1 1.1,22.1 1.7,22.1 C18,22.1 45.1,13.4 64.2,0.4 C84.1,14 112.3,22.8 128.4,22.1 Z" id="Shape" fill="#3973F4"></path>
            <path d="M118,31.9 C118,32.3 118,32.7 118,33 L118,33.1 C117.5,62.8 115.5,81.5 108.7,96 C101.9,110.4 89.6,121.8 65.6,135.4 C65.2,135.6 64.7,135.9 64.2,136.2 C39.3,122.2 26.7,110.7 19.7,96 C12.8,81.3 10.9,62.3 10.4,31.9 C27.1,29.9 47.7,22.5 64.2,12.7 C65.5,13.5 66.9,14.3 68.2,15 C73,17.7 78.1,20.1 83.3,22.3 C83.3,22.3 83.3,22.3 83.4,22.3 C94.9,27.1 106.9,30.5 117.4,31.9 C117.6,31.9 117.8,31.9 118,31.9 Z" id="Shape" fill="#6097FD"></path>
            <path d="M118,31.9 C118,32.3 118,32.7 118,33 C118,33 118,33.1 118,33.1 C117.5,62.8 115.5,81.5 108.7,96 C101.9,110.4 89.6,121.8 65.6,135.4 C57.4,130.7 50.7,126.2 45.1,121.8 C41.5,118.9 42.9,113.1 47.4,112.2 C72.1,107.2 103.2,91.9 117.4,31.8 C117.6,31.9 117.8,31.9 118,31.9 Z" id="Shape" fill="#4988FD"></path>
            <path d="M54.9,66.9 C47.9,71.2 43.2,79 43.2,87.8 C43.2,101.4 54.2,112.4 67.8,112.4 C81.4,112.4 92.4,101.4 92.4,87.8 C92.4,79 87.7,71.2 80.7,66.9" id="Shape" fill="#3973F4"></path>
            <g id="Group" transform="translate(42.000000, 41.000000)">
                <path d="M35.6,24.3 L35.6,12.4 C35.6,5.8 30.2,0.5 23.7,0.5 C20.4,0.5 17.4,1.8 15.2,4 C13,6.2 11.7,9.1 11.7,12.4 L11.7,24.3 C5.2,28.3 0.9,35.5 0.9,43.7 C0.9,56.3 11.1,66.4 23.6,66.4 C36.2,66.4 46.3,56.2 46.3,43.7 C46.4,35.5 42.1,28.4 35.6,24.3 Z M17.2,12.7 C17.2,10.9 17.9,9.2 19.1,8 C20.3,6.8 22,6.1 23.8,6.1 C27.5,6.1 30.4,9.1 30.4,12.7 L30.4,22 C28.2,21.3 25.9,20.9 23.5,20.9 C21.3,20.9 19.1,21.2 17.1,21.8 L17.1,12.7 L17.2,12.7 Z" id="Shape" fill="#FFFFFF"></path>
                <path d="M20.7,48.6 L20.7,46.3 C18.7,45.1 17.5,42.8 18,40.2 C18.4,38 20.2,36.3 22.3,35.8 C26,35 29.2,37.8 29.2,41.4 C29.2,43.5 28,45.3 26.4,46.3 L26.4,52.4 C26.4,53.3 25.7,53.9 24.9,53.9 L22.3,53.9 C21.5,53.9 20.8,53.2 20.8,52.4 L20.7,48.6 Z" id="Shape" fill="#3973F4"></path>
            </g>
        </g>
    </g>
</svg>