<?xml version="1.0" encoding="UTF-8"?>
<svg width="146px" height="103px" viewBox="0 0 146 103" version="1.1" xmlns="http://www.w3.org/2000/svg" xmlns:xlink="http://www.w3.org/1999/xlink">
    <!-- Generator: Sketch 51.2 (57519) - http://www.bohemiancoding.com/sketch -->
    <title>Shoe</title>
    <desc>Created with Sketch.</desc>
    <defs></defs>
    <g id="Page-1" stroke="none" stroke-width="1" fill="none" fill-rule="evenodd">
        <g id="Shoe" fill-rule="nonzero">
            <g id="Group">
                <path d="M90.5,73.3 L90.5,73.4 L86,85.4 C86,85.4 24.4,46.4 23.8,46.1 C23.4,45.8 12.6,27.3 5.7,15.6 C8.7,10.9 12.4,6.6 15.7,2.1 L18.4,1.4 L18.5,1.4 C22.5,2.3 44.8,31.2 65.8,52.7 L78.3,64.6 C82.7,68.4 86.9,71.4 90.5,73.3 Z" id="Shape" fill="#3973F4"></path>
                <path d="M142.9,99.3 C142.1,99.6 141.3,99.8 140.5,100 C138.7,100.4 136.8,100.7 134.9,100.8 C122.6,101.5 97.9,102.4 97.9,102.4 C97.9,102.4 74.9,102.7 63.4,102.8 C53.5,102.9 46.1,98.9 41.4,89.9 C30.1,68.6 24,57.1 20.3,58 C19.5,58.2 18.6,59.8 18.5,60.8 C15.5,90 20,95.3 15.4,95.2 C14.7,95.2 13.9,95.2 13.3,95 C12.5,94.8 11.9,94.2 11.7,93 C11.6,92.1 11.7,91.1 11.7,90.2 C11,53.9 12.2,50.6 5.6,42.9 C-1.1,35 -0.5,26.1 4.4,17.7 C4.8,16.9 5.3,16.2 5.8,15.5 C8.8,10.8 12.5,6.5 15.8,2 C15.9,1.9 15.9,1.8 16,1.7 C16.8,0.6 17.7,0.6 18.5,1.2 C18.6,1.3 18.8,1.4 18.9,1.6 C20.1,2.9 21.2,4.4 22.2,5.8 C32.3,20.1 58,56.3 71.5,67.7 C77.3,72.6 85.1,72 90.6,73.2 C91.3,73.4 92,73.6 92.7,73.8 C140.9,92.3 140.5,92.3 143.8,94.5 C146,96.3 145.7,98.4 142.9,99.3 Z" id="Shape" fill="#4988FD"></path>
            </g>
            <path d="M140.5,100 C138.7,100.4 136.8,100.7 134.9,100.8 C122.6,101.5 97.9,102.4 97.9,102.4 C97.9,102.4 74.9,102.7 63.4,102.8 C53.5,102.9 46.1,98.9 41.4,89.9 C30.1,68.6 24,57.1 20.3,58 C19.5,58.2 18.6,59.8 18.5,60.8 C15.5,90 20,95.3 15.4,95.2 C14.7,95.2 13.9,95.2 13.3,95 C15,81.4 14,57.4 17.1,55.1 C21,52.2 25.1,53.9 44.6,86.3 C54.2,102.5 132,99.6 140.5,100 Z" id="Shape" fill="#3973F4"></path>
        </g>
    </g>
</svg>