<?xml version="1.0" encoding="UTF-8"?>
<svg width="146px" height="84px" viewBox="0 0 146 84" version="1.1" xmlns="http://www.w3.org/2000/svg" xmlns:xlink="http://www.w3.org/1999/xlink">
    <!-- Generator: Sketch 51.2 (57519) - http://www.bohemiancoding.com/sketch -->
    <title>Shoe_2</title>
    <desc>Created with Sketch.</desc>
    <defs></defs>
    <g id="Page-1" stroke="none" stroke-width="1" fill="none" fill-rule="evenodd">
        <g id="Shoe_2" fill-rule="nonzero">
            <path d="M143.8,63.7 C143.4,62.6 142.9,61.6 142.3,60.7 C140.3,57.6 137,55.1 132,53.5 C125.3,51.4 119.7,50.7 114.6,50.2 C113.2,50 111.8,49.9 110.5,49.8 C95.3,48.3 82.8,46 55,11.9 C52.2,8.5 50.8,5 47.6,1.9 C44.5,-1.1 39.7,2.4 33.5,3.7 C32.2,4 30.9,4.2 29.5,4.2 C24.5,4.3 18.7,3.7 13.6,3.1 C6.3,2.3 10.5,-1.6 1.9,54.3 C1.3,58.5 0.7,62.7 0.4,66.9 C0.1,70.5 -2.34479103e-13,74.2 0.1,77.8 C0.1,79.3 0.4,81.5 2.1,81.7 C25.5,84.1 40.4,83.1 77.5,82.9 C96,82.8 114.7,83 132.9,79.5 C133,79.5 137.4,78.8 137.4,78.8 C141.1,78.2 145.4,77 145.4,74.4 C145.4,70.5 145.1,66.9 143.8,63.7 Z" id="Shape" fill="#4988FD"></path>
            <path d="M114.6,50.1 L110.5,62.6 C86.7,61.5 62.2,46.4 49.6,27.2 C45.3,20.6 41.8,13.1 36.8,7 C36.8,7 35.2,5.2 33.5,3.5 C39.7,2.1 44.5,-1.3 47.6,1.7 C49.8,3.9 51.2,6.2 52.8,8.6 C53.3,9.4 53.9,10.2 54.5,11 C54.7,11.3 54.9,11.5 55.1,11.8 C56.8,13.9 58.4,15.8 60,17.6 C60.5,18.2 61,18.8 61.5,19.3 C63.3,21.4 65,23.3 66.7,25 C67.2,25.6 67.8,26.2 68.3,26.7 C70.1,28.6 71.9,30.4 73.6,32 C74.2,32.6 74.9,33.2 75.5,33.8 C77.2,35.4 78.9,36.8 80.5,38 C81.3,38.6 82,39.2 82.8,39.7 C84.1,40.7 85.4,41.5 86.6,42.3 C87.5,42.8 88.4,43.3 89.2,43.8 C91.8,45.2 94.2,46.2 96.6,47 C97.6,47.3 98.5,47.6 99.5,47.8 C103.3,48.8 106.9,49.2 110.7,49.6 C111.8,49.8 113.2,50 114.6,50.1 Z" id="Shape" fill="#3973F4"></path>
            <path d="M145.4,74.3 C145.4,76.9 141.1,78.1 137.4,78.7 C137.4,78.7 133,79.4 132.9,79.4 C114.6,82.9 96,82.7 77.5,82.8 C40.4,83 25.5,84 2.1,81.6 C0.3,81.4 0.1,79.2 0.1,77.7 C-3.55271368e-15,74 0.1,70.4 0.4,66.8 C13.4,67.7 69.2,70.5 111.6,66.1 C123.3,64.9 133.9,63.1 142.4,60.6 C143,61.6 143.5,62.6 143.9,63.6 C145.1,66.9 145.4,70.5 145.4,74.3 Z" id="Shape" fill="#DFECFD"></path>
            <path d="M143.8,63.7 C135.1,66.6 126,68.4 116.8,69.3 C115.4,69.4 113.8,69.5 112.7,68.6 C112,68 111.7,67.2 111.5,66.3 C111.4,65.9 111.3,65.4 111.3,65 C110.6,60 110.4,54.9 110.5,49.9 C116.8,50.5 123.5,51 132,53.7 C137,55.2 140.3,57.8 142.3,60.9 C142.9,61.6 143.4,62.6 143.8,63.7 Z" id="Shape" fill="#DFECFD"></path>
            <path d="M54.4,11 C54.3,11.1 54.3,11.1 54.2,11.2 L47.9,16.1 C47.6,16.3 47.3,16.4 47,16.4 C46.5,16.4 46.1,16.2 45.8,15.8 C45.3,15.1 45.4,14.2 46.1,13.7 L52.4,8.8 C52.5,8.7 52.7,8.6 52.8,8.6 C53.2,9.4 53.8,10.2 54.4,11 Z" id="Shape" fill="#DFECFD"></path>
            <path d="M61.3,19.4 C61.3,19.7 61.1,20 60.9,20.2 C58.9,22.3 56.8,24.2 54.6,26 C54.3,26.2 54,26.3 53.7,26.3 C53.3,26.3 52.8,26.1 52.5,25.7 C52,25.1 52.1,24.1 52.8,23.6 C54.9,21.9 56.9,20.1 58.8,18.1 C59.1,17.8 59.5,17.6 59.9,17.6 C60.3,18.2 60.8,18.8 61.3,19.4 Z" id="Shape" fill="#DFECFD"></path>
            <path d="M68.1,26.8 C68.1,27.1 67.9,27.4 67.7,27.6 C65.6,29.8 63.5,31.9 61.4,34.1 L61.3,34.2 C61,34.5 60.6,34.7 60.2,34.7 C59.8,34.7 59.4,34.6 59.2,34.3 C58.6,33.7 58.6,32.8 59.2,32.2 L59.3,32.1 C61.4,29.9 63.5,27.8 65.6,25.6 C65.9,25.3 66.2,25.2 66.5,25.2 C67,25.7 67.6,26.3 68.1,26.8 Z" id="Shape" fill="#DFECFD"></path>
            <path d="M75.3,33.8 C75.2,34.1 75.1,34.4 74.8,34.6 C72.4,36.6 70.2,38.8 68.2,41.3 C67.9,41.7 67.5,41.9 67,41.9 C66.7,41.9 66.3,41.8 66.1,41.6 C65.4,41.1 65.3,40.2 65.8,39.5 C67.9,36.8 70.2,34.4 72.8,32.3 C73,32.2 73.1,32.1 73.3,32 C74,32.7 74.7,33.2 75.3,33.8 Z" id="Shape" fill="#DFECFD"></path>
            <path d="M82.5,39.7 C82.5,39.8 82.4,39.8 82.4,39.9 C80.9,42.7 79.4,45.6 77.8,48.4 C77.5,48.9 77,49.2 76.5,49.2 C76.3,49.2 76,49.1 75.8,49 C75.1,48.6 74.8,47.7 75.2,47 C76.7,44.2 78.2,41.3 79.8,38.5 C79.9,38.3 80.1,38.1 80.3,38 C81,38.6 81.8,39.2 82.5,39.7 Z" id="Shape" fill="#DFECFD"></path>
            <path d="M89,43.9 L87.6,53.1 C87.5,53.9 86.8,54.4 86.1,54.4 C86,54.4 85.9,54.4 85.9,54.4 C85.1,54.3 84.5,53.5 84.6,52.7 L86,43.1 C86,42.8 86.1,42.6 86.3,42.4 C87.2,42.9 88.1,43.4 89,43.9 Z" id="Shape" fill="#DFECFD"></path>
            <path d="M99.2,47.9 C98.9,50.6 98.4,53.3 97.9,55.9 C97.7,56.6 97.1,57.1 96.4,57.1 C96.3,57.1 96.2,57.1 96.1,57.1 C95.3,56.9 94.8,56.1 94.9,55.3 C95.5,52.7 95.9,50 96.2,47.4 C96.2,47.3 96.2,47.2 96.3,47.1 C97.3,47.4 98.3,47.7 99.2,47.9 Z" id="Shape" fill="#DFECFD"></path>
            <circle id="Oval" fill="#DFECFD" cx="26.3" cy="28.1" r="12.1"></circle>
            <circle id="Oval" fill="#4988FD" cx="26.3" cy="28.1" r="5.1"></circle>
        </g>
    </g>
</svg>