<?xml version="1.0" encoding="UTF-8"?>
<svg width="144px" height="130px" viewBox="0 0 144 130" version="1.1" xmlns="http://www.w3.org/2000/svg" xmlns:xlink="http://www.w3.org/1999/xlink">
    <!-- Generator: Sketch 51.2 (57519) - http://www.bohemiancoding.com/sketch -->
    <title>Shopping_Basket</title>
    <desc>Created with Sketch.</desc>
    <defs></defs>
    <g id="Page-1" stroke="none" stroke-width="1" fill="none" fill-rule="evenodd">
        <g id="Shopping_Basket" fill-rule="nonzero">
            <g id="Group" transform="translate(52.000000, 0.000000)">
                <circle id="Oval" fill="#FFFFFF" transform="translate(10.085600, 10.852380) rotate(-45.000000) translate(-10.085600, -10.852380) " cx="10.0856" cy="10.85238" r="6.49993766"></circle>
                <path d="M10.1,20.7 C7.5,20.7 5,19.7 3.1,17.8 C1.2,15.9 0.2,13.5 0.2,10.8 C0.2,8.2 1.2,5.7 3.1,3.8 C7,-4.5519144e-13 13.2,-0.1 17.1,3.8 C21,7.7 21,13.9 17.1,17.8 C15.2,19.7 12.7,20.7 10.1,20.7 Z M10.1,7.7 C9.3,7.7 8.5,8 7.8,8.6 C7.2,9.2 6.9,10 6.9,10.9 C6.9,11.8 7.2,12.6 7.8,13.2 C9,14.4 11.1,14.4 12.3,13.2 C12.3,13.2 12.3,13.2 12.3,13.2 C12.9,12.6 13.2,11.8 13.2,10.9 C13.2,10 12.9,9.2 12.3,8.6 C11.7,8 10.9,7.7 10.1,7.7 Z" id="Shape" fill="#3973F4"></path>
            </g>
            <path d="M18.1,48.9 C17.2,48.9 16.4,48.6 15.7,47.9 C14.4,46.6 14.4,44.5 15.7,43.2 L55,3.9 C56.3,2.6 58.4,2.6 59.7,3.9 C61,5.2 61,7.3 59.7,8.6 L20.4,47.9 C19.8,48.6 19,48.9 18.1,48.9 Z" id="Shape" fill="#3973F4"></path>
            <g id="Group" transform="translate(72.000000, 0.000000)">
                <circle id="Oval" fill="#FFFFFF" transform="translate(10.505240, 10.900140) rotate(-45.000000) translate(-10.505240, -10.900140) " cx="10.50524" cy="10.90014" r="6.49993766"></circle>
                <path d="M10.5,20.7 C7.9,20.7 5.4,19.7 3.5,17.8 C-0.4,13.9 -0.4,7.7 3.5,3.8 C7.4,-4.5519144e-13 13.6,-0.1 17.5,3.8 C19.4,5.7 20.4,8.1 20.4,10.8 C20.4,13.4 19.4,15.9 17.5,17.8 C15.7,19.7 13.2,20.7 10.5,20.7 Z M10.5,7.7 C9.7,7.7 8.9,8 8.2,8.6 C7.6,9.2 7.3,10 7.3,10.9 C7.3,11.8 7.6,12.6 8.2,13.2 C9.4,14.4 11.5,14.4 12.7,13.2 C13.3,12.6 13.6,11.8 13.6,10.9 C13.6,10 13.3,9.2 12.7,8.6 C12.2,8 11.4,7.7 10.5,7.7 Z" id="Shape" fill="#3973F4"></path>
            </g>
            <path d="M126.5,48.9 C125.6,48.9 124.8,48.6 124.1,47.9 L84.8,8.6 C83.5,7.3 83.5,5.2 84.8,3.9 C86.1,2.6 88.2,2.6 89.5,3.9 L128.8,43.2 C130.1,44.5 130.1,46.6 128.8,47.9 C128.2,48.6 127.3,48.9 126.5,48.9 Z" id="Shape" fill="#3973F4"></path>
            <path d="M136.7,64.6 L125.8,121.2 C125,126.2 120.7,129.8 115.7,129.8 L27.9,129.8 C22.9,129.8 18.6,126.1 17.8,121.2 L6.9,64.6 L136.7,64.6 Z" id="Shape" fill="#FFFFFF"></path>
            <path d="M136.7,64.6 L135.7,69.9 L125.8,121.2 C125,126.2 120.7,129.8 115.7,129.8 L27.9,129.8 C22.9,129.8 18.6,126.1 17.8,121.2 L7.9,69.9 L6.9,64.6 L136.7,64.6 Z" id="Shape" fill="#4988FD"></path>
            <polygon id="Shape" fill="#2767F4" points="136.7 64.6 135.2 72.2 8.7 72.3 6.9 64.6"></polygon>
            <path d="M11,64.6 L7.6,64.6 C3.6,64.6 0.4,61.7 0.4,58.2 L0.4,51.3 C0.4,47.7 3.6,44.9 7.6,44.9 L136,44.9 C140,44.9 143.2,47.8 143.2,51.3 L143.2,58.2 C143.2,61.8 140,64.6 136,64.6 L132.6,64.6 L11,64.6 Z" id="Shape" fill="#6097FD"></path>
            <g id="Group" transform="translate(28.000000, 77.000000)" fill="#FFFFFF">
                <path d="M6.3,2.6 C6,1.1 4.5,0.1 3,0.4 C1.5,0.7 0.5,2.2 0.8,3.7 L7.5,37.9 C8.2,41.5 13.7,40.4 12.9,36.8 L6.3,2.6 Z" id="Shape"></path>
                <path d="M25,2.7 C24.8,1.2 23.4,0.1 21.9,0.3 C20.4,0.5 19.3,1.9 19.5,3.4 C20.5,10.5 23.3,30.3 24.3,37.6 C24.8,41.2 30.3,40.5 29.8,36.8 C29.4,33.8 25.6,6.7 25,2.7 Z" id="Shape"></path>
                <path d="M41.1,3.1 L41.1,37.3 C41.1,41 46.7,41 46.7,37.3 L46.7,3.1 C46.6,-0.5 41.1,-0.5 41.1,3.1 Z" id="Shape"></path>
                <path d="M62.7,2.7 C60.2,20.4 61.3,12.4 57.9,36.9 C57.4,40.5 62.9,41.3 63.4,37.7 L66.2,17.8 C66.3,17.4 66.2,17.5 66.3,17.1 L68.2,3.5 C68.7,-0.1 63.2,-0.9 62.7,2.7 Z" id="Shape"></path>
                <path d="M81.4,2.6 C80.5,7.2 75,35.2 74.7,36.9 C74,40.5 79.4,41.6 80.1,38 C80.1,38 86.8,3.8 86.8,3.8 C87.5,0.1 82.1,-1 81.4,2.6 Z" id="Shape"></path>
            </g>
        </g>
    </g>
</svg>