<?xml version="1.0" encoding="UTF-8"?>
<svg width="135px" height="121px" viewBox="0 0 135 121" version="1.1" xmlns="http://www.w3.org/2000/svg" xmlns:xlink="http://www.w3.org/1999/xlink">
    <!-- Generator: Sketch 51.2 (57519) - http://www.bohemiancoding.com/sketch -->
    <title>Shopping_Cart</title>
    <desc>Created with Sketch.</desc>
    <defs></defs>
    <g id="Page-1" stroke="none" stroke-width="1" fill="none" fill-rule="evenodd">
        <g id="Shopping_Cart" fill-rule="nonzero">
            <path d="M133,30 C131.3,27.6 128.6,26.3 125.7,26.3 C125.7,26.3 125.7,26.3 125.6,26.3 L46,26.3 C43.4,26.3 41.3,28.4 41.3,31 C41.3,33.6 43.4,35.7 46,35.7 L125.4,35.7 L115.8,66.7 C115.1,68.9 113.1,70.3 110.9,70.3 L44.9,70.3 L25.9,7.6 C24.6,3.4 20.8,0.5 16.3,0.5 L4.8,0.5 C2.2,0.5 0.1,2.6 0.1,5.2 C0.1,7.8 2.2,9.9 4.8,9.9 L16.3,9.9 C16.6,9.9 16.9,10.1 17,10.4 L40,86.1 C41.8,91.9 47.2,95.8 53.2,95.8 L111.3,95.8 C113.9,95.8 116,93.7 116,91.1 C116,88.5 113.9,86.4 111.3,86.4 L53.2,86.4 C51.2,86.4 49.4,85.1 48.8,83.2 L47.7,79.6 L110.9,79.6 C117.3,79.6 122.8,75.5 124.7,69.4 L134.3,38.3 C135.3,35.3 134.7,32.3 133,30 Z" id="Shape" fill="#4988FD"></path>
            <path d="M55.3,100 C49.6,100 45,104.6 45,110.3 C45,116 49.6,120.6 55.3,120.6 C61,120.6 65.6,116 65.6,110.3 C65.6,104.6 61,100 55.3,100 Z M55.3,115.2 C52.6,115.2 50.4,113 50.4,110.3 C50.4,107.6 52.6,105.4 55.3,105.4 C58,105.4 60.2,107.6 60.2,110.3 C60.2,113 58.1,115.2 55.3,115.2 Z" id="Shape" fill="#2767F4"></path>
            <path d="M104.7,100 C99,100 94.4,104.6 94.4,110.3 C94.4,116 99,120.6 104.7,120.6 C110.4,120.6 115,116 115,110.3 C115,104.6 110.4,100 104.7,100 Z M104.7,115.2 C102,115.2 99.8,113 99.8,110.3 C99.8,107.6 102,105.4 104.7,105.4 C107.4,105.4 109.6,107.6 109.6,110.3 C109.6,113 107.4,115.2 104.7,115.2 Z" id="Shape" fill="#2767F4"></path>
            <path d="M58,67.1 C56.9,67.1 56,66.2 56,65.1 L56,39.9 C56,38.8 56.9,37.9 58,37.9 C59.1,37.9 60,38.8 60,39.9 L60,65.1 C60,66.2 59.1,67.1 58,67.1 Z" id="Shape" fill="#2767F4"></path>
            <path d="M73.8,67.1 C72.7,67.1 71.8,66.2 71.8,65.1 L71.8,39.9 C71.8,38.8 72.7,37.9 73.8,37.9 C74.9,37.9 75.8,38.8 75.8,39.9 L75.8,65.1 C75.8,66.2 74.9,67.1 73.8,67.1 Z" id="Shape" fill="#2767F4"></path>
            <path d="M89.7,67.1 C88.6,67.1 87.7,66.2 87.7,65.1 L87.7,39.9 C87.7,38.8 88.6,37.9 89.7,37.9 C90.8,37.9 91.7,38.8 91.7,39.9 L91.7,65.1 C91.7,66.2 90.8,67.1 89.7,67.1 Z" id="Shape" fill="#2767F4"></path>
            <path d="M105.5,67.1 C104.4,67.1 103.5,66.2 103.5,65.1 L103.5,56.1 C103.5,55 104.4,54.1 105.5,54.1 C106.6,54.1 107.5,55 107.5,56.1 L107.5,65.1 C107.5,66.2 106.6,67.1 105.5,67.1 Z" id="Shape" fill="#2767F4"></path>
            <path d="M105.5,51.7 C104.4,51.7 103.5,50.8 103.5,49.7 L103.5,40 C103.5,38.9 104.4,38 105.5,38 C106.6,38 107.5,38.9 107.5,40 L107.5,49.7 C107.5,50.8 106.6,51.7 105.5,51.7 Z" id="Shape" fill="#2767F4"></path>
            <path d="M113.9,47.5 L79.4,47.5 C78.3,47.5 77.4,46.6 77.4,45.5 C77.4,44.4 78.3,43.5 79.4,43.5 L113.9,43.5 C115,43.5 115.9,44.4 115.9,45.5 C115.9,46.6 115,47.5 113.9,47.5 Z" id="Shape" fill="#2767F4"></path>
            <path d="M73.8,47.5 L49.7,47.5 C48.6,47.5 47.7,46.6 47.7,45.5 C47.7,44.4 48.6,43.5 49.7,43.5 L73.8,43.5 C74.9,43.5 75.8,44.4 75.8,45.5 C75.8,46.6 74.9,47.5 73.8,47.5 Z" id="Shape" fill="#2767F4"></path>
            <path d="M44.8,47.5 L44,47.5 C42.9,47.5 42,46.6 42,45.5 C42,44.4 42.9,43.5 44,43.5 L44.8,43.5 C45.9,43.5 46.8,44.4 46.8,45.5 C46.8,46.6 45.9,47.5 44.8,47.5 Z" id="Shape" fill="#2767F4"></path>
            <path d="M110.3,60.6 L101.6,60.6 C100.5,60.6 99.6,59.7 99.6,58.6 C99.6,57.5 100.5,56.6 101.6,56.6 L110.3,56.6 C111.4,56.6 112.3,57.5 112.3,58.6 C112.3,59.7 111.4,60.6 110.3,60.6 Z" id="Shape" fill="#2767F4"></path>
            <path d="M95.6,60.6 L73.9,60.6 C72.8,60.6 71.9,59.7 71.9,58.6 C71.9,57.5 72.8,56.6 73.9,56.6 L95.6,56.6 C96.7,56.6 97.6,57.5 97.6,58.6 C97.6,59.7 96.7,60.6 95.6,60.6 Z" id="Shape" fill="#2767F4"></path>
            <path d="M68.9,60.6 L48.9,60.6 C47.8,60.6 46.9,59.7 46.9,58.6 C46.9,57.5 47.8,56.6 48.9,56.6 L68.9,56.6 C70,56.6 70.9,57.5 70.9,58.6 C70.9,59.7 70,60.6 68.9,60.6 Z" id="Shape" fill="#2767F4"></path>
        </g>
    </g>
</svg>