<?xml version="1.0" encoding="UTF-8"?>
<svg width="108px" height="147px" viewBox="0 0 108 147" version="1.1" xmlns="http://www.w3.org/2000/svg" xmlns:xlink="http://www.w3.org/1999/xlink">
    <!-- Generator: Sketch 51.2 (57519) - http://www.bohemiancoding.com/sketch -->
    <title>Shower</title>
    <desc>Created with Sketch.</desc>
    <defs></defs>
    <g id="Page-1" stroke="none" stroke-width="1" fill="none" fill-rule="evenodd">
        <g id="Shower" fill-rule="nonzero">
            <path d="M103.2,5.6 L103.2,136.6 L4.6,136.6 L4.6,5.6 C4.6,2.9 6.8,0.7 9.5,0.7 L98.3,0.7 C101,0.7 103.2,2.9 103.2,5.6 Z" id="Shape" fill="#D5E6FD"></path>
            <path d="M107.5,146.5 L107.5,140 C107.5,138.1 106,136.6 104.1,136.6 L3.7,136.6 C1.8,136.6 0.3,138.1 0.3,140 L0.3,146.5 L107.5,146.5 Z" id="Shape" fill="#4988FD"></path>
            <path d="M90.9,78.9 C89.8,78.9 88.9,78 88.9,76.9 L88.9,60 C88.9,58.9 89.8,58 90.9,58 C92,58 92.9,58.9 92.9,60 L92.9,76.9 C92.9,78 92,78.9 90.9,78.9 Z" id="Shape" fill="#FFFFFF"></path>
            <path d="M45,21.5 C44.2,21.5 43.5,21.1 43.2,20.3 C40.5,14.3 33.9,11 27.4,12.3 C25.5,12.7 23.7,13.5 22.1,14.6 C21.2,15.2 20,15 19.3,14.1 C18.7,13.2 18.9,12 19.8,11.3 C21.9,9.8 24.2,8.8 26.7,8.3 C34.9,6.6 43.4,10.9 46.9,18.5 C47.4,19.5 46.9,20.7 45.9,21.1 C45.6,21.4 45.3,21.5 45,21.5 Z" id="Shape" fill="#3973F4"></path>
            <path d="M35.7,35 L59.7,30 L59.5,29 C58.1,22.4 51.6,18.1 45,19.5 C38.4,20.9 34.1,27.4 35.5,34 L35.7,35 Z" id="Shape" fill="#4988FD"></path>
            <g id="Group" transform="translate(36.000000, 38.000000)" fill="#6A9EFD">
                <path d="M25.7,9 C24.8,9 23.9,8.4 23.7,7.4 L23.6,7 C23.4,5.9 24.1,4.9 25.2,4.6 C26.3,4.4 27.3,5.1 27.6,6.2 L27.7,6.6 C27.9,7.7 27.2,8.7 26.1,9 C26,9 25.9,9 25.7,9 Z" id="Shape"></path>
                <path d="M28.2,17.9 C27.3,17.9 26.4,17.3 26.2,16.3 L26.1,15.9 C25.9,14.8 26.6,13.8 27.6,13.5 C28.7,13.3 29.7,14 30,15 L30.1,15.4 C30.3,16.5 29.6,17.5 28.6,17.8 C28.5,17.9 28.4,17.9 28.2,17.9 Z" id="Shape"></path>
                <path d="M30.7,26.8 C29.8,26.8 28.9,26.2 28.7,25.2 L28.6,24.8 C28.4,23.7 29.1,22.7 30.1,22.4 C31.2,22.2 32.2,22.9 32.5,23.9 L32.6,24.3 C32.8,25.4 32.1,26.4 31.1,26.7 C31,26.8 30.8,26.8 30.7,26.8 Z" id="Shape"></path>
                <path d="M33.2,35.6 C32.3,35.6 31.4,35 31.2,34 L31.1,33.6 C30.9,32.5 31.6,31.5 32.6,31.2 C33.7,31 34.7,31.7 35,32.7 L35.1,33.1 C35.3,34.2 34.6,35.2 33.6,35.5 C33.4,35.6 33.3,35.6 33.2,35.6 Z" id="Shape"></path>
                <path d="M35.6,44.4 C34.7,44.4 33.8,43.8 33.6,42.8 L33.5,42.4 C33.3,41.3 34,40.3 35,40 C36.1,39.8 37.1,40.5 37.4,41.5 L37.5,41.9 C37.7,43 37,44 36,44.3 C35.9,44.4 35.8,44.4 35.6,44.4 Z" id="Shape"></path>
                <path d="M17.8,4.7 C16.9,4.7 16,4.1 15.8,3.1 L15.7,2.7 C15.5,1.6 16.2,0.6 17.2,0.3 C18.3,0.1 19.3,0.8 19.6,1.8 L19.7,2.2 C19.9,3.3 19.2,4.3 18.2,4.6 C18.1,4.7 18,4.7 17.8,4.7 Z" id="Shape"></path>
                <path d="M20.3,13.5 C19.4,13.5 18.5,12.9 18.3,11.9 L18.2,11.5 C18,10.4 18.7,9.4 19.7,9.1 C20.8,8.9 21.8,9.6 22.1,10.6 L22.2,11 C22.4,12.1 21.7,13.1 20.7,13.4 C20.6,13.5 20.4,13.5 20.3,13.5 Z" id="Shape"></path>
                <path d="M22.8,22.4 C21.9,22.4 21,21.8 20.8,20.8 L20.7,20.4 C20.5,19.3 21.2,18.3 22.3,18 C23.4,17.8 24.4,18.5 24.7,19.6 L24.8,20 C25,21.1 24.3,22.1 23.2,22.4 C23.1,22.4 22.9,22.4 22.8,22.4 Z" id="Shape"></path>
                <path d="M25.3,31.3 C24.4,31.3 23.5,30.7 23.3,29.7 L23.2,29.3 C23,28.2 23.7,27.2 24.7,26.9 C25.8,26.7 26.8,27.4 27.1,28.4 L27.2,28.8 C27.4,29.9 26.7,30.9 25.7,31.2 C25.5,31.2 25.4,31.3 25.3,31.3 Z" id="Shape"></path>
                <path d="M27.7,40.1 C26.8,40.1 25.9,39.5 25.7,38.5 L25.6,38.1 C25.4,37 26.1,36 27.1,35.7 C28.2,35.5 29.2,36.2 29.5,37.2 L29.6,37.6 C29.8,38.7 29.1,39.7 28.1,40 C28,40.1 27.9,40.1 27.7,40.1 Z" id="Shape"></path>
                <path d="M10.5,12.2 C9.6,12.2 8.7,11.6 8.5,10.6 L8.4,10.2 C8.2,9.1 8.9,8.1 9.9,7.8 C11,7.6 12,8.3 12.3,9.3 L12.4,9.7 C12.6,10.8 11.9,11.8 10.9,12.1 C10.8,12.2 10.6,12.2 10.5,12.2 Z" id="Shape"></path>
                <path d="M11.8,21.3 C10.9,21.3 10,20.7 9.8,19.7 L9.7,19.3 C9.5,18.2 10.2,17.2 11.2,16.9 C12.3,16.7 13.3,17.4 13.6,18.4 L13.7,18.8 C13.9,19.9 13.2,20.9 12.2,21.2 C12.1,21.3 11.9,21.3 11.8,21.3 Z" id="Shape"></path>
                <path d="M13.1,30.5 C12.2,30.5 11.3,29.9 11.1,28.9 L11,28.5 C10.8,27.4 11.5,26.4 12.5,26.1 C13.6,25.9 14.6,26.6 14.9,27.6 L15,28 C15.2,29.1 14.5,30.1 13.5,30.4 C13.4,30.4 13.2,30.5 13.1,30.5 Z" id="Shape"></path>
                <path d="M14.4,39.5 C13.5,39.5 12.6,38.9 12.4,37.9 L12.3,37.5 C12.1,36.4 12.8,35.4 13.9,35.1 C15,34.9 16,35.6 16.3,36.7 L16.4,37.1 C16.6,38.2 15.9,39.2 14.8,39.5 C14.6,39.5 14.5,39.5 14.4,39.5 Z" id="Shape"></path>
                <path d="M15.6,48.6 C14.7,48.6 13.8,48 13.6,47 L13.5,46.6 C13.3,45.5 14,44.5 15,44.2 C16.1,44 17.1,44.7 17.4,45.7 L17.5,46.1 C17.7,47.2 17,48.2 16,48.5 C15.9,48.6 15.8,48.6 15.6,48.6 Z" id="Shape"></path>
                <path d="M2.2,8 C1.3,8 0.4,7.4 0.2,6.4 L0.1,6 C-0.1,4.9 0.6,3.9 1.6,3.6 C2.7,3.4 3.7,4.1 4,5.1 L4.1,5.5 C4.3,6.6 3.6,7.6 2.6,7.9 C2.4,8 2.3,8 2.2,8 Z" id="Shape"></path>
                <path d="M3.4,17.1 C2.5,17.1 1.6,16.5 1.4,15.5 L1.3,15.1 C1.1,14 1.8,13 2.8,12.7 C3.9,12.5 4.9,13.2 5.2,14.2 L5.3,14.6 C5.5,15.7 4.8,16.7 3.8,17 C3.7,17.1 3.6,17.1 3.4,17.1 Z" id="Shape"></path>
                <path d="M4.7,26.2 C3.8,26.2 2.9,25.6 2.7,24.6 L2.6,24.2 C2.4,23.1 3.1,22.1 4.1,21.8 C5.2,21.6 6.2,22.3 6.5,23.3 L6.6,23.7 C6.8,24.8 6.1,25.8 5.1,26.1 C5,26.2 4.9,26.2 4.7,26.2 Z" id="Shape"></path>
                <path d="M6,35.3 C5.1,35.3 4.2,34.7 4,33.7 L3.9,33.3 C3.7,32.2 4.4,31.2 5.5,30.9 C6.6,30.7 7.6,31.4 7.9,32.5 L8,32.9 C8.2,34 7.5,35 6.4,35.3 C6.3,35.3 6.2,35.3 6,35.3 Z" id="Shape"></path>
                <path d="M7.3,44.4 C6.4,44.4 5.5,43.8 5.3,42.8 L5.2,42.4 C5,41.3 5.7,40.3 6.7,40 C7.8,39.8 8.8,40.5 9.1,41.5 L9.2,41.9 C9.4,43 8.7,44 7.7,44.3 C7.6,44.4 7.4,44.4 7.3,44.4 Z" id="Shape"></path>
            </g>
            <rect id="Rectangle-path" fill="#FFFFFF" x="19" y="0.7" width="4" height="135.9"></rect>
        </g>
    </g>
</svg>