<?xml version="1.0" encoding="UTF-8"?>
<svg width="149px" height="146px" viewBox="0 0 149 146" version="1.1" xmlns="http://www.w3.org/2000/svg" xmlns:xlink="http://www.w3.org/1999/xlink">
    <!-- Generator: Sketch 51.2 (57519) - http://www.bohemiancoding.com/sketch -->
    <title>Sleep</title>
    <desc>Created with Sketch.</desc>
    <defs></defs>
    <g id="Page-1" stroke="none" stroke-width="1" fill="none" fill-rule="evenodd">
        <g id="Sleep" fill-rule="nonzero">
            <path d="M143,93.1 L10.6,93.1 L10.6,30.9 C10.6,28.1 8.3,25.8 5.5,25.8 C2.7,25.8 0.4,28.1 0.4,30.9 L0.4,140.2 C0.4,143 2.7,145.3 5.5,145.3 C8.3,145.3 10.6,143 10.6,140.2 L10.6,103.4 L137.9,103.4 L137.9,140.2 C137.9,143 140.2,145.3 143,145.3 C145.8,145.3 148.1,143 148.1,140.2 L148.1,98.2 C148.1,95.4 145.8,93.1 143,93.1 Z" id="Shape" fill="#3973F4"></path>
            <path d="M45.4,93.1 L45.4,74.2 C45.4,69.3 50,65.8 54.7,67 L136.1,88.3 C138.4,88.9 140.1,90.8 140.4,93.1" id="Shape" fill="#C5DCFA"></path>
            <circle id="Oval" fill="#4988FD" cx="27.6" cy="75.4" r="9.9"></circle>
            <path d="M28.8,53.6 L33.9,50.5 L33.9,50.4 L30.7,49.6 C30.3,49.5 30.1,49.1 30.2,48.7 C30.3,48.3 30.7,48.1 31.1,48.2 L36.8,49.7 L36.6,50.6 C36.6,50.8 36.4,50.9 36.3,51 L31.8,53.9 L31.8,54 L34.9,54.8 C35.3,54.9 35.5,55.3 35.4,55.7 C35.3,56.1 34.9,56.3 34.5,56.2 L28.6,54.7 L28.8,53.6 Z" id="Shape" fill="#4988FD"></path>
            <path d="M36.2,40.6 C36.2,40.3 36.2,40.1 36.4,39.8 L42.6,31.6 L42.6,31.4 L36.2,32.3 C35.6,32.4 35.1,32 35.1,31.4 L35,30.9 C34.9,30.3 35.3,29.8 35.9,29.8 L46,28.4 C46.6,28.3 47.1,28.7 47.1,29.3 L47.2,30 C47.2,30.3 47.2,30.5 47,30.7 L41.2,38.6 L41.2,38.8 L47.4,37.9 C48,37.8 48.5,38.2 48.5,38.8 L48.6,39.3 C48.7,39.9 48.3,40.4 47.7,40.4 L36.3,42 L36.2,40.6 Z" id="Shape" fill="#4988FD"></path>
            <path d="M51.2,21.9 C51.3,21.7 51.5,21.5 51.7,21.4 L72.6,11.3 L72.8,10.9 L58.7,5.6 C58.2,5.4 57.9,4.8 58.1,4.3 L59.4,0.7 C59.6,0.2 60.2,-0.1 60.7,0.1 L83.5,8.6 C84,8.8 84.3,9.4 84.1,9.9 L82.9,13.1 C82.8,13.3 82.6,13.5 82.4,13.6 L62.5,23.6 L62.3,24 L76.1,29.2 C76.6,29.4 76.9,30 76.7,30.5 L75.4,34.1 C75.2,34.6 74.6,34.9 74.1,34.7 L50.8,26 C50.3,25.8 50,25.2 50.2,24.7 L51.2,21.9 Z" id="Shape" fill="#4988FD"></path>
        </g>
    </g>
</svg>