<?xml version="1.0" encoding="UTF-8"?>
<svg width="100px" height="144px" viewBox="0 0 100 144" version="1.1" xmlns="http://www.w3.org/2000/svg" xmlns:xlink="http://www.w3.org/1999/xlink">
    <!-- Generator: Sketch 51.2 (57519) - http://www.bohemiancoding.com/sketch -->
    <title>Smartwatch</title>
    <desc>Created with Sketch.</desc>
    <defs></defs>
    <g id="Page-1" stroke="none" stroke-width="1" fill="none" fill-rule="evenodd">
        <g id="Smartwatch" fill-rule="nonzero">
            <g id="Group" transform="translate(0.000000, 7.000000)">
                <path d="M81.1,38.5 C81.1,33.1 78.9,29.1 74.1,26.4 C69.7,23.9 66.4,20.6 66,15.1 C65.9,13.4 65.4,11.7 65.1,10 C64.2,4.7 61.1,1.4 55.8,1.1 C46.5,0.7 37.1,0.5 27.7,0.8 C19.9,1.1 17.3,3.6 16.2,11.3 C15.3,17.6 13.6,23.2 7.4,26.3 C2.3,28.9 0.2,33.1 0.2,38.7 C0.3,48.7 0.2,58.6 0.2,68.6 C0.2,78.8 0.2,89 0.2,99.2 C0.2,104.5 2.5,108.3 7.3,110.9 C11.5,113.2 14.8,116.4 15.3,121.7 C15.5,124.1 16.1,126.6 16.7,128.9 C17.6,132.6 21,135.8 24.4,135.9 C33.3,136.2 42.1,136.4 51,136.5 C61.7,136.6 64.7,132.8 65.6,123.3 C66.1,117.7 68.8,113.5 73.7,110.9 C78.7,108.3 81,104.3 81,98.8 C81.1,78.8 81.1,58.6 81.1,38.5 Z" id="Shape" fill="#3973F4"></path>
                <path d="M81.1,39.5 C81.1,34.3 79,29.6 74.5,27.1 C70.4,24.8 67.3,23.5 66.9,18.4 C66.8,16.8 66.4,18.1 66.1,16.5 C65.2,11.5 62.3,8.3 57.4,8.1 C54.7,8 52,7.9 49.3,7.8 C43.2,7.6 37.1,7.6 31.1,7.8 C23.8,8.1 21.4,10.5 20.3,17.7 C19.4,23.6 17.8,29 12.1,31.9 C7.3,34.4 5.3,38.3 5.4,43.7 C5.5,53.1 5.4,62.6 5.4,72 C5.4,81.7 5.4,87.7 5.4,97.4 C5.4,110.6 16.4,106.1 19.5,122.5 C19.9,124.8 20.3,127.1 20.8,129.4 C21.7,132.9 24.8,136 28,136.1 C36.3,136.4 44.6,136.5 52.9,136.6 C62.9,136.7 65.7,133.1 66.6,124.1 C67.1,118.7 69.7,114.8 74.2,112.4 C78.8,109.9 81,106.1 81,100.9 L81,92.4 C81,78.1 81,62.3 81,48 C81.1,45 81.1,42.2 81.1,39.5 Z" id="Shape" fill="#4988FD"></path>
                <path d="M81.1,39.5 C81.1,42.2 81.1,45 81.1,47.9 C78.5,48.7 75.8,49.1 73,49.1 C57.8,49.1 45.5,36.8 45.5,21.6 C45.5,16.5 46.9,11.8 49.3,7.7 C52,7.8 54.7,7.9 57.4,8 C62.3,8.2 65.3,11.4 66.1,16.4 C66.4,18 66.8,16.7 66.9,18.3 C67.3,23.5 70.4,24.7 74.5,27 C79,29.6 81.1,34.3 81.1,39.5 Z" id="Shape" fill="#3973F4"></path>
                <path d="M81.1,92.3 C81.1,92.3 81.1,100.8 81.1,100.8 C81.1,114.7 68,109.7 66.6,124 C65.8,133 62.9,136.6 52.9,136.5 C44.6,136.4 36.3,136.3 28,136 C24.8,135.9 21.6,132.9 20.8,129.3 C20.1,126.6 19.8,124.5 19.5,122.8 C18.8,118.7 22.1,114.9 26.3,115 C42.2,115.3 61.3,115 63,115 C64.7,115 66.2,113.7 67.3,112.6 C72.6,107.6 76.7,108 78.4,99.7 C78.8,97.8 78.7,96.8 80,94.1 C80.3,93.7 81.1,92.7 81.1,92.3 Z" id="Shape" fill="#3973F4"></path>
                <path d="M73.7,49.1 C73.7,65.2 73.7,81.3 73.7,97.3 C73.7,102.2 71.4,104.5 66.6,104.5 C49.3,104.5 32.1,104.5 14.8,104.5 C9.9,104.5 7.7,102.3 7.7,97.4 C7.7,87.7 7.7,78.1 7.7,68.4 L7.7,39.9 C7.7,34.9 10,32.7 15,32.7 L66.5,32.7 C71.3,32.7 73.6,35.1 73.6,39.8 C73.7,42.9 73.7,46 73.7,49.1 Z" id="Shape" fill="#D5E6FD"></path>
                <path d="M73.7,49.1 C73.5,49.1 73.2,49.1 73,49.1 C61.8,49.1 52.1,42.4 47.9,32.7 L66.6,32.7 C71.4,32.7 73.7,35.1 73.7,39.8 C73.7,42.9 73.7,46 73.7,49.1 Z" id="Shape" fill="#C5DCFA"></path>
                <path d="M40.1,90.7 C27.9,90.7 17.9,80.8 17.9,68.5 C17.9,66.6 18.2,64.6 18.6,62.8 C19,61.5 20.3,60.7 21.7,61 C23.1,61.3 23.8,62.7 23.5,64.1 C23.1,65.5 22.9,67 22.9,68.5 C22.9,78 30.6,85.7 40.1,85.7 C40.5,85.7 40.8,85.7 41.2,85.7 C42.6,85.6 43.8,86.7 43.9,88 C44,89.4 42.9,90.6 41.6,90.7 C41,90.7 40.5,90.7 40.1,90.7 Z" id="Shape" fill="#3973F4"></path>
                <path d="M49.6,88.2 C48.7,88.2 47.9,87.7 47.4,86.9 C46.7,85.7 47.2,84.2 48.4,83.5 C53.9,80.5 57.2,74.7 57.2,68.5 C57.2,65.3 56.3,62.2 54.6,59.5 C53.9,58.3 54.2,56.8 55.4,56.1 C56.6,55.4 58.1,55.7 58.8,56.9 C61,60.4 62.1,64.4 62.1,68.6 C62.1,76.6 57.7,84.1 50.7,88 C50.4,88.1 50,88.2 49.6,88.2 Z" id="Shape" fill="#3973F4"></path>
                <path d="M52.4,55.7 C51.9,55.7 51.3,55.5 50.8,55.1 C49.7,54.2 48.5,53.5 47.2,52.9 C45.9,52.3 45.4,50.8 46,49.6 C46.6,48.3 48.1,47.8 49.3,48.4 C51,49.2 52.5,50.1 54,51.3 C55.1,52.2 55.2,53.7 54.4,54.8 C53.8,55.4 53.1,55.7 52.4,55.7 Z" id="Shape" fill="#3973F4"></path>
                <path d="M40.5,51.4 C40.5,51.4 40.5,51.4 40.5,51.4 C40.3,51.4 40.2,51.4 40,51.4 C38.6,51.4 37.5,50.3 37.5,48.9 C37.5,47.5 38.6,46.4 40,46.4 C40.2,46.4 40.4,46.4 40.5,46.4 C41.9,46.4 43,47.6 42.9,49 C43,50.3 41.9,51.4 40.5,51.4 Z" id="Shape" fill="#3973F4"></path>
            </g>
            <path d="M63.4,3.9 C67.1,1.5 71.5,0.1 76.3,0.1 C89.3,0.1 99.8,10.6 99.8,23.6 C99.8,36.6 89.3,47.1 76.3,47.1 C63.3,47.1 52.8,36.6 52.8,23.6 C52.8,15.3 57.1,8.1 63.4,3.9" id="Shape" fill="#21D3AC"></path>
            <path d="M84.8,30.5 C82.4,32.4 79.8,34 77.2,35.7 C77,35.8 76.7,35.9 76.5,35.8 C69.7,31.5 62.1,27.2 64.2,18.5 C65.2,14.4 69.3,12.4 73.2,14.1 C74.1,14.5 74.9,15 75.7,15.6 C76.6,16.3 76.9,16.3 77.8,15.6 C82.7,11.5 88.6,13.7 89.5,19.1 C90.3,23.4 88.9,27.4 84.8,30.5 Z" id="Shape" fill="#FFFFFF"></path>
        </g>
    </g>
</svg>