<?xml version="1.0" encoding="UTF-8"?>
<svg width="158px" height="124px" viewBox="0 0 158 124" version="1.1" xmlns="http://www.w3.org/2000/svg" xmlns:xlink="http://www.w3.org/1999/xlink">
    <!-- Generator: Sketch 51.2 (57519) - http://www.bohemiancoding.com/sketch -->
    <title>Spinning_bike</title>
    <desc>Created with Sketch.</desc>
    <defs></defs>
    <g id="Page-1" stroke="none" stroke-width="1" fill="none" fill-rule="evenodd">
        <g id="Spinning_bike" fill-rule="nonzero">
            <path d="M155.6,123.9 L2.2,123.9 C1.4,123.9 0.7,123.2 0.7,122.4 C0.7,121.6 1.4,120.9 2.2,120.9 L155.6,120.9 C156.4,120.9 157.1,121.6 157.1,122.4 C157.1,123.2 156.4,123.9 155.6,123.9 Z" id="Shape" fill="#C5DCFA"></path>
            <path d="M134.7,35.3 L134,37.6 L133.2,40.5 L125.2,67.9 C124.9,69 123.8,69.8 122.7,69.8 C122.5,69.8 122.2,69.8 122,69.7 C120.6,69.3 119.8,67.8 120.2,66.5 L127.8,40.6 L129.7,33.9 C130.1,32.5 131.6,31.7 132.9,32.1 C134.3,32.5 135.1,33.9 134.7,35.3 Z" id="Shape" fill="#3973F4"></path>
            <path d="M134.7,35.3 L134,37.6 L133.2,40.5 L127.8,40.5 L129.7,33.8 C130.1,32.4 131.6,31.6 132.9,32 C134.3,32.5 135.1,33.9 134.7,35.3 Z" id="Shape" fill="#2D64E0"></path>
            <path d="M41.3,67.6 C41.2,67.6 41.1,67.6 41,67.6 C39.7,67.6 38.6,66.6 38.4,65.3 L37.7,60 L36.4,50.5 L32.7,22.7 L32.2,19.2 C32.1,18.5 32.3,17.8 32.7,17.3 C33.1,16.8 33.7,16.4 34.4,16.3 C35.8,16.1 37.1,17.1 37.3,18.6 L38,24.2 L43.3,64.6 C43.7,66.1 42.7,67.4 41.3,67.6 Z" id="Shape" fill="#3973F4"></path>
            <path d="M38.2,24.3 L32.7,22.8 L32.2,19.3 C32.1,18.6 32.3,17.9 32.7,17.4 L37.4,18.7 L38.2,24.3 Z" id="Shape" fill="#2D64E0"></path>
            <path d="M11.4,118 L18.6,118 C18.7,117.9 18.8,117.8 18.9,117.7 L28.2,108.4 C29.2,107.4 30.9,107.4 31.9,108.4 C32.9,109.4 32.9,111.1 31.9,112.1 L25.9,118.1 L30.5,118.1 C31.9,118.1 33.1,119.3 33.1,120.7 C33.1,122.1 31.9,123.3 30.5,123.3 L11.4,123.3 C10,123.3 8.8,122.1 8.8,120.7 C8.8,119.2 9.9,118 11.4,118 Z" id="Shape" fill="#3973F4"></path>
            <path d="M146.3,118 L139.1,118 C139,117.9 138.9,117.8 138.8,117.7 L129.5,108.4 C128.5,107.4 126.8,107.4 125.8,108.4 C124.8,109.4 124.8,111.1 125.8,112.1 L131.8,118.1 L127.2,118.1 C125.8,118.1 124.6,119.3 124.6,120.7 C124.6,122.1 125.8,123.3 127.2,123.3 L146.3,123.3 C147.7,123.3 148.9,122.1 148.9,120.7 C148.9,119.2 147.8,118 146.3,118 Z" id="Shape" fill="#3973F4"></path>
            <path d="M73.8,88.1 C73.8,92 73,95.8 71.6,99.2 C67.3,109.7 56.9,117 44.9,117 C28.9,117 16,104.1 16,88.1 C16,87.4 16,86.7 16.1,86 C17.1,71 29.7,59.1 44.9,59.1 C60.8,59.1 73.8,72.1 73.8,88.1 Z" id="Shape" fill="#C5DCFA"></path>
            <path d="M71.5,99.2 C67.2,109.7 56.8,117 44.8,117 C28.8,117 15.9,104.1 15.9,88.1 C15.9,87.4 15.9,86.7 16,86 C19.7,99.8 32.3,110.1 47.3,110.1 C57,110.1 65.6,105.8 71.5,99.2 Z" id="Shape" fill="#BAD8FF"></path>
            <path d="M142.7,88.1 C142.7,102.1 129.7,113.7 115.8,111.7 C115.8,111.7 71.9,103.9 62,102.3 C45.4,99.6 43.4,100.2 39.5,98.1 C35.5,95.9 33.2,91.4 33.6,87.1 C34,82.5 37.5,78 45.3,76.7 C51.1,75.7 56.8,74.8 62.6,73.9 C77.9,71.3 89.4,69.3 104.6,66.7 C112.6,65.3 120,62.8 127.9,66.1 C136.1,69.5 142.2,77.4 142.7,87 C142.7,87 142.7,87 142.7,87 C142.6,87.2 142.7,87.6 142.7,88.1 Z" id="Shape" fill="#4988FD"></path>
            <circle id="Oval" fill="#3973F4" cx="120.7" cy="88.2" r="12.4"></circle>
            <circle id="Oval" fill="#C5DCFA" cx="120.7" cy="88.2" r="5.5"></circle>
            <path d="M142.7,88.1 C142.7,102.1 129.7,113.7 115.8,111.7 C115.8,111.7 71.9,103.9 62,102.3 C45.4,99.6 43.4,100.2 39.5,98.1 C35.5,95.9 33.2,91.4 33.6,87.1 C33.8,86.7 34,86.2 34.2,85.8 C35.2,87.7 36.9,89.4 39,90.4 C42.9,92.4 45,91.8 61.7,94.3 C71.6,95.8 115.9,103.1 115.9,103.1 C128.2,104.8 139.8,96.6 142.5,85.7 C142.6,86.1 142.7,86.5 142.7,86.9 C142.7,86.9 142.7,86.9 142.7,86.9 C142.6,87.2 142.7,87.6 142.7,88.1 Z" id="Shape" fill="#3973F4"></path>
            <path d="M140.9,37.6 L141.6,37.6 C144.6,37.6 147,35.2 147,32.2 C147,29.2 144.6,26.8 141.6,26.8 L126.5,26.8 C120.5,26.8 115.6,31.7 115.6,37.7 L134,37.7" id="Shape" fill="#4988FD"></path>
            <path d="M29.4,18.3 L48.4,23.5 C49.8,23.9 51.2,23.1 51.6,21.7 C52,20.3 51.2,18.9 49.8,18.5 L30.8,13.3 C26.7,12.2 24.3,7.9 25.4,3.8 C25.8,2.4 25,1 23.6,0.6 C22.2,0.2 20.8,1 20.4,2.4 C18.5,9.2 22.5,16.4 29.4,18.3 Z" id="Shape" fill="#C5DCFA"></path>
            <circle id="Oval" fill="#3973F4" cx="45.2" cy="88.2" r="9"></circle>
            <circle id="Oval" fill="#C5DCFA" cx="45.2" cy="88.2" r="4"></circle>
            <path d="M120.8,90.5 C121.3,90.5 121.8,90.4 122.2,90.1 C123.4,89.3 123.7,87.8 122.9,86.6 L115.6,75.6 C115.1,74.9 114.3,74.5 113.5,74.5 L107.6,74.5 C106.2,74.5 105.1,75.6 105.1,77 C105.1,78.4 106.2,79.5 107.6,79.5 L112.2,79.5 L118.8,89.4 C119.2,90.1 120,90.5 120.8,90.5 Z" id="Shape" fill="#FFFFFF"></path>
        </g>
    </g>
</svg>