<?xml version="1.0" encoding="UTF-8"?>
<svg width="129px" height="147px" viewBox="0 0 129 147" version="1.1" xmlns="http://www.w3.org/2000/svg" xmlns:xlink="http://www.w3.org/1999/xlink">
    <!-- Generator: Sketch 51.2 (57519) - http://www.bohemiancoding.com/sketch -->
    <title>Stamp</title>
    <desc>Created with Sketch.</desc>
    <defs></defs>
    <g id="Page-1" stroke="none" stroke-width="1" fill="none" fill-rule="evenodd">
        <g id="Stamp" fill-rule="nonzero">
            <path d="M114.2,146.1 L14.8,146.1 C9.4,146.1 5,141.7 5,136.3 L124,136.3 C124,141.7 119.6,146.1 114.2,146.1 Z" id="Shape" fill="#2767F4"></path>
            <path d="M114.2,146.1 L14.8,146.1 C9.4,146.1 5,141.7 5,136.3 L124,136.3 C124,141.7 119.6,146.1 114.2,146.1 Z" id="Shape" fill="#2767F4"></path>
            <path d="M99.7,51.9 C98.5,54.9 97,57.7 95,60.4 C89.3,68.4 84.6,76.8 83.1,86.6 C82.4,91.1 82.5,95.7 82.2,100.2 C82.1,101.3 82.2,102.3 82.2,103.3 L46.6,103.3 C46.6,99.1 46.8,95.1 46.6,91.1 C45.9,81.3 42.7,72.6 37.3,64.7 C36.4,63.4 35.5,62.2 34.5,60.9 C26.7,51.1 24.9,39.8 28.1,27.9 C32.6,10.8 48.8,-0.5 66.7,0.5 C81.7,1.3 94.6,11.3 99.8,25 C100.6,27.2 101.2,29.5 101.6,31.8 C102.9,39.1 102.2,45.7 99.7,51.9 Z" id="Shape" fill="#DFECFD"></path>
            <path d="M99.7,51.9 C98.5,54.9 97,57.7 95,60.4 C89.3,68.4 84.6,76.8 83.1,86.6 C82.4,91.1 82.5,95.7 82.2,100.2 C82.1,101.3 82.2,102.3 82.2,103.3 L46.6,103.3 C46.6,99.1 46.8,95.1 46.6,91.1 C45.9,81.3 42.7,72.6 37.3,64.7 C60.5,81.3 88.9,68.6 99.7,51.9 Z" id="Shape" fill="#C5DCFA"></path>
            <path d="M83.9,96.9 L45.2,96.9 C38.6,96.9 33.3,102.2 33.3,108.8 L33.3,110.2 L95.8,110.2 L95.8,108.8 C95.7,102.2 90.4,96.9 83.9,96.9 Z" id="Shape" fill="#2767F4"></path>
            <path d="M111.7,109.4 L17.2,109.4 C7.9,109.4 0.3,117 0.3,126.3 L0.3,136.3 L128.500976,136.3 L128.5,126.3 C128.6,117 121,109.4 111.7,109.4 Z" id="Shape" fill="#4988FD"></path>
        </g>
    </g>
</svg>