<?xml version="1.0" encoding="UTF-8"?>
<svg width="149px" height="127px" viewBox="0 0 149 127" version="1.1" xmlns="http://www.w3.org/2000/svg" xmlns:xlink="http://www.w3.org/1999/xlink">
    <!-- Generator: Sketch 51.2 (57519) - http://www.bohemiancoding.com/sketch -->
    <title>Stocks</title>
    <desc>Created with Sketch.</desc>
    <defs></defs>
    <g id="Page-1" stroke="none" stroke-width="1" fill="none" fill-rule="evenodd">
        <g id="Stocks" fill-rule="nonzero">
            <path d="M101.6,46.2 C100.2,46.2 98.8,45.4 98.1,44.1 C97.1,42.2 97.9,39.8 99.8,38.9 L115.5,30.9 C117.4,29.9 119.8,30.7 120.7,32.6 C121.7,34.5 120.9,36.9 119,37.8 L103.3,45.8 C102.8,46.1 102.2,46.2 101.6,46.2 Z" id="Shape" fill="#6097FD"></path>
            <path d="M84,43.7 C83,43.7 82.1,43.3 81.3,42.6 L63.2,25.3 C61.6,23.8 61.6,21.4 63.1,19.8 C64.6,18.2 67,18.2 68.6,19.7 L86.7,37 C88.3,38.5 88.3,40.9 86.8,42.5 C86.1,43.3 85,43.7 84,43.7 Z" id="Shape" fill="#6097FD"></path>
            <path d="M29.2,46.9 C28.2,46.9 27.2,46.5 26.5,45.8 C25,44.3 24.9,41.8 26.4,40.3 L46.9,19.4 C48.4,17.9 50.9,17.8 52.4,19.3 C53.9,20.8 54,23.3 52.5,24.8 L32,45.7 C31.2,46.5 30.2,46.9 29.2,46.9 Z" id="Shape" fill="#6097FD"></path>
            <path d="M21.7,64.9 C13.7,64.9 7.3,58.4 7.3,50.5 C7.3,42.5 13.8,36.1 21.7,36.1 C29.7,36.1 36.1,42.6 36.1,50.5 C36.1,58.4 29.6,64.9 21.7,64.9 Z M21.7,43.8 C18,43.8 15.1,46.8 15.1,50.4 C15.1,54.1 18.1,57 21.7,57 C25.4,57 28.3,54 28.3,50.4 C28.3,46.8 25.4,43.8 21.7,43.8 Z" id="Shape" fill="#21D3AC"></path>
            <path d="M57.5,29.6 C49.5,29.6 43.1,23.1 43.1,15.2 C43.1,7.2 49.6,0.8 57.5,0.8 C65.5,0.8 71.9,7.3 71.9,15.2 C71.9,23.1 65.5,29.6 57.5,29.6 Z M57.5,8.5 C53.8,8.5 50.9,11.5 50.9,15.1 C50.9,18.8 53.9,21.7 57.5,21.7 C61.2,21.7 64.1,18.7 64.1,15.1 C64.2,11.5 61.2,8.5 57.5,8.5 Z" id="Shape" fill="#21D3AC"></path>
            <path d="M92,61.1 C84,61.1 77.6,54.6 77.6,46.7 C77.6,38.7 84.1,32.3 92,32.3 C99.9,32.3 106.4,38.8 106.4,46.7 C106.4,54.6 100,61.1 92,61.1 Z M92,40 C88.3,40 85.4,43 85.4,46.6 C85.4,50.3 88.4,53.2 92,53.2 C95.7,53.2 98.6,50.2 98.6,46.6 C98.7,43 95.7,40 92,40 Z" id="Shape" fill="#21D3AC"></path>
            <path d="M126.7,43.8 C118.7,43.8 112.3,37.3 112.3,29.4 C112.3,21.4 118.8,15 126.7,15 C134.7,15 141.1,21.5 141.1,29.4 C141.1,37.4 134.6,43.8 126.7,43.8 Z M126.7,22.8 C123,22.8 120.1,25.8 120.1,29.4 C120.1,33.1 123.1,36 126.7,36 C130.4,36 133.3,33 133.3,29.4 C133.3,25.8 130.3,22.8 126.7,22.8 Z" id="Shape" fill="#21D3AC"></path>
            <path d="M31.2,86.4 L31.2,123.6 L12.3,123.6 L12.3,86.4 C12.3,85.4 13.1,84.7 14,84.7 L29.4,84.7 C30.5,84.7 31.2,85.4 31.2,86.4 Z" id="Shape" fill="#4988FD"></path>
            <path d="M66.2,51.4 L66.2,123.6 L47.3,123.6 L47.3,51.4 C47.3,50.2 48.3,49.1 49.6,49.1 L64,49.1 C65.2,49.2 66.2,50.2 66.2,51.4 Z" id="Shape" fill="#4988FD"></path>
            <path d="M101.2,80.4 L101.2,123.6 L82.3,123.6 L82.3,80.4 C82.3,79.4 83.1,78.6 84.1,78.6 L99.3,78.6 C100.4,78.6 101.2,79.4 101.2,80.4 Z" id="Shape" fill="#4988FD"></path>
            <path d="M136.2,66.3 L136.2,123.6 L117.3,123.6 L117.3,66.3 C117.3,65.2 118.2,64.3 119.3,64.3 L134.1,64.3 C135.3,64.3 136.2,65.2 136.2,66.3 Z" id="Shape" fill="#4988FD"></path>
            <path d="M145.4,127 L3.5,127 C1.6,127 0.1,125.5 0.1,123.6 C0.1,121.7 1.6,120.2 3.5,120.2 L145.4,120.2 C147.3,120.2 148.8,121.7 148.8,123.6 C148.8,125.5 147.3,127 145.4,127 Z" id="Shape" fill="#4988FD"></path>
        </g>
    </g>
</svg>