<?xml version="1.0" encoding="UTF-8"?>
<svg width="108px" height="143px" viewBox="0 0 108 143" version="1.1" xmlns="http://www.w3.org/2000/svg" xmlns:xlink="http://www.w3.org/1999/xlink">
    <!-- Generator: Sketch 51.2 (57519) - http://www.bohemiancoding.com/sketch -->
    <title>Stopwatch</title>
    <desc>Created with Sketch.</desc>
    <defs></defs>
    <g id="Page-1" stroke="none" stroke-width="1" fill="none" fill-rule="evenodd">
        <g id="Stopwatch" fill-rule="nonzero">
            <path d="M53.7,36.1 C44,36.1 36.1,28.2 36.1,18.5 C36.1,8.8 44,0.9 53.7,0.9 C63.4,0.9 71.3,8.8 71.3,18.5 C71.4,28.2 63.4,36.1 53.7,36.1 Z M53.7,5.9 C46.7,5.9 41.1,11.6 41.1,18.5 C41.1,25.5 46.8,31.1 53.7,31.1 C60.6,31.1 66.3,25.4 66.3,18.5 C66.4,11.5 60.7,5.9 53.7,5.9 Z" id="Shape" fill="#BAD8FF"></path>
            <path d="M54,78.9 C48.7,78.9 44.5,83.2 44.5,88.4 C44.5,93.7 48.8,97.9 54,97.9 C59.2,97.9 63.5,93.6 63.5,88.4 C63.5,83.2 59.3,78.9 54,78.9 Z M54,91.4 C52.4,91.4 51,90.1 51,88.4 C51,86.8 52.3,85.5 54,85.5 C55.6,85.5 57,86.8 57,88.4 C57,90.1 55.6,91.4 54,91.4 Z" id="Shape" fill="#4988FD"></path>
            <path d="M59.3,85.6 C58.5,85.6 57.8,85.4 57.1,84.8 C55.6,83.6 55.3,81.4 56.5,79.9 L67,66.6 C68.2,65.1 70.4,64.8 71.9,66 C73.4,67.2 73.7,69.4 72.5,70.9 L62,84.2 C61.3,85.1 60.3,85.6 59.3,85.6 Z" id="Shape" fill="#4988FD"></path>
            <path d="M20.6,47.8 L15.3,38.7 C14.3,37 14.9,34.7 16.6,33.7 L21.4,30.9 C23.1,29.9 25.4,30.5 26.4,32.2 L31.7,41.3 L20.6,47.8 Z" id="Shape" fill="#3973F4"></path>
            <path d="M54,142.2 C24.3,142.2 0.2,118.1 0.2,88.4 C0.2,60.8 21.1,38 47.8,35 L47.8,31.5 C47.8,28.1 50.5,25.4 53.9,25.4 C57.3,25.4 60,28.1 60,31.5 L60,40.8 C60,44.2 57.3,46.9 53.9,46.9 C53.7,46.9 53.6,46.9 53.4,46.9 C30.7,47.2 12.4,65.7 12.4,88.4 C12.4,111.3 31,129.9 53.9,129.9 C76.8,129.9 95.4,111.3 95.4,88.4 C95.4,76.3 90.2,64.9 81,57 C78.4,54.8 78.2,50.9 80.4,48.3 C82.6,45.7 86.5,45.5 89.1,47.7 C100.9,57.9 107.7,72.8 107.7,88.4 C107.8,118.1 83.7,142.2 54,142.2 Z" id="Shape" fill="#FFFFFF"></path>
            <path d="M107.8,88.4 C107.8,118.1 83.7,142.2 54,142.2 C24.4,142.2 0.2,118.1 0.2,88.4 C0.2,87.9 0.2,87.3 0.2,86.8 C1,59.9 21.6,38 47.8,35 L47.8,31.5 C47.8,28.1 50.5,25.4 53.9,25.4 C55.2,25.4 56.4,25.8 57.4,26.5 C59,27.6 60,29.4 60,31.5 L60,40.8 C60,44.2 57.3,46.9 53.9,46.9 C53.7,46.9 53.6,46.9 53.4,46.9 C30.7,47.2 12.4,65.7 12.4,88.4 C12.4,89.1 12.4,89.9 12.5,90.6 C12.5,90.6 12.5,90.6 12.5,90.6 C13.7,112.4 31.8,129.9 53.9,129.9 C76.8,129.9 95.4,111.3 95.4,88.4 C95.4,77.7 91.3,67.6 84,59.9 C83.1,58.9 82,57.9 81,57 C80.3,56.4 79.8,55.7 79.4,54.9 C78.4,52.8 78.7,50.2 80.3,48.3 C82.5,45.7 86.4,45.5 89,47.7 C89.2,47.9 89.4,48.1 89.7,48.3 C101.3,58.5 107.8,73.1 107.8,88.4 Z" id="Shape" fill="#3973F4"></path>
            <path d="M104.4,84.5 C104.4,113.2 81,136.6 52.3,136.6 C24.3,136.6 1.5,114.5 0.2,86.8 C1,59.9 21.6,38 47.8,35 L47.8,31.5 C47.8,28.1 50.5,25.4 53.9,25.4 C55.2,25.4 56.4,25.8 57.4,26.5 C57.9,27.3 58.1,28.3 58.1,29.3 L58.1,38.3 C58.1,41.6 55.4,44.3 52.2,44.3 C52,44.3 51.9,44.3 51.7,44.3 C29.7,44.6 12,62.5 12,84.5 C12,86.6 12.2,88.6 12.5,90.6 C12.5,90.6 12.5,90.6 12.5,90.6 C13.7,112.4 31.8,129.9 53.9,129.9 C76.8,129.9 95.4,111.3 95.4,88.4 C95.4,77.7 91.3,67.6 84,59.9 C82.6,58.1 81.1,56.5 79.4,54.9 C78.4,52.8 78.7,50.2 80.3,48.3 C82.5,45.7 86.4,45.5 89,47.7 C89.2,47.9 89.4,48.1 89.7,48.3 C99.2,58 104.4,70.9 104.4,84.5 Z" id="Shape" fill="#4988FD"></path>
            <circle id="Oval" fill="#4988FD" cx="70.9" cy="42" r="6.4"></circle>
            <path d="M53.4,59.8 C52,59.8 50.9,58.7 50.9,57.3 L50.9,53.7 C50.9,52.3 52,51.2 53.4,51.2 C54.8,51.2 55.9,52.3 55.9,53.7 L55.9,57.3 C55.9,58.7 54.8,59.8 53.4,59.8 Z" id="Shape" fill="#4988FD"></path>
            <path d="M53.4,124.4 C52,124.4 50.9,123.3 50.9,121.9 L50.9,118.3 C50.9,116.9 52,115.8 53.4,115.8 C54.8,115.8 55.9,116.9 55.9,118.3 L55.9,121.9 C55.9,123.3 54.8,124.4 53.4,124.4 Z" id="Shape" fill="#4988FD"></path>
            <path d="M22.9,90.3 L19.3,90.3 C17.9,90.3 16.8,89.2 16.8,87.8 C16.8,86.4 17.9,85.3 19.3,85.3 L22.9,85.3 C24.3,85.3 25.4,86.4 25.4,87.8 C25.4,89.2 24.3,90.3 22.9,90.3 Z" id="Shape" fill="#4988FD"></path>
            <path d="M87.5,90.3 L83.9,90.3 C82.5,90.3 81.4,89.2 81.4,87.8 C81.4,86.4 82.5,85.3 83.9,85.3 L87.5,85.3 C88.9,85.3 90,86.4 90,87.8 C90,89.2 88.9,90.3 87.5,90.3 Z" id="Shape" fill="#4988FD"></path>
        </g>
    </g>
</svg>