<?xml version="1.0" encoding="UTF-8"?>
<svg width="140px" height="113px" viewBox="0 0 140 113" version="1.1" xmlns="http://www.w3.org/2000/svg" xmlns:xlink="http://www.w3.org/1999/xlink">
    <!-- Generator: Sketch 51.2 (57519) - http://www.bohemiancoding.com/sketch -->
    <title>Store</title>
    <desc>Created with Sketch.</desc>
    <defs></defs>
    <g id="Page-1" stroke="none" stroke-width="1" fill="none" fill-rule="evenodd">
        <g id="Store" fill-rule="nonzero">
            <path d="M138.4,112.8 L1.5,112.8 C0.7,112.8 0,112.1 0,111.3 C0,110.5 0.7,109.8 1.5,109.8 L138.4,109.8 C139.2,109.8 139.9,110.5 139.9,111.3 C139.9,112.1 139.3,112.8 138.4,112.8 Z" id="Shape" fill="#DFECFD"></path>
            <rect id="Rectangle-path" fill="#FFFFFF" x="11.1" y="23.4" width="116.3" height="88.1"></rect>
            <rect id="Rectangle-path" fill="#4988FD" x="11.1" y="23.4" width="116.3" height="88.1"></rect>
            <path d="M127.5,23.4 L127.5,50.6 C125.3,52.4 122.6,53.5 119.6,53.5 C112.7,53.5 107.1,47.1 107.1,40 C107.1,40.3 107.1,39.9 107.1,39.9 C107.1,39.9 107.1,40 107.1,40.1 C107.1,40.1 107.1,40 107.1,40 C107.1,47.1 101.4,53.5 94.5,53.5 C87.6,53.5 81.9,47.8 81.9,40.7 C81.9,47.8 76.3,53.5 69.3,53.5 C62.9,53.5 57.8,48.1 57,41.8 C56.9,41.2 56.9,40.6 56.9,40 C56.9,40 56.9,40.1 56.9,40.1 C56.9,40 56.9,39.9 56.9,39.9 C56.9,39.9 56.9,40.1 56.9,40.1 C56.9,40.1 56.9,40.1 56.9,40 C56.9,47.1 51.1,53.5 44.2,53.5 C37.3,53.5 31.6,47.8 31.6,40.7 C31.6,41 31.6,41.3 31.6,41.5 C31.2,48.2 25.7,53.5 19.1,53.5 C16.1,53.5 13.4,52.4 11.2,50.6 L11.2,23.4 L127.5,23.4 Z" id="Shape" fill="#3973F4"></path>
            <path d="M132.1,32.4 C132.1,32.8 132.1,33.2 132.1,33.6 C132.1,40.7 126.5,46.4 119.5,46.4 C112.5,46.4 107,40 107,32.9 C107,33.2 107,32.8 107,32.8 C107,32.8 107,32.9 107,33 C107,33 107,32.9 107,32.9 C107,40 101.3,46.4 94.4,46.4 C87.5,46.4 81.8,40.7 81.8,33.6 C81.8,40.7 76.2,46.4 69.2,46.4 C62.8,46.4 57.7,41 56.9,34.7 C56.8,34.1 56.8,33.5 56.8,32.9 C56.8,32.9 56.8,33 56.8,33 C56.8,32.9 56.8,32.8 56.8,32.8 C56.8,32.8 56.8,33 56.8,33 C56.8,33 56.8,33 56.8,32.9 C56.8,40 51,46.4 44.1,46.4 C37.2,46.4 31.5,40.7 31.5,33.6 C31.5,33.9 31.5,34.2 31.5,34.4 C31.1,41.1 25.6,46.4 19,46.4 C12.1,46.4 6.4,40.7 6.4,33.6 C6.4,33.2 6.4,32.8 6.5,32.4 L6.4,32.4 L6.4,18.5 C6.4,17.2 6.9,15.9 7.7,14.9 L20.3,0.2 L118,0.2 L130.6,14.9 C131.5,15.9 131.9,17.2 131.9,18.5 L131.9,32.4 L132.1,32.4 Z" id="Shape" fill="#DFECFD"></path>
            <path d="M57.1,15.7 C56.9,16.3 56.8,16.8 56.8,17.4 L56.9,34.7 C56.8,34.1 56.8,33.5 56.8,32.9 C56.8,40 51,46.4 44.1,46.4 C37.2,46.4 31.5,40.7 31.5,33.6 C31.5,33.9 31.5,34.2 31.5,34.4 L31.6,18.4 C31.6,17.5 31.9,16.5 32.3,15.7 L39.6,2.7 L41.3,0.1 L62,0.1 L57.1,15.7 Z" id="Shape" fill="#6097FD"></path>
            <path d="M81.4,15.6 C81.6,16.1 81.7,16.7 81.7,17.3 L81.7,30.7 C81.7,31 81.7,33.4 81.7,32.8 C81.7,39.9 86.8,46.3 94.4,46.3 C101.3,46.3 107,40.6 107,33.5 C107,33.8 107,34.1 107,34.3 L106.9,18.3 C106.9,17.4 106.6,16.4 106.2,15.6 L98.9,2.6 L97.2,0 L76.5,0 L81.4,15.6 Z" id="Shape" fill="#6097FD"></path>
            <path d="M22.7,98.1 L22.7,56.8 C22.7,56.2 23.2,55.7 23.8,55.7 L61.2,55.7 C61.8,55.7 62.3,56.2 62.3,56.8 L62.3,111.6 L22.7,111.6" id="Shape" fill="#3973F4"></path>
            <path d="M112.5,88.3 L77.2,88.3 C76.7,88.3 76.2,87.9 76.2,87.3 L76.2,56.7 C76.2,56.2 76.6,55.7 77.2,55.7 L112.5,55.7 C113,55.7 113.5,56.1 113.5,56.7 L113.5,87.3 C113.5,87.8 113.1,88.3 112.5,88.3 Z" id="Shape" fill="#DFECFD"></path>
            <rect id="Rectangle-path" fill="#DFECFD" x="28.4" y="62" width="27.9" height="43.9"></rect>
            <g id="Group" transform="translate(34.000000, 60.000000)" fill="#FFFFFF">
                <path d="M60,3.6 C59.2,2.8 58,2.8 57.2,3.6 C56.4,4.4 56.4,5.6 57.2,6.4 L68.8,18 C69.2,18.4 69.7,18.6 70.2,18.6 C70.7,18.6 71.2,18.4 71.6,18 C72.4,17.2 72.4,16 71.6,15.2 L60,3.6 Z" id="Shape"></path>
                <path d="M73.9,5.9 L69.2,1.2 C68.4,0.4 67.2,0.4 66.4,1.2 C65.6,2 65.6,3.2 66.4,4 L71.1,8.7 C71.5,9.1 72,9.3 72.5,9.3 C73,9.3 73.5,9.1 73.9,8.7 C74.7,7.9 74.7,6.7 73.9,5.9 Z" id="Shape"></path>
                <path d="M3.8,10.7 C3,9.9 1.8,9.9 1,10.7 C0.2,11.5 0.2,12.7 1,13.5 L12.6,25.1 C13,25.5 13.5,25.7 14,25.7 C14.5,25.7 15,25.5 15.4,25.1 C16.2,24.3 16.2,23.1 15.4,22.3 L3.8,10.7 Z" id="Shape"></path>
                <path d="M13.1,8.4 C12.3,7.6 11.1,7.6 10.3,8.4 C9.5,9.2 9.5,10.4 10.3,11.2 L15,15.9 C15.4,16.3 15.9,16.5 16.4,16.5 C16.9,16.5 17.4,16.3 17.8,15.9 C18.6,15.1 18.6,13.9 17.8,13.1 L13.1,8.4 Z" id="Shape"></path>
            </g>
        </g>
    </g>
</svg>