<?xml version="1.0" encoding="UTF-8"?>
<svg width="131px" height="143px" viewBox="0 0 131 143" version="1.1" xmlns="http://www.w3.org/2000/svg" xmlns:xlink="http://www.w3.org/1999/xlink">
    <!-- Generator: Sketch 51.2 (57519) - http://www.bohemiancoding.com/sketch -->
    <title>Strength_2</title>
    <desc>Created with Sketch.</desc>
    <defs></defs>
    <g id="Page-1" stroke="none" stroke-width="1" fill="none" fill-rule="evenodd">
        <g id="Strength_2" fill-rule="nonzero">
            <path d="M85.9,39.8 C81.3,46.2 73.8,50.5 65.4,50.5 C51.5,50.5 40.3,39.2 40.3,25.4 C40.3,11.5 51.6,0.3 65.4,0.3 C75,0.3 83.6,5.6 87.9,14.2 C88.3,15 88.6,15.8 89,16.6 C89.1,17 89.3,17.4 89.4,17.7 L85.9,39.8 Z M65.4,10 C57,10 50.1,16.9 50.1,25.3 C50.1,33.7 57,40.6 65.4,40.6 C73.8,40.6 80.7,33.7 80.7,25.3 C80.7,23.4 80.4,21.6 79.7,19.9 C79.5,19.4 79.3,18.9 79.1,18.4 C76.5,13.2 71.2,10 65.4,10 Z" id="Shape" fill="#4988FD"></path>
            <polyline id="Shape" fill="#4988FD" points="89 16.4 102.2 59.1 94.3 66.7 80 20.6"></polyline>
            <polyline id="Shape" fill="#4988FD" points="50.1 22.9 38.2 61.3 28.9 58.2 41.4 17.8"></polyline>
            <path d="M22.8,141.2 C22.4,142.5 21.1,143.3 19.8,142.9 C14,141.3 8.3,139.7 2.6,138.2 C2.6,138.2 2.6,138.2 2.6,138.2 C0.7,137.7 0.2,135 1.9,133.9 C2.2,133.7 2.6,133.5 3.1,133.3 C11.2,129.9 13.6,120.6 8.4,113.5 C6.5,110.8 7.3,107.6 10.3,106.3 C18.7,102.7 21.1,93.7 15.7,86.2 C13.9,83.8 15,80.4 17.8,79.3 C25.8,76.1 28.5,66.3 23.4,59.3 C23.2,59 23,58.7 22.9,58.3 C22.3,56.5 24,54.7 25.9,55.2 C31.8,56.8 37.2,58.3 42.7,59.8 C44,60.2 44.8,61.5 44.4,62.8 C37.2,88.9 30,115 22.8,141.2 Z" id="Shape" fill="#3973F4"></path>
            <path d="M108.6,141.2 C109,142.5 110.3,143.3 111.6,142.9 C117.4,141.3 123.1,139.7 128.8,138.2 C128.8,138.2 128.8,138.2 128.8,138.2 C130.7,137.7 131.2,135 129.5,133.9 C129.2,133.7 128.8,133.5 128.3,133.3 C120.2,129.9 117.8,120.6 123,113.5 C124.9,110.8 124.1,107.6 121.1,106.3 C112.7,102.7 110.3,93.7 115.7,86.2 C117.5,83.8 116.4,80.4 113.6,79.3 C105.6,76.1 102.9,66.3 108,59.3 C108.2,59 108.4,58.7 108.5,58.3 C109.1,56.5 107.4,54.7 105.5,55.2 C99.6,56.8 94.2,58.3 88.7,59.8 C87.4,60.2 86.6,61.5 87,62.8 C94.3,88.9 101.4,115 108.6,141.2 Z" id="Shape" fill="#3973F4"></path>
        </g>
    </g>
</svg>