<?xml version="1.0" encoding="UTF-8"?>
<svg width="147px" height="142px" viewBox="0 0 147 142" version="1.1" xmlns="http://www.w3.org/2000/svg" xmlns:xlink="http://www.w3.org/1999/xlink">
    <!-- Generator: Sketch 51.2 (57519) - http://www.bohemiancoding.com/sketch -->
    <title>Strength</title>
    <desc>Created with Sketch.</desc>
    <defs></defs>
    <g id="Page-1" stroke="none" stroke-width="1" fill="none" fill-rule="evenodd">
        <g id="Strength" fill-rule="nonzero">
            <path d="M146.9,81.4 L146.9,81.7 C146.4,138.6 146.5,132.6 146.4,136.5 L146.4,137.2 C146.4,138 145.9,138.6 144.7,138.8 C144.5,138.8 143.7,138.9 143.6,139 C143.6,139 143.5,139 143.5,139.1 L114.3,141.2 C111.5,141.4 108.7,140.1 107.1,137.7 L100.5,128 C100,127.3 99,127.1 98.3,127.6 C77.6,143.3 45.2,138.3 33.4,133.6 C22.3,129.6 4.8,119.7 3.8,118.7 C0.8,116.9 9.08162434e-13,112.9 0.5,109.5 C0.9,106.4 3,109.1 3.8,100.7 C7.6,63 30.9,21.7 54.9,3.6 C65.2,-4.2 100,5.5 98.7,13.9 C97,24.4 83.6,34.4 77.4,35.9 C73.6,36.8 66.5,30 66,26 C65.9,25.3 66,25.3 65.8,24.7 C65.6,23.7 64.6,23.2 63.7,23.6 C61.2,24.7 58.1,26.2 57.1,29.4 C56.6,31 56.5,32.7 56.3,34.4 C52.7,59.5 50.9,65.9 50.9,75 L51.1,75 C59.6,68.2 77.3,67.3 86.8,72.5 C89.6,74 92.2,76.1 94.6,78.4 C94.7,78.3 94.8,78.1 94.9,77.8 C95.1,77.5 95.3,77.3 95.6,77.1 L96.1,76.8 L95.8,76.8 C110.5,58.5 138.7,63.3 146.9,81.4 Z" id="Shape" fill="#4988FD"></path>
            <path d="M146.5,136.5 C146.5,139.2 145,138.5 143.7,138.9 C143.7,138.9 143.6,138.9 143.6,138.9 C143.6,138.9 143.6,138.9 143.5,138.9 L113.4,141 C111.1,141.2 108.9,140.1 107.6,138.2 C105.6,135.2 101.5,129.3 99.6,126.5 C83.7,138.7 63,140.2 43.4,136.3 C26.8,132.8 4.8,119.6 3.8,118.6 C1.8,117.4 3.4,114.4 5.6,115.3 C19.8,121.1 39.5,125.9 52,126.5 C68.4,127.3 82.1,119.9 94.6,113.6 C100.1,110.9 105,112.4 108.4,117.5 C108.4,117.5 116.5,128.9 124.1,131.8 C131.2,134.5 141.4,136.5 141.4,136.5 C143.9,136.4 145.4,136.4 146.5,136.5 Z" id="Shape" fill="#3973F4"></path>
            <path d="M64.8,113.8 C61.4,113.8 58.1,113.3 55.2,112.2 C52,111 50.1,110.3 47.6,108.1 C46.7,107.4 45.8,106.6 45,105.6 C44.1,104.6 44.2,103 45.2,102.1 C46.2,101.2 47.8,101.3 48.7,102.3 C49.3,103 50.1,103.7 50.8,104.3 C52.6,105.9 54,106.4 56.8,107.5 C64.2,110.2 75.1,108.4 82.6,103.2 C83.7,102.4 85.3,102.7 86.1,103.8 C86.9,104.9 86.6,106.5 85.5,107.3 C79.6,111.5 71.9,113.8 64.8,113.8 Z" id="Shape" fill="#3973F4"></path>
            <path d="M146.9,87.4 L146.9,81.7 L146.9,87.4 Z" id="Shape" fill="#4374B9"></path>
        </g>
    </g>
</svg>