<?xml version="1.0" encoding="UTF-8"?>
<svg width="122px" height="149px" viewBox="0 0 122 149" version="1.1" xmlns="http://www.w3.org/2000/svg" xmlns:xlink="http://www.w3.org/1999/xlink">
    <!-- Generator: Sketch 51.2 (57519) - http://www.bohemiancoding.com/sketch -->
    <title>Support_Female</title>
    <desc>Created with Sketch.</desc>
    <defs>
        <linearGradient x1="20.67%" y1="17.4%" x2="20.67%" y2="5.73%" id="linearGradient-1">
            <stop stop-color="#4988FD" offset="0%"></stop>
            <stop stop-color="#3973F4" offset="100%"></stop>
        </linearGradient>
    </defs>
    <g id="Page-1" stroke="none" stroke-width="1" fill="none" fill-rule="evenodd">
        <g id="Support_Female" fill-rule="nonzero">
            <g id="Group">
                <g id="Shape">
                    <path d="M52.4,114.3 C52.2,114.1 52.1,114 51.9,113.8 C51,112.9 50.1,112.2 49.3,111.6 C47.9,110.7 46.5,109.8 45.1,108.9 C44.6,108.6 44.1,108.3 43.7,108 C39.3,105.3 35.1,102.4 35,99.4 C34.9,97.5 36.3,95.3 39.3,92.9 C40.5,94.6 42,96.2 43.7,97.9 C45,99.1 46.4,100.3 48.1,101.4 C49.1,102.1 50.1,102.8 51,103.5 C51.2,103.7 51.4,103.8 51.6,104 C51.9,104.2 52.2,104.4 52.5,104.6 M52.4,104.6 C52.1,104.4 51.8,104.2 51.5,104 C59.7,108.1 70,110.4 84.6,101.7 C84.6,101.7 84.6,101.7 84.6,101.7 C94.5,93.5 102.7,83.9 105.1,71.4 C111.3,70 115.3,64.3 114.7,58 C114.4,55.1 112.7,52.7 112.6,49.8 C112.6,48.4 112.6,47 112.5,45.6 C112.5,44.7 112.4,43.7 112.4,42.8 C112.3,41.8 112.3,40.9 112.1,39.9 C111.5,35.2 110.2,30.3 107.2,24.6 C99.3,9.8 83.8,0 66.3,0 C62.8,0 59.2,0.4 55.8,1.2 C49.6,2.6 43.7,5.4 38.6,9.2 C37.6,10 36.6,10.8 35.6,11.6 C35.4,11.8 35.1,12 34.9,12.2 C29.3,17.4 25.1,23.9 22.7,31.1 C20.3,38.4 19.8,45.9 20.7,53.4 C20.7,53.6 20.7,53.7 20.8,53.9 C20.8,54.1 20.8,54.3 20.9,54.5 C21.1,55.8 21.5,55.6 20.6,56.8 C20.3,57.2 20,57.6 19.7,58.1 C18.5,60.2 17.6,63.2 18.8,66.7 C21.1,73.3 25.9,72.5 30.2,76.2 C29.9,76.4 29.7,76.5 29.5,76.7 L29.3,76.8 L24.4,78.3 C-2.3,86.7 -7.4,113.3 14.5,122.4 L43.5,108.1 C44,108.4 44.5,108.7 44.9,109 C46.3,109.9 47.8,110.8 49.1,111.7 C49.9,112.2 50.8,113 51.7,113.9 C51.9,114 52,114.2 52.2,114.4" fill="#4988FD"></path>
                    <path d="M84.6,101.7 C84.5,101.8 84.4,101.9 84.3,102 C84.3,102 84.3,102 84.3,102 C84.5,101.9 84.6,101.8 84.6,101.7 Z" fill="url(#linearGradient-1)"></path>
                </g>
                <path d="M112.5,42.8 C104,45.7 94.9,46.9 85.9,46.2 C71.7,45.1 57.9,39.3 47.2,29.9 C43.7,40.2 34.7,47.9 24.8,52.3 C23.5,52.9 22.1,53.4 20.7,54 C20.7,53.8 20.7,53.7 20.6,53.5 C19.7,46 20.2,38.4 22.6,31.2 C25,24 29.2,17.4 34.8,12.3 C35,12.1 35.3,11.9 35.5,11.7 C36.5,10.9 37.5,10 38.5,9.3 C43.6,5.5 49.5,2.8 55.7,1.3 C59.1,0.5 62.7,0.1 66.2,0.1 C83.8,0.1 99.3,9.9 107.1,24.7 C110.1,30.4 111.4,35.3 112,40 C112.4,40.8 112.4,41.8 112.5,42.8 Z" id="Shape" fill="#3973F4"></path>
                <path d="M39.7,93.8 C41,95.3 42.2,96.7 43.5,97.9 C43.5,97.9 43.5,97.9 43.5,98 C42.1,96.5 40.8,95.1 39.7,93.8 Z" id="Shape" fill="#3973F4"></path>
                <path d="M58.3,143.4 C54.5,148.1 47.6,148.3 41.5,148.2 C47.8,142.1 44.2,122.1 22.3,124.6 L22.1,124.6 C-8.1,118.9 -4.8,87.5 24.6,78.3 L29.5,76.8 C29.8,77 30.1,77.3 30.4,77.5 C32.7,83.6 35.9,88.8 39.3,92.9 C27.3,103 44,106.1 52.1,113.7 C59,117.8 64.8,135.2 58.3,143.4 Z" id="Shape" fill="#3973F4"></path>
                <path d="M39.6,93.6 C39.4,93.4 39.3,93.2 39.1,93 C39.3,93.2 39.4,93.4 39.6,93.6 Z" id="Shape" fill="#3973F4"></path>
            </g>
            <path d="M113.5,74.5 L107.6,74.5 L107.6,44 L113.5,44 C118.1,44 121.8,47.7 121.8,52.3 L121.8,66.3 C121.8,70.8 118,74.5 113.5,74.5 Z" id="Shape" fill="#DFECFD"></path>
            <path d="M103.7,89.9 L67.5,89.9 C66.1,89.9 65,88.8 65,87.4 C65,86 66.1,84.9 67.5,84.9 L103.7,84.9 C107.1,84.9 109.8,82.2 109.8,78.8 L109.8,74.5 C109.8,73.1 110.9,72 112.3,72 C113.7,72 114.8,73.1 114.8,74.5 L114.8,78.8 C114.8,85 109.8,89.9 103.7,89.9 Z" id="Shape" fill="#C5DCFA"></path>
            <path d="M72.2,90.9 L64.6,90.9 C63.1,90.9 62,89.7 62,88.3 L62,86.6 C62,85.1 63.2,84 64.6,84 L72.2,84 C73.7,84 74.8,85.2 74.8,86.6 L74.8,88.3 C74.8,89.7 73.7,90.9 72.2,90.9 Z" id="Shape" fill="#DFECFD"></path>
        </g>
    </g>
</svg>