<?xml version="1.0" encoding="UTF-8"?>
<svg width="117px" height="149px" viewBox="0 0 117 149" version="1.1" xmlns="http://www.w3.org/2000/svg" xmlns:xlink="http://www.w3.org/1999/xlink">
    <!-- Generator: Sketch 51.2 (57519) - http://www.bohemiancoding.com/sketch -->
    <title>Support_Male</title>
    <desc>Created with Sketch.</desc>
    <defs></defs>
    <g id="Page-1" stroke="none" stroke-width="1" fill="none" fill-rule="evenodd">
        <g id="Support_Male" fill-rule="nonzero">
            <g id="Group">
                <path d="M20.5,125 C19.5,123.5 15.4,118.9 14.5,110.4 L12,109.2 C4.5,111 5,103 3.1,87.6 C2.3,81.1 3.3,79.9 6.1,78.9 C6.1,78.9 8.5,75.7 8.5,75.7 C-6,42.9 1.3,22.3 15.6,15.1 C10.8,4.7 10.6,1 10.6,1 C10.6,1 41.1,6.1 51.6,4 C64.9,1.4 85.4,4.5 93,22.2 C105.6,27.2 110.6,35.2 111.7,43.8 C113.5,57.6 105.7,72.7 104.2,78.6 C104.3,78.9 104.5,79.1 104.6,79.3 C106.6,80.3 107.2,82 106.6,87.6 C104.8,102.3 105.2,111.3 97.7,109.2 C88,126.6 93.6,119.8 66.8,145.1 C61.3,149.5 53.5,149.3 48.2,144.8 C29.7,131.9 22.2,127.7 20.5,125" id="Shape" fill="#4988FD"></path>
                <path d="M104.2,78.5 C104.8,74.9 103.2,70.2 101.8,67 C101.6,66.5 101.3,65.9 101.1,65.4 C95.3,53.7 82.2,48.8 69.9,48.2 C38.2,46.5 35.2,52.6 25.4,43.5 C28.4,48.1 28.8,55.4 24,64.5 C20.7,70.9 14.3,73.7 8.6,75.6 C-5.9,42.8 1.4,22.2 15.7,15 C10.9,4.6 10.7,0.9 10.7,0.9 C10.7,0.9 41.2,6 51.7,3.9 C65,1.3 85.5,4.4 93.1,22.1 C105.7,27.1 110.7,35.1 111.8,43.7 C113.5,57.4 105.7,72.5 104.2,78.5 Z" id="Shape" fill="#3973F4"></path>
            </g>
            <path d="M108,110.5 L97.7,110.5 L97.7,70.5 L108,70.5 C112.6,70.5 116.3,74.2 116.3,78.8 L116.3,102.2 C116.3,106.8 112.6,110.5 108,110.5 Z" id="Shape" fill="#DFECFD"></path>
            <path d="M92.7,129.1 L56.3,129.1 C54.5,129.1 53.1,127.7 53.1,125.9 C53.1,124.1 54.5,122.7 56.3,122.7 L92.7,122.7 C97.1,122.7 100.7,119.1 100.7,114.7 L100.7,109 C100.7,107.2 102.1,105.8 103.9,105.8 C105.7,105.8 107.1,107.2 107.1,109 L107.1,114.7 C107.2,122.6 100.7,129.1 92.7,129.1 Z" id="Shape" fill="#C5DCFA"></path>
            <path d="M62.7,130.5 L51.1,130.5 C49.6,130.5 48.4,129.3 48.4,127.8 L48.4,124 C48.4,122.5 49.6,121.3 51.1,121.3 L62.7,121.3 C64.2,121.3 65.4,122.5 65.4,124 L65.4,127.8 C65.3,129.3 64.1,130.5 62.7,130.5 Z" id="Shape" fill="#DFECFD"></path>
        </g>
    </g>
</svg>