<?xml version="1.0" encoding="UTF-8"?>
<svg width="147px" height="128px" viewBox="0 0 147 128" version="1.1" xmlns="http://www.w3.org/2000/svg" xmlns:xlink="http://www.w3.org/1999/xlink">
    <!-- Generator: Sketch 51.2 (57519) - http://www.bohemiancoding.com/sketch -->
    <title>Support</title>
    <desc>Created with Sketch.</desc>
    <defs>
        <linearGradient x1="50.0752874%" y1="63.9385057%" x2="50.0752874%" y2="17.2666667%" id="linearGradient-1">
            <stop stop-color="#4988FD" offset="0%"></stop>
            <stop stop-color="#3973F4" offset="100%"></stop>
        </linearGradient>
    </defs>
    <g id="Page-1" stroke="none" stroke-width="1" fill="none" fill-rule="evenodd">
        <g id="Support" fill-rule="nonzero">
            <g id="Group" transform="translate(81.000000, 0.000000)">
                <path d="M21.6,49.1 L57.7,49.1 C62,49.1 65.4,45.7 65.4,41.4 L65.4,8.3 C65.4,4 62,0.6 57.7,0.6 L8,0.6 C3.7,0.6 0.3,4 0.3,8.3 L0.3,54.3 C0.3,56.2 2.5,57.2 3.9,56 L9.6,49.1 L10,49.1" id="Shape" fill="#21D3AC"></path>
                <circle id="Oval" fill="#FFFFFF" cx="17.9" cy="25.6" r="4.4"></circle>
                <circle id="Oval" fill="#FFFFFF" cx="32.9" cy="25.6" r="4.4"></circle>
                <path d="M50.7,28.9 C49.9,29.6 48.9,30 47.8,30 C45.4,30 43.4,28 43.4,25.6 C43.4,23.2 45.4,21.2 47.8,21.2 C50.2,21.2 52.2,23.2 52.2,25.6 C52.2,26.9 51.6,28.1 50.7,28.9" id="Shape" fill="#FFFFFF"></path>
            </g>
            <g id="Group" transform="translate(0.000000, 22.000000)">
                <path d="M25.8,60.2 C26.6,61.3 27.5,62.3 28.6,63.4 C29.4,64.2 30.3,64.9 31.4,65.7 C32,66.1 32.7,66.6 33.3,67.1 C33.4,67.2 33.6,67.3 33.7,67.4 C33.9,67.5 34.1,67.7 34.3,67.8 L34.3,74 C34.2,73.9 34.1,73.8 34,73.7 C33.4,73.1 32.8,72.7 32.3,72.3 C31.4,71.7 30.5,71.1 29.6,70.6 C29.3,70.4 29,70.2 28.7,70 C25.9,68.2 23.2,66.4 23.1,64.5 C23,63.2 24,61.7 25.8,60.2 Z M88.7,96.2 C88.4,95.5 88.2,94.8 87.8,94.2 C85.1,88.4 80.5,82.9 74.5,79.9 C71.5,78.4 68.2,77.5 64.5,77.4 C63.4,77.4 62.5,77.4 61.6,77.4 C55.5,77.3 54.9,76.2 54.9,76.2 L54.9,66 C54.9,66 54.9,66 54.9,66 C61.3,60.7 66.7,54.5 68.3,46.4 C72.3,45.5 74.8,41.8 74.4,37.8 C74.2,36 73.1,34.4 73.1,32.5 C73.1,31.6 73.1,30.7 73.1,29.8 C73.1,29.2 73.1,28.6 73,28 C73,27.4 72.9,26.8 72.8,26.1 C72.4,23.1 71.6,20 69.7,16.3 C64.6,6.8 54.7,0.5 43.4,0.5 C41.1,0.5 38.9,0.8 36.7,1.3 C32.7,2.2 28.9,4 25.7,6.4 C25,6.9 24.4,7.4 23.8,7.9 C23.6,8 23.5,8.2 23.3,8.3 C19.7,11.6 17,15.8 15.5,20.5 C14,25.2 13.6,30 14.2,34.8 C14.2,34.9 14.2,35 14.2,35.1 C14.2,35.2 14.2,35.3 14.2,35.5 C14.3,36.4 14.6,36.2 14,37 C13.8,37.2 13.6,37.5 13.4,37.8 C12.6,39.2 12.1,41.1 12.9,43.3 C14.4,47.6 17.4,47 20.2,49.4 C20,49.5 19.9,49.6 19.7,49.7 L19.6,49.7 L16.5,50.7 C-2.3,56.6 -4.5,76.7 14.9,80.4 C13.5,80.5 12.2,81.3 11.3,82 C5.1,86.8 1.2,94.2 0.2,101.3 C-0.1,103.5 1.6,105.4 3.8,105.4 L81.8,105.4 L86.5,105.4 C88.8,105.4 90.6,103.3 90.1,101 C89.7,99.4 89.2,97.8 88.7,96.2 Z" id="Shape" fill="#4988FD"></path>
                <path d="M61.6,77.3 C60.6,81 59.4,83.2 59.4,83.2 L26.8,78 L28.6,69.9 C28.9,70.1 29.2,70.3 29.5,70.5 C30.4,71.1 31.3,71.6 32.2,72.2 C32.7,72.6 33.3,73 33.9,73.6 C34,73.7 34.1,73.8 34.2,73.9 L34.2,67.7 C34,67.6 33.8,67.4 33.6,67.3 C38.9,69.9 45.5,71.4 54.9,65.8 C54.8,65.9 54.8,65.9 54.7,66 L54.7,76.1 C54.9,76.1 55.5,77.2 61.6,77.3 Z" id="Shape" fill="url(#linearGradient-1)"></path>
                <path d="M90.1,101.2 C90.5,103.5 88.8,105.5 86.5,105.5 L84.4,105.5 L81.8,105.5 C83.8,96.6 80.1,88.4 74.5,79.8 C80.6,82.8 85.2,88.3 87.8,94.1 C88,94.8 88.3,95.5 88.7,96.1 C89.3,97.9 89.7,99.5 90.1,101.2 Z" id="Shape" fill="#3973F4"></path>
            </g>
            <path d="M72.9,50 C67.4,51.9 61.6,52.6 55.9,52.2 C46.8,51.5 37.9,47.8 31.1,41.7 C28.9,48.3 23.1,53.2 16.7,56.1 C15.8,56.5 15,56.8 14.1,57.2 C14.1,57.1 14.1,57 14.1,56.9 C13.5,52.1 13.9,47.2 15.4,42.6 C16.9,38 19.6,33.8 23.2,30.4 C23.3,30.3 23.5,30.1 23.7,30 C24.3,29.5 25,28.9 25.6,28.5 C28.9,26.1 32.7,24.3 36.6,23.4 C38.8,22.9 41.1,22.6 43.3,22.6 C54.6,22.6 64.5,28.9 69.6,38.4 C71.5,42.1 72.4,45.2 72.7,48.2 C72.8,48.7 72.9,49.4 72.9,50 Z" id="Shape" fill="#3973F4"></path>
            <path d="M26.2,82.7 C27,83.7 27.8,84.5 28.6,85.3 C28.6,85.3 28.6,85.3 28.6,85.3 C27.7,84.5 26.9,83.6 26.2,82.7 Z" id="Shape" fill="#3973F4"></path>
            <path d="M38.1,114.6 C35.7,117.6 31.2,117.8 27.3,117.7 C31.3,113.8 29,101 14.9,102.6 L14.7,102.6 C-4.7,98.9 -2.6,78.8 16.3,72.9 L19.4,71.9 C19.6,72 19.8,72.2 20,72.4 C21.5,76.3 23.5,79.7 25.7,82.3 C18,88.8 28.7,90.7 33.9,95.7 C38.6,98.1 42.3,109.3 38.1,114.6 Z" id="Shape" fill="#3973F4"></path>
            <path d="M26.1,82.6 C26,82.5 25.9,82.3 25.8,82.2 C25.9,82.3 26,82.4 26.1,82.6 Z" id="Shape" fill="#3973F4"></path>
        </g>
    </g>
</svg>