<?xml version="1.0" encoding="UTF-8"?>
<svg width="154px" height="117px" viewBox="0 0 154 117" version="1.1" xmlns="http://www.w3.org/2000/svg" xmlns:xlink="http://www.w3.org/1999/xlink">
    <!-- Generator: Sketch 51.2 (57519) - http://www.bohemiancoding.com/sketch -->
    <title>Swimming</title>
    <desc>Created with Sketch.</desc>
    <defs></defs>
    <g id="Page-1" stroke="none" stroke-width="1" fill="none" fill-rule="evenodd">
        <g id="Swimming" fill-rule="nonzero">
            <path d="M150.9,11.7 C150.9,11.8 150.9,11.8 150.9,11.9 C150.7,15.2 149.1,17.8 146.6,19 C145.5,19.6 144.2,19.9 142.7,19.9 C137.9,19.9 133.1,19.6 128.4,19.4 C123.7,19.2 119,18.9 114.3,18.7 C113.6,18.7 112.4,19.3 112.1,19.9 C109.9,24.5 107.8,29.1 105.7,33.8 C105.2,35 105,36.2 105.1,37.3 C105.1,37.3 105.1,37.3 105.1,37.3 C105.2,38.5 105.7,39.6 106.5,40.8 C109.5,45.2 111.9,50 114,54.8 C114.2,55.4 115.5,58.4 116.7,61.3 C117.7,63.7 115.9,66.4 113.2,66.3 C97.3,65.8 94.5,78 76.9,78 C62.2,78 59.4,70.6 49.3,67.7 C46.9,67 44,66.6 40.5,66.6 C38.5,66.6 36.7,66.7 35,67 C31.3,67.6 28.6,68.7 26.1,70 C26.2,69.8 26.3,69.7 26.3,69.5 C27.8,68.8 29.1,68.2 30.5,67.6 C41.4,62.9 51.1,57.1 61.2,51.6 C66.2,48.9 71.2,46.3 76.5,44 C77.7,43.5 78.9,42.4 79.4,41.2 C84.1,30.9 88.7,20.5 93.3,10 C95.8,4.3 100.2,-0.5 108.8,0.5 C120.2,1.8 131.8,2.2 143.3,3.1 C148.3,3.6 151.1,7 150.9,11.7 Z" id="Shape" fill="#4988FD"></path>
            <path d="M116.7,61.4 C117.7,63.8 115.9,66.5 113.2,66.4 C97.3,65.9 94.5,78.1 76.9,78.1 C62.2,78.1 59.4,70.7 49.3,67.8 C49.3,67.8 49.3,67.8 49.3,67.8 C52.8,65.8 56.8,64.9 60.9,65.4 C73.7,66.8 81.4,66.4 90.8,61.4 C99.5,56.7 107.9,56.9 114,55 C114,55 114,55 114,55 C114.2,55.4 115.5,58.4 116.7,61.4 Z" id="Shape" fill="#3973F4"></path>
            <path d="M151.2,46.6 C151.2,47.2 151.2,47.7 151.1,48.3 C150.3,56.2 143.6,62.4 135.5,62.4 C128.4,62.4 122.5,57.8 120.5,51.4 C120.5,51.4 120.5,51.4 120.5,51.4 C120,49.9 119.8,48.4 119.8,46.7 C119.8,38 126.8,31 135.5,31 C144.2,30.8 151.2,37.9 151.2,46.6 Z" id="Shape" fill="#4988FD"></path>
            <path d="M151.1,48.2 C150.3,56.1 143.6,62.3 135.5,62.3 C128.4,62.3 122.5,57.7 120.5,51.3 C120.5,51.3 120.5,51.3 120.5,51.3 C120.5,51 120.4,50.8 120.4,50.5 C129.8,50.3 134.8,57.7 151.1,48.2 Z" id="Shape" fill="#3973F4"></path>
            <path d="M149.7,96.3 C139.6,96.3 134.1,92.9 129.3,89.8 C124.8,87 121,84.6 113.3,84.6 C105.2,84.6 101.4,87 97,89.8 C92.3,92.7 87,96.1 76.9,96.1 C66.8,96.1 61.5,92.8 56.8,89.8 C52.4,87 48.6,84.6 40.5,84.6 C32.5,84.6 28.6,87 24,89.8 C19.3,92.7 13.9,96 4.1,96 C2.2,96 0.6,94.4 0.6,92.5 C0.6,90.6 2.2,89 4.1,89 C11.9,89 15.8,86.6 20.3,83.8 C25.1,80.9 30.5,77.5 40.4,77.5 C50.5,77.5 55.8,80.8 60.5,83.8 C64.9,86.6 68.7,89 76.8,89 C84.9,89 88.7,86.6 93.1,83.8 C97.8,80.9 103.1,77.5 113.2,77.5 C122.8,77.5 128.2,80.9 132.9,83.8 C137.5,86.7 141.5,89.2 149.6,89.2 C151.5,89.2 153.1,90.8 153.1,92.7 C153.1,94.6 151.7,96.3 149.7,96.3 Z" id="Shape" fill="#4988FD"></path>
            <path d="M149.7,116.3 C139.6,116.3 134.1,112.9 129.3,109.8 C124.8,107 121,104.6 113.3,104.6 C105.2,104.6 101.4,107 97,109.8 C92.3,112.7 87,116.1 76.9,116.1 C66.8,116.1 61.5,112.8 56.8,109.8 C52.4,107 48.6,104.6 40.5,104.6 C32.5,104.6 28.6,107 24,109.8 C19.3,112.7 13.9,116 4.1,116 C2.2,116 0.6,114.4 0.6,112.5 C0.6,110.6 2.2,109 4.1,109 C11.9,109 15.8,106.6 20.3,103.8 C25.1,100.9 30.5,97.5 40.4,97.5 C50.5,97.5 55.8,100.8 60.5,103.8 C64.9,106.6 68.7,109 76.8,109 C84.9,109 88.7,106.6 93.1,103.8 C97.8,100.9 103.1,97.5 113.2,97.5 C122.8,97.5 128.2,100.9 132.9,103.8 C137.5,106.7 141.5,109.2 149.6,109.2 C151.5,109.2 153.1,110.8 153.1,112.7 C153.1,114.6 151.7,116.3 149.7,116.3 Z" id="Shape" fill="#4988FD"></path>
        </g>
    </g>
</svg>