<?xml version="1.0" encoding="UTF-8"?>
<svg width="129px" height="120px" viewBox="0 0 129 120" version="1.1" xmlns="http://www.w3.org/2000/svg" xmlns:xlink="http://www.w3.org/1999/xlink">
    <!-- Generator: Sketch 51.2 (57519) - http://www.bohemiancoding.com/sketch -->
    <title>Swipe</title>
    <desc>Created with Sketch.</desc>
    <defs></defs>
    <g id="Page-1" stroke="none" stroke-width="1" fill="none" fill-rule="evenodd">
        <g id="Swipe" fill-rule="nonzero">
            <path d="M90.6,29.4 L123.4,66.7 C130.6,74.9 129.8,87.4 121.6,94.6 L97,116.3 C94.5,118.5 91.4,119.7 88,119.8 C77.9,120 56,120.3 50.6,118.8 C50.6,118.8 50.6,118.7 50.5,118.7 C48.9,118.3 47.5,117.5 46.4,116.2 L26.8,94 C33.5,88.1 43.7,88.8 49.6,95.4 L57.6,104.4 L59.8,102.5 L11.3,47.5 C8.4,44.2 8.7,39.1 12,36.1 C15.3,33.2 20.4,33.5 23.4,36.8 L48,64.8 L50.1,63 L24,33.4 C21.1,30.1 21.4,25 24.7,22 C28,19.1 33.1,19.4 36.1,22.7 L62.3,52.4 L64.6,50.4 L60.9,46.2 C58.2,43.1 58.5,38.3 61.6,35.6 C64.7,32.9 69.5,33.2 72.2,36.3 L76,40.6 L78.5,38.4 C76.6,35.3 77.1,31.3 79.9,28.8 C83.1,26 87.9,26.3 90.6,29.4 Z" id="Shape" fill="#DFECFD"></path>
            <g id="Group" transform="translate(52.000000, 0.000000)" fill="#3973F4">
                <path d="M50.3,10.1 L8.8,10.1 L14.3,4.6 C15.3,3.6 15.3,2 14.3,1.1 C13.3,0.1 11.7,0.1 10.8,1.1 L1,10.9 C0.5,11.4 0.3,12 0.3,12.7 C0.3,13.4 0.6,14 1,14.5 L10.8,24.3 C11.3,24.8 11.9,25 12.6,25 C13.3,25 13.9,24.8 14.4,24.3 C15.4,23.3 15.4,21.7 14.4,20.8 L8.9,15.3 L50.4,15.3 C51.8,15.3 52.9,14.2 52.9,12.8 C52.9,11.4 51.7,10.1 50.3,10.1 Z" id="Shape"></path>
                <path d="M72.4,10.1 L60.3,10.1 C58.9,10.1 57.8,11.2 57.8,12.6 C57.8,14 58.9,15.1 60.3,15.1 L72.4,15.1 C73.8,15.1 74.9,14 74.9,12.6 C74.9,11.2 73.8,10.1 72.4,10.1 Z" id="Shape"></path>
            </g>
            <path d="M10.1,57.5 C9.7,57.5 9.2,57.4 8.9,57.2 C2.9,53.7 -0.5,47 0.4,40.1 C1.4,32.2 7.6,26.1 15.4,25.1 C16.8,24.9 18,25.9 18.2,27.3 C18.4,28.7 17.4,29.9 16,30.1 C10.4,30.8 6,35.2 5.3,40.7 C4.7,45.6 7.1,50.4 11.3,52.8 C12.5,53.5 12.9,55 12.2,56.2 C11.8,57.1 10.9,57.5 10.1,57.5 Z" id="Shape" fill="#6097FD"></path>
            <path d="M15.6,30.1 C15.6,30.1 15.5,30.1 15.5,30.1 C14.1,30 13,28.9 13.1,27.5 C13.1,27 13.2,26.5 13.2,26 C14.4,16.6 23,9.8 32.5,11 C39.4,11.9 45.1,16.8 47,23.5 C47.4,24.8 46.6,26.2 45.3,26.6 C44,27 42.6,26.2 42.2,24.9 C40.9,20.1 36.8,16.6 31.9,16 C25.2,15.2 19.1,19.9 18.2,26.6 C18.2,26.9 18.1,27.3 18.1,27.6 C18.1,29 16.9,30.1 15.6,30.1 Z" id="Shape" fill="#6097FD"></path>
        </g>
    </g>
</svg>