<?xml version="1.0" encoding="UTF-8"?>
<svg width="149px" height="103px" viewBox="0 0 149 103" version="1.1" xmlns="http://www.w3.org/2000/svg" xmlns:xlink="http://www.w3.org/1999/xlink">
    <!-- Generator: Sketch 51.2 (57519) - http://www.bohemiancoding.com/sketch -->
    <title>Sync</title>
    <desc>Created with Sketch.</desc>
    <defs></defs>
    <g id="Page-1" stroke="none" stroke-width="1" fill="none" fill-rule="evenodd">
        <g id="Sync" fill-rule="nonzero">
            <path d="M117.5,44.1 C116.8,44.1 116.2,43.6 116,43 C115.9,42.7 115.8,42.4 115.8,42.1 C115.6,41.3 116.1,40.5 116.8,40.3 C117.6,40.1 118.4,40.6 118.6,41.3 C118.7,41.6 118.8,42 118.9,42.3 C119.1,43.1 118.6,43.9 117.8,44.1 C117.7,44.1 117.6,44.1 117.5,44.1 Z M115,36.5 C114.4,36.5 113.8,36.1 113.6,35.6 C113.5,35.3 113.4,35 113.2,34.7 C112.9,33.9 113.2,33.1 114,32.7 C114.8,32.4 115.6,32.7 116,33.5 C116.1,33.8 116.3,34.1 116.4,34.5 C116.7,35.3 116.3,36.1 115.6,36.5 C115.4,36.5 115.2,36.5 115,36.5 Z M111.3,29.5 C110.8,29.5 110.3,29.3 110,28.8 C109.8,28.5 109.6,28.3 109.5,28 C109,27.3 109.2,26.4 109.9,25.9 C110.6,25.4 111.5,25.6 112,26.3 C112.2,26.6 112.4,26.9 112.6,27.2 C113.1,27.9 112.9,28.8 112.2,29.3 C111.9,29.4 111.6,29.5 111.3,29.5 Z M106.2,23.4 C105.8,23.4 105.5,23.3 105.2,23 C105,22.8 104.7,22.6 104.5,22.4 C103.9,21.9 103.8,20.9 104.4,20.3 C104.9,19.7 105.9,19.6 106.5,20.2 C106.8,20.4 107,20.7 107.3,20.9 C107.9,21.5 107.9,22.4 107.4,23 C107,23.2 106.6,23.4 106.2,23.4 Z M99.7,18.7 C99.5,18.7 99.2,18.6 99,18.5 C98.7,18.3 98.4,18.2 98.1,18.1 C97.4,17.7 97.1,16.8 97.4,16.1 C97.8,15.4 98.7,15.1 99.4,15.4 C99.7,15.6 100,15.7 100.3,15.9 C101,16.3 101.3,17.2 100.9,17.9 C100.7,18.4 100.2,18.7 99.7,18.7 Z M92.3,15.8 C92.2,15.8 92,15.8 91.9,15.7 C91.6,15.6 91.3,15.5 91,15.5 C90.2,15.3 89.7,14.5 89.9,13.7 C90.1,12.9 90.9,12.4 91.7,12.6 C92,12.7 92.4,12.8 92.7,12.9 C93.5,13.1 94,13.9 93.7,14.7 C93.5,15.3 92.9,15.8 92.3,15.8 Z M84.4,14.4 C84.4,14.4 84.3,14.4 84.3,14.4 C84,14.4 83.7,14.3 83.3,14.3 C82.5,14.2 81.9,13.5 81.9,12.7 C82,11.9 82.7,11.2 83.5,11.3 C83.8,11.3 84.2,11.4 84.5,11.4 C85.3,11.5 85.9,12.2 85.9,13 C85.8,13.8 85.2,14.4 84.4,14.4 Z M75.4,14.2 C74.6,14.2 73.9,13.6 73.9,12.8 C73.9,12 74.5,11.3 75.3,11.2 C75.6,11.2 76,11.2 76.3,11.2 C77.1,11.2 77.8,11.8 77.9,12.6 C77.9,13.4 77.3,14.1 76.5,14.2 C76.2,14.2 75.8,14.2 75.4,14.2 C75.5,14.2 75.4,14.2 75.4,14.2 Z" id="Shape" fill="#C5DCFA"></path>
            <path d="M62.6,76.3 C62.6,76.3 62.6,76.3 62.6,76.3 C62.2,76.3 61.9,76.3 61.5,76.3 C60.7,76.3 60,75.6 60.1,74.7 C60.1,73.9 60.9,73.2 61.7,73.3 C62,73.3 62.3,73.3 62.7,73.3 C63.5,73.3 64.2,74 64.1,74.9 C64.1,75.6 63.4,76.3 62.6,76.3 Z M54.7,75.4 C54.6,75.4 54.5,75.4 54.4,75.4 C54.1,75.3 53.7,75.3 53.4,75.2 C52.6,75 52.1,74.2 52.3,73.4 C52.5,72.6 53.3,72.1 54.1,72.3 C54.4,72.4 54.7,72.4 55,72.5 C55.8,72.7 56.3,73.4 56.2,74.3 C56,74.9 55.4,75.4 54.7,75.4 Z M47.1,73 C46.9,73 46.7,73 46.5,72.9 C46.2,72.7 45.9,72.6 45.5,72.4 C44.8,72 44.5,71.1 44.9,70.4 C45.3,69.7 46.2,69.4 46.9,69.8 C47.2,69.9 47.5,70.1 47.7,70.2 C48.5,70.6 48.8,71.4 48.4,72.2 C48.2,72.7 47.6,73 47.1,73 Z M40.6,68.5 C40.2,68.5 39.8,68.3 39.5,68 C39.3,67.7 39,67.5 38.8,67.2 C38.3,66.6 38.3,65.6 38.9,65.1 C39.5,64.6 40.5,64.6 41,65.2 C41.2,65.4 41.4,65.7 41.6,65.9 C42.2,66.5 42.2,67.4 41.6,68 C41.3,68.3 40.9,68.5 40.6,68.5 Z M36.2,61.8 C35.6,61.8 35.1,61.5 34.8,60.9 C34.7,60.6 34.5,60.3 34.4,59.9 C34.1,59.1 34.5,58.3 35.3,58 C36.1,57.7 36.9,58.1 37.2,58.9 C37.3,59.2 37.4,59.5 37.6,59.8 C37.9,60.6 37.6,61.4 36.8,61.8 C36.6,61.8 36.4,61.8 36.2,61.8 Z M34.1,54.2 C33.4,54.2 32.7,53.7 32.6,52.9 C32.5,52.6 32.5,52.2 32.5,51.9 C32.4,51.1 33,50.3 33.8,50.2 C34.6,50.1 35.4,50.7 35.5,51.5 C35.5,51.8 35.6,52.1 35.6,52.5 C35.7,53.3 35.2,54.1 34.3,54.2 C34.2,54.1 34.1,54.2 34.1,54.2 Z M33.5,46.2 C33.5,46.2 33.5,46.2 33.5,46.2 C32.7,46.2 32,45.5 32,44.7 C32,44.4 32,44 32,43.7 C32,42.9 32.7,42.2 33.5,42.2 C34.3,42.2 35,42.9 35,43.7 C35,44 35,44.4 35,44.7 C35,45.5 34.4,46.2 33.5,46.2 Z" id="Shape" fill="#C5DCFA"></path>
            <g id="Group" transform="translate(105.000000, 20.000000)">
                <circle id="Oval" fill="#FFFFFF" cx="5.4" cy="5.4" r="3.6"></circle>
                <path d="M5.4,10.5 C2.6,10.5 0.3,8.2 0.3,5.4 C0.3,2.6 2.6,0.3 5.4,0.3 C8.2,0.3 10.5,2.6 10.5,5.4 C10.5,8.2 8.2,10.5 5.4,10.5 Z M5.4,3.3 C4.2,3.3 3.3,4.3 3.3,5.4 C3.3,6.6 4.3,7.5 5.4,7.5 C6.6,7.5 7.5,6.5 7.5,5.4 C7.5,4.2 6.6,3.3 5.4,3.3 Z" id="Shape" fill="#C5DCFA"></path>
            </g>
            <g id="Group" transform="translate(30.000000, 51.000000)">
                <circle id="Oval" fill="#FFFFFF" cx="5.2" cy="5.8" r="3.6"></circle>
                <path d="M5.2,11 C2.4,11 0.1,8.7 0.1,5.9 C0.1,3.1 2.4,0.8 5.2,0.8 C8,0.8 10.3,3.1 10.3,5.9 C10.3,8.7 8,11 5.2,11 Z M5.2,3.7 C4,3.7 3.1,4.7 3.1,5.8 C3.1,7 4.1,7.9 5.2,7.9 C6.3,7.9 7.3,6.9 7.3,5.8 C7.3,4.7 6.4,3.7 5.2,3.7 Z" id="Shape" fill="#C5DCFA"></path>
            </g>
            <g id="Group" transform="translate(67.000000, 47.000000)">
                <path d="M81.6,49.9 L81.6,52 C81.6,53.9 80,55.5 77.9,55.5 L3.8,55.5 C1.8,55.5 0.1,53.9 0.1,52 L0.1,49.9 L33.6,49.9 C33.9,50.7 34.7,51.3 35.6,51.3 L46.1,51.3 C47,51.3 47.8,50.7 48.1,49.9 L81.6,49.9 Z" id="Shape" fill="#2767F4"></path>
                <path d="M81.6,49.9 C81.6,51.8 79.9,53.4 77.9,53.4 L3.8,53.4 C1.8,53.4 0.1,51.8 0.1,49.9 L33.6,49.9 C33.9,50.7 34.7,51.3 35.6,51.3 L46.1,51.3 C47,51.3 47.8,50.7 48.1,49.9 L81.6,49.9 Z" id="Shape" fill="#3973F4"></path>
                <path d="M77.4,49.9 L4.3,49.9 L4.3,5.8 C4.3,3.1 6.5,0.9 9.2,0.9 L72.5,0.9 C75.2,0.9 77.4,3.1 77.4,5.8 L77.4,49.9 Z" id="Shape" fill="#4988FD"></path>
                <polyline id="Shape" fill="#FFFFFF" points="59.2 50.1 7.8 50.1 7.8 4.8 73.7 4.8 73.7 50.1 66.8 50.1"></polyline>
                <path d="M7.8,4.8 L73.7,4.8" id="Shape" fill="#FFFFFF"></path>
            </g>
            <path d="M12,17 C5.7,17 0.6,22.1 0.6,28.4 C0.6,31.2 1.6,33.7 3.2,35.7 C5.3,38.2 8.4,39.8 12,39.8 L60.5,39.8 C62,39.8 63.3,39.5 64.6,39 C68.9,37.4 71.9,33.2 71.9,28.4 C71.9,23 68.2,18.5 63.2,17.3 C63.2,17.1 63.2,16.9 63.2,16.6 C63.2,7.8 56.1,0.7 47.3,0.7 C41.6,0.7 36.7,3.7 33.9,8.1 C31.7,6.7 29,5.8 26.1,5.8 C19.3,5.9 13.6,10.6 12,17 Z" id="Shape" fill="#DFECFD"></path>
        </g>
    </g>
</svg>