<?xml version="1.0" encoding="UTF-8"?>
<svg width="146px" height="116px" viewBox="0 0 146 116" version="1.1" xmlns="http://www.w3.org/2000/svg" xmlns:xlink="http://www.w3.org/1999/xlink">
    <!-- Generator: Sketch 51.2 (57519) - http://www.bohemiancoding.com/sketch -->
    <title>T-shirt</title>
    <desc>Created with Sketch.</desc>
    <defs></defs>
    <g id="Page-1" stroke="none" stroke-width="1" fill="none" fill-rule="evenodd">
        <g id="T-shirt" fill-rule="nonzero">
            <g id="Group">
                <path d="M142.9,25.7 C142.2,25.1 141.5,24.5 140.8,23.9 C132.1,16.6 123.3,9.3 114.5,2 C113.5,1.2 112,0.5 110.7,0.5 C104,0.4 97.3,0.4 90.7,0.5 C87.4,0.5 86.4,1.7 86.1,5 C85.5,12 80.1,17.4 73.4,17.5 C66,17.6 60.2,12.6 59.4,5.3 C58.7,-1.1 57.5,0.7 36,0.4 C33.8,0.4 32,1 30.4,2.5 C21.7,9.9 12.9,17.2 4.1,24.5 C3.6,24.9 3.2,25.2 2.8,25.6 C0.1,27.9 -0.1,29.6 2.2,32.3 C6.5,37.5 10.8,42.7 15.2,47.9 C17.2,50.3 18.1,50.6 22.6,48.6 C25,47.5 28.3,45.8 33.4,43.3 L33.4,109.8 C33.4,114.5 34.4,115.5 39.2,115.5 C61.6,115.5 84,115.5 106.5,115.5 C111.4,115.5 112.4,114.5 112.4,109.7 L112.4,43.3 C117.6,45.8 121,47.6 123.4,48.7 C127.8,50.7 128.7,50.4 130.6,48.1 C135,42.8 139.4,37.6 143.7,32.3 C145.6,29.6 145.4,27.8 142.9,25.7 Z" id="Shape" fill="#4988FD"></path>
                <path d="M102,48 L94.3,53.5 C93.3,54.5 91.6,54.5 90.6,53.5 L82.8,48 C82.3,47.5 82,46.8 82,46.2 L82,34 C82,33.2 82.6,32.6 83.4,32.6 L101.2,32.6 C102,32.6 102.6,33.2 102.6,34 L102.6,46.1 C102.8,46.8 102.5,47.5 102,48 Z" id="Shape" fill="#3973F4"></path>
            </g>
            <path d="M23.4,48.5 C18.9,50.6 18,50.3 16,47.8 C11.7,42.6 7.3,37.4 3,32.2 C0.8,29.5 0.9,27.8 3.6,25.5 C4,25.1 4.5,24.7 4.9,24.4 L23.4,48.5 Z" id="Shape" fill="#3973F4"></path>
            <path d="M144.4,32.2 C140,37.5 135.7,42.7 131.3,48 C129.4,50.3 128.5,50.6 124.1,48.6 L141.7,24 C142.4,24.6 143.1,25.2 143.8,25.8 C146.4,27.8 146.6,29.6 144.4,32.2 Z" id="Shape" fill="#3973F4"></path>
        </g>
    </g>
</svg>