<?xml version="1.0" encoding="UTF-8"?>
<svg width="151px" height="96px" viewBox="0 0 151 96" version="1.1" xmlns="http://www.w3.org/2000/svg" xmlns:xlink="http://www.w3.org/1999/xlink">
    <!-- Generator: Sketch 51.2 (57519) - http://www.bohemiancoding.com/sketch -->
    <title>Tablet_Interaction</title>
    <desc>Created with Sketch.</desc>
    <defs></defs>
    <g id="Page-1" stroke="none" stroke-width="1" fill="none" fill-rule="evenodd">
        <g id="Tablet_Interaction">
            <path d="M127,7.6 L127,68.4 C127,72.4 123.8,75.6 119.8,75.6 L31.6,75.6 C27.6,75.6 24.4,72.4 24.4,68.4 L24.4,7.6 C24.4,3.6 27.6,0.4 31.6,0.4 L119.8,0.4 C123.7,0.4 127,3.6 127,7.6 Z" id="Shape" fill="#FFFFFF" fill-rule="nonzero"></path>
            <path d="M31.5,0.4 L119.7,0.4 C123.7,0.4 126.9,3.6 126.9,7.6 L126.9,68.4 C126.9,72.4 123.7,75.6 119.7,75.6 L31.5,75.6 C27.5,75.6 24.3,72.4 24.3,68.4 L24.3,7.6 C24.3,3.6 27.5,0.4 31.5,0.4 Z" id="Shape" fill="#4988FD" fill-rule="nonzero"></path>
            <circle id="Oval" fill="#2767F4" fill-rule="nonzero" cx="120.3" cy="38" r="3.3"></circle>
            <g id="Group" transform="translate(27.000000, 31.000000)" fill="#2767F4" fill-rule="nonzero">
                <path d="M2,1.6 L2,9 C2,9.5 1.6,9.9 1.1,9.9 C0.6,9.9 0.2,9.5 0.2,9 L0.2,1.6 C0.2,1.1 0.6,0.7 1.1,0.7 C1.6,0.7 2,1 2,1.6 Z" id="Shape"></path>
                <path d="M2,12.1 L2,12.4 C2,12.9 1.6,13.3 1.1,13.3 C0.6,13.3 0.2,12.9 0.2,12.4 L0.2,12.1 C0.2,11.6 0.6,11.2 1.1,11.2 C1.6,11.2 2,11.6 2,12.1 Z" id="Shape"></path>
            </g>
            <rect id="Rectangle-path" fill="#FFFFFF" fill-rule="nonzero" transform="translate(72.646300, 37.974300) rotate(-90.000000) translate(-72.646300, -37.974300) " x="37.5463" y="-3.3757" width="70.2" height="82.7"></rect>
            <g id="Group" transform="translate(62.000000, 19.000000)">
                <path d="M22.6,33.9 C22.6,39.8 27.4,44.7 33.4,44.7 C39.4,44.7 44.2,39.9 44.2,33.9 C44.2,27.9 39.4,23.1 33.4,23.1 C27.4,23.1 22.6,28 22.6,33.9 Z" id="Shape"></path>
                <path d="M20.6,33.9 C20.6,41 26.3,46.7 33.4,46.7 C40.5,46.7 46.2,41 46.2,33.9 C46.2,26.8 40.5,21.1 33.4,21.1 C26.3,21.1 20.6,26.9 20.6,33.9 Z M44.2,33.9 C44.2,39.8 39.4,44.7 33.4,44.7 C27.4,44.7 22.6,39.9 22.6,33.9 C22.6,27.9 27.4,23.1 33.4,23.1 C39.4,23.1 44.2,28 44.2,33.9 Z" id="Shape" fill="#DFECFD" fill-rule="nonzero"></path>
                <path d="M52,45.7 L52,41.3 C49.1,48.7 41.8,54 33.4,54 C22.4,54 13.4,45 13.4,34 C13.4,23 22.4,14 33.4,14 C41.8,14 49.1,19.3 52,26.7 L52,22.3 C48.1,16.1 41.2,12 33.4,12 C21.3,12 11.4,21.9 11.4,34 C11.4,43 16.9,50.8 24.7,54.2 L42.1,54.2 C46.2,52.4 49.6,49.4 52,45.7 Z" id="Shape" fill="#DFECFD" fill-rule="nonzero"></path>
                <path d="M2.3,33.9 C2.3,16.7 16.3,2.8 33.4,2.8 C40.4,2.8 46.8,5.1 52,9 L52,6.5 C46.7,2.9 40.3,0.8 33.4,0.8 C15.1,0.8 0.3,15.7 0.3,33.9 C0.3,41.5 2.9,48.5 7.2,54.1 L9.8,54.1 C5.1,48.7 2.3,41.6 2.3,33.9 Z" id="Shape" fill="#DFECFD" fill-rule="nonzero"></path>
            </g>
            <path d="M134.8,49.4 L148.3,68.8 C151.7,73.6 150.5,80.3 145.6,83.6 L131.1,93.7 C129.6,94.7 127.9,95.2 126.1,95 C120.7,94.5 108.9,93.3 106.1,92.1 C106.1,92.1 106.1,92.1 106.1,92.1 C105.3,91.8 104.6,91.3 104,90.5 L96.7,80 C100.6,77.3 106.1,78.2 108.8,82.2 L112.5,87.5 L113.8,86.6 L92.2,55.5 C90.8,53.5 91.3,50.8 93.3,49.5 C95.3,48.1 98,48.6 99.3,50.6 L109.8,65.8 L111,65 L107.5,59.9 C106.1,57.9 106.6,55.2 108.6,53.9 C110.6,52.5 113.3,53 114.6,55 L118.2,60.1 L119.6,59.2 L117.8,56.6 C116.6,54.8 117,52.3 118.9,51 C120.7,49.7 123.3,50.2 124.5,52 C124.5,52 124.5,52 124.5,52 L126.3,54.6 L127.8,53.6 C127,51.8 127.5,49.7 129.1,48.6 C131,47.1 133.5,47.6 134.8,49.4 Z" id="Shape" fill="#DFECFD" fill-rule="nonzero"></path>
            <path d="M24.1,20.2 L24.1,37 L18.4,43.4 C17.4,44.6 16.8,46 16.7,47.6 L16.4,52.7 C16.4,53.5 16.8,54.2 17.6,54.4 L23.7,56.2 C24.6,56.5 25.5,56 25.9,55.2 L26,55 L26.9,52.8 L30.4,44.3 C30.6,43.7 30.9,43.2 31.3,42.8 C33.1,40.5 36.4,39.6 39.2,40.9 C40.4,41.5 41.1,42.6 41.1,43.8 C41.1,44.1 41,44.5 40.9,44.9 L37.2,55.7 L32.6,69.1 C31.9,71.2 30.6,73.2 28.9,74.7 L24.1,79 L21.7,81.2 C21.3,81.6 20.8,81.8 20.2,81.8 C17.2,81.8 6.9,81.7 2.4,81.7 C1.2,81.7 0.2,80.7 0.2,79.6 L0.2,47.9 C0.2,45.3 1.3,42.8 3.1,41 L24.1,20.2 Z" id="Shape" fill="#DFECFD" fill-rule="nonzero"></path>
        </g>
    </g>
</svg>