<?xml version="1.0" encoding="UTF-8"?>
<svg width="151px" height="113px" viewBox="0 0 151 113" version="1.1" xmlns="http://www.w3.org/2000/svg" xmlns:xlink="http://www.w3.org/1999/xlink">
    <!-- Generator: Sketch 51.2 (57519) - http://www.bohemiancoding.com/sketch -->
    <title>Tap_1_</title>
    <desc>Created with Sketch.</desc>
    <defs></defs>
    <g id="Page-1" stroke="none" stroke-width="1" fill="none" fill-rule="evenodd">
        <g id="Tap_1_" fill-rule="nonzero">
            <path d="M109.8,20.1 L144.9,55.2 C152.6,62.9 152.6,75.4 144.9,83.1 L121.7,106.3 C119.4,108.6 116.3,110.1 113,110.4 C102.9,111.3 81,112.9 75.6,111.7 C75.6,111.7 75.6,111.6 75.5,111.6 C73.9,111.3 72.4,110.6 71.2,109.4 L50.2,88.4 C56.5,82.1 66.7,82.1 73,88.4 L81.5,96.9 L83.6,94.8 L33.9,45.1 C30.8,42 30.7,36.9 33.9,33.7 C37.1,30.5 42.2,30.6 45.3,33.7 L69.5,57.9 L71.4,56 L63.3,47.9 C60.1,44.7 60.1,39.6 63.3,36.5 C66.5,33.3 71.6,33.4 74.7,36.5 L82.9,44.7 L85.1,42.5 L81.1,38.5 C78.2,35.6 78.2,30.8 81.1,27.9 C84,25 88.8,25 91.7,27.9 L95.8,32 L98.2,29.6 C96.1,26.7 96.4,22.6 99,19.9 C102.1,17.2 106.9,17.2 109.8,20.1 Z" id="Shape" fill="#DFECFD"></path>
            <path d="M40,64.5 C26.2,64.5 15,53.3 15,39.5 C15,25.7 26.2,14.5 40,14.5 C49.4,14.5 58,19.7 62.3,28.1 C62.9,29.3 62.4,30.8 61.2,31.5 C60,32.1 58.5,31.6 57.8,30.4 C54.4,23.7 47.5,19.5 40,19.5 C29,19.5 20,28.5 20,39.5 C20,50.5 29,59.5 40,59.5 C41.4,59.5 42.5,60.6 42.5,62 C42.5,63.4 41.4,64.5 40,64.5 Z" id="Shape" fill="#6097FD"></path>
            <path d="M39.6,78.9 C17.9,78.9 0.2,61.2 0.2,39.5 C0.2,17.8 17.9,0.1 39.6,0.1 C55.5,0.1 69.7,9.5 75.9,24.2 C76.4,25.5 75.8,26.9 74.6,27.5 C73.3,28 71.9,27.4 71.3,26.2 C65.9,13.4 53.4,5.2 39.6,5.2 C20.6,5.2 5.2,20.6 5.2,39.6 C5.2,58.6 20.6,74 39.6,74 C42.5,74 45.4,73.6 48.2,72.9 C49.5,72.6 50.9,73.4 51.2,74.7 C51.5,76 50.7,77.4 49.4,77.7 C46.3,78.5 42.9,78.9 39.6,78.9 Z" id="Shape" fill="#6097FD"></path>
        </g>
    </g>
</svg>