<?xml version="1.0" encoding="UTF-8"?>
<svg width="138px" height="141px" viewBox="0 0 138 141" version="1.1" xmlns="http://www.w3.org/2000/svg" xmlns:xlink="http://www.w3.org/1999/xlink">
    <!-- Generator: Sketch 51.2 (57519) - http://www.bohemiancoding.com/sketch -->
    <title>Task</title>
    <desc>Created with Sketch.</desc>
    <defs></defs>
    <g id="Page-1" stroke="none" stroke-width="1" fill="none" fill-rule="evenodd">
        <g id="Task" fill-rule="nonzero">
            <path d="M15.5,8.7 L95.5,8.7 C97.5,8.7 99.1,10.3 99.1,12.3 L99.1,133.3 C99.1,135.3 97.5,136.9 95.5,136.9 L3.8,136.9 C1.8,136.9 0.2,135.3 0.2,133.3 L0.2,12.3 C0.2,10.3 1.8,8.7 3.8,8.7 L9.1,8.7" id="Shape" fill="#4988FD"></path>
            <path d="M9,8.7 L10.5,8.7" id="Shape" fill="#FFFFFF"></path>
            <path d="M93.7,19.9 L93.7,128.7 C93.7,130.3 92.4,131.5 90.9,131.5 L9,131.5 C7.4,131.5 6.2,130.2 6.2,128.7 L6.2,19.9 C6.2,18.3 7.5,17.1 9,17.1 L90.9,17.1 C92.5,17.1 93.7,18.4 93.7,19.9 Z" id="Shape" fill="#FFFFFF"></path>
            <path d="M93.7,76.6 L93.7,128.7 C93.7,130.3 92.4,131.5 90.9,131.5 L74,131.5 C68.4,125.7 64.9,117.7 64.9,109 C64.9,92.3 77.5,78.5 93.7,76.6 Z" id="Shape" fill="#C5DCFA"></path>
            <path d="M77.8,7.9 C76.9,5.8 74.8,4.3 72.3,4.3 L54.7,4.3 C54.3,1.9 52.2,0.1 49.7,0.1 C47.2,0.1 45.1,1.9 44.7,4.3 L26.9,4.3 C25.2,4.3 23.7,5 22.7,6.1 C22.2,6.6 21.7,7.2 21.4,7.9 C21.1,8.6 20.9,9.4 20.9,10.3 C20.9,13.6 23.6,16.3 26.9,16.3 L72.3,16.3 C74,16.3 75.5,15.6 76.5,14.5 C77.6,13.4 78.3,11.9 78.3,10.3 C78.3,9.4 78.1,8.6 77.8,7.9 Z M49.7,3.3 C50.7,3.3 51.6,4.1 51.6,5.2 C51.6,6.2 50.8,7.1 49.7,7.1 C48.7,7.1 47.8,6.3 47.8,5.2 C47.8,4.1 48.7,3.3 49.7,3.3 Z" id="Shape" fill="#C5DCFA"></path>
            <g id="Group" transform="translate(17.000000, 39.000000)">
                <path d="M64.2,4.1 L52.9,4.1 C51.8,4.1 50.9,3.2 50.9,2.1 C50.9,1 51.8,0.1 52.9,0.1 L64.2,0.1 C65.3,0.1 66.2,1 66.2,2.1 C66.2,3.2 65.3,4.1 64.2,4.1 Z" id="Shape" fill="#C5DCFA"></path>
                <path d="M44.8,4.1 L19.7,4.1 C18.6,4.1 17.7,3.2 17.7,2.1 C17.7,1 18.6,0.1 19.7,0.1 L44.8,0.1 C45.9,0.1 46.8,1 46.8,2.1 C46.8,3.2 45.9,4.1 44.8,4.1 Z" id="Shape" fill="#89A8D1"></path>
                <path d="M11,4.1 L2.8,4.1 C1.7,4.1 0.8,3.2 0.8,2.1 C0.8,1 1.7,0.1 2.8,0.1 L11,0.1 C12.1,0.1 13,1 13,2.1 C13,3.2 12.1,4.1 11,4.1 Z" id="Shape" fill="#C5DCFA"></path>
                <path d="M32.3,12.7 L27.8,12.7 C26.7,12.7 25.8,11.8 25.8,10.7 C25.8,9.6 26.7,8.7 27.8,8.7 L32.3,8.7 C33.4,8.7 34.3,9.6 34.3,10.7 C34.3,11.8 33.4,12.7 32.3,12.7 Z" id="Shape" fill="#C5DCFA"></path>
                <path d="M17.9,12.7 L2.8,12.7 C1.7,12.7 0.8,11.8 0.8,10.7 C0.8,9.6 1.7,8.7 2.8,8.7 L17.9,8.7 C19,8.7 19.9,9.6 19.9,10.7 C19.9,11.8 19,12.7 17.9,12.7 Z" id="Shape" fill="#C5DCFA"></path>
            </g>
            <g id="Group" transform="translate(17.000000, 59.000000)">
                <path d="M64.2,4.7 L52.9,4.7 C51.8,4.7 50.9,3.8 50.9,2.7 C50.9,1.6 51.8,0.7 52.9,0.7 L64.2,0.7 C65.3,0.7 66.2,1.6 66.2,2.7 C66.2,3.8 65.3,4.7 64.2,4.7 Z" id="Shape" fill="#C5DCFA"></path>
                <path d="M44.8,4.7 L19.7,4.7 C18.6,4.7 17.7,3.8 17.7,2.7 C17.7,1.6 18.6,0.7 19.7,0.7 L44.8,0.7 C45.9,0.7 46.8,1.6 46.8,2.7 C46.8,3.8 45.9,4.7 44.8,4.7 Z" id="Shape" fill="#89A8D1"></path>
                <path d="M11,4.7 L2.8,4.7 C1.7,4.7 0.8,3.8 0.8,2.7 C0.8,1.6 1.7,0.7 2.8,0.7 L11,0.7 C12.1,0.7 13,1.6 13,2.7 C13,3.8 12.1,4.7 11,4.7 Z" id="Shape" fill="#C5DCFA"></path>
                <path d="M32.3,13.2 L27.8,13.2 C26.7,13.2 25.8,12.3 25.8,11.2 C25.8,10.1 26.7,9.2 27.8,9.2 L32.3,9.2 C33.4,9.2 34.3,10.1 34.3,11.2 C34.3,12.3 33.4,13.2 32.3,13.2 Z" id="Shape" fill="#C5DCFA"></path>
                <path d="M17.9,13.2 L2.8,13.2 C1.7,13.2 0.8,12.3 0.8,11.2 C0.8,10.1 1.7,9.2 2.8,9.2 L17.9,9.2 C19,9.2 19.9,10.1 19.9,11.2 C19.9,12.3 19,13.2 17.9,13.2 Z" id="Shape" fill="#89A8D1"></path>
            </g>
            <g id="Group" transform="translate(17.000000, 80.000000)">
                <path d="M64.2,4.2 L52.9,4.2 C51.8,4.2 50.9,3.3 50.9,2.2 C50.9,1.1 51.8,0.2 52.9,0.2 L64.2,0.2 C65.3,0.2 66.2,1.1 66.2,2.2 C66.2,3.3 65.3,4.2 64.2,4.2 Z" id="Shape" fill="#89A8D1"></path>
                <path d="M44.8,4.2 L19.7,4.2 C18.6,4.2 17.7,3.3 17.7,2.2 C17.7,1.1 18.6,0.2 19.7,0.2 L44.8,0.2 C45.9,0.2 46.8,1.1 46.8,2.2 C46.8,3.3 45.9,4.2 44.8,4.2 Z" id="Shape" fill="#C5DCFA"></path>
                <path d="M11,4.2 L2.8,4.2 C1.7,4.2 0.8,3.3 0.8,2.2 C0.8,1.1 1.7,0.2 2.8,0.2 L11,0.2 C12.1,0.2 13,1.1 13,2.2 C13,3.3 12.1,4.2 11,4.2 Z" id="Shape" fill="#C5DCFA"></path>
                <path d="M32.3,12.7 L27.8,12.7 C26.7,12.7 25.8,11.8 25.8,10.7 C25.8,9.6 26.7,8.7 27.8,8.7 L32.3,8.7 C33.4,8.7 34.3,9.6 34.3,10.7 C34.3,11.8 33.4,12.7 32.3,12.7 Z" id="Shape" fill="#89A8D1"></path>
                <path d="M17.9,12.7 L2.8,12.7 C1.7,12.7 0.8,11.8 0.8,10.7 C0.8,9.6 1.7,8.7 2.8,8.7 L17.9,8.7 C19,8.7 19.9,9.6 19.9,10.7 C19.9,11.8 19,12.7 17.9,12.7 Z" id="Shape" fill="#C5DCFA"></path>
            </g>
            <g id="Group" transform="translate(17.000000, 100.000000)">
                <path d="M44.8,4.7 L19.7,4.7 C18.6,4.7 17.7,3.8 17.7,2.7 C17.7,1.6 18.6,0.7 19.7,0.7 L44.8,0.7 C45.9,0.7 46.8,1.6 46.8,2.7 C46.8,3.8 45.9,4.7 44.8,4.7 Z" id="Shape" fill="#C5DCFA"></path>
                <path d="M11,4.7 L2.8,4.7 C1.7,4.7 0.8,3.8 0.8,2.7 C0.8,1.6 1.7,0.7 2.8,0.7 L11,0.7 C12.1,0.7 13,1.6 13,2.7 C13,3.8 12.1,4.7 11,4.7 Z" id="Shape" fill="#89A8D1"></path>
                <path d="M32.3,13.3 L27.8,13.3 C26.7,13.3 25.8,12.4 25.8,11.3 C25.8,10.2 26.7,9.3 27.8,9.3 L32.3,9.3 C33.4,9.3 34.3,10.2 34.3,11.3 C34.3,12.4 33.4,13.3 32.3,13.3 Z" id="Shape" fill="#89A8D1"></path>
                <path d="M17.9,13.3 L2.8,13.3 C1.7,13.3 0.8,12.4 0.8,11.3 C0.8,10.2 1.7,9.3 2.8,9.3 L17.9,9.3 C19,9.3 19.9,10.2 19.9,11.3 C19.9,12.4 19,13.3 17.9,13.3 Z" id="Shape" fill="#C5DCFA"></path>
            </g>
            <circle id="Oval" fill="#21D3AC" cx="104.7" cy="107.4" r="32.7"></circle>
            <path d="M101.6,120.2 C100.4,120.2 99.3,119.7 98.5,118.9 L89.3,109.7 C87.6,108 87.6,105.2 89.3,103.5 C91,101.8 93.8,101.8 95.5,103.5 L101.6,109.6 L115.4,95.8 C117.1,94.1 119.9,94.1 121.6,95.8 C123.3,97.5 123.3,100.3 121.6,102 L104.7,118.9 C103.9,119.8 102.7,120.2 101.6,120.2 Z" id="Shape" fill="#FFFFFF"></path>
        </g>
    </g>
</svg>