<?xml version="1.0" encoding="UTF-8"?>
<svg width="101px" height="148px" viewBox="0 0 101 148" version="1.1" xmlns="http://www.w3.org/2000/svg" xmlns:xlink="http://www.w3.org/1999/xlink">
    <!-- Generator: Sketch 51.2 (57519) - http://www.bohemiancoding.com/sketch -->
    <title>Tea</title>
    <desc>Created with Sketch.</desc>
    <defs></defs>
    <g id="Page-1" stroke="none" stroke-width="1" fill="none" fill-rule="evenodd">
        <g id="Tea" fill-rule="nonzero">
            <path d="M83.1,121.8 C73.4,121.8 65.5,113.9 65.5,104.2 C65.5,94.5 73.4,86.6 83.1,86.6 C92.8,86.6 100.7,94.5 100.7,104.2 C100.7,113.9 92.8,121.8 83.1,121.8 Z M83.1,94.7 C77.9,94.7 73.6,98.9 73.6,104.2 C73.6,109.5 77.8,113.7 83.1,113.7 C88.4,113.7 92.6,109.5 92.6,104.2 C92.6,98.9 88.3,94.7 83.1,94.7 Z" id="Shape" fill="#3973F4"></path>
            <path d="M83.1,84.8 L83.1,115.6 C83.1,122.1 81.1,128.1 77.8,133 C72.2,141.3 62.7,146.7 52,146.7 L31.2,146.7 C14,146.7 0,132.8 0,115.6 L0,84.8 C0,80.9 3.2,77.8 7.1,77.8 L76.1,77.8 C79.9,77.8 83.1,80.9 83.1,84.8 Z" id="Shape" fill="#4988FD"></path>
            <path d="M77.7,133.6 C72.1,141.9 62.6,147.3 51.9,147.3 L31.8,147.3 C22.1,147.3 13.4,143 7.5,136.2 C7.6,134.1 9.6,132.3 12,132.9 C16.8,134.2 22.4,134.9 28.2,134.9 L51.3,134.9 C59.4,134.9 66.9,133.5 72.8,131.1 C75.2,130.4 77.2,131.8 77.7,133.6 Z" id="Shape" fill="#3973F4"></path>
            <path d="M68.7,108.7 L68.7,123.1 C68.7,124.7 67.3,125.9 65.7,125.9 L51.8,125.9 C50.1,125.9 48.8,124.6 48.8,123.1 L48.8,108.7 C48.8,107.9 49.1,107.2 49.7,106.6 L53.2,103 C53.8,102.3 54.8,102 55.7,102 L61.9,102 C62.9,102 63.8,102.4 64.4,103 L67.9,106.6 C68.4,107.2 68.7,108 68.7,108.7 Z" id="Shape" fill="#3973F4"></path>
            <path d="M65.6,105.1 L65.6,118.3 C65.6,119.7 64.5,120.9 63,120.9 L51.3,120.9 C49.9,120.9 48.7,119.8 48.7,118.3 L48.7,105.1 C48.7,104.4 49,103.7 49.4,103.2 L52.3,100 C52.8,99.4 53.6,99 54.4,99 L59.6,99 C60.4,99 61.2,99.3 61.7,100 L64.6,103.2 C65.3,103.7 65.6,104.4 65.6,105.1 Z" id="Shape" fill="#C5DCFA"></path>
            <path d="M57.4,100.6 C56.6,100.6 55.9,99.9 55.9,99.1 L55.9,77.4 C55.9,76.6 56.6,75.9 57.4,75.9 C58.2,75.9 58.9,76.6 58.9,77.4 L58.9,99.1 C58.9,100 58.2,100.6 57.4,100.6 Z" id="Shape" fill="#DFECFD"></path>
            <g id="Group" transform="translate(16.000000, 77.000000)" fill="#DFECFD">
                <path d="M5.4,26.8 C2.6,26.8 0.4,29.1 0.4,31.8 C0.4,34.6 2.7,36.8 5.4,36.8 C8.2,36.8 10.4,34.5 10.4,31.8 C10.5,29 8.2,26.8 5.4,26.8 Z" id="Shape"></path>
                <path d="M30.9,0.8 L30.9,9.9 C30.9,12.7 28.6,14.9 25.9,14.9 C23.1,14.9 20.9,12.6 20.9,9.9 L20.9,8.8 C20.9,7.4 20.3,6.2 19.4,5.2 C18.5,4.3 17.2,3.7 15.8,3.7 C13,3.7 10.8,6 10.8,8.7 L10.8,16.2 C10.8,17.6 10.2,18.8 9.3,19.8 C8.4,20.7 7.1,21.3 5.7,21.3 C2.9,21.3 0.7,19 0.7,16.3 L0.7,0.9 L30.9,0.9 L30.9,0.8 Z" id="Shape"></path>
            </g>
            <path d="M41.5,68.3 C40.9,68.3 40.4,68 40.2,67.5 C39.8,66.8 40.1,65.9 40.9,65.5 C44.7,63.7 45.4,58 44,53.6 C43.7,52.8 44.2,52 44.9,51.7 C45.7,51.4 46.5,51.9 46.8,52.6 C48.6,58.1 47.7,65.4 42.2,68.1 C42,68.2 41.8,68.3 41.5,68.3 Z" id="Shape" fill="#C5DCFA"></path>
            <path d="M38,59.3 C37.9,59.3 37.9,59.3 37.8,59.3 C37,59.2 36.4,58.5 36.5,57.6 C36.8,55.2 35.5,53 34.1,50.5 C31.6,46.3 28.5,41 33.7,33 C34.2,32.3 35.1,32.1 35.8,32.6 C36.5,33.1 36.7,34 36.2,34.7 C32,41.1 34.3,44.9 36.7,49 C38.3,51.7 40,54.5 39.5,58 C39.4,58.7 38.8,59.3 38,59.3 Z" id="Shape" fill="#C5DCFA"></path>
            <path d="M42.8,47.5 C42.2,47.5 41.6,47.1 41.4,46.5 C38.2,38.4 43.5,33.9 48.1,29.9 C50.2,28.1 52.1,26.4 53.4,24.4 C57,18.8 56,11.3 51.2,7.4 C46.9,3.9 41.6,2.5 36.7,3.6 C32.6,4.5 29.2,7 27.4,10.6 C25.2,15 26.6,18.9 28.9,20.8 C30.4,22 32.9,22.8 35.1,21 C35.9,20.4 36.2,19.6 36.2,18.9 C36.2,18.5 36,18.1 35.7,17.9 C35,17.5 34.7,16.6 35.1,15.9 C35.5,15.2 36.4,14.9 37.1,15.3 C38.3,16 39,17.2 39.1,18.6 C39.2,20.3 38.4,22 36.9,23.2 C34,25.6 30.1,25.5 27,23 C23.7,20.4 21.8,15.1 24.7,9.1 C26.9,4.7 31,1.6 36,0.5 C41.8,-0.8 48.1,0.8 53.1,4.9 C59.1,9.7 60.3,19 56,25.9 C54.5,28.2 52.3,30.2 50.2,32 C45.8,35.8 42,39.2 44.3,45.3 C44.6,46.1 44.2,46.9 43.4,47.2 C43.2,47.5 43,47.5 42.8,47.5 Z" id="Shape" fill="#C5DCFA"></path>
        </g>
    </g>
</svg>