<?xml version="1.0" encoding="UTF-8"?>
<svg width="114px" height="146px" viewBox="0 0 114 146" version="1.1" xmlns="http://www.w3.org/2000/svg" xmlns:xlink="http://www.w3.org/1999/xlink">
    <!-- Generator: Sketch 51.2 (57519) - http://www.bohemiancoding.com/sketch -->
    <title>Text_File</title>
    <desc>Created with Sketch.</desc>
    <defs></defs>
    <g id="Page-1" stroke="none" stroke-width="1" fill="none" fill-rule="evenodd">
        <g id="Text_File" fill-rule="nonzero">
            <path d="M112.6,36.1 L113.8,139.7 C113.8,143.2 111,146 107.5,146 L6.7,146 C3.2,146 0.4,143.2 0.4,139.7 L0.4,6.5 C0.4,3 3.2,0.2 6.7,0.2 L79.8,0.2 L112.6,36.1 Z" id="Shape" fill="#4988FD"></path>
            <path d="M79.8,0.2 L79.8,28.8 C79.8,32.7 83.3,36.1 87.2,36.1 L112.6,36.1" id="Shape" fill="#3973F4"></path>
            <path d="M35.3,118.3 C31.2,118.3 28.7,117.5 27,115.8 C24.1,112.9 24.2,108 24.4,99.2 C24.4,96.9 24.5,94.3 24.5,91.4 C24.5,88.8 22.5,87.6 20.7,87.6 C19.6,87.6 18.7,86.7 18.7,85.6 L18.7,85.2 C18.7,84.1 19.6,83.2 20.7,83.2 C22.5,83.2 24.5,82 24.5,79.4 C24.5,77 24.5,74.9 24.4,72.9 L24.6,61 C24.6,60.9 24.6,60.8 24.6,60.8 C25.4,54.8 28.4,52.5 35.4,52.5 C36.5,52.5 37.4,53.4 37.4,54.5 C37.4,55.6 36.5,56.5 35.4,56.5 C29.9,56.5 29.1,57.9 28.6,61.2 L28.4,72.9 C28.4,74.8 28.5,77 28.5,79.4 C28.5,81.9 27.5,84 25.8,85.4 C27.5,86.8 28.5,88.9 28.5,91.4 C28.5,94.3 28.5,96.9 28.4,99.2 C28.3,106.4 28.2,111.2 29.9,112.9 C30.8,113.8 32.5,114.2 35.4,114.2 C36.5,114.2 37.4,115.1 37.4,116.2 C37.4,117.3 36.4,118.3 35.3,118.3 Z" id="Shape" fill="#C5DCFA"></path>
            <path d="M74.5,118.3 C78.6,118.3 81.1,117.5 82.8,115.8 C85.7,112.9 85.6,108 85.4,99.2 C85.4,96.9 85.3,94.3 85.3,91.4 C85.3,88.8 87.3,87.6 89.1,87.6 C90.2,87.6 91.1,86.7 91.1,85.6 L91.1,85.2 C91.1,84.1 90.2,83.2 89.1,83.2 C87.3,83.2 85.3,82 85.3,79.4 C85.3,77 85.3,74.9 85.4,72.9 L85.2,61 C85.2,60.9 85.2,60.8 85.2,60.8 C84.4,54.8 81.4,52.5 74.4,52.5 C73.3,52.5 72.4,53.4 72.4,54.5 C72.4,55.6 73.3,56.5 74.4,56.5 C79.9,56.5 80.7,57.9 81.2,61.2 L81.4,72.9 C81.4,74.8 81.3,77 81.3,79.4 C81.3,81.9 82.3,84 84,85.4 C82.3,86.8 81.3,88.9 81.3,91.4 C81.3,94.3 81.3,96.9 81.4,99.2 C81.5,106.4 81.6,111.2 79.9,112.9 C79,113.8 77.3,114.2 74.4,114.2 C73.3,114.2 72.4,115.1 72.4,116.2 C72.4,117.3 73.4,118.3 74.5,118.3 Z" id="Shape" fill="#C5DCFA"></path>
            <path d="M66.7,66 C66.7,66.6 66.6,67.1 66.4,67.7 L65.1,70.9 L64,73.7 L52.8,102.7 L52.3,104.1 L50.9,105.2 L46.6,108.5 C45.8,109.1 44.5,108.6 44.4,107.6 L43.8,102.5 L43.6,100.8 L44.1,99.4 L55.3,70.4 L56.4,67.6 L57.7,64.4 C58.6,62 61.4,60.8 63.8,61.7 C65.5,62.3 66.7,64.1 66.7,66 Z" id="Shape" fill="#C5DCFA"></path>
            <polygon id="Shape" fill="#DFECFD" points="52.8 102.8 52.3 104.2 50.9 105.2 43.7 102.5 43.5 100.8 44 99.4"></polygon>
            <polygon id="Shape" fill="#DFECFD" points="56.4 67.5 65.1 70.9 64 73.7 55.3 70.3"></polygon>
        </g>
    </g>
</svg>