<?xml version="1.0" encoding="UTF-8"?>
<svg width="106px" height="145px" viewBox="0 0 106 145" version="1.1" xmlns="http://www.w3.org/2000/svg" xmlns:xlink="http://www.w3.org/1999/xlink">
    <!-- Generator: Sketch 51.2 (57519) - http://www.bohemiancoding.com/sketch -->
    <title>To_Do</title>
    <desc>Created with Sketch.</desc>
    <defs></defs>
    <g id="Page-1" stroke="none" stroke-width="1" fill="none" fill-rule="evenodd">
        <g id="To_Do" fill-rule="nonzero">
            <path d="M16.6,9.2 L101.4,9.2 C103.5,9.2 105.2,10.9 105.2,13 L105.2,141.2 C105.2,143.3 103.5,145 101.4,145 L4.2,145 C2.1,145 0.4,143.3 0.4,141.2 L0.4,13 C0.4,10.9 2.1,9.2 4.2,9.2 L9.8,9.2" id="Shape" fill="#4988FD"></path>
            <path d="M9.8,9.2 L11.3,9.2" id="Shape" fill="#FFFFFF"></path>
            <path d="M99.6,21.4 L99.6,136.6 C99.6,138.3 98.2,139.6 96.6,139.6 L9.9,139.6 C8.2,139.6 6.9,138.3 6.9,136.6 L6.9,21.4 C6.9,19.7 8.2,18.4 9.9,18.4 L96.6,18.4 C98.2,18.4 99.6,19.7 99.6,21.4 Z" id="Shape" fill="#FFFFFF"></path>
            <path d="M82.7,8.3 C81.7,6.1 79.5,4.5 76.9,4.5 L58.3,4.5 C57.9,2 55.7,0 53,0 C50.3,0 48.1,1.9 47.7,4.5 L28.9,4.5 C27.2,4.5 25.6,5.2 24.4,6.4 C23.8,7 23.4,7.6 23.1,8.3 C22.8,9.1 22.6,9.9 22.6,10.8 C22.6,14.3 25.4,17.1 28.9,17.1 L77,17.1 C78.8,17.1 80.3,16.4 81.5,15.2 C82.6,14.1 83.4,12.5 83.4,10.7 C83.2,10 83,9.1 82.7,8.3 Z M52.9,3.5 C54,3.5 54.9,4.4 54.9,5.5 C54.9,6.6 54,7.5 52.9,7.5 C51.8,7.5 50.9,6.6 50.9,5.5 C50.9,4.4 51.8,3.5 52.9,3.5 Z" id="Shape" fill="#C5DCFA"></path>
            <g id="Group" transform="translate(18.000000, 37.000000)">
                <g transform="translate(1.000000, 0.000000)">
                    <g transform="translate(25.000000, 4.000000)" id="Shape">
                        <path d="M41.4,4.7 L34.2,4.7 C33.1,4.7 32.2,3.8 32.2,2.7 C32.2,1.6 33.1,0.7 34.2,0.7 L41.4,0.7 C42.5,0.7 43.4,1.6 43.4,2.7 C43.4,3.8 42.5,4.7 41.4,4.7 Z" fill="#C5DCFA"></path>
                        <path d="M29,4.7 L13,4.7 C11.9,4.7 11,3.8 11,2.7 C11,1.6 11.9,0.7 13,0.7 L29.1,0.7 C30.2,0.7 31.1,1.6 31.1,2.7 C31.1,3.8 30.1,4.7 29,4.7 Z" fill="#89A8D1"></path>
                        <path d="M7.4,4.7 L2.1,4.7 C1,4.7 0.1,3.8 0.1,2.7 C0.1,1.6 1,0.7 2.1,0.7 L7.4,0.7 C8.5,0.7 9.4,1.6 9.4,2.7 C9.4,3.8 8.5,4.7 7.4,4.7 Z" fill="#C5DCFA"></path>
                        <path d="M21,13.7 L18.1,13.7 C17,13.7 16.1,12.8 16.1,11.7 C16.1,10.6 17,9.7 18.1,9.7 L21,9.7 C22.1,9.7 23,10.6 23,11.7 C23,12.8 22.1,13.7 21,13.7 Z" fill="#C5DCFA"></path>
                        <path d="M11.7,13.7 L2.1,13.7 C1,13.7 0.1,12.8 0.1,11.7 C0.1,10.6 1,9.7 2.1,9.7 L11.7,9.7 C12.8,9.7 13.7,10.6 13.7,11.7 C13.7,12.8 12.8,13.7 11.7,13.7 Z" fill="#89A8D1"></path>
                    </g>
                    <g>
                        <circle id="Oval" fill="#21D3AC" cx="9.7" cy="10.6" r="9.7"></circle>
                        <path d="M7.9,14.8 C7.5,14.8 7.1,14.7 6.8,14.4 L3.9,11.5 C3.3,10.9 3.3,10 3.9,9.4 C4.5,8.8 5.4,8.8 6,9.4 L7.9,11.3 L12.7,6.5 C13.3,5.9 14.2,5.9 14.8,6.5 C15.4,7.1 15.4,8 14.8,8.6 L8.9,14.5 C8.7,14.7 8.3,14.8 7.9,14.8 Z" id="Shape" fill="#FFFFFF"></path>
                    </g>
                </g>
                <g transform="translate(0.000000, 33.000000)">
                    <g transform="translate(26.000000, 4.000000)" id="Shape">
                        <path d="M41.4,4.2 L34.2,4.2 C33.1,4.2 32.2,3.3 32.2,2.2 C32.2,1.1 33.1,0.2 34.2,0.2 L41.4,0.2 C42.5,0.2 43.4,1.1 43.4,2.2 C43.4,3.3 42.5,4.2 41.4,4.2 Z" fill="#C5DCFA"></path>
                        <path d="M29,4.2 L13,4.2 C11.9,4.2 11,3.3 11,2.2 C11,1.1 11.9,0.2 13,0.2 L29.1,0.2 C30.2,0.2 31.1,1.1 31.1,2.2 C31.1,3.3 30.1,4.2 29,4.2 Z" fill="#89A8D1"></path>
                        <path d="M7.4,4.2 L2.1,4.2 C1,4.2 0.1,3.3 0.1,2.2 C0.1,1.1 1,0.2 2.1,0.2 L7.4,0.2 C8.5,0.2 9.4,1.1 9.4,2.2 C9.4,3.3 8.5,4.2 7.4,4.2 Z" fill="#C5DCFA"></path>
                        <path d="M21,13.2 L18.1,13.2 C17,13.2 16.1,12.3 16.1,11.2 C16.1,10.1 17,9.2 18.1,9.2 L21,9.2 C22.1,9.2 23,10.1 23,11.2 C23,12.3 22.1,13.2 21,13.2 Z" fill="#89A8D1"></path>
                        <path d="M11.7,13.2 L2.1,13.2 C1,13.2 0.1,12.3 0.1,11.2 C0.1,10.1 1,9.2 2.1,9.2 L11.7,9.2 C12.8,9.2 13.7,10.1 13.7,11.2 C13.7,12.3 12.8,13.2 11.7,13.2 Z" fill="#C5DCFA"></path>
                    </g>
                    <g>
                        <circle id="Oval" fill="#21D3AC" cx="10.6" cy="10" r="9.8"></circle>
                        <path d="M8.9,14.3 C8.5,14.3 8.1,14.1 7.8,13.9 L4.9,11 C4.3,10.4 4.3,9.5 4.9,8.9 C5.5,8.3 6.4,8.3 7,8.9 L8.9,10.8 L13.7,6 C14.3,5.4 15.2,5.4 15.8,6 C16.4,6.6 16.4,7.5 15.8,8.1 L9.9,14 C9.7,14.2 9.3,14.3 8.9,14.3 Z" id="Shape" fill="#FFFFFF"></path>
                    </g>
                </g>
                <g transform="translate(0.000000, 65.000000)">
                    <g transform="translate(26.000000, 4.000000)" id="Shape">
                        <path d="M29,4.7 L13,4.7 C11.9,4.7 11,3.8 11,2.7 C11,1.6 11.9,0.7 13,0.7 L29.1,0.7 C30.2,0.7 31.1,1.6 31.1,2.7 C31.1,3.8 30.1,4.7 29,4.7 Z" fill="#C5DCFA"></path>
                        <path d="M7.4,4.7 L2.1,4.7 C1,4.7 0.1,3.8 0.1,2.7 C0.1,1.6 1,0.7 2.1,0.7 L7.4,0.7 C8.5,0.7 9.4,1.6 9.4,2.7 C9.4,3.8 8.5,4.7 7.4,4.7 Z" fill="#89A8D1"></path>
                        <path d="M21,13.7 L18.1,13.7 C17,13.7 16.1,12.8 16.1,11.7 C16.1,10.6 17,9.7 18.1,9.7 L21,9.7 C22.1,9.7 23,10.6 23,11.7 C23,12.8 22.1,13.7 21,13.7 Z" fill="#C5DCFA"></path>
                        <path d="M11.7,13.7 L2.1,13.7 C1,13.7 0.1,12.8 0.1,11.7 C0.1,10.6 1,9.7 2.1,9.7 L11.7,9.7 C12.8,9.7 13.7,10.6 13.7,11.7 C13.7,12.8 12.8,13.7 11.7,13.7 Z" fill="#89A8D1"></path>
                    </g>
                    <g>
                        <circle id="Oval" fill="#21D3AC" cx="10.7" cy="10.6" r="9.8"></circle>
                        <path d="M8.9,14.8 C8.5,14.8 8.1,14.6 7.8,14.4 L4.9,11.5 C4.3,10.9 4.3,10 4.9,9.4 C5.5,8.8 6.4,8.8 7,9.4 L8.9,11.3 L13.7,6.5 C14.3,5.9 15.2,5.9 15.8,6.5 C16.4,7.1 16.4,8 15.8,8.6 L9.9,14.5 C9.7,14.7 9.3,14.8 8.9,14.8 Z" id="Shape" fill="#FFFFFF"></path>
                    </g>
                </g>
            </g>
        </g>
    </g>
</svg>