<?xml version="1.0" encoding="UTF-8"?>
<svg width="113px" height="146px" viewBox="0 0 113 146" version="1.1" xmlns="http://www.w3.org/2000/svg" xmlns:xlink="http://www.w3.org/1999/xlink">
    <!-- Generator: Sketch 51.2 (57519) - http://www.bohemiancoding.com/sketch -->
    <title>Trash</title>
    <desc>Created with Sketch.</desc>
    <defs></defs>
    <g id="Page-1" stroke="none" stroke-width="1" fill="none" fill-rule="evenodd">
        <g id="Trash" fill-rule="nonzero">
            <path d="M74.4,25 L38.3,25 C36.6,25 35.2,23.6 35.2,21.9 L35.2,9.7 C35.2,4.5 39.4,0.3 44.6,0.3 L68.1,0.3 C73.3,0.3 77.5,4.5 77.5,9.7 L77.5,21.9 C77.5,23.6 76.1,25 74.4,25 Z M41.4,18.8 L71.3,18.8 L71.3,9.7 C71.3,7.9 69.9,6.5 68.1,6.5 L44.6,6.5 C42.8,6.5 41.4,7.9 41.4,9.7 L41.4,18.8 Z" id="Shape" fill="#4988FD"></path>
            <path d="M74.4,25 L38.3,25 C36.6,25 35.2,23.6 35.2,21.9 L35.2,9.7 C35.2,4.5 39.4,0.3 44.6,0.3 L68.1,0.3 C73.3,0.3 77.5,4.5 77.5,9.7 L77.5,21.9 C77.5,23.6 76.1,25 74.4,25 Z M41.4,18.8 L71.3,18.8 L71.3,9.7 C71.3,7.9 69.9,6.5 68.1,6.5 L44.6,6.5 C42.8,6.5 41.4,7.9 41.4,9.7 L41.4,18.8 Z" id="Shape" fill="#4988FD"></path>
            <path d="M90.4,145.1 L22.2,145.1 C14.3,145.1 7.9,138.7 7.9,130.8 L7.9,35.1 L104.7,35.1 L104.7,130.8 C104.7,138.7 98.3,145.1 90.4,145.1 Z" id="Shape" fill="#4988FD"></path>
            <rect id="Rectangle-path" fill="#2767F4" x="8" y="35.1" width="96.8" height="7"></rect>
            <path d="M109.1,35.1 L3.6,35.1 C1.9,35.1 0.5,33.7 0.5,32 L0.5,29.2 C0.5,22.2 6.1,16.6 13.1,16.6 L99.6,16.6 C106.6,16.6 112.2,22.2 112.2,29.2 L112.2,32 C112.2,33.7 110.8,35.1 109.1,35.1 Z" id="Shape" fill="#6097FD"></path>
            <path d="M28.6,126.4 C26.2,126.4 24.2,124.6 24.2,122.4 L24.2,53.5 C24.2,51.3 26.1,49.5 28.6,49.5 C31,49.5 33,51.3 33,53.5 L33,122.4 C33,124.7 31,126.4 28.6,126.4 Z" id="Shape" fill="#2767F4"></path>
            <path d="M55.7,126.4 C53.3,126.4 51.3,124.6 51.3,122.4 L51.3,53.5 C51.3,51.3 53.2,49.5 55.7,49.5 C58.2,49.5 60.1,51.3 60.1,53.5 L60.1,122.4 C60.1,124.7 58.1,126.4 55.7,126.4 Z" id="Shape" fill="#2767F4"></path>
            <path d="M82.8,126.4 C80.4,126.4 78.4,124.6 78.4,122.4 L78.4,53.5 C78.4,51.3 80.3,49.5 82.8,49.5 C85.2,49.5 87.2,51.3 87.2,53.5 L87.2,122.4 C87.1,124.7 85.2,126.4 82.8,126.4 Z" id="Shape" fill="#2767F4"></path>
        </g>
    </g>
</svg>