<?xml version="1.0" encoding="UTF-8"?>
<svg width="142px" height="125px" viewBox="0 0 142 125" version="1.1" xmlns="http://www.w3.org/2000/svg" xmlns:xlink="http://www.w3.org/1999/xlink">
    <!-- Generator: Sketch 51.2 (57519) - http://www.bohemiancoding.com/sketch -->
    <title>treadmill</title>
    <desc>Created with Sketch.</desc>
    <defs></defs>
    <g id="Page-1" stroke="none" stroke-width="1" fill="none" fill-rule="evenodd">
        <g id="treadmill" fill-rule="nonzero">
            <g id="Group">
                <path d="M139.5,124.9 L2.2,124.9 C1.4,124.9 0.7,124.2 0.7,123.4 C0.7,122.6 1.4,121.9 2.2,121.9 L139.5,121.9 C140.3,121.9 141,122.6 141,123.4 C141,124.2 140.4,124.9 139.5,124.9 Z" id="Shape" fill="#C5DCFA"></path>
                <path d="M27.2,123.4 C26.2,123.4 25.4,122.6 25.4,121.6 L25.4,113.8 C25.4,112.8 26.2,112 27.2,112 C28.2,112 29,112.8 29,113.8 L29,121.6 C29,122.6 28.2,123.4 27.2,123.4 Z" id="Shape" fill="#3973F4"></path>
                <path d="M126.7,123.4 C125.7,123.4 124.9,122.6 124.9,121.6 L124.9,113.8 C124.9,112.8 125.7,112 126.7,112 C127.7,112 128.5,112.8 128.5,113.8 L128.5,121.6 C128.5,122.6 127.7,123.4 126.7,123.4 Z" id="Shape" fill="#3973F4"></path>
                <path d="M124.7,116.3 C106.1,116.3 87.5,116.3 68.8,116.3 C54.3,116.3 39.8,116.3 25.4,116.3 C18,116.3 12,111.8 9.7,105.5 C9.6,105.2 9.5,104.9 9.4,104.6 C8.8,102.7 8.6,100.7 8.7,98.6 C8.9,95.4 9.8,92.3 11.9,90.1 C14.1,87.8 14.7,85.1 15.2,82.2 C18.1,64.7 21,47.1 24,29.6 L40.8,29.6 C40.8,29.7 40.8,29.8 40.7,30 C39,40.2 34.2,68.8 32.5,79.2 C32.2,81.2 33.7,83.1 35.8,83.1 C65,83.1 99.1,83.1 123.9,83.1 C130.2,83.1 135.6,85.8 138.7,90.4 C138.8,90.5 138.8,90.5 138.8,90.6 C139.6,91.8 140.2,93 140.6,94.4 C144.1,105.3 136.2,116.3 124.7,116.3 Z" id="Shape" fill="#3973F4"></path>
                <path d="M122.6,111.9 C104,112 85.4,111.9 66.7,111.9 C52.2,111.9 37.8,111.9 23.3,111.9 C17.4,111.9 12.3,109 9.3,104.6 C8.7,102.7 8.5,100.7 8.6,98.6 C8.8,95.4 9.7,92.3 11.8,90.1 C14,87.8 14.6,85.1 15.1,82.2 C18,64.7 20.9,47.1 23.9,29.6 L40.7,29.6 C40.7,29.7 40.7,29.8 40.6,30 C38.9,40.2 34.1,68.8 32.4,79.2 C32.1,81.2 33.6,83.1 35.7,83.1 C64.9,83.1 99,83.1 123.8,83.1 C130.1,83.1 135.5,85.8 138.6,90.4 C141.9,101.1 134,111.9 122.6,111.9 Z" id="Shape" fill="#4988FD"></path>
                <path d="M40.7,30 C40.3,32.3 39.9,34.5 39.6,36.8 C37.6,36.8 35.3,36.8 31.1,36.8 C27.9,36.8 25.3,36.5 23,36 C23.3,33.9 23.7,31.8 24.1,29.7 L40.7,30 Z" id="Shape" fill="#3973F4"></path>
                <path d="M47.2,25.4 C48.3,25.4 49.5,25.4 51,25.4 C53.3,25.4 55.2,27.3 55.2,29.6 C55.2,31.9 53.3,33.8 51,33.8 C51,33.8 51,33.8 51,33.8 C46.8,33.8 44.5,33.8 42.5,33.8 C39.7,33.8 37.6,33.8 31.6,33.8 C28.4,33.8 25.8,33.5 23.5,33 C10.3,29.9 1.4,19.1 0.5,4.7 C0.3,2.4 2.1,0.4 4.4,0.2 C6.7,1.14547261e-13 8.7,1.8 8.9,4.1 C9.6,14.8 15.8,22.5 25.4,24.8 C25.9,24.9 26.5,25 27.1,25.1" id="Shape" fill="#C5DCFA"></path>
            </g>
            <circle id="Oval" fill="#3973F4" cx="26.1" cy="100" r="10.5"></circle>
            <circle id="Oval" fill="#C5DCFA" cx="26.1" cy="100" r="4.7"></circle>
            <circle id="Oval" fill="#3973F4" cx="124.1" cy="100" r="10.5"></circle>
            <circle id="Oval" fill="#C5DCFA" cx="124.1" cy="100" r="4.7"></circle>
        </g>
    </g>
</svg>