<?xml version="1.0" encoding="UTF-8"?>
<svg width="150px" height="142px" viewBox="0 0 150 142" version="1.1" xmlns="http://www.w3.org/2000/svg" xmlns:xlink="http://www.w3.org/1999/xlink">
    <!-- Generator: Sketch 51.2 (57519) - http://www.bohemiancoding.com/sketch -->
    <title>Upload</title>
    <desc>Created with Sketch.</desc>
    <defs></defs>
    <g id="Page-1" stroke="none" stroke-width="1" fill="none" fill-rule="evenodd">
        <g id="Upload" fill-rule="nonzero">
            <g id="Group" transform="translate(0.000000, 41.000000)">
                <g id="Shape">
                    <path d="M149.7,90.2 L149.7,94.1 C149.7,97.6 146.7,100.5 143,100.5 L7.5,100.5 C3.8,100.5 0.8,97.6 0.8,94.1 L0.8,90.2 L62.1,90.2 C62.6,91.6 64,92.7 65.7,92.7 L84.8,92.7 C86.5,92.7 87.9,91.7 88.4,90.2 L149.7,90.2 Z" fill="#2767F4"></path>
                    <path d="M149.7,90.2 C149.7,93.7 146.7,96.6 143,96.6 L7.5,96.6 C3.8,96.6 0.8,93.7 0.8,90.2 L62.1,90.2 C62.6,91.6 64,92.7 65.7,92.7 L84.8,92.7 C86.5,92.7 87.9,91.7 88.4,90.2 L149.7,90.2 Z" fill="#3973F4"></path>
                    <path d="M142.1,90.2 L8.5,90.2 L8.5,5.6 C8.5,2.9 10.7,0.7 13.4,0.7 L137.3,0.7 C140,0.7 142.2,2.9 142.2,5.6 L142.1,90.2 Z" fill="#4988FD"></path>
                    <polyline fill="#FFFFFF" points="108.8 90.5 14.7 90.5 14.7 7.7 135.4 7.7 135.4 90.5 122.7 90.5"></polyline>
                    <path d="M14.7,7.7 L135.4,7.7" fill="#FFFFFF"></path>
                </g>
                <g transform="translate(27.000000, 64.000000)" id="Shape">
                    <path d="M87.7,13.3 L7.9,13.3 C6,13.3 4.5,11.8 4.5,9.9 L4.5,7.7 C4.5,5.8 6,4.3 7.9,4.3 L87.7,4.3 C89.6,4.3 91.1,5.8 91.1,7.7 L91.1,9.9 C91.1,11.8 89.6,13.3 87.7,13.3 Z" fill="#FFFFFF"></path>
                    <path d="M86.6,4.3 C89.1,4.3 91.1,6.3 91.1,8.8 C91.1,11.3 89.1,13.3 86.6,13.3 L9,13.3 C6.5,13.3 4.5,11.3 4.5,8.8 C4.5,6.3 6.5,4.3 9,4.3 L86.6,4.3 Z M86.6,0.3 L9,0.3 C4.3,0.3 0.5,4.1 0.5,8.8 C0.5,13.5 4.3,17.3 9,17.3 L86.6,17.3 C91.3,17.3 95.1,13.5 95.1,8.8 C95.1,4.1 91.3,0.3 86.6,0.3 Z" fill="#C5DCFA"></path>
                </g>
                <path d="M62.5,74.8 L36.1,74.8 C35.3,74.8 34.7,74.2 34.7,73.4 L34.7,72.5 C34.7,71.7 35.3,71.1 36.1,71.1 L62.5,71.1 C63.3,71.1 63.9,71.7 63.9,72.5 L63.9,73.4 C63.9,74.2 63.3,74.8 62.5,74.8 Z" id="Shape" fill="#3973F4"></path>
            </g>
            <path d="M110.7,23.5 C119.6,23.5 126.8,30.7 126.8,39.6 C126.8,43.5 125.4,47.1 123.1,49.9 C120.1,53.4 115.7,55.7 110.7,55.7 L42.3,55.7 C40.2,55.7 38.3,55.3 36.5,54.6 C30.5,52.3 26.2,46.4 26.2,39.6 C26.2,32 31.5,25.6 38.5,23.9 C38.5,23.6 38.5,23.3 38.5,23 C38.5,10.6 48.5,0.6 60.9,0.6 C68.9,0.6 75.9,4.8 79.9,11.1 C83.1,9.1 86.8,7.9 90.9,7.9 C100.5,7.9 108.5,14.6 110.7,23.5 Z" id="Shape" fill="#DFECFD"></path>
            <path d="M60.6,44.8 C65.2,41.8 70.7,40 76.6,40 C92.7,40 105.7,53 105.7,69.1 C105.7,85.2 92.7,98.2 76.6,98.2 C60.5,98.2 47.5,85.2 47.5,69.1 C47.4,59 52.6,50 60.6,44.8" id="Shape" fill="#D4E8FF"></path>
            <path d="M62,40.7 C66.4,37.8 71.7,36.1 77.4,36.1 C92.9,36.1 105.5,48.7 105.5,64.2 C105.5,79.7 92.9,92.3 77.4,92.3 C61.9,92.3 49.3,79.7 49.3,64.2 C49.3,54.4 54.3,45.7 62,40.7" id="Shape" fill="#21D3AC"></path>
            <path d="M79.3,50.2 L87.6,58.5 C88.6,59.5 88.6,61.2 87.6,62.2 C86.6,63.2 84.9,63.2 83.9,62.2 L80.1,58.4 L80.1,76.4 C80.1,77.9 78.9,79 77.5,79 C76,79 74.9,77.8 74.9,76.4 L74.9,58.4 L71.1,62.2 C70.1,63.2 68.4,63.2 67.4,62.2 C66.9,61.7 66.6,61 66.6,60.3 C66.6,59.6 66.9,58.9 67.4,58.4 L75.7,50.1 C76.2,49.6 76.9,49.3 77.6,49.3 C78.3,49.3 78.8,49.7 79.3,50.2 Z" id="Shape" fill="#FFFFFF"></path>
        </g>
    </g>
</svg>