<?xml version="1.0" encoding="UTF-8"?>
<svg width="107px" height="178px" viewBox="0 0 107 178" version="1.1" xmlns="http://www.w3.org/2000/svg" xmlns:xlink="http://www.w3.org/1999/xlink">
    <!-- Generator: Sketch 51.2 (57519) - http://www.bohemiancoding.com/sketch -->
    <title>USB</title>
    <desc>Created with Sketch.</desc>
    <defs></defs>
    <g id="Page-1" stroke="none" stroke-width="1" fill="none" fill-rule="evenodd">
        <g id="USB" fill-rule="nonzero">
            <path d="M0.6,42 L0.6,93.4 C0.6,96.1 1.4,98.8 2.9,101 L16,117.6 C18.4,121.1 22.3,123.2 26.5,123.2 L45.5,123.2 C49.7,123.2 53.6,121.1 56,117.6 L69.1,101 C70.6,98.8 71.4,96.1 71.4,93.4 L71.4,42 L0.6,42 Z" id="Shape" fill="#4988FD"></path>
            <rect id="Rectangle-path" fill="#C5DCFA" x="8.5" y="0.7" width="55.2" height="41.3"></rect>
            <path d="M24.3,32 C22.7,32 21.4,30.7 21.4,29.1 L21.4,14.5 C21.4,12.9 22.7,11.6 24.3,11.6 C25.9,11.6 27.2,12.9 27.2,14.5 L27.2,29.1 C27.2,30.7 25.9,32 24.3,32 Z" id="Shape" fill="#FFFFFF"></path>
            <path d="M47.4,32 C45.8,32 44.5,30.7 44.5,29.1 L44.5,14.5 C44.5,12.9 45.8,11.6 47.4,11.6 C49,11.6 50.3,12.9 50.3,14.5 L50.3,29.1 C50.3,30.7 49,32 47.4,32 Z" id="Shape" fill="#FFFFFF"></path>
            <path d="M69.9,177.9 C49.3,177.9 32.6,161.2 32.6,140.6 L32.6,135.7 C32.6,133.6 34.3,131.9 36.4,131.9 C38.5,131.9 40.2,133.6 40.2,135.7 L40.2,140.6 C40.2,156.9 53.5,170.2 69.8,170.2 C86.1,170.2 99.4,156.9 99.4,140.6 L99.4,100.4 C99.4,98.3 101.1,96.6 103.2,96.6 C105.3,96.6 107,98.3 107,100.4 L107,140.6 C107.1,161.2 90.4,177.9 69.9,177.9 Z" id="Shape" fill="#C5DCFA"></path>
            <path d="M40.9,135.7 L31.7,135.7 C29.5,135.7 27.7,133.9 27.7,131.7 L27.7,123.2 L44.8,123.2 L44.8,131.7 C44.9,133.9 43.1,135.7 40.9,135.7 Z" id="Shape" fill="#2767F4"></path>
            <g id="Group" transform="translate(21.000000, 55.000000)" fill="#FFFFFF">
                <path d="M15.1,50.1 C13.5,50.1 12.2,48.8 12.2,47.2 L12.2,3.3 C12.2,1.7 13.5,0.4 15.1,0.4 C16.7,0.4 18,1.7 18,3.3 L18,47.2 C17.9,48.9 16.7,50.1 15.1,50.1 Z" id="Shape"></path>
                <path d="M15.1,36.9 C14.5,36.9 13.8,36.7 13.3,36.2 L1.9,26.7 C1.2,26.2 0.9,25.3 0.9,24.5 L0.9,15.1 C0.9,13.5 2.2,12.2 3.8,12.2 C5.4,12.2 6.7,13.5 6.7,15.1 L6.7,23.2 L17,31.8 C18.2,32.8 18.4,34.6 17.4,35.9 C16.7,36.6 15.9,36.9 15.1,36.9 Z" id="Shape"></path>
                <path d="M15.1,28.6 C14.3,28.6 13.5,28.3 12.9,27.6 C11.9,26.4 12,24.6 13.2,23.5 L23.8,14.5 L23.8,8 C23.8,6.4 25.1,5.1 26.7,5.1 C28.3,5.1 29.6,6.4 29.6,8 L29.6,15.8 C29.6,16.6 29.2,17.4 28.6,18 L17,27.9 C16.4,28.4 15.7,28.6 15.1,28.6 Z" id="Shape"></path>
            </g>
        </g>
    </g>
</svg>