<?xml version="1.0" encoding="UTF-8"?>
<svg width="149px" height="149px" viewBox="0 0 149 149" version="1.1" xmlns="http://www.w3.org/2000/svg" xmlns:xlink="http://www.w3.org/1999/xlink">
    <!-- Generator: Sketch 51.2 (57519) - http://www.bohemiancoding.com/sketch -->
    <title>USB_Stick</title>
    <desc>Created with Sketch.</desc>
    <defs></defs>
    <g id="Page-1" stroke="none" stroke-width="1" fill="none" fill-rule="evenodd">
        <g id="USB_Stick" fill-rule="nonzero">
            <g id="Group" transform="translate(87.000000, 0.000000)">
                <polyline id="Shape" fill="#C5DCFA" points="3.2 28.8 0.1 31.9 29.3 61.1 61.1 29.4 31.9 0.2 3.2 28.8"></polyline>
                <path d="M16.5,33.9 C15.7,33.9 15,33.6 14.4,33 C13.2,31.8 13.2,30 14.4,28.8 L27.7,15.5 C28.9,14.3 30.7,14.3 31.9,15.5 C33.1,16.7 33.1,18.5 31.9,19.7 L18.6,33 C18,33.6 17.3,33.9 16.5,33.9 Z" id="Shape" fill="#FFFFFF"></path>
                <path d="M29.3,46.7 C28.5,46.7 27.8,46.4 27.2,45.8 C26,44.6 26,42.8 27.2,41.6 L40.5,28.3 C41.7,27.1 43.5,27.1 44.7,28.3 C45.9,29.5 45.9,31.3 44.7,32.5 L31.4,45.8 C30.8,46.4 30.1,46.7 29.3,46.7 Z" id="Shape" fill="#FFFFFF"></path>
            </g>
            <path d="M121.4,60 L88.3,26.9 C85.1,23.7 79.9,23.7 76.7,26.9 L71.6,32 L4.8,98.8 C1.6,102 1.6,107.2 4.8,110.4 L37.9,143.5 C41.1,146.7 46.3,146.7 49.5,143.5 L121.4,71.6 C124.6,68.4 124.6,63.2 121.4,60 Z M36.4,121.9 C33.6,124.7 29.1,124.7 26.4,121.9 C23.7,119.1 23.6,114.6 26.4,111.9 C29.2,109.1 33.7,109.1 36.4,111.9 C39.2,114.6 39.2,119.1 36.4,121.9 Z" id="Shape" fill="#6097FD"></path>
            <path d="M121.4,60 L88.3,26.9 C85.1,23.7 79.9,23.7 76.7,26.9 L71.6,32 L4.8,98.8 C1.6,102 1.6,107.2 4.8,110.4 L37.9,143.5 C41.1,146.7 46.3,146.7 49.5,143.5 L121.4,71.6 C124.6,68.4 124.6,63.2 121.4,60 Z M36.4,121.9 C33.6,124.7 29.1,124.7 26.4,121.9 C23.7,119.1 23.6,114.6 26.4,111.9 C29.2,109.1 33.7,109.1 36.4,111.9 C39.2,114.6 39.2,119.1 36.4,121.9 Z" id="Shape" fill="#4988FD"></path>
            <path d="M29.2,134.7 L32.6,138.1 C31.7,139.7 30.6,141.2 29.3,142.5 C25.5,146.3 20.6,148.2 15.9,148.2 C11.7,148.2 7.7,146.7 4.6,143.6 C-1.9,137.1 -1.4,126 5.7,118.9 C7,117.6 8.5,116.4 10.1,115.6 C14.8,113 20.1,112.5 24.8,114.2 C26.9,114.9 28.8,116.1 30.4,117.8 C31.9,119.3 33,121 33.8,123 C33.9,123.1 33.9,123.3 33.9,123.4 C32.1,124.1 30.2,124 28.4,123.2 C28,122.5 27.4,121.8 26.8,121.2 C26.2,120.6 25.5,120.1 24.8,119.7 C21.6,117.7 17.4,117.6 13.7,119.2 C12,119.9 10.5,121 9.1,122.3 C3.9,127.5 3.4,135.5 8,140 C12.6,144.6 20.5,144.1 25.7,138.9 C26.7,137.9 27.6,136.7 28.3,135.4 C28.6,135.2 28.9,134.9 29.2,134.7 Z" id="Shape" fill="#3973F4"></path>
            <polyline id="Shape" fill="#3973F4" points="66.9 105.6 53.1 119.4 29.9 96.2 83.7 42.4 106.9 65.6 66.9 105.6"></polyline>
        </g>
    </g>
</svg>