<?xml version="1.0" encoding="UTF-8"?>
<svg width="147px" height="147px" viewBox="0 0 147 147" version="1.1" xmlns="http://www.w3.org/2000/svg" xmlns:xlink="http://www.w3.org/1999/xlink">
    <!-- Generator: Sketch 51.2 (57519) - http://www.bohemiancoding.com/sketch -->
    <title>User_male</title>
    <desc>Created with Sketch.</desc>
    <defs>
        <linearGradient x1="50.0186992%" y1="100.658521%" x2="50.0186992%" y2="45.3794212%" id="linearGradient-1">
            <stop stop-color="#4988FD" offset="0%"></stop>
            <stop stop-color="#3973F4" offset="100%"></stop>
        </linearGradient>
    </defs>
    <g id="Page-1" stroke="none" stroke-width="1" fill="none" fill-rule="evenodd">
        <g id="User_male" fill-rule="nonzero">
            <path d="M139.8,146.9 L7.8,146.9 C3.5,146.9 0.3,143.1 0.8,138.9 C2,130.3 3.9,128.4 16.8,123.2 L19.9,122 C25.8,119.7 33.7,116.7 44.1,112.3 C46.5,111.3 48.4,109.4 49.4,107.2 C50,105.9 50.3,104.5 50.3,103 L50.3,83.4 C50,83 49.7,82.6 49.4,82.2 C47.7,79.7 46.6,76.7 46.3,73.7 L44.6,72.9 C39.6,74.1 39.9,68.7 38.7,58.4 C38.2,54.1 38.8,53.2 40.7,52.6 L42.3,50.4 C32.6,28.4 37.5,14.7 47.1,9.8 C43.9,2.8 43.7,0.3 43.7,0.3 C43.7,0.3 64.1,3.7 71.1,2.3 C80,0.5 93.7,2.6 98.8,14.5 C107.3,17.8 110.6,23.2 111.3,29 C112.5,38.2 107.3,48.3 106.3,52.3 C106.4,52.5 106.5,52.6 106.6,52.8 C108,53.5 108.4,54.6 107.9,58.4 C106.7,68.2 107,74.3 102,72.9 L97.5,80.8 C97.3,81.7 97.2,82.1 97.1,82.7 C96.9,84.2 97,87.1 97,103.2 C97,105.1 97.5,107 98.5,108.6 C99.6,110.3 101.2,111.7 103.2,112.6 C103.3,112.6 103.3,112.7 103.4,112.7 C103.4,112.7 103.4,112.7 103.4,112.7 C115,117.5 123.4,120.7 129.4,123.1 C143.1,128.5 145.2,130.1 146.5,139.3 C147.4,143.1 144.1,146.9 139.8,146.9 Z" id="Shape" fill="#4988FD"></path>
            <path d="M106.5,52.1 C106.9,49.7 105.8,46.5 104.9,44.4 C104.8,44 104.6,43.7 104.4,43.3 C100.5,35.5 91.7,32.2 83.5,31.8 C62.3,30.7 60.3,34.8 53.7,28.7 C55.7,31.8 56,36.7 52.8,42.8 C50.6,47.1 46.3,49 42.5,50.2 C32.8,28.2 37.7,14.5 47.3,9.6 C44.1,2.6 43.9,0.1 43.9,0.1 C43.9,0.1 64.3,3.5 71.3,2.1 C80.2,0.3 93.9,2.4 99,14.3 C107.5,17.6 110.8,23 111.5,28.8 C112.7,38 107.5,48.1 106.5,52.1 Z" id="Shape" fill="#3973F4"></path>
            <path d="M17.5,123.2 C18.5,122.8 19.5,122.4 20.6,122" id="Shape" fill="#FFFFFF"></path>
            <path d="M134.8,146.9 C140,139 138,131.6 129.6,122.8 C143.3,128.2 145.4,129.8 146.7,139 C147.3,143.2 144,147 139.7,147 L134.8,147 L134.8,146.9 Z" id="Shape" fill="#3973F4"></path>
            <path d="M98.7,108.3 L98.7,112.1 L49.5,112.1 L49.5,107.1 C50.1,105.8 50.4,104.4 50.4,102.9 L50.4,83.3 C50.1,82.9 49.8,82.5 49.5,82.1 L49.5,81 C50.5,82.8 51.9,84.4 53.5,85.8 L68.9,96.6 C72.5,99.6 77.7,99.7 81.4,96.8 L95.8,83.8 C96.3,83.4 96.8,82.9 97.2,82.4 C97,83.9 97.1,86.8 97.1,102.9 C97.2,104.9 97.7,106.7 98.7,108.3 Z" id="Shape" fill="url(#linearGradient-1)"></path>
        </g>
    </g>
</svg>