<?xml version="1.0" encoding="UTF-8"?>
<svg width="125px" height="145px" viewBox="0 0 125 145" version="1.1" xmlns="http://www.w3.org/2000/svg" xmlns:xlink="http://www.w3.org/1999/xlink">
    <!-- Generator: Sketch 51.2 (57519) - http://www.bohemiancoding.com/sketch -->
    <title>User_female</title>
    <desc>Created with Sketch.</desc>
    <defs>
        <linearGradient x1="50.0613445%" y1="63.8778243%" x2="50.0613445%" y2="17.3635983%" id="linearGradient-1">
            <stop stop-color="#4988FD" offset="0%"></stop>
            <stop stop-color="#3973F4" offset="100%"></stop>
        </linearGradient>
    </defs>
    <g id="Page-1" stroke="none" stroke-width="1" fill="none" fill-rule="evenodd">
        <g id="User_female" fill-rule="nonzero">
            <g id="Group">
                <path d="M36.3,82.5 C37.4,83.9 38.7,85.4 40.2,86.8 C41.3,87.9 42.6,88.9 44,89.9 C44.9,90.5 45.7,91.1 46.6,91.8 C46.8,91.9 47,92.1 47.2,92.2 C47.5,92.4 47.7,92.6 48,92.8 L48,101.2 C47.9,101.1 47.7,100.9 47.6,100.8 C46.8,100 46,99.4 45.3,98.9 C44.1,98.1 42.8,97.3 41.6,96.6 C41.2,96.3 40.8,96.1 40.3,95.8 C36.4,93.4 32.8,90.9 32.6,88.2 C32.5,86.6 33.8,84.7 36.3,82.5 Z M122.3,131.9 C121.9,131 121.6,130 121.1,129.1 C117.4,121.1 111.2,113.7 102.8,109.5 C98.7,107.4 94.1,106.2 89.1,106.1 C87.6,106.1 86.3,106.1 85.2,106.1 C76.9,105.9 76,104.4 76,104.4 L76,90.5 C76,90.5 76,90.5 76,90.5 C84.8,83.3 92.2,74.7 94.3,63.7 C99.7,62.5 103.2,57.5 102.7,51.9 C102.5,49.4 100.9,47.2 100.9,44.7 C100.9,43.5 100.9,42.2 100.8,41 C100.8,40.2 100.7,39.4 100.7,38.5 C100.6,37.7 100.6,36.8 100.5,35.9 C100,31.8 98.9,27.5 96.2,22.5 C89.3,9.5 75.7,0.9 60.2,0.9 C57.1,0.9 54,1.3 51,2 C45.5,3.3 40.4,5.7 35.9,9 C35,9.7 34.1,10.4 33.3,11.1 C33.1,11.3 32.9,11.5 32.7,11.7 C27.8,16.2 24.1,22 22,28.3 C19.9,34.7 19.4,41.3 20.2,47.9 C20.2,48 20.2,48.2 20.2,48.3 C20.2,48.5 20.2,48.6 20.3,48.8 C20.5,50 20.8,49.8 20,50.9 C19.7,51.2 19.5,51.6 19.2,52.1 C18.1,54 17.4,56.6 18.4,59.6 C20.5,65.4 24.6,64.7 28.5,68 C28.3,68.1 28.1,68.3 27.8,68.4 L27.6,68.4 L23.3,69.7 C-2.5,77.8 -5.4,105.3 21.1,110.4 C19.1,110.6 17.4,111.6 16.2,112.5 C7.7,119.1 2.4,129.2 1,139 C0.5,142 2.9,144.7 6,144.7 L112.8,144.7 L119.2,144.7 C122.4,144.7 124.8,141.8 124.2,138.6 C123.8,136.3 123.2,134 122.3,131.9 Z" id="Shape" fill="#4988FD"></path>
                <path d="M85.3,106 C83.9,111 82.3,114.1 82.3,114.1 L37.7,107 L40.2,95.8 C40.6,96.1 41,96.3 41.5,96.6 C42.7,97.4 44,98.1 45.2,98.9 C45.9,99.4 46.7,100 47.5,100.8 C47.6,100.9 47.8,101.1 47.9,101.2 L47.9,92.8 C47.6,92.6 47.4,92.4 47.1,92.2 C54.3,95.8 63.4,97.8 76.3,90.2 C76.2,90.3 76.1,90.4 76,90.4 L76,104.3 C76.1,104.3 77,105.8 85.3,106 Z" id="Shape" fill="url(#linearGradient-1)"></path>
                <path d="M124.3,138.7 C124.9,141.8 122.5,144.6 119.4,144.7 L116.5,144.7 L113,144.7 C115.8,132.5 110.7,121.3 103,109.6 C111.3,113.8 117.6,121.2 121.3,129.2 C121.6,130.1 122,131.1 122.5,132 C123.2,134.1 123.8,136.4 124.3,138.7 Z" id="Shape" fill="#3973F4"></path>
            </g>
            <path d="M100.8,38.5 C93.3,41.1 85.3,42.1 77.5,41.5 C65,40.5 52.9,35.4 43.5,27.2 C40.4,36.2 32.5,43 23.8,46.9 C22.6,47.4 21.4,47.9 20.2,48.4 C20.2,48.3 20.2,48.1 20.2,48 C19.4,41.4 19.9,34.8 22,28.4 C24.1,22 27.8,16.3 32.7,11.8 C32.9,11.6 33.1,11.4 33.3,11.2 C34.1,10.5 35,9.7 35.9,9.1 C40.4,5.8 45.6,3.4 51,2.1 C54,1.4 57.1,1 60.2,1 C75.6,1 89.2,9.6 96.2,22.6 C98.9,27.6 100,31.9 100.5,36 C100.7,36.8 100.8,37.6 100.8,38.5 Z" id="Shape" fill="#3973F4"></path>
            <path d="M36.9,83.2 C38,84.5 39.1,85.7 40.2,86.8 C40.2,86.8 40.2,86.8 40.2,86.9 C39,85.7 37.9,84.5 36.9,83.2 Z" id="Shape" fill="#3973F4"></path>
            <path d="M53.2,126.9 C49.9,131 43.8,131.2 38.5,131.1 C44,125.7 40.8,108.2 21.6,110.4 L21.4,110.4 C-5.1,105.4 -2.2,77.9 23.6,69.7 L27.9,68.4 C28.2,68.6 28.4,68.8 28.7,69 C30.7,74.4 33.6,78.9 36.5,82.6 C26,91.5 40.6,94.2 47.7,100.9 C53.8,104.4 59,119.7 53.2,126.9 Z" id="Shape" fill="#3973F4"></path>
            <path d="M36.8,83.1 C36.6,82.9 36.5,82.8 36.4,82.6 C36.5,82.7 36.6,82.9 36.8,83.1 Z" id="Shape" fill="#3973F4"></path>
        </g>
    </g>
</svg>