<?xml version="1.0" encoding="UTF-8"?>
<svg width="147px" height="144px" viewBox="0 0 147 144" version="1.1" xmlns="http://www.w3.org/2000/svg" xmlns:xlink="http://www.w3.org/1999/xlink">
    <!-- Generator: Sketch 51.2 (57519) - http://www.bohemiancoding.com/sketch -->
    <title>Vegan</title>
    <desc>Created with Sketch.</desc>
    <defs></defs>
    <g id="Page-1" stroke="none" stroke-width="1" fill="none" fill-rule="evenodd">
        <g id="Vegan" fill-rule="nonzero">
            <path d="M65.7,79.9 L64.3,79.9 C54.2,79.9 46.1,71.7 46.1,61.7 L46.1,37.2 C46.1,35.8 47.2,34.7 48.6,34.7 C50,34.7 51.1,35.8 51.1,37.2 L51.1,61.7 C51.1,69 57,74.9 64.3,74.9 L65.7,74.9 C67.1,74.9 68.2,76 68.2,77.4 C68.2,78.8 67.1,79.9 65.7,79.9 Z" id="Shape" fill="#C5DCFA"></path>
            <path d="M66.6,79.9 L65.2,79.9 C63.8,79.9 62.7,78.8 62.7,77.4 C62.7,76 63.8,74.9 65.2,74.9 L66.6,74.9 C73.9,74.9 79.8,69 79.8,61.7 L79.8,37.2 C79.8,35.8 80.9,34.7 82.3,34.7 C83.7,34.7 84.8,35.8 84.8,37.2 L84.8,61.7 C84.8,71.7 76.6,79.9 66.6,79.9 Z" id="Shape" fill="#C5DCFA"></path>
            <path d="M65.7,143.8 C64.3,143.8 63.2,142.7 63.2,141.3 L63.2,39 C63.2,37.6 64.3,36.5 65.7,36.5 C67.1,36.5 68.2,37.6 68.2,39 L68.2,141.4 C68.2,142.7 67.1,143.8 65.7,143.8 Z" id="Shape" fill="#C5DCFA"></path>
            <path d="M104.4,42.8 C103.4,42.8 102.8,42.7 101,42.6 C102.8,42.8 103.6,42.8 104.4,42.8 Z" id="Shape" fill="#4988FD"></path>
            <path d="M117.6,33.9 C117.6,36.6 114.9,39.1 112.8,40.4 C107.4,43.9 107,43.1 43.5,37.7 C35.8,37 28.1,36.5 20.4,35.7 C2.7,33.7 -1.4,25 1.1,17.5 C2.5,13.4 5.9,10 11.2,9.5 L49.2,5.6 L53.3,5.2 L85.6,1.9 L90.5,1.4 C90.5,1.4 90.5,1.4 90.5,1.4 L102.9,0.1 C110.8,-0.7 117.7,5.5 117.7,13.5 C117.6,18.2 117.7,24.4 117.6,33.9 Z" id="Shape" fill="#3973F4"></path>
            <path d="M104.4,35 C103.4,35 102.8,34.9 101,34.8 C102.8,34.9 103.6,35 104.4,35 Z" id="Shape" fill="#4988FD"></path>
            <path d="M117.6,13.5 C117.6,19.3 117.6,25.3 117.5,26.1 C117.5,30.7 109.2,35.7 104,35 C103.9,35 103.6,35 103.6,35 C102.7,34.9 101.3,34.8 100.9,34.8 C10.8,27.2 10.2,28.6 3.7,22 C2.5,20.8 1.5,19.2 1,17.6 C2.4,13.5 5.8,10.1 11.1,9.6 L49.1,5.7 L53.2,5.3 L85.5,2 L90.4,1.5 C90.4,1.5 90.4,1.5 90.4,1.5 L102.8,0.2 C110.7,-0.7 117.6,5.5 117.6,13.5 Z" id="Shape" fill="#4988FD"></path>
            <path d="M53.9,6.8 L53.9,18.4 C53.9,19.8 52.8,20.9 51.4,20.9 C50,20.9 48.9,19.8 48.9,18.4 L48.9,6.8 C48.9,6.4 49,5.9 49.2,5.6 L53.3,5.2 C53.6,5.6 53.9,6.2 53.9,6.8 Z" id="Shape" fill="#3973F4"></path>
            <path d="M25.9,34.6 C24.5,34.6 23.4,33.5 23.4,32.1 L23.4,20.5 C23.4,19.1 24.5,18 25.9,18 C27.3,18 28.4,19.1 28.4,20.5 L28.4,32.1 C28.4,33.5 27.3,34.6 25.9,34.6 Z" id="Shape" fill="#3973F4"></path>
            <path d="M70.6,39.7 C69.2,39.7 68.1,38.6 68.1,37.2 L68.1,25.6 C68.1,24.2 69.2,23.1 70.6,23.1 C72,23.1 73.1,24.2 73.1,25.6 L73.1,37.2 C73.1,38.6 72,39.7 70.6,39.7 Z" id="Shape" fill="#3973F4"></path>
            <path d="M90.5,2.1 L90.5,13.7 C90.5,15.1 89.4,16.2 88,16.2 C86.6,16.2 85.5,15.1 85.5,13.7 L85.5,2.1 C85.5,2 85.5,1.9 85.5,1.9 L90.4,1.4 C90.5,1.6 90.5,1.8 90.5,2.1 Z" id="Shape" fill="#3973F4"></path>
            <path d="M120.6,23.9 C119.5,23.9 118.5,23.9 117.5,23.9 C116.1,23.9 115,22.8 115,21.4 C115,20 116.1,18.9 117.5,18.9 C117.5,18.9 117.5,18.9 117.5,18.9 C128.1,19 144.2,18.6 144.3,18.6 C145.7,18.6 146.8,19.7 146.8,21.1 C146.8,22.5 145.7,23.6 144.3,23.6 C144.3,23.6 131.3,23.9 120.6,23.9 Z" id="Shape" fill="#C5DCFA"></path>
            <path d="M131.3,21.8 C131.1,21.8 130.9,21.8 130.7,21.7 C129.4,21.4 128.5,20 128.8,18.7 L132.5,3 C132.8,1.7 134.2,0.8 135.5,1.1 C136.8,1.4 137.7,2.8 137.4,4.1 L133.7,19.8 C133.4,21.1 132.4,21.8 131.3,21.8 Z" id="Shape" fill="#C5DCFA"></path>
            <path d="M136.8,37.5 C135.9,37.5 135,37 134.6,36.2 L127.7,23.5 C127,22.3 127.5,20.8 128.7,20.1 C129.9,19.4 131.4,19.9 132.1,21.1 L139,33.8 C139.7,35 139.2,36.5 138,37.2 C137.6,37.4 137.2,37.5 136.8,37.5 Z" id="Shape" fill="#C5DCFA"></path>
        </g>
    </g>
</svg>