<?xml version="1.0" encoding="UTF-8"?>
<svg width="111px" height="146px" viewBox="0 0 111 146" version="1.1" xmlns="http://www.w3.org/2000/svg" xmlns:xlink="http://www.w3.org/1999/xlink">
    <!-- Generator: Sketch 51.2 (57519) - http://www.bohemiancoding.com/sketch -->
    <title>Videochat</title>
    <desc>Created with Sketch.</desc>
    <defs></defs>
    <g id="Page-1" stroke="none" stroke-width="1" fill="none" fill-rule="evenodd">
        <g id="Videochat" fill-rule="nonzero">
            <path d="M56.4,131.1 C56.1,131.1 55.9,131.1 55.6,131.2 C55.4,131.2 55.1,131.2 54.8,131.1 C48.5,130.7 24.6,129.8 31.2,125.1 C38.7,119.7 45,106.1 45,95.6 L66.1,95.6 C66.1,106.1 72.4,119.6 79.9,125.1 C86.5,129.8 62.7,130.7 56.4,131.1 Z" id="Shape" fill="#2767F4"></path>
            <path d="M83.5,125.7 L27.7,125.7 C20.7,125.7 15,131.4 15,138.4 L15,146 L96.2,146 L96.2,138.4 C96.2,131.4 90.5,125.7 83.5,125.7 Z" id="Shape" fill="#4988FD"></path>
            <path d="M110.5,55.5 C110.5,85.5 86.6,110 56.8,110.9 C56.3,110.9 55.9,110.9 55.4,110.9 L55.2,110.9 C54.9,110.9 54.5,110.9 54.2,110.9 C32.3,110.5 14.6,97.7 5.9,79.7 C6.2,80 5.5,79.3 5.9,79.6 C2.4,72.3 0.4,64.2 0.4,55.6 C0.4,25.1 25.2,0.3 55.7,0.3 C62.4,0.3 68.8,1.5 74.7,3.7 C75,3.8 75.4,4 75.7,4.1 C75.9,4.2 76.1,4.3 76.3,4.3 C76.7,4.5 77.2,4.7 77.6,4.9 C91.2,10.9 102,22.3 107.2,36.3 C109.3,42.2 110.5,48.7 110.5,55.5 Z" id="Shape" fill="#C5DCFA"></path>
            <path d="M107.1,37.2 C107.1,70.1 80.5,96.7 47.6,96.7 C31.3,96.7 16.5,90.2 5.8,79.6 C2.3,72.3 0.3,64.2 0.3,55.6 C0.3,25.1 25.1,0.3 55.6,0.3 C62.3,0.3 68.7,1.5 74.6,3.7 C74.9,3.8 75.3,4 75.6,4.1 C75.8,4.2 76,4.3 76.2,4.3 C76.6,4.5 77.1,4.7 77.5,4.9 C91.1,10.9 101.9,22.3 107.1,36.3 C107.1,36.6 107.1,36.9 107.1,37.2 Z" id="Shape" fill="#DFECFD"></path>
            <circle id="Oval" fill="#6097FD" cx="55.6" cy="55.7" r="27.4"></circle>
            <circle id="Oval" fill="#2767F4" cx="55.6" cy="55.7" r="10.2"></circle>
            <circle id="Oval" fill="#FFFFFF" transform="translate(52.425040, 52.757620) rotate(-48.600091) translate(-52.425040, -52.757620) " cx="52.42504" cy="52.75762" r="2.29996285"></circle>
            <g id="Group" transform="translate(35.000000, 35.000000)" fill="#C5DCFA">
                <path d="M4.2,14.2 C4,14.2 3.7,14.1 3.5,14 C2.7,13.6 2.4,12.7 2.8,11.9 C6.1,5 13,0.8 20.6,0.8 C23.3,0.8 25.9,1.3 28.4,2.4 C29.2,2.7 29.6,3.7 29.2,4.5 C28.9,5.3 27.9,5.7 27.1,5.3 C25,4.4 22.8,4 20.6,4 C14.2,4 8.5,7.6 5.7,13.3 C5.4,13.8 4.8,14.2 4.2,14.2 Z" id="Shape"></path>
                <path d="M2.4,23.3 C1.6,23.3 0.9,22.6 0.8,21.8 C0.8,21.4 0.8,21 0.8,20.5 C0.8,19.9 0.8,19.2 0.9,18.6 C1,17.7 1.8,17.1 2.6,17.2 C3.5,17.3 4.1,18.1 4,18.9 C4,19.4 3.9,20 3.9,20.5 C3.9,20.9 3.9,21.2 3.9,21.6 C4,22.5 3.3,23.2 2.4,23.3 C2.5,23.3 2.5,23.3 2.4,23.3 Z" id="Shape"></path>
            </g>
        </g>
    </g>
</svg>