<?xml version="1.0" encoding="UTF-8"?>
<svg width="87px" height="135px" viewBox="0 0 87 135" version="1.1" xmlns="http://www.w3.org/2000/svg" xmlns:xlink="http://www.w3.org/1999/xlink">
    <!-- Generator: Sketch 51.2 (57519) - http://www.bohemiancoding.com/sketch -->
    <title>Vitamins</title>
    <desc>Created with Sketch.</desc>
    <defs></defs>
    <g id="Page-1" stroke="none" stroke-width="1" fill="none" fill-rule="evenodd">
        <g id="Vitamins" fill-rule="nonzero">
            <path d="M63.8,134.3 L22.4,134.3 C10,134.3 0,124.3 0,111.9 L0,62.6 C0,50.2 10,40.2 22.4,40.2 L63.8,40.2 C76.2,40.2 86.2,50.2 86.2,62.6 L86.2,111.9 C86.2,124.3 76.1,134.3 63.8,134.3 Z" id="Shape" fill="#D5E6FD"></path>
            <path d="M86.2,66.9 L86.2,115.6 C86.2,126 77.8,134.4 67.4,134.4 L29.2,134.4 C24.2,134.4 19.6,132.6 16,129.6 C12.6,126.7 14.6,121.2 19,121.2 L64.7,121.2 C75.1,121.2 83.5,112.8 83.5,102.4 L83.5,65.8 C83.5,64.1 86,64 86.1,65.7 C86.2,66 86.2,66.5 86.2,66.9 Z" id="Shape" fill="#BAD8FF"></path>
            <polyline id="Shape" fill="#BAD8FF" points="19.9 26.7 19.9 26.7 65.6 26.7 65.6 40.2 19.9 40.2 19.9 34.1"></polyline>
            <path d="M78,7.1 L78,22.7 C78,26.5 74.9,29.6 71.1,29.6 L13.4,29.6 C9.6,29.6 6.5,26.5 6.5,22.7 L6.5,7.1 C6.5,3.3 9.6,0.2 13.4,0.2 L71.1,0.2 C74.9,0.2 78,3.3 78,7.1 Z" id="Shape" fill="#3973F4"></path>
            <path d="M78,7.1 L78,17.9 C78,21.7 74.9,24.8 71.1,24.8 L13.4,24.8 C9.6,24.8 6.5,21.7 6.5,17.9 L6.5,7.1 C6.5,3.3 9.6,0.2 13.4,0.2 L71.1,0.2 C74.9,0.2 78,3.3 78,7.1 Z" id="Shape" fill="#4988FD"></path>
            <path d="M39.8,110.5 L61.9,80.1 C62.6,79.2 61.9,77.9 60.8,77.9 L49.3,78.1 L52.3,58.6 C52.5,57.2 50.7,56.5 49.9,57.6 L27.8,88 C27.1,88.9 27.8,90.2 28.9,90.2 L40.2,90.1 L37.4,109.4 C37.1,110.9 38.9,111.6 39.8,110.5 Z" id="Shape" fill="#4988FD"></path>
        </g>
    </g>
</svg>