<?xml version="1.0" encoding="UTF-8"?>
<svg width="112px" height="140px" viewBox="0 0 112 140" version="1.1" xmlns="http://www.w3.org/2000/svg" xmlns:xlink="http://www.w3.org/1999/xlink">
    <!-- Generator: Sketch 51.2 (57519) - http://www.bohemiancoding.com/sketch -->
    <title>VR</title>
    <desc>Created with Sketch.</desc>
    <defs></defs>
    <g id="Page-1" stroke="none" stroke-width="1" fill="none" fill-rule="evenodd">
        <g id="VR">
            <path d="M111.9,60.8 L111.9,87.6 C111.9,92.9 108.2,95.6 103.9,95.6 L102.5,95.6 C102.3,96.9 102,98.1 101.7,99.4 C101.6,99.9 101.4,100.3 101.2,100.6 C99.6,103.7 95.6,102.8 95.6,102.8 C94.8,103.2 95.2,103 94.6,103.4 C92.8,113.9 88.3,116.1 65.5,136.6 C60.3,140.7 53,140.6 48,136.3 L26.4,121.1 C21.3,116.8 18,110.6 17.4,103.9 C16.5,103.4 15.9,103.3 15,102.7 C15,102.7 14.5,102.8 13.7,102.8 C12.2,102.8 9.7,102.3 9,99.2 C8.9,98.7 8.8,98.3 8.7,97.8 C8.5,97 8.4,96.2 8.3,95.4 C8,95.4 7.6,95.3 7.3,95.2 C7.1,94.5 7,93.8 7,93.1 L7,66.4 C7,61 11.6,56.6 17.3,56.6 L103.6,56.6 C107,56.8 110,58.4 111.9,60.8 Z" id="Shape" fill="#DFECFD" fill-rule="nonzero"></path>
            <path d="M111.9,60.8 L111.9,87.6 C111.9,92.9 108.2,95.6 103.9,95.6 L102.5,95.6 C102.3,96.9 102,98.1 101.7,99.4 C101.6,99.9 101.4,100.3 101.2,100.6 L79,100.6 C75.7,100.6 72.7,99 70.9,96.4 L64.2,86.6 C63.6,85.8 62.8,85.2 62,84.8 C59.8,82.2 55.7,82.3 53.8,85.3 L46.9,96 C45.1,98.9 41.9,100.6 38.5,100.6 L14.4,100.6 C12,100.6 9.9,99.6 8.5,98 C8.3,97.2 8.2,96.4 8.1,95.6 C7.8,95.6 7.4,95.5 7.1,95.4 C6.9,94.7 6.8,94 6.8,93.3 L6.8,66.6 C6.8,61.2 11.4,56.8 17.1,56.8 L103.4,56.8 C107,56.8 110,58.4 111.9,60.8 Z" id="Shape" fill="#BAD3F5" fill-rule="nonzero"></path>
            <g id="Group">
                <g transform="translate(4.000000, 0.000000)" id="Shape">
                    <path d="M8.6,73.1 C-6.2,41.1 0.7,21.1 14.4,14.1 C9.9,4.3 9.6,0.8 9.6,0.8 C9.6,0.8 38.3,5.6 48.2,3.7 C60.7,1.2 80,4.2 87.2,20.8 C97.1,24.7 115,35.1 98.2,71.4" fill="#C5DCFA" fill-rule="nonzero"></path>
                    <path d="M16.6,68.6 C16.5,68.7 16.4,68.8 16.3,69" stroke="#1676EE" stroke-width="3" stroke-linecap="round" stroke-linejoin="round"></path>
                </g>
                <path d="M111.9,58.5 L111.9,87.6 C111.9,92 108.3,95.6 103.9,95.6 L75.8,95.6 C72.4,95.6 69.3,93.9 67.4,91 L60.5,80.3 C58.5,77.2 53.9,77.2 51.9,80.3 L45,91 C43.2,93.9 40,95.6 36.6,95.6 L8.8,95.6 C4.4,95.6 0.8,92 0.8,87.6 L0.8,58.5 C0.8,52.6 5.6,47.8 11.5,47.8 L101.1,47.8 C107.1,47.8 111.9,52.6 111.9,58.5 Z" id="Shape" fill="#4988FD" fill-rule="nonzero"></path>
                <text id="VR" fill="#FFFFFF" font-family="Helvetica" font-size="21" font-weight="normal">
                    <tspan x="40.4395" y="72.4102">VR</tspan>
                </text>
            </g>
        </g>
    </g>
</svg>