<?xml version="1.0" encoding="UTF-8"?>
<svg width="128px" height="148px" viewBox="0 0 128 148" version="1.1" xmlns="http://www.w3.org/2000/svg" xmlns:xlink="http://www.w3.org/1999/xlink">
    <!-- Generator: Sketch 51.2 (57519) - http://www.bohemiancoding.com/sketch -->
    <title>Wallet</title>
    <desc>Created with Sketch.</desc>
    <defs></defs>
    <g id="Page-1" stroke="none" stroke-width="1" fill="none" fill-rule="evenodd">
        <g id="Wallet" transform="translate(0.000000, -1.000000)">
            <path d="M0.6,85.8 L0.6,51.5 C0.6,46 5,41.6 10.5,41.6 L104,41.6 C109.4,41.6 113.8,46 113.8,51.4 L113.8,117.5 C113.8,122.9 109.4,127.3 104,127.3 L10.4,127.3 C5,127.3 0.6,122.9 0.6,117.5 L0.6,115.1" id="Shape" fill="#3973F4" fill-rule="nonzero"></path>
            <g id="Group" transform="translate(18.000000, 24.000000)">
                <path d="M89.4,41.1 L0.6,41.1 L39.4,2.3 C39.9,1.8 40.4,1.4 41,1.1 C41.1,1 41.2,1 41.3,0.9 C41.3,0.9 41.3,0.9 41.3,0.9 C41.5,0.8 41.8,0.7 42,0.6 C43.9,-0.2 46,-0.2 47.9,0.6 C47.9,0.6 47.9,0.6 47.9,0.6 C48.1,0.7 48.4,0.8 48.6,0.9 C48.6,0.9 48.6,0.9 48.6,0.9 C48.7,1 48.8,1 48.9,1.1 C49,1.1 49,1.2 49.1,1.2 C49.4,1.4 49.7,1.6 49.9,1.8 C50.1,2 50.3,2.2 50.5,2.3 L89.4,41.1 Z" id="Shape" fill="#C5DCFA" fill-rule="nonzero"></path>
                <path d="M77.8,43.8 L49.4,15.4 C46.7,18.1 42.4,18.1 39.7,15.4 L11.2,43.9" id="Shape" fill="#FFFFFF" fill-rule="nonzero"></path>
                <path d="M91.1,42.8 C91.3,43 91.5,43.2 91.7,43.5 C91.5,43.3 91.3,43 91.1,42.8 Z" id="Shape" stroke="#1676EE" stroke-width="3" stroke-linecap="round" stroke-linejoin="round"></path>
            </g>
            <path d="M114,60.9 L10.9,60.9 C5.2,60.7 0.7,56 0.7,50.3 L0.7,60.9 L0.7,138.4 C0.7,144.3 5.5,149 11.3,149 L114,149 C119.9,149 124.6,144.2 124.6,138.4 L124.6,71.5 C124.7,65.7 119.9,60.9 114,60.9 Z" id="Shape" fill="#4988FD" fill-rule="nonzero"></path>
            <path d="M120.5,141.5 L119.5,141.5 C118.7,141.5 118,140.8 118,140 C118,139.2 118.7,138.5 119.5,138.5 L120.5,138.5 C121.3,138.5 122,139.2 122,140 C122,140.8 121.4,141.5 120.5,141.5 Z M112.5,141.5 L111.5,141.5 C110.7,141.5 110,140.8 110,140 C110,139.2 110.7,138.5 111.5,138.5 L112.5,138.5 C113.3,138.5 114,139.2 114,140 C114,140.8 113.4,141.5 112.5,141.5 Z M104.5,141.5 L103.5,141.5 C102.7,141.5 102,140.8 102,140 C102,139.2 102.7,138.5 103.5,138.5 L104.5,138.5 C105.3,138.5 106,139.2 106,140 C106,140.8 105.4,141.5 104.5,141.5 Z M96.5,141.5 L95.5,141.5 C94.7,141.5 94,140.8 94,140 C94,139.2 94.7,138.5 95.5,138.5 L96.5,138.5 C97.3,138.5 98,139.2 98,140 C98,140.8 97.4,141.5 96.5,141.5 Z M88.5,141.5 L87.5,141.5 C86.7,141.5 86,140.8 86,140 C86,139.2 86.7,138.5 87.5,138.5 L88.5,138.5 C89.3,138.5 90,139.2 90,140 C90,140.8 89.4,141.5 88.5,141.5 Z M80.5,141.5 L79.5,141.5 C78.7,141.5 78,140.8 78,140 C78,139.2 78.7,138.5 79.5,138.5 L80.5,138.5 C81.3,138.5 82,139.2 82,140 C82,140.8 81.4,141.5 80.5,141.5 Z M72.5,141.5 L71.5,141.5 C70.7,141.5 70,140.8 70,140 C70,139.2 70.7,138.5 71.5,138.5 L72.5,138.5 C73.3,138.5 74,139.2 74,140 C74,140.8 73.4,141.5 72.5,141.5 Z M64.5,141.5 L63.5,141.5 C62.7,141.5 62,140.8 62,140 C62,139.2 62.7,138.5 63.5,138.5 L64.5,138.5 C65.3,138.5 66,139.2 66,140 C66,140.8 65.4,141.5 64.5,141.5 Z M56.5,141.5 L55.5,141.5 C54.7,141.5 54,140.8 54,140 C54,139.2 54.7,138.5 55.5,138.5 L56.5,138.5 C57.3,138.5 58,139.2 58,140 C58,140.8 57.4,141.5 56.5,141.5 Z M48.5,141.5 L47.5,141.5 C46.7,141.5 46,140.8 46,140 C46,139.2 46.7,138.5 47.5,138.5 L48.5,138.5 C49.3,138.5 50,139.2 50,140 C50,140.8 49.4,141.5 48.5,141.5 Z M40.5,141.5 L39.5,141.5 C38.7,141.5 38,140.8 38,140 C38,139.2 38.7,138.5 39.5,138.5 L40.5,138.5 C41.3,138.5 42,139.2 42,140 C42,140.8 41.4,141.5 40.5,141.5 Z M32.5,141.5 L31.5,141.5 C30.7,141.5 30,140.8 30,140 C30,139.2 30.7,138.5 31.5,138.5 L32.5,138.5 C33.3,138.5 34,139.2 34,140 C34,140.8 33.4,141.5 32.5,141.5 Z M24.5,141.5 L23.5,141.5 C22.7,141.5 22,140.8 22,140 C22,139.2 22.7,138.5 23.5,138.5 L24.5,138.5 C25.3,138.5 26,139.2 26,140 C26,140.8 25.4,141.5 24.5,141.5 Z M16.5,141.5 L15.5,141.5 C14.7,141.5 14,140.8 14,140 C14,139.2 14.7,138.5 15.5,138.5 L16.5,138.5 C17.3,138.5 18,139.2 18,140 C18,140.8 17.4,141.5 16.5,141.5 Z M11.1,137.3 C10.3,137.3 9.6,136.6 9.6,135.8 L9.6,134.8 C9.6,134 10.3,133.3 11.1,133.3 C11.9,133.3 12.6,134 12.6,134.8 L12.6,135.8 C12.6,136.6 11.9,137.3 11.1,137.3 Z M11.1,129.3 C10.3,129.3 9.6,128.6 9.6,127.8 L9.6,126.8 C9.6,126 10.3,125.3 11.1,125.3 C11.9,125.3 12.6,126 12.6,126.8 L12.6,127.8 C12.6,128.6 11.9,129.3 11.1,129.3 Z M11.1,121.3 C10.3,121.3 9.6,120.6 9.6,119.8 L9.6,118.8 C9.6,118 10.3,117.3 11.1,117.3 C11.9,117.3 12.6,118 12.6,118.8 L12.6,119.8 C12.6,120.6 11.9,121.3 11.1,121.3 Z M11.1,113.3 C10.3,113.3 9.6,112.6 9.6,111.8 L9.6,110.8 C9.6,110 10.3,109.3 11.1,109.3 C11.9,109.3 12.6,110 12.6,110.8 L12.6,111.8 C12.6,112.6 11.9,113.3 11.1,113.3 Z M11.1,105.3 C10.3,105.3 9.6,104.6 9.6,103.8 L9.6,102.8 C9.6,102 10.3,101.3 11.1,101.3 C11.9,101.3 12.6,102 12.6,102.8 L12.6,103.8 C12.6,104.6 11.9,105.3 11.1,105.3 Z M11.1,97.3 C10.3,97.3 9.6,96.6 9.6,95.8 L9.6,94.8 C9.6,94 10.3,93.3 11.1,93.3 C11.9,93.3 12.6,94 12.6,94.8 L12.6,95.8 C12.6,96.6 11.9,97.3 11.1,97.3 Z M11.1,89.3 C10.3,89.3 9.6,88.6 9.6,87.8 L9.6,86.8 C9.6,86 10.3,85.3 11.1,85.3 C11.9,85.3 12.6,86 12.6,86.8 L12.6,87.8 C12.6,88.6 11.9,89.3 11.1,89.3 Z M11.1,81.3 C10.3,81.3 9.6,80.6 9.6,79.8 L9.6,78.8 C9.6,78 10.3,77.3 11.1,77.3 C11.9,77.3 12.6,78 12.6,78.8 L12.6,79.8 C12.6,80.6 11.9,81.3 11.1,81.3 Z M11.9,73.5 C11.6,73.5 11.3,73.4 11,73.2 C10.3,72.7 10.2,71.8 10.7,71.1 C11,70.7 11.3,70.4 11.6,70.1 C12.2,69.6 13.2,69.7 13.7,70.3 C14.2,70.9 14.1,71.9 13.5,72.4 C13.3,72.5 13.2,72.7 13.1,72.9 C12.8,73.3 12.3,73.5 11.9,73.5 Z M116.4,71.9 L115.4,71.9 C114.6,71.9 113.9,71.2 113.9,70.4 C113.9,69.6 114.6,68.9 115.4,68.9 L116.4,68.9 C117.2,68.9 117.9,69.6 117.9,70.4 C117.9,71.2 117.2,71.9 116.4,71.9 Z M108.4,71.9 L107.4,71.9 C106.6,71.9 105.9,71.2 105.9,70.4 C105.9,69.6 106.6,68.9 107.4,68.9 L108.4,68.9 C109.2,68.9 109.9,69.6 109.9,70.4 C109.9,71.2 109.2,71.9 108.4,71.9 Z M100.4,71.9 L99.4,71.9 C98.6,71.9 97.9,71.2 97.9,70.4 C97.9,69.6 98.6,68.9 99.4,68.9 L100.4,68.9 C101.2,68.9 101.9,69.6 101.9,70.4 C101.9,71.2 101.2,71.9 100.4,71.9 Z M92.4,71.9 L91.4,71.9 C90.6,71.9 89.9,71.2 89.9,70.4 C89.9,69.6 90.6,68.9 91.4,68.9 L92.4,68.9 C93.2,68.9 93.9,69.6 93.9,70.4 C93.9,71.2 93.2,71.9 92.4,71.9 Z M84.4,71.9 L83.4,71.9 C82.6,71.9 81.9,71.2 81.9,70.4 C81.9,69.6 82.6,68.9 83.4,68.9 L84.4,68.9 C85.2,68.9 85.9,69.6 85.9,70.4 C85.9,71.2 85.2,71.9 84.4,71.9 Z M76.4,71.9 L75.4,71.9 C74.6,71.9 73.9,71.2 73.9,70.4 C73.9,69.6 74.6,68.9 75.4,68.9 L76.4,68.9 C77.2,68.9 77.9,69.6 77.9,70.4 C77.9,71.2 77.2,71.9 76.4,71.9 Z M68.4,71.9 L67.4,71.9 C66.6,71.9 65.9,71.2 65.9,70.4 C65.9,69.6 66.6,68.9 67.4,68.9 L68.4,68.9 C69.2,68.9 69.9,69.6 69.9,70.4 C69.9,71.2 69.2,71.9 68.4,71.9 Z M60.4,71.9 L59.4,71.9 C58.6,71.9 57.9,71.2 57.9,70.4 C57.9,69.6 58.6,68.9 59.4,68.9 L60.4,68.9 C61.2,68.9 61.9,69.6 61.9,70.4 C61.9,71.2 61.2,71.9 60.4,71.9 Z M52.4,71.9 L51.4,71.9 C50.6,71.9 49.9,71.2 49.9,70.4 C49.9,69.6 50.6,68.9 51.4,68.9 L52.4,68.9 C53.2,68.9 53.9,69.6 53.9,70.4 C53.9,71.2 53.2,71.9 52.4,71.9 Z M44.4,71.9 L43.4,71.9 C42.6,71.9 41.9,71.2 41.9,70.4 C41.9,69.6 42.6,68.9 43.4,68.9 L44.4,68.9 C45.2,68.9 45.9,69.6 45.9,70.4 C45.9,71.2 45.2,71.9 44.4,71.9 Z M36.4,71.9 L35.4,71.9 C34.6,71.9 33.9,71.2 33.9,70.4 C33.9,69.6 34.6,68.9 35.4,68.9 L36.4,68.9 C37.2,68.9 37.9,69.6 37.9,70.4 C37.9,71.2 37.2,71.9 36.4,71.9 Z M28.4,71.9 L27.4,71.9 C26.6,71.9 25.9,71.2 25.9,70.4 C25.9,69.6 26.6,68.9 27.4,68.9 L28.4,68.9 C29.2,68.9 29.9,69.6 29.9,70.4 C29.9,71.2 29.2,71.9 28.4,71.9 Z M20.4,71.9 L19.4,71.9 C18.6,71.9 17.9,71.2 17.9,70.4 C17.9,69.6 18.6,68.9 19.4,68.9 L20.4,68.9 C21.2,68.9 21.9,69.6 21.9,70.4 C21.9,71.2 21.2,71.9 20.4,71.9 Z" id="Shape" fill="#3973F4" fill-rule="nonzero"></path>
            <path d="M124.6,99.4 L124.6,124.3 L99.1,124.3 C95.4,124.3 92.1,122.7 89.8,120.1 C87.8,117.9 86.6,115 86.6,111.8 C86.6,108.4 88,105.3 90.2,103 C92.5,100.8 95.6,99.4 99,99.4 L124.6,99.4 Z" id="Shape" fill="#3973F4" fill-rule="nonzero"></path>
            <path d="M127.8,93.3 L127.8,118.2 L98.9,118.2 C95.2,118.2 91.9,116.6 89.6,114 C87.6,111.8 86.4,108.9 86.4,105.7 C86.4,102.3 87.8,99.2 90,96.9 C92.3,94.7 95.4,93.3 98.8,93.3 L127.8,93.3 Z" id="Shape" fill="#6097FD" fill-rule="nonzero"></path>
            <path d="M96.8,100.6 C97.5,100.3 98.3,100.1 99.2,100.1 C102.7,100.1 105.6,102.9 105.6,106.5 C105.6,110 102.8,112.9 99.2,112.9 C95.6,112.9 92.8,110.1 92.8,106.5 C92.8,104.5 93.7,102.8 95.1,101.6" id="Shape" fill="#C5DCFA" fill-rule="nonzero"></path>
            <path d="M95.1,101.6 C95.6,101.2 96.2,100.8 96.8,100.6" id="Shape" fill="#FFFFFF" fill-rule="nonzero"></path>
            <g id="Group" transform="translate(79.000000, 0.000000)" fill="#C5DCFA" fill-rule="nonzero">
                <path d="M2.5,3.7 C1.4,3.7 0.5,4.6 0.5,5.7 L0.5,6.2 C0.5,7.3 1.4,8.2 2.5,8.2 C3.6,8.2 4.5,7.3 4.5,6.2 L4.5,5.7 C4.5,4.6 3.6,3.7 2.5,3.7 Z" id="Shape"></path>
                <path d="M2.5,9 C1.4,9 0.5,9.9 0.5,11 L0.5,22.3 C0.5,23.4 1.4,24.3 2.5,24.3 C3.6,24.3 4.5,23.4 4.5,22.3 L4.5,11 C4.5,9.9 3.6,9 2.5,9 Z" id="Shape"></path>
                <path d="M28.1,19 C27.5,18.1 26.2,17.8 25.3,18.5 L11.2,28 C10.3,28.6 10,29.9 10.7,30.8 C11.1,31.4 11.7,31.7 12.4,31.7 C12.8,31.7 13.2,31.6 13.5,31.4 L27.6,21.9 C28.5,21.1 28.7,19.9 28.1,19 Z" id="Shape"></path>
                <path d="M19.7,6.7 C20,6.9 20.4,7 20.7,7 C21.4,7 22,6.7 22.4,6 L23.6,4.1 C24.2,3.2 23.9,1.9 22.9,1.3 C22,0.7 20.7,1 20.1,2 L18.9,3.9 C18.4,4.9 18.7,6.2 19.7,6.7 Z" id="Shape"></path>
                <path d="M12,23 L19.4,11 C20,10.1 19.7,8.8 18.7,8.2 C17.8,7.6 16.5,7.9 15.9,8.9 L8.5,20.9 C7.9,21.8 8.2,23.1 9.2,23.7 C9.5,23.9 9.9,24 10.2,24 C11,24 11.6,23.6 12,23 Z" id="Shape"></path>
            </g>
        </g>
    </g>
</svg>