<?xml version="1.0" encoding="UTF-8"?>
<svg width="145px" height="102px" viewBox="0 0 145 102" version="1.1" xmlns="http://www.w3.org/2000/svg" xmlns:xlink="http://www.w3.org/1999/xlink">
    <!-- Generator: Sketch 51.2 (57519) - http://www.bohemiancoding.com/sketch -->
    <title>Wi-fi</title>
    <desc>Created with Sketch.</desc>
    <defs></defs>
    <g id="Page-1" stroke="none" stroke-width="1" fill="none" fill-rule="evenodd">
        <g id="Wi-fi" fill-rule="nonzero">
            <g id="Group" fill="#2767F4">
                <path d="M144.2,34.9 C144,35.3 143.8,35.7 143.6,36.1 C141.5,39.9 138.5,42.8 134.6,44.9 C133.1,45.7 131.8,45.4 130.5,44 C98.1,9.9 46.3,11.4 15.3,43.3 C14.4,44.2 13.7,44.8 12.9,45.1 C11.9,45.4 11,45.1 9.5,44.3 C6.1,42.3 3.2,39.5 1.4,35.9 C0.6,34.4 0.5,33 1.3,31.6 C1.5,31.2 1.8,30.9 2.1,30.6 C36.2,-4.4 91.2,-10.9 133.5,22.1 C137,24.9 140.1,28.1 143.4,31.1 C143.6,31.2 143.7,31.4 143.8,31.6 C144.7,32.6 144.8,33.7 144.2,34.9 Z" id="Shape"></path>
                <path d="M116.9,62.6 C116.9,62.6 116.9,62.6 116.9,62.6 C101.8,83 107.2,62.1 81.3,57.1 C67.5,54.5 55.3,57.6 44.7,66.9 C43.7,67.8 42.6,68.6 41.8,69.6 C40.2,71.5 38.3,71.8 36.4,70.9 C36.3,70.8 36.1,70.8 36,70.7 C32.6,68.7 29.6,66 28.1,62.2 C27.5,60.7 27.5,59.4 28.1,58.1 C28.4,57.5 28.8,56.9 29.4,56.3 C52.6,32.7 91.2,30.7 116.5,56.7 C116.9,57.1 117.2,57.5 117.4,58 C118.1,59.5 117.9,61.3 116.9,62.6 Z" id="Shape"></path>
                <path d="M87.7,87 C87.3,95.6 80.3,102.2 71.9,101.8 C63.4,101.4 56.9,94.2 57.3,85.8 C57.3,85.4 57.4,84.9 57.4,84.5 C58.4,77 65.3,71.1 73.1,71.5 C80.6,71.8 86.6,77.4 87.5,84.4 C87.7,85.3 87.8,86.2 87.7,87 Z" id="Shape"></path>
            </g>
            <g id="Group" transform="translate(1.000000, 0.000000)" fill="#4988FD">
                <path d="M142.9,31.6 C142.8,31.8 142.7,32 142.6,32.1 C140.5,35.9 137.5,38.8 133.6,40.9 C132.1,41.7 130.8,41.4 129.5,40 C97.1,5.9 45.3,7.4 14.3,39.3 C13.4,40.2 12.7,40.8 11.9,41.1 C10.9,41.4 10,41.1 8.5,40.3 C5.1,38.3 2.2,35.5 0.4,31.9 C0.4,31.8 0.3,31.7 0.3,31.6 C0.5,31.2 0.8,30.9 1.1,30.6 C35.2,-4.4 90.2,-10.9 132.5,22.1 C136,24.9 139.1,28.1 142.4,31.1 C142.6,31.3 142.8,31.4 142.9,31.6 Z" id="Shape"></path>
                <path d="M116.3,57.9 C116.2,58.1 116,58.4 115.9,58.6 C115.9,58.6 115.9,58.6 115.9,58.6 C100.8,78.9 106.2,58.1 80.3,53.1 C66.5,50.5 54.3,53.6 43.7,62.9 C42.7,63.8 41.6,64.6 40.8,65.6 C39.2,67.5 37.3,67.8 35.4,66.9 C35.3,66.8 35.1,66.8 35,66.7 C31.6,64.7 28.6,62 27.1,58.2 C27.1,58.2 27.1,58.1 27.1,58.1 C27.4,57.5 27.8,56.9 28.4,56.3 C51.6,32.7 90.2,30.7 115.5,56.7 C115.8,57.1 116.1,57.5 116.3,57.9 Z" id="Shape"></path>
                <path d="M86.6,84.5 C85.6,92.4 78.9,98.3 71,97.9 C63.5,97.5 57.5,91.8 56.5,84.6 C57.5,77.1 64.4,71.2 72.2,71.6 C79.6,71.9 85.6,77.5 86.6,84.5 Z" id="Shape"></path>
            </g>
        </g>
    </g>
</svg>