<?xml version="1.0" encoding="UTF-8"?>
<svg width="140px" height="146px" viewBox="0 0 140 146" version="1.1" xmlns="http://www.w3.org/2000/svg" xmlns:xlink="http://www.w3.org/1999/xlink">
    <!-- Generator: Sketch 51.2 (57519) - http://www.bohemiancoding.com/sketch -->
    <title>Open_gift</title>
    <desc>Created with Sketch.</desc>
    <defs></defs>
    <g id="Page-1" stroke="none" stroke-width="1" fill="none" fill-rule="evenodd">
        <g id="Open_gift" fill-rule="nonzero">
            <g id="Group">
                <path d="M31.8,73.5 L124.4,73.5 L124.4,139 C124.4,142.7 121.4,145.8 117.6,145.8 L34.2,145.8 C30.5,145.8 27.4,142.8 27.4,139 L27.4,77.5" id="Shape" fill="#4988FD"></path>
                <rect id="Rectangle-path" fill="#DFECFD" x="67.5" y="73.5" width="16.4" height="72.3"></rect>
                <path d="M79.9,1.7 L88.4,10.2 C90.1,11.9 90.1,14.7 88.4,16.4 L16.6,88.2 C14.9,89.9 12.1,89.9 10.4,88.2 L1.9,79.7 C0.2,78 0.2,75.2 1.9,73.5 L73.7,1.7 C75.5,0 78.2,0 79.9,1.7 Z" id="Shape" fill="#6097FD"></path>
                <polyline id="Shape" fill="#DFECFD" points="31.9 43.6 46.5 58.2 58.1 46.6 43.4 32"></polyline>
                <path d="M36.4,39.1 L27.7,47.8 C21.5,54 11.5,54 5.4,47.8 C-0.8,41.6 -0.8,31.6 5.4,25.5 C11.6,19.3 21.6,19.3 27.7,25.5 L36.4,34.2 C37.8,35.5 37.8,37.7 36.4,39.1 Z M10.3,30.4 C6.9,33.8 6.9,39.4 10.3,42.8 C13.7,46.2 19.3,46.2 22.7,42.8 L28.9,36.6 L22.7,30.4 C19.3,27 13.7,27 10.3,30.4 Z" id="Shape" fill="#DFECFD"></path>
                <path d="M48.5,27 L41.2,34.3 C39.8,35.7 37.6,35.7 36.2,34.3 L28.9,27 C23.5,21.6 23.5,12.9 28.9,7.5 C34.3,2.1 43,2.1 48.4,7.5 C53.8,12.9 53.9,21.6 48.5,27 Z M38.8,26.8 L43.6,22 C46.2,19.4 46.2,15.1 43.6,12.4 C41,9.8 36.7,9.8 34,12.4 C31.4,15 31.4,19.3 34,22 L38.8,26.8 Z" id="Shape" fill="#DFECFD"></path>
            </g>
            <path d="M127.1,31.2 C124.5,31.2 122.4,29.1 122.4,26.5 C122.4,23.9 124.5,21.8 127.1,21.8 C129.7,21.8 131.8,23.9 131.8,26.5 C131.8,29.1 129.7,31.2 127.1,31.2 Z M127.1,25.9 C126.8,25.9 126.5,26.1 126.5,26.5 C126.5,26.8 126.7,27.1 127.1,27.1 C127.4,27.1 127.7,26.9 127.7,26.5 C127.7,26.2 127.4,25.9 127.1,25.9 Z" id="Shape" fill="#6097FD"></path>
            <path d="M107.2,47.3 C104.6,47.3 102.5,45.2 102.5,42.6 C102.5,40 104.6,37.9 107.2,37.9 C109.8,37.9 111.9,40 111.9,42.6 C111.9,45.2 109.8,47.3 107.2,47.3 Z M107.2,42 C106.9,42 106.6,42.2 106.6,42.6 C106.6,42.9 106.8,43.2 107.2,43.2 C107.6,43.2 107.8,43 107.8,42.6 C107.7,42.3 107.5,42 107.2,42 Z" id="Shape" fill="#6097FD"></path>
            <path d="M102.7,21.8 C102.7,21.8 102.6,21.8 102.6,21.8 C101.5,21.7 100.6,20.8 100.7,19.6 C100.8,18.4 101.3,17.4 102.2,16.6 C103.1,15.8 104.4,15.5 105.8,15.6 L106.6,15.7 C106.9,15.7 107,15.7 107,15.6 C107,15.6 107,15.4 106.9,15.2 L106.6,14.5 C105.9,12.9 106.1,11.2 107,10 C107.9,8.8 109.5,8.1 111.2,8.3 L112,8.4 C112.3,8.4 112.4,8.4 112.4,8.3 C112.4,8.3 112.4,8.1 112.3,7.9 L112,7.2 C111.3,5.6 111.5,3.9 112.4,2.6 C113.3,1.3 114.9,0.7 116.6,0.9 C117.7,1 118.6,2 118.4,3.2 C118.3,4.3 117.3,5.2 116.1,5 C115.8,5 115.7,5 115.7,5.1 C115.7,5.1 115.7,5.3 115.8,5.5 L116.1,6.2 C116.8,7.8 116.6,9.5 115.7,10.8 C114.8,12.1 113.2,12.7 111.5,12.5 L110.7,12.4 C110.4,12.4 110.3,12.4 110.3,12.5 C110.3,12.5 110.3,12.7 110.4,12.9 L110.7,13.6 C111.4,15.2 111.2,16.9 110.3,18.1 C109.4,19.4 107.8,20 106.1,19.8 L105.3,19.7 C105,19.7 104.9,19.7 104.9,19.8 C104.7,21 103.8,21.8 102.7,21.8 Z" id="Shape" fill="#6097FD"></path>
            <path d="M79.2,67.4 C78.1,67.4 77.2,66.6 77.1,65.5 C77,64.4 77.9,63.4 79,63.3 C79.2,63.3 79.3,63.2 79.3,63.2 C79.3,63.2 79.3,63.1 79.1,62.9 L78.7,62.3 C77.8,60.9 77.6,59.3 78.3,57.9 C79,56.5 80.4,55.7 82.1,55.5 L82.9,55.4 C83.1,55.4 83.2,55.3 83.2,55.3 C83.2,55.3 83.2,55.2 83,55 L82.6,54.4 C81.7,53 81.5,51.4 82.2,50 C82.9,48.6 84.3,47.8 86,47.6 L86.8,47.6 C87,47.6 87.1,47.5 87.1,47.5 C87,46.4 87.8,45.4 88.9,45.2 C90,45.1 91,45.9 91.2,47 C91.3,48.1 91,49.2 90.3,50.1 C89.5,51 88.4,51.6 87.1,51.7 L86.3,51.7 C86.1,51.7 86,51.8 86,51.8 C86,51.8 86,51.9 86.2,52.1 L86.6,52.7 C87.5,54.1 87.7,55.7 87,57.1 C86.3,58.5 84.9,59.3 83.2,59.5 L82.4,59.5 C82.2,59.5 82.1,59.6 82.1,59.6 C82.1,59.6 82.1,59.7 82.3,59.9 L82.7,60.5 C83.6,61.9 83.8,63.6 83.1,64.9 C82.4,66.3 81,67.1 79.3,67.3 C79.3,67.4 79.2,67.4 79.2,67.4 Z" id="Shape" fill="#6097FD"></path>
            <path d="M121,62 C120.2,62 119.4,61.8 118.6,61.3 C117.6,60.7 117.3,59.5 117.8,58.5 C118.4,57.5 119.6,57.2 120.6,57.7 C120.8,57.8 120.9,57.8 120.9,57.8 C120.9,57.8 120.9,57.7 120.9,57.5 L120.9,56.7 C120.9,55 121.7,53.6 123,52.8 C124.3,52 126,52.1 127.4,52.9 L128.1,53.3 C128.3,53.4 128.4,53.4 128.4,53.4 C128.4,53.4 128.4,53.3 128.4,53.1 L128.4,52.3 C128.4,50.6 129.2,49.2 130.5,48.4 C131.8,47.6 133.5,47.7 134.9,48.5 L135.6,48.9 C135.8,49 135.9,49 135.9,49 C136.4,48 137.6,47.6 138.7,48.1 C139.7,48.6 140.1,49.9 139.6,50.9 C139.1,51.9 138.2,52.7 137.1,53 C135.9,53.3 134.7,53.2 133.5,52.5 L132.8,52.1 C132.6,52 132.5,52 132.5,52 C132.5,52 132.5,52.1 132.5,52.3 L132.5,53.1 C132.5,54.8 131.7,56.2 130.4,57 C129.1,57.8 127.4,57.7 126,56.9 L125.3,56.5 C125.1,56.4 125,56.4 125,56.4 C125,56.4 125,56.5 125,56.7 L125,57.5 C125,59.2 124.2,60.6 122.9,61.4 C122.4,61.8 121.7,62 121,62 Z" id="Shape" fill="#6097FD"></path>
        </g>
    </g>
</svg>