<svg width="1063px" height="666px" viewBox="0 0 1063 666" version="1.1" xmlns="http://www.w3.org/2000/svg" xmlns:xlink="http://www.w3.org/1999/xlink">
    <defs>
        <linearGradient x1="50%" y1="19.6859798%" x2="-33.8124944%" y2="294.476483%" id="linearGradient-1">
            <stop stop-color="#F7FAFF" offset="0%"></stop>
            <stop stop-color="#6B9AD9" offset="100%"></stop>
        </linearGradient>
        <linearGradient x1="140.583572%" y1="-6.48307506%" x2="25.1634099%" y2="143.480192%" id="linearGradient-2">
            <stop stop-color="#E5EDFF" offset="0%"></stop>
            <stop stop-color="#6B9AD9" offset="100%"></stop>
        </linearGradient>
        <linearGradient x1="46.5728311%" y1="15.1595137%" x2="71.2420097%" y2="70.6858623%" id="linearGradient-3">
            <stop stop-color="#F59BA9" offset="0%"></stop>
            <stop stop-color="#F25267" offset="100%"></stop>
        </linearGradient>
        <linearGradient x1="69.0943197%" y1="16.0206543%" x2="0%" y2="95.8125083%" id="linearGradient-4">
            <stop stop-color="#F7FAFF" offset="0%"></stop>
            <stop stop-color="#6B9AD9" offset="100%"></stop>
        </linearGradient>
        <linearGradient x1="84.3552905%" y1="23.1029282%" x2="25.1634099%" y2="121.160407%" id="linearGradient-5">
            <stop stop-color="#E5EDFF" offset="0%"></stop>
            <stop stop-color="#6B9AD9" offset="100%"></stop>
        </linearGradient>
        <linearGradient x1="50%" y1="37.1912697%" x2="-33.8124944%" y2="153.299837%" id="linearGradient-6">
            <stop stop-color="#F7FAFF" offset="0%"></stop>
            <stop stop-color="#6B9AD9" offset="100%"></stop>
        </linearGradient>
        <linearGradient x1="50%" y1="22.7268613%" x2="-33.8592349%" y2="187.381119%" id="linearGradient-7">
            <stop stop-color="#EEF3FF" offset="0%"></stop>
            <stop stop-color="#6B9AD9" offset="100%"></stop>
        </linearGradient>
        <linearGradient x1="50%" y1="19.6859798%" x2="-28.576871%" y2="202.698743%" id="linearGradient-8">
            <stop stop-color="#EEF3FF" offset="0%"></stop>
            <stop stop-color="#6B9AD9" offset="100%"></stop>
        </linearGradient>
        <linearGradient x1="84.3552905%" y1="31.7374106%" x2="25.1634099%" y2="98.3165344%" id="linearGradient-9">
            <stop stop-color="#E5EDFF" offset="0%"></stop>
            <stop stop-color="#6B9AD9" offset="100%"></stop>
        </linearGradient>
        <linearGradient x1="50%" y1="19.6859798%" x2="17.2786178%" y2="294.476483%" id="linearGradient-10">
            <stop stop-color="#F7FAFF" offset="0%"></stop>
            <stop stop-color="#6B9AD9" offset="100%"></stop>
        </linearGradient>
        <linearGradient x1="32.9510863%" y1="-9.9192638%" x2="92.5314868%" y2="110.020248%" id="linearGradient-11">
            <stop stop-color="#E5EDFF" offset="0%"></stop>
            <stop stop-color="#6B9AD9" offset="100%"></stop>
        </linearGradient>
        <linearGradient x1="79.6143389%" y1="-6.48307506%" x2="41.8802142%" y2="143.480192%" id="linearGradient-12">
            <stop stop-color="#E5EDFF" offset="0%"></stop>
            <stop stop-color="#6B9AD9" offset="100%"></stop>
        </linearGradient>
        <linearGradient x1="50%" y1="3.30203414%" x2="55.252189%" y2="79.5572645%" id="linearGradient-13">
            <stop stop-color="#FFE579" offset="0%"></stop>
            <stop stop-color="#FEC644" offset="100%"></stop>
        </linearGradient>
        <linearGradient x1="61.0389793%" y1="-64.3985414%" x2="50%" y2="87.391778%" id="linearGradient-14">
            <stop stop-color="#FFEDBF" offset="0%"></stop>
            <stop stop-color="#FEC644" offset="100%"></stop>
        </linearGradient>
        <linearGradient x1="50%" y1="-10.8772052%" x2="50%" y2="100%" id="linearGradient-15">
            <stop stop-color="#FFE579" offset="0%"></stop>
            <stop stop-color="#FEB755" offset="100%"></stop>
        </linearGradient>
        <linearGradient x1="140.583572%" y1="2.3917823%" x2="25.1634099%" y2="128.792193%" id="linearGradient-16">
            <stop stop-color="#E5EDFF" offset="0%"></stop>
            <stop stop-color="#6B9AD9" offset="100%"></stop>
        </linearGradient>
        <linearGradient x1="50%" y1="19.6859798%" x2="-12.8291338%" y2="294.476483%" id="linearGradient-17">
            <stop stop-color="#F7FAFF" offset="0%"></stop>
            <stop stop-color="#6B9AD9" offset="100%"></stop>
        </linearGradient>
        <linearGradient x1="50%" y1="27.7727484%" x2="51.7890588%" y2="103.623291%" id="linearGradient-18">
            <stop stop-color="#1542AB" offset="0%"></stop>
            <stop stop-color="#2B68EE" offset="100%"></stop>
        </linearGradient>
        <linearGradient x1="53.5143929%" y1="0%" x2="50.6815989%" y2="50%" id="linearGradient-19">
            <stop stop-color="#3485F7" offset="0%"></stop>
            <stop stop-color="#1A57CF" offset="100%"></stop>
        </linearGradient>
        <linearGradient x1="50%" y1="19.6859798%" x2="20.5250027%" y2="294.476483%" id="linearGradient-20">
            <stop stop-color="#F7FAFF" offset="0%"></stop>
            <stop stop-color="#6B9AD9" offset="100%"></stop>
        </linearGradient>
        <linearGradient x1="107.254377%" y1="-120.462206%" x2="38.2696203%" y2="-120.462203%" id="linearGradient-21">
            <stop stop-color="#FAD0BA" offset="0%"></stop>
            <stop stop-color="#F2A384" offset="100%"></stop>
        </linearGradient>
        <linearGradient x1="50%" y1="32.1187137%" x2="50%" y2="100%" id="linearGradient-22">
            <stop stop-color="#84F0A8" offset="0%"></stop>
            <stop stop-color="#48B676" offset="100%"></stop>
        </linearGradient>
        <linearGradient x1="50%" y1="32.1187137%" x2="50%" y2="100%" id="linearGradient-23">
            <stop stop-color="#84F0A8" offset="0%"></stop>
            <stop stop-color="#48B676" offset="100%"></stop>
        </linearGradient>
        <linearGradient x1="50%" y1="9.82641526%" x2="60.6684975%" y2="52.8748372%" id="linearGradient-24">
            <stop stop-color="#46C36F" stop-opacity="0" offset="0%"></stop>
            <stop stop-color="#4DBB7A" offset="100%"></stop>
        </linearGradient>
        <linearGradient x1="107.254377%" y1="-120.462206%" x2="38.2696203%" y2="-120.462203%" id="linearGradient-25">
            <stop stop-color="#FAD0BA" offset="0%"></stop>
            <stop stop-color="#F2A384" offset="100%"></stop>
        </linearGradient>
        <linearGradient x1="107.254377%" y1="-120.462206%" x2="38.2696203%" y2="-120.462203%" id="linearGradient-26">
            <stop stop-color="#FAD0BA" offset="0%"></stop>
            <stop stop-color="#F2A384" offset="100%"></stop>
        </linearGradient>
        <linearGradient x1="107.254377%" y1="-120.462206%" x2="38.2696203%" y2="-120.462203%" id="linearGradient-27">
            <stop stop-color="#FAD0BA" offset="0%"></stop>
            <stop stop-color="#F2A384" offset="100%"></stop>
        </linearGradient>
        <linearGradient x1="75.0563531%" y1="68.3119178%" x2="-1.87814457%" y2="23.9090012%" id="linearGradient-28">
            <stop stop-color="#092871" offset="0%"></stop>
            <stop stop-color="#2B68EE" offset="100%"></stop>
        </linearGradient>
        <linearGradient x1="50%" y1="14.930699%" x2="55.252189%" y2="72.1969542%" id="linearGradient-29">
            <stop stop-color="#FFE579" offset="0%"></stop>
            <stop stop-color="#FEC644" offset="100%"></stop>
        </linearGradient>
        <linearGradient x1="79.7446341%" y1="68.3119178%" x2="-11.5850367%" y2="23.9090012%" id="linearGradient-30">
            <stop stop-color="#092871" offset="0%"></stop>
            <stop stop-color="#2B68EE" offset="100%"></stop>
        </linearGradient>
        <linearGradient x1="64.1690818%" y1="68.3119178%" x2="20.6635012%" y2="23.9090012%" id="linearGradient-31">
            <stop stop-color="#092871" offset="0%"></stop>
            <stop stop-color="#2B68EE" offset="100%"></stop>
        </linearGradient>
        <linearGradient x1="86.2301616%" y1="41.5984811%" x2="92.4962333%" y2="15.1806751%" id="linearGradient-32">
            <stop stop-color="#F1A385" stop-opacity="0" offset="0%"></stop>
            <stop stop-color="#F2A384" offset="100%"></stop>
        </linearGradient>
        <linearGradient x1="60.7312459%" y1="38.1188422%" x2="52.0812714%" y2="50%" id="linearGradient-33">
            <stop stop-color="#3485F7" offset="0%"></stop>
            <stop stop-color="#1A57CF" offset="100%"></stop>
        </linearGradient>
        <linearGradient x1="107.254377%" y1="-120.462206%" x2="38.2696203%" y2="-120.462203%" id="linearGradient-34">
            <stop stop-color="#FAD0BA" offset="0%"></stop>
            <stop stop-color="#F2A384" offset="100%"></stop>
        </linearGradient>
        <linearGradient x1="100%" y1="50%" x2="0%" y2="50%" id="linearGradient-35">
            <stop stop-color="#2865C6" offset="0%"></stop>
            <stop stop-color="#10378A" offset="100%"></stop>
        </linearGradient>
        <linearGradient x1="50%" y1="27.7727484%" x2="55.0341343%" y2="103.623291%" id="linearGradient-36">
            <stop stop-color="#1542AB" offset="0%"></stop>
            <stop stop-color="#2B68EE" offset="100%"></stop>
        </linearGradient>
        <linearGradient x1="107.254377%" y1="-120.462206%" x2="38.2696203%" y2="-120.462203%" id="linearGradient-37">
            <stop stop-color="#FAD0BA" offset="0%"></stop>
            <stop stop-color="#F2A384" offset="100%"></stop>
        </linearGradient>
        <linearGradient x1="56.0932923%" y1="0%" x2="51.1817635%" y2="50%" id="linearGradient-38">
            <stop stop-color="#3485F7" offset="0%"></stop>
            <stop stop-color="#1A57CF" offset="100%"></stop>
        </linearGradient>
        <linearGradient x1="100%" y1="50%" x2="0%" y2="50%" id="linearGradient-39">
            <stop stop-color="#2865C6" offset="0%"></stop>
            <stop stop-color="#10378A" offset="100%"></stop>
        </linearGradient>
        <linearGradient x1="50%" y1="42.0537755%" x2="67.2859088%" y2="79.3198007%" id="linearGradient-40">
            <stop stop-color="#84F0A8" offset="0%"></stop>
            <stop stop-color="#48B676" offset="100%"></stop>
        </linearGradient>
        <linearGradient x1="50%" y1="38.3357238%" x2="60.5143561%" y2="73.9437059%" id="linearGradient-41">
            <stop stop-color="#46C36F" stop-opacity="0" offset="0%"></stop>
            <stop stop-color="#4DBB7A" offset="100%"></stop>
        </linearGradient>
        <linearGradient x1="107.254377%" y1="-120.462206%" x2="38.2696203%" y2="-120.462203%" id="linearGradient-42">
            <stop stop-color="#FAD0BA" offset="0%"></stop>
            <stop stop-color="#F2A384" offset="100%"></stop>
        </linearGradient>
        <linearGradient x1="93.6730597%" y1="46.7015324%" x2="1.75675757%" y2="53.4002339%" id="linearGradient-43">
            <stop stop-color="#7BE7A1" offset="0%"></stop>
            <stop stop-color="#84F0A8" offset="100%"></stop>
        </linearGradient>
        <linearGradient x1="50%" y1="0%" x2="50%" y2="100%" id="linearGradient-44">
            <stop stop-color="#A0ECC3" offset="0%"></stop>
            <stop stop-color="#67D490" offset="100%"></stop>
        </linearGradient>
        <linearGradient x1="140.583572%" y1="9.75583704%" x2="25.1634099%" y2="116.60459%" id="linearGradient-45">
            <stop stop-color="#E5EDFF" offset="0%"></stop>
            <stop stop-color="#6B9AD9" offset="100%"></stop>
        </linearGradient>
        <linearGradient x1="50%" y1="31.3911451%" x2="-33.8124944%" y2="200.076676%" id="linearGradient-46">
            <stop stop-color="#F7FAFF" offset="0%"></stop>
            <stop stop-color="#6B9AD9" offset="100%"></stop>
        </linearGradient>
        <linearGradient x1="140.583572%" y1="7.01949244%" x2="25.1634099%" y2="121.133275%" id="linearGradient-47">
            <stop stop-color="#E5EDFF" offset="0%"></stop>
            <stop stop-color="#6B9AD9" offset="100%"></stop>
        </linearGradient>
    </defs>
    <g id="Illustration" stroke="none" stroke-width="1" fill="none" fill-rule="evenodd">
        <g id="Product-3" transform="translate(-188.000000, -147.000000)">
            <g id="Background" transform="translate(188.000000, 147.000000)" fill="#E2EBFC">
                <circle opacity="0.300000012" cx="815.856385" cy="247.479401" r="247"></circle>
                <circle opacity="0.200000003" cx="247.758792" cy="409.348771" r="247"></circle>
            </g>
            <g id="Video" transform="translate(247.000000, 286.000000)" fill-rule="nonzero">
                <path
                    d="M0.914213562,87.6812409 L87.1812409,1.41421356 C87.9622895,0.633164979 89.2286194,0.633164979 90.009668,1.41421356 L153.649278,65.0538239 C154.430327,65.8348725 154.430327,67.1012024 153.649278,67.882251 L67.382251,154.149278 C66.6012024,154.930327 65.3348725,154.930327 64.5538239,154.149278 L0.914213562,90.509668 C0.133164979,89.7286194 0.133164979,88.4622895 0.914213562,87.6812409 Z"
                    id="Video-bas"
                    fill="url(#linearGradient-1)"></path>
                <path
                    d="M99.9091629,100.409163 C90.9271042,109.391222 76.3643097,109.391222 67.382251,100.409163 C58.4001923,91.4271042 58.4001923,76.8643097 67.382251,67.882251 C76.3643097,58.9001923 90.9271042,58.9001923 99.9091629,67.882251 C108.891222,76.8643097 108.891222,91.4271042 99.9091629,100.409163 Z"
                    id="Video-bas"
                    fill="url(#linearGradient-2)"></path>
                <path
                    d="M76.9182149,80.3390639 L88.4737716,76.7754385 C89.5292886,76.4499269 90.6488334,77.0417132 90.9743449,78.0972302 C91.0927682,78.4812345 91.0927682,78.8920074 90.9743449,79.2760117 L87.4107195,90.8315685 C87.085208,91.8870854 85.9656632,92.4788717 84.9101462,92.1533602 C84.5988331,92.0573541 84.3156852,91.886753 84.0853234,91.6563912 L76.0933921,83.6644599 C75.3123435,82.8834113 75.3123435,81.6170814 76.0933921,80.8360328 C76.3237538,80.6056711 76.6069017,80.4350699 76.9182149,80.3390639 Z"
                    id="Video-bas"
                    fill="#FFFFFF"></path>
                <path
                    d="M0.914213562,87.6812409 L87.1812409,1.41421356 C87.9622895,0.633164979 89.2286194,0.633164979 90.009668,1.41421356 L97.7878426,9.19238816 L8.69238816,98.2878426 L0.914213562,90.509668 C0.133164979,89.7286194 0.133164979,88.4622895 0.914213562,87.6812409 Z"
                    id="Video-bas"
                    fill="url(#linearGradient-2)"></path>
                <path
                    d="M11.5208153,89.8025612 C10.7397667,90.5836098 9.47343674,90.5836098 8.69238816,89.8025612 C7.91133957,89.0215126 7.91133957,87.7551827 8.69238816,86.9741341 C9.47343674,86.1930855 10.7397667,86.1930855 11.5208153,86.9741341 C12.3018639,87.7551827 12.3018639,89.0215126 11.5208153,89.8025612 Z"
                    id="Video-bas"
                    fill="#FFFFFF"></path>
                <path
                    d="M16.4705627,84.8528137 C15.6895142,85.6338623 14.4231842,85.6338623 13.6421356,84.8528137 C12.861087,84.0717652 12.861087,82.8054352 13.6421356,82.0243866 C14.4231842,81.243338 15.6895142,81.243338 16.4705627,82.0243866 C17.2516113,82.8054352 17.2516113,84.0717652 16.4705627,84.8528137 Z"
                    id="Video-bas"
                    fill="#FFFFFF"></path>
            </g>
            <g id="Like" transform="translate(260.000000, 499.000000)" fill-rule="nonzero">
                <path
                    d="M31.8051363,2.58622518 C32.9097058,0.673054691 35.3560674,0.0175540698 37.2692379,1.12212357 L71.910254,21.1221236 C73.8234245,22.2266931 74.4789252,24.6730547 73.3743557,26.5862252 L64,45 L72.7039985,49.9838328 C73.1790853,50.2581242 73.5206486,50.7155208 73.6487264,51.2489431 C73.9066105,52.3229866 73.2449826,53.4027273 72.170939,53.6606115 L57.5,58 L42.8743557,79.4137748 C41.7697862,81.3269453 39.3234245,81.9824459 37.410254,80.8778764 L2.76923789,60.8778764 C0.856067393,59.7733069 0.200566772,57.3269453 1.30513627,55.4137748 L31.8051363,2.58622518 Z"
                    id="like-base"
                    fill="url(#linearGradient-3)"></path>
                <path
                    d="M31.2940375,38.0868589 C28.7554074,36.6211801 28.0405869,33.106616 29.6974411,30.2368603 C31.3542954,27.3671045 34.5983068,26.1381732 38.8262363,28.5791694 C41.6448559,30.2065002 44.2414523,36.324448 46.6160254,46.9330127 C36.2414523,50.1808544 29.6448559,50.9911099 26.8262363,49.3637791 C22.5983068,46.9227829 22.0405869,43.4989209 23.6974411,40.6291651 C25.3542954,37.7594094 28.7554074,36.6211801 31.2940375,38.0868589 Z"
                    id="like-base"
                    fill="#FFFFFF"></path>
            </g>
            <g id="Papper" transform="translate(382.000000, 658.000000)" fill-rule="nonzero">
                <path
                    d="M7.14762558,25.9580483 C16.2235362,18.2595232 24.090506,11.9918457 30.7485349,7.15501599 C40.7355782,-0.100228623 53.7010431,-0.800317031 60.1821566,0.961977285 C67.4853822,6.41590879 86.5801335,21.2715832 94.4539009,28.9357487 C89.8106675,29.8365464 85.6871594,29.8365464 79.5297513,31.4392694 C57.3985963,37.1998279 49.5817326,56.6178341 46.6259528,57.8444737 C41.1123195,60.1326147 43.4452363,59.080279 40.1165913,59.5176982 C37.8974946,59.809311 26.9078394,48.622761 7.14762558,25.9580483 Z"
                    id="Papper-base"
                    fill="url(#linearGradient-4)"></path>
                <path
                    d="M8.4392706,18.7085873 C0.0816350642,27.5625626 -1.58230676,33.7368688 3.44744514,37.231506 C8.85948627,40.9917551 25.5694751,52.1176874 33.2694315,56.8460961 C38.2453422,59.9017159 42.8370615,60.0071392 47.0445892,57.162366 C41.5558359,59.4510872 38.0118721,58.4821963 36.4126976,54.2556932 C34.8135231,50.0291902 37.0168712,45.7323591 43.022742,41.3651999 L8.4392706,18.7085873 Z"
                    id="Papper-base"
                    fill="url(#linearGradient-5)"></path>
            </g>
            <g id="Papper" transform="translate(783.500000, 761.500000) scale(-1, 1) rotate(-360.000000) translate(-783.500000, -761.500000) translate(737.500000, 731.000000)" fill="url(#linearGradient-6)" fill-rule="nonzero">
                <path
                    d="M5.41680251,25.8317747 C14.7417933,17.8074122 22.2285964,11.7434682 27.8772118,7.63994277 C37.8642552,0.384698152 50.82972,-0.315390256 57.3108335,1.44690406 C64.6140591,6.90083557 83.7088105,21.75651 91.5825778,29.4206755 C86.9393444,30.3214732 82.8158364,30.3214732 76.6584282,31.9241961 C54.5272732,37.6847547 46.7104095,57.1027609 43.7546297,58.3294005 C38.2409965,60.6175415 40.5739133,59.5652058 37.2452682,60.002625 C35.200741,60.2712975 24.5696424,51.8941047 5.35197235,34.8710465 L5.35197017,34.871049 C2.87147427,32.6738198 2.64184125,28.8817744 4.83907045,26.4012785 C5.01857915,26.1986275 5.21159756,26.0083582 5.41680251,25.8317747 Z"
                    id="Papper-base"></path>
            </g>
            <g id="File" transform="translate(873.000000, 631.000000)" fill-rule="nonzero">
                <path
                    d="M182.323636,58.7821502 L98.8225387,0.685474939 C76.6769624,49.9308832 43.9549877,84.9470023 0.656614534,105.733832 L72.1059783,173 C128.007177,152.266818 164.746396,114.194201 182.323636,58.7821502 Z"
                    id="File-base"
                    fill="url(#linearGradient-7)"></path>
                <polygon id="File-base" fill="#C5D7F3" style="mix-blend-mode: multiply;" opacity="0.517118566" points="41.2602639 101 34.7478916 105.382973 87.8566458 149.264065 95.8056754 145.013408"></polygon>
                <polygon id="File-base" fill="#C5D7F3" style="mix-blend-mode: multiply;" opacity="0.517118566" points="96.8328299 29.7403062 159.488047 69.365524 155.240114 76.123246 92.8687616 36.5946083"></polygon>
                <polygon id="File-base" fill="#C5D7F3" style="mix-blend-mode: multiply;" opacity="0.517118566" points="87.4329899 45.9783702 150.088207 85.6035879 145.840274 92.3613099 83.4689217 52.8326723"></polygon>
                <polygon id="File-base" fill="#C5D7F3" style="mix-blend-mode: multiply;" opacity="0.517118566" points="108.153381 84.0071261 139.64218 103.4535 135.394247 110.211222 104.189313 90.8614282"></polygon>
                <path
                    d="M78.6867768,59.5112868 L99.0388941,74.8923101 C98.5029806,76.1914146 97.80511,77.6693453 96.9452826,79.3261022 C93.0142611,86.9005847 87.4674787,93.508317 80.7014677,98.6769216 C77.9460291,100.781821 75.6294146,102.616083 73.7516244,104.179706 L52.814543,87.7259511 C53.8345375,87.1170085 54.9668429,86.422889 56.2114591,85.6435926 C64.9356311,80.1810926 72.0499226,72.4742309 76.8184353,63.3202007 C77.5347247,61.9451524 78.1575052,60.6755144 78.6867768,59.5112868 Z"
                    id="File-base"
                    fill="#C5D7F3"
                    style="mix-blend-mode: multiply;"
                    opacity="0.517118566"></path>
                <path
                    d="M96.4956709,98.029426 L124.696247,120.520955 C121.448798,125.39329 117.820001,129.510709 113.809857,132.87321 C109.799713,136.235711 105.574027,138.704267 101.132798,140.278879 L72.526541,118.22002 C78.5553942,114.638726 83.3144237,111.363567 86.8036295,108.394543 C90.2928353,105.425519 93.5235158,101.97048 96.4956709,98.029426 Z"
                    id="File-base"
                    fill="#C5D7F3"
                    style="mix-blend-mode: multiply;"
                    opacity="0.517118566"></path>
            </g>
            <g id="Papper" transform="translate(539.000000, 658.000000)" fill-rule="nonzero">
                <path
                    d="M0.860814052,45 C0.860814052,26.6666667 3.98140724,11.7166127 10.2225936,0.14983811 C33.6480739,31.3832794 58.4266127,45.5212151 84.55821,42.5636452 C85.3620501,65.9510899 67.1902531,140.976901 150.305505,154.536072 C134.053744,154.536072 119.484175,151.387404 106.596795,145.090067 C65.4570573,127.631101 37.8827926,111.751348 23.8740012,97.4508089 C9.86520975,83.1502696 2.19414739,65.6666667 0.860814052,45 Z"
                    id="Papper-base"
                    fill="url(#linearGradient-8)"></path>
                <path
                    d="M0.5,42.6030318 C4.40720937,83.5343439 26.7138302,94.9650247 67.4198626,76.895074 C81.4913315,121.704107 110.984907,147.514269 155.90059,154.32556 C109.424289,153.565464 72.5201108,143.360466 45.1880561,123.710564 C17.8560015,104.060663 2.9599828,77.024819 0.5,42.6030318 Z"
                    id="Papper-base"
                    fill="url(#linearGradient-9)"></path>
            </g>
            <g id="Window-Tab" transform="translate(1013.000000, 352.000000)">
                <path
                    d="M47.5687399,121.5379 C45.8572316,107.32516 39.3756009,94.5805365 29.7715815,84.9517633 C26.4043252,80.9739744 21.8698153,77.4889631 16.0707567,74.5514367 C11.1608056,71.795085 5.84081269,69.6825911 0.225190429,68.3283703 C0.416674043,61.9374615 4.82786024,31.2410904 9.4027189,0.341188024 C93.2013177,12.1727515 76.5920665,91.0179539 70.3054084,103.056235 C67.4861117,108.454889 59.9072222,114.615443 47.5687399,121.5379 L47.5687399,121.5379 Z"
                    id="Window-base"
                    fill="url(#linearGradient-10)"
                    fill-rule="nonzero"></path>
                <path
                    d="M9.32327846,0.225269313 C48.0594037,5.43444478 77.5,31.4021686 77.5,62.6524069 C77.5,75.4027968 72.5989757,87.2737977 64.16522,97.2142469 C68.3425721,89.6296804 70.6526366,81.2904657 70.6526366,72.536757 C70.6526366,42.7279563 43.8653366,17.7255901 7.77479424,10.9614266 L9.32327846,0.225269313 Z"
                    id="Window-base"
                    fill="url(#linearGradient-11)"></path>
                <circle id="Window-base" fill="url(#linearGradient-2)" fill-rule="nonzero" cx="16.3595661" cy="7.5" r="2.5"></circle>
                <circle id="Window-base" fill="url(#linearGradient-2)" fill-rule="nonzero" cx="24.9614552" cy="9.94502368" r="2.5"></circle>
                <path
                    d="M9.66119579,125.033543 C41.0579826,120.707476 66.292225,102.735276 74.5917726,79.3924269 C75.2151896,78.6662498 75.5510069,78.271765 75.5663799,78.2837408 C75.5663799,145.791391 53.5979852,184.212402 9.66119579,193.547632 L9.66119579,125.033543 L9.66119579,125.033543 Z"
                    id="Window-base"
                    fill="url(#linearGradient-12)"
                    fill-rule="nonzero"></path>
            </g>
            <g id="message" transform="translate(466.500000, 264.000000)" fill-rule="nonzero">
                <path
                    d="M44.8033508,1.65054066 L113.192195,57.0307351 C114.479813,58.0734272 114.678364,59.9625165 113.635672,61.2501341 L74.4882871,109.593129 C73.445595,110.880746 71.5565057,111.079297 70.2688881,110.036605 L1.88004346,54.6564109 C0.592425872,53.6137187 0.393874585,51.7246294 1.43656675,50.4370118 L40.5839518,2.09401737 C41.6266439,0.806399781 43.5157332,0.607848495 44.8033508,1.65054066 Z"
                    id="message-base"
                    fill="url(#linearGradient-13)"></path>
                <path
                    d="M2.44729273,54.4626521 C2.2293509,54.2861663 2.09553123,54.0262762 2.07846626,53.7463572 C2.04485918,53.1950959 2.46450083,52.7209664 3.01576212,52.6873593 L60.7815036,49.1657303 C62.3235029,49.0717239 63.684779,50.1641076 63.9269632,51.6898683 L73.0914007,109.425824 C73.1358484,109.705845 73.0593399,109.991571 72.8809111,110.211912 C72.533347,110.641118 71.9036506,110.707302 71.4744447,110.359738 L2.44729273,54.4626521 Z"
                    id="message-base"
                    fill="url(#linearGradient-14)"></path>
                <path
                    d="M44.3730686,1.30210498 L113.635126,57.3894135 C114.064332,57.7369775 114.130516,58.366674 113.782952,58.7958798 C113.615039,59.0032345 113.371225,59.1348878 113.105745,59.161553 L52.9437314,65.2043267 C51.3113695,65.3682838 49.8500496,64.1905902 49.6633949,62.5606677 L42.7502415,2.19302488 C42.6874059,1.6443263 43.0812757,1.14857989 43.6299743,1.08574428 C43.8966722,1.05520269 44.1644507,1.13316958 44.3730686,1.30210498 Z"
                    id="message-base"
                    fill="url(#linearGradient-15)"></path>
            </g>
            <g id="Folder" transform="translate(731.000000, 290.000000)" fill-rule="nonzero">
                <path
                    d="M1.7417954,73.1300055 C1.73908088,73.1278449 1.73637198,73.1256772 1.73366873,73.1235025 C0.873027099,72.4311372 0.736612205,71.1721763 1.42897754,70.3115346 L14.4387173,54.1398358 C15.0890838,53.3314007 16.2496784,53.1545634 17.1113016,53.7326201 L21.738405,56.8369097 C22.5044777,57.3508622 23.5226975,57.2741652 24.2031364,56.6512549 L79.5563947,5.97791067 C79.5668023,5.96838297 79.5773105,5.95896567 79.5879174,5.94966035 C80.4182497,5.22122225 81.6818828,5.3038238 82.4103209,6.13415609 L123.982589,53.5215672 C124.68022,54.3167833 124.637945,55.5177317 123.886125,56.2619255 L61.2625495,118.250258 C60.5423862,118.963116 59.4028838,119.024732 58.6100519,118.393686 L1.7417954,73.1300055 Z"
                    id="Folder-base"
                    fill="url(#linearGradient-16)"></path>
                <path
                    d="M58.3171241,118.261461 L23.1679759,74.9227201 C22.5171934,74.1203083 22.5846785,72.9542811 23.3236867,72.232305 L96.1003543,1.1329246 C96.8904546,0.361033826 98.1566985,0.375795525 98.9285893,1.16589578 C99.0764478,1.31724233 99.1993537,1.49109267 99.2927222,1.68096163 L125.061728,54.0833431 C125.442986,54.8586464 125.283295,55.791122 124.665781,56.3953811 L61.2692555,118.431121 C60.47978,119.203651 59.2135245,119.189914 58.4409948,118.400438 C58.3975697,118.35606 58.3562347,118.309685 58.3171241,118.261461 Z"
                    id="Folder-base"
                    fill="url(#linearGradient-17)"></path>
                <polygon id="Folder-base" fill="#A3C1EA" points="59.8345357 111.692391 57.893577 109.627551 76.70106 91.6972302 78.225598 94.0826957"></polygon>
            </g>
            <g id="Girl" transform="translate(391.000000, 372.000000)">
                <g id="Ipad" transform="translate(274.000000, 84.000000)" fill-rule="nonzero">
                    <path
                        d="M5.52196193,15.5860622 L32.9755592,0.914064031 L36.9288649,0.914064031 C37.8949654,0.914064031 38.7229647,1.60465344 38.8963805,2.55506239 L53.1108971,80.4580031 C53.3091682,81.5446319 52.5890119,82.5862492 51.5023831,82.7845203 C51.4100614,82.8013658 51.3166685,82.8116923 51.2228967,82.8154234 L18.302404,84.1253008 C17.3062951,84.1649351 16.4330917,83.4649518 16.2550453,82.4840832 L4.49679937,17.7071661 C4.34166689,16.8525315 4.75589875,15.9954686 5.52196193,15.5860622 Z"
                        id="Ipad-base"
                        fill="url(#linearGradient-18)"></path>
                    <path
                        d="M1.62283287,15.6229373 L32.5727347,1.10912694 C33.572802,0.640150118 34.7636975,1.07068398 35.2326743,2.07075124 C35.3074986,2.23030984 35.3609055,2.39905818 35.3915079,2.57261254 L49.1477385,80.5880735 C49.339545,81.6758621 48.613208,82.7131789 47.5254194,82.9049854 C47.4722955,82.9143526 47.4188144,82.9215666 47.3651072,82.9266099 L14.4018252,86.0219736 C13.3644927,86.1193827 12.4261488,85.4040972 12.2452255,84.37803 L0.502375018,17.7810156 C0.345466091,16.8911409 0.804719325,16.0065878 1.62283287,15.6229373 Z"
                        id="Ipad-base"
                        fill="url(#linearGradient-19)"></path>
                    <path
                        d="M4.70557916,22.5986096 L32.3287006,10.0876897 C32.8317907,9.85983271 33.4243404,10.0829533 33.6521973,10.5860434 C33.6867256,10.6622791 33.7115472,10.7425477 33.7260798,10.8249667 L45.0371154,74.9730369 C45.1330186,75.5169312 44.7698501,76.0355896 44.2259558,76.1314928 C44.200778,76.1359323 44.1754393,76.1394047 44.1499954,76.1419022 L14.8283534,79.0200333 C14.3082846,79.0710818 13.8366009,78.7130935 13.7458579,78.1984643 L4.13334291,23.683183 C4.05403432,23.2334017 4.28954144,22.7870392 4.70557916,22.5986096 Z"
                        id="Ipad-base"
                        fill="url(#linearGradient-20)"></path>
                </g>
                <g id="Hand" transform="translate(253.000000, 133.000000)" fill-rule="nonzero">
                    <path
                        d="M20.7956825,53.1033304 L6.5,51.2383197 C12.4320402,41.1176156 16.2415051,31.9347346 17.9283948,23.6896767 C19.7311803,18.8178788 17.5645093,17.7080252 19.303098,10.6257797 C20.2752418,6.66569382 22.2388838,1.55678118 27.0609262,0.345842293 C27.6507348,4.64822998 28.2206432,7.13144773 28.817985,10.6257797 C29.4153267,14.1201116 30.9815652,6.10841923 34.9136734,7.13144773 C38.8457816,8.15447623 31.1016021,15.7818492 31.1016021,19.019014 C31.1016021,24.1883279 29.951313,27.6221486 27.6507348,29.3204761 L20.7956825,53.1033304 Z"
                        fill="url(#linearGradient-21)"></path>
                    <path
                        d="M1.72427246,51.8225828 C10.1106449,40.7154073 14.3038311,34.4575603 14.3038311,33.0490416 C14.3038311,30.9362637 28.1081885,31.0771156 28.1081885,35.755847 C28.1081885,40.4345784 22.8363045,59.4732011 20.3184681,61.0820618 C18.6399105,62.1546356 11.9090578,62.6734254 0.125910012,62.6384311 L1.72427246,51.8225828 Z"
                        id="Path-23"
                        fill="url(#linearGradient-22)"></path>
                </g>
                <g id="Jacket" transform="translate(261.000000, 125.000000)" fill-rule="nonzero">
                    <path
                        d="M6.00841737,66.0289408 C46.9893529,65.9966637 72.5980571,57.900628 82.8345301,41.7408338 C98.1892395,17.5011426 92.0117013,5.64836269 103.625637,1.55437771 C115.239572,-2.53960727 131.432877,14.5021327 136.345001,22.8780575 C139.61975,28.4620074 147.415147,61.2758975 159.731191,121.319728 L17.6959795,103.156905 L6.00841737,66.0289408 Z"
                        fill="url(#linearGradient-23)"></path>
                    <path
                        d="M96.2535254,29.1851618 L101.210243,34.1418799 C102.383466,35.3151027 102.383466,37.2172726 101.210243,38.3904954 C100.037021,39.5637182 98.1348508,39.5637182 96.961628,38.3904954 L92.0049099,33.4337773 C91.4118399,33.9171273 90.9961294,34.3328379 90.7577783,34.6809089 C90.2805451,35.3778264 88.437023,21.2177267 88.6432009,21.5748374 C89.2300346,22.591263 90.3506042,23.7118327 92.0049099,24.9365463 L96.961628,19.9798282 C98.1348508,18.8066054 100.037021,18.8066054 101.210243,19.9798282 C102.383466,21.153051 102.383466,23.055221 101.210243,24.2284437 L96.2535254,29.1851618 Z"
                        id="Texture"
                        fill="#6EDB96"
                        transform="translate(95.358671, 29.185162) rotate(-330.000000) translate(-95.358671, -29.185162) "></path>
                    <path
                        d="M0.315399503,71.7408338 C49.6107219,68.7762001 81.0375793,60.3541934 94.5959718,46.4748137 C103.683176,37.1724747 108.401738,33.7000071 108.447247,23.4847728 C108.492756,13.2695384 96.2928758,10.2694287 103.683176,4.42849041 C114.924392,-4.45602562 147.710289,28.4595387 150.886748,33.8758876 C154.161497,39.4598375 157.109645,78.6077842 159.731191,151.319728 L17.6959795,133.156905 L0.315399503,71.7408338 Z"
                        id="Shadow"
                        fill="url(#linearGradient-24)"></path>
                </g>
                <g id="Head" transform="translate(0.500000, 11.000000)">
                    <path
                        d="M224.36963,175.545851 C217.558929,172.288559 211.932697,166.514269 207.490935,158.22298 C188.348115,146.566182 178.18447,149.325188 177,166.5 C179.267484,175.192023 190.698683,188.566093 211.293595,206.622208 L213.5,208 L236.362386,186.650255 L224.36963,175.545851 Z"
                        id="Neck"
                        fill="url(#linearGradient-25)"></path>
                    <path
                        d="M206.12639,133.90864 C207.229085,134.182209 208.353621,134.379329 209.5,134.5 C215.576372,135.139618 214.28874,139.665793 211.263118,143.106701 C216.315359,155.683015 218.273059,164.327027 217.136218,169.038738 C215.401379,176.228889 204.492827,180.444734 182.488664,177.037756 L161.103197,161.606083 C156.489796,166.130854 152.026955,165.180873 147.714675,158.756139 C141.246255,149.119038 148.910452,145.55491 153.332611,146.328683 C158.552728,139.530365 158.43513,131.668711 152.979818,122.74372 C164.095293,121.874919 172.421449,119.952674 177.958287,116.976987 C183.495125,114.001299 187.110409,110.05473 188.804139,105.13728 C193.432449,108.029369 196.552707,112.967028 198.164912,119.950256 L206.12639,133.90864 Z"
                        id="Face"
                        fill="url(#linearGradient-26)"></path>
                    <path
                        d="M185.599156,110.886139 C187.015258,109.145569 188.083585,107.229282 188.804139,105.13728 C193.432449,108.029369 196.552707,112.967028 198.164912,119.950256 L206.12639,133.90864 C206.250816,133.939509 206.37552,133.969405 206.500502,133.998327 C199.833333,134.666667 193.833333,129.166667 188.5,117.5 C187.397807,115.088952 186.430858,112.88433 185.599154,110.886135 Z"
                        id="Shadow"
                        fill="url(#linearGradient-27)"></path>
                    <path
                        d="M117,165 C87,167.5 84,145.5 96,103.5 C108,61.5 120.5,29 76,6.5 C31.5,-16 -27,28 15.5,81.5 C58,135 43.5,169.5 87,180 C116,187 134,182.833333 141,167.5 C131.258473,172.043665 123.258473,171.210331 117,165 Z"
                        id="Hair"
                        fill="url(#linearGradient-28)"></path>
                    <path d="M115.5,162.5 C112.833333,167.833333 113.833333,172.5 118.5,176.5 C123.166667,180.5 128.5,180.666667 134.5,177 L115.5,162.5 Z" id="Hairbands" fill="url(#linearGradient-29)"></path>
                    <path
                        d="M189,105.5 C187.333333,117.166667 179,124.833333 164,128.5 C165.666667,137.833333 164.5,144.166667 160.5,147.5 L163.5,155.5 C158.833333,150.833333 155.333333,148.5 153,148.5 C149.5,148.5 143.5,153 148.5,159.5 C151.833333,163.833333 156,164.5 161,161.5 C169.333333,163.166667 179.5,169 191.5,179 L191.5,186.5 C185,189.5 102,189.630845 107.5,136.5 C108.311103,128.66462 109.587078,121.534893 111.327924,115.110819 L111.327907,115.110815 C119.151752,86.2392459 148.899262,69.1766944 177.770831,77.0005391 C181.16897,77.9213937 184.469227,79.1713869 187.62476,80.7327773 C199.140419,86.4308447 205.469201,98.1075153 198,120 L196.650581,115.951744 C195.251894,111.755681 192.577071,108.101506 189,105.5 L189,105.5 Z"
                        id="Hair"
                        fill="url(#linearGradient-30)"></path>
                    <path
                        d="M105.997484,183.111662 C100.299947,182.719019 93.967452,181.681799 87,180 C43.5,169.5 58,135 15.5,81.5 C-17.705988,39.699521 10.7441633,3.69838179 45.9999943,0.683331944 L46,1 C25.3333333,10.6666667 17.3333333,23.5 22,39.5 C29,63.5 57.5,60 53.5,88 C49.5,116 72,101.5 72,131 C72,150.381254 87.5389697,174.510527 105.997484,183.111662 Z"
                        id="Hair"
                        fill="url(#linearGradient-31)"></path>
                    <path
                        d="M168.548319,166.978455 C171.040684,161.941025 175.524578,159.28154 182,159 C197.333333,158.333333 207,153.166667 211,143.5 C211.303044,143.904059 211.59813,144.295874 211.885256,144.675443 C216.474838,156.404454 218.225159,164.525552 217.136218,169.038738 C215.401379,176.228889 204.492827,180.444734 182.488664,177.037756 L168.54832,166.978456 Z"
                        id="Combined-Shape"
                        fill="url(#linearGradient-32)"></path>
                </g>
                <g id="Body" transform="translate(213.000000, 184.000000)" fill="url(#linearGradient-33)" fill-rule="nonzero">
                    <path
                        d="M0.316904768,9.56579108 C7.10849928,8.52000658 10.5042965,7.03563629 10.5042965,5.11268023 C10.5042965,3.18972417 10.0953239,1.86408 9.27737865,1.13574774 C32.6444213,0.0672024857 46.7244215,-0.11254441 51.5173794,0.596507053 C58.7068163,1.66008425 66.6379702,16.3589919 67.4581892,16.3589919 C68.2784081,16.3589919 87.7112403,32.6603396 95.537134,32.6603396 C100.754396,32.6603396 110.094492,35.5530202 123.557422,41.3383814 L103.428455,60.247834 L20.562667,49.2905549 L0.316904768,9.56579108 Z"></path>
                </g>
                <g id="foot" transform="translate(341.000000, 0.000000)">
                    <path
                        d="M185.050002,108.231942 C183.830859,107.407923 178.901513,97.7366374 188.261622,96.1626995 C197.62173,94.5887616 199.81799,94.1840033 203.425295,93.0319309 C205.830164,92.2638826 207.581165,91.0036888 208.678296,89.2513496 L207.42684,102.022812 L200.23576,107.356427 C190.924683,108.48945 185.862764,108.781289 185.050002,108.231942 Z"
                        id="leg"
                        fill="url(#linearGradient-34)"
                        fill-rule="nonzero"></path>
                    <path
                        d="M197.091755,108.485887 C197.082406,105.715663 204.023329,105.332629 205.907277,101.101213 C207.791224,96.8697974 203.832568,91.9534186 204.831396,91.1023913 C207.751444,88.6144345 210.529623,84.354119 214.557077,80.0970631 C224.465533,69.6237353 225.629595,68.7004078 231.329947,73.4037599 C232.775715,74.0474571 227.216536,88.4790499 214.65241,116.698538 C211.12102,116.494393 208.023642,115.852702 205.360276,114.773467 C201.365227,113.154613 197.101123,111.256112 197.091755,108.485887 Z"
                        id="Shoes"
                        fill="url(#linearGradient-35)"
                        fill-rule="nonzero"></path>
                    <path
                        d="M69.1397171,106.810022 C83.5704959,99.5587455 185.368995,87.2575416 192.028309,90.9292025 C195.619264,92.9091012 195.985417,99.7509645 193.126767,111.454792 L193.126765,111.454792 C192.542782,113.845723 190.746049,115.754296 188.394691,116.481418 C139.629271,131.561394 114.458539,138.478494 112.882496,137.232717 C110.459084,135.317142 74.2472035,242.490575 62.4598621,260.914517 C50.6725208,279.338458 36.0160032,306.704816 11.3703633,271.898553 C-5.06006334,248.694377 -3.11697331,233.151808 17.1996334,225.270844 C42.2058367,151.131148 59.5191979,111.644207 69.1397171,106.810022 Z"
                        id="Pants"
                        fill="url(#linearGradient-36)"
                        fill-rule="nonzero"></path>
                    <path
                        d="M212.320704,48.0258026 C210.92983,47.5453983 203.665335,39.4794627 212.29914,35.536581 C220.932946,31.5936993 222.949611,30.634299 226.135821,28.5878433 C228.259962,27.2235395 229.625136,25.5530935 230.231345,23.5765053 L232.328028,36.2366917 L226.76242,43.2497564 C218.061858,46.7540568 213.247953,48.3460722 212.320704,48.0258026 Z"
                        id="leg"
                        fill="url(#linearGradient-37)"
                        fill-rule="nonzero"></path>
                    <path
                        d="M92.3153344,89.4267748 C106.821817,72.8633439 207.724546,28.9343459 215.192536,30.3684616 C219.256764,31.1489357 220.86929,37.7901776 220.030113,50.2921872 L220.030115,50.2921873 C219.878774,52.546847 218.473492,54.5252548 216.394431,55.4106356 C194.404564,64.775154 166.101181,82.6034882 131.484281,108.895638 C127.172289,163.231827 123.177253,197.45482 119.499176,211.564619 C113.982059,232.729317 94.0783803,290.26483 59.8832571,264.778028 C37.0865082,247.786827 32.7485925,223.882661 46.8695099,193.06553 C67.4957378,135.015314 82.644346,100.469062 92.3153344,89.4267748 Z"
                        id="Pants"
                        fill="url(#linearGradient-38)"
                        fill-rule="nonzero"></path>
                    <path d="M213.5,36.5 C155.833333,64.8333333 120.5,84.8333333 107.5,96.5 C94.5,108.166667 90,146.333333 94,211" id="Texture" stroke="#1A57CF" stroke-linecap="round" stroke-linejoin="round" stroke-dasharray="5,10"></path>
                    <path
                        d="M224.01788,45.1544572 C223.291853,42.4810479 229.897133,40.3146227 230.621716,35.7397873 C231.346299,31.1649519 226.250078,27.4406703 226.994609,26.3601254 C229.171228,23.2011796 230.752092,18.3669852 233.540508,13.2126032 C240.400644,0.531648187 241.286067,-0.661499067 248.009501,2.40623052 C249.572607,2.65380207 247.938023,18.0324717 243.105751,48.5422394 C239.641853,49.2590409 236.483934,49.4408758 233.631993,49.0877441 C229.354082,48.5580466 224.743906,47.8278664 224.01788,45.1544572 Z"
                        id="Shoes"
                        fill="url(#linearGradient-39)"
                        fill-rule="nonzero"></path>
                </g>
                <g id="Jacket" transform="translate(178.000000, 119.000000)">
                    <path
                        d="M17.5304524,77.5704069 C25.5367852,68.5818533 31.3360146,64.0875765 34.9281405,64.0875765 C40.3163293,64.0875765 40.3163293,70.5606834 44.3296632,72.3884778 C56.2558136,77.82001 130.874375,125.413196 178.118042,85.0180672 C225.361708,44.6229381 225.180913,0.752590934 234.340457,0.752590934 C243.5,0.752590934 276.321171,46.563462 286,75.5 C291.884028,93.0913221 295.451463,111.826553 296.702306,131.705694 C296.932909,135.370635 295.472738,138.939419 292.739299,141.391618 C244.547282,184.625219 194.134183,203.328013 141.5,197.5 C60.2188383,188.5 7.23166518,129.317848 1.28502077,105.668472 C-2.67940883,89.902222 2.73573503,80.5362001 17.5304524,77.5704069 Z"
                        id="Jacket-base"
                        fill="url(#linearGradient-40)"
                        fill-rule="nonzero"></path>
                    <path
                        d="M221.416376,186.844816 C219.025766,187.773638 216.630146,188.647127 214.229516,189.465285 L213.646972,187.291202 L205.059666,189.592164 C203.027106,190.136786 200.937887,188.930575 200.393265,186.898016 C199.848642,184.865456 201.054853,182.776238 203.087413,182.231615 L211.674719,179.930653 L209.373757,171.343347 C208.999571,169.946863 209.451859,168.523634 210.430792,167.592983 C211.671535,167.306008 212.841639,166.991753 213.946161,166.652294 C215.258187,166.969457 216.360352,167.975481 216.734306,169.371094 L219.035268,177.9584 L227.622574,175.657438 C229.655133,175.112816 231.744352,176.319027 232.288975,178.351586 C232.833597,180.384145 231.627386,182.473364 229.594827,183.017987 L221.007521,185.318949 L221.416376,186.844816 Z M63.5895607,151.920517 C55.7308127,151.920517 49.3600386,145.549743 49.3600386,137.690995 C49.3600386,129.832247 55.7308127,123.461473 63.5895607,123.461473 C71.4483088,123.461473 77.8190828,129.832247 77.8190828,137.690995 C77.8190828,145.549743 71.4483088,151.920517 63.5895607,151.920517 Z M63.5895607,143.382804 C66.7330599,143.382804 69.2813695,140.834495 69.2813695,137.690995 C69.2813695,134.547496 66.7330599,131.999186 63.5895607,131.999186 C60.4460615,131.999186 57.8977519,134.547496 57.8977519,137.690995 C57.8977519,140.834495 60.4460615,143.382804 63.5895607,143.382804 Z M154.316281,121.185519 L160.602625,127.471863 C162.090562,128.9598 162.090562,131.372222 160.602625,132.860159 C159.114689,134.348095 156.702267,134.348095 155.21433,132.860159 L148.927985,126.573814 L142.641641,132.860159 C141.153704,134.348095 138.741282,134.348095 137.253345,132.860159 C135.765408,131.372222 135.765408,128.9598 137.253345,127.471863 L143.53969,121.185519 L137.253345,114.899174 C135.765408,113.411237 135.765408,110.998815 137.253345,109.510879 C138.741282,108.022942 141.153704,108.022942 142.641641,109.510879 L148.927985,115.797223 L155.21433,109.510879 C156.702267,108.022942 159.114689,108.022942 160.602625,109.510879 C162.090562,110.998815 162.090562,113.411237 160.602625,114.899174 L154.316281,121.185519 Z M241.411525,54.1156907 L247.697869,60.4020354 C249.185806,61.8899721 249.185806,64.3023941 247.697869,65.7903308 C246.209933,67.2782675 243.797511,67.2782675 242.309574,65.7903308 L236.023229,59.5039861 L229.736884,65.7903308 C228.248948,67.2782675 225.836526,67.2782675 224.348589,65.7903308 C222.860652,64.3023941 222.860652,61.8899721 224.348589,60.4020354 L230.634934,54.1156907 L224.348589,47.829346 C222.860652,46.3414093 222.860652,43.9289872 224.348589,42.4410505 C225.836526,40.9531138 228.248948,40.9531138 229.736884,42.4410505 L236.023229,48.7273952 L242.309574,42.4410505 C243.797511,40.9531138 246.209933,40.9531138 247.697869,42.4410505 C249.185806,43.9289872 249.185806,46.3414093 247.697869,47.829346 L241.411525,54.1156907 Z M125.855546,187.693338 C117.271295,187.693338 110.312385,180.734428 110.312385,172.150177 C110.312385,163.565927 117.271295,156.607017 125.855546,156.607017 C134.439796,156.607017 141.398706,163.565927 141.398706,172.150177 C141.398706,180.734428 134.439796,187.693338 125.855546,187.693338 Z M125.855546,178.367442 C129.289246,178.367442 132.07281,175.583878 132.07281,172.150177 C132.07281,168.716477 129.289246,165.932913 125.855546,165.932913 C122.421846,165.932913 119.638282,168.716477 119.638282,172.150177 C119.638282,175.583878 122.421846,178.367442 125.855546,178.367442 Z M210.296589,128.005048 C201.712338,128.005048 194.753428,121.046138 194.753428,112.461888 C194.753428,103.877637 201.712338,96.9187273 210.296589,96.9187273 C218.880839,96.9187273 225.839749,103.877637 225.839749,112.461888 C225.839749,121.046138 218.880839,128.005048 210.296589,128.005048 Z M210.296589,118.679152 C213.730289,118.679152 216.513853,115.895588 216.513853,112.461888 C216.513853,109.028188 213.730289,106.244624 210.296589,106.244624 C206.862889,106.244624 204.079325,109.028188 204.079325,112.461888 C204.079325,115.895588 206.862889,118.679152 210.296589,118.679152 Z"
                        id="Texture-Copy"
                        fill="#7DE9A2"
                        fill-rule="nonzero"></path>
                    <path
                        d="M117.46711,100.110733 C131.26221,102.021302 145.483233,101.5064 158.713087,96.5182893 C155.783461,109.010234 148.941831,121.476219 138.188197,133.916242 C108.305022,168.485711 17.4379167,134.762172 8.79798894,119.352235 C0.158061174,103.942299 10.8067717,79.4080655 28.1893743,75.8557763 C34.2478949,74.6176638 38.1768217,104.27978 47.5,108.5 C64.9261078,116.388084 90.279827,102.286575 106.754659,102.286575 C110.740181,102.286575 114.310998,101.561295 117.46711,100.110733 L117.46711,100.110733 Z"
                        id="Shedow"
                        fill="#52C47D"
                        fill-rule="nonzero"
                        opacity="0.5"></path>
                    <path
                        d="M286.019711,75.5589585 C291.891995,93.1331821 295.45286,111.848761 296.702306,131.705694 C296.932909,135.370635 295.472738,138.939419 292.739299,141.391618 C244.547282,184.625219 194.134183,203.328013 141.5,197.5 C105.386808,193.501303 74.8589116,179.59654 51.5604887,163.3034 C52.5349622,163.691076 53.5148011,164.089944 54.5,164.5 C147,203 113,167 182.5,169.5 C252,172 221,135 254,126 C275.724557,120.075121 286.397794,103.26144 286.019711,75.5589585 Z"
                        id="Texture"
                        fill="url(#linearGradient-41)"
                        fill-rule="nonzero"></path>
                    <path d="M232.5,15.5 C210.166667,74.8333333 178.333333,106.166667 137,109.5" id="Texture" stroke="#5FCC89"></path>
                    <path
                        d="M217.512402,83.596912 C222.164387,87.8171285 225.841589,92.2114228 228.544006,96.7797951 C231.374563,101.564785 233.494979,107.1481 234.905253,113.529741 C235.262762,115.147572 236.864101,116.169252 238.48193,115.811729 C238.491016,115.809721 238.500092,115.807671 238.509159,115.805579 L239.846071,115.49706 C241.126941,115.201475 242.066189,114.106444 242.163296,112.795502 L243.690842,92.1736349 C243.876587,89.6660778 242.479103,87.3086832 240.190053,86.2682059 L223.166191,78.5300867 C222.421265,78.1914842 221.570354,78.1718583 220.81061,78.4757561 L218.25,79.5 C216.991349,80.0034606 216.379145,81.4319347 216.882606,82.6905862 C217.021008,83.0365916 217.236378,83.3465409 217.512402,83.596912 Z"
                        id="texture"
                        stroke="#5FCC89"></path>
                    <circle id="texture" fill="#5FCC89" cx="239.658028" cy="90.8846719" r="1.68322019"></circle>
                    <circle id="texture" fill="#48C172" cx="34.5240579" cy="69.5211008" r="2.5"></circle>
                    <path d="M232.5,15.5 C264.166667,49.1666667 282,90.3333333 286,139" id="Texture" stroke="#48C172" stroke-linecap="round" stroke-linejoin="round" stroke-dasharray="5,10"></path>
                </g>
                <g id="Hand" transform="translate(182.000000, 126.000000)">
                    <path
                        d="M134.297027,57.8365655 L133.260795,38.7190335 C130.086932,33.7757858 128.5,28.7198125 128.5,23.5511138 C128.5,16.1219272 120.409954,12.2286647 122.74167,10.0344781 C123.211515,9.59234504 125.194765,9.21108777 127.705431,10.0344781 C129.995831,10.7856303 132.812062,17.3552064 135.260795,18.4729508 C136.316215,18.9547063 137.537414,15.3582702 138.297027,13.0395206 C138.868153,11.2961348 139.346495,7.71235269 139.346495,6.8219599 C139.346495,5.93156711 138.297027,1.92001754 138.297027,1.05577381 C142.297034,-0.765228155 150.056682,5.26581005 151.028826,9.22589591 C152.187885,13.9473929 150.58934,21.6889132 146.23319,32.4504567 L148.592709,55.9715547 L134.297027,57.8365655 Z"
                        fill="url(#linearGradient-42)"
                        fill-rule="nonzero"></path>
                    <path
                        d="M131.070315,46.3515893 C125.613456,78.3941265 114.455337,94.4153951 97.5959593,94.4153951 C72.306893,94.4153951 35.1750426,64.6932811 17.7924401,68.2455703 C0.409837556,71.7978595 -3.84193883,86.9422987 4.79798894,102.352235 C13.4379167,117.762172 104.305022,151.485711 134.188197,116.916242 C154.110314,93.8699294 160.606026,70.7345162 153.675334,47.5100027 C150.766989,44.6023799 147.366744,43.0488403 143.474598,42.849384 C139.582451,42.6499276 135.447691,43.8173294 131.070315,46.3515893 Z"
                        id="Sleeve"
                        fill="url(#linearGradient-43)"
                        fill-rule="nonzero"></path>
                    <path
                        d="M36.2965887,111.005048 C27.7123382,111.005048 20.7534283,104.046138 20.7534283,95.4618877 C20.7534283,86.8776372 27.7123382,79.9187273 36.2965887,79.9187273 C44.8808392,79.9187273 51.8397491,86.8776372 51.8397491,95.4618877 C51.8397491,104.046138 44.8808392,111.005048 36.2965887,111.005048 Z M36.2965887,101.679152 C39.7302889,101.679152 42.5138529,98.8955879 42.5138529,95.4618877 C42.5138529,92.0281875 39.7302889,89.2446235 36.2965887,89.2446235 C32.8628885,89.2446235 30.0793245,92.0281875 30.0793245,95.4618877 C30.0793245,98.8955879 32.8628885,101.679152 36.2965887,101.679152 Z"
                        id="Texture"
                        fill="url(#linearGradient-44)"
                        fill-rule="nonzero"
                        style="mix-blend-mode: overlay;"
                        opacity="0.395870536"></path>
                    <path d="M13.5,86 C62.1666667,111.333333 96.8333333,118 117.5,106 C138.166667,94 146.5,74.3333333 142.5,47" id="Texture" stroke="#5FCC89"></path>
                </g>
            </g>
            <g id="Chart" transform="translate(582.000000, 331.000000)">
                <path
                    d="M2.43185165,32.1837791 L120.274802,0.607855551 C121.341735,0.321971928 122.438409,0.955136907 122.724292,2.02206911 L146.018006,88.9553935 C146.30389,90.0223257 145.670725,91.1189996 144.603793,91.4048832 L26.7608419,122.980807 C25.6939097,123.26669 24.5972358,122.633525 24.3113521,121.566593 L1.01763809,34.6332688 C0.731754467,33.5663366 1.36491945,32.4696627 2.43185165,32.1837791 Z"
                    id="Char-base"
                    fill="url(#linearGradient-45)"
                    fill-rule="nonzero"></path>
                <polygon id="Char-base" fill="url(#linearGradient-46)" points="121.707598 13.6825294 141.636665 88.058818 27.6574174 118.599465 7.72835089 44.2231767"></polygon>
                <path
                    d="M10.556778,39.3241972 C9.48984581,39.6100808 8.3931719,38.9769159 8.10728827,37.9099837 C7.82140465,36.8430515 8.45456963,35.7463775 9.52150184,35.4604939 C10.588434,35.1746103 11.685108,35.8077753 11.9709916,36.8747075 C12.2568752,37.9416397 11.6237102,39.0383136 10.556778,39.3241972 Z"
                    id="Char-base"
                    fill="#F2F5FF"
                    fill-rule="nonzero"></path>
                <path
                    d="M17.3182588,37.5124639 C16.2513266,37.7983475 15.1546527,37.1651825 14.8687691,36.0982503 C14.5828854,35.0313181 15.2160504,33.9346442 16.2829826,33.6487606 C17.3499148,33.362877 18.4465887,33.996042 18.7324724,35.0629742 C19.018356,36.1299064 18.385191,37.2265803 17.3182588,37.5124639 Z"
                    id="Char-base"
                    fill="#F2F5FF"
                    fill-rule="nonzero"></path>
                <polygon
                    id="Char-base"
                    fill="url(#linearGradient-47)"
                    fill-rule="nonzero"
                    points="36.8676077 102.508089 32.594998 99.9110123 48.985499 72.9459944 68.3182396 76.4159735 82.4416579 47.6647289 99.5316342 53.1938389 113.038147 28.509522 117.424458 30.9095791 101.930971 59.2252622 85.0209477 53.7543722 71.1443661 82.0031276 51.4771066 78.4731067"></polygon>
            </g>
        </g>
    </g>
</svg>
