<svg width="1235px" height="800px" viewBox="0 0 1235 800" version="1.1" xmlns="http://www.w3.org/2000/svg" xmlns:xlink="http://www.w3.org/1999/xlink">
    <defs>
        <linearGradient x1="50%" y1="34.4678665%" x2="-33.8124944%" y2="175.263536%" id="linearGradient-1">
            <stop stop-color="#F7FAFF" offset="0%"></stop>
            <stop stop-color="#6B9AD9" offset="100%"></stop>
        </linearGradient>
        <linearGradient x1="157.419759%" y1="-0.451826594%" x2="118.835577%" y2="87.0898951%" id="linearGradient-2">
            <stop stop-color="#E5EDFF" offset="0%"></stop>
            <stop stop-color="#6B9AD9" offset="100%"></stop>
        </linearGradient>
        <linearGradient x1="97.7421152%" y1="-39.6921362%" x2="80.5935898%" y2="115.937591%" id="linearGradient-3">
            <stop stop-color="#E5EDFF" offset="0%"></stop>
            <stop stop-color="#6B9AD9" offset="100%"></stop>
        </linearGradient>
        <linearGradient x1="71.2187179%" y1="-39.6921362%" x2="63.597151%" y2="115.937591%" id="linearGradient-4">
            <stop stop-color="#E5EDFF" offset="0%"></stop>
            <stop stop-color="#6B9AD9" offset="100%"></stop>
        </linearGradient>
        <linearGradient x1="157.419759%" y1="-39.6921362%" x2="118.835577%" y2="115.937591%" id="linearGradient-5">
            <stop stop-color="#E5EDFF" offset="0%"></stop>
            <stop stop-color="#6B9AD9" offset="100%"></stop>
        </linearGradient>
        <linearGradient x1="157.419759%" y1="40.4770753%" x2="118.835577%" y2="57.0008224%" id="linearGradient-6">
            <stop stop-color="#E5EDFF" offset="0%"></stop>
            <stop stop-color="#6B9AD9" offset="100%"></stop>
        </linearGradient>
        <linearGradient x1="155.084617%" y1="-39.6921362%" x2="117.339196%" y2="115.937591%" id="linearGradient-7">
            <stop stop-color="#E5EDFF" offset="0%"></stop>
            <stop stop-color="#6B9AD9" offset="100%"></stop>
        </linearGradient>
        <linearGradient x1="83.2804773%" y1="49.5735471%" x2="111.028592%" y2="59.9451392%" id="linearGradient-8">
            <stop stop-color="#476DB1" offset="0%"></stop>
            <stop stop-color="#283F6F" offset="100%"></stop>
        </linearGradient>
        <linearGradient x1="83.2804773%" y1="49.9357159%" x2="59.8890922%" y2="50.0784964%" id="linearGradient-9">
            <stop stop-color="#476DB1" offset="0%"></stop>
            <stop stop-color="#283F6F" offset="100%"></stop>
        </linearGradient>
        <linearGradient x1="50%" y1="-142.327103%" x2="50%" y2="170.164832%" id="linearGradient-10">
            <stop stop-color="#95B7E5" offset="0%"></stop>
            <stop stop-color="#476DB1" offset="100%"></stop>
        </linearGradient>
        <linearGradient x1="50%" y1="32.1187137%" x2="57.5383547%" y2="115.977968%" id="linearGradient-11">
            <stop stop-color="#84F0A8" offset="0%"></stop>
            <stop stop-color="#48B676" offset="100%"></stop>
        </linearGradient>
        <path
            d="M20,25 L23,25 L23,14 C23,10.6862915 25.6862915,8 29,8 C32.3137085,8 35,10.6862915 35,14 L35,31 C35,34.3137085 32.3137085,37 29,37 C28.6592878,37 28.3252085,36.9716012 28,36.9170416 C27.6747915,36.9716012 27.3407122,37 27,37 L20,37 L20,53 L0,53 L0,10 C0,4.4771525 4.4771525,0 10,0 C15.5228475,0 20,4.4771525 20,10 L20,25 Z"
            id="path-12"></path>
        <linearGradient x1="157.419759%" y1="13.262101%" x2="118.835577%" y2="77.0080374%" id="linearGradient-14">
            <stop stop-color="#E5EDFF" offset="0%"></stop>
            <stop stop-color="#6B9AD9" offset="100%"></stop>
        </linearGradient>
        <linearGradient x1="149.379226%" y1="44.7494984%" x2="157.419759%" y2="56.5227977%" id="linearGradient-15">
            <stop stop-color="#E5EDFF" offset="0%"></stop>
            <stop stop-color="#6B9AD9" offset="100%"></stop>
        </linearGradient>
        <linearGradient x1="83.2804773%" y1="36.8615485%" x2="59.8890922%" y2="66.0431598%" id="linearGradient-16">
            <stop stop-color="#476DB1" offset="0%"></stop>
            <stop stop-color="#283F6F" offset="100%"></stop>
        </linearGradient>
        <linearGradient x1="50%" y1="21.4499606%" x2="-33.8592349%" y2="193.813163%" id="linearGradient-17">
            <stop stop-color="#EEF3FF" offset="0%"></stop>
            <stop stop-color="#6B9AD9" offset="100%"></stop>
        </linearGradient>
        <linearGradient x1="157.419759%" y1="1.29422283%" x2="118.835577%" y2="85.8062788%" id="linearGradient-18">
            <stop stop-color="#E5EDFF" offset="0%"></stop>
            <stop stop-color="#6B9AD9" offset="100%"></stop>
        </linearGradient>
        <linearGradient x1="50%" y1="-142.327103%" x2="50%" y2="170.164832%" id="linearGradient-19">
            <stop stop-color="#95B7E5" offset="0%"></stop>
            <stop stop-color="#476DB1" offset="100%"></stop>
        </linearGradient>
        <linearGradient x1="50%" y1="-142.327103%" x2="50%" y2="170.164832%" id="linearGradient-20">
            <stop stop-color="#95B7E5" offset="0%"></stop>
            <stop stop-color="#476DB1" offset="100%"></stop>
        </linearGradient>
        <linearGradient x1="50%" y1="30.7014308%" x2="55.2277926%" y2="96.5578389%" id="linearGradient-21">
            <stop stop-color="#1542AB" offset="0%"></stop>
            <stop stop-color="#2B68EE" offset="100%"></stop>
        </linearGradient>
        <linearGradient x1="100%" y1="50%" x2="0%" y2="50%" id="linearGradient-22">
            <stop stop-color="#2865C6" offset="0%"></stop>
            <stop stop-color="#10378A" offset="100%"></stop>
        </linearGradient>
        <linearGradient x1="60.7312459%" y1="27.6712896%" x2="52.0812714%" y2="50%" id="linearGradient-23">
            <stop stop-color="#3485F7" offset="0%"></stop>
            <stop stop-color="#1A57CF" offset="100%"></stop>
        </linearGradient>
        <linearGradient x1="100%" y1="50%" x2="0%" y2="50%" id="linearGradient-24">
            <stop stop-color="#2865C6" offset="0%"></stop>
            <stop stop-color="#10378A" offset="100%"></stop>
        </linearGradient>
        <linearGradient x1="52.9938595%" y1="0%" x2="50%" y2="100%" id="linearGradient-25">
            <stop stop-color="#FFFFFF" offset="0%"></stop>
            <stop stop-color="#E5EEFF" offset="100%"></stop>
        </linearGradient>
        <path
            d="M28.1609243,3.464177 C47.7208461,-7.89549322 70.1073059,20.0748959 75.3589464,31.4234374 C80.610587,42.771979 95.5097948,42.8991429 89.3044799,94.3111968 C85.1676033,128.585899 86.7200632,147.115758 93.9618597,149.900774 C106.978231,148.049645 110.365744,155.88539 104.124399,173.408009 C94.7623812,199.691938 82.4468387,199.379409 58.8854218,202.29867 C35.324005,205.217931 18.200768,197.309514 8.54718709,185.984958 C-1.10639379,174.660402 20.6669201,151.777397 8.54718709,130.153652 C3.86571954,121.801086 0.407758925,70.551811 0.407758925,53.8110469 C0.407758925,37.0702828 8.60100256,14.8238472 28.1609243,3.464177 Z"
            id="path-26"></path>
        <linearGradient x1="85.0973284%" y1="88.6567732%" x2="4.85382204%" y2="-13.3429948%" id="linearGradient-28">
            <stop stop-color="#032258" offset="0%"></stop>
            <stop stop-color="#133E94" offset="100%"></stop>
        </linearGradient>
        <linearGradient x1="85.0973284%" y1="93.5155552%" x2="4.85382204%" y2="-21.3045958%" id="linearGradient-29">
            <stop stop-color="#032258" offset="0%"></stop>
            <stop stop-color="#133E94" offset="100%"></stop>
        </linearGradient>
        <linearGradient x1="60.7312459%" y1="6.33299401%" x2="50%" y2="93.667006%" id="linearGradient-30">
            <stop stop-color="#FFFFFF" offset="0%"></stop>
            <stop stop-color="#E5EEFF" offset="100%"></stop>
        </linearGradient>
        <linearGradient x1="85.0973284%" y1="107.212699%" x2="4.85382204%" y2="-43.7487373%" id="linearGradient-31">
            <stop stop-color="#032258" offset="0%"></stop>
            <stop stop-color="#133E94" offset="100%"></stop>
        </linearGradient>
        <linearGradient x1="69.4657764%" y1="75.602262%" x2="69.4657764%" y2="14.0380158%" id="linearGradient-32">
            <stop stop-color="#F4AF92" offset="0%"></stop>
            <stop stop-color="#EC906C" offset="100%"></stop>
        </linearGradient>
        <linearGradient x1="50%" y1="32.1187137%" x2="64.3700332%" y2="115.977968%" id="linearGradient-33">
            <stop stop-color="#84F0A8" offset="0%"></stop>
            <stop stop-color="#48B676" offset="100%"></stop>
        </linearGradient>
        <linearGradient x1="85.0973284%" y1="78.8545142%" x2="4.85382204%" y2="2.71898834%" id="linearGradient-34">
            <stop stop-color="#032258" offset="0%"></stop>
            <stop stop-color="#133E94" offset="100%"></stop>
        </linearGradient>
        <linearGradient x1="-8.77133659%" y1="92.495564%" x2="17.3111424%" y2="25.3811864%" id="linearGradient-35">
            <stop stop-color="#FAD0BA" offset="0%"></stop>
            <stop stop-color="#F2A384" offset="100%"></stop>
        </linearGradient>
        <linearGradient x1="100%" y1="50%" x2="0%" y2="50%" id="linearGradient-36">
            <stop stop-color="#2865C6" offset="0%"></stop>
            <stop stop-color="#10378A" offset="100%"></stop>
        </linearGradient>
        <linearGradient x1="52.6917645%" y1="0%" x2="50.5220542%" y2="50%" id="linearGradient-37">
            <stop stop-color="#3485F7" offset="0%"></stop>
            <stop stop-color="#1A57CF" offset="100%"></stop>
        </linearGradient>
        <linearGradient x1="50%" y1="27.7727484%" x2="51.3917315%" y2="103.623291%" id="linearGradient-38">
            <stop stop-color="#1542AB" offset="0%"></stop>
            <stop stop-color="#2B68EE" offset="100%"></stop>
        </linearGradient>
        <linearGradient x1="54.6100615%" y1="0%" x2="50%" y2="100%" id="linearGradient-39">
            <stop stop-color="#FFFFFF" offset="0%"></stop>
            <stop stop-color="#E5EEFF" offset="100%"></stop>
        </linearGradient>
        <linearGradient x1="50%" y1="-10.8772052%" x2="50%" y2="100%" id="linearGradient-40">
            <stop stop-color="#FFE579" offset="0%"></stop>
            <stop stop-color="#FEB755" offset="100%"></stop>
        </linearGradient>
        <path
            d="M15.01134,40.7095754 C-0.690152076,100.43295 -3.38988677,147.735945 6.91213595,182.61856 C22.36517,234.942483 -2.8290837,295.748777 3.08209783,324.625837 C32.533132,327.694977 58.2495999,342.605344 80.2315015,369.356939 C89.5232394,357.449902 93.6870139,331.301825 92.722825,290.912708 C91.2765416,230.329033 76.7722559,226.959748 74.534927,199.38107 C73.0433744,180.995284 73.0433744,158.11223 74.534927,130.731908 L53.9299472,27.2361019 C44.1009649,19.1203862 36.4529422,13.4044236 30.985879,10.0882142 C25.5188159,6.77200484 18.4587063,3.5663133 9.80555044,0.47113961 L15.01134,40.7095754 Z"
            id="path-41"></path>
        <linearGradient x1="50%" y1="-10.8772052%" x2="50%" y2="100%" id="linearGradient-43">
            <stop stop-color="#FFE579" offset="0%"></stop>
            <stop stop-color="#FEB755" offset="100%"></stop>
        </linearGradient>
        <linearGradient x1="50%" y1="-10.8772052%" x2="50%" y2="100%" id="linearGradient-44">
            <stop stop-color="#FFE579" offset="0%"></stop>
            <stop stop-color="#FEB755" offset="100%"></stop>
        </linearGradient>
        <path
            d="M172.17794,37.979684 C164.672272,57.7405816 159.579662,71.7620731 156.900112,80.0441582 C152.878077,92.4756596 151.317045,102.728273 152.217017,110.801999 C154.916025,135.01502 162.425141,142.945252 155.919777,200.864366 C153.376459,223.508254 139.096536,255.385442 136.340987,280.63385 C132.048323,319.966462 142.603953,333.573346 139.959823,340.078684 C136.340987,348.982083 97.7179127,340.800145 78.3896501,361 C72.1649892,348.982083 95.813411,306.607404 95.813411,300.134849 C95.813411,293.662295 96.6186815,245.053336 116.479834,209.396438 C129.720603,185.625172 134.779814,150.852832 131.657468,105.079417 C98.3807925,98.6797169 74.0418976,90.3346305 58.6407832,80.0441582 C43.2396688,69.7536859 23.6927411,47.5525024 0,13.4406078 C3.53488068,4.48020261 7.58856769,0 12.161061,0 C19.0198011,0 65.4899948,42.183781 101.418452,47.3010391 C116.479834,49.4462184 128.574394,40.5436486 139.959823,37.979684 C158.072853,33.9006834 171.263501,34.0554325 173.458988,33.3042225 C175.842667,32.4886205 177.023004,33.0985298 177,35.1339504 L172.17794,37.979684 Z"
            id="path-45"></path>
        <linearGradient x1="72.0701077%" y1="109.304399%" x2="21.6109159%" y2="-47.1761978%" id="linearGradient-47">
            <stop stop-color="#032258" offset="0%"></stop>
            <stop stop-color="#133E94" offset="100%"></stop>
        </linearGradient>
        <linearGradient x1="100%" y1="50%" x2="0%" y2="50%" id="linearGradient-48">
            <stop stop-color="#2865C6" offset="0%"></stop>
            <stop stop-color="#10378A" offset="100%"></stop>
        </linearGradient>
        <linearGradient x1="100%" y1="50%" x2="0%" y2="50%" id="linearGradient-49">
            <stop stop-color="#2865C6" offset="0%"></stop>
            <stop stop-color="#10378A" offset="100%"></stop>
        </linearGradient>
        <linearGradient x1="43.2786342%" y1="16.652469%" x2="65.7932159%" y2="115.977968%" id="linearGradient-50">
            <stop stop-color="#84F0A8" offset="0%"></stop>
            <stop stop-color="#48B676" offset="100%"></stop>
        </linearGradient>
        <linearGradient x1="45.4890617%" y1="-18.8698211%" x2="61.0272276%" y2="90.1950931%" id="linearGradient-51">
            <stop stop-color="#84F0A8" offset="0%"></stop>
            <stop stop-color="#48B676" offset="100%"></stop>
        </linearGradient>
        <linearGradient x1="83.2804773%" y1="11.2557844%" x2="59.8890922%" y2="97.3099621%" id="linearGradient-52">
            <stop stop-color="#476DB1" offset="0%"></stop>
            <stop stop-color="#283F6F" offset="100%"></stop>
        </linearGradient>
        <linearGradient x1="50%" y1="-142.327103%" x2="50%" y2="170.164832%" id="linearGradient-53">
            <stop stop-color="#95B7E5" offset="0%"></stop>
            <stop stop-color="#476DB1" offset="100%"></stop>
        </linearGradient>
        <linearGradient x1="75.1227074%" y1="11.2557844%" x2="57.4650602%" y2="97.3099621%" id="linearGradient-54">
            <stop stop-color="#476DB1" offset="0%"></stop>
            <stop stop-color="#283F6F" offset="100%"></stop>
        </linearGradient>
        <linearGradient x1="50%" y1="-142.327103%" x2="50%" y2="170.164832%" id="linearGradient-55">
            <stop stop-color="#95B7E5" offset="0%"></stop>
            <stop stop-color="#476DB1" offset="100%"></stop>
        </linearGradient>
        <linearGradient x1="50%" y1="-104.289511%" x2="50%" y2="100%" id="linearGradient-56">
            <stop stop-color="#FFFFFF" offset="0%"></stop>
            <stop stop-color="#B3CDEF" offset="100%"></stop>
        </linearGradient>
        <linearGradient x1="50%" y1="32.1187137%" x2="53.8147772%" y2="115.977968%" id="linearGradient-57">
            <stop stop-color="#84F0A8" offset="0%"></stop>
            <stop stop-color="#48B676" offset="100%"></stop>
        </linearGradient>
        <linearGradient x1="53.2351101%" y1="0%" x2="50%" y2="100%" id="linearGradient-58">
            <stop stop-color="#FFFFFF" offset="0%"></stop>
            <stop stop-color="#E5EEFF" offset="100%"></stop>
        </linearGradient>
        <linearGradient x1="157.419759%" y1="14.7384488%" x2="118.835577%" y2="75.9226935%" id="linearGradient-59">
            <stop stop-color="#E5EDFF" offset="0%"></stop>
            <stop stop-color="#6B9AD9" offset="100%"></stop>
        </linearGradient>
        <linearGradient x1="149.379226%" y1="44.9604948%" x2="157.419759%" y2="56.2606728%" id="linearGradient-60">
            <stop stop-color="#E5EDFF" offset="0%"></stop>
            <stop stop-color="#6B9AD9" offset="100%"></stop>
        </linearGradient>
    </defs>
    <g id="Illustration" stroke="none" stroke-width="1" fill="none" fill-rule="evenodd">
        <g id="CRM-1" transform="translate(-148.000000, -113.000000)">
            <g id="Window" transform="translate(148.000000, 113.000000)" fill-rule="nonzero">
                <path d="M20,0 L733,0 C744.045695,0 753,8.954305 753,20 L753,535 C753,537.209139 751.209139,539 749,539 L4,539 C1.790861,539 0,537.209139 0,535 L0,20 C0,8.954305 8.954305,0 20,0 Z" id="Window-base" fill="url(#linearGradient-1)"></path>
                <g id="Chart-bar" transform="translate(395.000000, 137.000000)">
                    <path
                        d="M4,50 L36,50 C38.209139,50 40,51.790861 40,54 L40,106 C40,108.209139 38.209139,110 36,110 L4,110 C1.790861,110 0,108.209139 0,106 L0,54 C0,51.790861 1.790861,50 4,50 Z"
                        id="Chart-bar-base"
                        stroke="#8AAFE1"
                        stroke-width="4"
                        stroke-linecap="round"
                        stroke-linejoin="round"></path>
                    <path
                        d="M104,30 L136,30 C138.209139,30 140,31.790861 140,34 L140,106 C140,108.209139 138.209139,110 136,110 L104,110 C101.790861,110 100,108.209139 100,106 L100,34 C100,31.790861 101.790861,30 104,30 Z"
                        id="Chart-bar-base"
                        stroke="#8AAFE1"
                        stroke-width="2"
                        stroke-linecap="round"
                        stroke-linejoin="round"
                        stroke-dasharray="10,10"></path>
                    <path
                        d="M154,80 L186,80 C188.209139,80 190,81.790861 190,84 L190,106 C190,108.209139 188.209139,110 186,110 L154,110 C151.790861,110 150,108.209139 150,106 L150,84 C150,81.790861 151.790861,80 154,80 Z"
                        id="Chart-bar-base"
                        fill="url(#linearGradient-2)"></path>
                    <path
                        d="M205,50 L237,50 C239.209139,50 241,51.790861 241,54 L241,106 C241,108.209139 239.209139,110 237,110 L205,110 C202.790861,110 201,108.209139 201,106 L201,54 C201,51.790861 202.790861,50 205,50 Z"
                        id="Chart-bar-base"
                        fill="url(#linearGradient-3)"></path>
                    <path
                        d="M255,20 L287,20 C289.209139,20 291,21.790861 291,24 L291,106 C291,108.209139 289.209139,110 287,110 L255,110 C252.790861,110 251,108.209139 251,106 L251,24 C251,21.790861 252.790861,20 255,20 Z"
                        id="Chart-bar-base"
                        fill="url(#linearGradient-4)"></path>
                    <path
                        d="M54,0 L86,0 C88.209139,0 90,1.790861 90,4 L90,106 C90,108.209139 88.209139,110 86,110 L54,110 C51.790861,110 50,108.209139 50,106 L50,4 C50,1.790861 51.790861,0 54,0 Z"
                        id="Chart-bar-base"
                        stroke="#8AAFE1"
                        stroke-width="2"
                        stroke-linecap="round"
                        stroke-linejoin="round"
                        stroke-dasharray="10,10"></path>
                </g>
                <g id="UI" transform="translate(50.000000, 147.000000)">
                    <path d="M215,0 L265,0 C267.209139,0 269,1.790861 269,4 L269,54 C269,56.209139 267.209139,58 265,58 L215,58 C212.790861,58 211,56.209139 211,54 L211,4 C211,1.790861 212.790861,0 215,0 Z" id="UI-base" fill="url(#linearGradient-5)"></path>
                    <path
                        d="M5,0 L145,0 C147.209139,0 149,1.790861 149,4 L149,54 C149,56.209139 147.209139,58 145,58 L5,58 C2.790861,58 1,56.209139 1,54 L1,4 C1,1.790861 2.790861,0 5,0 Z"
                        id="UI-base"
                        stroke="#8AAFE1"
                        stroke-width="2"
                        stroke-linecap="round"
                        stroke-linejoin="round"
                        stroke-dasharray="10,10"></path>
                    <path d="M5,80 L175,80 C177.209139,80 179,81.790861 179,84 L179,134 C179,136.209139 177.209139,138 175,138 L5,138 C2.790861,138 1,136.209139 1,134 L1,84 C1,81.790861 2.790861,80 5,80 Z" id="UI-base" fill="url(#linearGradient-6)"></path>
                    <path
                        d="M215,88 L265,88 C267.209139,88 269,89.790861 269,92 L269,142 C269,144.209139 267.209139,146 265,146 L215,146 C212.790861,146 211,144.209139 211,142 L211,92 C211,89.790861 212.790861,88 215,88 Z"
                        id="UI-base"
                        stroke="#8AAFE1"
                        stroke-width="4"
                        stroke-linecap="round"
                        stroke-linejoin="round"></path>
                    <path d="M215,176 L265,176 C267.209139,176 269,177.790861 269,180 L269,230 C269,232.209139 267.209139,234 265,234 L215,234 C212.790861,234 211,232.209139 211,230 L211,180 C211,177.790861 212.790861,176 215,176 Z" id="UI-base" fill="#E0E5FF"></path>
                    <path
                        d="M215,264 L265,264 C267.209139,264 269,265.790861 269,268 L269,318 C269,320.209139 267.209139,322 265,322 L215,322 C212.790861,322 211,320.209139 211,318 L211,268 C211,265.790861 212.790861,264 215,264 Z"
                        id="UI-base"
                        stroke="#8AAFE1"
                        stroke-width="2"
                        stroke-linecap="round"
                        stroke-linejoin="round"
                        stroke-dasharray="10,10"></path>
                    <path d="M4,161 L177,161 C179.209139,161 181,162.790861 181,165 L181,340 C181,342.209139 179.209139,344 177,344 L4,344 C1.790861,344 0,342.209139 0,340 L0,165 C0,162.790861 1.790861,161 4,161 Z" id="UI-base" fill="url(#linearGradient-7)"></path>
                </g>
                <g id="Titlebar">
                    <path d="M20,0 L733,0 C744.045695,0 753,8.954305 753,20 L753,75 C753,77.209139 751.209139,79 749,79 L4,79 C1.790861,79 0,77.209139 0,75 L0,20 C0,8.954305 8.954305,0 20,0 Z" id="Titlebar-base" fill="url(#linearGradient-8)"></path>
                    <g id="Titlebar-button" transform="translate(25.000000, 27.000000)" fill="#FFFFFF">
                        <circle cx="12.5" cy="12.5" r="12.5"></circle>
                        <circle cx="51.5" cy="12.5" r="12.5"></circle>
                        <circle cx="90.5" cy="12.5" r="12.5"></circle>
                    </g>
                </g>
                <g id="Chart" transform="translate(413.000000, 304.000000)" stroke="#8AAFE1" stroke-linecap="round" stroke-linejoin="round" stroke-width="4">
                    <path d="M0,1 L269.572187,1" id="Path-52"></path>
                    <path d="M0,33 L269.572187,33" id="Path-52-Copy"></path>
                    <path d="M0,65 L269.572187,65" id="Path-52-Copy-2"></path>
                    <path d="M0,97 L269.572187,97" id="Path-52-Copy-3"></path>
                    <path d="M0,129 L269.572187,129" id="Path-52-Copy-4"></path>
                    <path d="M0,161 L269.572187,161" id="Path-52-Copy-5"></path>
                </g>
            </g>
            <g id="Table" transform="translate(436.000000, 601.000000)" fill-rule="nonzero">
                <polygon id="Table-base" fill="url(#linearGradient-9)" points="0 0 491 0 491 20 0 20"></polygon>
                <path d="M23,243.942195 L46.5530493,22 L23,22 L23,243.942195 Z M51,18 L25.3165896,260.016752 C25.1365831,261.712967 23.7057401,263 22,263 C20.3431458,263 19,261.656854 19,260 L19,18 L51,18 Z" id="Table-base" fill="url(#linearGradient-10)"></path>
                <path d="M457,243.942195 L457,22 L433.446951,22 L457,243.942195 Z M429,18 L461,18 L461,260 C461,261.656854 459.656854,263 458,263 C456.29426,263 454.863417,261.712967 454.68341,260.016752 L429,18 Z" id="Table-base" fill="url(#linearGradient-10)"></path>
            </g>
            <g id="Cactus" transform="translate(830.000000, 523.000000)">
                <g transform="translate(15.000000, 0.000000)">
                    <mask id="mask-13" fill="white">
                        <use xlink:href="#path-12"></use>
                    </mask>
                    <use id="Mask" fill="url(#linearGradient-11)" fill-rule="nonzero" xlink:href="#path-12"></use>
                    <path
                        d="M0,-3 L1,-3 L1,59.7844353 L0,59.7844353 L0,-3 Z M3,-3 L4,-3 L4,59.7844353 L3,59.7844353 L3,-3 Z M6,-3 L7,-3 L7,59.7844353 L6,59.7844353 L6,-3 Z M9,-3 L10,-3 L10,59.7844353 L9,59.7844353 L9,-3 Z M12,-3 L13,-3 L13,59.7844353 L12,59.7844353 L12,-3 Z M15,-3 L16,-3 L16,59.7844353 L15,59.7844353 L15,-3 Z M18,-3 L19,-3 L19,59.7844353 L18,59.7844353 L18,-3 Z M21,-3 L22,-3 L22,59.7844353 L21,59.7844353 L21,-3 Z M24,-3 L25,-3 L25,59.7844353 L24,59.7844353 L24,-3 Z M27,-3 L28,-3 L28,59.7844353 L27,59.7844353 L27,-3 Z M30,-3 L31,-3 L31,59.7844353 L30,59.7844353 L30,-3 Z M33,-3 L34,-3 L34,59.7844353 L33,59.7844353 L33,-3 Z"
                        id="Combined-Shape"
                        fill="#42B16D"
                        fill-rule="nonzero"
                        mask="url(#mask-13)"></path>
                </g>
                <g id="vase" transform="translate(0.000000, 45.000000)" fill-rule="nonzero">
                    <polygon fill="url(#linearGradient-14)" points="1 1 51 1 39.8888889 33 12.1111111 33"></polygon>
                    <rect fill="url(#linearGradient-15)" x="0" y="0" width="51" height="10"></rect>
                </g>
            </g>
            <g id="Imac" transform="translate(562.000000, 430.000000)" fill-rule="nonzero">
                <path d="M4,0 L245,0 C247.209139,0 249,1.790861 249,4 L249,141 C249,143.209139 247.209139,145 245,145 L4,145 C1.790861,145 0,143.209139 0,141 L0,4 C0,1.790861 1.790861,0 4,0 Z" id="Imac-base" fill="url(#linearGradient-16)"></path>
                <polygon id="Imac-base" fill="#B7C8FF" points="98 144 153 144 153 177 98 177"></polygon>
                <polygon id="Imac-base" fill="#FFFFFF" points="10 10 239 10 239 135 10 135"></polygon>
            </g>
            <g id="Girl" transform="translate(233.000000, 466.000000)">
                <g id="Note" transform="translate(126.000000, 140.000000)" fill-rule="nonzero">
                    <path
                        d="M66.9688012,0.868585616 L118.112521,22.2190299 C120.151151,23.0700762 121.113879,25.4126223 120.262833,27.451253 C120.152031,27.7166727 120.012925,27.9693675 119.847928,28.2049536 L58.5213023,115.768515 C57.4430807,117.308025 55.4384506,117.889197 53.703984,117.165127 L2.56026447,95.8146824 C0.521633717,94.9636361 -0.441093715,92.62109 0.409952565,90.5824593 C0.520754602,90.3170396 0.659860632,90.0643447 0.824857327,89.8287587 L62.1514828,2.26519691 C63.2297045,0.725687273 65.2343345,0.144515607 66.9688012,0.868585616 Z"
                        id="Note-base"
                        fill="url(#linearGradient-17)"></path>
                    <path
                        d="M88.0680087,3.58554622 C90.0345656,1.91166945 93.0350444,1.27501991 95.3647764,2.17860844 C97.7841237,3.11695434 98.6774629,5.40499563 97.6461698,7.58438115 L99.9896716,8.56278155 C102.028277,9.41388913 102.990934,11.7564642 102.139826,13.7950693 C101.939489,14.274924 101.647512,14.711113 101.280236,15.0792219 L96.1120956,20.2590924 C94.9544652,21.4193503 93.2061561,21.7560006 91.7004451,21.1085895 L78.1825585,15.2962989 C76.1530688,14.4236784 75.2152409,12.0710533 76.0878614,10.0415635 C76.2537328,9.65578951 76.4793155,9.29854051 76.7563217,8.98294189 L81.3611745,3.73654122 C82.4938971,2.44600782 84.3239201,2.0224077 85.9084971,2.68396078 L88.0680087,3.58554622 Z M91.2467385,7.59566584 C92.4018624,8.04270675 93.951179,7.58653189 94.7072338,6.57677078 C95.4632886,5.56700966 95.1397792,4.38603829 93.9846552,3.93899738 C92.8295312,3.49195647 91.2802147,3.94813133 90.5241599,4.95789244 C89.768105,5.96765355 90.0916145,7.14862493 91.2467385,7.59566584 Z"
                        id="Combined-Shape"
                        fill="url(#linearGradient-18)"></path>
                </g>
                <g id="Pen" transform="translate(207.454483, 177.928203) scale(-1, 1) rotate(83.000000) translate(-207.454483, -177.928203) translate(203.454483, 158.928203)" fill-rule="nonzero">
                    <path
                        d="M2.83401313,3.80292127 C4.39919537,3.80292127 5.66802627,5.07175217 5.66802627,6.63693441 L5.66802627,32.800196 L0,32.800196 L0,6.63693441 C0,5.07175217 1.2688309,3.80292127 2.83401313,3.80292127 Z"
                        id="Pen-base"
                        fill="url(#linearGradient-19)"></path>
                    <path
                        d="M6.92758766,5.22901675 C7.27540593,5.22901675 7.55736835,5.51097917 7.55736835,5.85879745 L7.55736835,14.5819044 C7.55736835,14.9297227 7.27540593,15.2116851 6.92758766,15.2116851 C6.57976938,15.2116851 6.29780696,14.9297227 6.29780696,14.5819044 L6.29780696,5.85879745 C6.29780696,5.51097917 6.57976938,5.22901675 6.92758766,5.22901675 Z"
                        id="Pen-base"
                        fill="url(#linearGradient-20)"></path>
                    <path
                        d="M2.83401313,0 C3.70355882,0 4.40846487,0.704906055 4.40846487,1.57445174 L4.40846487,3.65456501 C4.40846487,4.5241107 3.70355882,5.22901675 2.83401313,5.22901675 C1.96446745,5.22901675 1.25956139,4.5241107 1.25956139,3.65456501 L1.25956139,1.57445174 C1.25956139,0.704906055 1.96446745,0 2.83401313,0 Z"
                        id="Pen-base"
                        fill="#F2F5FF"></path>
                    <polygon id="Pen-base" fill="#F2F5FF" points="0 32.3248308 5.66802627 32.3248308 3.14890348 37.5538476"></polygon>
                </g>
                <g id="Foot" transform="translate(0.000000, 269.000000)">
                    <path
                        d="M212.430545,120.245935 C212.565691,118.819409 220.926755,110.68368 229.922177,120.156891 C238.917598,129.630103 241.309449,133.027255 245.468942,136.576022 C248.241937,138.941867 251.151159,140.533218 254.196609,141.350075 L237.042274,142.435155 L212.333016,139.592682 C212.307939,127.645869 212.340448,121.196953 212.430545,120.245935 Z"
                        id="Leg"
                        fill="#F2A384"
                        fill-rule="nonzero"></path>
                    <path
                        d="M120.494799,107.478287 L99.97104,48.9894057 C151.573814,6.37810836 188.555395,-8.20941276 210.915782,5.22684229 C244.456362,25.3812249 237.554341,120.499457 237.908772,123.24733 C238.263203,125.995202 218.28905,133.563922 214.509215,125.984643 C210.72938,118.405364 189.447707,72.7220482 187.288286,55.9802365 C178.226457,67.9856295 155.961961,85.1516464 120.494799,107.478287 Z"
                        id="Pants"
                        fill="url(#linearGradient-21)"
                        fill-rule="nonzero"></path>
                    <polygon id="Leg" fill="#F2A384" fill-rule="nonzero" points="65.24335 148.511521 38.0225123 142.33547 30.7001798 144.740674 41.777005 130.165072 61.1486325 126.172012"></polygon>
                    <path
                        d="M212.331538,128.834838 C215.883151,127.067097 220.342903,136.697645 226.853035,136.697645 C233.363168,136.697645 237.412734,127.953022 239.076454,128.834838 C243.940298,131.412802 250.998746,132.6665 258.767184,135.699298 C277.879315,143.160671 279.730328,144.231735 276.949969,155.318923 C276.949969,157.783123 255.241797,159.015222 211.825452,159.015222 C210.068775,153.8627 209.122018,149.050434 208.98518,144.578426 C208.779924,137.870414 208.779924,130.602579 212.331538,128.834838 Z"
                        id="Shoes"
                        fill="url(#linearGradient-22)"
                        fill-rule="nonzero"></path>
                    <path
                        d="M231.908648,118.874809 C216.166332,167.298831 65.8642156,158.164065 55.8115946,153.416352 C50.0754174,150.707235 56.0446132,127.360772 59.2080058,126.221683 C66.557537,123.575232 169.054479,114.470315 149.373466,118.874809 C129.692452,123.279304 41.6579851,110.987205 44.4581152,65.38668 C46.3064197,35.2867714 49.711453,27.1806638 69.5764746,32.0769166 C79.8064085,34.5983508 104.538555,45.4713327 114.448856,48.2991905 C179.019481,66.724115 246.22753,74.829332 231.908648,118.874809 Z"
                        id="Pants"
                        fill="url(#linearGradient-23)"
                        fill-rule="nonzero"></path>
                    <path
                        d="M54.088757,127.613376 C53.3598389,131.012354 45.2868638,128.25693 41.6669654,132.570956 C38.047067,136.884983 41.9586507,144.740111 40.4120415,145.321086 C35.8905685,147.019553 31.0821641,150.955482 24.6250471,154.309726 C8.73906713,162.561931 6.95493074,163.155096 0.686550644,154.755615 C-1.05024413,153.298272 10.151985,138.184387 34.2932381,109.413962 C38.9015769,111.297112 42.8197503,113.515737 46.0477582,116.069835 C50.88977,119.900983 54.8176752,124.214397 54.088757,127.613376 Z"
                        id="Shoes"
                        fill="url(#linearGradient-24)"
                        fill-rule="nonzero"></path>
                    <path
                        d="M87.4571387,140.58126 C160.585173,134.930899 190.462151,126.480868 177.088073,115.231165 C163.713995,103.981463 146.005559,93.7002119 123.962765,84.3874117"
                        id="Texture"
                        stroke="#5F90CC"
                        stroke-linecap="round"
                        stroke-linejoin="round"
                        stroke-dasharray="5,10"></path>
                </g>
                <g id="Body" transform="translate(40.000000, 129.000000)">
                    <mask id="mask-27" fill="white">
                        <use xlink:href="#path-26"></use>
                    </mask>
                    <use fill="url(#linearGradient-25)" fill-rule="nonzero" xlink:href="#path-26"></use>
                    <path
                        d="M34.6708909,10.3364111 C42.7322062,8.4959543 70.1934494,9.95652179 72.7597105,34.6791682 C74.4705512,51.1609325 78.3553867,67.6188214 84.414217,84.0528349 C90.3629883,98.795442 109.535844,107.66403 141.932784,110.6586 C148.247675,110.281451 152.045276,113.302765 153.325588,119.722541 C154.6059,126.142318 153.786063,132.290762 150.866078,138.167871 C96.8687234,148.918187 61.7904103,148.918187 45.631139,138.167871 C21.3922321,122.042398 6.92504234,74.5992341 10.660284,47.2678328 C14.3955257,19.9364315 26.6095756,12.1768679 34.6708909,10.3364111 Z"
                        id="Shadow"
                        fill="#ABC0FF"
                        fill-rule="nonzero"
                        opacity="0.5"
                        mask="url(#mask-27)"></path>
                </g>
                <g id="Head" transform="translate(22.000000, 0.000000)" fill-rule="nonzero">
                    <path
                        d="M100.111721,95.8064715 C113.335116,107.325705 118.893284,120.858128 116.786226,136.403741 C114.679168,151.949354 103.030931,158.998 81.8415158,157.549678 L40.5162359,101.979874 L100.111721,95.8064715 Z"
                        id="hair"
                        fill="url(#linearGradient-28)"></path>
                    <path
                        d="M136.546843,68.346926 C136.117547,81.4126538 134.859573,90.5853226 132.772922,95.8649327 C131.358672,99.4432437 134.951547,100.532132 132.772922,103.598716 C131.793242,104.977691 125.390313,108.565874 124.355088,109.887637 C114.294529,122.732851 102.193206,132.474558 99.3663783,131.302119 C97.2879078,130.440064 92.7066252,127.09325 85.6225307,121.261675 C79.3073321,128.854801 76.5488901,134.283429 77.3472047,137.54756 C78.5446765,142.443755 63.6644747,149.286304 58.0440415,143.416932 C54.2970859,139.504017 51.6480517,132.841884 50.0969387,123.430533 L53.6831393,102.430224 L65.0400828,81.7114497 L81.2459647,68.346926 L129.1338,66.242432 L136.546843,68.346926 Z"
                        id="Face"
                        fill="#F2A384"></path>
                    <path
                        d="M134.431709,68.5364211 C130.878515,84.5345777 130.176465,95.5622556 132.32556,101.619455 C128.825739,105.272743 125.863881,108.127442 123.439987,110.183551 C119.950616,113.143467 169.61102,97.2188641 169.61102,71.9510072 C169.61102,46.6831503 158.281285,45.5655231 151.838912,43.5378072 C145.396538,41.5100913 130.468442,-3.0307126 91.3857392,0.936988262 C52.3030367,4.90468912 62.3965342,34.9791406 36.3221733,51.4280191 C10.2478124,67.8768975 -9.92344569,97.5966797 6.58061724,122.011824 C23.0846802,146.426969 41.8461799,149.180194 68.0195192,141.995927 C82.6245031,137.987035 81.4901663,112.448034 82.8806012,88.8972642 C82.9852629,87.1245367 78.1840912,87.5869021 77.7849953,83.0134889 C77.3858994,78.4400756 79.4059972,73.345968 82.8806012,71.9510072 C91.3857392,68.5364211 103.328483,81.9621992 111.576799,80.2948942 C130.786423,76.4118832 138.404726,72.4923921 134.431709,68.5364211 Z"
                        id="Hair"
                        fill="url(#linearGradient-29)"></path>
                </g>
                <g id="Hand" transform="translate(55.000000, 133.000000)" fill-rule="nonzero">
                    <path
                        d="M139.380424,83.8630124 L127.932505,75.1000244 L144.170644,61.4356051 L147.24268,48.2123331 L149.164321,45.8593788 C151.921904,46.4449867 153.913879,46.2812215 155.140246,45.3680832 C157.204529,43.8310432 160.093522,39.5244619 162.374,40.1969196 C162.722828,40.2997804 165.530709,41.1884556 165.752178,41.972208 C166.081727,43.1384396 163.795146,44.353399 164.274655,44.6705571 C168.214907,47.2767293 170.969942,52.7424164 168.739675,56.6053519 C166.155325,61.0815763 161.008999,65.488079 153.300695,69.82486 L139.380424,83.8630124 Z"
                        fill="#F2A384"></path>
                    <path
                        d="M24.6708909,0.336411117 C32.7322062,-1.5040457 55.6391459,3.70916652 58.205407,28.4318129 C60.7716681,53.1544593 59.9737891,77.2628935 68.9116177,86.4761001 C77.8494463,95.6893067 84.8070319,87.7120797 134.691639,68.3329341 C141.00653,67.9557845 144.804131,70.9770982 146.084443,77.3968751 C147.364755,83.816652 147.364755,86.8430603 146.084443,86.4761001 C104.369837,125.652401 74.3535497,142.082736 56.0355798,135.767103 C28.5586249,126.293654 -3.07495766,64.5992341 0.660284,37.2678328 C4.39552566,9.9364315 16.6095756,2.17686793 24.6708909,0.336411117 Z"
                        id="Sleeve"
                        fill="url(#linearGradient-30)"></path>
                </g>
            </g>
            <g id="Girl" transform="translate(767.000000, 172.000000)">
                <path
                    d="M105.864652,541.520452 C117.89043,559.572355 176.307756,569.898223 281.11663,572.498055 L331.670416,572.498055 L299.520991,503.418708 L206.769636,460.895732 C127.473869,496.593643 93.8388745,523.46855 105.864652,541.520452 Z"
                    id="Jacket"
                    fill="#BF8D30"
                    fill-rule="nonzero"></path>
                <g id="Head" transform="translate(293.939529, 186.436426) scale(-1, 1) rotate(-15.000000) translate(-293.939529, -186.436426) translate(90.939529, 48.436426)">
                    <path
                        d="M344.342933,100.306751 C346.474017,109.46799 347.323184,115.692528 346.890434,118.980364 C346.198126,124.24021 342.224223,127.581076 341.050984,130.567734 C339.510232,134.489947 342.604942,135.585191 340.231445,138.946495 C339.164135,140.458 332.18848,144.391034 331.060657,145.839828 C320.100206,159.919561 306.916451,170.597518 303.836771,169.312398 C301.572386,168.367494 296.58132,164.699026 288.863571,158.306995 C278.292383,160.490628 275.828562,169.741946 281.472106,186.06095 C289.937422,210.539455 288.04071,225.131912 270.901133,218.327626 C259.474748,213.791435 243.841037,196.863745 224,167.544556 C234.485927,165.812128 242.058494,162.630909 246.717703,158.000899 C251.376911,153.370889 253.826771,146.592491 254.067282,137.665703 L266.440076,114.955703 L284.095532,100.306751 L336.266813,98 L344.342933,100.306751 Z"
                        id="Face"
                        fill="#F2A384"
                        fill-rule="nonzero"></path>
                    <path
                        d="M281,55.437615 C276.568449,21.0876947 263.961936,2.68148267 243.180463,0.218979049 C212.008253,-3.47477639 194.737826,40.72841 181.543715,44.8038354 C168.349604,48.8792607 120.860141,56.6969295 101.197191,69.6948855 C81.5342401,82.6928415 87.066531,111.428422 64.8986832,112.56613 C42.7308354,113.703838 -28.1334981,129.189815 12.1668346,216.244745 C37.3295565,270.600103 128.817491,300.131299 141.976067,251.025283 C157.023085,194.871857 181.907408,228.881685 205.575629,207.880821 C229.24385,186.879956 211.481717,168.714884 219.981926,154.11848 C228.482135,139.522075 239.586772,155.253157 258.678718,138.737605 C279.12713,121.048637 275.043056,108.845524 276.019663,89.612257 C276.670735,76.7900792 278.330847,65.3985318 281,55.437615 Z"
                        id="Hair"
                        fill="url(#linearGradient-31)"
                        fill-rule="nonzero"></path>
                    <path
                        d="M289.800261,158.557483 C279.239391,160.73225 276.777974,169.946006 282.41601,186.19875 C290.873064,210.577867 288.978203,225.111076 271.855355,218.334416 C260.440123,213.816643 244.821671,196.957684 225,167.757538 C235.475692,166.032143 243.040868,162.863841 247.695529,158.25263 C252.35019,153.641419 254.797659,146.890543 255.037935,138 L295.270792,138.067176 C292.466072,141.144471 290.885322,144.594499 290.52854,148.41726 C289.938742,154.736702 300.713576,164.117892 300.998582,166.719334 C301.083531,167.494718 297.350757,164.774101 289.800261,158.557483 Z"
                        id="Neck"
                        fill="url(#linearGradient-32)"></path>
                    <ellipse id="hairbands" fill="url(#linearGradient-33)" fill-rule="nonzero" cx="259.5" cy="59" rx="15.5" ry="17"></ellipse>
                    <path
                        d="M340.276909,135.812101 C341.745291,139.81353 332.388261,142.659708 329.373346,146.786089 C325.399749,150.149689 403.125794,160.736419 405.906792,109.214336 C408.68779,57.6922525 348.367599,62.7098686 341.326755,60.498434 C334.285911,58.2869993 300.58838,32.586418 282.270173,37.6621633 C264.096376,42.6978947 249.213053,61.2731318 245.623179,89.4162389 C241.292713,123.365265 246.22963,143.537612 253.331421,145.43654 C261.271772,147.559688 275.077746,144.922724 294.749343,137.525646 C287.581639,134.3233 286.270017,128.653631 290.814478,120.516639 C297.63117,108.31115 309.264023,114.465097 309.264023,125.218094 L315.369751,118.307445 L344.689917,122.957407 C340.551582,128.267132 339.080579,132.55203 340.276909,135.812101 Z"
                        id="Hair"
                        fill="url(#linearGradient-34)"
                        fill-rule="nonzero"></path>
                </g>
                <g id="Foot" transform="translate(114.000000, 369.000000)">
                    <path
                        d="M63.5501028,323.016116 L66.7343954,342.765942 C62.8595533,348.023551 58.0751641,350.652355 52.3812279,350.652355 C46.6872917,350.652355 41.6186435,349.326697 37.1752833,346.675383 L33.985434,325.088834 L63.5501028,323.016116 Z"
                        id="Leg"
                        fill="url(#linearGradient-35)"
                        fill-rule="nonzero"
                        transform="translate(50.359915, 336.834235) rotate(-360.000000) translate(-50.359915, -336.834235) "></path>
                    <path
                        d="M162.312942,323.016116 L165.497235,342.765942 C161.622393,348.023551 156.838004,350.652355 151.144067,350.652355 C145.450131,350.652355 140.381483,349.326697 135.938123,346.675383 L132.748274,325.088834 L162.312942,323.016116 Z"
                        id="Leg"
                        fill="url(#linearGradient-35)"
                        fill-rule="nonzero"
                        transform="translate(149.122754, 336.834235) rotate(-360.000000) translate(-149.122754, -336.834235) "></path>
                    <path
                        d="M165.596341,340.056563 C168.012678,340.056563 168.012678,348.207135 168.117808,354.410405 C168.15608,356.668684 167.746374,360.109042 166.888691,364.73148 C166.537227,366.625689 164.989248,368.014258 163.155131,368.080562 C124.375631,369.482466 101.008423,369.444601 100.93742,367.966968 C97.83912,357.881193 99.5268773,356.793292 117.112931,348.881473 C124.261071,345.665584 130.822532,344.130054 135.267882,341.489669 C136.788452,340.586502 139.975193,347.888731 150.487075,347.888731 C160.998957,347.888731 163.180005,340.056563 165.596341,340.056563 Z"
                        id="Shoes"
                        fill="url(#linearGradient-36)"
                        fill-rule="nonzero"
                        transform="translate(133.902479, 354.580451) rotate(-360.000000) translate(-133.902479, -354.580451) "></path>
                    <path
                        d="M66.8335019,340.056563 C69.2498386,340.056563 69.2498386,348.207135 69.3549683,354.410405 C69.3932404,356.668684 68.9835348,360.109042 68.1258514,364.73148 C67.7743873,366.625689 66.2264088,368.014258 64.392291,368.080562 C25.612791,369.482466 2.24558357,369.444601 2.17458037,367.966968 C-0.923719514,357.881193 0.764037747,356.793292 18.3500914,348.881473 C25.4982313,345.665584 32.0596929,344.130054 36.5050421,341.489669 C38.0256125,340.586502 41.212353,347.888731 51.7242353,347.888731 C62.2361175,347.888731 64.4171653,340.056563 66.8335019,340.056563 Z"
                        id="Shoes"
                        fill="url(#linearGradient-36)"
                        fill-rule="nonzero"
                        transform="translate(35.139640, 354.580451) rotate(-360.000000) translate(-35.139640, -354.580451) "></path>
                    <path
                        d="M175.485602,0.368939564 C174.520232,22.0540998 174.520232,34.1532186 175.485602,36.6662961 C176.933656,40.4359124 168.442669,87.4677623 150.012642,177.761846 C151.590675,265.863831 164.731657,314.260785 163.155882,322.95271 C160.79222,335.990596 133.317694,335.990226 129.983734,326.56767 C127.761094,320.285967 118.562946,269.244378 102.389292,173.442904 L99.5509201,98.3047884 C88.2412762,117.992992 72.4226874,144.811503 52.0951537,178.760321 C55.4203297,272.201846 68.0304067,321.659055 63.6456793,327.131949 C59.737819,332.009631 33.985434,335.452424 32.4400526,327.132913 C16.7663292,262.674518 8.93031407,212.88869 8.93200701,177.775429 C8.93370049,142.662168 25.0753436,83.5266716 57.3569366,0.368939564 L175.485602,0.368939564 Z"
                        id="Pants"
                        fill="url(#linearGradient-37)"
                        fill-rule="nonzero"
                        transform="translate(92.287919, 166.803284) rotate(-360.000000) translate(-92.287919, -166.803284) "></path>
                    <path
                        d="M151.587117,320.943398 L132.478644,184.168888 C131.644388,178.197453 131.700067,172.135326 132.643867,166.180222 L151.587117,46.6537289 L151.587117,46.6537289"
                        id="Texture"
                        stroke="#1542AB"
                        transform="translate(141.739514, 183.798564) rotate(-360.000000) translate(-141.739514, -183.798564) "></path>
                    <path
                        d="M52.1136727,178.729392 L51.7242353,178.616769 L84.5738673,86.0353691 C86.7638427,87.877785 91.7561937,91.9675915 99.5509201,98.3047884 C88.2447109,117.987013 72.4322951,144.795214 52.1136727,178.729392 Z"
                        id="Shadow"
                        fill="url(#linearGradient-38)"
                        fill-rule="nonzero"
                        transform="translate(75.637578, 132.382381) rotate(-360.000000) translate(-75.637578, -132.382381) "></path>
                </g>
                <path
                    d="M274.282224,218.938512 L288.720569,229.52145 L298.358691,280.12451 C278.922576,313.358982 267.966833,334.596328 265.49146,343.836547 C264.320103,348.20906 262.886414,360.007097 261.190399,379.23066 C261.147924,379.712094 261.095731,380.192621 261.033853,380.671947 C258.495343,400.335983 240.496622,414.218965 220.832585,411.680454 C193.131876,408.104457 172.3167,397.575553 161.285886,380.355148 C153.685603,368.490208 165.68732,223.154576 174.492147,217.559622 C183.296974,211.964668 189.396641,202.862516 226.050682,199.165031 C247.717479,228.419858 262.952186,242.205409 271.754803,240.521685 C280.55742,238.837961 277.953766,230.82039 274.282224,218.938512 Z"
                    id="Body"
                    fill="url(#linearGradient-39)"
                    fill-rule="nonzero"
                    transform="translate(228.615759, 305.572452) scale(-1, 1) rotate(-15.000000) translate(-228.615759, -305.572452) "></path>
                <g id="Jacket" transform="translate(253.000000, 204.000000)">
                    <mask id="mask-42" fill="white">
                        <use xlink:href="#path-41"></use>
                    </mask>
                    <use fill="url(#linearGradient-40)" fill-rule="nonzero" xlink:href="#path-41"></use>
                    <path
                        d="M33.1653918,101.818183 C25.5096418,91.532484 25.5096418,74.6356497 33.1653918,51.1276802 C35.8788973,42.7955105 47.3134141,40.5205347 63.6395361,51.1276802 C83.210485,63.8430023 113.080867,117.899272 99.1294191,157.543145 C77.642535,218.599412 42.2321968,235.335574 22.6651503,239.333655 C18.928853,240.097083 18.1367348,238.237431 10.3223468,246.338545 C1.4578908,255.528256 2.51573617,244.191234 13.4958829,212.327479 C38.6184999,176.671011 50.1304461,152.809781 48.0317216,140.743791 C45.9329972,128.6778 40.9775539,115.702597 33.1653918,101.818183 Z"
                        id="Shadow"
                        fill="#EEB84E"
                        fill-rule="nonzero"
                        opacity="0.5"
                        mask="url(#mask-42)"></path>
                </g>
                <path
                    d="M280.40403,430.123426 L266.86024,444.525142 C262.795116,452.380101 258.570902,457.677078 254.187597,460.416071 C250.40485,462.779793 244.846343,460.217187 242.104246,456.370289 C241.546287,455.587528 237.853053,455.485347 237.567001,454.62692 C236.815366,452.371299 240.383048,449.224761 242.482561,447.217101 C245.610957,444.225571 241.718133,444.716773 243.232011,441.488053 C244.241263,439.335573 249.216413,437.404033 258.157461,435.693434 L271.246853,418.988305 L280.40403,430.123426 Z"
                    id="Hand"
                    fill="#F2A384"
                    fill-rule="nonzero"></path>
                <path
                    d="M286.165392,285.818183 C278.509642,275.532484 278.509642,258.63565 286.165392,235.12768 C288.878897,226.795511 300.313414,224.520535 316.639536,235.12768 C336.210485,247.843002 360.493749,308.650785 346.542301,348.294659 C320.952529,421.009525 297.770136,422.519138 283.451886,431.653431 C273.906386,437.74296 268.422424,433.753329 267,419.684538 C293.905053,380.56784 306.308218,354.976495 304.209493,342.910504 C302.110769,330.844513 296.096068,311.81374 286.165392,285.818183 Z"
                    id="Path-46"
                    fill="url(#linearGradient-43)"
                    fill-rule="nonzero"></path>
                <path
                    d="M33.8781402,196.863012 L19.9578694,182.82486 C12.2495657,178.488079 7.10323908,174.081576 4.5188897,169.605352 C2.28862284,165.742416 5.04365717,160.276729 8.98390917,157.670557 C9.78566638,157.140257 -0.350020087,145.69175 0.517866868,145.435831 C2.79834541,144.763373 16.185154,156.199784 18.1183183,158.368083 C20.9988468,161.598977 20.6438019,157.691382 23.8177214,159.317018 C25.9336677,160.400775 27.6904006,165.440304 29.0879201,174.435605 L45.3260591,188.100024 L33.8781402,196.863012 Z"
                    id="Hand"
                    fill="#F2A384"
                    fill-rule="nonzero"></path>
                <g id="Jacket" transform="translate(26.000000, 178.000000)">
                    <mask id="mask-46" fill="white">
                        <use xlink:href="#path-45"></use>
                    </mask>
                    <use fill="url(#linearGradient-44)" fill-rule="nonzero" xlink:href="#path-45"></use>
                    <path
                        d="M130.345278,109.791178 C130.491941,101.378824 131.830817,94.5451386 134.361906,89.2901208 C136.892996,84.035103 137.602766,80.938396 136.491217,80 C108.880806,93.6557863 85.7679219,96.7524932 67.1525655,89.2901208 C48.5372091,81.8277483 53.2257841,92.0643747 81.2182905,120 L130.345278,109.791178 Z"
                        id="Shadow"
                        fill="#EEB84E"
                        fill-rule="nonzero"
                        opacity="0.5"
                        mask="url(#mask-46)"></path>
                </g>
            </g>
            <g id="Head" transform="translate(581.000000, 399.000000)" fill-rule="nonzero">
                <path
                    d="M27.5744812,108.307649 C24.4833436,118.301805 21.9965558,124.916079 20.1141178,128.15047 C17.2904609,133.002056 22.3149586,145.208245 34.6134785,145.208245 C42.8124917,145.208245 56.2197675,141.477807 74.835306,134.016932 C70.7653623,129.60052 67.8483757,124.659124 66.0843461,119.192745 C64.3203165,113.726366 64.3203165,107.131325 66.0843461,99.407622 C75.5126386,77.337191 79.2419184,63.9175913 77.2721855,59.1488232 C75.3024526,54.3800551 64.7140191,46.2543472 45.5068849,34.7716997 C25.4637333,43.0289096 15.4421576,50.2671185 15.4421576,56.4863263 C15.4421576,62.7055341 15.4421576,68.2348597 15.4421576,73.0743031 C9.59564138,70.5470532 6.67238327,72.5278243 6.67238327,79.0166166 C6.67238327,85.5054089 10.4512246,89.9430335 18.0089074,92.3294904 L27.5744812,108.307649 Z"
                    id="Neck"
                    fill="#B06C57"></path>
                <path
                    d="M51.9436575,7.85779678 C57.7146063,10.9011235 75.2172406,15.9765584 78.3087359,20.7658794 C82.3781712,27.0702174 83.2829868,33.5177138 81.0231827,40.1083687 C87.7153401,49.305113 87.7153401,62.2726489 81.0231827,79.0109763 C70.9849465,104.118467 64.4625885,106.652604 51.9436575,108.221084 C39.4247264,109.789565 30.4125024,96.0847748 26.1981688,85.8799289 C23.3886131,79.0766983 19.7286536,74.2311321 15.2182902,71.3432301 C13.7753309,59.7311271 13.0538513,53.9250755 13.0538513,53.9250755 C13.0538513,53.9250755 0.199942517,52.6868839 0.199942517,30.7618146 C0.199942517,8.83674523 15.2182902,-11.5094328 51.9436575,7.85779678 Z"
                    id="Hair"
                    fill="url(#linearGradient-47)"></path>
            </g>
            <g id="Man" transform="translate(421.000000, 389.000000)">
                <g id="Foot" transform="translate(192.000000, 276.000000)" fill-rule="nonzero">
                    <path
                        d="M133.361238,144.11099 C134.581955,143.289303 151.878114,144.188127 149.831085,153.456277 C147.784057,162.724426 147.095709,166.385734 146.812572,170.161943 C146.623814,172.679415 145.358664,174.66095 143.017123,176.106547 L131.644433,170.161943 L129.393017,161.496482 C131.224687,150.453945 132.547427,144.658781 133.361238,144.11099 Z"
                        id="Leg"
                        fill="#B06C57"></path>
                    <path
                        d="M126.757873,157.531545 C130.126803,157.004416 131.162047,166.176047 136.463665,167.898647 C141.765283,169.621247 147.420856,163.43636 148.537972,164.608328 C151.803833,168.034547 157.213953,170.94257 162.722579,175.514781 C176.275053,186.76346 177.493668,188.142028 172.240082,196.606645 C171.575677,198.651472 153.56512,193.92984 118.208409,182.441749 C118.167073,177.70129 118.693565,173.457489 119.787886,169.710345 C121.429368,164.089629 123.388943,158.058675 126.757873,157.531545 Z"
                        id="Shoes"
                        fill="url(#linearGradient-48)"></path>
                    <path
                        d="M58.104099,138.90311 C58.6391771,139.725336 58.2590404,144.781391 56.963689,154.071276 L51.5053849,161.168176 L38.7140265,162.196549 C40.4852465,161.130168 41.7758075,159.401427 42.5857096,157.010328 C43.8005627,153.423679 44.2435894,151.234818 45.980644,141.903604 C47.7176986,132.572389 57.3014819,137.669772 58.104099,138.90311 Z"
                        id="Leg"
                        fill="#B06C57"></path>
                    <path
                        d="M56.1840338,152.326856 C59.9881533,152.67222 61.5082345,154.517106 63.0788646,160.007675 C64.1259513,163.668054 64.500979,167.851187 64.2039478,172.557075 C47.9217202,176.947044 38.198812,178.533346 35.0352231,177.315981 C22.2917001,172.412211 33.4769533,155.695246 35.3692372,153.960104 C36.7016886,152.738305 39.9502176,150.413517 46.0712852,148.424662 C52.1923527,146.435807 52.3799143,151.981492 56.1840338,152.326856 Z"
                        id="Shoes"
                        fill="url(#linearGradient-49)"></path>
                    <path
                        d="M112.181254,21.0528853 C150.683503,3.75988594 178.301715,3.75988594 195.035889,21.0528853 C220.137151,46.9923844 161.51557,139.844968 157.528576,151.572095 C153.541582,163.299221 142.45029,155.773506 138.252809,154.65244 C135.454488,153.905063 132.915958,151.571736 130.637219,147.652461 L148.794966,73.6845112 L103.153061,67.497094 L90.0766739,38.9556774 L112.181254,21.0528853 Z"
                        id="Pants"
                        fill="#111AA7"></path>
                    <path
                        d="M22.1812539,21.0528853 C65.4937818,0.801000754 91.0460246,-4.26197038 98.8379822,5.86397189 C110.525919,21.0528853 120.537828,70.9804265 62.0543458,144.838401 C57.8384211,147.821469 54.0935356,149.078425 50.8196893,148.609267 C47.5458429,148.140109 44.8183529,145.154507 42.6372192,139.652461 L58.7949664,73.6845112 L13.1530606,67.497094 L0.0766739148,38.9556774 L22.1812539,21.0528853 Z"
                        id="Pants"
                        fill="#111AA7"></path>
                </g>
                <g id="Body" fill-rule="nonzero">
                    <path
                        d="M180.194458,140.937888 C198.724487,149.412351 209.998863,151.530967 214.017585,147.293735 C218.036307,143.056504 219.807575,139.923673 219.331389,137.895244 C255.134856,140.9176 276.946385,150.647755 284.765975,167.085711 C296.495359,191.742643 327.501213,273.959791 341.018233,257.508708 C350.02958,246.541319 356.314545,237.470318 359.873128,230.295708 C353.947932,224.80027 350.985334,221.455199 350.985334,220.260493 C350.985334,218.468435 356.906693,218.373515 359.873128,219.317004 C362.839564,220.260493 362.286387,198.66439 364.155875,197.244498 C365.4022,196.297903 366.984594,201.369301 368.903056,212.458694 C371.745963,200.528013 373.67335,194.80208 374.685217,195.280896 C375.697084,195.759712 375.697084,202.397684 374.685217,215.194813 C379.699329,209.263175 382.589647,206.757115 383.356171,207.676632 C384.122694,208.596148 382.639986,212.790769 378.908047,220.260493 C383.519899,218.57181 385.825826,218.257313 385.825826,219.317004 C385.825826,220.376695 383.519899,222.513555 378.908047,225.727586 L374.685217,233.579987 C364.426699,273.429482 349.523363,294.581005 329.975211,297.034558 C310.427058,299.488111 302.639842,299.488111 306.613563,297.034558 C311.39008,303.591304 313.12531,309.072971 311.819252,313.479559 C309.860166,320.089441 296.712851,353.045722 283.010142,358.601924 C273.875002,362.306058 247.810795,352.907344 204.81752,330.405781 L132.169231,263.379507 L125.00725,189.908511 C57.1548627,151.441062 20.3298322,100.993122 14.5321585,38.5646912 L11.6202984,29.2412376 C4.86829489,21.9113527 1.29128286,17.7425919 0.889262336,16.7349551 C0.487241809,15.7273183 2.64979227,16.3508285 7.37691371,18.6054857 C4.98260463,11.8151033 4.09729415,8.06109085 4.72098228,7.34344839 C5.34467041,6.62580593 7.64444245,8.75227791 11.6202984,13.7228643 C11.9132208,5.06202683 12.5449428,0.552876787 13.5154646,0.195414172 C14.4859863,-0.162048443 15.9431159,3.57773566 17.8868534,11.4147665 C18.7932724,4.50494937 19.7183617,1.44382882 20.6621214,2.23140483 C21.6058811,3.01898084 22.4613969,8.4770078 23.228669,18.6054857 C26.9654206,15.3504048 29.0476764,14.3032037 29.4754364,15.4638824 C29.9031964,16.6245611 28.8011103,20.6696684 26.1691781,27.5992041 C54.1530336,74.1475009 77.7395125,101.480224 96.9286146,109.597374 C116.117717,117.714523 144.603857,126.074474 182.387036,134.677227 L180.194458,140.937888 Z"
                        fill="#B06C57"></path>
                    <path
                        d="M198.839596,155 C210.326914,158.2484 221.555438,153.007673 232.525167,139.277819 C259.532782,141.378458 276.946385,150.647755 284.765975,167.085711 C291.638731,181.533279 305.129673,215.742983 317.842657,238.286058 C323.831738,248.90609 312.806177,260.832862 284.765975,274.066373 C293.104881,286.690053 301.512616,294.882139 309.989179,298.642633 C312.86487,301.346098 312.86487,309.951685 311.819252,313.479559 C309.860166,320.089441 296.712851,353.045722 283.010142,358.601924 C273.875002,362.306058 247.810795,352.907344 204.81752,330.405781 L132.169231,263.379507 L123.080248,190.713856 C99.8817182,181.946811 87.6275341,174.89077 86.3176957,169.545732 C76.4849881,129.421546 97.3152626,107.049546 114.17032,114.179376 C133.359422,122.296525 156.325907,128.305846 183.069774,132.207337 C182.09567,144.154046 187.352278,151.7516 198.839596,155 Z"
                        fill="url(#linearGradient-50)"></path>
                    <path
                        d="M160.735046,251.46674 C159.234157,245.865346 162.558273,240.107808 168.159667,238.606919 C173.761061,237.10603 179.5186,240.430146 181.019489,246.031541 C182.304222,250.826232 180.053651,255.735332 175.865663,257.991213 C172.995833,258.400768 170.196223,258.640962 167.506523,258.694557 C164.299173,257.604225 161.67765,254.984588 160.735046,251.46674 Z M113.126531,163.571162 C107.525137,165.072051 101.767599,161.747935 100.26671,156.146541 C98.7658206,150.545147 102.089937,144.787609 107.691331,143.28672 C113.292725,141.785831 119.050263,145.109947 120.551152,150.711341 C122.052041,156.312735 118.727925,162.070273 113.126531,163.571162 Z M161.247613,206.068835 C155.646219,207.569725 149.888681,204.245608 148.387792,198.644214 C146.886903,193.04282 150.211019,187.285282 155.812413,185.784393 C161.413807,184.283504 167.171345,187.60762 168.672234,193.209014 C170.173123,198.810408 166.849007,204.567946 161.247613,206.068835 Z M158.675392,155.900291 C153.073998,157.40118 147.31646,154.077064 145.815571,148.47567 C144.314682,142.874276 147.638798,137.116737 153.240192,135.615848 C158.841586,134.114959 164.599124,137.439076 166.100013,143.04047 C167.600902,148.641864 164.276786,154.399402 158.675392,155.900291 Z M267.091947,338.574866 C265.591058,332.973472 268.915174,327.215934 274.516568,325.715045 C280.117962,324.214156 285.8755,327.538272 287.376389,333.139666 C288.661123,337.934358 286.410552,342.843457 282.222564,345.099339 C279.352734,345.508894 276.553124,345.749088 273.863424,345.802682 C270.656074,344.712351 268.034551,342.092713 267.091947,338.574866 Z M219.483432,250.679288 C213.882038,252.180177 208.1245,248.856061 206.623611,243.254667 C205.122722,237.653273 208.446838,231.895734 214.048232,230.394845 C219.649626,228.893956 225.407164,232.218073 226.908053,237.819467 C228.408942,243.420861 225.084826,249.178399 219.483432,250.679288 Z M267.604514,293.176961 C262.00312,294.67785 256.245582,291.353734 254.744693,285.75234 C253.243804,280.150946 256.56792,274.393408 262.169314,272.892519 C267.770708,271.39163 273.528246,274.715746 275.029135,280.31714 C276.530024,285.918534 273.205908,291.676072 267.604514,293.176961 Z M265.032293,243.008416 C259.430899,244.509305 253.673361,241.185189 252.172472,235.583795 C250.671583,229.982401 253.995699,224.224863 259.597093,222.723974 C265.198487,221.223085 270.956025,224.547201 272.456914,230.148595 C273.957803,235.749989 270.633687,241.507527 265.032293,243.008416 Z M219.483432,200.449898 C213.882038,201.938628 208.1245,198.641441 206.623611,193.085425 C205.122722,187.529408 208.446838,181.818513 214.048232,180.329783 C219.649626,178.841053 225.407164,182.13824 226.908053,187.694256 C228.408942,193.250272 225.084826,198.961168 219.483432,200.449898 Z M265.032293,192.841169 C259.430899,194.329899 253.673361,191.032712 252.172472,185.476696 C250.671583,179.92068 253.995699,174.209785 259.597093,172.721054 C265.198487,171.232324 270.956025,174.529511 272.456914,180.085528 C273.957803,185.641544 270.633687,191.352439 265.032293,192.841169 Z"
                        id="Texture"
                        fill="url(#linearGradient-51)"></path>
                </g>
                <g id="Path-51-Copy" transform="translate(160.000000, 10.000000)"></g>
            </g>
            <g id="Chair" transform="translate(533.000000, 582.000000)" fill-rule="nonzero">
                <polygon id="Chair-base" fill="#D2D9FF" points="154 184 166 184 166 233 154 233"></polygon>
                <circle id="Wheel" fill="url(#linearGradient-52)" cx="95" cy="296" r="9"></circle>
                <circle id="Wheel" fill="url(#linearGradient-52)" cx="221" cy="296" r="9"></circle>
                <circle id="Wheel" fill="url(#linearGradient-52)" cx="160" cy="306" r="9"></circle>
                <path
                    d="M147.881887,243.913896 L147.188938,236.462114 C147.174936,236.311537 147.169484,236.160287 147.172609,236.009093 C147.218258,233.800425 149.045743,232.046953 151.25441,232.092602 L168.443757,232.447876 C168.518609,232.449423 168.593402,232.453071 168.668048,232.458816 C170.870673,232.628338 172.518829,234.551342 172.349308,236.753968 L171.856692,243.154617 L226.584615,280.718959 C226.733073,280.820858 226.876958,280.929265 227.015849,281.043861 C229.620938,283.193279 229.990334,287.047569 227.840916,289.652659 C225.375307,292.640971 221.131549,293.45059 217.738946,291.579898 L170.149318,265.338837 L167.543567,299.195842 C167.252323,302.980029 164.146574,305.931063 160.352453,306.028726 C156.593853,306.125475 153.403546,303.292351 153.055417,299.548658 L149.787192,264.403038 L100.500439,291.579898 C97.1078366,293.45059 92.8640785,292.640971 90.3984697,289.652659 C88.2490519,287.047569 88.618447,283.193279 91.2235368,281.043861 C91.3624277,280.929265 91.5063124,280.820858 91.6547702,280.718959 L147.467253,242.410193 L147.881887,243.913896 Z"
                    id="Chair-base"
                    fill="url(#linearGradient-53)"></path>
                <path
                    d="M19.2285694,1.78935248 C13.1744391,-1.59097817 3.92141075,1.57430272 0.998715376,5.81654128 C1.93934968,11.8148661 2.53442849,14.40731 2.56009356,14.5456962 C12.0663579,65.8035028 48.9019763,115.156123 77.5715417,146.044815 C93.9142888,163.652549 107.767073,177.698822 119.129895,188.183635 C130.159473,189.900845 140.310816,188.724534 149.583926,184.654702 C155.629347,182.001455 165.109893,182.782432 164.839891,174.468564 C164.283362,157.331959 149.059315,148.676608 143.051306,123.85559 C137.414878,100.569693 143.754704,53.1343056 126.719506,43.3698986 C109.684307,33.6054916 88.3495801,50.5544167 55.8361354,36.4350781 C32.8367974,26.4473501 25.2826997,5.16968313 19.2285694,1.78935248 Z"
                    id="Chair-base"
                    fill="url(#linearGradient-54)"></path>
                <path
                    d="M189.174205,144.859317 C205.485582,140.38042 227.54703,135.446901 238.719895,144.859317 C249.89276,154.271733 244.75614,169.397339 237.280615,177.906295 C232.296931,183.578933 210.188084,189.030726 170.954073,194.261673 L167.468115,165.56524 C176.936643,161.523715 184.172006,154.621741 189.174205,144.859317 Z"
                    id="Chair-base"
                    fill="#111AA7"></path>
                <path
                    d="M0.871245414,5.25474165 C8.27287372,64.1120733 14.6990765,102.838749 20.1498539,121.434768 C28.4164379,149.637269 38.9482046,161.511866 50.3162519,172.821585 C61.6842991,184.131303 104.196903,203.837694 138.160029,205.582314 C168.220272,207.12645 210.199035,198.341062 225.727172,188.683347 C241.25531,179.025633 249.288441,158.320483 231.731805,153.172133 C214.17517,148.023783 157.580193,169.223977 152.24863,166.910956 C122.584191,154.041474 131.627036,64.7544221 117.326223,55.2857134 C103.73372,46.2859832 74.7469799,57.8426674 39.8361354,42.4350781 C29.6033913,37.9189479 16.6150947,25.5255024 0.871245414,5.25474165 Z"
                    id="Chair-base"
                    fill="url(#linearGradient-55)"></path>
            </g>
            <ellipse id="Shadow" fill="#E2EBFC" opacity="0.806164985" cx="1249" cy="897.5" rx="89" ry="15.5"></ellipse>
            <g id="leaves" transform="translate(1106.000000, 527.000000)" fill-rule="nonzero">
                <g id="Leaves" transform="translate(169.923887, 163.483889) scale(-1, 1) rotate(-16.000000) translate(-169.923887, -163.483889) translate(102.423887, 12.983889)">
                    <path
                        d="M92.2235622,0.262196558 C109.900491,2.02398391 103.808394,41.8842811 108.65921,49.2540134 C113.510027,56.5704443 127.149816,58.7892447 125.244487,74.7364666 C123.339158,90.6836885 110.182665,90.1495271 108.61402,103.397004 C107.045375,116.64448 136.635725,114.914479 134.109369,135.825901 C131.583013,156.737322 108.770691,163.07769 107.271739,175.674498 C105.772787,188.271307 117.07048,193.214213 113.725768,221.093754 C110.381056,248.973295 87.3574741,254.686603 52.972215,257.122934 C18.586956,259.559265 -2.7463252,250.152465 0.59838652,220.091224 C3.94309824,190.029982 40.4500536,190.89483 44.9575048,174.399624 C49.464956,157.960968 26.3443975,149.015997 28.515156,129.727706 C30.6859145,110.439414 65.4660986,111.32654 67.2397846,95.9198518 C69.0134706,80.5131635 41.7902808,72.1086916 43.5995573,56.1023393 C45.4088338,40.0959871 52.3203778,37.7142723 65.3610888,32.2052854 C78.4017997,26.7997018 74.5466332,-1.49959079 92.2235622,0.262196558 Z"
                        id="Leaf"
                        fill="url(#linearGradient-56)"></path>
                    <path
                        d="M56.1910336,242.767633 C55.4656569,242.98821 54.8292283,242.515207 54.7695304,241.710852 C54.7098325,240.906332 55.2494718,240.076144 55.9748484,239.856877 C73.3956797,234.640568 82.8673161,224.074775 84.7763355,207.826733 C84.8724943,207.008307 85.5352963,206.322661 86.2567452,206.2953 C86.9781942,206.267938 87.4850921,206.908055 87.3889334,207.725042 C85.3048898,225.431556 74.7767306,237.172402 56.1910336,242.767633 Z"
                        id="leaves-base"
                        fill="#98BBE9"></path>
                    <path
                        d="M66.2291438,176.048238 C65.5069648,175.990815 65.092589,175.28154 65.3036096,174.464203 C65.5146302,173.646992 66.271138,173.032347 66.993317,173.091179 C78.6941908,174.03494 88.6696061,167.165637 97.1724287,152.292519 C97.5970282,151.553353 98.4447497,151.207816 99.0658676,151.520185 C99.6869854,151.832274 99.846295,152.683279 99.4216954,153.421514 C90.2927013,169.375253 79.1442289,177.063712 66.2291438,176.048238 Z"
                        id="leaves-base"
                        fill="#98BBE9"></path>
                    <path
                        d="M89.9955474,87.0250816 C89.5034964,86.9549276 89.2188723,86.4579178 89.3598216,85.9150598 C89.5007708,85.3722582 90.0139189,84.9896932 90.5059699,85.0604964 C96.4418784,85.9120573 101.471463,82.7613703 105.765894,75.4412786 C106.052503,74.9539648 106.628623,74.7509626 107.052694,74.9876039 C107.476765,75.2241154 107.5882,75.8103358 107.301591,76.2972204 C102.584487,84.3325808 96.7587492,87.9860239 89.9955474,87.0250816 Z"
                        id="leaves-base"
                        fill="#98BBE9"></path>
                    <path
                        d="M89.3560945,76.3872694 C89.8596289,76.3625485 90.2569233,75.8966373 90.2434764,75.3465471 C90.2300294,74.7964004 89.8109332,74.369867 89.3073987,74.3939388 C83.2329578,74.6869113 78.9916966,71.0507596 76.4601317,63.2430324 C76.2911757,62.72072 75.7695248,62.4531744 75.2949917,62.6457091 C74.8204586,62.8383738 74.5727394,63.418533 74.7416953,63.9412746 C77.5224253,72.5226634 82.4350529,76.7303751 89.3560945,76.3872694 Z"
                        id="leaves-base"
                        fill="#98BBE9"></path>
                    <path
                        d="M71.1649056,156.106094 C71.8987339,156.035171 72.4744347,155.320296 72.4507694,154.509202 C72.427104,153.697981 71.813034,153.096576 71.0792057,153.166101 C60.20417,154.204119 52.5639094,147.916062 47.976857,133.898653 C47.7267606,133.131139 46.9644176,132.76383 46.2741164,133.0788 C45.5838151,133.394044 45.2269586,134.27299 45.477055,135.041428 C50.4329331,150.199313 59.0560723,157.285871 71.1649056,156.106094 Z"
                        id="leaves-base"
                        fill="#98BBE9"></path>
                    <path
                        d="M50.5785984,226.662839 C51.3124268,226.557631 51.8881276,225.813942 51.8644622,225.00159 C51.8407969,224.189111 51.2267269,223.61448 50.4928986,223.71829 C39.6178628,225.2644 31.9776023,219.313164 27.3905499,205.468851 C27.1404535,204.710775 26.3781105,204.377856 25.6878092,204.72581 C24.997508,205.074039 24.6406514,205.972074 24.8907479,206.731074 C29.846626,221.701944 38.4697652,228.408353 50.5785984,226.662839 Z"
                        id="leaves-base"
                        fill="#98BBE9"></path>
                    <path
                        d="M50.8382924,298.423846 C50.7109318,299.525032 49.8181031,300.496414 48.8441037,300.593488 C47.8701042,300.690563 45.8610814,300.005528 45.988442,298.900803 C48.1712975,292.049033 49.9558791,282.676755 51.3421868,270.77474 C53.4216483,252.922082 47.4628054,223.654671 51.5979842,203.749119 C55.733163,183.892049 78.2732244,146.310497 86.3643101,116.831639 C92.9477477,92.9810136 88.4491972,71.1159087 87.7277143,56.652474 C87.0062314,42.14337 90.1931258,25.0678173 90.5107697,25.0942152 C90.8908063,25.1258657 87.7034774,42.6414584 88.7038396,56.7132055 C89.7042017,70.7364885 93.5171372,89.2638991 90.2323119,109.680098 C84.1175093,147.750591 58.7513034,181.321235 55.8398009,206.588828 C52.9282983,231.856422 58.6044878,247.187155 57.1567304,269.324512 C56.1915588,284.064301 54.0854128,293.756393 50.8382924,298.423846 Z"
                        id="leaves-base"
                        fill="#8FAFDA"></path>
                </g>
                <g id="Leaves" transform="translate(105.000000, 177.500000) rotate(-17.000000) translate(-105.000000, -177.500000) translate(43.000000, 23.000000)">
                    <path
                        d="M66.4296332,0 C84.1065622,0 82.7126074,41.6636797 88.3837128,48.9380973 C94.0548181,56.2125148 107.855247,57.637082 107.855247,74.5337661 C107.855247,91.4304501 94.6987544,91.4304501 94.6987544,105.34138 C94.6987544,119.25231 124,116.688495 124,139.092516 C124,161.496537 101.929901,168.078659 101.929901,181.371541 C101.929901,194.664422 113.857929,200.254315 113.857929,229.915612 C113.857929,259.576908 91.3282631,263.957013 56.943004,263.957013 C22.557745,263.957013 0,253.098324 0,223.437028 C0,193.775732 36.7122094,195.595949 39.3451584,178.972643 C41.9781073,162.349337 17.8366906,153.296246 17.8366906,134.045705 C17.8366906,114.795163 52.6168747,114.795163 52.6168747,99.0659079 C52.6168747,83.3366523 24.5888799,76.1995474 24.5888799,60.1546714 C24.5888799,44.1097953 31.1768283,41.2401105 43.4842699,34.7373924 C55.7917116,28.2346743 48.7527043,0 66.4296332,0 Z"
                        id="Leaf"
                        fill="url(#linearGradient-57)"></path>
                    <path
                        d="M58.5156002,249.358119 C57.8107029,249.539733 57.1147124,249.011531 56.9610619,248.178349 C56.8074114,247.345166 57.2542852,246.522511 57.9591825,246.340897 C74.8881754,241.979218 83.1735657,231.459447 83.1735657,214.530038 C83.1735657,213.677292 83.7584156,212.986004 84.4798646,212.986004 C85.2013136,212.986004 85.7861635,213.677292 85.7861635,214.530038 C85.7861635,233.011582 76.5765716,244.70479 58.5156002,249.358119 Z"
                        id="Leaves-base"
                        fill="#5ACE87"></path>
                    <path
                        d="M67.2322794,186.513744 C66.5419826,186.778225 65.7998242,186.335431 65.5746222,185.524738 C65.3494201,184.714045 65.7264539,183.842444 66.4167506,183.577964 C77.6010622,179.292809 83.156712,168.803114 83.156712,151.726469 C83.156712,150.873725 83.7453348,150.182438 84.4714378,150.182438 C85.1975408,150.182438 85.7861635,150.873725 85.7861635,151.726469 C85.7861635,170.060686 79.5771981,181.783914 67.2322794,186.513744 Z"
                        id="Leaves-base"
                        fill="#5ACE87"
                        transform="translate(75.647799, 168.386370) rotate(25.000000) translate(-75.647799, -168.386370) "></path>
                    <path
                        d="M77.6039529,91.8781789 C77.1326499,92.0567058 76.6259382,91.7578158 76.4721805,91.2105894 C76.3184228,90.6633631 76.5758442,90.075024 77.0471472,89.8964971 C82.7327607,87.7428199 85.5506428,82.482686 85.5506428,73.8579644 C85.5506428,73.282353 85.9525275,72.8157278 86.4482774,72.8157278 C86.9440273,72.8157278 87.3459119,73.282353 87.3459119,73.8579644 C87.3459119,83.3315598 84.0819758,89.4243416 77.6039529,91.8781789 Z"
                        id="Leaves-base"
                        fill="#5ACE87"
                        transform="translate(81.886792, 82.372792) rotate(25.000000) translate(-81.886792, -82.372792) "></path>
                    <path
                        d="M60.4467202,80.9558198 C59.9754172,81.1343466 59.4687054,80.8354566 59.3149478,80.2882303 C59.1611901,79.741004 59.4186115,79.1526648 59.8899145,78.974138 C65.575528,76.8204607 68.3934101,71.5603268 68.3934101,62.9356052 C68.3934101,62.3599938 68.7952948,61.8933686 69.2910447,61.8933686 C69.7867946,61.8933686 70.1886792,62.3599938 70.1886792,62.9356052 C70.1886792,72.4092006 66.9247431,78.5019825 60.4467202,80.9558198 Z"
                        id="Leaves-base"
                        fill="#5ACE87"
                        transform="translate(64.729560, 71.450433) scale(-1, 1) rotate(25.000000) translate(-64.729560, -71.450433) "></path>
                    <path
                        d="M42.2645885,165.579285 C41.5789861,165.843549 40.8418746,165.401118 40.6182041,164.591088 C40.3945335,163.781058 40.7690032,162.910171 41.4546057,162.645907 C51.6149537,158.729626 56.65887,149.148781 56.65887,133.521274 C56.65887,132.669227 57.2434899,131.978507 57.9646551,131.978507 C58.6858203,131.978507 59.2704403,132.669227 59.2704403,133.521274 C59.2704403,150.405324 53.5776512,161.218693 42.2645885,165.579285 Z"
                        id="Leaves-base"
                        fill="#5ACE87"
                        transform="translate(49.911950, 148.817144) scale(-1, 1) rotate(25.000000) translate(-49.911950, -148.817144) "></path>
                    <path
                        d="M29.7866011,237.484817 C29.1009987,237.74908 28.3638872,237.306649 28.1402166,236.496619 C27.916546,235.686589 28.2910158,234.815702 28.9766183,234.551438 C39.1369663,230.635157 44.1808826,221.054312 44.1808826,205.426805 C44.1808826,204.574758 44.7655025,203.884038 45.4866677,203.884038 C46.2078329,203.884038 46.7924528,204.574758 46.7924528,205.426805 C46.7924528,222.310855 41.0996637,233.124225 29.7866011,237.484817 Z"
                        id="Leaves-base"
                        fill="#5ACE87"
                        transform="translate(37.433962, 220.722675) scale(-1, 1) rotate(25.000000) translate(-37.433962, -220.722675) "></path>
                    <path
                        d="M59.6076856,306.511598 C59.6076856,307.641047 58.8181031,308.556646 57.8441037,308.556646 C56.8701042,308.556646 54.7578352,307.641047 54.7578352,306.511598 C56.1660146,299.641679 56.8762787,290.114506 56.8886277,277.930079 C56.9071511,259.653438 47.5168656,229.223002 49.3756561,209.035723 C51.2344466,188.848445 69.4467404,150.469293 74.0939914,119.928963 C77.8752994,95.0793487 70.8601472,72.7618298 68.4706151,57.9693734 C66.0810829,43.176917 67.2730317,25.4855047 67.5906756,25.4855047 C67.9707122,25.4855047 66.8299672,43.6348515 69.4467404,57.9693734 C72.0635135,72.3038953 78.0088715,91.2144692 77.1173034,112.438155 C75.4576221,151.946694 53.9633829,186.283749 53.9633829,212.103295 C53.9633829,237.922842 61.4617903,254.082484 62.5878679,276.907555 C63.3385863,292.124269 62.3451922,301.992284 59.6076856,306.511598 Z"
                        id="Leaves-base"
                        fill="#42B16D"></path>
                </g>
                <g id="Leaves" transform="translate(203.000000, 205.000000) scale(-1, 1) rotate(-28.000000) translate(-203.000000, -205.000000) translate(141.000000, 73.000000)">
                    <path
                        d="M66.4296332,0 C84.1065622,0 82.7126074,35.6473003 88.3837128,41.8712669 C94.0548181,48.0952334 107.855247,49.3140881 107.855247,63.7708326 C107.855247,78.2275771 94.6987544,78.2275771 94.6987544,90.1297205 C94.6987544,102.031864 124,99.8382725 124,119.007075 C124,138.175878 101.929901,143.807519 101.929901,155.180863 C101.929901,166.554207 113.857929,171.3369 113.857929,196.715003 C113.857929,222.093105 91.3282631,225.840708 56.943004,225.840708 C22.557745,225.840708 0,216.550051 0,191.171949 C0,165.793846 36.7122094,167.351218 39.3451584,153.128375 C41.9781073,138.905531 17.8366906,131.159739 17.8366906,114.689042 C17.8366906,98.218345 52.6168747,98.218345 52.6168747,84.7604483 C52.6168747,71.3025516 24.5888799,65.1960693 24.5888799,51.4681289 C24.5888799,37.7401884 31.1768283,35.284896 43.4842699,29.7211928 C55.7917116,24.1574897 48.7527043,0 66.4296332,0 Z"
                        id="Leaf"
                        fill="url(#linearGradient-58)"></path>
                    <path
                        d="M58.5156002,213.349945 C57.8107029,213.505333 57.1147124,213.053406 56.9610619,212.340537 C56.8074114,211.627669 57.2542852,210.923808 57.9591825,210.76842 C74.8881754,207.036582 83.1735657,198.035903 83.1735657,183.551159 C83.1735657,182.821552 83.7584156,182.230088 84.4798646,182.230088 C85.2013136,182.230088 85.7861635,182.821552 85.7861635,183.551159 C85.7861635,199.363904 76.5765716,209.368573 58.5156002,213.349945 Z"
                        id="Leaves-base"
                        fill="#D2DEF8"></path>
                    <path
                        d="M67.2322794,159.580515 C66.5419826,159.806803 65.7998242,159.427951 65.5746222,158.734325 C65.3494201,158.040698 65.7264539,157.29496 66.4167506,157.068672 C77.6010622,153.402308 83.156712,144.427361 83.156712,129.816643 C83.156712,129.087037 83.7453348,128.495575 84.4714378,128.495575 C85.1975408,128.495575 85.7861635,129.087037 85.7861635,129.816643 C85.7861635,145.503335 79.5771981,155.533689 67.2322794,159.580515 Z"
                        id="Leaves-base"
                        fill="#D2DEF8"
                        transform="translate(75.647799, 144.070796) rotate(25.000000) translate(-75.647799, -144.070796) "></path>
                    <path
                        d="M77.6039529,78.6106523 C77.1326499,78.7633992 76.6259382,78.50767 76.4721805,78.039465 C76.3184228,77.5712601 76.5758442,77.0678791 77.0471472,76.9151322 C82.7327607,75.0724534 85.5506428,70.571901 85.5506428,63.192619 C85.5506428,62.7001279 85.9525275,62.300885 86.4482774,62.300885 C86.9440273,62.300885 87.3459119,62.7001279 87.3459119,63.192619 C87.3459119,71.2981945 84.0819758,76.5111576 77.6039529,78.6106523 Z"
                        id="Leaves-base"
                        fill="#D2DEF8"
                        transform="translate(81.886792, 70.477876) rotate(25.000000) translate(-81.886792, -70.477876) "></path>
                    <path
                        d="M60.4467202,69.2655195 C59.9754172,69.4182665 59.4687054,69.1625372 59.3149478,68.6943323 C59.1611901,68.2261273 59.4186115,67.7227464 59.8899145,67.5699994 C65.575528,65.7273207 68.3934101,61.2267683 68.3934101,53.8474863 C68.3934101,53.3549951 68.7952948,52.9557522 69.2910447,52.9557522 C69.7867946,52.9557522 70.1886792,53.3549951 70.1886792,53.8474863 C70.1886792,61.9530617 66.9247431,67.1660248 60.4467202,69.2655195 Z"
                        id="Leaves-base"
                        fill="#D2DEF8"
                        transform="translate(64.729560, 61.132743) scale(-1, 1) rotate(25.000000) translate(-64.729560, -61.132743) "></path>
                    <path
                        d="M42.2645885,141.669064 C41.5789861,141.895167 40.8418746,141.516625 40.6182041,140.823566 C40.3945335,140.130507 40.7690032,139.385379 41.4546057,139.159276 C51.6149537,135.80852 56.65887,127.611181 56.65887,114.24034 C56.65887,113.511332 57.2434899,112.920354 57.9646551,112.920354 C58.6858203,112.920354 59.2704403,113.511332 59.2704403,114.24034 C59.2704403,128.686275 53.5776512,137.938157 42.2645885,141.669064 Z"
                        id="Leaves-base"
                        fill="#D2DEF8"
                        transform="translate(49.911950, 127.327434) scale(-1, 1) rotate(25.000000) translate(-49.911950, -127.327434) "></path>
                    <path
                        d="M29.7866011,203.191188 C29.1009987,203.417291 28.3638872,203.038749 28.1402166,202.34569 C27.916546,201.652631 28.2910158,200.907503 28.9766183,200.6814 C39.1369663,197.330643 44.1808826,189.133305 44.1808826,175.762464 C44.1808826,175.033456 44.7655025,174.442478 45.4866677,174.442478 C46.2078329,174.442478 46.7924528,175.033456 46.7924528,175.762464 C46.7924528,190.208399 41.0996637,199.460281 29.7866011,203.191188 Z"
                        id="Leaves-base"
                        fill="#D2DEF8"
                        transform="translate(37.433962, 188.849558) scale(-1, 1) rotate(25.000000) translate(-37.433962, -188.849558) "></path>
                    <path
                        d="M59.6076856,262.250264 C59.6076856,263.216616 58.8181031,264 57.8441037,264 C56.8701042,264 54.7578352,263.216616 54.7578352,262.250264 C56.1660146,256.372385 56.8762787,248.220969 56.8886277,237.796015 C56.9071511,222.158584 47.5168656,196.122408 49.3756561,178.850242 C51.2344466,161.578076 69.4467404,128.741007 74.0939914,102.610806 C77.8752994,81.349562 70.8601472,62.25477 68.4706151,49.5983955 C66.0810829,36.9420209 67.2730317,21.8053097 67.5906756,21.8053097 C67.9707122,21.8053097 66.8299672,37.3338281 69.4467404,49.5983955 C72.0635135,61.8629629 78.0088715,78.0427845 77.1173034,96.201697 C75.4576221,130.005066 53.9633829,159.383731 53.9633829,181.474846 C53.9633829,203.565961 61.4617903,217.392095 62.5878679,236.921147 C63.3385863,249.940515 62.3451922,258.383554 59.6076856,262.250264 Z"
                        id="Leaves-base"
                        fill="#D2DEF8"></path>
                </g>
                <g id="vase" transform="translate(90.000000, 302.000000)">
                    <polygon id="Vase-base" fill="url(#linearGradient-59)" points="2.11141304 2.06855346 107.682065 2.06855346 84.2219203 68.2622642 25.571558 68.2622642"></polygon>
                    <rect id="Vase-base" fill="url(#linearGradient-60)" x="0" y="0" width="107.682065" height="20.6855346"></rect>
                </g>
            </g>
        </g>
    </g>
</svg>
