<svg width="989px" height="762px" viewBox="0 0 989 762" version="1.1" xmlns="http://www.w3.org/2000/svg" xmlns:xlink="http://www.w3.org/1999/xlink">
    <defs>
        <linearGradient x1="53.0089533%" y1="69.5782011%" x2="50%" y2="7.88477281%" id="linearGradient-1">
            <stop stop-color="#FFFFFF" stop-opacity="0" offset="0%"></stop>
            <stop stop-color="#E2EBFC" offset="100%"></stop>
        </linearGradient>
        <linearGradient x1="50%" y1="-104.289511%" x2="50%" y2="100%" id="linearGradient-2">
            <stop stop-color="#FFFFFF" offset="0%"></stop>
            <stop stop-color="#B3CDEF" offset="100%"></stop>
        </linearGradient>
        <linearGradient x1="50%" y1="32.1187137%" x2="53.7902054%" y2="115.977968%" id="linearGradient-3">
            <stop stop-color="#84F0A8" offset="0%"></stop>
            <stop stop-color="#48B676" offset="100%"></stop>
        </linearGradient>
        <linearGradient x1="53.2321711%" y1="0%" x2="50%" y2="100%" id="linearGradient-4">
            <stop stop-color="#FFFFFF" offset="0%"></stop>
            <stop stop-color="#E5EEFF" offset="100%"></stop>
        </linearGradient>
        <linearGradient x1="157.419759%" y1="14.2078084%" x2="118.835577%" y2="76.3127963%" id="linearGradient-5">
            <stop stop-color="#E5EDFF" offset="0%"></stop>
            <stop stop-color="#6B9AD9" offset="100%"></stop>
        </linearGradient>
        <linearGradient x1="149.379226%" y1="44.8846568%" x2="157.419759%" y2="56.3548878%" id="linearGradient-6">
            <stop stop-color="#E5EDFF" offset="0%"></stop>
            <stop stop-color="#6B9AD9" offset="100%"></stop>
        </linearGradient>
        <linearGradient x1="47.6375401%" y1="95.9083382%" x2="47.6375401%" y2="6.77016697%" id="linearGradient-7">
            <stop stop-color="#FFFFFF" offset="0%"></stop>
            <stop stop-color="#D9E5FF" offset="100%"></stop>
        </linearGradient>
        <linearGradient x1="117.798471%" y1="-39.6921362%" x2="93.4458886%" y2="115.937591%" id="linearGradient-8">
            <stop stop-color="#E5EDFF" offset="0%"></stop>
            <stop stop-color="#6B9AD9" offset="100%"></stop>
        </linearGradient>
        <linearGradient x1="50%" y1="-104.289511%" x2="50%" y2="100%" id="linearGradient-9">
            <stop stop-color="#FFFFFF" offset="0%"></stop>
            <stop stop-color="#B3CDEF" offset="100%"></stop>
        </linearGradient>
        <linearGradient x1="157.419759%" y1="15.4678698%" x2="128.337769%" y2="129.033976%" id="linearGradient-10">
            <stop stop-color="#E5EDFF" offset="0%"></stop>
            <stop stop-color="#6B9AD9" offset="100%"></stop>
        </linearGradient>
        <linearGradient x1="157.352288%" y1="-39.6921362%" x2="128.288564%" y2="255.279145%" id="linearGradient-11">
            <stop stop-color="#E5EDFF" offset="0%"></stop>
            <stop stop-color="#6B9AD9" offset="100%"></stop>
        </linearGradient>
        <linearGradient x1="157.419759%" y1="46.5687113%" x2="118.835577%" y2="52.5225279%" id="linearGradient-12">
            <stop stop-color="#E5EDFF" offset="0%"></stop>
            <stop stop-color="#6B9AD9" offset="100%"></stop>
        </linearGradient>
        <linearGradient x1="58.6555952%" y1="-39.6921362%" x2="55.5465856%" y2="115.937591%" id="linearGradient-13">
            <stop stop-color="#E5EDFF" offset="0%"></stop>
            <stop stop-color="#6B9AD9" offset="100%"></stop>
        </linearGradient>
        <linearGradient x1="45.8146591%" y1="-60.1542842%" x2="45.8146591%" y2="82.7652545%" id="linearGradient-14">
            <stop stop-color="#F59BA9" offset="0%"></stop>
            <stop stop-color="#DD4156" offset="100%"></stop>
        </linearGradient>
        <linearGradient x1="-8.77133659%" y1="81.4436478%" x2="17.3111424%" y2="31.7838562%" id="linearGradient-15">
            <stop stop-color="#FAD0BA" offset="0%"></stop>
            <stop stop-color="#F2A384" offset="100%"></stop>
        </linearGradient>
        <linearGradient x1="100%" y1="50%" x2="0%" y2="50%" id="linearGradient-16">
            <stop stop-color="#2865C6" offset="0%"></stop>
            <stop stop-color="#10378A" offset="100%"></stop>
        </linearGradient>
        <linearGradient x1="50%" y1="27.7727484%" x2="50.6894343%" y2="103.623291%" id="linearGradient-17">
            <stop stop-color="#1542AB" offset="0%"></stop>
            <stop stop-color="#2B68EE" offset="100%"></stop>
        </linearGradient>
        <linearGradient x1="51.5997602%" y1="0%" x2="50.3102655%" y2="50%" id="linearGradient-18">
            <stop stop-color="#3485F7" offset="0%"></stop>
            <stop stop-color="#1A57CF" offset="100%"></stop>
        </linearGradient>
        <linearGradient x1="78.4035831%" y1="109.304399%" x2="13.4640789%" y2="-47.1761978%" id="linearGradient-19">
            <stop stop-color="#032258" offset="0%"></stop>
            <stop stop-color="#133E94" offset="100%"></stop>
        </linearGradient>
        <linearGradient x1="50%" y1="32.1187137%" x2="62.9009478%" y2="115.977968%" id="linearGradient-20">
            <stop stop-color="#84F0A8" offset="0%"></stop>
            <stop stop-color="#48B676" offset="100%"></stop>
        </linearGradient>
        <linearGradient x1="85.0973284%" y1="99.8756133%" x2="4.85382204%" y2="-31.726188%" id="linearGradient-21">
            <stop stop-color="#032258" offset="0%"></stop>
            <stop stop-color="#133E94" offset="100%"></stop>
        </linearGradient>
        <linearGradient x1="55.8462173%" y1="0%" x2="50%" y2="100%" id="linearGradient-22">
            <stop stop-color="#FFFFFF" offset="0%"></stop>
            <stop stop-color="#E5EEFF" offset="100%"></stop>
        </linearGradient>
        <linearGradient x1="49.8226662%" y1="15.1595137%" x2="51.0991364%" y2="70.6858623%" id="linearGradient-23">
            <stop stop-color="#F59BA9" offset="0%"></stop>
            <stop stop-color="#F25267" offset="100%"></stop>
        </linearGradient>
        <path
            d="M12.0026016,28.3896514 C-0.551824181,79.4462717 -2.71044826,119.884895 5.52672939,149.705522 C17.8824959,194.436462 -2.26204753,246.418854 2.46434977,271.105421 C41.4862033,281.041051 58.7149596,293.787701 54.1506186,309.345372 C61.5800039,299.166223 64.9092288,276.812623 64.1382933,242.284571 C62.98189,190.492492 61.3847132,187.612141 59.5958145,164.035541 C58.4032153,148.317808 58.4032153,128.755427 59.5958145,105.348398 L42.863147,15.754862 C36.4129873,11.7935061 31.5248755,8.94245583 28.1988117,7.20171119 C24.8727479,5.46096656 19.9133081,3.15815531 13.3204925,0.293277461 L12.0026016,28.3896514 Z"
            id="path-24"></path>
        <linearGradient x1="49.3961817%" y1="15.1595137%" x2="53.742539%" y2="70.6858623%" id="linearGradient-26">
            <stop stop-color="#F59BA9" offset="0%"></stop>
            <stop stop-color="#F25267" offset="100%"></stop>
        </linearGradient>
        <linearGradient x1="49.0757736%" y1="15.1595137%" x2="55.7284678%" y2="70.6858623%" id="linearGradient-27">
            <stop stop-color="#F59BA9" offset="0%"></stop>
            <stop stop-color="#F25267" offset="100%"></stop>
        </linearGradient>
        <path
            d="M135.707246,32.5459262 C131.014051,49.9351251 127.598251,62.1733645 125.459847,69.2606444 C122.25008,79.89873 122.362993,88.7228641 123.081212,95.6318436 C125.235143,116.351801 135.364657,125.77286 130.173081,175.336341 C128.143397,194.713535 114.139778,219.82625 111.940724,241.432226 C108.514982,275.090565 114.050861,286.214743 111.940724,291.781597 C109.052728,299.400557 78.229753,292.398977 62.8049178,309.684724 C57.8373545,299.400557 76.7098737,263.139011 76.7098737,257.600212 C76.7098737,252.061413 77.3525164,210.464968 93.2026223,179.95207 C103.76936,159.610138 107.806841,129.854188 105.315066,90.6842215 C78.7587613,85.2077662 59.3352131,78.0665739 47.0444213,69.2606444 C34.7536295,60.4547149 19.1542896,41.456359 0.246401507,12.2655766 C3.06739752,4.5978336 6.30242466,0.76396212 9.95148291,0.76396212 C15.4250703,0.76396212 52.5104045,36.8621498 81.1829518,41.2411727 C93.2026223,43.0768802 102.854633,35.4586291 111.940724,33.2645518 C126.395748,29.7740035 143.662293,27.8451755 145.414392,27.202338 C145.118275,28.13264 144.787438,29.2961231 144.36701,30.0579979 C142.445687,29.5500814 139.559099,30.3793908 135.707246,32.5459262 Z"
            id="path-28"></path>
        <linearGradient x1="50%" y1="-142.327103%" x2="50%" y2="170.164832%" id="linearGradient-30">
            <stop stop-color="#95B7E5" offset="0%"></stop>
            <stop stop-color="#476DB1" offset="100%"></stop>
        </linearGradient>
        <linearGradient x1="83.2804773%" y1="49.9358552%" x2="59.8890922%" y2="50.0783262%" id="linearGradient-31">
            <stop stop-color="#476DB1" offset="0%"></stop>
            <stop stop-color="#283F6F" offset="100%"></stop>
        </linearGradient>
        <linearGradient x1="83.2804773%" y1="36.0823232%" x2="-16.1251386%" y2="193.247986%" id="linearGradient-32">
            <stop stop-color="#476DB1" offset="0%"></stop>
            <stop stop-color="#283F6F" offset="100%"></stop>
        </linearGradient>
        <linearGradient x1="83.2804773%" y1="36.8900343%" x2="59.8890922%" y2="66.0083763%" id="linearGradient-33">
            <stop stop-color="#476DB1" offset="0%"></stop>
            <stop stop-color="#283F6F" offset="100%"></stop>
        </linearGradient>
        <linearGradient x1="50%" y1="40.9874026%" x2="-33.8124944%" y2="122.684787%" id="linearGradient-34">
            <stop stop-color="#F7FAFF" offset="0%"></stop>
            <stop stop-color="#6B9AD9" offset="100%"></stop>
        </linearGradient>
        <linearGradient x1="94.6297471%" y1="-39.6921362%" x2="78.5991554%" y2="115.937591%" id="linearGradient-35">
            <stop stop-color="#E5EDFF" offset="0%"></stop>
            <stop stop-color="#6B9AD9" offset="100%"></stop>
        </linearGradient>
        <linearGradient x1="50%" y1="-104.289511%" x2="50%" y2="100%" id="linearGradient-36">
            <stop stop-color="#FFFFFF" offset="0%"></stop>
            <stop stop-color="#B3CDEF" offset="100%"></stop>
        </linearGradient>
        <linearGradient x1="108.833486%" y1="-39.6921362%" x2="87.7010432%" y2="115.937591%" id="linearGradient-37">
            <stop stop-color="#E5EDFF" offset="0%"></stop>
            <stop stop-color="#6B9AD9" offset="100%"></stop>
        </linearGradient>
        <linearGradient x1="50%" y1="-104.289511%" x2="50%" y2="100%" id="linearGradient-38">
            <stop stop-color="#FFFFFF" offset="0%"></stop>
            <stop stop-color="#B3CDEF" offset="100%"></stop>
        </linearGradient>
        <linearGradient x1="50%" y1="-104.289511%" x2="50%" y2="100%" id="linearGradient-39">
            <stop stop-color="#FFFFFF" offset="0%"></stop>
            <stop stop-color="#B3CDEF" offset="100%"></stop>
        </linearGradient>
        <linearGradient x1="50%" y1="-104.289511%" x2="50%" y2="100%" id="linearGradient-40">
            <stop stop-color="#FFFFFF" offset="0%"></stop>
            <stop stop-color="#B3CDEF" offset="100%"></stop>
        </linearGradient>
        <linearGradient x1="118.127516%" y1="-39.6921362%" x2="93.6567435%" y2="115.937591%" id="linearGradient-41">
            <stop stop-color="#E5EDFF" offset="0%"></stop>
            <stop stop-color="#6B9AD9" offset="100%"></stop>
        </linearGradient>
        <linearGradient x1="50%" y1="-104.289511%" x2="50%" y2="100%" id="linearGradient-42">
            <stop stop-color="#FFFFFF" offset="0%"></stop>
            <stop stop-color="#B3CDEF" offset="100%"></stop>
        </linearGradient>
        <linearGradient x1="157.419759%" y1="15.6346543%" x2="128.337769%" y2="128.652255%" id="linearGradient-43">
            <stop stop-color="#E5EDFF" offset="0%"></stop>
            <stop stop-color="#6B9AD9" offset="100%"></stop>
        </linearGradient>
        <linearGradient x1="157.419759%" y1="-39.3150375%" x2="128.337769%" y2="254.416076%" id="linearGradient-44">
            <stop stop-color="#E5EDFF" offset="0%"></stop>
            <stop stop-color="#6B9AD9" offset="100%"></stop>
        </linearGradient>
        <linearGradient x1="157.419759%" y1="46.5852838%" x2="118.835577%" y2="52.5103445%" id="linearGradient-45">
            <stop stop-color="#E5EDFF" offset="0%"></stop>
            <stop stop-color="#6B9AD9" offset="100%"></stop>
        </linearGradient>
        <linearGradient x1="58.6976032%" y1="-39.6921362%" x2="55.5735047%" y2="115.937591%" id="linearGradient-46">
            <stop stop-color="#E5EDFF" offset="0%"></stop>
            <stop stop-color="#6B9AD9" offset="100%"></stop>
        </linearGradient>
        <linearGradient x1="100%" y1="50%" x2="0%" y2="50%" id="linearGradient-47">
            <stop stop-color="#2865C6" offset="0%"></stop>
            <stop stop-color="#10378A" offset="100%"></stop>
        </linearGradient>
        <linearGradient x1="100%" y1="50%" x2="0%" y2="50%" id="linearGradient-48">
            <stop stop-color="#2865C6" offset="0%"></stop>
            <stop stop-color="#10378A" offset="100%"></stop>
        </linearGradient>
        <linearGradient x1="57.8431816%" y1="0%" x2="51.5211458%" y2="50%" id="linearGradient-49">
            <stop stop-color="#3485F7" offset="0%"></stop>
            <stop stop-color="#1A57CF" offset="100%"></stop>
        </linearGradient>
        <linearGradient x1="50%" y1="-10.8772052%" x2="50%" y2="100%" id="linearGradient-50">
            <stop stop-color="#FFE579" offset="0%"></stop>
            <stop stop-color="#FEB755" offset="100%"></stop>
        </linearGradient>
        <path
            d="M76.0249734,21.3351752 C87.014712,21.3351752 94.8605927,18.0606318 99.5626155,11.511545 C132.159043,14.7897003 152.325896,24.6477555 160.063175,41.0857106 C166.863587,55.5332793 168.338834,59.7429826 180.917997,82.2860581 C186.844035,92.9060901 175.934533,104.832862 148.189491,118.066373 C164.356408,150.690053 176.633535,168.882139 185.020872,172.642633 C187.866293,175.346098 187.866293,183.951685 186.831681,187.479559 C184.893217,194.089441 156.724189,233.937493 142.524899,228.755134 C133.058706,225.300229 112.535834,217.183777 80.9562833,204.405781 L9.0727124,137.379507 L0.0794033896,64.713856 C3.93448976,51.6053145 9.81713813,37.1457543 17.7273485,21.3351752 C28.0874955,0.627770846 41.9908663,-4.41484175 59.4374607,6.20733741 C59.5060638,16.2925626 65.0352347,21.3351752 76.0249734,21.3351752 Z"
            id="path-51"></path>
        <linearGradient x1="72.4337244%" y1="109.304399%" x2="21.1431906%" y2="-47.1761978%" id="linearGradient-53">
            <stop stop-color="#032258" offset="0%"></stop>
            <stop stop-color="#133E94" offset="100%"></stop>
        </linearGradient>
        <linearGradient x1="83.2804773%" y1="11.2557844%" x2="59.8890922%" y2="97.3099621%" id="linearGradient-54">
            <stop stop-color="#476DB1" offset="0%"></stop>
            <stop stop-color="#283F6F" offset="100%"></stop>
        </linearGradient>
        <linearGradient x1="50%" y1="-142.327103%" x2="50%" y2="170.164832%" id="linearGradient-55">
            <stop stop-color="#95B7E5" offset="0%"></stop>
            <stop stop-color="#476DB1" offset="100%"></stop>
        </linearGradient>
        <linearGradient x1="75.1227074%" y1="11.2557844%" x2="57.4650602%" y2="97.3099621%" id="linearGradient-56">
            <stop stop-color="#476DB1" offset="0%"></stop>
            <stop stop-color="#283F6F" offset="100%"></stop>
        </linearGradient>
        <linearGradient x1="50%" y1="-142.327103%" x2="50%" y2="170.164832%" id="linearGradient-57">
            <stop stop-color="#95B7E5" offset="0%"></stop>
            <stop stop-color="#476DB1" offset="100%"></stop>
        </linearGradient>
    </defs>
    <g id="Illustration" stroke="none" stroke-width="1" fill="none" fill-rule="evenodd">
        <g id="StartUp" transform="translate(-212.000000, -130.000000)">
            <g id="Background" transform="translate(271.000000, 214.000000)" fill="url(#linearGradient-1)">
                <ellipse cx="464.595312" cy="318.857668" rx="464.595312" ry="318.857668"></ellipse>
            </g>
            <g id="Shadow" transform="translate(219.000000, 797.000000)" fill="#E2EBFC" opacity="0.806164985">
                <ellipse cx="365" cy="10.9580645" rx="219" ry="10.9580645"></ellipse>
                <ellipse cx="784" cy="73.4870968" rx="154" ry="20.7645161"></ellipse>
                <ellipse cx="64" cy="16.1677419" rx="64" ry="13.1677419"></ellipse>
                <ellipse cx="312" cy="74.2322581" rx="94" ry="18.2322581"></ellipse>
            </g>
            <g id="leaves" transform="translate(181.000000, 520.000000)" fill-rule="nonzero">
                <g id="Leaves" transform="translate(148.174837, 125.768855) scale(-1, 1) rotate(-16.000000) translate(-148.174837, -125.768855) translate(98.174837, 9.268855)">
                    <path
                        d="M81.631905,-4.64204237 C95.8874928,-3.21670746 90.9745111,29.0313802 94.8864599,34.9936983 C98.7984088,40.9128942 109.798239,42.7079653 108.261683,55.6097108 C106.725127,68.5114563 96.1150527,68.0793049 94.8500162,78.7968815 C93.5849798,89.514458 117.448166,88.114839 115.410782,105.03276 C113.373398,121.950681 94.976364,127.080214 93.7675318,137.271382 C92.5586996,147.46255 101.669742,151.461498 98.9723936,174.016822 C96.2750454,196.572145 77.7076404,201.19437 49.9775928,203.165429 C22.2475451,205.136489 5.04328613,197.526126 7.74063429,173.205747 C10.4379825,148.885367 39.8790755,149.585053 43.5141168,136.239973 C47.1491581,122.940644 28.5035463,115.703915 30.2541581,100.099151 C32.0047698,84.4943867 60.0533053,85.2120967 61.4836973,72.7476579 C62.9140892,60.2832191 40.9599039,53.4837678 42.4189978,40.5341842 C43.8780917,27.5846007 49.4519176,25.6577272 59.96862,21.2008038 C70.4853223,16.8275365 67.3763171,-6.06737727 81.631905,-4.64204237 Z"
                        id="Leaf"
                        fill="url(#linearGradient-2)"></path>
                    <path
                        d="M52.5734142,191.551592 C51.988433,191.730045 51.4751841,191.347372 51.4270406,190.696627 C51.3788972,190.045747 51.8140901,189.374103 52.3990713,189.196709 C66.4481288,184.976571 74.0865452,176.428551 75.626077,163.283434 C75.7036244,162.621304 76.2381421,162.066597 76.8199558,162.044461 C77.4017695,162.022325 77.8105582,162.540198 77.7330108,163.201163 C76.0523305,177.526224 67.5618795,187.024894 52.5734142,191.551592 Z"
                        id="leaves-base"
                        fill="#98BBE9"></path>
                    <path
                        d="M60.6686643,137.573748 C60.0862619,137.527291 59.7520879,136.953468 59.9222658,136.29222 C60.0924437,135.631073 60.7025306,135.133808 61.284933,135.181405 C70.7211216,135.944934 78.7658114,130.387477 85.6229263,118.354712 C85.9653453,117.756705 86.6489917,117.477157 87.1498932,117.729872 C87.6507947,117.982361 87.7792701,118.670847 87.4368511,119.2681 C80.0747591,132.175118 71.0840556,138.395295 60.6686643,137.573748 Z"
                        id="leaves-base"
                        fill="#98BBE9"></path>
                    <path
                        d="M79.8351189,65.5515417 C79.4383036,65.4947852 79.208768,65.0926904 79.3224367,64.6535032 C79.4361055,64.2143616 79.8499346,63.904856 80.2467499,63.9621377 C85.0337729,64.6510741 89.0898895,62.1020809 92.5531405,56.1799233 C92.7842769,55.7856729 93.2488897,55.6214385 93.5908823,55.8128879 C93.9328749,56.0042322 94.0227417,56.4785008 93.7916053,56.872404 C89.9874897,63.3732338 85.2893139,66.3289707 79.8351189,65.5515417 Z"
                        id="leaves-base"
                        fill="#98BBE9"></path>
                    <path
                        d="M79.319431,56.9452561 C79.7255072,56.9252562 80.0459059,56.5483212 80.0350616,56.1032829 C80.0242173,55.658199 79.6862364,55.3131216 79.2801602,55.3325963 C74.3814176,55.5696192 70.9610457,52.6278715 68.919461,46.3112033 C68.7832062,45.8886381 68.36252,45.6721862 67.979832,45.8279522 C67.597144,45.9838232 67.3973704,46.4531882 67.5336252,46.8761006 C69.7761494,53.8186826 73.7379459,57.2228382 79.319431,56.9452561 Z"
                        id="leaves-base"
                        fill="#98BBE9"></path>
                    <path
                        d="M64.6491174,121.44 C65.2409144,121.382621 65.7051893,120.804267 65.6861043,120.14807 C65.6670194,119.491769 65.1718016,119.005216 64.5800046,119.061464 C55.8098145,119.901249 49.648314,114.814036 45.9490783,103.473563 C45.7473876,102.852623 45.1325949,102.55546 44.5759003,102.810279 C44.0192057,103.06532 43.7314182,103.776412 43.9331089,104.3981 C47.9297848,116.661249 54.8839293,122.394472 64.6491174,121.44 Z"
                        id="leaves-base"
                        fill="#98BBE9"></path>
                    <path
                        d="M48.0472568,178.522367 C48.6390538,178.43725 49.1033287,177.835585 49.0842437,177.17837 C49.0651588,176.521052 48.569941,176.056159 47.978144,176.140144 C39.2079539,177.390991 33.0464534,172.576275 29.3472177,161.375841 C29.145527,160.762537 28.5307343,160.493196 27.9740397,160.7747 C27.4173451,161.056427 27.1295576,161.782962 27.3312483,162.397015 C31.3279242,174.508865 38.2820687,179.934536 48.0472568,178.522367 Z"
                        id="leaves-base"
                        fill="#98BBE9"></path>
                    <path
                        d="M48.2566874,236.579014 C48.1539773,237.469904 47.4339541,238.255779 46.6484707,238.334315 C45.8629873,238.412851 44.2428076,237.858639 44.3455177,236.964886 C46.1058851,231.421613 47.5450638,223.83918 48.6630538,214.21012 C50.3400389,199.766824 45.5345205,176.088675 48.8693421,159.98453 C52.2041637,143.919609 70.3816326,113.515089 76.9067017,89.6658745 C82.2159256,70.3700562 78.5880622,52.6805789 78.0062212,40.9792585 C77.4243802,29.2409903 79.9944563,15.4263939 80.2506208,15.4477505 C80.5571018,15.4733566 77.9866753,29.6439577 78.793419,41.028392 C79.6001627,52.3736174 82.6751107,67.3628073 80.0260579,83.8800795 C75.0947655,114.680166 54.6381479,141.839749 52.290162,162.281934 C49.942176,182.724119 54.5197482,195.127108 53.3522019,213.036845 C52.5738377,224.961744 50.8753329,232.802915 48.2566874,236.579014 Z"
                        id="leaves-base"
                        fill="#8FAFDA"></path>
                </g>
                <g id="Leaves" transform="translate(84.361701, 134.156680) rotate(-17.000000) translate(-84.361701, -134.156680) translate(34.361701, 9.156680)">
                    <path
                        d="M53.5722849,0 C67.8278727,0 66.7037156,33.7084787 71.2771877,39.5939298 C75.8506598,45.4793809 86.9800377,46.6319433 86.9800377,60.3023997 C86.9800377,73.9728561 76.3699632,73.9728561 76.3699632,85.2276536 C76.3699632,96.4824512 100,94.4081671 100,112.534398 C100,130.660628 82.2015331,135.98597 82.2015331,146.740729 C82.2015331,157.495487 91.8209107,162.018055 91.8209107,186.015867 C91.8209107,210.013679 73.6518251,213.557454 45.9217775,213.557454 C18.1917298,213.557454 0,204.772107 0,180.774294 C0,156.776482 29.6066205,158.24915 31.7299664,144.799873 C33.8533124,131.350596 14.3844279,124.026089 14.3844279,108.451218 C14.3844279,92.8763458 42.4329634,92.8763458 42.4329634,80.1504109 C42.4329634,67.424476 19.8297419,61.6501193 19.8297419,48.668828 C19.8297419,35.6875367 25.1426035,33.3657852 35.0679596,28.1046864 C44.9933158,22.8435876 39.316697,0 53.5722849,0 Z"
                        id="Leaf"
                        fill="url(#linearGradient-3)"></path>
                    <path
                        d="M47.1900001,201.746051 C46.6215346,201.892988 46.0602519,201.46564 45.9363403,200.791544 C45.8124286,200.117448 46.1728107,199.45187 46.7412762,199.304933 C60.3936899,195.776066 67.0754562,187.264925 67.0754562,173.567992 C67.0754562,172.878068 67.5471094,172.318773 68.1289231,172.318773 C68.7107367,172.318773 69.1823899,172.878068 69.1823899,173.567992 C69.1823899,188.520697 61.7552996,197.981222 47.1900001,201.746051 Z"
                        id="Leaves-base"
                        fill="#5ACE87"></path>
                    <path
                        d="M54.2195801,150.901088 C53.6628892,151.115068 53.0643744,150.756822 52.8827598,150.100921 C52.7011453,149.44502 53.0052047,148.739842 53.5618957,148.525861 C62.5815018,145.058907 67.0618645,136.572099 67.0618645,122.756043 C67.0618645,122.06612 67.5365603,121.506827 68.1221272,121.506827 C68.7076942,121.506827 69.1823899,122.06612 69.1823899,122.756043 C69.1823899,137.589552 64.1751598,147.074364 54.2195801,150.901088 Z"
                        id="Leaves-base"
                        fill="#5ACE87"
                        transform="translate(61.006289, 136.234928) rotate(25.000000) translate(-61.006289, -136.234928) "></path>
                    <path
                        d="M62.583833,74.3350962 C62.2037499,74.4795354 61.7951114,74.237715 61.6711133,73.7949753 C61.5471152,73.3522355 61.7547131,72.876233 62.1347962,72.7317938 C66.7199683,70.9893365 68.9924539,66.7335647 68.9924539,59.7556346 C68.9924539,59.2899296 69.3165544,58.9124011 69.7163527,58.9124011 C70.116151,58.9124011 70.4402516,59.2899296 70.4402516,59.7556346 C70.4402516,67.4203558 67.808045,72.349791 62.583833,74.3350962 Z"
                        id="Leaves-base"
                        fill="#5ACE87"
                        transform="translate(66.037736, 66.644654) rotate(25.000000) translate(-66.037736, -66.644654) "></path>
                    <path
                        d="M48.747355,65.498236 C48.367272,65.6426752 47.9586334,65.4008549 47.8346353,64.9581151 C47.7106372,64.5153754 47.9182351,64.0393728 48.2983182,63.8949336 C52.8834903,62.1524763 55.1559759,57.8967046 55.1559759,50.9187744 C55.1559759,50.4530694 55.4800765,50.0755409 55.8798747,50.0755409 C56.279673,50.0755409 56.6037736,50.4530694 56.6037736,50.9187744 C56.6037736,58.5834956 53.9715671,63.5129308 48.747355,65.498236 Z"
                        id="Leaves-base"
                        fill="#5ACE87"
                        transform="translate(52.201258, 57.807794) scale(-1, 1) rotate(25.000000) translate(-52.201258, -57.807794) "></path>
                    <path
                        d="M34.0843456,133.963823 C33.5314404,134.177629 32.9369957,133.819675 32.7566162,133.164311 C32.5762367,132.508947 32.8782284,131.804345 33.4311336,131.59054 C41.6249627,128.422028 45.6926371,120.670535 45.6926371,108.026921 C45.6926371,107.337562 46.1641048,106.778727 46.7456896,106.778727 C47.3272745,106.778727 47.7987421,107.337562 47.7987421,108.026921 C47.7987421,121.687155 43.2077832,130.435836 34.0843456,133.963823 Z"
                        id="Leaves-base"
                        fill="#5ACE87"
                        transform="translate(40.251572, 120.402220) scale(-1, 1) rotate(25.000000) translate(-40.251572, -120.402220) "></path>
                    <path
                        d="M24.0214525,192.139819 C23.4685473,192.353625 22.8741026,191.995671 22.6937231,191.340307 C22.5133436,190.684943 22.8153353,189.980342 23.3682405,189.766536 C31.5620696,186.598024 35.629744,178.846531 35.629744,166.202917 C35.629744,165.513558 36.1012117,164.954723 36.6827965,164.954723 C37.2643814,164.954723 37.7358491,165.513558 37.7358491,166.202917 C37.7358491,179.863151 33.1448901,188.611832 24.0214525,192.139819 Z"
                        id="Leaves-base"
                        fill="#5ACE87"
                        transform="translate(30.188679, 178.578216) scale(-1, 1) rotate(25.000000) translate(-30.188679, -178.578216) "></path>
                    <path
                        d="M48.0707142,247.98673 C48.0707142,248.900524 47.4339541,249.6413 46.6484707,249.6413 C45.8629873,249.6413 44.1595445,248.900524 44.1595445,247.98673 C45.295173,242.428543 45.8679667,234.720474 45.8779255,224.862523 C45.8928638,210.075597 38.3200529,185.455503 39.8190775,169.122753 C41.3181021,152.790004 56.0054358,121.73891 59.7532189,97.0299052 C62.8026608,76.9250394 57.14528,58.8687943 55.2182379,46.9007875 C53.2911959,34.9327808 54.2524449,20.6193404 54.5086094,20.6193404 C54.8150904,20.6193404 53.8951349,35.3032779 56.0054358,46.9007875 C58.1157367,58.4982972 62.9103803,73.7981142 62.1913737,90.9693813 C60.8529211,122.934219 43.5188572,150.715007 43.5188572,171.604608 C43.5188572,192.494209 49.5659599,205.568352 50.474087,224.035239 C51.0795051,236.346496 50.2783808,244.330326 48.0707142,247.98673 Z"
                        id="Leaves-base"
                        fill="#42B16D"></path>
                </g>
                <g id="Leaves" transform="translate(164.000000, 155.500000) scale(-1, 1) rotate(-28.000000) translate(-164.000000, -155.500000) translate(114.000000, 49.000000)">
                    <path
                        d="M53.5722849,0 C67.8278727,0 66.7037156,28.7608901 71.2771877,33.7824994 C75.8506598,38.8041088 86.9800377,39.7875029 86.9800377,51.4514672 C86.9800377,63.1154315 76.3699632,63.1154315 76.3699632,72.7182972 C76.3699632,82.3211629 100,80.5513335 100,96.0170723 C100,111.482811 82.2015331,116.026521 82.2015331,125.202742 C82.2015331,134.378962 91.8209107,138.237726 91.8209107,158.713241 C91.8209107,179.188755 73.6518251,182.212389 45.9217775,182.212389 C18.1917298,182.212389 0,174.716519 0,154.241004 C0,133.76549 29.6066205,135.022006 31.7299664,123.546757 C33.8533124,112.071508 14.3844279,105.822062 14.3844279,92.5332042 C14.3844279,79.2443466 42.4329634,79.2443466 42.4329634,68.3862708 C42.4329634,57.5281951 19.8297419,52.6013741 19.8297419,41.5254222 C19.8297419,30.4494702 25.1426035,28.4684956 35.0679596,23.9795988 C44.9933158,19.4907019 39.316697,0 53.5722849,0 Z"
                        id="Leaf"
                        fill="url(#linearGradient-4)"></path>
                    <path
                        d="M47.1900001,172.134614 C46.6215346,172.259984 46.0602519,171.895361 45.9363403,171.320206 C45.8124286,170.745051 46.1728107,170.177163 46.7412762,170.051793 C60.3936899,167.040879 67.0754562,159.778967 67.0754562,148.092413 C67.0754562,147.503752 67.5471094,147.026549 68.1289231,147.026549 C68.7107367,147.026549 69.1823899,147.503752 69.1823899,148.092413 C69.1823899,160.850422 61.7552996,168.922371 47.1900001,172.134614 Z"
                        id="Leaves-base"
                        fill="#D2DEF8"></path>
                    <path
                        d="M54.2195801,128.752461 C53.6628892,128.935035 53.0643744,128.62937 52.8827598,128.069739 C52.7011453,127.510109 53.0052047,126.908434 53.5618957,126.72586 C62.5815018,123.767771 67.0618645,116.526621 67.0618645,104.738428 C67.0618645,104.149769 67.5365603,103.672566 68.1221272,103.672566 C68.7076942,103.672566 69.1823899,104.149769 69.1823899,104.738428 C69.1823899,117.394736 64.1751598,125.487408 54.2195801,128.752461 Z"
                        id="Leaves-base"
                        fill="#D2DEF8"
                        transform="translate(61.006289, 116.238938) rotate(25.000000) translate(-61.006289, -116.238938) "></path>
                    <path
                        d="M62.583833,63.4245035 C62.2037499,63.5477426 61.7951114,63.3414155 61.6711133,62.9636593 C61.5471152,62.585903 61.7547131,62.1797661 62.1347962,62.0565271 C66.7199683,60.5698204 68.9924539,56.9386929 68.9924539,50.984954 C68.9924539,50.5876032 69.3165544,50.2654867 69.7163527,50.2654867 C70.116151,50.2654867 70.4402516,50.5876032 70.4402516,50.984954 C70.4402516,57.5246796 67.808045,61.730593 62.583833,63.4245035 Z"
                        id="Leaves-base"
                        fill="#D2DEF8"
                        transform="translate(66.037736, 56.862832) rotate(25.000000) translate(-66.037736, -56.862832) "></path>
                    <path
                        d="M48.747355,55.8846805 C48.367272,56.0079195 47.9586334,55.8015925 47.8346353,55.4238363 C47.7106372,55.04608 47.9182351,54.6399431 48.2983182,54.5167041 C52.8834903,53.0299973 55.1559759,49.3988699 55.1559759,43.445131 C55.1559759,43.0477802 55.4800765,42.7256637 55.8798747,42.7256637 C56.279673,42.7256637 56.6037736,43.0477802 56.6037736,43.445131 C56.6037736,49.9848566 53.9715671,54.19077 48.747355,55.8846805 Z"
                        id="Leaves-base"
                        fill="#D2DEF8"
                        transform="translate(52.201258, 49.323009) scale(-1, 1) rotate(25.000000) translate(-52.201258, -49.323009) "></path>
                    <path
                        d="M34.0843456,114.301177 C33.5314404,114.483601 32.9369957,114.178186 32.7566162,113.619014 C32.5762367,113.059841 32.8782284,112.458658 33.4311336,112.276234 C41.6249627,109.572783 45.6926371,102.959021 45.6926371,92.1711838 C45.6926371,91.5830065 46.1641048,91.1061947 46.7456896,91.1061947 C47.3272745,91.1061947 47.7987421,91.5830065 47.7987421,92.1711838 C47.7987421,103.826426 43.2077832,111.291013 34.0843456,114.301177 Z"
                        id="Leaves-base"
                        fill="#D2DEF8"
                        transform="translate(40.251572, 102.730088) scale(-1, 1) rotate(25.000000) translate(-40.251572, -102.730088) "></path>
                    <path
                        d="M24.0214525,163.938345 C23.4685473,164.120769 22.8741026,163.815354 22.6937231,163.256182 C22.5133436,162.697009 22.8153353,162.095826 23.3682405,161.913402 C31.5620696,159.209951 35.629744,152.59619 35.629744,141.808352 C35.629744,141.220175 36.1012117,140.743363 36.6827965,140.743363 C37.2643814,140.743363 37.7358491,141.220175 37.7358491,141.808352 C37.7358491,153.463595 33.1448901,160.928181 24.0214525,163.938345 Z"
                        id="Leaves-base"
                        fill="#D2DEF8"
                        transform="translate(30.188679, 152.367257) scale(-1, 1) rotate(25.000000) translate(-30.188679, -152.367257) "></path>
                    <path
                        d="M48.0707142,211.588281 C48.0707142,212.367952 47.4339541,213 46.6484707,213 C45.8629873,213 44.1595445,212.367952 44.1595445,211.588281 C45.295173,206.845902 45.8679667,200.269191 45.8779255,191.858148 C45.8928638,179.241585 38.3200529,158.235125 39.8190775,144.299627 C41.3181021,130.36413 56.0054358,103.870585 59.7532189,82.788264 C62.8026608,65.6343057 57.14528,50.2282804 55.2182379,40.0168873 C53.2911959,29.8054942 54.2524449,17.5929204 54.5086094,17.5929204 C54.8150904,17.5929204 53.8951349,30.1216113 56.0054358,40.0168873 C58.1157367,49.9121632 62.9103803,62.9663375 62.1913737,77.6172783 C60.8529211,104.890451 43.5188572,128.593692 43.5188572,146.417206 C43.5188572,164.240719 49.5659599,175.395895 50.474087,191.152289 C51.0795051,201.656552 50.2783808,208.468549 48.0707142,211.588281 Z"
                        id="Leaves-base"
                        fill="#D2DEF8"></path>
                </g>
                <g id="vase" transform="translate(73.000000, 234.000000)">
                    <polygon id="Vase-base" fill="url(#linearGradient-5)" points="1.70086051 1.678826 86.7438859 1.678826 67.8454358 55.4012579 20.5993106 55.4012579"></polygon>
                    <rect id="Vase-base" fill="url(#linearGradient-6)" x="0" y="0" width="86.7438859" height="16.78826"></rect>
                </g>
            </g>
            <g id="Rocket" transform="translate(509.000000, 130.000000)">
                <path
                    d="M279.241194,423.509994 C286.615693,424.835062 293.079206,428.785421 297.630398,434.35942 C301.082357,431.645679 305.43543,430.027127 310.166417,430.027127 C321.380198,430.027127 330.470765,439.120549 330.470765,450.337855 C330.470765,451.532514 330.367654,452.703084 330.16985,453.841144 C330.270041,453.840185 330.370347,453.839704 330.470765,453.839704 C339.89388,453.839704 348.328843,458.07182 353.979738,464.739573 C362.262647,453.458286 375.618273,446.135635 390.683658,446.135635 C415.817996,446.135635 436.193403,466.517444 436.193403,491.659679 C436.193403,492.128282 436.186325,492.595232 436.17227,493.060426 C436.179314,493.060422 436.186358,493.060419 436.193403,493.060419 C453.207417,493.060419 467,506.857336 467,523.876695 C467,540.896055 453.207417,554.692972 436.193403,554.692972 C429.810682,554.692972 423.881324,552.75128 418.96344,549.426181 C414.228912,560.354776 403.348823,568 390.683658,568 C376.086349,568 363.86031,557.844201 360.681601,544.210764 C356.303011,547.987259 350.647489,550.323018 344.450773,550.482071 C336.649737,557.456617 326.353605,561.696671 315.067466,561.696671 C299.111989,561.696671 285.135153,553.222442 277.389568,540.527931 C268.108551,554.94809 251.919193,564.49815 233.5,564.49815 C215.080807,564.49815 198.891449,554.94809 189.610426,540.527939 C181.864847,553.222442 167.888011,561.696671 151.932534,561.696671 C140.646395,561.696671 130.350263,557.456617 122.549227,550.482071 C116.352511,550.323018 110.696989,547.987259 106.318399,544.210764 C103.13969,557.844201 90.9136505,568 76.3163418,568 C63.6511767,568 52.7710884,560.354776 48.0365599,549.426181 C43.1186761,552.75128 37.1893184,554.692972 30.8065967,554.692972 C13.7925832,554.692972 0,540.896055 0,523.876695 C0,506.857336 13.7925832,493.060419 30.8065967,493.060419 C30.8136415,493.060419 30.8206858,493.060422 30.8277295,493.060426 C30.8136747,492.595232 30.8065967,492.128282 30.8065967,491.659679 C30.8065967,466.517444 51.1820036,446.135635 76.3163418,446.135635 C91.3817274,446.135635 104.737353,453.458286 113.020262,464.739573 C118.671157,458.07182 127.10612,453.839704 136.529235,453.839704 C136.629653,453.839704 136.729959,453.840185 136.83015,453.841144 C136.632346,452.703084 136.529235,451.532514 136.529235,450.337855 C136.529235,439.120549 145.619802,430.027127 156.833583,430.027127 C161.56457,430.027127 165.917643,431.645679 169.369602,434.35942 C173.920794,428.785421 180.384307,424.835062 187.758806,423.509994 C191.498888,417.251902 196.698243,411.967091 202.88677,408.125812 C205.596311,393.875629 218.115395,383.102343 233.149925,383.102343 C248.014166,383.102343 260.419621,393.632963 263.317246,407.642945 C269.856268,411.518736 275.341836,416.985394 279.241194,423.509994 Z"
                    id="Smoke"
                    fill="url(#linearGradient-7)"></path>
                <g transform="translate(71.415292, 0.000000)" fill-rule="nonzero" id="Rocket-base">
                    <path d="M21.0044978,280.848335 C35.0074963,263.222359 56.011994,251.549527 84.017991,245.82984 L84.017991,351.585697 L0,351.585697 C0,322.053432 7.00149925,298.474312 21.0044978,280.848335 Z" fill="url(#linearGradient-8)"></path>
                    <path
                        d="M259.055472,280.848335 C273.058471,263.222359 294.062969,251.549527 322.068966,245.82984 L322.068966,351.585697 L238.050975,351.585697 C238.050975,322.053432 245.052474,298.474312 259.055472,280.848335 Z"
                        fill="url(#linearGradient-8)"
                        transform="translate(280.059970, 298.707768) scale(-1, 1) translate(-280.059970, -298.707768) "></path>
                    <path
                        d="M227.90969,108.46187 C236.543246,147.556379 241.768711,228.263906 243.586085,350.584453 C243.758381,362.181152 234.497074,371.721809 222.900374,371.894107 C222.796391,371.895652 222.692397,371.896424 222.588402,371.896424 L100.880865,371.896424 C89.2828841,371.896425 79.8808634,362.494405 79.8808634,350.896424 C79.8808634,350.792429 79.8816359,350.688435 79.8831808,350.584452 C81.7005549,228.263906 86.9260198,147.556379 95.5595755,108.46187 C109.247723,46.4791324 131.306076,10.3251758 161.734633,0 C192.16319,10.3251758 214.221542,46.4791324 227.90969,108.46187 Z"
                        fill="url(#linearGradient-9)"></path>
                    <path
                        d="M89.8307912,303.495818 L131.830791,303.495818 L131.830791,310.495818 L89.8307912,310.495818 L89.8307912,303.495818 Z M89.8307912,314.883794 L114.802671,314.883794 L114.802671,321.883794 L89.8307912,321.883794 L89.8307912,314.883794 Z"
                        fill="#9BBBE8"></path>
                    <path d="M106.990857,67.9358816 C120.435077,30.4672876 138.683,7.82199952 161.734633,0 C184.786265,7.82199952 203.034188,30.4672876 216.478402,67.9358816 L106.990857,67.9358816 L106.990857,67.9358816 Z" fill="url(#linearGradient-10)"></path>
                    <path
                        d="M161.734633,185.598027 C138.147023,185.598027 119.025487,166.470483 119.025487,142.875462 C119.025487,119.280441 138.147023,100.152898 161.734633,100.152898 C185.322242,100.152898 204.443778,119.280441 204.443778,142.875462 C204.443778,166.470483 185.322242,185.598027 161.734633,185.598027 Z"
                        fill="url(#linearGradient-11)"></path>
                    <path
                        d="M161.734633,177.898027 C181.069108,177.898027 196.743778,162.218432 196.743778,142.875462 C196.743778,123.532493 181.069108,107.852898 161.734633,107.852898 C142.400157,107.852898 126.725487,123.532493 126.725487,142.875462 C126.725487,162.218432 142.400157,177.898027 161.734633,177.898027 Z"
                        fill="#FFFFFF"></path>
                    <path
                        d="M100.821589,371.896424 L226.148426,371.896424 L219.937419,387.567657 C217.822215,392.904612 212.663181,396.409371 206.922347,396.409371 L120.047668,396.409371 C114.306834,396.409371 109.1478,392.904612 107.032596,387.567657 L100.821589,371.896424 Z"
                        fill="url(#linearGradient-12)"></path>
                    <path
                        d="M161.034483,245.12947 C166.149571,245.12947 170.38199,249.108761 170.697038,254.214138 L177.137931,358.589396 L144.931034,358.589396 L151.371928,254.214138 C151.686976,249.108761 155.919395,245.12947 161.034483,245.12947 Z"
                        fill="url(#linearGradient-13)"></path>
                </g>
            </g>
            <g id="Girl" transform="translate(835.000000, 312.000000)">
                <path
                    d="M87.9041449,397.823494 C97.5439626,413.233098 144.371069,422.047544 228.385464,424.266832 L260.135192,425 C261.937905,421.661644 262.889533,416.916952 262.990074,410.765925 C263.090616,404.614898 262.427345,391.718277 261.00026,372.076064 L168.789196,329 C105.226011,359.472725 78.2643273,382.413889 87.9041449,397.823494 Z"
                    id="Jacket"
                    fill="url(#linearGradient-14)"
                    fill-rule="nonzero"></path>
                <g id="Foots" transform="translate(104.000000, 267.000000)">
                    <g id="Foot" fill-rule="nonzero">
                        <path
                            d="M52.9963243,257.280188 L55.6795383,271.595482 C52.4144393,275.406362 48.3829192,277.311802 43.5849779,277.311802 C38.7870366,277.311802 34.5159883,276.350923 30.7718331,274.429167 L28.0839368,258.782559 L52.9963243,257.280188 Z"
                            id="Leg"
                            fill="url(#linearGradient-15)"
                            transform="translate(41.881738, 267.295995) rotate(-360.000000) translate(-41.881738, -267.295995) "></path>
                        <path
                            d="M55.8104184,269.898447 C57.8465216,269.898447 57.8465216,275.806237 57.9351081,280.302562 C57.9673578,281.939434 57.6221232,284.433113 56.8994045,287.783601 C56.6032465,289.156584 55.2988571,290.163062 53.7533553,290.211121 C21.0761777,291.227265 1.38602217,291.19982 1.326192,290.128784 C-1.28456099,282.818298 0.137611647,282.029754 14.9563328,276.295018 C20.979645,273.964041 26.5085984,272.851041 30.2544297,270.937207 C31.5357239,270.282563 34.2210005,275.575448 43.0787383,275.575448 C51.9364761,275.575448 53.7743153,269.898447 55.8104184,269.898447 Z"
                            id="Shoes"
                            fill="url(#linearGradient-16)"
                            transform="translate(29.103886, 280.425817) rotate(-360.000000) translate(-29.103886, -280.425817) "></path>
                        <path
                            d="M67.928788,0.487813505 C94.2099304,54.7284888 103.060834,141.05222 103.062212,163.955286 C103.063591,186.858351 93.6253536,223.967832 80.8650366,266.011629 C74.2413522,269.19274 58.2089849,266.569445 55.0275114,263.387916 C51.45781,259.818152 63.6520038,181.509218 61.6957224,165.474325 C59.7394409,149.439433 6.11306747,56.1745152 6.11306747,53.5226904 C6.11306747,50.8708655 8.15824381,37.1421108 12.2490753,12.3364263 L67.928788,0.487813505 Z"
                            id="Pants"
                            fill="url(#linearGradient-17)"
                            transform="translate(54.587640, 133.971052) scale(-1, 1) rotate(-360.000000) translate(-54.587640, -133.971052) "></path>
                    </g>
                    <g id="Foot" transform="translate(94.395244, 150.237185) scale(-1, 1) rotate(-360.000000) translate(-94.395244, -150.237185) translate(40.895244, 0.237185)">
                        <path
                            d="M40.9866161,266.056045 L43.6698301,280.371338 C40.4047312,284.182218 36.373211,286.087658 31.5752697,286.087658 C26.7773285,286.087658 22.5062802,285.12678 18.7621249,283.205024 L16.0742286,267.558416 L40.9866161,266.056045 Z"
                            id="Leg"
                            fill="url(#linearGradient-15)"
                            fill-rule="nonzero"
                            transform="translate(29.872029, 276.071851) scale(-1, 1) rotate(-360.000000) translate(-29.872029, -276.071851) "></path>
                        <path
                            d="M69.4273884,278.674303 C71.4634915,278.674303 71.4634915,284.582094 71.5520781,289.078419 C71.5843277,290.71529 71.2390932,293.20897 70.5163744,296.559457 C70.2202165,297.93244 68.9158271,298.938918 67.3703252,298.986978 C34.6931476,300.003122 15.0029921,299.975676 14.9431619,298.904641 C12.3324089,291.594155 13.7545816,290.80561 28.5733028,285.070875 C34.596615,282.739898 40.1255683,281.626897 43.8713996,279.713063 C45.1526938,279.05842 47.8379705,284.351304 56.6957083,284.351304 C65.553446,284.351304 67.3912852,278.674303 69.4273884,278.674303 Z"
                            id="Shoes"
                            fill="url(#linearGradient-16)"
                            fill-rule="nonzero"
                            transform="translate(42.720856, 289.201673) scale(-1, 1) rotate(-360.000000) translate(-42.720856, -289.201673) "></path>
                        <path
                            d="M106.92263,0.493733015 C98.9630916,20.6461446 88.815087,35.1232173 76.4786161,43.9249512 C65.9848286,51.411981 78.5905929,106.84548 65.4232711,169.333194 C52.2559493,231.820909 45.767031,266.060576 43.0527821,272.206557 C40.3385332,278.352537 17.7543409,278.882626 15.8300324,270.378501 C13.9057239,261.874376 23.0505019,223.07186 24.3352129,165.606233 C9.33092912,106.710783 -0.844904874,41.9108649 0.333987427,39.4520854 C1.51287973,36.9933058 -1.66233957,22.2020075 13.1595851,0.493733015 L106.92263,0.493733015 Z"
                            id="Pants"
                            fill="url(#linearGradient-18)"
                            fill-rule="nonzero"></path>
                        <path
                            d="M24.9719363,259.117714 C39.4542476,205.982951 44.2816847,171.490118 39.4542476,155.639217 C32.2130919,131.862864 14.5796088,58.2719707 14.5796088,46.4753137"
                            id="Texture"
                            stroke="#5F90CC"
                            stroke-linecap="round"
                            stroke-linejoin="round"
                            stroke-dasharray="5,10"></path>
                    </g>
                </g>
                <g id="Hair" transform="translate(184.000000, 26.000000)" fill-rule="nonzero">
                    <path
                        d="M9.90376552,18.8912881 C15.683704,0.798975458 26.0185127,0.871077574 40.9081916,19.1075945 C63.2427099,46.4623699 92.1923067,14.9873465 91.765997,62.7802721 C91.3396874,110.573198 162.997132,53.5506412 142.759276,133.73969 C131.184636,179.602223 68.7783751,169.576399 34.8605591,127.257895 C9.47425054,95.5839626 9.65564554,33.3549547 6.64735635,30.9147576 C1.96231239,27.1144479 3.04778212,23.1066247 9.90376552,18.8912881 Z"
                        fill="url(#linearGradient-19)"></path>
                    <ellipse id="hairbands" fill="url(#linearGradient-20)" transform="translate(12.250963, 14.287631) scale(-1, 1) translate(-12.250963, -14.287631) " cx="12.2509628" cy="14.2876306" rx="11.5" ry="13.3116883"></ellipse>
                </g>
                <g id="Head" transform="translate(102.000000, 0.000000)" fill-rule="nonzero">
                    <path
                        d="M20.7810204,43.0707272 L27.1930019,42.1300847 L66.779274,49.9539335 L78.6971349,63.8040795 L85.7222567,83.5621828 C84.9540967,90.8004787 86.1018156,96.5557799 89.1654134,100.828086 C92.2290111,105.100393 97.6713999,108.535254 105.49258,111.13267 C87.2181007,132.549099 73.4770713,144.436693 64.2694916,146.795452 C50.4581222,150.333591 56.4806959,137.040206 65.553811,118.234286 C71.6025544,105.697005 64.7930196,99.2318461 56.9548519,96.2602184 C50.3809042,100.541783 46.1791399,102.934848 44.3495591,103.439413 C41.8612347,104.125647 32.9340768,93.9940513 26.0670912,81.3686029 C25.3604832,80.069453 20.4539905,76.0954931 19.8002696,74.7526013 C18.3465166,71.7662608 20.8260715,71.2351198 20.0679167,67.890833 C19.4906025,65.3442495 16.8127783,62.1915743 16.8447323,57.8637172 C16.8651754,55.1584506 18.1771752,50.2274539 20.7810204,43.0707272 Z"
                        id="Face"
                        fill="#F2A384"></path>
                    <path
                        d="M19.8518112,71.6912529 C18.3776995,74.6286362 24.8757305,77.84724 26.6416073,81.3680706 C29.1809555,84.4026491 -1.27635602,79.1791326 0.402645203,45.7774421 C2.08164643,12.3757516 21.4494608,14.2372639 26.7836897,13.2901933 C32.1179185,12.3431227 46.9003226,-4.53793182 69.1385696,1.86237314 C91.3768165,8.2626781 96.8467452,23.529025 96.5763738,45.6994069 C96.2502248,72.4435358 87.2964664,87.8807672 81.9499421,88.5793644 C75.9721157,89.3604501 66.224884,85.8207479 52.708247,77.9602579 C58.2357417,76.2600697 59.7665363,72.0145752 57.3006308,65.2237746 C53.6017725,55.0375736 44.5331745,58.5373031 43.434716,66.8593095 L39.7107936,60.8481012 L17.9632089,61.2635793 C20.4232753,65.8221971 21.0528094,69.2980882 19.8518112,71.6912529 Z"
                        id="Hair"
                        fill="url(#linearGradient-21)"></path>
                </g>
                <path
                    d="M168.913493,115.099368 C162.153094,125.189261 161.828245,131.91721 167.938948,135.283214 C174.04965,138.649217 187.098441,130.554813 207.085319,111 C233.179883,122.25691 248.899914,131.197013 254.245412,137.820309 C259.590909,144.443605 257.156385,173.803902 246.941837,225.901199 C236.167709,251.331964 226.837012,258.139319 218.949747,266.323265 C207.502415,278.201189 179.421753,277.239081 157.706097,278.803559 C145.648559,279.672229 137.740809,278.318499 133,260.957504 C144.569246,241.603948 149.862643,230.911522 149.863036,222.66509 C149.863429,214.418659 146.010912,194.290367 138.305487,162.280214 L155.278678,122.29452 L168.913493,115.099368 Z"
                    id="Body"
                    fill="url(#linearGradient-22)"
                    fill-rule="nonzero"></path>
                <path
                    d="M-2,84.9466324 L13.3016158,80.7003464 C19.3925686,76.9001155 24.5065506,75 28.6435618,75 C32.2137597,75 34.8998175,79.3158804 35.1294396,83.2916952 C35.1761629,84.1006886 47.1681442,81.5261309 46.9982109,82.2677393 C46.5516903,84.2164058 33.2669997,89.1699905 30.9903625,89.6674639 C27.5980394,90.4087287 30.4487328,91.7968189 28.0517023,93.4290485 C26.453682,94.5172015 22.2574192,93.6754122 15.4629139,90.9036807 L-0.507250914,97 L-2,84.9466324 Z"
                    id="Path-11"
                    fill="#F2A384"
                    fill-rule="nonzero"
                    transform="translate(22.500000, 86.000000) rotate(-120.000000) translate(-22.500000, -86.000000) "></path>
                <g id="Jacket" transform="translate(205.000000, 116.000000)">
                    <mask id="mask-25" fill="white">
                        <use xlink:href="#path-24"></use>
                    </mask>
                    <use fill="url(#linearGradient-23)" fill-rule="nonzero" xlink:href="#path-24"></use>
                    <path
                        d="M26.518018,80.6304868 C20.3967179,71.8373965 20.3967179,57.3925454 26.518018,37.2959335 C28.6876528,30.1728862 37.8303375,28.2280433 50.884198,37.2959335 C66.5325214,48.1660724 90.4159517,94.3779692 79.2608071,128.268924 C62.0805614,180.465015 33.7675539,194.772509 18.1223507,198.19041 C15.1349234,198.843052 14.5015703,197.253263 8.25342813,204.178785 C1.16568424,212.034931 2.01150457,202.343081 10.7908891,175.103232 C30.878154,144.621051 40.0827489,124.222442 38.404674,113.907407 C36.726599,103.592372 32.7643804,92.5000651 26.518018,80.6304868 Z"
                        id="Shadow"
                        fill="#A83C5F"
                        fill-rule="nonzero"
                        opacity="0.5"
                        mask="url(#mask-25)"></path>
                </g>
                <g id="Hand" transform="translate(178.000000, 130.000000)" fill-rule="nonzero">
                    <path
                        d="M3.74298422,182.296562 C10.8802912,178.303196 18.4709592,175.373577 26.514988,173.507704 C38.5810313,170.708895 46.0122144,167.287187 46.7953486,168.48001 C47.5784827,169.672833 40.1426319,172.928551 41.1959049,173.056549 C43.5843435,173.346803 52.1998548,169.245273 53.1646586,170.592304 C53.4660779,171.013137 50.060693,173.255573 42.9485039,177.319612 C51.6443489,175.165121 56.1284729,174.672508 56.4008758,175.841774 C56.8094802,177.595672 43.8831352,180.122069 43.9166135,180.709335 C43.9750375,181.73419 55.3230201,182.38386 55.1105308,183.32335 C54.5521893,185.791972 40.9752219,184.904648 38.1148199,185.573482 C30.891837,187.262397 40.651338,191.959718 39.3310621,194.214186 C38.4508781,195.717165 33.5454859,193.057945 24.6148855,186.236529 L4.64535631,193.959507 L3.74298422,182.296562 Z"
                        fill="#F2A384"
                        transform="translate(30.076674, 181.428609) rotate(-207.000000) translate(-30.076674, -181.428609) "></path>
                    <path
                        d="M53.6085352,49.3643477 C47.4872352,40.5873406 47.4872352,26.16891 53.6085352,6.10905614 C55.7781701,-1.00096264 64.9208548,-2.94224823 77.9747153,6.10905614 C93.6230386,16.9593129 113.039183,68.8478961 101.884038,102.676862 C81.4232509,164.726016 62.8873288,166.014201 51.4389004,173.808689 C43.8066148,179.005014 39.4218089,175.600576 38.2844828,163.595376 C59.7969284,130.216259 69.7141137,108.378617 68.0360387,98.0824483 C66.3579638,87.7862798 61.5487959,71.546913 53.6085352,49.3643477 Z"
                        id="Jacket-sleeve"
                        fill="url(#linearGradient-26)"></path>
                </g>
                <g id="Jacket" transform="translate(24.000000, 87.000000)">
                    <mask id="mask-29" fill="white">
                        <use xlink:href="#path-28"></use>
                    </mask>
                    <use fill="url(#linearGradient-27)" fill-rule="nonzero" xlink:href="#path-28"></use>
                    <path
                        d="M104.854096,94.4873363 C104.972078,87.2559438 106.04913,81.3815992 108.085253,76.8643026 C110.121375,72.3470059 110.692346,69.6850276 109.798166,68.8783675 C87.5871053,80.6170979 68.9940583,83.2790762 54.0190255,76.8643026 C39.0439927,70.4495289 42.815694,79.2490953 65.3341295,103.263002 L104.854096,94.4873363 Z"
                        id="Path-47"
                        fill="#A83C5F"
                        fill-rule="nonzero"
                        opacity="0.5"
                        mask="url(#mask-29)"></path>
                </g>
            </g>
            <g id="Group-5" transform="translate(386.000000, 461.000000)" fill-rule="nonzero">
                <g id="Group-3" transform="translate(0.010183, 0.000000)">
                    <g id="Table" transform="translate(0.000000, 136.112903)">
                        <path
                            d="M43.4114053,195.649636 L43.4114053,18.1981567 L24.5593719,18.1981567 L43.4114053,195.649636 Z M21,15 L46.6130346,15 L46.6130346,208.488479 C46.6130346,209.813199 45.5379709,210.887097 44.2118126,210.887097 C42.8465257,210.887097 41.7012685,209.858064 41.55719,208.501873 L21,15 Z"
                            id="Table-base"
                            fill="url(#linearGradient-30)"
                            transform="translate(33.806517, 112.943548) scale(-1, 1) translate(-33.806517, -112.943548) "></path>
                        <path
                            d="M371.578411,195.649636 L371.578411,18.1981567 L352.726378,18.1981567 L371.578411,195.649636 Z M349.167006,15 L374.780041,15 L374.780041,208.488479 C374.780041,209.813199 373.704977,210.887097 372.378819,210.887097 C371.013532,210.887097 369.868275,209.858064 369.724196,208.501873 L349.167006,15 Z"
                            id="Table-base"
                            fill="url(#linearGradient-30)"></path>
                        <rect id="Table-base" fill="url(#linearGradient-31)" x="0.989816701" y="0.608294931" width="393" height="15.9907834"></rect>
                    </g>
                    <g id="Imac" transform="translate(101.841141, 0.000000)">
                        <rect id="Imac-base" fill="url(#linearGradient-32)" x="78.4399185" y="115.133641" width="44.0224033" height="26.3847926"></rect>
                        <rect id="Imac-base" fill="url(#linearGradient-33)" x="0" y="0" width="199.301426" height="115.93318"></rect>
                        <g id="Display" transform="translate(8.000000, 7.000000)">
                            <rect id="Display-base" fill="url(#linearGradient-34)" x="0.00407331976" y="0.995391705" width="183.293279" height="99.9423963"></rect>
                            <path
                                d="M115,75 L126.940571,75 C127.492856,75 127.940571,75.4477153 127.940571,76 L127.940571,95.6277053 C127.940571,96.1799901 127.492856,96.6277053 126.940571,96.6277053 L115,96.6277053 C114.447715,96.6277053 114,96.1799901 114,95.6277053 L114,76 C114,75.4477153 114.447715,75 115,75 Z"
                                id="Display-base"
                                fill="url(#linearGradient-35)"></path>
                            <path
                                d="M149,68 L160.940571,68 C161.492856,68 161.940571,68.4477153 161.940571,69 L161.940571,95.8369404 C161.940571,96.3892252 161.492856,96.8369404 160.940571,96.8369404 L149,96.8369404 C148.447715,96.8369404 148,96.3892252 148,95.8369404 L148,69 C148,68.4477153 148.447715,68 149,68 Z"
                                id="Display-base"
                                fill="url(#linearGradient-36)"></path>
                            <path
                                d="M166,78 L177.940571,78 C178.492856,78 178.940571,78.4477153 178.940571,79 L178.940571,95.8369404 C178.940571,96.3892252 178.492856,96.8369404 177.940571,96.8369404 L166,96.8369404 C165.447715,96.8369404 165,96.3892252 165,95.8369404 L165,79 C165,78.4477153 165.447715,78 166,78 Z"
                                id="Display-base"
                                fill="url(#linearGradient-37)"></path>
                            <path
                                d="M132,57 L143.940571,57 C144.492856,57 144.940571,57.4477153 144.940571,58 L144.940571,95.6507931 C144.940571,96.2030778 144.492856,96.6507931 143.940571,96.6507931 L132,96.6507931 C131.447715,96.6507931 131,96.2030778 131,95.6507931 L131,58 C131,57.4477153 131.447715,57 132,57 Z"
                                id="Display-base"
                                fill="url(#linearGradient-38)"></path>
                            <g id="Display-base" transform="translate(114.000000, 6.000000)">
                                <path
                                    d="M0.829644022,0 L64.0302575,0 C64.4720853,-8.11624501e-17 64.8302575,0.3581722 64.8302575,0.8 L64.8302575,44.2 C64.8302575,44.6418278 64.4720853,45 64.0302575,45 L0.829644022,45 C0.387816222,45 0.0296440218,44.6418278 0.0296440218,44.2 L0.0296440218,0.8 C0.0296440218,0.3581722 0.387816222,7.47296265e-16 0.829644022,0 Z"
                                    fill="url(#linearGradient-39)"></path>
                                <path
                                    d="M4.43584836,35.7227922 L12.5005595,21.9053134 C12.945994,21.1421389 13.9257652,20.8845597 14.6889397,21.3299942 C14.8184424,21.4055798 14.936677,21.4989945 15.040173,21.6074966 L21.9060244,28.8054443 C22.5159386,29.4448596 23.5287202,29.4687749 24.1681355,28.8588608 C24.2249219,28.8046943 24.2776463,28.7464234 24.3258815,28.6845197 L37.4646887,11.8225945 C38.0078181,11.1255596 39.01317,11.0007945 39.7102049,11.5439239 C39.8485755,11.6517422 39.968274,11.7815812 40.0645093,11.928244 L46.3326153,21.4808431 C46.8173961,22.2196494 47.8093094,22.4255778 48.5481158,21.940797 C48.7138677,21.832036 48.8579635,21.693418 48.9730636,21.5320035 L60.1158233,5.90558306"
                                    stroke="#FFFFFF"
                                    stroke-width="1.2"
                                    stroke-linecap="round"
                                    stroke-linejoin="round"></path>
                                <path
                                    d="M4.43584836,35.7227922 L21.212304,22.3061937 C21.7582219,21.869608 22.5243661,21.8379557 23.1044361,22.2280226 L30.3711941,27.1145392 C31.0110178,27.5447873 31.8666896,27.4575242 32.4064896,26.9069758 L39.376095,19.7985931 C39.9763914,19.1863437 40.9526157,19.1561441 41.5896081,19.7301177 L49.5334453,26.8880575 C50.1438952,27.4381145 51.0717669,27.4363308 51.6800974,26.8839308 L60.6890417,18.7032773"
                                    stroke="#FFFFFF"
                                    stroke-width="1.2"
                                    stroke-linecap="round"
                                    stroke-linejoin="round"></path>
                            </g>
                            <g id="Display-base" transform="translate(22.000000, 6.000000)">
                                <path
                                    d="M44.8460161,67.851073 C46.0303575,68.0633638 47.0683949,68.6962558 47.7993144,69.5892733 C48.3536976,69.1545014 49.0527992,68.8951911 49.8125937,68.8951911 C51.6135222,68.8951911 53.0734633,70.3520599 53.0734633,72.1491985 C53.0734633,72.3405965 53.0569038,72.5281349 53.0251365,72.7104649 C53.0412272,72.7103113 53.0573362,72.7102343 53.0734633,72.7102343 C54.5868116,72.7102343 55.9414629,73.3882669 56.8489943,74.456516 C58.1792259,72.6491268 60.3241337,71.4759556 62.7436282,71.4759556 C66.7801921,71.4759556 70.0524738,74.7413511 70.0524738,78.7694205 C70.0524738,78.844496 70.051337,78.9193065 70.0490798,78.9938359 C70.0502111,78.9938352 70.0513424,78.9938348 70.0524738,78.9938348 C72.7849171,78.9938348 75,81.2042563 75,83.9309494 C75,86.6576426 72.7849171,88.8680641 70.0524738,88.8680641 C69.0274114,88.8680641 68.0751591,88.5569832 67.285349,88.024265 C66.5249858,89.775149 64.7776483,91 62.7436282,91 C60.3993067,91 58.4358099,89.3729266 57.9253107,87.1886964 C57.222111,87.7937333 56.3138366,88.1679482 55.3186466,88.1934304 C54.0658037,89.3108312 52.4122492,89.9901356 50.5997001,89.9901356 C48.037258,89.9901356 45.7925845,88.6324693 44.5486467,86.5986663 C43.0581185,88.9089369 40.4581146,90.4389642 37.5,90.4389642 C34.5418854,90.4389642 31.9418815,88.9089369 30.4513533,86.5986663 C29.2074155,88.6324693 26.962742,89.9901356 24.4002999,89.9901356 C22.5877508,89.9901356 20.9341963,89.3108312 19.6813534,88.1934304 C18.6861634,88.1679482 17.777889,87.7937333 17.0746893,87.1886964 C16.5641901,89.3729266 14.6006933,91 12.2563718,91 C10.2223517,91 8.4750142,89.775149 7.71465095,88.024265 C6.92484092,88.5569832 5.97258861,88.8680641 4.94752624,88.8680641 C2.21508295,88.8680641 0,86.6576426 0,83.9309494 C0,81.2042563 2.21508295,78.9938348 4.94752624,78.9938348 C4.94865763,78.9938348 4.94978894,78.9938352 4.95092016,78.9938359 C4.94866296,78.9193065 4.94752624,78.844496 4.94752624,78.7694205 C4.94752624,74.7413511 8.21980786,71.4759556 12.2563718,71.4759556 C14.6758663,71.4759556 16.8207741,72.6491268 18.1510057,74.456516 C19.0585371,73.3882669 20.4131884,72.7102343 21.9265367,72.7102343 C21.9426638,72.7102343 21.9587728,72.7103113 21.9748635,72.7104649 C21.9430962,72.5281349 21.9265367,72.3405965 21.9265367,72.1491985 C21.9265367,70.3520599 23.3864778,68.8951911 25.1874063,68.8951911 C25.9472008,68.8951911 26.6463024,69.1545014 27.2006856,69.5892733 C27.9316051,68.6962558 28.9696425,68.0633638 30.1539839,67.851073 C30.7546394,66.8484562 31.5896537,66.0017699 32.5835283,65.3863537 C33.0186795,63.1033138 35.0292391,61.377312 37.4437781,61.377312 C39.8309688,61.377312 41.8232796,63.064436 42.288637,65.308993 C43.3388011,65.9299383 44.219781,66.8057585 44.8460161,67.851073 Z"
                                    fill="url(#linearGradient-40)"></path>
                                <g id="Group-3" transform="translate(11.469265, 0.000000)">
                                    <path d="M3.37331334,44.9950678 C5.62218891,42.1711878 8.99550225,40.3010686 13.4932534,39.3847102 L13.4932534,56.3279901 L0,56.3279901 C0,51.5965886 1.12443778,47.8189478 3.37331334,44.9950678 Z" id="Display-base" fill="url(#linearGradient-41)"></path>
                                    <path
                                        d="M41.6041979,44.9950678 C43.8530735,42.1711878 47.2263868,40.3010686 51.7241379,39.3847102 L51.7241379,56.3279901 L38.2308846,56.3279901 C38.2308846,51.5965886 39.3553223,47.8189478 41.6041979,44.9950678 Z"
                                        id="Display-base"
                                        fill="url(#linearGradient-41)"
                                        transform="translate(44.977511, 47.856350) scale(-1, 1) translate(-44.977511, -47.856350) "></path>
                                    <path
                                        d="M36.6021986,17.3768136 C37.9888479,23.6406642 38.8280772,36.5723893 39.1198865,56.1719888 C39.1475005,58.0274539 37.6657436,59.554 35.8102786,59.5816252 C35.7936065,59.5818734 35.7769328,59.5819975 35.7602589,59.5819975 L16.1887744,59.5819975 C14.3330934,59.5820051 12.8287668,58.0776785 12.8287668,56.2219975 C12.8287668,56.2053235 12.8288909,56.1886497 12.8291391,56.1719775 C13.1209486,36.5723843 13.9601778,23.640663 15.3468269,17.3768136 C17.5451376,7.44648073 21.0876995,1.65420951 25.9745127,0 C30.861326,1.65420951 34.4038879,7.44648073 36.6021986,17.3768136 Z"
                                        id="Display-base"
                                        fill="url(#linearGradient-42)"></path>
                                    <path
                                        d="M17.1826859,10.8840937 C19.3418218,4.88120276 22.2724304,1.25317246 25.9745127,0 C29.676595,1.25317246 32.6072037,4.88120276 34.7663386,10.8840937 L17.1826859,10.8840937 L17.1826859,10.8840937 Z"
                                        id="Display-base"
                                        fill="url(#linearGradient-43)"></path>
                                    <path
                                        d="M25.9745127,29.7348952 C22.1863527,29.7348952 19.1154423,26.6704472 19.1154423,22.8902589 C19.1154423,19.1100707 22.1863527,16.0456227 25.9745127,16.0456227 C29.7626728,16.0456227 32.8335832,19.1100707 32.8335832,22.8902589 C32.8335832,26.6704472 29.7626728,29.7348952 25.9745127,29.7348952 Z"
                                        id="Display-base"
                                        fill="url(#linearGradient-44)"></path>
                                    <path
                                        d="M25.9745127,28.5028952 C29.0828383,28.5028952 31.6015832,25.9894507 31.6015832,22.8902589 C31.6015832,19.7910672 29.0828383,17.2776227 25.9745127,17.2776227 C22.8661872,17.2776227 20.3474423,19.7910672 20.3474423,22.8902589 C20.3474423,25.9894507 22.8661872,28.5028952 25.9745127,28.5028952 Z"
                                        id="Display-base"
                                        fill="#FFFFFF"></path>
                                    <path
                                        d="M16.191904,59.5819975 L36.3193403,59.5819975 L35.3204267,62.0963015 C34.9815358,62.9493028 34.1565561,63.5092478 33.2387009,63.5092478 L19.2725435,63.5092478 C18.3546883,63.5092478 17.5297085,62.9493028 17.1908177,62.0963015 L16.191904,59.5819975 Z"
                                        id="Display-base"
                                        fill="url(#linearGradient-45)"></path>
                                    <path
                                        d="M25.862069,39.2725031 C26.6835832,39.2725031 27.3633678,39.9115365 27.4140885,40.7314835 L28.4482759,57.4500617 L23.2758621,57.4500617 L24.3100494,40.7314835 C24.3607702,39.9115365 25.0405547,39.2725031 25.862069,39.2725031 Z"
                                        id="Display-base"
                                        fill="url(#linearGradient-46)"></path>
                                </g>
                            </g>
                        </g>
                    </g>
                </g>
            </g>
            <g id="Man" transform="translate(376.000000, 378.000000)">
                <g id="Foot" transform="translate(80.000000, 270.000000)" fill-rule="nonzero">
                    <path
                        d="M125.007184,161.926216 C124.72779,160.481482 129.518888,141.686301 137.250426,147.191956 C144.981965,152.69761 145.737254,161.455112 151.527204,160.778724 C155.387171,160.327799 157.049665,161.482561 156.514684,164.243011 L146.598983,172.388885 L137.170135,173.772139 C129.247764,166.838013 125.193447,162.889372 125.007184,161.926216 Z"
                        id="leg"
                        fill="#B06C57"
                        transform="translate(140.803980, 159.978483) rotate(67.000000) translate(-140.803980, -159.978483) "></path>
                    <path
                        d="M122.24578,166.701208 C124.7727,165.565907 127.945746,171.750961 132.577607,171.750961 C137.209469,171.750961 140.090674,166.134877 141.274386,166.701208 C144.734938,168.356861 149.756917,169.162028 155.284044,171.10979 C168.882037,175.901728 170.199006,176.589601 168.220822,183.710157 C168.220822,185.292747 152.775784,186.084042 121.885708,186.084042 C120.635858,182.774923 119.962255,179.684328 119.864897,176.812257 C119.718861,172.504152 119.718861,167.836509 122.24578,166.701208 Z"
                        id="Shoes"
                        fill="url(#linearGradient-47)"
                        transform="translate(144.383648, 176.323053) rotate(18.000000) translate(-144.383648, -176.323053) "></path>
                    <path
                        d="M32.8815203,149.901746 C32.6021259,148.457012 38.8325424,135.354173 46.564081,140.859827 C54.2956196,146.365482 56.1348169,147.632264 59.5002048,149.368376 C61.7437967,150.525783 63.3934728,151.335942 64.449233,151.798851 L54.5335317,159.944725 L44.2385557,160.020616 C36.8534617,154.237859 33.0677832,150.864902 32.8815203,149.901746 Z"
                        id="leg"
                        fill="#B06C57"
                        transform="translate(48.660855, 149.768528) scale(-1, 1) rotate(44.000000) translate(-48.660855, -149.768528) "></path>
                    <path
                        d="M43.5466777,149.409922 C48.0451557,147.948278 52.7913077,149.878735 53.9750197,150.445065 C55.656071,151.249341 67.0295066,160.641514 59.3977704,167.134576 C57.5031863,168.746483 50.4955734,169.875658 38.3749317,170.522098 C37.1250822,167.212979 36.4514786,164.122385 36.3541208,161.250314 C36.2080842,156.942209 39.0481997,150.871566 43.5466777,149.409922 Z"
                        id="Shoes"
                        fill="url(#linearGradient-48)"
                        transform="translate(49.177812, 159.698065) scale(-1, 1) rotate(18.000000) translate(-49.177812, -159.698065) "></path>
                    <path
                        d="M22.1812539,21.0528853 C65.4937818,0.801000754 91.0460246,-4.26197038 98.8379822,5.86397189 C110.525919,21.0528853 120.537828,70.9804265 62.0543458,144.838401 C57.8384211,147.821469 54.0935356,149.078425 50.8196893,148.609267 C47.5458429,148.140109 44.8183529,145.154507 42.6372192,139.652461 L58.7949664,73.6845112 L13.1530606,67.497094 L0.0766739148,38.9556774 L22.1812539,21.0528853 Z"
                        id="Pants"
                        fill="#111AA7"></path>
                    <path
                        d="M112.181254,21.0528853 C157.981952,15.9036835 184.778279,18.3920538 192.570237,28.5179961 C204.258173,43.7069095 198.473024,79.1359265 155.908077,153.995821 C147.789665,156.207276 142.093536,157.078425 138.819689,156.609267 C135.545843,156.140109 132.818353,153.154507 130.637219,147.652461 L148.794966,73.6845112 L79.6396837,83.5638359 L90.0766739,38.9556774 L112.181254,21.0528853 Z"
                        id="Pants"
                        fill="url(#linearGradient-49)"></path>
                </g>
                <g id="Body" transform="translate(11.000000, 120.000000)">
                    <path
                        d="M57.1944579,14.9378879 C75.7244874,23.4123513 86.9988632,25.5309671 91.0175852,21.2937355 C95.0363073,17.0565038 96.8075752,13.9236734 96.3313891,11.8952443 C129.426508,16.5037569 149.883862,27.0269908 157.703452,43.4649459 C167.10575,63.2299913 183.691715,114.49032 194.880712,121.949027 C196.888538,119.311 207.552677,113.426561 226.873128,104.295708 C223.885676,102.820845 222.39195,100.86195 222.39195,98.4190215 C222.39195,94.7546296 224.259498,95.9381748 225.58034,94.5853225 C226.894157,93.2396649 227.517919,91.159809 229.396306,91.204017 C231.078542,91.2436085 232.925835,91.6038085 234.794464,92.1408133 C235.7349,92.4110747 237.871107,90.8625222 238.80403,91.204017 C243.967608,93.0941358 248.810928,96.7447815 248.810928,98.0607618 C248.810928,99.3767421 249.48567,101.725192 247.077581,104.295708 C246.21937,105.211806 244.421915,106.306566 241.685217,107.579987 C214.471895,140.336234 196.757955,156.714358 188.543397,156.714358 C176.221559,156.714358 158.038819,131.658379 153.17005,126.414591 C149.699591,137.698739 125.915414,163.695802 81.8175204,204.405781 L9.16923062,137.379507 L2.00725028,63.9085106 L60.0697741,6.20733741 L57.1944579,14.9378879 Z"
                        fill="#B06C57"
                        fill-rule="nonzero"></path>
                    <mask id="mask-52" fill="white">
                        <use xlink:href="#path-51"></use>
                    </mask>
                    <use fill="url(#linearGradient-50)" fill-rule="nonzero" xlink:href="#path-51"></use>
                    <path
                        d="M149.226078,118.588075 C141.944075,109.595003 136.683828,102.800549 133.445337,98.2047128 C131.313087,104.251894 151.107284,168.78345 174.743048,173.195376 C190.500224,176.13666 194.967384,174.940649 188.144529,169.607344 L149.226078,118.588075 Z"
                        id="Shadow"
                        fill="#EFAB45"
                        fill-rule="nonzero"
                        opacity="0.5"
                        mask="url(#mask-52)"></path>
                </g>
                <g id="Head" transform="translate(41.000000, 0.000000)" fill-rule="nonzero">
                    <path
                        d="M34.5744812,112.307649 C31.4833436,122.301805 28.9965558,128.916079 27.1141178,132.15047 C24.2904609,137.002056 29.3149586,149.208245 41.6134785,149.208245 C49.8124917,149.208245 59.4602659,146.00631 70.556801,139.602439 C66.3979785,133.038528 64.3185673,126.848419 64.3185673,121.032111 C64.3185673,115.215803 65.5043241,110.233833 67.8758378,106.086203 C72.3704983,108.973111 76.0584177,108.973111 78.939596,106.086203 C83.2613636,101.755841 101.571995,51.1575145 52.5068849,38.7716997 C40.6298797,30.1797099 22.4421576,51.1575145 22.4421576,60.4863263 C22.4421576,66.7055341 22.4421576,72.2348597 22.4421576,77.0743031 C16.5956414,74.5470532 13.6723833,76.5278243 13.6723833,83.0166166 C13.6723833,89.5054089 17.4512246,93.9430335 25.0089074,96.3294904 L34.5744812,112.307649 Z"
                        id="Face"
                        fill="#B06C57"></path>
                    <path
                        d="M31.7036241,6.86634968 C45.9712222,21.2127653 58.7664166,5.85780234 73.2575961,17.5470323 C82.9183824,25.3398523 86.2688793,33.5269645 83.3090865,42.1083687 C90.001244,51.305113 90.001244,64.2726489 83.3090865,81.0109763 C76.6169291,97.7493037 66.923754,107.486006 54.2295613,110.221084 C36.4588102,102.392913 26.1686568,95.0772127 23.3591011,88.2739821 C22.8942629,87.1483944 25.8300881,87.4821766 28.1349861,82.0500662 C30.4398841,76.6179559 31.07623,70.395776 26.653801,68.9316641 C22.5043968,67.5579411 18.7330481,69.697349 15.3397552,75.3498878 C15.3397552,62.4000129 15.3397552,55.9250755 15.3397552,55.9250755 C15.3397552,55.9250755 -1.38027481,39.1272499 1.23546113,22.7658794 C3.79858734,6.73358163 17.4360261,-7.48006598 31.7036241,6.86634968 Z"
                        id="Hair"
                        fill="url(#linearGradient-53)"
                        transform="translate(44.642952, 55.579763) scale(-1, 1) translate(-44.642952, -55.579763) "></path>
                </g>
                <g id="Chair" transform="translate(0.000000, 187.000000)" fill-rule="nonzero">
                    <polygon id="Chair-base" fill="#D2D9FF" points="154 184 166 184 166 233 154 233"></polygon>
                    <circle id="Wheel" fill="url(#linearGradient-54)" cx="95" cy="296" r="9"></circle>
                    <circle id="Wheel" fill="url(#linearGradient-54)" cx="221" cy="296" r="9"></circle>
                    <circle id="Wheel" fill="url(#linearGradient-54)" cx="160" cy="306" r="9"></circle>
                    <path
                        d="M147.881887,243.913896 L147.188938,236.462114 C147.174936,236.311537 147.169484,236.160287 147.172609,236.009093 C147.218258,233.800425 149.045743,232.046953 151.25441,232.092602 L168.443757,232.447876 C168.518609,232.449423 168.593402,232.453071 168.668048,232.458816 C170.870673,232.628338 172.518829,234.551342 172.349308,236.753968 L171.856692,243.154617 L226.584615,280.718959 C226.733073,280.820858 226.876958,280.929265 227.015849,281.043861 C229.620938,283.193279 229.990334,287.047569 227.840916,289.652659 C225.375307,292.640971 221.131549,293.45059 217.738946,291.579898 L170.149318,265.338837 L167.543567,299.195842 C167.252323,302.980029 164.146574,305.931063 160.352453,306.028726 C156.593853,306.125475 153.403546,303.292351 153.055417,299.548658 L149.787192,264.403038 L100.500439,291.579898 C97.1078366,293.45059 92.8640785,292.640971 90.3984697,289.652659 C88.2490519,287.047569 88.618447,283.193279 91.2235368,281.043861 C91.3624277,280.929265 91.5063124,280.820858 91.6547702,280.718959 L147.467253,242.410193 L147.881887,243.913896 Z"
                        id="Chair-base"
                        fill="url(#linearGradient-55)"></path>
                    <path
                        d="M19.2285694,1.78935248 C13.1744391,-1.59097817 3.92141075,1.57430272 0.998715376,5.81654128 C1.93934968,11.8148661 2.53442849,14.40731 2.56009356,14.5456962 C12.0663579,65.8035028 48.9019763,115.156123 77.5715417,146.044815 C93.9142888,163.652549 107.767073,177.698822 119.129895,188.183635 C130.159473,189.900845 140.310816,188.724534 149.583926,184.654702 C155.629347,182.001455 165.109893,182.782432 164.839891,174.468564 C164.283362,157.331959 149.059315,148.676608 143.051306,123.85559 C137.414878,100.569693 143.754704,53.1343056 126.719506,43.3698986 C109.684307,33.6054916 88.3495801,50.5544167 55.8361354,36.4350781 C32.8367974,26.4473501 25.2826997,5.16968313 19.2285694,1.78935248 Z"
                        id="Chair-base"
                        fill="url(#linearGradient-56)"></path>
                    <path
                        d="M0.871245414,5.25474165 C8.27287372,64.1120733 14.6990765,102.838749 20.1498539,121.434768 C28.4164379,149.637269 38.9482046,161.511866 50.3162519,172.821585 C61.6842991,184.131303 104.196903,203.837694 138.160029,205.582314 C168.220272,207.12645 210.199035,198.341062 225.727172,188.683347 C241.25531,179.025633 249.288441,158.320483 231.731805,153.172133 C214.17517,148.023783 157.580193,169.223977 152.24863,166.910956 C122.584191,154.041474 131.627036,64.7544221 117.326223,55.2857134 C103.73372,46.2859832 74.7469799,57.8426674 39.8361354,42.4350781 C29.6033913,37.9189479 16.6150947,25.5255024 0.871245414,5.25474165 Z"
                        id="Chair-base"
                        fill="url(#linearGradient-57)"></path>
                </g>
            </g>
        </g>
    </g>
</svg>
