<svg viewBox="0 0 344 612" version="1.1" xmlns="http://www.w3.org/2000/svg" xmlns:xlink="http://www.w3.org/1999/xlink"> <title>iPhone Mockup - Designed for Webpixels in Sketch</title> <defs> <path d="M264.002152,123.133312 C264.945512,123.320376 265.662412,124.151176 265.662412,125.152424 L265.662412,183.442424 C265.662412,184.441528 264.945512,185.272864 264.002152,185.457784 L264.002152,495.38424 C264.002152,516.707928 246.726872,533.996072 225.415244,533.996072 L39.968624,533.996072 C18.656996,533.996072 1.378768,516.707928 1.378768,495.38424 L1.378768,198.87976 C0.57852,198.318568 0.052436,197.387536 0.052436,196.332688 L0.052436,161.830904 C0.052436,160.777128 0.57852,159.847168 1.378768,159.282224 L1.378768,149.684072 C0.57852,149.119664 0.052436,148.188632 0.052436,147.136464 L0.052436,112.634144 C0.052436,111.579832 0.57852,110.648264 1.378768,110.087072 L1.378768,92.82948 L0.17518,92.82948 L0.17518,72.4052 L1.378768,72.4052 L1.378768,39.597712 C1.378768,18.272952 18.656996,0.985344 39.968624,0.985344 L225.415244,0.985344 C246.726872,0.985344 264.002152,18.272952 264.002152,39.597712 L264.002152,123.133312 Z M12.230728,495.862464 C12.230728,509.950656 23.68252,521.368768 37.8103,521.368768 L227.547148,521.368768 C241.674682,521.368768 253.1218,509.950656 253.1218,495.862464 L253.1218,38.262976 C253.1218,24.173248 241.674682,12.753088 227.547148,12.753088 L203.003236,12.753088 C201.180376,12.833472 199.72504,14.298304 199.660096,16.119488 L199.660096,18.286272 C199.660096,25.651904 193.676638,31.621824 186.287782,31.621824 L79.27237,31.621824 C71.883268,31.621824 65.89243,25.651904 65.89243,18.286272 L65.89243,16.243392 L65.870044,16.243392 C65.870044,14.36384 64.38199,12.836544 62.521984,12.753088 L37.8103,12.753088 C23.68252,12.753088 12.230728,24.173248 12.230728,38.262976 L12.230728,495.862464 Z" id="path-1"></path> <filter x="-26.4%" y="-9.4%" width="152.7%" height="126.3%" filterUnits="objectBoundingBox" id="filter-2"> <feOffset dx="0" dy="20" in="SourceAlpha" result="shadowOffsetOuter1"></feOffset> <feGaussianBlur stdDeviation="20" in="shadowOffsetOuter1" result="shadowBlurOuter1"></feGaussianBlur> <feColorMatrix values="0 0 0 0 0 0 0 0 0 0 0 0 0 0 0 0 0 0 0.09 0" type="matrix" in="shadowBlurOuter1"></feColorMatrix> </filter> <filter x="-22.0%" y="-7.2%" width="144.0%" height="122.0%" filterUnits="objectBoundingBox" id="filter-3"> <feGaussianBlur stdDeviation="13.5" in="SourceAlpha" result="shadowBlurInner1"></feGaussianBlur> <feOffset dx="0" dy="-10" in="shadowBlurInner1" result="shadowOffsetInner1"></feOffset> <feComposite in="shadowOffsetInner1" in2="SourceAlpha" operator="arithmetic" k2="-1" k3="1" result="shadowInnerInner1"></feComposite> <feColorMatrix values="0 0 0 0 0 0 0 0 0 0 0 0 0 0 0 0 0 0 0.14 0" type="matrix" in="shadowInnerInner1"></feColorMatrix> </filter> </defs> <g id="Page-1" stroke="none" stroke-width="1" fill="none" fill-rule="evenodd"> <g id="09" transform="translate(-765.000000, -236.000000)"> <g id="iPhones" transform="translate(597.000000, 206.000000)"> <g id="Phone" transform="translate(207.000000, 49.000000)"> <g id="Combined-Shape"> <use fill="#FFFFFF" fill-opacity="1" filter="url(#filter-2)" xlink:href="#path-1"></use> <use fill="#FFFFFF" fill-rule="evenodd" xlink:href="#path-1"></use> <use fill="#FFFFFF" fill-opacity="1" filter="url(#filter-3)" xlink:href="#path-1"></use> </g> </g> </g> </g> </g></svg>
