<svg xmlns="http://www.w3.org/2000/svg" width="395.801" height="937.58"><rect width="16.601" height="24.506" x="233.811" y="637.702" ry=".118" fill="#ccc"/><path d="M223.353 675.072s-5.436 43.56-9.256 83.521c-3.819 39.964-1.952 75.915-1.266 78.955.686 3.039 5.193-9.272 7.205-18.803 2.013-9.532 1.58-48.351 2.894 15.898 1.313 64.248 4.23 101.777 6.08 89.995 6.682-19.592 9.275-111.117 13.262-74.99 3.988 36.124 9.349 102.94 10.842 41.904 1.493-61.036-1.552-105.289 3.923-79.483 5.475 25.805 8.23 61.083 10.765 27.728 2.535-33.356-2.453-124.812-4.653-163.777-6.823-10.252-21.776-24.094-39.797-.953z" fill="#ff0" fill-rule="evenodd"/><path d="M225.515 671.529s-4.717 36.785-8.03 70.533c-3.315 33.748-1.694 64.11-1.1 66.676.595 2.566 4.506-7.83 6.253-15.879 1.746-8.05 1.37-40.832 2.51 13.426 1.14 54.257 3.67 85.95 5.277 76 5.797-16.546 8.047-93.837 11.507-63.33 3.46 30.508 8.112 86.933 9.408 35.389 1.295-51.544-1.348-88.915 3.403-67.122 4.75 21.791 7.142 51.584 9.342 23.415 2.199-28.169-2.13-105.402-4.038-138.308-5.92-8.657-18.895-20.346-34.533-.804z" fill="#ff4000" fill-rule="evenodd"/><path d="M229.774 667.832s-3.519 26.755-5.99 51.3c-2.472 24.546-1.264 46.628-.82 48.495.444 1.866 3.36-5.695 4.663-11.55 1.303-5.854 1.023-29.697 1.873 9.766.85 39.461 2.737 62.512 3.936 55.275 4.324-12.033 6.002-68.249 8.583-46.06 2.58 22.188 6.05 63.228 7.017 25.739.966-37.49-1.005-64.67 2.539-48.82 3.543 15.85 5.327 37.518 6.967 17.03 1.64-20.487-1.587-76.66-3.011-100.593-4.416-6.297-14.094-14.798-25.758-.585z" fill="red" fill-rule="evenodd"/><rect width="8.696" height="24.111" x="230.44" y="642.259" ry=".118"/><rect width="8.696" height="24.111" x="657.674" y="-254.551" ry=".118" transform="rotate(90)"/><rect width="8.696" height="24.111" x="245.878" y="642.236" ry=".118"/><rect width="14.229" height="19.763" x="149.225" y="640.864" ry=".118" fill="#ccc"/><path d="M110.357 587.108l15.968 51.258 57.572.742L199.687 587z" fill="#ccc" fill-rule="evenodd"/><path d="M197.013 14.547C171.863 39.09-21.45 244.794 124.98 638.717h146.414c146.43-393.921-46.882-599.594-72.033-624.139z" fill="#ececec" fill-rule="evenodd" stroke="#000" stroke-width="9.045"/><path d="M104.28 176.553L137.87 96.7l46.87-68.733 13.28-13.14 49.994 67.722 39.058 81.873 3.124 17.184-186.697-1.011" stroke="#000" stroke-width=".88" fill="none"/><path d="M78.22 480.56s-107.076-1.334-42.427 270.72c0 0 6.061-227.16 62.63-199.154M317.581 481.678s107.077-1.334 42.427 270.72c0 0-6.061-227.16-62.63-199.154" fill="red" fill-rule="evenodd" stroke="#000" stroke-width="10"/><path d="M341.918 510.949l-18.062 46.24-11.628-7.271-11.852 3.572 17.158-69.36 33.868 14.93s50.12 38.708 8.578 227.37c24.384-195.135-18.965-215.481-18.062-215.481zM32.763 748.25s-10.06-220.368 58.589-221.223c7.575-.094 7.07 24.244 7.07 24.244l-27.273 6.06-21.213 66.67z" fill="#d20000" fill-rule="evenodd"/><path d="M267.566 634.048S383.07 419.498 292.148 183.3C323.842 545.457 128.18 634.188 128.18 634.188zM288.582 174.508s-29.85-101.306-90.914-154.047c55.89 127.56 2.315 153.768 2.315 153.768z" fill="#ccc" fill-rule="evenodd"/><path d="M105.67 169.903h185.68" fill="none" stroke="red" stroke-width="8.844"/><path d="M102.874 574.61h191.273" fill="none" stroke="red" stroke-width="9.235"/><path d="M79.465 456.747v-4.302h240.228v8.604H79.465z" fill="red" stroke="red" stroke-width=".883"/><path d="M196.459 14.537c-25.042 24.544-217.522 230.254-71.723 624.19H270.52C416.318 244.793 223.84 39.114 198.797 14.57z" fill="none" stroke="#000" stroke-width="9.025"/><path d="M100.463 178.524h194.903" fill="none" stroke="#000" stroke-width="9.061"/><path d="M107.89 583.735h181.77" fill="none" stroke="#000" stroke-width="9.003"/><path d="M315.581 481.634s109.312-1.054 44.663 271c0 0-6.061-227.16-62.63-199.154M78.22 480.56s-107.076-1.334-42.427 270.72c0 0 6.061-227.16 62.63-199.154" fill="none" stroke="#000" stroke-width="10"/><path d="M102.736 161.798h185.68" fill="none" stroke="#000" stroke-width="8.844"/><path d="M102.594 566.784h191.274" fill="none" stroke="#000" stroke-width="9.235"/><path d="M76.142 447.698h240.286" fill="none" stroke="#000" stroke-width="10.351"/><path d="M81.675 466.718h231.59" fill="none" stroke="#000" stroke-width="10.162"/><path d="M221.423 223.048a23.865 23.865 0 01-47.73 0 23.865 23.865 0 1147.73 0z" fill="#b3b3b3" stroke="#000" stroke-width="3" stroke-linecap="round"/><ellipse ry="15.143" rx="15.562" cy="221.869" cx="197.907" fill="#fff" stroke="#fff" stroke-width=".65"/><path d="M213.983 222.784a16.305 16.095 0 11-32.61 0 16.305 16.095 0 1132.61 0z" fill="none" stroke="#000" stroke-width="3.129" stroke-linecap="round"/><path d="M221.683 276.736a23.865 23.865 0 01-47.73 0 23.865 23.865 0 1147.73 0z" fill="#b3b3b3" stroke="#000" stroke-width="3" stroke-linecap="round"/><ellipse ry="15.143" rx="15.562" cy="275.556" cx="198.168" fill="#fff" stroke="#fff" stroke-width=".65"/><path d="M214.244 276.472a16.305 16.095 0 11-32.61 0 16.305 16.095 0 1132.61 0z" fill="none" stroke="#000" stroke-width="3.129" stroke-linecap="round"/><path d="M221.683 330.491a23.865 23.865 0 01-47.73 0 23.865 23.865 0 1147.73 0z" fill="#b3b3b3" stroke="#000" stroke-width="3" stroke-linecap="round"/><ellipse ry="15.143" rx="15.562" cy="329.312" cx="198.168" fill="#fff" stroke="#fff" stroke-width=".65"/><path d="M214.244 330.227a16.305 16.095 0 11-32.61 0 16.305 16.095 0 1132.61 0z" fill="none" stroke="#000" stroke-width="3.129" stroke-linecap="round"/><path d="M221.683 384.247a23.865 23.865 0 01-47.73 0 23.865 23.865 0 1147.73 0z" fill="#b3b3b3" stroke="#000" stroke-width="3" stroke-linecap="round"/><ellipse ry="15.143" rx="15.562" cy="383.068" cx="198.168" fill="#fff" stroke="#fff" stroke-width=".65"/><path d="M214.244 383.983a16.305 16.095 0 11-32.61 0 16.305 16.095 0 1132.61 0z" fill="none" stroke="#000" stroke-width="3.129" stroke-linecap="round"/><path d="M136.395 675.862s-5.436 43.56-9.256 83.522c-3.819 39.963-1.952 75.915-1.266 78.955.686 3.038 5.193-9.272 7.205-18.804 2.013-9.531 1.58-48.35 2.894 15.899 1.313 64.248 4.23 101.777 6.08 89.995 6.682-19.593 9.275-111.117 13.262-74.991 3.988 36.124 9.349 102.94 10.842 41.904 1.493-61.035-1.552-105.288 3.923-79.482 5.475 25.805 8.23 61.083 10.765 27.727 2.535-33.356-2.453-124.811-4.653-163.777-6.823-10.252-21.776-24.093-39.797-.952z" fill="#ff0" fill-rule="evenodd"/><path d="M138.557 672.32s-4.717 36.785-8.03 70.532c-3.315 33.749-1.694 64.11-1.1 66.677.595 2.566 4.506-7.83 6.253-15.88 1.746-8.049 1.37-40.831 2.51 13.426 1.14 54.257 3.67 85.95 5.277 76 5.797-16.545 8.047-93.836 11.507-63.329 3.46 30.507 8.112 86.933 9.408 35.388 1.295-51.544-1.348-88.915 3.403-67.122 4.75 21.792 7.142 51.584 9.342 23.416 2.199-28.169-2.13-105.402-4.038-138.308-5.92-8.658-18.895-20.347-34.533-.804z" fill="#ff4000" fill-rule="evenodd"/><path d="M142.816 668.622s-3.519 26.755-5.99 51.3c-2.472 24.546-1.264 46.628-.82 48.495.444 1.867 3.36-5.694 4.663-11.549 1.303-5.854 1.023-29.697 1.873 9.765.85 39.462 2.737 62.513 3.936 55.276 4.324-12.034 6.002-68.249 8.583-46.06 2.58 22.188 6.05 63.227 7.017 25.738.966-37.489-1.005-64.67 2.539-48.819 3.543 15.85 5.327 37.518 6.967 17.03 1.64-20.487-1.587-76.66-3.011-100.593-4.416-6.297-14.094-14.799-25.758-.585z" fill="red" fill-rule="evenodd"/><rect width="8.696" height="24.111" x="143.889" y="643.038" ry=".118"/><rect width="8.696" height="24.111" x="658.453" y="-168" ry=".118" transform="rotate(90)"/><rect width="8.696" height="24.111" x="159.327" y="643.015" ry=".118"/></svg>